<svg width="24" height="24" viewBox="0 0 24 24" fill="none" xmlns="http://www.w3.org/2000/svg">
<rect width="1" height="1" transform="matrix(1 0 0 -1 5 10)" fill="black"/>
<rect width="1" height="1" transform="matrix(1 0 0 -1 7 10)" fill="black"/>
<rect width="1" height="1" transform="matrix(1 0 0 -1 5 12)" fill="black"/>
<rect width="1" height="1" transform="matrix(1 0 0 -1 5 14)" fill="black"/>
<rect width="1" height="1" transform="matrix(1 0 0 -1 7 14)" fill="black"/>
<rect width="1" height="1" transform="matrix(1 0 0 -1 10 12)" fill="black"/>
<rect width="1" height="1" transform="matrix(1 0 0 -1 10 10)" fill="black"/>
<rect width="1" height="1" transform="matrix(1 0 0 -1 12 10)" fill="black"/>
<rect width="1" height="1" transform="matrix(1 0 0 -1 10 14)" fill="black"/>
<rect width="1" height="1" transform="matrix(1 0 0 -1 12 14)" fill="black"/>
<rect width="1" height="1" transform="matrix(1 0 0 -1 15 14)" fill="black"/>
<rect width="1" height="1" transform="matrix(1 0 0 -1 15 12)" fill="black"/>
<rect width="1" height="1" transform="matrix(1 0 0 -1 17 14)" fill="black"/>
<rect width="1" height="1" transform="matrix(1 0 0 -1 17 10)" fill="black"/>
<rect width="1" height="1" transform="matrix(1 0 0 -1 17 12)" fill="black"/>
<rect width="1" height="1" transform="matrix(1 0 0 -1 15 10)" fill="black"/>
<rect width="1" height="1" transform="matrix(1 0 0 -1 5 11)" fill="black"/>
<rect width="1" height="1" transform="matrix(1 0 0 -1 7 11)" fill="black"/>
<rect width="1" height="1" transform="matrix(1 0 0 -1 5 13)" fill="black"/>
<rect width="1" height="1" transform="matrix(1 0 0 -1 5 15)" fill="black"/>
<rect width="1" height="1" transform="matrix(1 0 0 -1 7 15)" fill="black"/>
<rect width="1" height="1" transform="matrix(1 0 0 -1 10 13)" fill="black"/>
<rect width="1" height="1" transform="matrix(1 0 0 -1 10 11)" fill="black"/>
<rect width="1" height="1" transform="matrix(1 0 0 -1 12 11)" fill="black"/>
<rect width="1" height="1" transform="matrix(1 0 0 -1 10 15)" fill="black"/>
<rect width="1" height="1" transform="matrix(1 0 0 -1 12 15)" fill="black"/>
<rect width="1" height="1" transform="matrix(1 0 0 -1 15 15)" fill="black"/>
<rect width="1" height="1" transform="matrix(1 0 0 -1 15 13)" fill="black"/>
<rect width="1" height="1" transform="matrix(1 0 0 -1 17 15)" fill="black"/>
<rect width="1" height="1" transform="matrix(1 0 0 -1 17 11)" fill="black"/>
<rect width="1" height="1" transform="matrix(1 0 0 -1 17 13)" fill="black"/>
<rect width="1" height="1" transform="matrix(1 0 0 -1 15 11)" fill="black"/>
<rect width="1" height="1" transform="matrix(1 0 0 -1 6 10)" fill="black"/>
<rect width="1" height="1" transform="matrix(1 0 0 -1 8 10)" fill="black"/>
<rect width="1" height="1" transform="matrix(1 0 0 -1 6 12)" fill="black"/>
<rect width="1" height="1" transform="matrix(1 0 0 -1 6 14)" fill="black"/>
<rect width="1" height="1" transform="matrix(1 0 0 -1 8 14)" fill="black"/>
<rect width="1" height="1" transform="matrix(1 0 0 -1 11 12)" fill="black"/>
<rect width="1" height="1" transform="matrix(1 0 0 -1 11 10)" fill="black"/>
<rect width="1" height="1" transform="matrix(1 0 0 -1 13 10)" fill="black"/>
<rect width="1" height="1" transform="matrix(1 0 0 -1 11 14)" fill="black"/>
<rect width="1" height="1" transform="matrix(1 0 0 -1 13 14)" fill="black"/>
<rect width="1" height="1" transform="matrix(1 0 0 -1 16 14)" fill="black"/>
<rect width="1" height="1" transform="matrix(1 0 0 -1 16 12)" fill="black"/>
<rect width="1" height="1" transform="matrix(1 0 0 -1 18 14)" fill="black"/>
<rect width="1" height="1" transform="matrix(1 0 0 -1 18 10)" fill="black"/>
<rect width="1" height="1" transform="matrix(1 0 0 -1 18 12)" fill="black"/>
<rect width="1" height="1" transform="matrix(1 0 0 -1 16 10)" fill="black"/>
<rect width="1" height="1" transform="matrix(1 0 0 -1 6 11)" fill="black"/>
<rect width="1" height="1" transform="matrix(1 0 0 -1 8 11)" fill="black"/>
<rect width="1" height="1" transform="matrix(1 0 0 -1 6 13)" fill="black"/>
<rect width="1" height="1" transform="matrix(1 0 0 -1 6 15)" fill="black"/>
<rect width="1" height="1" transform="matrix(1 0 0 -1 8 15)" fill="black"/>
<rect width="1" height="1" transform="matrix(1 0 0 -1 11 13)" fill="black"/>
<rect width="1" height="1" transform="matrix(1 0 0 -1 11 11)" fill="black"/>
<rect width="1" height="1" transform="matrix(1 0 0 -1 13 11)" fill="black"/>
<rect width="1" height="1" transform="matrix(1 0 0 -1 11 15)" fill="black"/>
<rect width="1" height="1" transform="matrix(1 0 0 -1 13 15)" fill="black"/>
<rect width="1" height="1" transform="matrix(1 0 0 -1 16 15)" fill="black"/>
<rect width="1" height="1" transform="matrix(1 0 0 -1 16 13)" fill="black"/>
<rect width="1" height="1" transform="matrix(1 0 0 -1 18 15)" fill="black"/>
<rect width="1" height="1" transform="matrix(1 0 0 -1 18 11)" fill="black"/>
<rect width="1" height="1" transform="matrix(1 0 0 -1 18 13)" fill="black"/>
<rect width="1" height="1" transform="matrix(1 0 0 -1 16 11)" fill="black"/>
</svg>
