<svg width="24" height="24" viewBox="0 0 24 24" fill="none" xmlns="http://www.w3.org/2000/svg">
<rect width="1" height="1" transform="matrix(1 0 0 -1 11 5)" fill="black"/>
<rect width="1" height="1" transform="matrix(1 0 0 -1 11 7)" fill="black"/>
<rect width="1" height="1" transform="matrix(1 0 0 -1 13 7)" fill="black"/>
<rect width="1" height="1" transform="matrix(1 0 0 -1 15 9)" fill="black"/>
<rect width="1" height="1" transform="matrix(1 0 0 -1 13 9)" fill="black"/>
<rect width="1" height="1" transform="matrix(1 0 0 -1 11 9)" fill="black"/>
<rect width="1" height="1" transform="matrix(1 0 0 -1 9 9)" fill="black"/>
<rect width="1" height="1" transform="matrix(1 0 0 -1 7 11)" fill="black"/>
<rect width="1" height="1" transform="matrix(1 0 0 -1 9 11)" fill="black"/>
<rect width="1" height="1" transform="matrix(1 0 0 -1 11 11)" fill="black"/>
<rect width="1" height="1" transform="matrix(1 0 0 -1 13 11)" fill="black"/>
<rect width="1" height="1" transform="matrix(1 0 0 -1 15 11)" fill="black"/>
<rect width="1" height="1" transform="matrix(1 0 0 -1 13 13)" fill="black"/>
<rect width="1" height="1" transform="matrix(1 0 0 -1 11 13)" fill="black"/>
<rect width="1" height="1" transform="matrix(1 0 0 -1 11 15)" fill="black"/>
<rect width="1" height="1" transform="matrix(1 0 0 -1 11 17)" fill="black"/>
<rect width="1" height="1" transform="matrix(1 0 0 -1 9 17)" fill="black"/>
<rect width="1" height="1" transform="matrix(1 0 0 -1 7 17)" fill="black"/>
<rect width="1" height="1" transform="matrix(1 0 0 -1 5 17)" fill="black"/>
<rect width="1" height="1" transform="matrix(1 0 0 -1 7 19)" fill="black"/>
<rect width="1" height="1" transform="matrix(1 0 0 -1 9 19)" fill="black"/>
<rect width="1" height="1" transform="matrix(1 0 0 -1 11 19)" fill="black"/>
<rect width="1" height="1" transform="matrix(1 0 0 -1 13 19)" fill="black"/>
<rect width="1" height="1" transform="matrix(1 0 0 -1 15 19)" fill="black"/>
<rect width="1" height="1" transform="matrix(1 0 0 -1 17 17)" fill="black"/>
<rect width="1" height="1" transform="matrix(1 0 0 -1 15 17)" fill="black"/>
<rect width="1" height="1" transform="matrix(1 0 0 -1 13 17)" fill="black"/>
<rect width="1" height="1" transform="matrix(1 0 0 -1 11 6)" fill="black"/>
<rect width="1" height="1" transform="matrix(1 0 0 -1 11 8)" fill="black"/>
<rect width="1" height="1" transform="matrix(1 0 0 -1 13 8)" fill="black"/>
<rect width="1" height="1" transform="matrix(1 0 0 -1 15 10)" fill="black"/>
<rect width="1" height="1" transform="matrix(1 0 0 -1 13 10)" fill="black"/>
<rect width="1" height="1" transform="matrix(1 0 0 -1 11 10)" fill="black"/>
<rect width="1" height="1" transform="matrix(1 0 0 -1 9 10)" fill="black"/>
<rect width="1" height="1" transform="matrix(1 0 0 -1 7 12)" fill="black"/>
<rect width="1" height="1" transform="matrix(1 0 0 -1 9 12)" fill="black"/>
<rect width="1" height="1" transform="matrix(1 0 0 -1 11 12)" fill="black"/>
<rect width="1" height="1" transform="matrix(1 0 0 -1 13 12)" fill="black"/>
<rect width="1" height="1" transform="matrix(1 0 0 -1 15 12)" fill="black"/>
<rect width="1" height="1" transform="matrix(1 0 0 -1 13 14)" fill="black"/>
<rect width="1" height="1" transform="matrix(1 0 0 -1 11 14)" fill="black"/>
<rect width="1" height="1" transform="matrix(1 0 0 -1 11 16)" fill="black"/>
<rect width="1" height="1" transform="matrix(1 0 0 -1 11 18)" fill="black"/>
<rect width="1" height="1" transform="matrix(1 0 0 -1 9 18)" fill="black"/>
<rect width="1" height="1" transform="matrix(1 0 0 -1 7 18)" fill="black"/>
<rect width="1" height="1" transform="matrix(1 0 0 -1 5 18)" fill="black"/>
<rect width="1" height="1" transform="matrix(1 0 0 -1 7 20)" fill="black"/>
<rect width="1" height="1" transform="matrix(1 0 0 -1 9 20)" fill="black"/>
<rect width="1" height="1" transform="matrix(1 0 0 -1 11 20)" fill="black"/>
<rect width="1" height="1" transform="matrix(1 0 0 -1 13 20)" fill="black"/>
<rect width="1" height="1" transform="matrix(1 0 0 -1 15 20)" fill="black"/>
<rect width="1" height="1" transform="matrix(1 0 0 -1 17 18)" fill="black"/>
<rect width="1" height="1" transform="matrix(1 0 0 -1 15 18)" fill="black"/>
<rect width="1" height="1" transform="matrix(1 0 0 -1 13 18)" fill="black"/>
<rect width="1" height="1" transform="matrix(1 0 0 -1 12 5)" fill="black"/>
<rect width="1" height="1" transform="matrix(1 0 0 -1 12 7)" fill="black"/>
<rect width="1" height="1" transform="matrix(1 0 0 -1 14 7)" fill="black"/>
<rect width="1" height="1" transform="matrix(1 0 0 -1 16 9)" fill="black"/>
<rect width="1" height="1" transform="matrix(1 0 0 -1 14 9)" fill="black"/>
<rect width="1" height="1" transform="matrix(1 0 0 -1 12 9)" fill="black"/>
<rect width="1" height="1" transform="matrix(1 0 0 -1 10 9)" fill="black"/>
<rect width="1" height="1" transform="matrix(1 0 0 -1 8 11)" fill="black"/>
<rect width="1" height="1" transform="matrix(1 0 0 -1 10 11)" fill="black"/>
<rect width="1" height="1" transform="matrix(1 0 0 -1 12 11)" fill="black"/>
<rect width="1" height="1" transform="matrix(1 0 0 -1 14 11)" fill="black"/>
<rect width="1" height="1" transform="matrix(1 0 0 -1 16 11)" fill="black"/>
<rect width="1" height="1" transform="matrix(1 0 0 -1 14 13)" fill="black"/>
<rect width="1" height="1" transform="matrix(1 0 0 -1 12 13)" fill="black"/>
<rect width="1" height="1" transform="matrix(1 0 0 -1 12 15)" fill="black"/>
<rect width="1" height="1" transform="matrix(1 0 0 -1 12 17)" fill="black"/>
<rect width="1" height="1" transform="matrix(1 0 0 -1 10 17)" fill="black"/>
<rect width="1" height="1" transform="matrix(1 0 0 -1 8 17)" fill="black"/>
<rect width="1" height="1" transform="matrix(1 0 0 -1 6 17)" fill="black"/>
<rect width="1" height="1" transform="matrix(1 0 0 -1 8 19)" fill="black"/>
<rect width="1" height="1" transform="matrix(1 0 0 -1 10 19)" fill="black"/>
<rect width="1" height="1" transform="matrix(1 0 0 -1 12 19)" fill="black"/>
<rect width="1" height="1" transform="matrix(1 0 0 -1 14 19)" fill="black"/>
<rect width="1" height="1" transform="matrix(1 0 0 -1 16 19)" fill="black"/>
<rect width="1" height="1" transform="matrix(1 0 0 -1 18 17)" fill="black"/>
<rect width="1" height="1" transform="matrix(1 0 0 -1 16 17)" fill="black"/>
<rect width="1" height="1" transform="matrix(1 0 0 -1 14 17)" fill="black"/>
<rect width="1" height="1" transform="matrix(1 0 0 -1 12 6)" fill="black"/>
<rect width="1" height="1" transform="matrix(1 0 0 -1 12 8)" fill="black"/>
<rect width="1" height="1" transform="matrix(1 0 0 -1 14 8)" fill="black"/>
<rect width="1" height="1" transform="matrix(1 0 0 -1 16 10)" fill="black"/>
<rect width="1" height="1" transform="matrix(1 0 0 -1 14 10)" fill="black"/>
<rect width="1" height="1" transform="matrix(1 0 0 -1 12 10)" fill="black"/>
<rect width="1" height="1" transform="matrix(1 0 0 -1 10 10)" fill="black"/>
<rect width="1" height="1" transform="matrix(1 0 0 -1 8 12)" fill="black"/>
<rect width="1" height="1" transform="matrix(1 0 0 -1 10 12)" fill="black"/>
<rect width="1" height="1" transform="matrix(1 0 0 -1 12 12)" fill="black"/>
<rect width="1" height="1" transform="matrix(1 0 0 -1 14 12)" fill="black"/>
<rect width="1" height="1" transform="matrix(1 0 0 -1 16 12)" fill="black"/>
<rect width="1" height="1" transform="matrix(1 0 0 -1 14 14)" fill="black"/>
<rect width="1" height="1" transform="matrix(1 0 0 -1 12 14)" fill="black"/>
<rect width="1" height="1" transform="matrix(1 0 0 -1 12 16)" fill="black"/>
<rect width="1" height="1" transform="matrix(1 0 0 -1 12 18)" fill="black"/>
<rect width="1" height="1" transform="matrix(1 0 0 -1 10 18)" fill="black"/>
<rect width="1" height="1" transform="matrix(1 0 0 -1 8 18)" fill="black"/>
<rect width="1" height="1" transform="matrix(1 0 0 -1 6 18)" fill="black"/>
<rect width="1" height="1" transform="matrix(1 0 0 -1 8 20)" fill="black"/>
<rect width="1" height="1" transform="matrix(1 0 0 -1 10 20)" fill="black"/>
<rect width="1" height="1" transform="matrix(1 0 0 -1 12 20)" fill="black"/>
<rect width="1" height="1" transform="matrix(1 0 0 -1 14 20)" fill="black"/>
<rect width="1" height="1" transform="matrix(1 0 0 -1 16 20)" fill="black"/>
<rect width="1" height="1" transform="matrix(1 0 0 -1 18 18)" fill="black"/>
<rect width="1" height="1" transform="matrix(1 0 0 -1 16 18)" fill="black"/>
<rect width="1" height="1" transform="matrix(1 0 0 -1 14 18)" fill="black"/>
</svg>
