<svg width="24" height="24" viewBox="0 0 24 24" fill="none" xmlns="http://www.w3.org/2000/svg">
<rect x="5" y="11" width="1" height="1" fill="black"/>
<rect x="19" y="11" width="1" height="1" fill="black"/>
<rect x="5" y="8" width="1" height="1" fill="black"/>
<rect x="19" y="8" width="1" height="1" fill="black"/>
<rect x="5" y="5" width="1" height="1" fill="black"/>
<rect x="19" y="5" width="1" height="1" fill="black"/>
<rect x="5" y="10" width="1" height="1" fill="black"/>
<rect x="19" y="10" width="1" height="1" fill="black"/>
<rect x="5" y="7" width="1" height="1" fill="black"/>
<rect x="19" y="7" width="1" height="1" fill="black"/>
<rect x="5" y="4" width="1" height="1" fill="black"/>
<rect x="19" y="4" width="1" height="1" fill="black"/>
<rect x="5" y="9" width="1" height="1" fill="black"/>
<rect x="19" y="9" width="1" height="1" fill="black"/>
<rect x="5" y="6" width="1" height="1" fill="black"/>
<rect x="19" y="6" width="1" height="1" fill="black"/>
<rect x="6" y="3" width="1" height="1" fill="black"/>
<rect x="7" y="3" width="1" height="1" fill="black"/>
<rect x="8" y="3" width="1" height="1" fill="black"/>
<rect x="9" y="3" width="1" height="1" fill="black"/>
<rect x="10" y="3" width="1" height="1" fill="black"/>
<rect x="11" y="3" width="1" height="1" fill="black"/>
<rect x="12" y="3" width="1" height="1" fill="black"/>
<rect x="13" y="3" width="1" height="1" fill="black"/>
<rect x="14" y="3" width="1" height="1" fill="black"/>
<rect x="15" y="3" width="1" height="1" fill="black"/>
<rect x="16" y="3" width="1" height="1" fill="black"/>
<rect x="17" y="3" width="1" height="1" fill="black"/>
<rect x="18" y="3" width="1" height="1" fill="black"/>
<rect x="12" y="14" width="1" height="1" fill="black"/>
<rect x="12" y="15" width="1" height="1" fill="black"/>
<rect x="12" y="16" width="1" height="1" fill="black"/>
<rect x="12" y="17" width="1" height="1" fill="black"/>
<rect x="12" y="18" width="1" height="1" fill="black"/>
<rect x="12" y="19" width="1" height="1" fill="black"/>
<rect x="12" y="20" width="1" height="1" fill="black"/>
<rect x="13" y="20" width="1" height="1" fill="black"/>
<rect x="14" y="20" width="1" height="1" fill="black"/>
<rect x="15" y="19" width="1" height="1" fill="black"/>
<rect x="14" y="18" width="1" height="1" fill="black"/>
<rect x="14" y="17" width="1" height="1" fill="black"/>
<rect x="14" y="16" width="1" height="1" fill="black"/>
<rect x="14" y="15" width="1" height="1" fill="black"/>
<rect x="14" y="14" width="1" height="1" fill="black"/>
<rect x="10" y="14" width="1" height="1" fill="black"/>
<rect x="10" y="15" width="1" height="1" fill="black"/>
<rect x="10" y="16" width="1" height="1" fill="black"/>
<rect x="10" y="17" width="1" height="1" fill="black"/>
<rect x="10" y="18" width="1" height="1" fill="black"/>
<rect x="9" y="19" width="1" height="1" fill="black"/>
<rect x="10" y="20" width="1" height="1" fill="black"/>
<rect x="11" y="20" width="1" height="1" fill="black"/>
<rect x="9" y="18" width="1" height="1" fill="black"/>
<rect width="1" height="1" transform="matrix(-1 0 0 1 16 18)" fill="black"/>
<rect x="8" y="18" width="1" height="1" fill="black"/>
<rect width="1" height="1" transform="matrix(-1 0 0 1 17 18)" fill="black"/>
<rect x="7" y="17" width="1" height="1" fill="black"/>
<rect width="1" height="1" transform="matrix(-1 0 0 1 18 17)" fill="black"/>
<rect x="6" y="16" width="1" height="1" fill="black"/>
<rect width="1" height="1" transform="matrix(-1 0 0 1 19 16)" fill="black"/>
<rect x="6" y="15" width="1" height="1" fill="black"/>
<rect width="1" height="1" transform="matrix(-1 0 0 1 19 15)" fill="black"/>
<rect x="5" y="14" width="1" height="1" fill="black"/>
<rect x="5" y="13" width="1" height="1" fill="black"/>
<rect x="5" y="12" width="1" height="1" fill="black"/>
<rect x="6" y="18" width="1" height="1" fill="black"/>
<rect width="1" height="1" transform="matrix(-1 0 0 1 19 18)" fill="black"/>
<rect x="5" y="18" width="1" height="1" fill="black"/>
<rect width="1" height="1" transform="matrix(-1 0 0 1 20 18)" fill="black"/>
<rect x="4" y="19" width="1" height="1" fill="black"/>
<rect width="1" height="1" transform="matrix(-1 0 0 1 21 19)" fill="black"/>
<rect x="5" y="20" width="1" height="1" fill="black"/>
<rect width="1" height="1" transform="matrix(-1 0 0 1 20 20)" fill="black"/>
<rect x="6" y="20" width="1" height="1" fill="black"/>
<rect width="1" height="1" transform="matrix(-1 0 0 1 19 20)" fill="black"/>
<rect x="7" y="20" width="1" height="1" fill="black"/>
<rect width="1" height="1" transform="matrix(-1 0 0 1 18 20)" fill="black"/>
<rect x="8" y="20" width="1" height="1" fill="black"/>
<rect width="1" height="1" transform="matrix(-1 0 0 1 17 20)" fill="black"/>
<rect x="9" y="20" width="1" height="1" fill="black"/>
<rect width="1" height="1" transform="matrix(-1 0 0 1 16 20)" fill="black"/>
<rect x="4" y="17" width="1" height="1" fill="black"/>
<rect width="1" height="1" transform="matrix(-1 0 0 1 21 17)" fill="black"/>
<rect x="3" y="17" width="1" height="1" fill="black"/>
<rect width="1" height="1" transform="matrix(-1 0 0 1 22 17)" fill="black"/>
<rect x="3" y="16" width="1" height="1" fill="black"/>
<rect width="1" height="1" transform="matrix(-1 0 0 1 22 16)" fill="black"/>
<rect x="3" y="15" width="1" height="1" fill="black"/>
<rect width="1" height="1" transform="matrix(-1 0 0 1 22 15)" fill="black"/>
<rect width="1" height="1" transform="matrix(-1 0 0 1 21 14)" fill="black"/>
<rect width="1" height="1" transform="matrix(-1 0 0 1 20 14)" fill="black"/>
<rect width="1" height="1" transform="matrix(-1 0 0 1 20 13)" fill="black"/>
<rect width="1" height="1" transform="matrix(-1 0 0 1 20 12)" fill="black"/>
<rect x="4" y="14" width="1" height="1" fill="black"/>
<rect x="10" y="6" width="1" height="1" fill="black"/>
<rect x="11" y="6" width="1" height="1" fill="black"/>
<rect x="11" y="7" width="1" height="1" fill="black"/>
<rect x="11" y="8" width="1" height="1" fill="black"/>
<rect x="11" y="9" width="1" height="1" fill="black"/>
<rect x="11" y="10" width="1" height="1" fill="black"/>
<rect x="11" y="11" width="1" height="1" fill="black"/>
<rect x="10" y="11" width="1" height="1" fill="black"/>
<rect x="9" y="11" width="1" height="1" fill="black"/>
<rect x="8" y="11" width="1" height="1" fill="black"/>
<rect x="7" y="11" width="1" height="1" fill="black"/>
<rect x="6" y="11" width="1" height="1" fill="black"/>
<rect x="6" y="10" width="1" height="1" fill="black"/>
<rect x="6" y="9" width="1" height="1" fill="black"/>
<rect x="6" y="8" width="1" height="1" fill="black"/>
<rect x="6" y="7" width="1" height="1" fill="black"/>
<rect x="6" y="6" width="1" height="1" fill="black"/>
<rect x="7" y="6" width="1" height="1" fill="black"/>
<rect x="8" y="6" width="1" height="1" fill="black"/>
<rect x="9" y="6" width="1" height="1" fill="black"/>
<rect x="12" y="8" width="1" height="1" fill="black"/>
<rect x="13" y="6" width="1" height="1" fill="black"/>
<rect x="13" y="7" width="1" height="1" fill="black"/>
<rect x="13" y="8" width="1" height="1" fill="black"/>
<rect x="13" y="9" width="1" height="1" fill="black"/>
<rect x="13" y="10" width="1" height="1" fill="black"/>
<rect x="13" y="11" width="1" height="1" fill="black"/>
<rect x="14" y="11" width="1" height="1" fill="black"/>
<rect x="15" y="11" width="1" height="1" fill="black"/>
<rect x="16" y="11" width="1" height="1" fill="black"/>
<rect x="17" y="11" width="1" height="1" fill="black"/>
<rect x="18" y="11" width="1" height="1" fill="black"/>
<rect x="18" y="10" width="1" height="1" fill="black"/>
<rect x="18" y="9" width="1" height="1" fill="black"/>
<rect x="18" y="8" width="1" height="1" fill="black"/>
<rect x="18" y="7" width="1" height="1" fill="black"/>
<rect x="18" y="6" width="1" height="1" fill="black"/>
<rect x="17" y="6" width="1" height="1" fill="black"/>
<rect x="16" y="6" width="1" height="1" fill="black"/>
<rect x="15" y="6" width="1" height="1" fill="black"/>
<rect x="14" y="6" width="1" height="1" fill="black"/>
<rect x="16" y="7" width="1" height="1" fill="black"/>
<rect x="16" y="8" width="1" height="1" fill="black"/>
<rect x="16" y="9" width="1" height="1" fill="black"/>
<rect x="16" y="10" width="1" height="1" fill="black"/>
<rect x="9" y="10" width="1" height="1" fill="black"/>
<rect x="9" y="9" width="1" height="1" fill="black"/>
<rect x="9" y="8" width="1" height="1" fill="black"/>
<rect x="9" y="7" width="1" height="1" fill="black"/>
<rect x="17" y="7" width="1" height="1" fill="black"/>
<rect x="17" y="8" width="1" height="1" fill="black"/>
<rect x="17" y="9" width="1" height="1" fill="black"/>
<rect x="17" y="10" width="1" height="1" fill="black"/>
<rect x="10" y="10" width="1" height="1" fill="black"/>
<rect x="10" y="9" width="1" height="1" fill="black"/>
<rect x="10" y="8" width="1" height="1" fill="black"/>
<rect x="10" y="7" width="1" height="1" fill="black"/>
</svg>
