<svg width="24" height="24" viewBox="0 0 24 24" fill="none" xmlns="http://www.w3.org/2000/svg">
<rect width="1" height="1" transform="matrix(1 0 0 -1 12 22)" fill="black"/>
<rect width="1" height="1" transform="matrix(1 0 0 -1 13 22)" fill="black"/>
<rect width="1" height="1" transform="matrix(1 0 0 -1 2 16)" fill="black"/>
<rect width="1" height="1" transform="matrix(1 0 0 -1 4 18)" fill="black"/>
<rect width="1" height="1" transform="matrix(1 0 0 -1 5 19)" fill="black"/>
<rect width="1" height="1" transform="matrix(1 0 0 -1 6 20)" fill="black"/>
<rect width="1" height="1" transform="matrix(1 0 0 -1 7 21)" fill="black"/>
<rect width="1" height="1" transform="matrix(1 0 0 -1 8 22)" fill="black"/>
<rect width="1" height="1" transform="matrix(1 0 0 -1 9 22)" fill="black"/>
<rect width="1" height="1" transform="matrix(1 0 0 -1 2 16)" fill="black"/>
<rect width="1" height="1" transform="matrix(1 0 0 -1 3 16)" fill="black"/>
<rect width="1" height="1" transform="matrix(1 0 0 -1 4 18)" fill="black"/>
<rect width="1" height="1" transform="matrix(1 0 0 -1 4 17)" fill="black"/>
<rect width="1" height="1" transform="matrix(1 0 0 -1 5 19)" fill="black"/>
<rect width="1" height="1" transform="matrix(1 0 0 -1 6 20)" fill="black"/>
<rect width="1" height="1" transform="matrix(1 0 0 -1 7 21)" fill="black"/>
<rect width="1" height="1" transform="matrix(1 0 0 -1 8 22)" fill="black"/>
<rect width="1" height="1" transform="matrix(1 0 0 -1 9 22)" fill="black"/>
<rect width="1" height="1" transform="matrix(1 0 0 -1 2 15)" fill="black"/>
<rect width="1" height="1" transform="matrix(1 0 0 -1 6 15)" fill="black"/>
<rect width="1" height="1" transform="matrix(1 0 0 -1 5 18)" fill="black"/>
<rect width="1" height="1" transform="matrix(1 0 0 -1 6 19)" fill="black"/>
<rect width="1" height="1" transform="matrix(1 0 0 -1 7 20)" fill="black"/>
<rect width="1" height="1" transform="matrix(1 0 0 -1 8 21)" fill="black"/>
<rect width="1" height="1" transform="matrix(1 0 0 -1 19 18)" fill="black"/>
<rect width="1" height="1" transform="matrix(1 0 0 -1 18 19)" fill="black"/>
<rect width="1" height="1" transform="matrix(1 0 0 -1 17 20)" fill="black"/>
<rect width="1" height="1" transform="matrix(1 0 0 -1 16 21)" fill="black"/>
<rect width="1" height="1" transform="matrix(1 0 0 -1 15 22)" fill="black"/>
<rect width="1" height="1" transform="matrix(1 0 0 -1 2 15)" fill="black"/>
<rect width="1" height="1" transform="matrix(1 0 0 -1 5 15)" fill="black"/>
<rect width="1" height="1" transform="matrix(1 0 0 -1 6 16)" fill="black"/>
<rect width="1" height="1" transform="matrix(1 0 0 -1 7 17)" fill="black"/>
<rect width="1" height="1" transform="matrix(1 0 0 -1 8 17)" fill="black"/>
<rect width="1" height="1" transform="matrix(1 0 0 -1 9 17)" fill="black"/>
<rect width="1" height="1" transform="matrix(1 0 0 -1 10 17)" fill="black"/>
<rect width="1" height="1" transform="matrix(1 0 0 -1 11 17)" fill="black"/>
<rect width="1" height="1" transform="matrix(1 0 0 -1 12 17)" fill="black"/>
<rect width="1" height="1" transform="matrix(1 0 0 -1 13 17)" fill="black"/>
<rect width="1" height="1" transform="matrix(1 0 0 -1 14 17)" fill="black"/>
<rect width="1" height="1" transform="matrix(1 0 0 -1 15 17)" fill="black"/>
<rect width="1" height="1" transform="matrix(1 0 0 -1 16 17)" fill="black"/>
<rect width="1" height="1" transform="matrix(1 0 0 -1 19 17)" fill="black"/>
<rect width="1" height="1" transform="matrix(1 0 0 -1 20 17)" fill="black"/>
<rect width="1" height="1" transform="matrix(1 0 0 -1 21 16)" fill="black"/>
<rect width="1" height="1" transform="matrix(1 0 0 -1 3 17)" fill="black"/>
<rect width="1" height="1" transform="matrix(1 0 0 -1 5 18)" fill="black"/>
<rect width="1" height="1" transform="matrix(1 0 0 -1 6 19)" fill="black"/>
<rect width="1" height="1" transform="matrix(1 0 0 -1 7 20)" fill="black"/>
<rect width="1" height="1" transform="matrix(1 0 0 -1 8 21)" fill="black"/>
<rect width="1" height="1" transform="matrix(1 0 0 -1 17 16)" fill="black"/>
<rect width="1" height="1" transform="matrix(1 0 0 -1 18 18)" fill="black"/>
<rect width="1" height="1" transform="matrix(1 0 0 -1 17 19)" fill="black"/>
<rect width="1" height="1" transform="matrix(1 0 0 -1 16 20)" fill="black"/>
<rect width="1" height="1" transform="matrix(1 0 0 -1 15 21)" fill="black"/>
<rect width="1" height="1" transform="matrix(1 0 0 -1 2 14)" fill="black"/>
<rect width="1" height="1" transform="matrix(1 0 0 -1 2 14)" fill="black"/>
<rect width="1" height="1" transform="matrix(1 0 0 -1 2 13)" fill="black"/>
<rect width="1" height="1" transform="matrix(1 0 0 -1 2 12)" fill="black"/>
<rect width="1" height="1" transform="matrix(1 0 0 -1 2 11)" fill="black"/>
<rect width="1" height="1" transform="matrix(1 0 0 -1 5 10)" fill="black"/>
<rect width="1" height="1" transform="matrix(1 0 0 -1 3 9)" fill="black"/>
<rect width="1" height="1" transform="matrix(1 0 0 -1 6 11)" fill="black"/>
<rect width="1" height="1" transform="matrix(1 0 0 -1 6 10)" fill="black"/>
<rect width="1" height="1" transform="matrix(1 0 0 -1 6 9)" fill="black"/>
<rect width="1" height="1" transform="matrix(1 0 0 -1 7 9)" fill="black"/>
<rect width="1" height="1" transform="matrix(1 0 0 -1 8 9)" fill="black"/>
<rect width="1" height="1" transform="matrix(1 0 0 -1 9 9)" fill="black"/>
<rect width="1" height="1" transform="matrix(1 0 0 -1 10 9)" fill="black"/>
<rect width="1" height="1" transform="matrix(1 0 0 -1 11 9)" fill="black"/>
<rect width="1" height="1" transform="matrix(1 0 0 -1 12 9)" fill="black"/>
<rect width="1" height="1" transform="matrix(1 0 0 -1 13 9)" fill="black"/>
<rect width="1" height="1" transform="matrix(1 0 0 -1 14 9)" fill="black"/>
<rect width="1" height="1" transform="matrix(1 0 0 -1 15 9)" fill="black"/>
<rect width="1" height="1" transform="matrix(1 0 0 -1 16 9)" fill="black"/>
<rect width="1" height="1" transform="matrix(1 0 0 -1 17 9)" fill="black"/>
<rect width="1" height="1" transform="matrix(1 0 0 -1 20 9)" fill="black"/>
<rect width="1" height="1" transform="matrix(1 0 0 -1 21 9)" fill="black"/>
<rect width="1" height="1" transform="matrix(1 0 0 -1 5 11)" fill="black"/>
<rect width="1" height="1" transform="matrix(1 0 0 -1 5 11)" fill="black"/>
<rect width="1" height="1" transform="matrix(1 0 0 -1 4 11)" fill="black"/>
<rect width="1" height="1" transform="matrix(1 0 0 -1 4 12)" fill="black"/>
<rect width="1" height="1" transform="matrix(1 0 0 -1 4 13)" fill="black"/>
<rect width="1" height="1" transform="matrix(1 0 0 -1 4 14)" fill="black"/>
<rect width="1" height="1" transform="matrix(1 0 0 -1 5 7)" fill="black"/>
<rect width="1" height="1" transform="matrix(1 0 0 -1 6 6)" fill="black"/>
<rect width="1" height="1" transform="matrix(1 0 0 -1 7 5)" fill="black"/>
<rect width="1" height="1" transform="matrix(1 0 0 -1 9 6)" fill="black"/>
<rect width="1" height="1" transform="matrix(1 0 0 -1 10 6)" fill="black"/>
<rect width="1" height="1" transform="matrix(1 0 0 -1 10 5)" fill="black"/>
<rect width="1" height="1" transform="matrix(1 0 0 -1 11 5)" fill="black"/>
<rect width="1" height="1" transform="matrix(1 0 0 -1 11 6)" fill="black"/>
<rect width="1" height="1" transform="matrix(1 0 0 -1 11 7)" fill="black"/>
<rect width="1" height="1" transform="matrix(1 0 0 -1 11 16)" fill="black"/>
<rect width="1" height="1" transform="matrix(1 0 0 -1 11 18)" fill="black"/>
<rect width="1" height="1" transform="matrix(1 0 0 -1 11 19)" fill="black"/>
<rect width="1" height="1" transform="matrix(1 0 0 -1 11 20)" fill="black"/>
<rect width="1" height="1" transform="matrix(1 0 0 -1 11 22)" fill="black"/>
<rect width="1" height="1" transform="matrix(1 0 0 -1 11 3)" fill="black"/>
<rect width="1" height="1" transform="matrix(1 0 0 -1 12 5)" fill="black"/>
<rect width="1" height="1" transform="matrix(1 0 0 -1 13 5)" fill="black"/>
<rect width="1" height="1" transform="matrix(1 0 0 -1 14 6)" fill="black"/>
<rect width="1" height="1" transform="matrix(1 0 0 -1 13 6)" fill="black"/>
<rect width="1" height="1" transform="matrix(1 0 0 -1 15 7)" fill="black"/>
<rect width="1" height="1" transform="matrix(1 0 0 -1 15 7)" fill="black"/>
<rect width="1" height="1" transform="matrix(1 0 0 -1 15 7)" fill="black"/>
<rect width="1" height="1" transform="matrix(1 0 0 -1 16 16)" fill="black"/>
<rect width="1" height="1" transform="matrix(1 0 0 -1 15 18)" fill="black"/>
<rect width="1" height="1" transform="matrix(1 0 0 -1 15 16)" fill="black"/>
<rect width="1" height="1" transform="matrix(1 0 0 -1 14 18)" fill="black"/>
<rect width="1" height="1" transform="matrix(1 0 0 -1 14 19)" fill="black"/>
<rect width="1" height="1" transform="matrix(1 0 0 -1 13 20)" fill="black"/>
<rect width="1" height="1" transform="matrix(1 0 0 -1 12 20)" fill="black"/>
<rect width="1" height="1" transform="matrix(1 0 0 -1 10 20)" fill="black"/>
<rect width="1" height="1" transform="matrix(1 0 0 -1 9 19)" fill="black"/>
<rect width="1" height="1" transform="matrix(1 0 0 -1 8 18)" fill="black"/>
<rect width="1" height="1" transform="matrix(1 0 0 -1 7 16)" fill="black"/>
<rect width="1" height="1" transform="matrix(1 0 0 -1 7 15)" fill="black"/>
<rect width="1" height="1" transform="matrix(1 0 0 -1 7 11)" fill="black"/>
<rect width="1" height="1" transform="matrix(1 0 0 -1 7 13)" fill="black"/>
<rect width="1" height="1" transform="matrix(1 0 0 -1 5 12)" fill="black"/>
<rect width="1" height="1" transform="matrix(1 0 0 -1 5 13)" fill="black"/>
<rect width="1" height="1" transform="matrix(1 0 0 -1 5 14)" fill="black"/>
<rect width="1" height="1" transform="matrix(1 0 0 -1 8 10)" fill="black"/>
<rect width="1" height="1" transform="matrix(1 0 0 -1 8 10)" fill="black"/>
<rect width="1" height="1" transform="matrix(1 0 0 -1 7 10)" fill="black"/>
<rect width="1" height="1" transform="matrix(1 0 0 -1 8 11)" fill="black"/>
<rect width="1" height="1" transform="matrix(1 0 0 -1 8 7)" fill="black"/>
<rect width="1" height="1" transform="matrix(1 0 0 -1 19 11)" fill="black"/>
<rect width="1" height="1" transform="matrix(1 0 0 -1 20 11)" fill="black"/>
<rect width="1" height="1" transform="matrix(1 0 0 -1 20 12)" fill="black"/>
<rect width="1" height="1" transform="matrix(1 0 0 -1 20 8)" fill="black"/>
<rect width="1" height="1" transform="matrix(1 0 0 -1 20 14)" fill="black"/>
<rect width="1" height="1" transform="matrix(1 0 0 -1 13 19)" fill="black"/>
<rect width="1" height="1" transform="matrix(1 0 0 -1 10 19)" fill="black"/>
<rect width="1" height="1" transform="matrix(1 0 0 -1 9 18)" fill="black"/>
<rect width="1" height="1" transform="matrix(1 0 0 -1 8 16)" fill="black"/>
<rect width="1" height="1" transform="matrix(1 0 0 -1 7 14)" fill="black"/>
<rect width="1" height="1" transform="matrix(1 0 0 -1 12 11)" fill="black"/>
<rect width="1" height="1" transform="matrix(1 0 0 -1 10 7)" fill="black"/>
<rect width="1" height="1" transform="matrix(1 0 0 -1 12 6)" fill="black"/>
<rect width="1" height="1" transform="matrix(1 0 0 -1 13 7)" fill="black"/>
<rect width="1" height="1" transform="matrix(1 0 0 -1 12 7)" fill="black"/>
<rect width="1" height="1" transform="matrix(1 0 0 -1 15 10)" fill="black"/>
<rect width="1" height="1" transform="matrix(1 0 0 -1 15 10)" fill="black"/>
<rect width="1" height="1" transform="matrix(1 0 0 -1 19 12)" fill="black"/>
<rect width="1" height="1" transform="matrix(1 0 0 -1 20 13)" fill="black"/>
<rect width="1" height="1" transform="matrix(1 0 0 -1 19 14)" fill="black"/>
<rect width="1" height="1" transform="matrix(1 0 0 -1 14 16)" fill="black"/>
<rect width="1" height="1" transform="matrix(1 0 0 -1 13 18)" fill="black"/>
<rect width="1" height="1" transform="matrix(1 0 0 -1 12 19)" fill="black"/>
<rect width="1" height="1" transform="matrix(1 0 0 -1 10 18)" fill="black"/>
<rect width="1" height="1" transform="matrix(1 0 0 -1 9 16)" fill="black"/>
<rect width="1" height="1" transform="matrix(1 0 0 -1 8 13)" fill="black"/>
<rect width="1" height="1" transform="matrix(1 0 0 -1 8 14)" fill="black"/>
<rect width="1" height="1" transform="matrix(1 0 0 -1 8 15)" fill="black"/>
<rect width="1" height="1" transform="matrix(1 0 0 -1 13 11)" fill="black"/>
<rect width="1" height="1" transform="matrix(1 0 0 -1 15 11)" fill="black"/>
<rect width="1" height="1" transform="matrix(1 0 0 -1 19 13)" fill="black"/>
<rect width="1" height="1" transform="matrix(1 0 0 -1 15 15)" fill="black"/>
<rect width="1" height="1" transform="matrix(1 0 0 -1 13 16)" fill="black"/>
<rect width="1" height="1" transform="matrix(1 0 0 -1 12 18)" fill="black"/>
<rect width="1" height="1" transform="matrix(1 0 0 -1 10 16)" fill="black"/>
<rect width="1" height="1" transform="matrix(1 0 0 -1 12 14)" fill="black"/>
<rect width="1" height="1" transform="matrix(1 0 0 -1 12 12)" fill="black"/>
<rect width="1" height="1" transform="matrix(1 0 0 -1 13 12)" fill="black"/>
<rect width="1" height="1" transform="matrix(1 0 0 -1 15 14)" fill="black"/>
<rect width="1" height="1" transform="matrix(1 0 0 -1 12 16)" fill="black"/>
<rect width="1" height="1" transform="matrix(1 0 0 -1 13 14)" fill="black"/>
<rect width="1" height="1" transform="matrix(1 0 0 -1 12 13)" fill="black"/>
<rect width="1" height="1" transform="matrix(1 0 0 -1 15 13)" fill="black"/>
<rect width="1" height="1" transform="matrix(1 0 0 -1 13 13)" fill="black"/>
<rect width="1" height="1" transform="matrix(1 0 0 -1 9 7)" fill="black"/>
<rect width="1" height="1" transform="matrix(1 0 0 -1 14 7)" fill="black"/>
<rect width="1" height="1" transform="matrix(1 0 0 -1 8 4)" fill="black"/>
<rect width="1" height="1" transform="matrix(1 0 0 -1 18 7)" fill="black"/>
<rect width="1" height="1" transform="matrix(1 0 0 -1 17 6)" fill="black"/>
<rect width="1" height="1" transform="matrix(1 0 0 -1 16 5)" fill="black"/>
<rect width="1" height="1" transform="matrix(1 0 0 -1 15 4)" fill="black"/>
<rect width="1" height="1" transform="matrix(1 0 0 -1 2 10)" fill="black"/>
<rect width="1" height="1" transform="matrix(1 0 0 -1 2 10)" fill="black"/>
<rect width="1" height="1" transform="matrix(1 0 0 -1 2 9)" fill="black"/>
<rect width="1" height="1" transform="matrix(1 0 0 -1 4 7)" fill="black"/>
<rect width="1" height="1" transform="matrix(1 0 0 -1 5 6)" fill="black"/>
<rect width="1" height="1" transform="matrix(1 0 0 -1 6 5)" fill="black"/>
<rect width="1" height="1" transform="matrix(1 0 0 -1 7 4)" fill="black"/>
<rect width="1" height="1" transform="matrix(1 0 0 -1 8 3)" fill="black"/>
<rect width="1" height="1" transform="matrix(1 0 0 -1 19 7)" fill="black"/>
<rect width="1" height="1" transform="matrix(1 0 0 -1 19 8)" fill="black"/>
<rect width="1" height="1" transform="matrix(1 0 0 -1 16 8)" fill="black"/>
<rect width="1" height="1" transform="matrix(1 0 0 -1 7 8)" fill="black"/>
<rect width="1" height="1" transform="matrix(1 0 0 -1 3 8)" fill="black"/>
<rect width="1" height="1" transform="matrix(1 0 0 -1 4 8)" fill="black"/>
<rect width="1" height="1" transform="matrix(1 0 0 -1 8 8)" fill="black"/>
<rect width="1" height="1" transform="matrix(1 0 0 -1 9 8)" fill="black"/>
<rect width="1" height="1" transform="matrix(1 0 0 -1 10 8)" fill="black"/>
<rect width="1" height="1" transform="matrix(1 0 0 -1 11 8)" fill="black"/>
<rect width="1" height="1" transform="matrix(1 0 0 -1 12 8)" fill="black"/>
<rect width="1" height="1" transform="matrix(1 0 0 -1 13 8)" fill="black"/>
<rect width="1" height="1" transform="matrix(1 0 0 -1 14 8)" fill="black"/>
<rect width="1" height="1" transform="matrix(1 0 0 -1 15 8)" fill="black"/>
<rect width="1" height="1" transform="matrix(1 0 0 -1 20 16)" fill="black"/>
<rect width="1" height="1" transform="matrix(1 0 0 -1 18 6)" fill="black"/>
<rect width="1" height="1" transform="matrix(1 0 0 -1 17 5)" fill="black"/>
<rect width="1" height="1" transform="matrix(1 0 0 -1 16 4)" fill="black"/>
<rect width="1" height="1" transform="matrix(1 0 0 -1 15 3)" fill="black"/>
<rect width="1" height="1" transform="matrix(1 0 0 -1 9 3)" fill="black"/>
<rect width="1" height="1" transform="matrix(1 0 0 -1 10 3)" fill="black"/>
<rect width="1" height="1" transform="matrix(1 0 0 -1 12 3)" fill="black"/>
<rect width="1" height="1" transform="matrix(1 0 0 -1 13 3)" fill="black"/>
<rect width="1" height="1" transform="matrix(1 0 0 -1 14 3)" fill="black"/>
<rect width="1" height="1" transform="matrix(1 0 0 -1 14 22)" fill="black"/>
<rect width="1" height="1" transform="matrix(1 0 0 -1 14 22)" fill="black"/>
<rect width="1" height="1" transform="matrix(1 0 0 -1 10 22)" fill="black"/>
</svg>
