<svg width="24" height="24" viewBox="0 0 24 24" fill="none" xmlns="http://www.w3.org/2000/svg">
<rect x="16" y="14" width="1" height="1" fill="black"/>
<rect x="14" y="11.9999" width="1" height="1" fill="black"/>
<rect x="14" y="10.0001" width="1" height="1" fill="black"/>
<rect x="16" y="8" width="1" height="1" fill="black"/>
<rect x="14" y="8" width="1" height="1" fill="black"/>
<rect x="12" y="8" width="1" height="1" fill="black"/>
<rect x="10" y="8" width="1" height="1" fill="black"/>
<rect x="8" y="8" width="1" height="1" fill="black"/>
<rect x="6" y="10.0001" width="1" height="1" fill="black"/>
<rect x="10" y="10.0001" width="1" height="1" fill="black"/>
<rect x="10" y="11.9999" width="1" height="1" fill="black"/>
<rect x="10" y="14" width="1" height="1" fill="black"/>
<rect x="17" y="14" width="1" height="1" fill="black"/>
<rect x="15" y="11.9999" width="1" height="1" fill="black"/>
<rect x="15" y="10.0001" width="1" height="1" fill="black"/>
<rect x="17" y="8" width="1" height="1" fill="black"/>
<rect x="15" y="8" width="1" height="1" fill="black"/>
<rect x="13" y="8" width="1" height="1" fill="black"/>
<rect x="11" y="8" width="1" height="1" fill="black"/>
<rect x="9" y="8" width="1" height="1" fill="black"/>
<rect x="7" y="10.0001" width="1" height="1" fill="black"/>
<rect x="11" y="10.0001" width="1" height="1" fill="black"/>
<rect x="11" y="11.9999" width="1" height="1" fill="black"/>
<rect x="11" y="14" width="1" height="1" fill="black"/>
<rect x="17" y="14.9999" width="1" height="1" fill="black"/>
<rect x="15" y="13.0001" width="1" height="1" fill="black"/>
<rect x="15" y="11" width="1" height="1" fill="black"/>
<rect x="17" y="8.99994" width="1" height="1" fill="black"/>
<rect x="15" y="8.99994" width="1" height="1" fill="black"/>
<rect x="13" y="8.99994" width="1" height="1" fill="black"/>
<rect x="11" y="8.99994" width="1" height="1" fill="black"/>
<rect x="9" y="8.99994" width="1" height="1" fill="black"/>
<rect x="7" y="11" width="1" height="1" fill="black"/>
<rect x="11" y="11" width="1" height="1" fill="black"/>
<rect x="11" y="13.0001" width="1" height="1" fill="black"/>
<rect x="11" y="14.9999" width="1" height="1" fill="black"/>
<rect x="16" y="14.9999" width="1" height="1" fill="black"/>
<rect x="14" y="13.0001" width="1" height="1" fill="black"/>
<rect x="14" y="11" width="1" height="1" fill="black"/>
<rect x="16" y="8.99994" width="1" height="1" fill="black"/>
<rect x="14" y="8.99994" width="1" height="1" fill="black"/>
<rect x="12" y="8.99994" width="1" height="1" fill="black"/>
<rect x="10" y="8.99994" width="1" height="1" fill="black"/>
<rect x="8" y="8.99994" width="1" height="1" fill="black"/>
<rect x="6" y="11" width="1" height="1" fill="black"/>
<rect x="10" y="11" width="1" height="1" fill="black"/>
<rect x="10" y="13.0001" width="1" height="1" fill="black"/>
<rect x="10" y="14.9999" width="1" height="1" fill="black"/>
</svg>
