<svg width="24" height="24" viewBox="0 0 24 24" fill="none" xmlns="http://www.w3.org/2000/svg">
<path fill-rule="evenodd" clip-rule="evenodd" d="M9 2.5C9 2.22386 8.77614 2 8.5 2C8.22386 2 8 2.22386 8 2.5C8 2.77614 7.77614 3 7.5 3C7.22386 3 7 3.22386 7 3.5V4V4.5C7 4.77614 6.77614 5 6.5 5C6.22386 5 6 5.22386 6 5.5V6V6.5C6 6.77614 5.77614 7 5.5 7C5.22386 7 5 7.22386 5 7.5V8V8.5C5 8.77614 4.77614 9 4.5 9C4.22386 9 4 9.22386 4 9.5V10V10.5C4 10.7761 3.77614 11 3.5 11H3H2.5C2.22386 11 2 11.2239 2 11.5V12V12.5C2 12.7761 2.22386 13 2.5 13H3H4H4.5C4.77614 13 5 12.7761 5 12.5C5 12.2239 5.22386 12 5.5 12C5.77614 12 6 11.7761 6 11.5V11V10.5C6 10.2239 6.22386 10 6.5 10C6.77614 10 7 9.77614 7 9.5V9V8.5C7 8.22386 7.22386 8 7.5 8C7.77614 8 8 7.77614 8 7.5V7V6.5C8 6.22386 8.22386 6 8.5 6C8.77614 6 9 6.22386 9 6.5V7V7.5C9 7.77614 9.22386 8 9.5 8C9.77614 8 10 8.22386 10 8.5V9V10V10.5C10 10.7761 10.2239 11 10.5 11C10.7761 11 11 11.2239 11 11.5V12V13V13.5C11 13.7761 11.2239 14 11.5 14C11.7761 14 12 14.2239 12 14.5V15V16V16.5C12 16.7761 12.2239 17 12.5 17C12.7761 17 13 17.2239 13 17.5V18V18.5C13 18.7761 13.2239 19 13.5 19C13.7761 19 14 19.2239 14 19.5V20V20.5C14 20.7761 14.2239 21 14.5 21C14.7761 21 15 21.2239 15 21.5C15 21.7761 15.2239 22 15.5 22C15.7761 22 16 21.7761 16 21.5C16 21.2239 16.2239 21 16.5 21C16.7761 21 17 20.7761 17 20.5V20V19.5C17 19.2239 17.2239 19 17.5 19C17.7761 19 18 18.7761 18 18.5V18V17.5C18 17.2239 18.2239 17 18.5 17C18.7761 17 19 16.7761 19 16.5V16V15.5C19 15.2239 19.2239 15 19.5 15C19.7761 15 20 14.7761 20 14.5V14V13.5C20 13.2239 20.2239 13 20.5 13H21H21.5C21.7761 13 22 12.7761 22 12.5V12V11.5C22 11.2239 21.7761 11 21.5 11H21H20H19.5C19.2239 11 19 11.2239 19 11.5C19 11.7761 18.7761 12 18.5 12C18.2239 12 18 12.2239 18 12.5V13V13.5C18 13.7761 17.7761 14 17.5 14C17.2239 14 17 14.2239 17 14.5V15V15.5C17 15.7761 16.7761 16 16.5 16C16.2239 16 16 16.2239 16 16.5V17V17.5C16 17.7761 15.7761 18 15.5 18C15.2239 18 15 17.7761 15 17.5V17V16.5C15 16.2239 14.7761 16 14.5 16C14.2239 16 14 15.7761 14 15.5V15V14V13.5C14 13.2239 13.7761 13 13.5 13C13.2239 13 13 12.7761 13 12.5V12V11V10.5C13 10.2239 12.7761 10 12.5 10C12.2239 10 12 9.77614 12 9.5V9V8V7.5C12 7.22386 11.7761 7 11.5 7C11.2239 7 11 6.77614 11 6.5V6V5.5C11 5.22386 10.7761 5 10.5 5C10.2239 5 10 4.77614 10 4.5V4V3.5C10 3.22386 9.77614 3 9.5 3C9.22386 3 9 2.77614 9 2.5Z" fill="white"/>
</svg>
