<svg width="24" height="24" viewBox="0 0 24 24" fill="none" xmlns="http://www.w3.org/2000/svg">
<path fill-rule="evenodd" clip-rule="evenodd" d="M2 4.5C2 4.22386 2.22386 4 2.5 4H3H4H5H6H7H8H9H10H11H12H13H14H15H16H17H18H19H20H21H21.5C21.7761 4 22 4.22386 22 4.5V5V6V7V8V9V10V11V12V13V14V15V16V17V17.5C22 17.7761 21.7761 18 21.5 18H21H20H19H18.5C18.2239 18 18 17.7761 18 17.5V17V16.5C18 16.2239 18.2239 16 18.5 16H19H19.5C19.7761 16 20 15.7761 20 15.5V15V14V13V12V11V10V9V8V7V6.5C20 6.22386 19.7761 6 19.5 6H19H18H17H16H15H14H13H12H11H10H9H8H7H6H5H4.5C4.22386 6 4 6.22386 4 6.5V7V8V9V10V11V12V13V14V15V15.5C4 15.7761 4.22386 16 4.5 16H5H5.5C5.77614 16 6 16.2239 6 16.5V17V17.5C6 17.7761 5.77614 18 5.5 18H5H4H3H2.5C2.22386 18 2 17.7761 2 17.5V17V16V15V14V13V12V11V10V9V8V7V6V5V4.5ZM5.5 22C5.22386 22 5 21.7761 5 21.5V21V20.5C5 20.2239 5.22386 20 5.5 20C5.77614 20 6 19.7761 6 19.5C6 19.2239 6.22386 19 6.5 19C6.77614 19 7 18.7761 7 18.5C7 18.2239 7.22386 18 7.5 18C7.77614 18 8 17.7761 8 17.5C8 17.2239 8.22386 17 8.5 17C8.77614 17 9 16.7761 9 16.5C9 16.2239 9.22386 16 9.5 16C9.77614 16 10 15.7761 10 15.5C10 15.2239 10.2239 15 10.5 15C10.7761 15 11 14.7761 11 14.5C11 14.2239 11.2239 14 11.5 14H12H12.5C12.7761 14 13 14.2239 13 14.5C13 14.7761 13.2239 15 13.5 15C13.7761 15 14 15.2239 14 15.5C14 15.7761 14.2239 16 14.5 16C14.7761 16 15 16.2239 15 16.5C15 16.7761 15.2239 17 15.5 17C15.7761 17 16 17.2239 16 17.5C16 17.7761 16.2239 18 16.5 18C16.7761 18 17 18.2239 17 18.5C17 18.7761 17.2239 19 17.5 19C17.7761 19 18 19.2239 18 19.5C18 19.7761 18.2239 20 18.5 20C18.7761 20 19 20.2239 19 20.5V21V21.5C19 21.7761 18.7761 22 18.5 22H18H17H16H15H14H13H12H11H10H9H8H7H6H5.5ZM13 17.5C13 17.2239 12.7761 17 12.5 17H12H11.5C11.2239 17 11 17.2239 11 17.5C11 17.7761 10.7761 18 10.5 18C10.2239 18 10 18.2239 10 18.5C10 18.7761 9.77614 19 9.5 19C9.22386 19 9 19.2239 9 19.5C9 19.7761 9.22386 20 9.5 20H10H11H12H13H14H14.5C14.7761 20 15 19.7761 15 19.5C15 19.2239 14.7761 19 14.5 19C14.2239 19 14 18.7761 14 18.5C14 18.2239 13.7761 18 13.5 18C13.2239 18 13 17.7761 13 17.5Z" fill="white"/>
</svg>
