<svg width="24" height="24" viewBox="0 0 24 24" fill="none" xmlns="http://www.w3.org/2000/svg">
<path fill-rule="evenodd" clip-rule="evenodd" d="M3 4H2.5C2.22386 4 2 4.22386 2 4.5V5V6V7V8V9V10V10.5C2 10.7761 2.22386 11 2.5 11H3H3.5C3.77614 11 4 11.2239 4 11.5V12V13V14V15V16V17V18V19V20V20.5C4 20.7761 4.22386 21 4.5 21H5H6H7H8H9H10H11H12H13H14H15H16H17H18H19H19.5C19.7761 21 20 20.7761 20 20.5V20V19V18V17V16V15V14V13V12V11.5C20 11.2239 20.2239 11 20.5 11H21H21.5C21.7761 11 22 10.7761 22 10.5V10V9V8V7V6V5V4.5C22 4.22386 21.7761 4 21.5 4H21H20H19H18H17H16H15H14H13H12H11H10H9H8H7H6H5H4H3ZM17 19H17.5C17.7761 19 18 18.7761 18 18.5V18V17V16V15V14V13V12V11.5C18 11.2239 17.7761 11 17.5 11H17H16H15H14H13H12H11H10H9H8H7H6.5C6.22386 11 6 11.2239 6 11.5V12V13V14V15V16V17V18V18.5C6 18.7761 6.22386 19 6.5 19H7H8H9H10H11H12H13H14H15H16H17ZM4 7V8V8.5C4 8.77614 4.22386 9 4.5 9H5H6H7H8H9H10H11H12H13H14H15H16H17H18H19H19.5C19.7761 9 20 8.77614 20 8.5V8V7V6.5C20 6.22386 19.7761 6 19.5 6H19H18H17H16H15H14H13H12H11H10H9H8H7H6H5H4.5C4.22386 6 4 6.22386 4 6.5V7ZM11 14H10.5C10.2239 14 10 14.2239 10 14.5V15V15.5C10 15.7761 10.2239 16 10.5 16H11H12H13H13.5C13.7761 16 14 15.7761 14 15.5V15V14.5C14 14.2239 13.7761 14 13.5 14H13H12H11Z" fill="white"/>
</svg>
