<svg width="24" height="24" viewBox="0 0 24 24" fill="none" xmlns="http://www.w3.org/2000/svg">
<path fill-rule="evenodd" clip-rule="evenodd" d="M12 5H11.5C11.2239 5 11 5.22386 11 5.5V6V7V8V9V10V11V12V13V14V14.5C11 14.7761 10.7761 15 10.5 15C10.2239 15 10 14.7761 10 14.5C10 14.2239 9.77614 14 9.5 14C9.22386 14 9 13.7761 9 13.5C9 13.2239 8.77614 13 8.5 13C8.22386 13 8 12.7761 8 12.5C8 12.2239 7.77614 12 7.5 12C7.22386 12 7 11.7761 7 11.5C7 11.2239 6.77614 11 6.5 11H6H5.5C5.22386 11 5 11.2239 5 11.5V12V12.5C5 12.7761 5.22386 13 5.5 13C5.77614 13 6 13.2239 6 13.5C6 13.7761 6.22386 14 6.5 14C6.77614 14 7 14.2239 7 14.5C7 14.7761 7.22386 15 7.5 15C7.77614 15 8 15.2239 8 15.5C8 15.7761 8.22386 16 8.5 16C8.77614 16 9 16.2239 9 16.5C9 16.7761 9.22386 17 9.5 17C9.77614 17 10 17.2239 10 17.5C10 17.7761 10.2239 18 10.5 18C10.7761 18 11 18.2239 11 18.5C11 18.7761 11.2239 19 11.5 19H12H12.5C12.7761 19 13 18.7761 13 18.5C13 18.2239 13.2239 18 13.5 18C13.7761 18 14 17.7761 14 17.5C14 17.2239 14.2239 17 14.5 17C14.7761 17 15 16.7761 15 16.5C15 16.2239 15.2239 16 15.5 16C15.7761 16 16 15.7761 16 15.5C16 15.2239 16.2239 15 16.5 15C16.7761 15 17 14.7761 17 14.5C17 14.2239 17.2239 14 17.5 14C17.7761 14 18 13.7761 18 13.5C18 13.2239 18.2239 13 18.5 13C18.7761 13 19 12.7761 19 12.5V12V11.5C19 11.2239 18.7761 11 18.5 11H18H17.5C17.2239 11 17 11.2239 17 11.5C17 11.7761 16.7761 12 16.5 12C16.2239 12 16 12.2239 16 12.5C16 12.7761 15.7761 13 15.5 13C15.2239 13 15 13.2239 15 13.5C15 13.7761 14.7761 14 14.5 14C14.2239 14 14 14.2239 14 14.5C14 14.7761 13.7761 15 13.5 15C13.2239 15 13 14.7761 13 14.5V14V13V12V11V10V9V8V7V6V5.5C13 5.22386 12.7761 5 12.5 5H12Z" fill="white"/>
</svg>
