<svg width="24" height="24" viewBox="0 0 24 24" fill="none" xmlns="http://www.w3.org/2000/svg">
<path fill-rule="evenodd" clip-rule="evenodd" d="M15 7H16H16.5C16.7761 7 17 7.22386 17 7.5V8V9V10V11V12V13V14V15V16V16.5C17 16.7761 16.7761 17 16.5 17H16H15.5C15.2239 17 15 16.7761 15 16.5V16V15V14V13V12V11.5C15 11.2239 14.7761 11 14.5 11C14.2239 11 14 11.2239 14 11.5C14 11.7761 13.7761 12 13.5 12C13.2239 12 13 12.2239 13 12.5C13 12.7761 12.7761 13 12.5 13C12.2239 13 12 13.2239 12 13.5C12 13.7761 11.7761 14 11.5 14C11.2239 14 11 14.2239 11 14.5C11 14.7761 10.7761 15 10.5 15C10.2239 15 10 15.2239 10 15.5C10 15.7761 9.77614 16 9.5 16C9.22386 16 9 16.2239 9 16.5C9 16.7761 8.77614 17 8.5 17H8H7.5C7.22386 17 7 16.7761 7 16.5V16V15.5C7 15.2239 7.22386 15 7.5 15C7.77614 15 8 14.7761 8 14.5C8 14.2239 8.22386 14 8.5 14C8.77614 14 9 13.7761 9 13.5C9 13.2239 9.22386 13 9.5 13C9.77614 13 10 12.7761 10 12.5C10 12.2239 10.2239 12 10.5 12C10.7761 12 11 11.7761 11 11.5C11 11.2239 11.2239 11 11.5 11C11.7761 11 12 10.7761 12 10.5C12 10.2239 12.2239 10 12.5 10C12.7761 10 13 9.77614 13 9.5C13 9.22386 12.7761 9 12.5 9H12H11H10H9H8H7.5C7.22386 9 7 8.77614 7 8.5V8V7.5C7 7.22386 7.22386 7 7.5 7H8H9H10H11H12H13H14H15Z" fill="white"/>
</svg>
