<svg width="24" height="24" viewBox="0 0 24 24" fill="none" xmlns="http://www.w3.org/2000/svg">
<path fill-rule="evenodd" clip-rule="evenodd" d="M12 3H11.5C11.2239 3 11 3.22386 11 3.5V4V5V6V7V8V9V10V11V12V13V14V15V16V17V18V19V20V20.5C11 20.7761 11.2239 21 11.5 21H12H12.5C12.7761 21 13 20.7761 13 20.5V20V19V18V17V16V15V14V13V12V11V10V9V8V7V6V5V4V3.5C13 3.22386 12.7761 3 12.5 3H12ZM17.5 21C17.2239 21 17 20.7761 17 20.5V20V19V18V17V16V15V14V13V12V11V10V9.5C17 9.22386 17.2239 9 17.5 9H18H18.5C18.7761 9 19 9.22386 19 9.5V10V11V12V13V14V15V16V17V18V19V20V20.5C19 20.7761 18.7761 21 18.5 21H18H17.5ZM5.5 21C5.22386 21 5 20.7761 5 20.5V20V19V18V17V16V15V14V13.5C5 13.2239 5.22386 13 5.5 13H6H6.5C6.77614 13 7 13.2239 7 13.5V14V15V16V17V18V19V20V20.5C7 20.7761 6.77614 21 6.5 21H6H5.5Z" fill="white"/>
</svg>
