<svg width="24" height="24" viewBox="0 0 24 24" fill="none" xmlns="http://www.w3.org/2000/svg">
<path fill-rule="evenodd" clip-rule="evenodd" d="M3 6H2.5C2.22386 6 2 6.22386 2 6.5V7V8V9V10V11V12V13V14V15V16V17V17.5C2 17.7761 2.22386 18 2.5 18H3H4H5H6H7H8H9H10H11H12H13H14H15H16H17H18H18.5C18.7761 18 19 17.7761 19 17.5V17V16V15V14V13V12V11V10V9V8V7V6.5C19 6.22386 18.7761 6 18.5 6H18H17H16H15H14H13H12H11H10H9H8H7H6H5H4H3ZM4.5 8C4.22386 8 4 8.22386 4 8.5V9V10V11V12V13V14V15V15.5C4 15.7761 4.22386 16 4.5 16H5H6H7H8H9H10H11H12H13H14H15H16H16.5C16.7761 16 17 15.7761 17 15.5V15V14V13V12V11V10V9V8.5C17 8.22386 16.7761 8 16.5 8H16H15H14H13H12H11H10H9H8H7H6H5H4.5ZM20 13V14V14.5C20 14.7761 20.2239 15 20.5 15H21H21.5C21.7761 15 22 14.7761 22 14.5V14V13V12V11V10V9.5C22 9.22386 21.7761 9 21.5 9H21H20.5C20.2239 9 20 9.22386 20 9.5V10V11V12V13Z" fill="white"/>
</svg>
