<svg width="24" height="24" viewBox="0 0 24 24" fill="none" xmlns="http://www.w3.org/2000/svg">
<path fill-rule="evenodd" clip-rule="evenodd" d="M11 3H12H13H13.5C13.7761 3 14 3.22386 14 3.5C14 3.77614 14.2239 4 14.5 4H15H15.5C15.7761 4 16 4.22386 16 4.5C16 4.77614 16.2239 5 16.5 5C16.7761 5 17 5.22386 17 5.5V6V6.5C17 6.77614 17.2239 7 17.5 7C17.7761 7 18 7.22386 18 7.5V8V9V10V10.5C18 10.7761 18.2239 11 18.5 11C18.7761 11 19 11.2239 19 11.5V12V13V13.5C19 13.7761 18.7761 14 18.5 14H18H17.5C17.2239 14 17 13.7761 17 13.5V13V12.5C17 12.2239 16.7761 12 16.5 12C16.2239 12 16 11.7761 16 11.5V11V10V9V8.5C16 8.22386 15.7761 8 15.5 8C15.2239 8 15 7.77614 15 7.5V7V6.5C15 6.22386 14.7761 6 14.5 6H14H13.5C13.2239 6 13 5.77614 13 5.5C13 5.22386 12.7761 5 12.5 5H12H11.5C11.2239 5 11 5.22386 11 5.5C11 5.77614 10.7761 6 10.5 6H10H9.5C9.22386 6 9 5.77614 9 5.5V5V4.5C9 4.22386 9.22386 4 9.5 4C9.77614 4 10 3.77614 10 3.5C10 3.22386 10.2239 3 10.5 3H11ZM11 15H11.5C11.7761 15 12 15.2239 12 15.5C12 15.7761 12.2239 16 12.5 16C12.7761 16 13 16.2239 13 16.5C13 16.7761 12.7761 17 12.5 17H12H11H10H9H8H7H6H5H4.5C4.22386 17 4 16.7761 4 16.5V16V15V14.5C4 14.2239 4.22386 14 4.5 14C4.77614 14 5 13.7761 5 13.5V13V12V11.5C5 11.2239 5.22386 11 5.5 11H6H6.5C6.77614 11 7 11.2239 7 11.5V12V13V14V14.5C7 14.7761 7.22386 15 7.5 15H8H9H10H11ZM15 19.5C15 19.2239 14.7761 19 14.5 19H14H13.5C13.2239 19 13 19.2239 13 19.5C13 19.7761 12.7761 20 12.5 20H12H11.5C11.2239 20 11 19.7761 11 19.5C11 19.2239 10.7761 19 10.5 19H10H9.5C9.22386 19 9 19.2239 9 19.5V20V20.5C9 20.7761 9.22386 21 9.5 21H10H10.5C10.7761 21 11 21.2239 11 21.5C11 21.7761 11.2239 22 11.5 22H12H12.5C12.7761 22 13 21.7761 13 21.5C13 21.2239 13.2239 21 13.5 21H14H14.5C14.7761 21 15 20.7761 15 20.5V20V19.5ZM4 3H3.5C3.22386 3 3 3.22386 3 3.5V4V4.5C3 4.77614 3.22386 5 3.5 5C3.77614 5 4 5.22386 4 5.5C4 5.77614 4.22386 6 4.5 6C4.77614 6 5 6.22386 5 6.5C5 6.77614 5.22386 7 5.5 7C5.77614 7 6 7.22386 6 7.5C6 7.77614 6.22386 8 6.5 8C6.77614 8 7 8.22386 7 8.5C7 8.77614 7.22386 9 7.5 9C7.77614 9 8 9.22386 8 9.5C8 9.77614 8.22386 10 8.5 10C8.77614 10 9 10.2239 9 10.5C9 10.7761 9.22386 11 9.5 11C9.77614 11 10 11.2239 10 11.5C10 11.7761 10.2239 12 10.5 12C10.7761 12 11 12.2239 11 12.5C11 12.7761 11.2239 13 11.5 13C11.7761 13 12 13.2239 12 13.5C12 13.7761 12.2239 14 12.5 14C12.7761 14 13 14.2239 13 14.5C13 14.7761 13.2239 15 13.5 15C13.7761 15 14 15.2239 14 15.5C14 15.7761 14.2239 16 14.5 16C14.7761 16 15 16.2239 15 16.5C15 16.7761 15.2239 17 15.5 17C15.7761 17 16 17.2239 16 17.5C16 17.7761 16.2239 18 16.5 18C16.7761 18 17 18.2239 17 18.5C17 18.7761 17.2239 19 17.5 19C17.7761 19 18 19.2239 18 19.5C18 19.7761 18.2239 20 18.5 20C18.7761 20 19 20.2239 19 20.5C19 20.7761 19.2239 21 19.5 21H20H20.5C20.7761 21 21 20.7761 21 20.5V20V19.5C21 19.2239 20.7761 19 20.5 19C20.2239 19 20 18.7761 20 18.5C20 18.2239 19.7761 18 19.5 18C19.2239 18 19 17.7761 19 17.5C19 17.2239 18.7761 17 18.5 17C18.2239 17 18 16.7761 18 16.5C18 16.2239 17.7761 16 17.5 16C17.2239 16 17 15.7761 17 15.5C17 15.2239 16.7761 15 16.5 15C16.2239 15 16 14.7761 16 14.5C16 14.2239 15.7761 14 15.5 14C15.2239 14 15 13.7761 15 13.5C15 13.2239 14.7761 13 14.5 13C14.2239 13 14 12.7761 14 12.5C14 12.2239 13.7761 12 13.5 12C13.2239 12 13 11.7761 13 11.5C13 11.2239 12.7761 11 12.5 11C12.2239 11 12 10.7761 12 10.5C12 10.2239 11.7761 10 11.5 10C11.2239 10 11 9.77614 11 9.5C11 9.22386 10.7761 9 10.5 9C10.2239 9 10 8.77614 10 8.5C10 8.22386 9.77614 8 9.5 8C9.22386 8 9 7.77614 9 7.5C9 7.22386 8.77614 7 8.5 7C8.22386 7 8 6.77614 8 6.5C8 6.22386 7.77614 6 7.5 6C7.22386 6 7 5.77614 7 5.5C7 5.22386 6.77614 5 6.5 5C6.22386 5 6 4.77614 6 4.5C6 4.22386 5.77614 4 5.5 4C5.22386 4 5 3.77614 5 3.5C5 3.22386 4.77614 3 4.5 3H4Z" fill="white"/>
</svg>
