<svg width="24" height="24" viewBox="0 0 24 24" fill="none" xmlns="http://www.w3.org/2000/svg">
<path fill-rule="evenodd" clip-rule="evenodd" d="M12 2.5C12 2.22386 11.7761 2 11.5 2C11.2239 2 11 2.22386 11 2.5V3V4V5V6V7V8V8.5C11 8.77614 10.7761 9 10.5 9C10.2239 9 10 8.77614 10 8.5C10 8.22386 9.77614 8 9.5 8C9.22386 8 9 7.77614 9 7.5C9 7.22386 8.77614 7 8.5 7H8H7.5C7.22386 7 7 7.22386 7 7.5V8V8.5C7 8.77614 7.22386 9 7.5 9C7.77614 9 8 9.22386 8 9.5C8 9.77614 8.22386 10 8.5 10C8.77614 10 9 10.2239 9 10.5C9 10.7761 9.22386 11 9.5 11C9.77614 11 10 11.2239 10 11.5V12V12.5C10 12.7761 9.77614 13 9.5 13C9.22386 13 9 13.2239 9 13.5C9 13.7761 8.77614 14 8.5 14C8.22386 14 8 14.2239 8 14.5C8 14.7761 7.77614 15 7.5 15C7.22386 15 7 15.2239 7 15.5V16V16.5C7 16.7761 7.22386 17 7.5 17H8H8.5C8.77614 17 9 16.7761 9 16.5C9 16.2239 9.22386 16 9.5 16C9.77614 16 10 15.7761 10 15.5C10 15.2239 10.2239 15 10.5 15C10.7761 15 11 15.2239 11 15.5V16V17V18V19V20V21V21.5C11 21.7761 11.2239 22 11.5 22C11.7761 22 12 21.7761 12 21.5C12 21.2239 12.2239 21 12.5 21C12.7761 21 13 20.7761 13 20.5C13 20.2239 13.2239 20 13.5 20C13.7761 20 14 19.7761 14 19.5C14 19.2239 14.2239 19 14.5 19C14.7761 19 15 18.7761 15 18.5C15 18.2239 15.2239 18 15.5 18C15.7761 18 16 17.7761 16 17.5C16 17.2239 16.2239 17 16.5 17C16.7761 17 17 16.7761 17 16.5V16V15.5C17 15.2239 16.7761 15 16.5 15C16.2239 15 16 14.7761 16 14.5C16 14.2239 15.7761 14 15.5 14C15.2239 14 15 13.7761 15 13.5C15 13.2239 14.7761 13 14.5 13C14.2239 13 14 12.7761 14 12.5V12V11.5C14 11.2239 14.2239 11 14.5 11C14.7761 11 15 10.7761 15 10.5C15 10.2239 15.2239 10 15.5 10C15.7761 10 16 9.77614 16 9.5C16 9.22386 16.2239 9 16.5 9C16.7761 9 17 8.77614 17 8.5V8V7.5C17 7.22386 16.7761 7 16.5 7C16.2239 7 16 6.77614 16 6.5C16 6.22386 15.7761 6 15.5 6C15.2239 6 15 5.77614 15 5.5C15 5.22386 14.7761 5 14.5 5C14.2239 5 14 4.77614 14 4.5C14 4.22386 13.7761 4 13.5 4C13.2239 4 13 3.77614 13 3.5C13 3.22386 12.7761 3 12.5 3C12.2239 3 12 2.77614 12 2.5ZM14 8V8.5C14 8.77614 13.7761 9 13.5 9C13.2239 9 13 8.77614 13 8.5V8V7.5C13 7.22386 13.2239 7 13.5 7C13.7761 7 14 7.22386 14 7.5V8ZM14 16V16.5C14 16.7761 13.7761 17 13.5 17C13.2239 17 13 16.7761 13 16.5V16V15.5C13 15.2239 13.2239 15 13.5 15C13.7761 15 14 15.2239 14 15.5V16Z" fill="white"/>
</svg>
