<svg width="24" height="24" viewBox="0 0 24 24" fill="none" xmlns="http://www.w3.org/2000/svg">
<path fill-rule="evenodd" clip-rule="evenodd" d="M8 2H7.5C7.22386 2 7 2.22386 7 2.5V3V3.5C7 3.77614 6.77614 4 6.5 4H6H5H4H3.5C3.22386 4 3 4.22386 3 4.5V5V6V7V8V9V10V11V12V13V14V15V16V17V18V19V20V20.5C3 20.7761 3.22386 21 3.5 21H4H5H6H7H8H9H10H11H12H13H14H15H16H17H18H19H20H20.5C20.7761 21 21 20.7761 21 20.5V20V19V18V17V16V15V14V13V12V11V10V9V8V7V6V5V4.5C21 4.22386 20.7761 4 20.5 4H20H19H18H17.5C17.2239 4 17 3.77614 17 3.5V3V2.5C17 2.22386 16.7761 2 16.5 2H16H15.5C15.2239 2 15 2.22386 15 2.5V3V3.5C15 3.77614 14.7761 4 14.5 4H14H13H12H11H10H9.5C9.22386 4 9 3.77614 9 3.5V3V2.5C9 2.22386 8.77614 2 8.5 2H8ZM18.5 6C18.7761 6 19 6.22386 19 6.5V7V8V9V9.5C19 9.77614 18.7761 10 18.5 10H18H17H16H15H14H13H12H11H10H9H8H7H6H5.5C5.22386 10 5 9.77614 5 9.5V9V8V7V6.5C5 6.22386 5.22386 6 5.5 6H6H6.5C6.77614 6 7 6.22386 7 6.5V7V7.5C7 7.77614 7.22386 8 7.5 8H8H8.5C8.77614 8 9 7.77614 9 7.5V7V6.5C9 6.22386 9.22386 6 9.5 6H10H11H12H13H14H14.5C14.7761 6 15 6.22386 15 6.5V7V7.5C15 7.77614 15.2239 8 15.5 8H16H16.5C16.7761 8 17 7.77614 17 7.5V7V6.5C17 6.22386 17.2239 6 17.5 6H18H18.5ZM18.5 12C18.7761 12 19 12.2239 19 12.5V13V14V15V16V17V18V18.5C19 18.7761 18.7761 19 18.5 19H18H17H16H15H14H13H12H11H10H9H8H7H6H5.5C5.22386 19 5 18.7761 5 18.5V18V17V16V15V14V13V12.5C5 12.2239 5.22386 12 5.5 12H6H7H8H9H10H11H12H13H14H15H16H17H18H18.5Z" fill="white"/>
</svg>
