<svg width="24" height="24" viewBox="0 0 24 24" fill="none" xmlns="http://www.w3.org/2000/svg">
<path fill-rule="evenodd" clip-rule="evenodd" d="M5 4.5C5 4.22386 4.77614 4 4.5 4H4H3.5C3.22386 4 3 4.22386 3 4.5V5V5.5C3 5.77614 3.22386 6 3.5 6C3.77614 6 4 6.22386 4 6.5C4 6.77614 4.22386 7 4.5 7C4.77614 7 5 7.22386 5 7.5C5 7.77614 5.22386 8 5.5 8C5.77614 8 6 8.22386 6 8.5C6 8.77614 6.22386 9 6.5 9C6.77614 9 7 9.22386 7 9.5C7 9.77614 7.22386 10 7.5 10C7.77614 10 8 10.2239 8 10.5C8 10.7761 8.22386 11 8.5 11C8.77614 11 9 11.2239 9 11.5C9 11.7761 9.22386 12 9.5 12C9.77614 12 10 12.2239 10 12.5C10 12.7761 10.2239 13 10.5 13C10.7761 13 11 13.2239 11 13.5C11 13.7761 11.2239 14 11.5 14C11.7761 14 12 14.2239 12 14.5C12 14.7761 12.2239 15 12.5 15C12.7761 15 13 15.2239 13 15.5C13 15.7761 13.2239 16 13.5 16C13.7761 16 14 16.2239 14 16.5C14 16.7761 14.2239 17 14.5 17C14.7761 17 15 17.2239 15 17.5C15 17.7761 15.2239 18 15.5 18C15.7761 18 16 18.2239 16 18.5C16 18.7761 16.2239 19 16.5 19C16.7761 19 17 19.2239 17 19.5C17 19.7761 17.2239 20 17.5 20C17.7761 20 18 20.2239 18 20.5C18 20.7761 18.2239 21 18.5 21H19H19.5C19.7761 21 20 20.7761 20 20.5V20V19.5C20 19.2239 19.7761 19 19.5 19C19.2239 19 19 18.7761 19 18.5C19 18.2239 18.7761 18 18.5 18C18.2239 18 18 17.7761 18 17.5C18 17.2239 17.7761 17 17.5 17C17.2239 17 17 16.7761 17 16.5C17 16.2239 16.7761 16 16.5 16C16.2239 16 16 15.7761 16 15.5C16 15.2239 15.7761 15 15.5 15C15.2239 15 15 14.7761 15 14.5C15 14.2239 14.7761 14 14.5 14C14.2239 14 14 13.7761 14 13.5C14 13.2239 13.7761 13 13.5 13C13.2239 13 13 12.7761 13 12.5C13 12.2239 12.7761 12 12.5 12C12.2239 12 12 11.7761 12 11.5C12 11.2239 11.7761 11 11.5 11C11.2239 11 11 10.7761 11 10.5C11 10.2239 10.7761 10 10.5 10C10.2239 10 10 9.77614 10 9.5C10 9.22386 9.77614 9 9.5 9C9.22386 9 9 8.77614 9 8.5C9 8.22386 8.77614 8 8.5 8C8.22386 8 8 7.77614 8 7.5C8 7.22386 7.77614 7 7.5 7C7.22386 7 7 6.77614 7 6.5C7 6.22386 6.77614 6 6.5 6C6.22386 6 6 5.77614 6 5.5C6 5.22386 5.77614 5 5.5 5C5.22386 5 5 4.77614 5 4.5ZM12 5H11H10H9.5C9.22386 5 9 5.22386 9 5.5C9 5.77614 9.22386 6 9.5 6C9.77614 6 10 6.22386 10 6.5C10 6.77614 10.2239 7 10.5 7H11H12H13H13.5C13.7761 7 14 7.22386 14 7.5C14 7.77614 14.2239 8 14.5 8C14.7761 8 15 8.22386 15 8.5C15 8.77614 15.2239 9 15.5 9H16H17H18H19H19.5C19.7761 9 20 9.22386 20 9.5V10V11V12V13V14V15V16V16.5C20 16.7761 20.2239 17 20.5 17C20.7761 17 21 17.2239 21 17.5C21 17.7761 21.2239 18 21.5 18C21.7761 18 22 17.7761 22 17.5V17V16V15V14V13V12V11V10V9V8V7.5C22 7.22386 21.7761 7 21.5 7H21H20H19H18H17H16.5C16.2239 7 16 6.77614 16 6.5C16 6.22386 15.7761 6 15.5 6C15.2239 6 15 5.77614 15 5.5C15 5.22386 14.7761 5 14.5 5H14H13H12ZM2 10V9V8V7.5C2 7.22386 2.22386 7 2.5 7C2.77614 7 3 7.22386 3 7.5C3 7.77614 3.22386 8 3.5 8C3.77614 8 4 8.22386 4 8.5V9V10V11V12V13V14V15V16V17V17.5C4 17.7761 4.22386 18 4.5 18H5H6H7H8H9H10H11H12H13H13.5C13.7761 18 14 18.2239 14 18.5C14 18.7761 14.2239 19 14.5 19C14.7761 19 15 19.2239 15 19.5C15 19.7761 14.7761 20 14.5 20H14H13H12H11H10H9H8H7H6H5H4H3H2.5C2.22386 20 2 19.7761 2 19.5V19V18V17V16V15V14V13V12V11V10ZM12 16.5C12 16.2239 11.7761 16 11.5 16H11V15.5C11 15.2239 10.7761 15 10.5 15C10.2239 15 10 14.7761 10 14.5C10 14.2239 9.77614 14 9.5 14H9V13.5C9 13.2239 8.77614 13 8.5 13C8.22386 13 8 13.2239 8 13.5C8 13.7761 8.22386 14 8.5 14H9V15V15.5C9 15.7761 9.22386 16 9.5 16H10H11V16.5C11 16.7761 11.2239 17 11.5 17C11.7761 17 12 16.7761 12 16.5ZM13 10H14H14.5C14.7761 10 15 10.2239 15 10.5V11V12H14.5C14.2239 12 14 11.7761 14 11.5C14 11.2239 13.7761 11 13.5 11C13.2239 11 13 10.7761 13 10.5V10ZM13 10H12.5C12.2239 10 12 9.77614 12 9.5C12 9.22386 12.2239 9 12.5 9C12.7761 9 13 9.22386 13 9.5V10ZM15 12H15.5C15.7761 12 16 12.2239 16 12.5C16 12.7761 15.7761 13 15.5 13C15.2239 13 15 12.7761 15 12.5V12Z" fill="white"/>
</svg>
