<svg width="24" height="24" viewBox="0 0 24 24" fill="none" xmlns="http://www.w3.org/2000/svg">
<path fill-rule="evenodd" clip-rule="evenodd" d="M20 6.5C20 6.22386 19.7761 6 19.5 6H19H18.5C18.2239 6 18 6.22386 18 6.5C18 6.77614 17.7761 7 17.5 7C17.2239 7 17 7.22386 17 7.5C17 7.77614 16.7761 8 16.5 8C16.2239 8 16 8.22386 16 8.5C16 8.77614 15.7761 9 15.5 9C15.2239 9 15 9.22386 15 9.5C15 9.77614 14.7761 10 14.5 10C14.2239 10 14 10.2239 14 10.5C14 10.7761 13.7761 11 13.5 11C13.2239 11 13 11.2239 13 11.5C13 11.7761 12.7761 12 12.5 12C12.2239 12 12 12.2239 12 12.5C12 12.7761 11.7761 13 11.5 13C11.2239 13 11 13.2239 11 13.5C11 13.7761 10.7761 14 10.5 14C10.2239 14 10 14.2239 10 14.5C10 14.7761 9.77614 15 9.5 15H9H8.5C8.22386 15 8 14.7761 8 14.5C8 14.2239 7.77614 14 7.5 14C7.22386 14 7 13.7761 7 13.5C7 13.2239 6.77614 13 6.5 13C6.22386 13 6 12.7761 6 12.5C6 12.2239 5.77614 12 5.5 12H5H4.5C4.22386 12 4 12.2239 4 12.5V13V13.5C4 13.7761 4.22386 14 4.5 14C4.77614 14 5 14.2239 5 14.5C5 14.7761 5.22386 15 5.5 15C5.77614 15 6 15.2239 6 15.5C6 15.7761 6.22386 16 6.5 16C6.77614 16 7 16.2239 7 16.5C7 16.7761 7.22386 17 7.5 17C7.77614 17 8 17.2239 8 17.5C8 17.7761 8.22386 18 8.5 18H9H9.5C9.77614 18 10 17.7761 10 17.5C10 17.2239 10.2239 17 10.5 17C10.7761 17 11 16.7761 11 16.5C11 16.2239 11.2239 16 11.5 16C11.7761 16 12 15.7761 12 15.5C12 15.2239 12.2239 15 12.5 15C12.7761 15 13 14.7761 13 14.5C13 14.2239 13.2239 14 13.5 14C13.7761 14 14 13.7761 14 13.5C14 13.2239 14.2239 13 14.5 13C14.7761 13 15 12.7761 15 12.5C15 12.2239 15.2239 12 15.5 12C15.7761 12 16 11.7761 16 11.5C16 11.2239 16.2239 11 16.5 11C16.7761 11 17 10.7761 17 10.5C17 10.2239 17.2239 10 17.5 10C17.7761 10 18 9.77614 18 9.5C18 9.22386 18.2239 9 18.5 9C18.7761 9 19 8.77614 19 8.5C19 8.22386 19.2239 8 19.5 8C19.7761 8 20 7.77614 20 7.5V7V6.5Z" fill="white"/>
</svg>
