<svg width="24" height="24" viewBox="0 0 24 24" fill="none" xmlns="http://www.w3.org/2000/svg">
<path fill-rule="evenodd" clip-rule="evenodd" d="M13.5 9C13.2239 9 13 8.77614 13 8.5C13 8.22386 12.7761 8 12.5 8H12H11.5C11.2239 8 11 8.22386 11 8.5C11 8.77614 10.7761 9 10.5 9C10.2239 9 10 9.22386 10 9.5C10 9.77614 9.77614 10 9.5 10C9.22386 10 9 10.2239 9 10.5C9 10.7761 8.77614 11 8.5 11C8.22386 11 8 11.2239 8 11.5C8 11.7761 7.77614 12 7.5 12C7.22386 12 7 12.2239 7 12.5C7 12.7761 6.77614 13 6.5 13C6.22386 13 6 13.2239 6 13.5C6 13.7761 5.77614 14 5.5 14C5.22386 14 5 14.2239 5 14.5V15V15.5C5 15.7761 5.22386 16 5.5 16H6H6.5C6.77614 16 7 15.7761 7 15.5C7 15.2239 7.22386 15 7.5 15C7.77614 15 8 14.7761 8 14.5C8 14.2239 8.22386 14 8.5 14C8.77614 14 9 13.7761 9 13.5C9 13.2239 9.22386 13 9.5 13C9.77614 13 10 12.7761 10 12.5C10 12.2239 10.2239 12 10.5 12C10.7761 12 11 11.7761 11 11.5C11 11.2239 11.2239 11 11.5 11H12H12.5C12.7761 11 13 11.2239 13 11.5C13 11.7761 13.2239 12 13.5 12C13.7761 12 14 12.2239 14 12.5C14 12.7761 14.2239 13 14.5 13C14.7761 13 15 13.2239 15 13.5C15 13.7761 15.2239 14 15.5 14C15.7761 14 16 14.2239 16 14.5C16 14.7761 16.2239 15 16.5 15C16.7761 15 17 15.2239 17 15.5C17 15.7761 17.2239 16 17.5 16H18H18.5C18.7761 16 19 15.7761 19 15.5V15V14.5C19 14.2239 18.7761 14 18.5 14C18.2239 14 18 13.7761 18 13.5C18 13.2239 17.7761 13 17.5 13C17.2239 13 17 12.7761 17 12.5C17 12.2239 16.7761 12 16.5 12C16.2239 12 16 11.7761 16 11.5C16 11.2239 15.7761 11 15.5 11C15.2239 11 15 10.7761 15 10.5C15 10.2239 14.7761 10 14.5 10C14.2239 10 14 9.77614 14 9.5C14 9.22386 13.7761 9 13.5 9Z" fill="white"/>
</svg>
