<svg width="24" height="24" viewBox="0 0 24 24" fill="none" xmlns="http://www.w3.org/2000/svg">
<path fill-rule="evenodd" clip-rule="evenodd" d="M9 6H8.5C8.22386 6 8 6.22386 8 6.5V7V7.5C8 7.77614 8.22386 8 8.5 8C8.77614 8 9 8.22386 9 8.5C9 8.77614 9.22386 9 9.5 9C9.77614 9 10 9.22386 10 9.5C10 9.77614 10.2239 10 10.5 10C10.7761 10 11 10.2239 11 10.5C11 10.7761 11.2239 11 11.5 11C11.7761 11 12 11.2239 12 11.5V12V12.5C12 12.7761 11.7761 13 11.5 13C11.2239 13 11 13.2239 11 13.5C11 13.7761 10.7761 14 10.5 14C10.2239 14 10 14.2239 10 14.5C10 14.7761 9.77614 15 9.5 15C9.22386 15 9 15.2239 9 15.5C9 15.7761 8.77614 16 8.5 16C8.22386 16 8 16.2239 8 16.5V17V17.5C8 17.7761 8.22386 18 8.5 18H9H9.5C9.77614 18 10 17.7761 10 17.5C10 17.2239 10.2239 17 10.5 17C10.7761 17 11 16.7761 11 16.5C11 16.2239 11.2239 16 11.5 16C11.7761 16 12 15.7761 12 15.5C12 15.2239 12.2239 15 12.5 15C12.7761 15 13 14.7761 13 14.5C13 14.2239 13.2239 14 13.5 14C13.7761 14 14 13.7761 14 13.5C14 13.2239 14.2239 13 14.5 13C14.7761 13 15 12.7761 15 12.5V12V11.5C15 11.2239 14.7761 11 14.5 11C14.2239 11 14 10.7761 14 10.5C14 10.2239 13.7761 10 13.5 10C13.2239 10 13 9.77614 13 9.5C13 9.22386 12.7761 9 12.5 9C12.2239 9 12 8.77614 12 8.5C12 8.22386 11.7761 8 11.5 8C11.2239 8 11 7.77614 11 7.5C11 7.22386 10.7761 7 10.5 7C10.2239 7 10 6.77614 10 6.5C10 6.22386 9.77614 6 9.5 6H9Z" fill="white"/>
</svg>
