<svg width="24" height="24" viewBox="0 0 24 24" fill="none" xmlns="http://www.w3.org/2000/svg">
<path fill-rule="evenodd" clip-rule="evenodd" d="M7 7H6.5C6.22386 7 6 7.22386 6 7.5V8V8.5C6 8.77614 6.22386 9 6.5 9C6.77614 9 7 9.22386 7 9.5C7 9.77614 7.22386 10 7.5 10C7.77614 10 8 10.2239 8 10.5C8 10.7761 8.22386 11 8.5 11C8.77614 11 9 11.2239 9 11.5V12V12.5C9 12.7761 8.77614 13 8.5 13C8.22386 13 8 13.2239 8 13.5C8 13.7761 7.77614 14 7.5 14C7.22386 14 7 14.2239 7 14.5C7 14.7761 6.77614 15 6.5 15C6.22386 15 6 15.2239 6 15.5V16V16.5C6 16.7761 6.22386 17 6.5 17H7H7.5C7.77614 17 8 16.7761 8 16.5C8 16.2239 8.22386 16 8.5 16C8.77614 16 9 15.7761 9 15.5C9 15.2239 9.22386 15 9.5 15C9.77614 15 10 14.7761 10 14.5C10 14.2239 10.2239 14 10.5 14C10.7761 14 11 13.7761 11 13.5C11 13.2239 11.2239 13 11.5 13C11.7761 13 12 12.7761 12 12.5V12V11.5C12 11.2239 11.7761 11 11.5 11C11.2239 11 11 10.7761 11 10.5C11 10.2239 10.7761 10 10.5 10C10.2239 10 10 9.77614 10 9.5C10 9.22386 9.77614 9 9.5 9C9.22386 9 9 8.77614 9 8.5C9 8.22386 8.77614 8 8.5 8C8.22386 8 8 7.77614 8 7.5C8 7.22386 7.77614 7 7.5 7H7ZM18 10.5C18 10.2239 17.7761 10 17.5 10C17.2239 10 17 9.77614 17 9.5C17 9.22386 16.7761 9 16.5 9C16.2239 9 16 8.77614 16 8.5C16 8.22386 15.7761 8 15.5 8C15.2239 8 15 7.77614 15 7.5C15 7.22386 14.7761 7 14.5 7H14H13.5C13.2239 7 13 7.22386 13 7.5V8V8.5C13 8.77614 13.2239 9 13.5 9C13.7761 9 14 9.22386 14 9.5C14 9.77614 14.2239 10 14.5 10C14.7761 10 15 10.2239 15 10.5C15 10.7761 15.2239 11 15.5 11C15.7761 11 16 11.2239 16 11.5V12V12.5C16 12.7761 15.7761 13 15.5 13C15.2239 13 15 13.2239 15 13.5C15 13.7761 14.7761 14 14.5 14C14.2239 14 14 14.2239 14 14.5C14 14.7761 13.7761 15 13.5 15C13.2239 15 13 15.2239 13 15.5V16V16.5C13 16.7761 13.2239 17 13.5 17H14H14.5C14.7761 17 15 16.7761 15 16.5C15 16.2239 15.2239 16 15.5 16C15.7761 16 16 15.7761 16 15.5C16 15.2239 16.2239 15 16.5 15C16.7761 15 17 14.7761 17 14.5C17 14.2239 17.2239 14 17.5 14C17.7761 14 18 13.7761 18 13.5C18 13.2239 18.2239 13 18.5 13C18.7761 13 19 12.7761 19 12.5V12V11.5C19 11.2239 18.7761 11 18.5 11C18.2239 11 18 10.7761 18 10.5Z" fill="white"/>
</svg>
