<svg width="24" height="24" viewBox="0 0 24 24" fill="none" xmlns="http://www.w3.org/2000/svg">
<path fill-rule="evenodd" clip-rule="evenodd" d="M14 6H14.5C14.7761 6 15 6.22386 15 6.5V7V7.5C15 7.77614 14.7761 8 14.5 8C14.2239 8 14 8.22386 14 8.5C14 8.77614 13.7761 9 13.5 9C13.2239 9 13 9.22386 13 9.5C13 9.77614 12.7761 10 12.5 10C12.2239 10 12 10.2239 12 10.5C12 10.7761 11.7761 11 11.5 11C11.2239 11 11 11.2239 11 11.5V12V12.5C11 12.7761 11.2239 13 11.5 13C11.7761 13 12 13.2239 12 13.5C12 13.7761 12.2239 14 12.5 14C12.7761 14 13 14.2239 13 14.5C13 14.7761 13.2239 15 13.5 15C13.7761 15 14 15.2239 14 15.5C14 15.7761 14.2239 16 14.5 16C14.7761 16 15 16.2239 15 16.5V17V17.5C15 17.7761 14.7761 18 14.5 18H14H13.5C13.2239 18 13 17.7761 13 17.5C13 17.2239 12.7761 17 12.5 17C12.2239 17 12 16.7761 12 16.5C12 16.2239 11.7761 16 11.5 16C11.2239 16 11 15.7761 11 15.5C11 15.2239 10.7761 15 10.5 15C10.2239 15 10 14.7761 10 14.5C10 14.2239 9.77614 14 9.5 14C9.22386 14 9 13.7761 9 13.5C9 13.2239 8.77614 13 8.5 13C8.22386 13 8 12.7761 8 12.5V12V11.5C8 11.2239 8.22386 11 8.5 11C8.77614 11 9 10.7761 9 10.5C9 10.2239 9.22386 10 9.5 10C9.77614 10 10 9.77614 10 9.5C10 9.22386 10.2239 9 10.5 9C10.7761 9 11 8.77614 11 8.5C11 8.22386 11.2239 8 11.5 8C11.7761 8 12 7.77614 12 7.5C12 7.22386 12.2239 7 12.5 7C12.7761 7 13 6.77614 13 6.5C13 6.22386 13.2239 6 13.5 6H14Z" fill="white"/>
</svg>
