<svg width="24" height="24" viewBox="0 0 24 24" fill="none" xmlns="http://www.w3.org/2000/svg">
<path fill-rule="evenodd" clip-rule="evenodd" d="M10 7H10.5C10.7761 7 11 7.22386 11 7.5V8V8.5C11 8.77614 10.7761 9 10.5 9C10.2239 9 10 9.22386 10 9.5C10 9.77614 9.77614 10 9.5 10C9.22386 10 9 10.2239 9 10.5C9 10.7761 8.77614 11 8.5 11C8.22386 11 8 11.2239 8 11.5V12V12.5C8 12.7761 8.22386 13 8.5 13C8.77614 13 9 13.2239 9 13.5C9 13.7761 9.22386 14 9.5 14C9.77614 14 10 14.2239 10 14.5C10 14.7761 10.2239 15 10.5 15C10.7761 15 11 15.2239 11 15.5V16V16.5C11 16.7761 10.7761 17 10.5 17H10H9.5C9.22386 17 9 16.7761 9 16.5C9 16.2239 8.77614 16 8.5 16C8.22386 16 8 15.7761 8 15.5C8 15.2239 7.77614 15 7.5 15C7.22386 15 7 14.7761 7 14.5C7 14.2239 6.77614 14 6.5 14C6.22386 14 6 13.7761 6 13.5C6 13.2239 5.77614 13 5.5 13C5.22386 13 5 12.7761 5 12.5V12V11.5C5 11.2239 5.22386 11 5.5 11C5.77614 11 6 10.7761 6 10.5C6 10.2239 6.22386 10 6.5 10C6.77614 10 7 9.77614 7 9.5C7 9.22386 7.22386 9 7.5 9C7.77614 9 8 8.77614 8 8.5C8 8.22386 8.22386 8 8.5 8C8.77614 8 9 7.77614 9 7.5C9 7.22386 9.22386 7 9.5 7H10ZM13 10.5C13 10.2239 13.2239 10 13.5 10C13.7761 10 14 9.77614 14 9.5C14 9.22386 14.2239 9 14.5 9C14.7761 9 15 8.77614 15 8.5C15 8.22386 15.2239 8 15.5 8C15.7761 8 16 7.77614 16 7.5C16 7.22386 16.2239 7 16.5 7H17H17.5C17.7761 7 18 7.22386 18 7.5V8V8.5C18 8.77614 17.7761 9 17.5 9C17.2239 9 17 9.22386 17 9.5C17 9.77614 16.7761 10 16.5 10C16.2239 10 16 10.2239 16 10.5C16 10.7761 15.7761 11 15.5 11C15.2239 11 15 11.2239 15 11.5V12V12.5C15 12.7761 15.2239 13 15.5 13C15.7761 13 16 13.2239 16 13.5C16 13.7761 16.2239 14 16.5 14C16.7761 14 17 14.2239 17 14.5C17 14.7761 17.2239 15 17.5 15C17.7761 15 18 15.2239 18 15.5V16V16.5C18 16.7761 17.7761 17 17.5 17H17H16.5C16.2239 17 16 16.7761 16 16.5C16 16.2239 15.7761 16 15.5 16C15.2239 16 15 15.7761 15 15.5C15 15.2239 14.7761 15 14.5 15C14.2239 15 14 14.7761 14 14.5C14 14.2239 13.7761 14 13.5 14C13.2239 14 13 13.7761 13 13.5C13 13.2239 12.7761 13 12.5 13C12.2239 13 12 12.7761 12 12.5V12V11.5C12 11.2239 12.2239 11 12.5 11C12.7761 11 13 10.7761 13 10.5Z" fill="white"/>
</svg>
