<svg width="24" height="24" viewBox="0 0 24 24" fill="none" xmlns="http://www.w3.org/2000/svg">
<path fill-rule="evenodd" clip-rule="evenodd" d="M9 2H8.5C8.22386 2 8 2.22386 8 2.5V3V3.5C8 3.77614 7.77614 4 7.5 4H7H6H5H4.5C4.22386 4 4 4.22386 4 4.5V5V6V7V8V9V10V11V12V13V14V15V16V17V18V19V20V21V21.5C4 21.7761 4.22386 22 4.5 22H5H6H7H8H9H10H11H12H13H14H15H16H17H18H19H19.5C19.7761 22 20 21.7761 20 21.5V21V20V19V18V17V16V15V14V13V12V11V10V9V8V7V6V5V4.5C20 4.22386 19.7761 4 19.5 4H19H18H17H16.5C16.2239 4 16 3.77614 16 3.5V3V2.5C16 2.22386 15.7761 2 15.5 2H15H14H13H12H11H10H9ZM6 9V8V7V6.5C6 6.22386 6.22386 6 6.5 6H7H7.5C7.77614 6 8 6.22386 8 6.5V7V7.5C8 7.77614 8.22386 8 8.5 8H9H10H11H12H13H14H15H15.5C15.7761 8 16 7.77614 16 7.5V7V6.5C16 6.22386 16.2239 6 16.5 6H17H17.5C17.7761 6 18 6.22386 18 6.5V7V8V9V10V11V12V13V14V15V16V17V18V19V19.5C18 19.7761 17.7761 20 17.5 20H17H16H15H14H13H12H11H10H9H8H7H6.5C6.22386 20 6 19.7761 6 19.5V19V18V17V16V15V14V13V12V11V10V9ZM10.5 4C10.2239 4 10 4.22386 10 4.5V5V5.5C10 5.77614 10.2239 6 10.5 6H11H12H13H13.5C13.7761 6 14 5.77614 14 5.5V5V4.5C14 4.22386 13.7761 4 13.5 4H13H12H11H10.5Z" fill="white"/>
</svg>
