<svg width="24" height="24" viewBox="0 0 24 24" fill="none" xmlns="http://www.w3.org/2000/svg">
<path fill-rule="evenodd" clip-rule="evenodd" d="M7 3H6H5.5C5.22386 3 5 3.22386 5 3.5C5 3.77614 4.77614 4 4.5 4C4.22386 4 4 4.22386 4 4.5C4 4.77614 3.77614 5 3.5 5C3.22386 5 3 5.22386 3 5.5V6V7V8V8.5C3 8.77614 3.22386 9 3.5 9C3.77614 9 4 9.22386 4 9.5C4 9.77614 4.22386 10 4.5 10H5H6H7H7.5C7.77614 10 8 10.2239 8 10.5V11V12V13V13.5C8 13.7761 7.77614 14 7.5 14H7H6H5H4.5C4.22386 14 4 14.2239 4 14.5C4 14.7761 3.77614 15 3.5 15C3.22386 15 3 15.2239 3 15.5V16V17V18V18.5C3 18.7761 3.22386 19 3.5 19C3.77614 19 4 19.2239 4 19.5C4 19.7761 4.22386 20 4.5 20C4.77614 20 5 20.2239 5 20.5C5 20.7761 5.22386 21 5.5 21H6H7H8H8.5C8.77614 21 9 20.7761 9 20.5C9 20.2239 9.22386 20 9.5 20C9.77614 20 10 19.7761 10 19.5V19V18V17V16.5C10 16.2239 10.2239 16 10.5 16H11H12H13H13.5C13.7761 16 14 16.2239 14 16.5V17V18V19V19.5C14 19.7761 14.2239 20 14.5 20C14.7761 20 15 20.2239 15 20.5C15 20.7761 15.2239 21 15.5 21H16H17H18H18.5C18.7761 21 19 20.7761 19 20.5C19 20.2239 19.2239 20 19.5 20C19.7761 20 20 19.7761 20 19.5C20 19.2239 20.2239 19 20.5 19C20.7761 19 21 18.7761 21 18.5V18V17V16V15.5C21 15.2239 20.7761 15 20.5 15C20.2239 15 20 14.7761 20 14.5C20 14.2239 19.7761 14 19.5 14H19H18H17H16.5C16.2239 14 16 13.7761 16 13.5V13V12V11V10.5C16 10.2239 16.2239 10 16.5 10H17H18H19H19.5C19.7761 10 20 9.77614 20 9.5C20 9.22386 20.2239 9 20.5 9C20.7761 9 21 8.77614 21 8.5V8V7V6V5.5C21 5.22386 20.7761 5 20.5 5C20.2239 5 20 4.77614 20 4.5C20 4.22386 19.7761 4 19.5 4C19.2239 4 19 3.77614 19 3.5C19 3.22386 18.7761 3 18.5 3H18H17H16H15.5C15.2239 3 15 3.22386 15 3.5C15 3.77614 14.7761 4 14.5 4C14.2239 4 14 4.22386 14 4.5V5V6V7V7.5C14 7.77614 13.7761 8 13.5 8H13H12H11H10.5C10.2239 8 10 7.77614 10 7.5V7V6V5V4.5C10 4.22386 9.77614 4 9.5 4C9.22386 4 9 3.77614 9 3.5C9 3.22386 8.77614 3 8.5 3H8H7ZM7 19H6.5C6.22386 19 6 18.7761 6 18.5C6 18.2239 5.77614 18 5.5 18C5.22386 18 5 17.7761 5 17.5V17V16.5C5 16.2239 5.22386 16 5.5 16H6H7H7.5C7.77614 16 8 16.2239 8 16.5V17V18V18.5C8 18.7761 7.77614 19 7.5 19H7ZM18.5 16C18.7761 16 19 16.2239 19 16.5V17V17.5C19 17.7761 18.7761 18 18.5 18C18.2239 18 18 18.2239 18 18.5C18 18.7761 17.7761 19 17.5 19H17H16.5C16.2239 19 16 18.7761 16 18.5V18V17V16.5C16 16.2239 16.2239 16 16.5 16H17H18H18.5ZM18.5 6C18.7761 6 19 6.22386 19 6.5V7V7.5C19 7.77614 18.7761 8 18.5 8H18H17H16.5C16.2239 8 16 7.77614 16 7.5V7V6V5.5C16 5.22386 16.2239 5 16.5 5H17H17.5C17.7761 5 18 5.22386 18 5.5C18 5.77614 18.2239 6 18.5 6ZM14 13V13.5C14 13.7761 13.7761 14 13.5 14H13H12H11H10.5C10.2239 14 10 13.7761 10 13.5V13V12V11V10.5C10 10.2239 10.2239 10 10.5 10H11H12H13H13.5C13.7761 10 14 10.2239 14 10.5V11V12V13ZM7.5 5C7.77614 5 8 5.22386 8 5.5V6V7V7.5C8 7.77614 7.77614 8 7.5 8H7H6H5.5C5.22386 8 5 7.77614 5 7.5V7V6.5C5 6.22386 5.22386 6 5.5 6C5.77614 6 6 5.77614 6 5.5C6 5.22386 6.22386 5 6.5 5H7H7.5Z" fill="white"/>
</svg>
