<svg width="24" height="24" viewBox="0 0 24 24" fill="none" xmlns="http://www.w3.org/2000/svg">
<path fill-rule="evenodd" clip-rule="evenodd" d="M15.5 4C15.2239 4 15 4.22386 15 4.5V5V5.5C15 5.77614 15.2239 6 15.5 6C15.7761 6 16 6.22386 16 6.5C16 6.77614 16.2239 7 16.5 7C16.7761 7 17 7.22386 17 7.5C17 7.77614 16.7761 8 16.5 8H16H15H14H13H12H11H10H9H8H7H6.5C6.22386 8 6 8.22386 6 8.5C6 8.77614 5.77614 9 5.5 9C5.22386 9 5 9.22386 5 9.5C5 9.77614 4.77614 10 4.5 10C4.22386 10 4 10.2239 4 10.5C4 10.7761 3.77614 11 3.5 11C3.22386 11 3 11.2239 3 11.5V12V13V14V15V16V17V18V19V20V20.5C3 20.7761 3.22386 21 3.5 21H4H4.5C4.77614 21 5 20.7761 5 20.5V20V19V18V17V16V15V14V13V12.5C5 12.2239 5.22386 12 5.5 12C5.77614 12 6 11.7761 6 11.5C6 11.2239 6.22386 11 6.5 11C6.77614 11 7 10.7761 7 10.5C7 10.2239 7.22386 10 7.5 10H8H9H10H11H12H13H14H15H16H16.5C16.7761 10 17 10.2239 17 10.5C17 10.7761 16.7761 11 16.5 11C16.2239 11 16 11.2239 16 11.5C16 11.7761 15.7761 12 15.5 12C15.2239 12 15 12.2239 15 12.5V13V13.5C15 13.7761 15.2239 14 15.5 14H16H16.5C16.7761 14 17 13.7761 17 13.5C17 13.2239 17.2239 13 17.5 13C17.7761 13 18 12.7761 18 12.5C18 12.2239 18.2239 12 18.5 12C18.7761 12 19 11.7761 19 11.5C19 11.2239 19.2239 11 19.5 11C19.7761 11 20 10.7761 20 10.5C20 10.2239 20.2239 10 20.5 10C20.7761 10 21 9.77614 21 9.5V9V8.5C21 8.22386 20.7761 8 20.5 8C20.2239 8 20 7.77614 20 7.5C20 7.22386 19.7761 7 19.5 7C19.2239 7 19 6.77614 19 6.5C19 6.22386 18.7761 6 18.5 6C18.2239 6 18 5.77614 18 5.5C18 5.22386 17.7761 5 17.5 5C17.2239 5 17 4.77614 17 4.5C17 4.22386 16.7761 4 16.5 4H16H15.5Z" fill="white"/>
</svg>
