<svg width="24" height="24" viewBox="0 0 24 24" fill="none" xmlns="http://www.w3.org/2000/svg">
<path fill-rule="evenodd" clip-rule="evenodd" d="M12 3H11H10.5C10.2239 3 10 3.22386 10 3.5C10 3.77614 9.77614 4 9.5 4C9.22386 4 9 4.22386 9 4.5C9 4.77614 8.77614 5 8.5 5C8.22386 5 8 5.22386 8 5.5C8 5.77614 7.77614 6 7.5 6C7.22386 6 7 6.22386 7 6.5V7V8V9V10V11V12V13V14V15V16V16.5C7 16.7761 6.77614 17 6.5 17C6.22386 17 6 16.7761 6 16.5C6 16.2239 5.77614 16 5.5 16C5.22386 16 5 15.7761 5 15.5C5 15.2239 4.77614 15 4.5 15H4H3.5C3.22386 15 3 15.2239 3 15.5V16V16.5C3 16.7761 3.22386 17 3.5 17C3.77614 17 4 17.2239 4 17.5C4 17.7761 4.22386 18 4.5 18C4.77614 18 5 18.2239 5 18.5C5 18.7761 5.22386 19 5.5 19C5.77614 19 6 19.2239 6 19.5C6 19.7761 6.22386 20 6.5 20C6.77614 20 7 20.2239 7 20.5C7 20.7761 7.22386 21 7.5 21H8H8.5C8.77614 21 9 20.7761 9 20.5C9 20.2239 9.22386 20 9.5 20C9.77614 20 10 19.7761 10 19.5C10 19.2239 10.2239 19 10.5 19C10.7761 19 11 18.7761 11 18.5C11 18.2239 11.2239 18 11.5 18C11.7761 18 12 17.7761 12 17.5C12 17.2239 12.2239 17 12.5 17C12.7761 17 13 16.7761 13 16.5V16V15.5C13 15.2239 12.7761 15 12.5 15H12H11.5C11.2239 15 11 15.2239 11 15.5C11 15.7761 10.7761 16 10.5 16C10.2239 16 10 16.2239 10 16.5C10 16.7761 9.77614 17 9.5 17C9.22386 17 9 16.7761 9 16.5V16V15V14V13V12V11V10V9V8V7.5C9 7.22386 9.22386 7 9.5 7C9.77614 7 10 6.77614 10 6.5C10 6.22386 10.2239 6 10.5 6C10.7761 6 11 5.77614 11 5.5C11 5.22386 11.2239 5 11.5 5H12H13H14H15H16H17H18H19H19.5C19.7761 5 20 4.77614 20 4.5V4V3.5C20 3.22386 19.7761 3 19.5 3H19H18H17H16H15H14H13H12Z" fill="white"/>
</svg>
