<svg width="24" height="24" viewBox="0 0 24 24" fill="none" xmlns="http://www.w3.org/2000/svg">
<path fill-rule="evenodd" clip-rule="evenodd" d="M11 3H12H12.5C12.7761 3 13 3.22386 13 3.5C13 3.77614 13.2239 4 13.5 4C13.7761 4 14 4.22386 14 4.5C14 4.77614 14.2239 5 14.5 5C14.7761 5 15 5.22386 15 5.5C15 5.77614 15.2239 6 15.5 6C15.7761 6 16 6.22386 16 6.5V7V8V9V10V11V12V13V14V15V16V16.5C16 16.7761 16.2239 17 16.5 17C16.7761 17 17 16.7761 17 16.5C17 16.2239 17.2239 16 17.5 16C17.7761 16 18 15.7761 18 15.5C18 15.2239 18.2239 15 18.5 15H19H19.5C19.7761 15 20 15.2239 20 15.5V16V16.5C20 16.7761 19.7761 17 19.5 17C19.2239 17 19 17.2239 19 17.5C19 17.7761 18.7761 18 18.5 18C18.2239 18 18 18.2239 18 18.5C18 18.7761 17.7761 19 17.5 19C17.2239 19 17 19.2239 17 19.5C17 19.7761 16.7761 20 16.5 20C16.2239 20 16 20.2239 16 20.5C16 20.7761 15.7761 21 15.5 21H15H14.5C14.2239 21 14 20.7761 14 20.5C14 20.2239 13.7761 20 13.5 20C13.2239 20 13 19.7761 13 19.5C13 19.2239 12.7761 19 12.5 19C12.2239 19 12 18.7761 12 18.5C12 18.2239 11.7761 18 11.5 18C11.2239 18 11 17.7761 11 17.5C11 17.2239 10.7761 17 10.5 17C10.2239 17 10 16.7761 10 16.5V16V15.5C10 15.2239 10.2239 15 10.5 15H11H11.5C11.7761 15 12 15.2239 12 15.5C12 15.7761 12.2239 16 12.5 16C12.7761 16 13 16.2239 13 16.5C13 16.7761 13.2239 17 13.5 17C13.7761 17 14 16.7761 14 16.5V16V15V14V13V12V11V10V9V8V7.5C14 7.22386 13.7761 7 13.5 7C13.2239 7 13 6.77614 13 6.5C13 6.22386 12.7761 6 12.5 6C12.2239 6 12 5.77614 12 5.5C12 5.22386 11.7761 5 11.5 5H11H10H9H8H7H6H5H4H3.5C3.22386 5 3 4.77614 3 4.5V4V3.5C3 3.22386 3.22386 3 3.5 3H4H5H6H7H8H9H10H11Z" fill="white"/>
</svg>
