<svg width="24" height="24" viewBox="0 0 24 24" fill="none" xmlns="http://www.w3.org/2000/svg">
<path fill-rule="evenodd" clip-rule="evenodd" d="M8.5 4C8.77614 4 9 4.22386 9 4.5V5V5.5C9 5.77614 8.77614 6 8.5 6C8.22386 6 8 6.22386 8 6.5C8 6.77614 7.77614 7 7.5 7C7.22386 7 7 7.22386 7 7.5C7 7.77614 7.22386 8 7.5 8H8H9H10H11H12H13H14H15H16H17H17.5C17.7761 8 18 8.22386 18 8.5C18 8.77614 18.2239 9 18.5 9C18.7761 9 19 9.22386 19 9.5C19 9.77614 19.2239 10 19.5 10C19.7761 10 20 10.2239 20 10.5C20 10.7761 20.2239 11 20.5 11C20.7761 11 21 11.2239 21 11.5V12V13V14V15V16V17V18V19V20V20.5C21 20.7761 20.7761 21 20.5 21H20H19.5C19.2239 21 19 20.7761 19 20.5V20V19V18V17V16V15V14V13V12.5C19 12.2239 18.7761 12 18.5 12C18.2239 12 18 11.7761 18 11.5C18 11.2239 17.7761 11 17.5 11C17.2239 11 17 10.7761 17 10.5C17 10.2239 16.7761 10 16.5 10H16H15H14H13H12H11H10H9H8H7.5C7.22386 10 7 10.2239 7 10.5C7 10.7761 7.22386 11 7.5 11C7.77614 11 8 11.2239 8 11.5C8 11.7761 8.22386 12 8.5 12C8.77614 12 9 12.2239 9 12.5V13V13.5C9 13.7761 8.77614 14 8.5 14H8H7.5C7.22386 14 7 13.7761 7 13.5C7 13.2239 6.77614 13 6.5 13C6.22386 13 6 12.7761 6 12.5C6 12.2239 5.77614 12 5.5 12C5.22386 12 5 11.7761 5 11.5C5 11.2239 4.77614 11 4.5 11C4.22386 11 4 10.7761 4 10.5C4 10.2239 3.77614 10 3.5 10C3.22386 10 3 9.77614 3 9.5V9V8.5C3 8.22386 3.22386 8 3.5 8C3.77614 8 4 7.77614 4 7.5C4 7.22386 4.22386 7 4.5 7C4.77614 7 5 6.77614 5 6.5C5 6.22386 5.22386 6 5.5 6C5.77614 6 6 5.77614 6 5.5C6 5.22386 6.22386 5 6.5 5C6.77614 5 7 4.77614 7 4.5C7 4.22386 7.22386 4 7.5 4H8H8.5Z" fill="white"/>
</svg>
