<svg width="24" height="24" viewBox="0 0 24 24" fill="none" xmlns="http://www.w3.org/2000/svg">
<path fill-rule="evenodd" clip-rule="evenodd" d="M8.5 3C8.77614 3 9 3.22386 9 3.5C9 3.77614 9.22386 4 9.5 4C9.77614 4 10 4.22386 10 4.5C10 4.77614 10.2239 5 10.5 5C10.7761 5 11 5.22386 11 5.5C11 5.77614 11.2239 6 11.5 6C11.7761 6 12 6.22386 12 6.5C12 6.77614 12.2239 7 12.5 7C12.7761 7 13 7.22386 13 7.5V8V8.5C13 8.77614 12.7761 9 12.5 9H12H11.5C11.2239 9 11 8.77614 11 8.5C11 8.22386 10.7761 8 10.5 8C10.2239 8 10 7.77614 10 7.5C10 7.22386 9.77614 7 9.5 7C9.22386 7 9 7.22386 9 7.5V8V9V10V11V12V13V14V15V16V16.5C9 16.7761 9.22386 17 9.5 17C9.77614 17 10 17.2239 10 17.5C10 17.7761 10.2239 18 10.5 18C10.7761 18 11 18.2239 11 18.5C11 18.7761 11.2239 19 11.5 19H12H13H14H15H16H17H18H19H19.5C19.7761 19 20 19.2239 20 19.5V20V20.5C20 20.7761 19.7761 21 19.5 21H19H18H17H16H15H14H13H12H11H10.5C10.2239 21 10 20.7761 10 20.5C10 20.2239 9.77614 20 9.5 20C9.22386 20 9 19.7761 9 19.5C9 19.2239 8.77614 19 8.5 19C8.22386 19 8 18.7761 8 18.5C8 18.2239 7.77614 18 7.5 18C7.22386 18 7 17.7761 7 17.5V17V16V15V14V13V12V11V10V9V8V7.5C7 7.22386 6.77614 7 6.5 7C6.22386 7 6 7.22386 6 7.5C6 7.77614 5.77614 8 5.5 8C5.22386 8 5 8.22386 5 8.5C5 8.77614 4.77614 9 4.5 9H4H3.5C3.22386 9 3 8.77614 3 8.5V8V7.5C3 7.22386 3.22386 7 3.5 7C3.77614 7 4 6.77614 4 6.5C4 6.22386 4.22386 6 4.5 6C4.77614 6 5 5.77614 5 5.5C5 5.22386 5.22386 5 5.5 5C5.77614 5 6 4.77614 6 4.5C6 4.22386 6.22386 4 6.5 4C6.77614 4 7 3.77614 7 3.5C7 3.22386 7.22386 3 7.5 3H8H8.5Z" fill="white"/>
</svg>
