<svg width="24" height="24" viewBox="0 0 24 24" fill="none" xmlns="http://www.w3.org/2000/svg">
<path fill-rule="evenodd" clip-rule="evenodd" d="M3 4H2.5C2.22386 4 2 4.22386 2 4.5V5V6V7V8V9V10V11V12V13V14V15V16V17V18V19V19.5C2 19.7761 2.22386 20 2.5 20H3H4H5H6H7H8H9H10H11H12H13H14H15H16H17H18H19H20H21H21.5C21.7761 20 22 19.7761 22 19.5V19V18V17V16V15V14V13V12V11V10V9V8V7V6V5V4.5C22 4.22386 21.7761 4 21.5 4H21H20H19H18H17H16H15H14H13H12H11H10H9H8H7H6H5H4H3ZM4.5 6C4.22386 6 4 6.22386 4 6.5V7V8V8.5C4 8.77614 4.22386 9 4.5 9H5H6H7H8H9H10H11H12H13H14H15H16H17H18H19H19.5C19.7761 9 20 8.77614 20 8.5V8V7V6.5C20 6.22386 19.7761 6 19.5 6H19H18H17H16H15H14H13H12H11H10H9H8H7H6H5H4.5ZM6 11H7H8H9H10H11H12H13H14H15H16H17H18H19H19.5C19.7761 11 20 11.2239 20 11.5V12V13V14V15V16V17V17.5C20 17.7761 19.7761 18 19.5 18H19H18H17H16H15H14H13H12H11H10H9H8H7H6H5H4.5C4.22386 18 4 17.7761 4 17.5V17V16V15V14V13V12V11.5C4 11.2239 4.22386 11 4.5 11H5H6Z" fill="white"/>
</svg>
