<svg width="24" height="24" viewBox="0 0 24 24" fill="none" xmlns="http://www.w3.org/2000/svg">
<path fill-rule="evenodd" clip-rule="evenodd" d="M8 3H7.5C7.22386 3 7 3.22386 7 3.5V4V5V6V6.5C7 6.77614 6.77614 7 6.5 7H6H5H4H3.5C3.22386 7 3 7.22386 3 7.5V8V8.5C3 8.77614 3.22386 9 3.5 9H4H5H6H6.5C6.77614 9 7 9.22386 7 9.5V10V11V12V13V14V15V16V16.5C7 16.7761 7.22386 17 7.5 17H8H9H10H11H12H13H14H14.5C14.7761 17 15 17.2239 15 17.5V18V19V20V20.5C15 20.7761 15.2239 21 15.5 21H16H16.5C16.7761 21 17 20.7761 17 20.5V20V19V18V17.5C17 17.2239 17.2239 17 17.5 17H18H19H20H20.5C20.7761 17 21 16.7761 21 16.5V16V15.5C21 15.2239 20.7761 15 20.5 15H20H19H18H17.5C17.2239 15 17 14.7761 17 14.5V14V13V12V11V10V9V8V7.5C17 7.22386 16.7761 7 16.5 7H16H15H14H13H12H11H10H9.5C9.22386 7 9 6.77614 9 6.5V6V5V4V3.5C9 3.22386 8.77614 3 8.5 3H8ZM9 13V14V14.5C9 14.7761 9.22386 15 9.5 15H10H11H12H13H14H14.5C14.7761 15 15 14.7761 15 14.5V14V13V12V11V10V9.5C15 9.22386 14.7761 9 14.5 9H14H13H12H11H10H9.5C9.22386 9 9 9.22386 9 9.5V10V11V12V13Z" fill="white"/>
</svg>
