<svg width="24" height="24" viewBox="0 0 24 24" fill="none" xmlns="http://www.w3.org/2000/svg">
<path fill-rule="evenodd" clip-rule="evenodd" d="M12 2H13H14H15H15.5C15.7761 2 16 2.22386 16 2.5C16 2.77614 16.2239 3 16.5 3H17H17.5C17.7761 3 18 3.22386 18 3.5C18 3.77614 18.2239 4 18.5 4H19H19.5C19.7761 4 20 4.22386 20 4.5V5V6V7V8V9V10V11V12V13V14V15V16V17V18V19V19.5C20 19.7761 19.7761 20 19.5 20H19H18.5C18.2239 20 18 20.2239 18 20.5C18 20.7761 17.7761 21 17.5 21H17H16.5C16.2239 21 16 21.2239 16 21.5C16 21.7761 15.7761 22 15.5 22H15H14H13H12H11H10H9H8.5C8.22386 22 8 21.7761 8 21.5C8 21.2239 7.77614 21 7.5 21H7H6.5C6.22386 21 6 20.7761 6 20.5C6 20.2239 5.77614 20 5.5 20H5H4.5C4.22386 20 4 19.7761 4 19.5V19V18V17V16V15V14V13V12V11V10V9V8V7V6V5V4.5C4 4.22386 4.22386 4 4.5 4H5H5.5C5.77614 4 6 3.77614 6 3.5C6 3.22386 6.22386 3 6.5 3H7H7.5C7.77614 3 8 2.77614 8 2.5C8 2.22386 8.22386 2 8.5 2H9H10H11H12ZM6 15V14.5C6 14.2239 6.22386 14 6.5 14H7H7.5C7.77614 14 8 14.2239 8 14.5C8 14.7761 8.22386 15 8.5 15H9H10H11H12H13H14H15H15.5C15.7761 15 16 14.7761 16 14.5C16 14.2239 16.2239 14 16.5 14H17H17.5C17.7761 14 18 14.2239 18 14.5V15V16V17V18V18.5C18 18.7761 17.7761 19 17.5 19H17H16.5C16.2239 19 16 19.2239 16 19.5C16 19.7761 15.7761 20 15.5 20H15H14H13H12H11H10H9H8.5C8.22386 20 8 19.7761 8 19.5C8 19.2239 7.77614 19 7.5 19H7H6.5C6.22386 19 6 18.7761 6 18.5V18V17V16V15ZM16 12.5C16 12.7761 15.7761 13 15.5 13H15H14H13H12H11H10H9H8.5C8.22386 13 8 12.7761 8 12.5C8 12.2239 7.77614 12 7.5 12H7H6.5C6.22386 12 6 11.7761 6 11.5V11V10V9V8V7.5C6 7.22386 6.22386 7 6.5 7H7H7.5C7.77614 7 8 7.22386 8 7.5C8 7.77614 8.22386 8 8.5 8H9H10H11H12H13H14H15H15.5C15.7761 8 16 7.77614 16 7.5C16 7.22386 16.2239 7 16.5 7H17H17.5C17.7761 7 18 7.22386 18 7.5V8V9V10V11V11.5C18 11.7761 17.7761 12 17.5 12H17H16.5C16.2239 12 16 12.2239 16 12.5ZM16 5V5.5C16 5.77614 15.7761 6 15.5 6H15H14H13H12H11H10H9H8.5C8.22386 6 8 5.77614 8 5.5V5V4.5C8 4.22386 8.22386 4 8.5 4H9H10H11H12H13H14H15H15.5C15.7761 4 16 4.22386 16 4.5V5Z" fill="white"/>
</svg>
