<svg width="24" height="24" viewBox="0 0 24 24" fill="none" xmlns="http://www.w3.org/2000/svg">
<path fill-rule="evenodd" clip-rule="evenodd" d="M12 4H12.5C12.7761 4 13 4.22386 13 4.5V5V6V7V8V9V10V11V11.5C13 11.7761 13.2239 12 13.5 12C13.7761 12 14 11.7761 14 11.5C14 11.2239 14.2239 11 14.5 11C14.7761 11 15 10.7761 15 10.5C15 10.2239 15.2239 10 15.5 10H16H16.5C16.7761 10 17 10.2239 17 10.5V11V11.5C17 11.7761 16.7761 12 16.5 12C16.2239 12 16 12.2239 16 12.5C16 12.7761 15.7761 13 15.5 13C15.2239 13 15 13.2239 15 13.5C15 13.7761 14.7761 14 14.5 14C14.2239 14 14 14.2239 14 14.5C14 14.7761 13.7761 15 13.5 15C13.2239 15 13 15.2239 13 15.5C13 15.7761 12.7761 16 12.5 16H12H11.5C11.2239 16 11 15.7761 11 15.5C11 15.2239 10.7761 15 10.5 15C10.2239 15 10 14.7761 10 14.5C10 14.2239 9.77614 14 9.5 14C9.22386 14 9 13.7761 9 13.5C9 13.2239 8.77614 13 8.5 13C8.22386 13 8 12.7761 8 12.5C8 12.2239 7.77614 12 7.5 12C7.22386 12 7 11.7761 7 11.5V11V10.5C7 10.2239 7.22386 10 7.5 10H8H8.5C8.77614 10 9 10.2239 9 10.5C9 10.7761 9.22386 11 9.5 11C9.77614 11 10 11.2239 10 11.5C10 11.7761 10.2239 12 10.5 12C10.7761 12 11 11.7761 11 11.5V11V10V9V8V7V6V5V4.5C11 4.22386 11.2239 4 11.5 4H12ZM5 16.5C5 16.2239 4.77614 16 4.5 16H4H3.5C3.22386 16 3 16.2239 3 16.5V17V18V19V20V20.5C3 20.7761 3.22386 21 3.5 21H4H5H6H7H8H9H10H11H12H13H14H15H16H17H18H19H20H20.5C20.7761 21 21 20.7761 21 20.5V20V19V18V17V16.5C21 16.2239 20.7761 16 20.5 16H20H19.5C19.2239 16 19 16.2239 19 16.5V17V18V18.5C19 18.7761 18.7761 19 18.5 19H18H17H16H15H14H13H12H11H10H9H8H7H6H5.5C5.22386 19 5 18.7761 5 18.5V18V17V16.5Z" fill="white"/>
</svg>
