<svg width="24" height="24" viewBox="0 0 24 24" fill="none" xmlns="http://www.w3.org/2000/svg">
<path fill-rule="evenodd" clip-rule="evenodd" d="M8 4H7.5C7.22386 4 7 4.22386 7 4.5C7 4.77614 6.77614 5 6.5 5H6H5.5C5.22386 5 5 5.22386 5 5.5C5 5.77614 4.77614 6 4.5 6C4.22386 6 4 6.22386 4 6.5C4 6.77614 3.77614 7 3.5 7C3.22386 7 3 7.22386 3 7.5V8V8.5C3 8.77614 2.77614 9 2.5 9C2.22386 9 2 9.22386 2 9.5V10V11V12V13V14V14.5C2 14.7761 2.22386 15 2.5 15C2.77614 15 3 15.2239 3 15.5V16V16.5C3 16.7761 3.22386 17 3.5 17C3.77614 17 4 17.2239 4 17.5C4 17.7761 4.22386 18 4.5 18H5H5.5C5.77614 18 6 17.7761 6 17.5V17V16.5C6 16.2239 5.77614 16 5.5 16C5.22386 16 5 15.7761 5 15.5V15V14.5C5 14.2239 4.77614 14 4.5 14C4.22386 14 4 13.7761 4 13.5V13V12V11V10.5C4 10.2239 4.22386 10 4.5 10C4.77614 10 5 9.77614 5 9.5V9V8.5C5 8.22386 5.22386 8 5.5 8C5.77614 8 6 7.77614 6 7.5C6 7.22386 6.22386 7 6.5 7H7H7.5C7.77614 7 8 6.77614 8 6.5C8 6.22386 8.22386 6 8.5 6H9H10H10.5C10.7761 6 11 6.22386 11 6.5C11 6.77614 11.2239 7 11.5 7H12H12.5C12.7761 7 13 7.22386 13 7.5V8V8.5C13 8.77614 13.2239 9 13.5 9C13.7761 9 14 9.22386 14 9.5V10V10.5C14 10.7761 14.2239 11 14.5 11H15H16H17H17.5C17.7761 11 18 11.2239 18 11.5C18 11.7761 18.2239 12 18.5 12C18.7761 12 19 12.2239 19 12.5C19 12.7761 19.2239 13 19.5 13C19.7761 13 20 13.2239 20 13.5V14V15V15.5C20 15.7761 19.7761 16 19.5 16C19.2239 16 19 16.2239 19 16.5C19 16.7761 18.7761 17 18.5 17C18.2239 17 18 17.2239 18 17.5V18V18.5C18 18.7761 18.2239 19 18.5 19H19H19.5C19.7761 19 20 18.7761 20 18.5C20 18.2239 20.2239 18 20.5 18C20.7761 18 21 17.7761 21 17.5C21 17.2239 21.2239 17 21.5 17C21.7761 17 22 16.7761 22 16.5V16V15V14V13V12.5C22 12.2239 21.7761 12 21.5 12C21.2239 12 21 11.7761 21 11.5C21 11.2239 20.7761 11 20.5 11C20.2239 11 20 10.7761 20 10.5C20 10.2239 19.7761 10 19.5 10C19.2239 10 19 9.77614 19 9.5C19 9.22386 18.7761 9 18.5 9H18H17H16.5C16.2239 9 16 8.77614 16 8.5C16 8.22386 15.7761 8 15.5 8C15.2239 8 15 7.77614 15 7.5V7V6.5C15 6.22386 14.7761 6 14.5 6C14.2239 6 14 5.77614 14 5.5C14 5.22386 13.7761 5 13.5 5H13H12.5C12.2239 5 12 4.77614 12 4.5C12 4.22386 11.7761 4 11.5 4H11H10H9H8ZM10.5 16C10.7761 16 11 15.7761 11 15.5V15V14V13V12V11.5C11 11.2239 11.2239 11 11.5 11H12H12.5C12.7761 11 13 11.2239 13 11.5V12V13V14V15V15.5C13 15.7761 13.2239 16 13.5 16C13.7761 16 14 15.7761 14 15.5C14 15.2239 14.2239 15 14.5 15H15H15.5C15.7761 15 16 15.2239 16 15.5V16V16.5C16 16.7761 15.7761 17 15.5 17C15.2239 17 15 17.2239 15 17.5C15 17.7761 14.7761 18 14.5 18C14.2239 18 14 18.2239 14 18.5C14 18.7761 13.7761 19 13.5 19C13.2239 19 13 19.2239 13 19.5C13 19.7761 12.7761 20 12.5 20H12H11.5C11.2239 20 11 19.7761 11 19.5C11 19.2239 10.7761 19 10.5 19C10.2239 19 10 18.7761 10 18.5C10 18.2239 9.77614 18 9.5 18C9.22386 18 9 17.7761 9 17.5C9 17.2239 8.77614 17 8.5 17C8.22386 17 8 16.7761 8 16.5V16V15.5C8 15.2239 8.22386 15 8.5 15H9H9.5C9.77614 15 10 15.2239 10 15.5C10 15.7761 10.2239 16 10.5 16Z" fill="white"/>
</svg>
