<svg width="24" height="24" viewBox="0 0 24 24" fill="none" xmlns="http://www.w3.org/2000/svg">
<path fill-rule="evenodd" clip-rule="evenodd" d="M11 4.5C11 4.22386 11.2239 4 11.5 4H12H12.5C12.7761 4 13 4.22386 13 4.5C13 4.77614 13.2239 5 13.5 5C13.7761 5 14 5.22386 14 5.5C14 5.77614 14.2239 6 14.5 6C14.7761 6 15 6.22386 15 6.5C15 6.77614 15.2239 7 15.5 7C15.7761 7 16 7.22386 16 7.5C16 7.77614 16.2239 8 16.5 8C16.7761 8 17 8.22386 17 8.5C17 8.77614 17.2239 9 17.5 9C17.7761 9 18 9.22386 18 9.5V10V10.5C18 10.7761 18.2239 11 18.5 11C18.7761 11 19 11.2239 19 11.5V12V13V14V15V16V16.5C19 16.7761 18.7761 17 18.5 17C18.2239 17 18 17.2239 18 17.5C18 17.7761 17.7761 18 17.5 18C17.2239 18 17 18.2239 17 18.5C17 18.7761 16.7761 19 16.5 19C16.2239 19 16 19.2239 16 19.5C16 19.7761 15.7761 20 15.5 20H15H14.5C14.2239 20 14 20.2239 14 20.5C14 20.7761 13.7761 21 13.5 21H13H12H11H10.5C10.2239 21 10 20.7761 10 20.5C10 20.2239 9.77614 20 9.5 20H9H8.5C8.22386 20 8 19.7761 8 19.5C8 19.2239 7.77614 19 7.5 19C7.22386 19 7 18.7761 7 18.5C7 18.2239 6.77614 18 6.5 18C6.22386 18 6 17.7761 6 17.5C6 17.2239 5.77614 17 5.5 17C5.22386 17 5 16.7761 5 16.5V16V15V14V13V12V11.5C5 11.2239 5.22386 11 5.5 11C5.77614 11 6 10.7761 6 10.5V10V9.5C6 9.22386 6.22386 9 6.5 9C6.77614 9 7 8.77614 7 8.5C7 8.22386 7.22386 8 7.5 8C7.77614 8 8 7.77614 8 7.5C8 7.22386 8.22386 7 8.5 7C8.77614 7 9 6.77614 9 6.5C9 6.22386 9.22386 6 9.5 6C9.77614 6 10 5.77614 10 5.5C10 5.22386 10.2239 5 10.5 5C10.7761 5 11 4.77614 11 4.5ZM9.5 9C9.22386 9 9 9.22386 9 9.5C9 9.77614 8.77614 10 8.5 10C8.22386 10 8 10.2239 8 10.5V11V11.5C8 11.7761 7.77614 12 7.5 12C7.22386 12 7 12.2239 7 12.5V13V14V15V15.5C7 15.7761 7.22386 16 7.5 16C7.77614 16 8 16.2239 8 16.5C8 16.7761 8.22386 17 8.5 17C8.77614 17 9 17.2239 9 17.5C9 17.7761 9.22386 18 9.5 18H10H10.5C10.7761 18 11 18.2239 11 18.5C11 18.7761 11.2239 19 11.5 19H12H12.5C12.7761 19 13 18.7761 13 18.5C13 18.2239 13.2239 18 13.5 18H14H14.5C14.7761 18 15 17.7761 15 17.5C15 17.2239 15.2239 17 15.5 17C15.7761 17 16 16.7761 16 16.5C16 16.2239 16.2239 16 16.5 16C16.7761 16 17 15.7761 17 15.5V15V14V13V12.5C17 12.2239 16.7761 12 16.5 12C16.2239 12 16 11.7761 16 11.5V11V10.5C16 10.2239 15.7761 10 15.5 10C15.2239 10 15 9.77614 15 9.5C15 9.22386 14.7761 9 14.5 9C14.2239 9 14 8.77614 14 8.5C14 8.22386 13.7761 8 13.5 8C13.2239 8 13 7.77614 13 7.5C13 7.22386 12.7761 7 12.5 7H12H11.5C11.2239 7 11 7.22386 11 7.5C11 7.77614 10.7761 8 10.5 8C10.2239 8 10 8.22386 10 8.5C10 8.77614 9.77614 9 9.5 9Z" fill="white"/>
</svg>
