<svg width="24" height="24" viewBox="0 0 24 24" fill="none" xmlns="http://www.w3.org/2000/svg">
<path fill-rule="evenodd" clip-rule="evenodd" d="M4 3H5H6H7H8H9H10H10.5C10.7761 3 11 3.22386 11 3.5V4V4.5C11 4.77614 10.7761 5 10.5 5H10H9H8H7H6H5.5C5.22386 5 5 5.22386 5 5.5V6V7V8V9V10V11V12V13V14V15V16V17V18V18.5C5 18.7761 5.22386 19 5.5 19H6H7H8H9H10H11H12H13H14H15H16H17H18H18.5C18.7761 19 19 18.7761 19 18.5V18V17V16V15V14V13.5C19 13.2239 19.2239 13 19.5 13H20H20.5C20.7761 13 21 13.2239 21 13.5V14V15V16V17V18V19V20V20.5C21 20.7761 20.7761 21 20.5 21H20H19H18H17H16H15H14H13H12H11H10H9H8H7H6H5H4H3.5C3.22386 21 3 20.7761 3 20.5V20V19V18V17V16V15V14V13V12V11V10V9V8V7V6V5V4V3.5C3 3.22386 3.22386 3 3.5 3H4ZM8.5 16C8.22386 16 8 15.7761 8 15.5V15V14V13V12V11.5C8 11.2239 8.22386 11 8.5 11C8.77614 11 9 10.7761 9 10.5C9 10.2239 9.22386 10 9.5 10C9.77614 10 10 9.77614 10 9.5C10 9.22386 10.2239 9 10.5 9C10.7761 9 11 8.77614 11 8.5C11 8.22386 11.2239 8 11.5 8C11.7761 8 12 7.77614 12 7.5C12 7.22386 12.2239 7 12.5 7C12.7761 7 13 6.77614 13 6.5C13 6.22386 13.2239 6 13.5 6C13.7761 6 14 5.77614 14 5.5C14 5.22386 14.2239 5 14.5 5C14.7761 5 15 4.77614 15 4.5C15 4.22386 15.2239 4 15.5 4C15.7761 4 16 3.77614 16 3.5C16 3.22386 16.2239 3 16.5 3H17H17.5C17.7761 3 18 3.22386 18 3.5C18 3.77614 18.2239 4 18.5 4C18.7761 4 19 4.22386 19 4.5C19 4.77614 19.2239 5 19.5 5C19.7761 5 20 5.22386 20 5.5C20 5.77614 20.2239 6 20.5 6C20.7761 6 21 6.22386 21 6.5V7V7.5C21 7.77614 20.7761 8 20.5 8C20.2239 8 20 8.22386 20 8.5C20 8.77614 19.7761 9 19.5 9C19.2239 9 19 9.22386 19 9.5C19 9.77614 18.7761 10 18.5 10C18.2239 10 18 10.2239 18 10.5C18 10.7761 17.7761 11 17.5 11C17.2239 11 17 11.2239 17 11.5C17 11.7761 16.7761 12 16.5 12C16.2239 12 16 12.2239 16 12.5C16 12.7761 15.7761 13 15.5 13C15.2239 13 15 13.2239 15 13.5C15 13.7761 14.7761 14 14.5 14C14.2239 14 14 14.2239 14 14.5C14 14.7761 13.7761 15 13.5 15C13.2239 15 13 15.2239 13 15.5C13 15.7761 12.7761 16 12.5 16H12H11H10H9H8.5ZM10.5 14C10.2239 14 10 13.7761 10 13.5V13V12.5C10 12.2239 10.2239 12 10.5 12C10.7761 12 11 11.7761 11 11.5C11 11.2239 11.2239 11 11.5 11C11.7761 11 12 10.7761 12 10.5C12 10.2239 12.2239 10 12.5 10C12.7761 10 13 9.77614 13 9.5C13 9.22386 13.2239 9 13.5 9C13.7761 9 14 8.77614 14 8.5C14 8.22386 14.2239 8 14.5 8C14.7761 8 15 7.77614 15 7.5C15 7.22386 15.2239 7 15.5 7C15.7761 7 16 6.77614 16 6.5C16 6.22386 16.2239 6 16.5 6H17H17.5C17.7761 6 18 6.22386 18 6.5V7V7.5C18 7.77614 17.7761 8 17.5 8C17.2239 8 17 8.22386 17 8.5C17 8.77614 16.7761 9 16.5 9C16.2239 9 16 9.22386 16 9.5C16 9.77614 15.7761 10 15.5 10C15.2239 10 15 10.2239 15 10.5C15 10.7761 14.7761 11 14.5 11C14.2239 11 14 11.2239 14 11.5C14 11.7761 13.7761 12 13.5 12C13.2239 12 13 12.2239 13 12.5C13 12.7761 12.7761 13 12.5 13C12.2239 13 12 13.2239 12 13.5C12 13.7761 11.7761 14 11.5 14H11H10.5Z" fill="white"/>
</svg>
