<svg width="24" height="24" viewBox="0 0 24 24" fill="none" xmlns="http://www.w3.org/2000/svg">
<path fill-rule="evenodd" clip-rule="evenodd" d="M5.5 5C5.22386 5 5 5.22386 5 5.5V6V7V8V9V10V11V12V13V14V15V16V17V18V18.5C5 18.7761 5.22386 19 5.5 19H6H7H8H9H10H11H12H13H14H15H16H17H18H18.5C18.7761 19 19 18.7761 19 18.5V18V17V16V15V14.5C19 14.2239 19.2239 14 19.5 14H20H20.5C20.7761 14 21 14.2239 21 14.5V15V16V17V18V19V20V20.5C21 20.7761 20.7761 21 20.5 21H20H19H18H17H16H15H14H13H12H11H10H9H8H7H6H5H4H3.5C3.22386 21 3 20.7761 3 20.5V20V19V18V17V16V15V14V13V12V11V10V9V8V7V6V5V4V3.5C3 3.22386 3.22386 3 3.5 3H4H5H6H7H8H9H9.5C9.77614 3 10 3.22386 10 3.5V4V4.5C10 4.77614 9.77614 5 9.5 5H9H8H7H6H5.5ZM20 3H19H18H17H16H15H14.5C14.2239 3 14 3.22386 14 3.5V4V4.5C14 4.77614 14.2239 5 14.5 5H15H16H16.5C16.7761 5 17 5.22386 17 5.5C17 5.77614 16.7761 6 16.5 6C16.2239 6 16 6.22386 16 6.5C16 6.77614 15.7761 7 15.5 7C15.2239 7 15 7.22386 15 7.5C15 7.77614 14.7761 8 14.5 8C14.2239 8 14 8.22386 14 8.5C14 8.77614 13.7761 9 13.5 9C13.2239 9 13 9.22386 13 9.5C13 9.77614 12.7761 10 12.5 10C12.2239 10 12 10.2239 12 10.5C12 10.7761 11.7761 11 11.5 11C11.2239 11 11 11.2239 11 11.5C11 11.7761 10.7761 12 10.5 12C10.2239 12 10 12.2239 10 12.5V13V13.5C10 13.7761 10.2239 14 10.5 14H11H11.5C11.7761 14 12 13.7761 12 13.5C12 13.2239 12.2239 13 12.5 13C12.7761 13 13 12.7761 13 12.5C13 12.2239 13.2239 12 13.5 12C13.7761 12 14 11.7761 14 11.5C14 11.2239 14.2239 11 14.5 11C14.7761 11 15 10.7761 15 10.5C15 10.2239 15.2239 10 15.5 10C15.7761 10 16 9.77614 16 9.5C16 9.22386 16.2239 9 16.5 9C16.7761 9 17 8.77614 17 8.5C17 8.22386 17.2239 8 17.5 8C17.7761 8 18 7.77614 18 7.5C18 7.22386 18.2239 7 18.5 7C18.7761 7 19 7.22386 19 7.5V8V9V9.5C19 9.77614 19.2239 10 19.5 10H20H20.5C20.7761 10 21 9.77614 21 9.5V9V8V7V6V5V4V3.5C21 3.22386 20.7761 3 20.5 3H20Z" fill="white"/>
</svg>
