<svg width="24" height="24" viewBox="0 0 24 24" fill="none" xmlns="http://www.w3.org/2000/svg">
<path fill-rule="evenodd" clip-rule="evenodd" d="M4 5H3.5C3.22386 5 3 5.22386 3 5.5V6V7V8V9V10V11V12V13V14V15V16V17V18V18.5C3 18.7761 3.22386 19 3.5 19H4H4.5C4.77614 19 5 18.7761 5 18.5C5 18.2239 5.22386 18 5.5 18C5.77614 18 6 17.7761 6 17.5C6 17.2239 6.22386 17 6.5 17C6.77614 17 7 16.7761 7 16.5C7 16.2239 7.22386 16 7.5 16C7.77614 16 8 15.7761 8 15.5C8 15.2239 8.22386 15 8.5 15C8.77614 15 9 14.7761 9 14.5C9 14.2239 9.22386 14 9.5 14C9.77614 14 10 13.7761 10 13.5C10 13.2239 10.2239 13 10.5 13C10.7761 13 11 12.7761 11 12.5V12V11.5C11 11.2239 10.7761 11 10.5 11C10.2239 11 10 10.7761 10 10.5C10 10.2239 9.77614 10 9.5 10C9.22386 10 9 9.77614 9 9.5C9 9.22386 8.77614 9 8.5 9C8.22386 9 8 8.77614 8 8.5C8 8.22386 7.77614 8 7.5 8C7.22386 8 7 7.77614 7 7.5C7 7.22386 6.77614 7 6.5 7C6.22386 7 6 6.77614 6 6.5C6 6.22386 5.77614 6 5.5 6C5.22386 6 5 5.77614 5 5.5C5 5.22386 4.77614 5 4.5 5H4ZM7 13.5C7 13.7761 6.77614 14 6.5 14C6.22386 14 6 14.2239 6 14.5C6 14.7761 5.77614 15 5.5 15C5.22386 15 5 14.7761 5 14.5V14V13V12V11V10V9.5C5 9.22386 5.22386 9 5.5 9C5.77614 9 6 9.22386 6 9.5C6 9.77614 6.22386 10 6.5 10C6.77614 10 7 10.2239 7 10.5C7 10.7761 7.22386 11 7.5 11C7.77614 11 8 11.2239 8 11.5V12V12.5C8 12.7761 7.77614 13 7.5 13C7.22386 13 7 13.2239 7 13.5ZM18 9.5C18 9.22386 17.7761 9 17.5 9C17.2239 9 17 8.77614 17 8.5C17 8.22386 16.7761 8 16.5 8C16.2239 8 16 7.77614 16 7.5C16 7.22386 15.7761 7 15.5 7C15.2239 7 15 6.77614 15 6.5C15 6.22386 14.7761 6 14.5 6C14.2239 6 14 5.77614 14 5.5C14 5.22386 13.7761 5 13.5 5H13H12.5C12.2239 5 12 5.22386 12 5.5V6V7V8V9V10V11V12V13V14V15V16V17V18V18.5C12 18.7761 12.2239 19 12.5 19H13H13.5C13.7761 19 14 18.7761 14 18.5C14 18.2239 14.2239 18 14.5 18C14.7761 18 15 17.7761 15 17.5C15 17.2239 15.2239 17 15.5 17C15.7761 17 16 16.7761 16 16.5C16 16.2239 16.2239 16 16.5 16C16.7761 16 17 15.7761 17 15.5C17 15.2239 17.2239 15 17.5 15C17.7761 15 18 14.7761 18 14.5C18 14.2239 18.2239 14 18.5 14C18.7761 14 19 13.7761 19 13.5C19 13.2239 19.2239 13 19.5 13C19.7761 13 20 12.7761 20 12.5V12V11.5C20 11.2239 19.7761 11 19.5 11C19.2239 11 19 10.7761 19 10.5C19 10.2239 18.7761 10 18.5 10C18.2239 10 18 9.77614 18 9.5ZM16 13.5C16 13.7761 15.7761 14 15.5 14C15.2239 14 15 14.2239 15 14.5C15 14.7761 14.7761 15 14.5 15C14.2239 15 14 14.7761 14 14.5V14V13V12V11V10V9.5C14 9.22386 14.2239 9 14.5 9C14.7761 9 15 9.22386 15 9.5C15 9.77614 15.2239 10 15.5 10C15.7761 10 16 10.2239 16 10.5C16 10.7761 16.2239 11 16.5 11C16.7761 11 17 11.2239 17 11.5V12V12.5C17 12.7761 16.7761 13 16.5 13C16.2239 13 16 13.2239 16 13.5Z" fill="white"/>
</svg>
