<svg width="24" height="24" viewBox="0 0 24 24" fill="none" xmlns="http://www.w3.org/2000/svg">
<path fill-rule="evenodd" clip-rule="evenodd" d="M9 2H8H7.5C7.22386 2 7 2.22386 7 2.5C7 2.77614 6.77614 3 6.5 3C6.22386 3 6 3.22386 6 3.5C6 3.77614 5.77614 4 5.5 4C5.22386 4 5 4.22386 5 4.5V5V6V7V7.5C5 7.77614 5.22386 8 5.5 8C5.77614 8 6 8.22386 6 8.5V9V9.5C6 9.77614 5.77614 10 5.5 10C5.22386 10 5 10.2239 5 10.5V11V12V13V13.5C5 13.7761 5.22386 14 5.5 14C5.77614 14 6 14.2239 6 14.5V15V15.5C6 15.7761 5.77614 16 5.5 16C5.22386 16 5 16.2239 5 16.5V17V18V19V19.5C5 19.7761 5.22386 20 5.5 20C5.77614 20 6 20.2239 6 20.5C6 20.7761 6.22386 21 6.5 21C6.77614 21 7 21.2239 7 21.5C7 21.7761 7.22386 22 7.5 22H8H9H10H10.5C10.7761 22 11 21.7761 11 21.5C11 21.2239 11.2239 21 11.5 21C11.7761 21 12 20.7761 12 20.5C12 20.2239 12.2239 20 12.5 20C12.7761 20 13 19.7761 13 19.5V19V18V17V16V15.5C13 15.2239 13.2239 15 13.5 15C13.7761 15 14 15.2239 14 15.5C14 15.7761 14.2239 16 14.5 16H15H16H16.5C16.7761 16 17 15.7761 17 15.5C17 15.2239 17.2239 15 17.5 15C17.7761 15 18 14.7761 18 14.5C18 14.2239 18.2239 14 18.5 14C18.7761 14 19 13.7761 19 13.5V13V12V11V10.5C19 10.2239 18.7761 10 18.5 10C18.2239 10 18 9.77614 18 9.5V9V8.5C18 8.22386 18.2239 8 18.5 8C18.7761 8 19 7.77614 19 7.5V7V6V5V4.5C19 4.22386 18.7761 4 18.5 4C18.2239 4 18 3.77614 18 3.5C18 3.22386 17.7761 3 17.5 3C17.2239 3 17 2.77614 17 2.5C17 2.22386 16.7761 2 16.5 2H16H15H14H13H12H11H10H9ZM7.5 17C7.77614 17 8 16.7761 8 16.5C8 16.2239 8.22386 16 8.5 16H9H10H10.5C10.7761 16 11 16.2239 11 16.5V17V18V18.5C11 18.7761 10.7761 19 10.5 19C10.2239 19 10 19.2239 10 19.5C10 19.7761 9.77614 20 9.5 20H9H8.5C8.22386 20 8 19.7761 8 19.5C8 19.2239 7.77614 19 7.5 19C7.22386 19 7 18.7761 7 18.5V18V17.5C7 17.2239 7.22386 17 7.5 17ZM15 10H15.5C15.7761 10 16 10.2239 16 10.5C16 10.7761 16.2239 11 16.5 11C16.7761 11 17 11.2239 17 11.5V12V12.5C17 12.7761 16.7761 13 16.5 13C16.2239 13 16 13.2239 16 13.5C16 13.7761 15.7761 14 15.5 14H15H14.5C14.2239 14 14 13.7761 14 13.5C14 13.2239 13.7761 13 13.5 13C13.2239 13 13 12.7761 13 12.5V12V11V10.5C13 10.2239 13.2239 10 13.5 10H14H15ZM9 14H8.5C8.22386 14 8 13.7761 8 13.5C8 13.2239 7.77614 13 7.5 13C7.22386 13 7 12.7761 7 12.5V12V11.5C7 11.2239 7.22386 11 7.5 11C7.77614 11 8 10.7761 8 10.5C8 10.2239 8.22386 10 8.5 10H9H10H10.5C10.7761 10 11 10.2239 11 10.5V11V12V13V13.5C11 13.7761 10.7761 14 10.5 14H10H9ZM8.5 8C8.22386 8 8 7.77614 8 7.5C8 7.22386 7.77614 7 7.5 7C7.22386 7 7 6.77614 7 6.5V6V5.5C7 5.22386 7.22386 5 7.5 5C7.77614 5 8 4.77614 8 4.5C8 4.22386 8.22386 4 8.5 4H9H10H10.5C10.7761 4 11 4.22386 11 4.5V5V6V7V7.5C11 7.77614 10.7761 8 10.5 8H10H9H8.5ZM16 7.5C16 7.77614 15.7761 8 15.5 8H15H14H13.5C13.2239 8 13 7.77614 13 7.5V7V6V5V4.5C13 4.22386 13.2239 4 13.5 4H14H15H15.5C15.7761 4 16 4.22386 16 4.5C16 4.77614 16.2239 5 16.5 5C16.7761 5 17 5.22386 17 5.5V6V6.5C17 6.77614 16.7761 7 16.5 7C16.2239 7 16 7.22386 16 7.5Z" fill="white"/>
</svg>
