<svg width="24" height="24" viewBox="0 0 24 24" fill="none" xmlns="http://www.w3.org/2000/svg">
<path fill-rule="evenodd" clip-rule="evenodd" d="M4 2.5C4 2.22386 4.22386 2 4.5 2H5H6H7H8H9H10H11H12H12.5C12.7761 2 13 2.22386 13 2.5C13 2.77614 13.2239 3 13.5 3C13.7761 3 14 3.22386 14 3.5C14 3.77614 14.2239 4 14.5 4C14.7761 4 15 4.22386 15 4.5C15 4.77614 15.2239 5 15.5 5C15.7761 5 16 5.22386 16 5.5C16 5.77614 16.2239 6 16.5 6C16.7761 6 17 6.22386 17 6.5C17 6.77614 17.2239 7 17.5 7C17.7761 7 18 7.22386 18 7.5C18 7.77614 18.2239 8 18.5 8C18.7761 8 19 8.22386 19 8.5C19 8.77614 19.2239 9 19.5 9C19.7761 9 20 9.22386 20 9.5V10V11V12V13V14V15V16V17V18V19V20V21V21.5C20 21.7761 19.7761 22 19.5 22H19H18H17H16H15H14H13H12H11H10H9H8H7H6H5H4.5C4.22386 22 4 21.7761 4 21.5V21V20V19V18V17V16V15V14V13V12V11V10V9V8V7V6V5V4V3V2.5ZM15 11H16H17H17.5C17.7761 11 18 11.2239 18 11.5V12V13V14V15V16V17V18V19V19.5C18 19.7761 17.7761 20 17.5 20H17H16H15H14H13H12H11H10H9H8H7H6.5C6.22386 20 6 19.7761 6 19.5V19V18V17V16V15V14V13V12V11V10V9V8V7V6V5V4.5C6 4.22386 6.22386 4 6.5 4H7H8H9H10H10.5C10.7761 4 11 4.22386 11 4.5V5V6V7V8V9V10V10.5C11 10.7761 11.2239 11 11.5 11H12H13H14H15ZM13.5 9C13.2239 9 13 8.77614 13 8.5V8V7V6.5C13 6.22386 13.2239 6 13.5 6C13.7761 6 14 6.22386 14 6.5C14 6.77614 14.2239 7 14.5 7C14.7761 7 15 7.22386 15 7.5C15 7.77614 15.2239 8 15.5 8C15.7761 8 16 8.22386 16 8.5C16 8.77614 15.7761 9 15.5 9H15H14H13.5ZM7 8.5C7 8.22386 7.22386 8 7.5 8H8H9H9.5C9.77614 8 10 8.22386 10 8.5V9V9.5C10 9.77614 9.77614 10 9.5 10H9H8H7.5C7.22386 10 7 9.77614 7 9.5V9V8.5ZM7 12.5C7 12.2239 7.22386 12 7.5 12H8H9H10H11H12H13H14H15H16H16.5C16.7761 12 17 12.2239 17 12.5V13V13.5C17 13.7761 16.7761 14 16.5 14H16H15H14H13H12H11H10H9H8H7.5C7.22386 14 7 13.7761 7 13.5V13V12.5ZM7 16.5C7 16.2239 7.22386 16 7.5 16H8H9H10H11H12H13H14H15H16H16.5C16.7761 16 17 16.2239 17 16.5V17V17.5C17 17.7761 16.7761 18 16.5 18H16H15H14H13H12H11H10H9H8H7.5C7.22386 18 7 17.7761 7 17.5V17V16.5Z" fill="white"/>
</svg>
