<svg width="24" height="24" viewBox="0 0 24 24" fill="none" xmlns="http://www.w3.org/2000/svg">
<path fill-rule="evenodd" clip-rule="evenodd" d="M10 2H10.5C10.7761 2 11 2.22386 11 2.5C11 2.77614 11.2239 3 11.5 3H12H12.5C12.7761 3 13 3.22386 13 3.5C13 3.77614 13.2239 4 13.5 4H14H14.5C14.7761 4 15 3.77614 15 3.5C15 3.22386 15.2239 3 15.5 3H16H16.5C16.7761 3 17 2.77614 17 2.5C17 2.22386 17.2239 2 17.5 2H18H19H19.5C19.7761 2 20 2.22386 20 2.5V3V4V5V6V7V8V9V10V11V12V13V13.5C20 13.7761 19.7761 14 19.5 14H19H18.5C18.2239 14 18 14.2239 18 14.5C18 14.7761 17.7761 15 17.5 15H17H16.5C16.2239 15 16 15.2239 16 15.5C16 15.7761 15.7761 16 15.5 16H15H14H13H12.5C12.2239 16 12 15.7761 12 15.5C12 15.2239 11.7761 15 11.5 15H11H10.5C10.2239 15 10 14.7761 10 14.5C10 14.2239 9.77614 14 9.5 14H9H8.5C8.22386 14 8 14.2239 8 14.5C8 14.7761 7.77614 15 7.5 15C7.22386 15 7 15.2239 7 15.5C7 15.7761 6.77614 16 6.5 16C6.22386 16 6 16.2239 6 16.5V17V18V19V20V20.5C6 20.7761 5.77614 21 5.5 21H5H4.5C4.22386 21 4 20.7761 4 20.5V20V19V18V17V16V15V14V13V12V11V10V9V8V7V6V5V4.5C4 4.22386 4.22386 4 4.5 4H5H5.5C5.77614 4 6 3.77614 6 3.5C6 3.22386 6.22386 3 6.5 3C6.77614 3 7 2.77614 7 2.5C7 2.22386 7.22386 2 7.5 2H8H9H10ZM9 4H8.5C8.22386 4 8 4.22386 8 4.5C8 4.77614 7.77614 5 7.5 5C7.22386 5 7 5.22386 7 5.5C7 5.77614 6.77614 6 6.5 6C6.22386 6 6 6.22386 6 6.5V7V8V9V10V11V12V12.5C6 12.7761 6.22386 13 6.5 13C6.77614 13 7 12.7761 7 12.5C7 12.2239 7.22386 12 7.5 12H8H9H10H10.5C10.7761 12 11 12.2239 11 12.5C11 12.7761 11.2239 13 11.5 13H12H12.5C12.7761 13 13 13.2239 13 13.5C13 13.7761 13.2239 14 13.5 14H14H14.5C14.7761 14 15 13.7761 15 13.5C15 13.2239 15.2239 13 15.5 13H16H16.5C16.7761 13 17 12.7761 17 12.5C17 12.2239 17.2239 12 17.5 12C17.7761 12 18 11.7761 18 11.5V11V10V9V8V7V6V5.5C18 5.22386 17.7761 5 17.5 5H17H16.5C16.2239 5 16 5.22386 16 5.5C16 5.77614 15.7761 6 15.5 6H15H14H13H12.5C12.2239 6 12 5.77614 12 5.5C12 5.22386 11.7761 5 11.5 5H11H10.5C10.2239 5 10 4.77614 10 4.5C10 4.22386 9.77614 4 9.5 4H9Z" fill="white"/>
</svg>
