<svg width="24" height="24" viewBox="0 0 24 24" fill="none" xmlns="http://www.w3.org/2000/svg">
<path fill-rule="evenodd" clip-rule="evenodd" d="M2 4.5C2 4.22386 2.22386 4 2.5 4H3H4H5H6H7H8H9H9.5C9.77614 4 10 4.22386 10 4.5C10 4.77614 10.2239 5 10.5 5C10.7761 5 11 5.22386 11 5.5C11 5.77614 11.2239 6 11.5 6C11.7761 6 12 6.22386 12 6.5C12 6.77614 12.2239 7 12.5 7H13H14H15H16H17H18H19H20H21H21.5C21.7761 7 22 7.22386 22 7.5V8V9V10V11V12V13V14V15V16V17V18V19V19.5C22 19.7761 21.7761 20 21.5 20H21H20H19H18H17H16H15H14H13H12H11H10H9H8H7H6H5H4H3H2.5C2.22386 20 2 19.7761 2 19.5V19V18V17V16V15V14V13V12V11V10V9V8V7V6V5V4.5ZM10 7.5C10 7.77614 10.2239 8 10.5 8C10.7761 8 11 8.22386 11 8.5C11 8.77614 11.2239 9 11.5 9H12H13H14H15H16H17H18H19H19.5C19.7761 9 20 9.22386 20 9.5V10V11V12V13V14V15V16V17V17.5C20 17.7761 19.7761 18 19.5 18H19H18H17H16H15H14H13H12H11H10H9H8H7H6H5H4.5C4.22386 18 4 17.7761 4 17.5V17V16V15V14V13V12V11V10V9V8V7V6.5C4 6.22386 4.22386 6 4.5 6H5H6H7H8H8.5C8.77614 6 9 6.22386 9 6.5C9 6.77614 9.22386 7 9.5 7C9.77614 7 10 7.22386 10 7.5Z" fill="white"/>
</svg>
