<svg width="24" height="24" viewBox="0 0 24 24" fill="none" xmlns="http://www.w3.org/2000/svg">
<path fill-rule="evenodd" clip-rule="evenodd" d="M15 3H14.5C14.2239 3 14 3.22386 14 3.5C14 3.77614 13.7761 4 13.5 4H13H12H11H10.5C10.2239 4 10 3.77614 10 3.5C10 3.22386 9.77614 3 9.5 3H9H8H7.5C7.22386 3 7 3.22386 7 3.5C7 3.77614 6.77614 4 6.5 4C6.22386 4 6 4.22386 6 4.5C6 4.77614 5.77614 5 5.5 5C5.22386 5 5 5.22386 5 5.5V6V7V7.5C5 7.77614 4.77614 8 4.5 8H4H3.5C3.22386 8 3 8.22386 3 8.5V9V10V11V12V13V13.5C3 13.7761 3.22386 14 3.5 14H4H4.5C4.77614 14 5 14.2239 5 14.5V15V16V17V18V19V20V20.5C5 20.7761 5.22386 21 5.5 21H6H7H8H9H10H11H12H13H14H15H16H17H18H18.5C18.7761 21 19 20.7761 19 20.5V20V19V18V17V16V15V14.5C19 14.2239 19.2239 14 19.5 14H20H20.5C20.7761 14 21 13.7761 21 13.5V13V12V11V10V9V8.5C21 8.22386 20.7761 8 20.5 8H20H19.5C19.2239 8 19 7.77614 19 7.5V7V6V5.5C19 5.22386 18.7761 5 18.5 5C18.2239 5 18 4.77614 18 4.5C18 4.22386 17.7761 4 17.5 4C17.2239 4 17 3.77614 17 3.5C17 3.22386 16.7761 3 16.5 3H16H15ZM7 7V6.5C7 6.22386 7.22386 6 7.5 6C7.77614 6 8 5.77614 8 5.5C8 5.22386 8.22386 5 8.5 5H9H9.5C9.77614 5 10 5.22386 10 5.5C10 5.77614 10.2239 6 10.5 6C10.7761 6 11 6.22386 11 6.5V7V7.5C11 7.77614 10.7761 8 10.5 8H10H9H8H7.5C7.22386 8 7 7.77614 7 7.5V7ZM16 8H16.5C16.7761 8 17 7.77614 17 7.5V7V6.5C17 6.22386 16.7761 6 16.5 6C16.2239 6 16 5.77614 16 5.5C16 5.22386 15.7761 5 15.5 5H15H14.5C14.2239 5 14 5.22386 14 5.5C14 5.77614 13.7761 6 13.5 6C13.2239 6 13 6.22386 13 6.5V7V7.5C13 7.77614 13.2239 8 13.5 8H14H15H16ZM7 17V18V18.5C7 18.7761 7.22386 19 7.5 19H8H9H10H10.5C10.7761 19 11 18.7761 11 18.5V18V17V16V15V14.5C11 14.2239 10.7761 14 10.5 14H10H9H8H7.5C7.22386 14 7 14.2239 7 14.5V15V16V17ZM5 11.5C5 11.7761 5.22386 12 5.5 12H6H7H8H9H10H10.5C10.7761 12 11 11.7761 11 11.5V11V10.5C11 10.2239 10.7761 10 10.5 10H10H9H8H7H6H5.5C5.22386 10 5 10.2239 5 10.5V11V11.5ZM13 16V15V14.5C13 14.2239 13.2239 14 13.5 14H14H15H16H16.5C16.7761 14 17 14.2239 17 14.5V15V16V17V18V18.5C17 18.7761 16.7761 19 16.5 19H16H15H14H13.5C13.2239 19 13 18.7761 13 18.5V18V17V16ZM14 12H13.5C13.2239 12 13 11.7761 13 11.5V11V10.5C13 10.2239 13.2239 10 13.5 10H14H15H16H17H18H18.5C18.7761 10 19 10.2239 19 10.5V11V11.5C19 11.7761 18.7761 12 18.5 12H18H17H16H15H14Z" fill="white"/>
</svg>
