<svg width="24" height="24" viewBox="0 0 24 24" fill="none" xmlns="http://www.w3.org/2000/svg">
<path fill-rule="evenodd" clip-rule="evenodd" d="M6 4H7H8H9H9.5C9.77614 4 10 4.22386 10 4.5C10 4.77614 10.2239 5 10.5 5C10.7761 5 11 5.22386 11 5.5C11 5.77614 11.2239 6 11.5 6H12H12.5C12.7761 6 13 5.77614 13 5.5C13 5.22386 13.2239 5 13.5 5C13.7761 5 14 4.77614 14 4.5C14 4.22386 14.2239 4 14.5 4H15H16H17H18H18.5C18.7761 4 19 4.22386 19 4.5C19 4.77614 19.2239 5 19.5 5C19.7761 5 20 5.22386 20 5.5C20 5.77614 20.2239 6 20.5 6C20.7761 6 21 6.22386 21 6.5V7V8V9V10V11V11.5C21 11.7761 20.7761 12 20.5 12C20.2239 12 20 12.2239 20 12.5C20 12.7761 19.7761 13 19.5 13C19.2239 13 19 13.2239 19 13.5C19 13.7761 18.7761 14 18.5 14C18.2239 14 18 14.2239 18 14.5C18 14.7761 17.7761 15 17.5 15C17.2239 15 17 15.2239 17 15.5C17 15.7761 16.7761 16 16.5 16C16.2239 16 16 16.2239 16 16.5C16 16.7761 15.7761 17 15.5 17C15.2239 17 15 17.2239 15 17.5C15 17.7761 14.7761 18 14.5 18C14.2239 18 14 18.2239 14 18.5C14 18.7761 13.7761 19 13.5 19C13.2239 19 13 19.2239 13 19.5C13 19.7761 12.7761 20 12.5 20H12H11.5C11.2239 20 11 19.7761 11 19.5C11 19.2239 10.7761 19 10.5 19C10.2239 19 10 18.7761 10 18.5C10 18.2239 9.77614 18 9.5 18C9.22386 18 9 17.7761 9 17.5C9 17.2239 8.77614 17 8.5 17C8.22386 17 8 16.7761 8 16.5C8 16.2239 7.77614 16 7.5 16C7.22386 16 7 15.7761 7 15.5C7 15.2239 6.77614 15 6.5 15C6.22386 15 6 14.7761 6 14.5C6 14.2239 5.77614 14 5.5 14C5.22386 14 5 13.7761 5 13.5C5 13.2239 4.77614 13 4.5 13C4.22386 13 4 12.7761 4 12.5C4 12.2239 3.77614 12 3.5 12C3.22386 12 3 11.7761 3 11.5V11V10V9V8V7V6.5C3 6.22386 3.22386 6 3.5 6C3.77614 6 4 5.77614 4 5.5C4 5.22386 4.22386 5 4.5 5C4.77614 5 5 4.77614 5 4.5C5 4.22386 5.22386 4 5.5 4H6ZM13.5 16C13.2239 16 13 16.2239 13 16.5C13 16.7761 12.7761 17 12.5 17H12H11.5C11.2239 17 11 16.7761 11 16.5C11 16.2239 10.7761 16 10.5 16C10.2239 16 10 15.7761 10 15.5C10 15.2239 9.77614 15 9.5 15C9.22386 15 9 14.7761 9 14.5C9 14.2239 8.77614 14 8.5 14C8.22386 14 8 13.7761 8 13.5C8 13.2239 7.77614 13 7.5 13C7.22386 13 7 12.7761 7 12.5C7 12.2239 6.77614 12 6.5 12C6.22386 12 6 11.7761 6 11.5C6 11.2239 5.77614 11 5.5 11C5.22386 11 5 10.7761 5 10.5V10V9V8V7.5C5 7.22386 5.22386 7 5.5 7C5.77614 7 6 6.77614 6 6.5C6 6.22386 6.22386 6 6.5 6H7H8H8.5C8.77614 6 9 6.22386 9 6.5C9 6.77614 9.22386 7 9.5 7C9.77614 7 10 7.22386 10 7.5C10 7.77614 10.2239 8 10.5 8C10.7761 8 11 8.22386 11 8.5C11 8.77614 11.2239 9 11.5 9H12H12.5C12.7761 9 13 8.77614 13 8.5C13 8.22386 13.2239 8 13.5 8C13.7761 8 14 7.77614 14 7.5C14 7.22386 14.2239 7 14.5 7C14.7761 7 15 6.77614 15 6.5C15 6.22386 15.2239 6 15.5 6H16H17H17.5C17.7761 6 18 6.22386 18 6.5C18 6.77614 18.2239 7 18.5 7C18.7761 7 19 7.22386 19 7.5V8V9V10V10.5C19 10.7761 18.7761 11 18.5 11C18.2239 11 18 11.2239 18 11.5C18 11.7761 17.7761 12 17.5 12C17.2239 12 17 12.2239 17 12.5C17 12.7761 16.7761 13 16.5 13C16.2239 13 16 13.2239 16 13.5C16 13.7761 15.7761 14 15.5 14C15.2239 14 15 14.2239 15 14.5C15 14.7761 14.7761 15 14.5 15C14.2239 15 14 15.2239 14 15.5C14 15.7761 13.7761 16 13.5 16Z" fill="white"/>
</svg>
