<svg width="24" height="24" viewBox="0 0 24 24" fill="none" xmlns="http://www.w3.org/2000/svg">
<path fill-rule="evenodd" clip-rule="evenodd" d="M4 3H3.5C3.22386 3 3 3.22386 3 3.5V4V5V6V7V8V9V10V11V12V13V14V15V16V17V18V19V20V20.5C3 20.7761 3.22386 21 3.5 21H4H5H6H7H8H9H10H11H12H13H14H15H16H17H18H19H20H20.5C20.7761 21 21 20.7761 21 20.5V20V19V18V17V16V15V14V13V12V11V10V9V8V7V6V5V4V3.5C21 3.22386 20.7761 3 20.5 3H20H19H18H17H16H15H14H13H12H11H10H9H8H7H6H5H4ZM18.5 5C18.7761 5 19 5.22386 19 5.5V6V7V8V9V10V11V12V12.5C19 12.7761 18.7761 13 18.5 13C18.2239 13 18 12.7761 18 12.5C18 12.2239 17.7761 12 17.5 12C17.2239 12 17 11.7761 17 11.5C17 11.2239 16.7761 11 16.5 11H16H15.5C15.2239 11 15 11.2239 15 11.5C15 11.7761 14.7761 12 14.5 12C14.2239 12 14 12.2239 14 12.5C14 12.7761 13.7761 13 13.5 13C13.2239 13 13 13.2239 13 13.5C13 13.7761 12.7761 14 12.5 14C12.2239 14 12 14.2239 12 14.5C12 14.7761 11.7761 15 11.5 15C11.2239 15 11 15.2239 11 15.5C11 15.7761 10.7761 16 10.5 16C10.2239 16 10 16.2239 10 16.5C10 16.7761 9.77614 17 9.5 17C9.22386 17 9 17.2239 9 17.5C9 17.7761 8.77614 18 8.5 18C8.22386 18 8 18.2239 8 18.5C8 18.7761 7.77614 19 7.5 19H7H6H5.5C5.22386 19 5 18.7761 5 18.5V18V17V16V15V14V13V12V11V10V9V8V7V6V5.5C5 5.22386 5.22386 5 5.5 5H6H7H8H9H10H11H12H13H14H15H16H17H18H18.5ZM17 14.5C17 14.2239 16.7761 14 16.5 14H16H15.5C15.2239 14 15 14.2239 15 14.5C15 14.7761 14.7761 15 14.5 15C14.2239 15 14 15.2239 14 15.5C14 15.7761 13.7761 16 13.5 16C13.2239 16 13 16.2239 13 16.5C13 16.7761 12.7761 17 12.5 17C12.2239 17 12 17.2239 12 17.5C12 17.7761 11.7761 18 11.5 18C11.2239 18 11 18.2239 11 18.5C11 18.7761 11.2239 19 11.5 19H12H13H14H15H16H17H18H18.5C18.7761 19 19 18.7761 19 18.5V18V17V16.5C19 16.2239 18.7761 16 18.5 16C18.2239 16 18 15.7761 18 15.5C18 15.2239 17.7761 15 17.5 15C17.2239 15 17 14.7761 17 14.5ZM9.5 10C9.77614 10 10 9.77614 10 9.5V9V8.5C10 8.22386 9.77614 8 9.5 8H9H8.5C8.22386 8 8 8.22386 8 8.5V9V9.5C8 9.77614 8.22386 10 8.5 10H9H9.5ZM12 10.5C12 10.7761 11.7761 11 11.5 11C11.2239 11 11 11.2239 11 11.5C11 11.7761 10.7761 12 10.5 12H10H9H8H7.5C7.22386 12 7 11.7761 7 11.5C7 11.2239 6.77614 11 6.5 11C6.22386 11 6 10.7761 6 10.5V10V9V8V7.5C6 7.22386 6.22386 7 6.5 7C6.77614 7 7 6.77614 7 6.5C7 6.22386 7.22386 6 7.5 6H8H9H10H10.5C10.7761 6 11 6.22386 11 6.5C11 6.77614 11.2239 7 11.5 7C11.7761 7 12 7.22386 12 7.5V8V9V10V10.5Z" fill="white"/>
</svg>
