<svg width="24" height="24" viewBox="0 0 24 24" fill="none" xmlns="http://www.w3.org/2000/svg">
<path fill-rule="evenodd" clip-rule="evenodd" d="M12 4H11H10H9H8H7H6H5.5C5.22386 4 5 4.22386 5 4.5V5V5.5C5 5.77614 4.77614 6 4.5 6C4.22386 6 4 6.22386 4 6.5V7V7.5C4 7.77614 3.77614 8 3.5 8C3.22386 8 3 8.22386 3 8.5V9V9.5C3 9.77614 2.77614 10 2.5 10C2.22386 10 2 10.2239 2 10.5V11V12V13V14V15V16V17V18V19V19.5C2 19.7761 2.22386 20 2.5 20H3H4H5H6H7H8H9H10H11H12H13H14H15H16H17H18H19H20H21H21.5C21.7761 20 22 19.7761 22 19.5V19V18V17V16V15V14V13V12V11V10.5C22 10.2239 21.7761 10 21.5 10C21.2239 10 21 9.77614 21 9.5V9V8.5C21 8.22386 20.7761 8 20.5 8C20.2239 8 20 7.77614 20 7.5V7V6.5C20 6.22386 19.7761 6 19.5 6C19.2239 6 19 5.77614 19 5.5V5V4.5C19 4.22386 18.7761 4 18.5 4H18H17H16H15H14H13H12ZM5.5 9C5.77614 9 6 8.77614 6 8.5V8V7.5C6 7.22386 6.22386 7 6.5 7C6.77614 7 7 6.77614 7 6.5C7 6.22386 7.22386 6 7.5 6H8H9H10H11H12H13H14H15H16H16.5C16.7761 6 17 6.22386 17 6.5C17 6.77614 17.2239 7 17.5 7C17.7761 7 18 7.22386 18 7.5V8V8.5C18 8.77614 18.2239 9 18.5 9C18.7761 9 19 9.22386 19 9.5V10V10.5C19 10.7761 18.7761 11 18.5 11H18H17H16.5C16.2239 11 16 11.2239 16 11.5C16 11.7761 15.7761 12 15.5 12C15.2239 12 15 12.2239 15 12.5C15 12.7761 14.7761 13 14.5 13C14.2239 13 14 13.2239 14 13.5C14 13.7761 13.7761 14 13.5 14H13H12H11H10.5C10.2239 14 10 13.7761 10 13.5C10 13.2239 9.77614 13 9.5 13C9.22386 13 9 12.7761 9 12.5C9 12.2239 8.77614 12 8.5 12C8.22386 12 8 11.7761 8 11.5C8 11.2239 7.77614 11 7.5 11H7H6H5.5C5.22386 11 5 10.7761 5 10.5V10V9.5C5 9.22386 5.22386 9 5.5 9ZM16.5 14C16.2239 14 16 14.2239 16 14.5C16 14.7761 15.7761 15 15.5 15C15.2239 15 15 15.2239 15 15.5C15 15.7761 14.7761 16 14.5 16H14H13H12H11H10H9.5C9.22386 16 9 15.7761 9 15.5C9 15.2239 8.77614 15 8.5 15C8.22386 15 8 14.7761 8 14.5C8 14.2239 7.77614 14 7.5 14C7.22386 14 7 13.7761 7 13.5C7 13.2239 6.77614 13 6.5 13H6H5H4.5C4.22386 13 4 13.2239 4 13.5V14V15V16V17V17.5C4 17.7761 4.22386 18 4.5 18H5H6H7H8H9H10H11H12H13H14H15H16H17H18H19H19.5C19.7761 18 20 17.7761 20 17.5V17V16V15V14V13.5C20 13.2239 19.7761 13 19.5 13H19H18H17.5C17.2239 13 17 13.2239 17 13.5C17 13.7761 16.7761 14 16.5 14Z" fill="white"/>
</svg>
