<svg width="24" height="24" viewBox="0 0 24 24" fill="none" xmlns="http://www.w3.org/2000/svg">
<path fill-rule="evenodd" clip-rule="evenodd" d="M11 2H12H13H13.5C13.7761 2 14 2.22386 14 2.5C14 2.77614 14.2239 3 14.5 3C14.7761 3 15 3.22386 15 3.5C15 3.77614 15.2239 4 15.5 4C15.7761 4 16 4.22386 16 4.5C16 4.77614 16.2239 5 16.5 5C16.7761 5 17 5.22386 17 5.5V6V7V8V9V9.5C17 9.77614 17.2239 10 17.5 10H18H19H19.5C19.7761 10 20 10.2239 20 10.5V11V12V13V14V15V16V17V18V19V20V21V21.5C20 21.7761 19.7761 22 19.5 22H19H18H17H16H15H14H13H12H11H10H9H8H7H6H5H4.5C4.22386 22 4 21.7761 4 21.5V21V20V19V18V17V16V15V14V13V12V11V10.5C4 10.2239 4.22386 10 4.5 10H5H6H6.5C6.77614 10 7 9.77614 7 9.5V9V8V7V6V5.5C7 5.22386 7.22386 5 7.5 5C7.77614 5 8 4.77614 8 4.5C8 4.22386 8.22386 4 8.5 4C8.77614 4 9 3.77614 9 3.5C9 3.22386 9.22386 3 9.5 3C9.77614 3 10 2.77614 10 2.5C10 2.22386 10.2239 2 10.5 2H11ZM9 7V6.5C9 6.22386 9.22386 6 9.5 6C9.77614 6 10 5.77614 10 5.5C10 5.22386 10.2239 5 10.5 5C10.7761 5 11 4.77614 11 4.5C11 4.22386 11.2239 4 11.5 4H12H12.5C12.7761 4 13 4.22386 13 4.5C13 4.77614 13.2239 5 13.5 5C13.7761 5 14 5.22386 14 5.5C14 5.77614 14.2239 6 14.5 6C14.7761 6 15 6.22386 15 6.5V7V8V9V9.5C15 9.77614 14.7761 10 14.5 10H14H13H12H11H10H9.5C9.22386 10 9 9.77614 9 9.5V9V8V7ZM18 14V13V12.5C18 12.2239 17.7761 12 17.5 12H17H16H15H14H13H12H11H10H9H8H7H6.5C6.22386 12 6 12.2239 6 12.5V13V14V15V16V17V18V19V19.5C6 19.7761 6.22386 20 6.5 20H7H8H9H10H11H12H13H14H15H16H17H17.5C17.7761 20 18 19.7761 18 19.5V19V18V17V16V15V14Z" fill="white"/>
</svg>
