<svg width="24" height="24" viewBox="0 0 24 24" fill="none" xmlns="http://www.w3.org/2000/svg">
<path fill-rule="evenodd" clip-rule="evenodd" d="M12 3.5C12 3.22386 12.2239 3 12.5 3H13H14H15H16H17H18H19H20H20.5C20.7761 3 21 3.22386 21 3.5V4V5V6V7V8V9V10V11V12V13V14V15V16V17V18V19V20V20.5C21 20.7761 20.7761 21 20.5 21H20H19H18H17H16H15H14H13H12.5C12.2239 21 12 20.7761 12 20.5V20V19.5C12 19.2239 12.2239 19 12.5 19H13H14H15H16H17H18H18.5C18.7761 19 19 18.7761 19 18.5V18V17V16V15V14V13V12V11V10V9V8V7V6V5.5C19 5.22386 18.7761 5 18.5 5H18H17H16H15H14H13H12.5C12.2239 5 12 4.77614 12 4.5V4V3.5ZM7 11H6.5C6.22386 11 6 11.2239 6 11.5V12V12.5C6 12.7761 6.22386 13 6.5 13H7H8H9H10H11H12H12.5C12.7761 13 13 13.2239 13 13.5C13 13.7761 12.7761 14 12.5 14C12.2239 14 12 14.2239 12 14.5C12 14.7761 11.7761 15 11.5 15C11.2239 15 11 15.2239 11 15.5V16V16.5C11 16.7761 11.2239 17 11.5 17H12H12.5C12.7761 17 13 16.7761 13 16.5C13 16.2239 13.2239 16 13.5 16C13.7761 16 14 15.7761 14 15.5C14 15.2239 14.2239 15 14.5 15C14.7761 15 15 14.7761 15 14.5C15 14.2239 15.2239 14 15.5 14C15.7761 14 16 13.7761 16 13.5C16 13.2239 16.2239 13 16.5 13C16.7761 13 17 12.7761 17 12.5V12V11.5C17 11.2239 16.7761 11 16.5 11C16.2239 11 16 10.7761 16 10.5C16 10.2239 15.7761 10 15.5 10C15.2239 10 15 9.77614 15 9.5C15 9.22386 14.7761 9 14.5 9C14.2239 9 14 8.77614 14 8.5C14 8.22386 13.7761 8 13.5 8C13.2239 8 13 7.77614 13 7.5C13 7.22386 12.7761 7 12.5 7H12H11.5C11.2239 7 11 7.22386 11 7.5V8V8.5C11 8.77614 11.2239 9 11.5 9C11.7761 9 12 9.22386 12 9.5C12 9.77614 12.2239 10 12.5 10C12.7761 10 13 10.2239 13 10.5C13 10.7761 12.7761 11 12.5 11H12H11H10H9H8H7Z" fill="white"/>
</svg>
