<svg width="24" height="24" viewBox="0 0 24 24" fill="none" xmlns="http://www.w3.org/2000/svg">
<path fill-rule="evenodd" clip-rule="evenodd" d="M3 3.5C3 3.22386 3.22386 3 3.5 3H4H5H6H7H8H9H10H11H11.5C11.7761 3 12 3.22386 12 3.5V4V4.5C12 4.77614 11.7761 5 11.5 5H11H10H9H8H7H6H5.5C5.22386 5 5 5.22386 5 5.5V6V7V8V9V10V11V12V13V14V15V16V17V18V18.5C5 18.7761 5.22386 19 5.5 19H6H7H8H9H10H11H11.5C11.7761 19 12 19.2239 12 19.5V20V20.5C12 20.7761 11.7761 21 11.5 21H11H10H9H8H7H6H5H4H3.5C3.22386 21 3 20.7761 3 20.5V20V19V18V17V16V15V14V13V12V11V10V9V8V7V6V5V4V3.5ZM9 11H8.5C8.22386 11 8 11.2239 8 11.5V12V12.5C8 12.7761 8.22386 13 8.5 13H9H10H11H12H13H14H14.5C14.7761 13 15 13.2239 15 13.5C15 13.7761 14.7761 14 14.5 14C14.2239 14 14 14.2239 14 14.5C14 14.7761 13.7761 15 13.5 15C13.2239 15 13 15.2239 13 15.5V16V16.5C13 16.7761 13.2239 17 13.5 17H14H14.5C14.7761 17 15 16.7761 15 16.5C15 16.2239 15.2239 16 15.5 16C15.7761 16 16 15.7761 16 15.5C16 15.2239 16.2239 15 16.5 15C16.7761 15 17 14.7761 17 14.5C17 14.2239 17.2239 14 17.5 14C17.7761 14 18 13.7761 18 13.5C18 13.2239 18.2239 13 18.5 13C18.7761 13 19 12.7761 19 12.5V12V11.5C19 11.2239 18.7761 11 18.5 11C18.2239 11 18 10.7761 18 10.5C18 10.2239 17.7761 10 17.5 10C17.2239 10 17 9.77614 17 9.5C17 9.22386 16.7761 9 16.5 9C16.2239 9 16 8.77614 16 8.5C16 8.22386 15.7761 8 15.5 8C15.2239 8 15 7.77614 15 7.5C15 7.22386 14.7761 7 14.5 7H14H13.5C13.2239 7 13 7.22386 13 7.5V8V8.5C13 8.77614 13.2239 9 13.5 9C13.7761 9 14 9.22386 14 9.5C14 9.77614 14.2239 10 14.5 10C14.7761 10 15 10.2239 15 10.5C15 10.7761 14.7761 11 14.5 11H14H13H12H11H10H9Z" fill="white"/>
</svg>
