<svg width="24" height="24" viewBox="0 0 24 24" fill="none" xmlns="http://www.w3.org/2000/svg">
<path fill-rule="evenodd" clip-rule="evenodd" d="M2 4.5C2 4.22386 2.22386 4 2.5 4H3H4H5H6H7H8H9H10H11H12H13H14H15H16H17H18H19H20H21H21.5C21.7761 4 22 4.22386 22 4.5V5V6V7V8V9V10V11V12V13V14V15V16V17V18V19V19.5C22 19.7761 21.7761 20 21.5 20H21H20H19H18H17H16H15H14H13H12H11H10H9H8H7H6H5H4H3H2.5C2.22386 20 2 19.7761 2 19.5V19V18V17V16V15V14V13V12V11V10V9V8V7V6V5V4.5ZM17 6.5C17 6.22386 16.7761 6 16.5 6H16H15H14H13H12H11H10H9H8H7.5C7.22386 6 7 6.22386 7 6.5C7 6.77614 7.22386 7 7.5 7C7.77614 7 8 7.22386 8 7.5C8 7.77614 8.22386 8 8.5 8C8.77614 8 9 8.22386 9 8.5C9 8.77614 9.22386 9 9.5 9C9.77614 9 10 9.22386 10 9.5C10 9.77614 10.2239 10 10.5 10C10.7761 10 11 10.2239 11 10.5C11 10.7761 11.2239 11 11.5 11H12H12.5C12.7761 11 13 10.7761 13 10.5C13 10.2239 13.2239 10 13.5 10C13.7761 10 14 9.77614 14 9.5C14 9.22386 14.2239 9 14.5 9C14.7761 9 15 8.77614 15 8.5C15 8.22386 15.2239 8 15.5 8C15.7761 8 16 7.77614 16 7.5C16 7.22386 16.2239 7 16.5 7C16.7761 7 17 6.77614 17 6.5ZM5.5 8C5.22386 8 5 7.77614 5 7.5C5 7.22386 4.77614 7 4.5 7C4.22386 7 4 7.22386 4 7.5V8V9V10V11V12V13V14V15V16V17V17.5C4 17.7761 4.22386 18 4.5 18H5H6H7H8H9H10H11H12H13H14H15H16H17H18H19H19.5C19.7761 18 20 17.7761 20 17.5V17V16V15V14V13V12V11V10V9V8V7.5C20 7.22386 19.7761 7 19.5 7C19.2239 7 19 7.22386 19 7.5C19 7.77614 18.7761 8 18.5 8C18.2239 8 18 8.22386 18 8.5C18 8.77614 17.7761 9 17.5 9C17.2239 9 17 9.22386 17 9.5C17 9.77614 16.7761 10 16.5 10C16.2239 10 16 10.2239 16 10.5C16 10.7761 15.7761 11 15.5 11C15.2239 11 15 11.2239 15 11.5C15 11.7761 14.7761 12 14.5 12C14.2239 12 14 12.2239 14 12.5C14 12.7761 13.7761 13 13.5 13C13.2239 13 13 13.2239 13 13.5C13 13.7761 12.7761 14 12.5 14H12H11.5C11.2239 14 11 13.7761 11 13.5C11 13.2239 10.7761 13 10.5 13C10.2239 13 10 12.7761 10 12.5C10 12.2239 9.77614 12 9.5 12C9.22386 12 9 11.7761 9 11.5C9 11.2239 8.77614 11 8.5 11C8.22386 11 8 10.7761 8 10.5C8 10.2239 7.77614 10 7.5 10C7.22386 10 7 9.77614 7 9.5C7 9.22386 6.77614 9 6.5 9C6.22386 9 6 8.77614 6 8.5C6 8.22386 5.77614 8 5.5 8Z" fill="white"/>
</svg>
