<svg width="24" height="24" viewBox="0 0 24 24" fill="none" xmlns="http://www.w3.org/2000/svg">
<path fill-rule="evenodd" clip-rule="evenodd" d="M10 3H9H8H7.5C7.22386 3 7 3.22386 7 3.5C7 3.77614 6.77614 4 6.5 4H6H5.5C5.22386 4 5 4.22386 5 4.5C5 4.77614 4.77614 5 4.5 5H4H3.5C3.22386 5 3 5.22386 3 5.5V6V7V8V9V10V11V12V13V14V15V16V17V18V19V20V20.5C3 20.7761 3.22386 21 3.5 21H4H4.5C4.77614 21 5 20.7761 5 20.5C5 20.2239 5.22386 20 5.5 20H6H6.5C6.77614 20 7 19.7761 7 19.5C7 19.2239 7.22386 19 7.5 19C7.77614 19 8 18.7761 8 18.5C8 18.2239 8.22386 18 8.5 18H9H9.5C9.77614 18 10 18.2239 10 18.5C10 18.7761 10.2239 19 10.5 19C10.7761 19 11 19.2239 11 19.5C11 19.7761 11.2239 20 11.5 20H12H12.5C12.7761 20 13 20.2239 13 20.5C13 20.7761 13.2239 21 13.5 21H14H15H15.5C15.7761 21 16 20.7761 16 20.5C16 20.2239 16.2239 20 16.5 20C16.7761 20 17 19.7761 17 19.5C17 19.2239 17.2239 19 17.5 19C17.7761 19 18 18.7761 18 18.5C18 18.2239 18.2239 18 18.5 18H19H20H20.5C20.7761 18 21 17.7761 21 17.5V17V16V15V14V13V12V11V10V9V8V7V6V5V4V3.5C21 3.22386 20.7761 3 20.5 3H20H19H18.5C18.2239 3 18 3.22386 18 3.5C18 3.77614 17.7761 4 17.5 4C17.2239 4 17 4.22386 17 4.5C17 4.77614 16.7761 5 16.5 5C16.2239 5 16 5.22386 16 5.5C16 5.77614 15.7761 6 15.5 6H15H14.5C14.2239 6 14 5.77614 14 5.5C14 5.22386 13.7761 5 13.5 5C13.2239 5 13 4.77614 13 4.5C13 4.22386 12.7761 4 12.5 4H12H11.5C11.2239 4 11 3.77614 11 3.5C11 3.22386 10.7761 3 10.5 3H10ZM17.5 7C17.7761 7 18 6.77614 18 6.5C18 6.22386 18.2239 6 18.5 6C18.7761 6 19 6.22386 19 6.5V7V8V9V10V11V12V13V14V14.5C19 14.7761 18.7761 15 18.5 15C18.2239 15 18 15.2239 18 15.5C18 15.7761 17.7761 16 17.5 16C17.2239 16 17 16.2239 17 16.5C17 16.7761 16.7761 17 16.5 17C16.2239 17 16 16.7761 16 16.5V16V15V14V13V12V11V10V9V8.5C16 8.22386 16.2239 8 16.5 8C16.7761 8 17 7.77614 17 7.5C17 7.22386 17.2239 7 17.5 7ZM12 7H12.5C12.7761 7 13 7.22386 13 7.5C13 7.77614 13.2239 8 13.5 8C13.7761 8 14 8.22386 14 8.5V9V10V11V12V13V14V15V16V17V17.5C14 17.7761 13.7761 18 13.5 18C13.2239 18 13 17.7761 13 17.5C13 17.2239 12.7761 17 12.5 17H12H11.5C11.2239 17 11 16.7761 11 16.5C11 16.2239 10.7761 16 10.5 16C10.2239 16 10 15.7761 10 15.5V15V14V13V12V11V10V9V8V7V6.5C10 6.22386 10.2239 6 10.5 6C10.7761 6 11 6.22386 11 6.5C11 6.77614 11.2239 7 11.5 7H12ZM6 17H5.5C5.22386 17 5 16.7761 5 16.5V16V15V14V13V12V11V10V9V8V7.5C5 7.22386 5.22386 7 5.5 7H6H6.5C6.77614 7 7 6.77614 7 6.5C7 6.22386 7.22386 6 7.5 6C7.77614 6 8 6.22386 8 6.5V7V8V9V10V11V12V13V14V15V15.5C8 15.7761 7.77614 16 7.5 16C7.22386 16 7 16.2239 7 16.5C7 16.7761 6.77614 17 6.5 17H6Z" fill="white"/>
</svg>
