<svg width="24" height="24" viewBox="0 0 24 24" fill="none" xmlns="http://www.w3.org/2000/svg">
<path fill-rule="evenodd" clip-rule="evenodd" d="M20 3H20.5C20.7761 3 21 3.22386 21 3.5V4V5V6V7V8V9V9.5C21 9.77614 20.7761 10 20.5 10H20H19.5C19.2239 10 19 9.77614 19 9.5V9V8V7.5C19 7.22386 18.7761 7 18.5 7C18.2239 7 18 7.22386 18 7.5C18 7.77614 17.7761 8 17.5 8C17.2239 8 17 8.22386 17 8.5C17 8.77614 16.7761 9 16.5 9C16.2239 9 16 9.22386 16 9.5C16 9.77614 15.7761 10 15.5 10C15.2239 10 15 10.2239 15 10.5C15 10.7761 14.7761 11 14.5 11H14H13.5C13.2239 11 13 10.7761 13 10.5V10V9.5C13 9.22386 13.2239 9 13.5 9C13.7761 9 14 8.77614 14 8.5C14 8.22386 14.2239 8 14.5 8C14.7761 8 15 7.77614 15 7.5C15 7.22386 15.2239 7 15.5 7C15.7761 7 16 6.77614 16 6.5C16 6.22386 16.2239 6 16.5 6C16.7761 6 17 5.77614 17 5.5C17 5.22386 16.7761 5 16.5 5H16H15H14.5C14.2239 5 14 4.77614 14 4.5V4V3.5C14 3.22386 14.2239 3 14.5 3H15H16H17H18H19H20ZM10 13H9.5C9.22386 13 9 13.2239 9 13.5C9 13.7761 8.77614 14 8.5 14C8.22386 14 8 14.2239 8 14.5C8 14.7761 7.77614 15 7.5 15C7.22386 15 7 15.2239 7 15.5C7 15.7761 6.77614 16 6.5 16C6.22386 16 6 16.2239 6 16.5C6 16.7761 5.77614 17 5.5 17C5.22386 17 5 16.7761 5 16.5V16V15V14.5C5 14.2239 4.77614 14 4.5 14H4H3.5C3.22386 14 3 14.2239 3 14.5V15V16V17V18V19V20V20.5C3 20.7761 3.22386 21 3.5 21H4H5H6H7H8H9H9.5C9.77614 21 10 20.7761 10 20.5V20V19.5C10 19.2239 9.77614 19 9.5 19H9H8H7.5C7.22386 19 7 18.7761 7 18.5C7 18.2239 7.22386 18 7.5 18C7.77614 18 8 17.7761 8 17.5C8 17.2239 8.22386 17 8.5 17C8.77614 17 9 16.7761 9 16.5C9 16.2239 9.22386 16 9.5 16C9.77614 16 10 15.7761 10 15.5C10 15.2239 10.2239 15 10.5 15C10.7761 15 11 14.7761 11 14.5V14V13.5C11 13.2239 10.7761 13 10.5 13H10Z" fill="white"/>
</svg>
