<svg width="24" height="24" viewBox="0 0 24 24" fill="none" xmlns="http://www.w3.org/2000/svg">
<path fill-rule="evenodd" clip-rule="evenodd" d="M5 6H4.5C4.22386 6 4 6.22386 4 6.5V7V7.5C4 7.77614 4.22386 8 4.5 8H5H6H7H8H9H10H11H12H13H14H15H16H17H18H19H19.5C19.7761 8 20 7.77614 20 7.5V7V6.5C20 6.22386 19.7761 6 19.5 6H19H18H17H16H15H14H13H12H11H10H9H8H7H6H5ZM18 11H19H19.5C19.7761 11 20 11.2239 20 11.5V12V12.5C20 12.7761 19.7761 13 19.5 13H19H18H17H16H15H14H13H12H11H10H9H8H7H6H5H4.5C4.22386 13 4 12.7761 4 12.5V12V11.5C4 11.2239 4.22386 11 4.5 11H5H6H7H8H9H10H11H12H13H14H15H16H17H18ZM19 16H18H17H16H15H14H13H12H11H10H9H8H7H6H5H4.5C4.22386 16 4 16.2239 4 16.5V17V17.5C4 17.7761 4.22386 18 4.5 18H5H6H7H8H9H10H11H12H13H14H15H16H17H18H19H19.5C19.7761 18 20 17.7761 20 17.5V17V16.5C20 16.2239 19.7761 16 19.5 16H19Z" fill="white"/>
</svg>
