<svg width="24" height="24" viewBox="0 0 24 24" fill="none" xmlns="http://www.w3.org/2000/svg">
<path fill-rule="evenodd" clip-rule="evenodd" d="M11 2.5C11 2.22386 11.2239 2 11.5 2H12H12.5C12.7761 2 13 2.22386 13 2.5C13 2.77614 13.2239 3 13.5 3H14H14.5C14.7761 3 15 3.22386 15 3.5V4V4.5C15 4.77614 15.2239 5 15.5 5C15.7761 5 16 5.22386 16 5.5V6V7V8V9V10V10.5C16 10.7761 15.7761 11 15.5 11C15.2239 11 15 10.7761 15 10.5C15 10.2239 14.7761 10 14.5 10C14.2239 10 14 9.77614 14 9.5V9V8V7V6V5.5C14 5.22386 13.7761 5 13.5 5C13.2239 5 13 4.77614 13 4.5C13 4.22386 12.7761 4 12.5 4H12H11.5C11.2239 4 11 4.22386 11 4.5C11 4.77614 10.7761 5 10.5 5H10H9.5C9.22386 5 9 4.77614 9 4.5V4V3.5C9 3.22386 9.22386 3 9.5 3H10H10.5C10.7761 3 11 2.77614 11 2.5ZM11 13.5C11 13.7761 11.2239 14 11.5 14C11.7761 14 12 14.2239 12 14.5C12 14.7761 12.2239 15 12.5 15C12.7761 15 13 15.2239 13 15.5C13 15.7761 12.7761 16 12.5 16H12H11.5C11.2239 16 11 15.7761 11 15.5C11 15.2239 10.7761 15 10.5 15H10H9.5C9.22386 15 9 14.7761 9 14.5V14V13.5C9 13.2239 8.77614 13 8.5 13C8.22386 13 8 12.7761 8 12.5V12V11.5C8 11.2239 8.22386 11 8.5 11C8.77614 11 9 11.2239 9 11.5C9 11.7761 9.22386 12 9.5 12C9.77614 12 10 12.2239 10 12.5C10 12.7761 10.2239 13 10.5 13C10.7761 13 11 13.2239 11 13.5ZM4 11.5C4 11.2239 4.22386 11 4.5 11H5H5.5C5.77614 11 6 11.2239 6 11.5V12V12.5C6 12.7761 6.22386 13 6.5 13C6.77614 13 7 13.2239 7 13.5V14V14.5C7 14.7761 7.22386 15 7.5 15C7.77614 15 8 15.2239 8 15.5C8 15.7761 8.22386 16 8.5 16H9H9.5C9.77614 16 10 16.2239 10 16.5C10 16.7761 10.2239 17 10.5 17H11H12H13H14H14.5C14.7761 17 15 17.2239 15 17.5C15 17.7761 14.7761 18 14.5 18C14.2239 18 14 18.2239 14 18.5C14 18.7761 13.7761 19 13.5 19H13H12H11H10.5C10.2239 19 10 18.7761 10 18.5C10 18.2239 9.77614 18 9.5 18H9H8.5C8.22386 18 8 17.7761 8 17.5C8 17.2239 7.77614 17 7.5 17H7H6.5C6.22386 17 6 16.7761 6 16.5V16V15.5C6 15.2239 5.77614 15 5.5 15C5.22386 15 5 14.7761 5 14.5V14V13.5C5 13.2239 4.77614 13 4.5 13C4.22386 13 4 12.7761 4 12.5V12V11.5ZM18 11.5C18 11.2239 18.2239 11 18.5 11H19H19.5C19.7761 11 20 11.2239 20 11.5V12V12.5C20 12.7761 19.7761 13 19.5 13C19.2239 13 19 13.2239 19 13.5C19 13.7761 18.7761 14 18.5 14C18.2239 14 18 13.7761 18 13.5V13V12V11.5ZM10 20H9.5C9.22386 20 9 20.2239 9 20.5V21V21.5C9 21.7761 9.22386 22 9.5 22H10H11H12H13H14H14.5C14.7761 22 15 21.7761 15 21.5V21V20.5C15 20.2239 14.7761 20 14.5 20H14H13H12H11H10ZM4 3.5C4 3.22386 4.22386 3 4.5 3H5H5.5C5.77614 3 6 3.22386 6 3.5C6 3.77614 6.22386 4 6.5 4C6.77614 4 7 4.22386 7 4.5C7 4.77614 7.22386 5 7.5 5C7.77614 5 8 5.22386 8 5.5C8 5.77614 8.22386 6 8.5 6C8.77614 6 9 6.22386 9 6.5C9 6.77614 9.22386 7 9.5 7C9.77614 7 10 7.22386 10 7.5C10 7.77614 10.2239 8 10.5 8C10.7761 8 11 8.22386 11 8.5C11 8.77614 11.2239 9 11.5 9C11.7761 9 12 9.22386 12 9.5C12 9.77614 12.2239 10 12.5 10C12.7761 10 13 10.2239 13 10.5C13 10.7761 13.2239 11 13.5 11C13.7761 11 14 11.2239 14 11.5C14 11.7761 14.2239 12 14.5 12C14.7761 12 15 12.2239 15 12.5C15 12.7761 15.2239 13 15.5 13C15.7761 13 16 13.2239 16 13.5C16 13.7761 16.2239 14 16.5 14C16.7761 14 17 14.2239 17 14.5C17 14.7761 17.2239 15 17.5 15C17.7761 15 18 15.2239 18 15.5C18 15.7761 18.2239 16 18.5 16C18.7761 16 19 16.2239 19 16.5C19 16.7761 19.2239 17 19.5 17C19.7761 17 20 17.2239 20 17.5V18V18.5C20 18.7761 19.7761 19 19.5 19H19H18.5C18.2239 19 18 18.7761 18 18.5C18 18.2239 17.7761 18 17.5 18C17.2239 18 17 17.7761 17 17.5C17 17.2239 16.7761 17 16.5 17C16.2239 17 16 16.7761 16 16.5C16 16.2239 15.7761 16 15.5 16C15.2239 16 15 15.7761 15 15.5C15 15.2239 14.7761 15 14.5 15C14.2239 15 14 14.7761 14 14.5C14 14.2239 13.7761 14 13.5 14C13.2239 14 13 13.7761 13 13.5C13 13.2239 12.7761 13 12.5 13C12.2239 13 12 12.7761 12 12.5C12 12.2239 11.7761 12 11.5 12C11.2239 12 11 11.7761 11 11.5C11 11.2239 10.7761 11 10.5 11C10.2239 11 10 10.7761 10 10.5C10 10.2239 9.77614 10 9.5 10C9.22386 10 9 9.77614 9 9.5C9 9.22386 8.77614 9 8.5 9C8.22386 9 8 8.77614 8 8.5C8 8.22386 7.77614 8 7.5 8C7.22386 8 7 7.77614 7 7.5C7 7.22386 6.77614 7 6.5 7C6.22386 7 6 6.77614 6 6.5C6 6.22386 5.77614 6 5.5 6C5.22386 6 5 5.77614 5 5.5C5 5.22386 4.77614 5 4.5 5C4.22386 5 4 4.77614 4 4.5V4V3.5Z" fill="white"/>
</svg>
