<svg width="24" height="24" viewBox="0 0 24 24" fill="none" xmlns="http://www.w3.org/2000/svg">
<path fill-rule="evenodd" clip-rule="evenodd" d="M12 2H11.5C11.2239 2 11 2.22386 11 2.5C11 2.77614 10.7761 3 10.5 3H10H9.5C9.22386 3 9 3.22386 9 3.5V4V4.5C9 4.77614 8.77614 5 8.5 5C8.22386 5 8 5.22386 8 5.5V6V7V8V9V10V11V12V12.5C8 12.7761 8.22386 13 8.5 13C8.77614 13 9 13.2239 9 13.5V14V14.5C9 14.7761 9.22386 15 9.5 15H10H10.5C10.7761 15 11 15.2239 11 15.5C11 15.7761 11.2239 16 11.5 16H12H12.5C12.7761 16 13 15.7761 13 15.5C13 15.2239 13.2239 15 13.5 15H14H14.5C14.7761 15 15 14.7761 15 14.5V14V13.5C15 13.2239 15.2239 13 15.5 13C15.7761 13 16 12.7761 16 12.5V12V11V10V9V8V7V6V5.5C16 5.22386 15.7761 5 15.5 5C15.2239 5 15 4.77614 15 4.5V4V3.5C15 3.22386 14.7761 3 14.5 3H14H13.5C13.2239 3 13 2.77614 13 2.5C13 2.22386 12.7761 2 12.5 2H12ZM10.5 13C10.2239 13 10 12.7761 10 12.5V12V11V10V9V8V7V6V5.5C10 5.22386 10.2239 5 10.5 5C10.7761 5 11 4.77614 11 4.5C11 4.22386 11.2239 4 11.5 4H12H12.5C12.7761 4 13 4.22386 13 4.5C13 4.77614 13.2239 5 13.5 5C13.7761 5 14 5.22386 14 5.5V6V7V8V9V10V11V12V12.5C14 12.7761 13.7761 13 13.5 13C13.2239 13 13 13.2239 13 13.5C13 13.7761 12.7761 14 12.5 14H12H11.5C11.2239 14 11 13.7761 11 13.5C11 13.2239 10.7761 13 10.5 13ZM4 11.5C4 11.2239 4.22386 11 4.5 11H5H5.5C5.77614 11 6 11.2239 6 11.5V12V12.5C6 12.7761 6.22386 13 6.5 13C6.77614 13 7 13.2239 7 13.5V14V14.5C7 14.7761 7.22386 15 7.5 15C7.77614 15 8 15.2239 8 15.5C8 15.7761 8.22386 16 8.5 16H9H9.5C9.77614 16 10 16.2239 10 16.5C10 16.7761 10.2239 17 10.5 17H11H12H13H13.5C13.7761 17 14 16.7761 14 16.5C14 16.2239 14.2239 16 14.5 16H15H15.5C15.7761 16 16 15.7761 16 15.5C16 15.2239 16.2239 15 16.5 15C16.7761 15 17 14.7761 17 14.5V14V13.5C17 13.2239 17.2239 13 17.5 13C17.7761 13 18 12.7761 18 12.5V12V11.5C18 11.2239 18.2239 11 18.5 11H19H19.5C19.7761 11 20 11.2239 20 11.5V12V12.5C20 12.7761 19.7761 13 19.5 13C19.2239 13 19 13.2239 19 13.5V14V14.5C19 14.7761 18.7761 15 18.5 15C18.2239 15 18 15.2239 18 15.5V16V16.5C18 16.7761 17.7761 17 17.5 17H17H16.5C16.2239 17 16 17.2239 16 17.5C16 17.7761 15.7761 18 15.5 18H15H14.5C14.2239 18 14 18.2239 14 18.5C14 18.7761 13.7761 19 13.5 19H13H12H11H10.5C10.2239 19 10 18.7761 10 18.5C10 18.2239 9.77614 18 9.5 18H9H8.5C8.22386 18 8 17.7761 8 17.5C8 17.2239 7.77614 17 7.5 17H7H6.5C6.22386 17 6 16.7761 6 16.5V16V15.5C6 15.2239 5.77614 15 5.5 15C5.22386 15 5 14.7761 5 14.5V14V13.5C5 13.2239 4.77614 13 4.5 13C4.22386 13 4 12.7761 4 12.5V12V11.5ZM9 20.5C9 20.2239 9.22386 20 9.5 20H10H11H12H13H14H14.5C14.7761 20 15 20.2239 15 20.5V21V21.5C15 21.7761 14.7761 22 14.5 22H14H13H12H11H10H9.5C9.22386 22 9 21.7761 9 21.5V21V20.5Z" fill="white"/>
</svg>
