<svg width="24" height="24" viewBox="0 0 24 24" fill="none" xmlns="http://www.w3.org/2000/svg">
<path fill-rule="evenodd" clip-rule="evenodd" d="M18.5 4H19H19.5C19.7761 4 20 4.22386 20 4.5V5V5.5C20 5.77614 19.7761 6 19.5 6C19.2239 6 19 6.22386 19 6.5C19 6.77614 18.7761 7 18.5 7C18.2239 7 18 7.22386 18 7.5C18 7.77614 17.7761 8 17.5 8C17.2239 8 17 8.22386 17 8.5C17 8.77614 16.7761 9 16.5 9C16.2239 9 16 9.22386 16 9.5C16 9.77614 16.2239 10 16.5 10H17H18H18.5C18.7761 10 19 10.2239 19 10.5V11V11.5C19 11.7761 18.7761 12 18.5 12H18H17H16H15H14H13H12.5C12.2239 12 12 11.7761 12 11.5V11V10V9V8V7V6V5.5C12 5.22386 12.2239 5 12.5 5H13H13.5C13.7761 5 14 5.22386 14 5.5V6V7V7.5C14 7.77614 14.2239 8 14.5 8C14.7761 8 15 7.77614 15 7.5C15 7.22386 15.2239 7 15.5 7C15.7761 7 16 6.77614 16 6.5C16 6.22386 16.2239 6 16.5 6C16.7761 6 17 5.77614 17 5.5C17 5.22386 17.2239 5 17.5 5C17.7761 5 18 4.77614 18 4.5C18 4.22386 18.2239 4 18.5 4ZM10 12H11H11.5C11.7761 12 12 12.2239 12 12.5V13V14V15V16V17V18V18.5C12 18.7761 11.7761 19 11.5 19H11H10.5C10.2239 19 10 18.7761 10 18.5V18V17V16.5C10 16.2239 9.77614 16 9.5 16C9.22386 16 9 16.2239 9 16.5C9 16.7761 8.77614 17 8.5 17C8.22386 17 8 17.2239 8 17.5C8 17.7761 7.77614 18 7.5 18C7.22386 18 7 18.2239 7 18.5C7 18.7761 6.77614 19 6.5 19C6.22386 19 6 19.2239 6 19.5C6 19.7761 5.77614 20 5.5 20H5H4.5C4.22386 20 4 19.7761 4 19.5V19V18.5C4 18.2239 4.22386 18 4.5 18C4.77614 18 5 17.7761 5 17.5C5 17.2239 5.22386 17 5.5 17C5.77614 17 6 16.7761 6 16.5C6 16.2239 6.22386 16 6.5 16C6.77614 16 7 15.7761 7 15.5C7 15.2239 7.22386 15 7.5 15C7.77614 15 8 14.7761 8 14.5C8 14.2239 7.77614 14 7.5 14H7H6H5.5C5.22386 14 5 13.7761 5 13.5V13V12.5C5 12.2239 5.22386 12 5.5 12H6H7H8H9H10Z" fill="white"/>
</svg>
