<svg width="24" height="24" viewBox="0 0 24 24" fill="none" xmlns="http://www.w3.org/2000/svg">
<path fill-rule="evenodd" clip-rule="evenodd" d="M10 2H11H12H12.5C12.7761 2 13 2.22386 13 2.5V3V3.5C13 3.77614 12.7761 4 12.5 4C12.2239 4 12 4.22386 12 4.5V5V5.5C12 5.77614 11.7761 6 11.5 6C11.2239 6 11 6.22386 11 6.5V7V8V9V9.5C11 9.77614 11.2239 10 11.5 10C11.7761 10 12 10.2239 12 10.5C12 10.7761 12.2239 11 12.5 11C12.7761 11 13 11.2239 13 11.5C13 11.7761 13.2239 12 13.5 12C13.7761 12 14 12.2239 14 12.5C14 12.7761 14.2239 13 14.5 13H15H16H17H17.5C17.7761 13 18 12.7761 18 12.5C18 12.2239 18.2239 12 18.5 12H19H19.5C19.7761 12 20 11.7761 20 11.5C20 11.2239 20.2239 11 20.5 11H21H21.5C21.7761 11 22 11.2239 22 11.5V12V13V14V15V15.5C22 15.7761 21.7761 16 21.5 16C21.2239 16 21 16.2239 21 16.5C21 16.7761 20.7761 17 20.5 17C20.2239 17 20 17.2239 20 17.5C20 17.7761 19.7761 18 19.5 18C19.2239 18 19 18.2239 19 18.5C19 18.7761 18.7761 19 18.5 19C18.2239 19 18 19.2239 18 19.5C18 19.7761 17.7761 20 17.5 20C17.2239 20 17 20.2239 17 20.5C17 20.7761 16.7761 21 16.5 21C16.2239 21 16 21.2239 16 21.5C16 21.7761 15.7761 22 15.5 22H15H14H13H12H11H10H9H8.5C8.22386 22 8 21.7761 8 21.5C8 21.2239 7.77614 21 7.5 21C7.22386 21 7 20.7761 7 20.5C7 20.2239 6.77614 20 6.5 20C6.22386 20 6 19.7761 6 19.5C6 19.2239 5.77614 19 5.5 19C5.22386 19 5 18.7761 5 18.5C5 18.2239 4.77614 18 4.5 18C4.22386 18 4 17.7761 4 17.5C4 17.2239 3.77614 17 3.5 17C3.22386 17 3 16.7761 3 16.5C3 16.2239 2.77614 16 2.5 16C2.22386 16 2 15.7761 2 15.5V15V14V13V12V11V10V9V8.5C2 8.22386 2.22386 8 2.5 8C2.77614 8 3 7.77614 3 7.5C3 7.22386 3.22386 7 3.5 7C3.77614 7 4 6.77614 4 6.5C4 6.22386 4.22386 6 4.5 6C4.77614 6 5 5.77614 5 5.5C5 5.22386 5.22386 5 5.5 5C5.77614 5 6 4.77614 6 4.5C6 4.22386 6.22386 4 6.5 4C6.77614 4 7 3.77614 7 3.5C7 3.22386 7.22386 3 7.5 3C7.77614 3 8 2.77614 8 2.5C8 2.22386 8.22386 2 8.5 2H9H10ZM11 20H10H9.5C9.22386 20 9 19.7761 9 19.5C9 19.2239 8.77614 19 8.5 19C8.22386 19 8 18.7761 8 18.5C8 18.2239 7.77614 18 7.5 18C7.22386 18 7 17.7761 7 17.5C7 17.2239 6.77614 17 6.5 17C6.22386 17 6 16.7761 6 16.5C6 16.2239 5.77614 16 5.5 16C5.22386 16 5 15.7761 5 15.5C5 15.2239 4.77614 15 4.5 15C4.22386 15 4 14.7761 4 14.5V14V13V12V11V10V9.5C4 9.22386 4.22386 9 4.5 9C4.77614 9 5 8.77614 5 8.5C5 8.22386 5.22386 8 5.5 8C5.77614 8 6 7.77614 6 7.5C6 7.22386 6.22386 7 6.5 7C6.77614 7 7 6.77614 7 6.5C7 6.22386 7.22386 6 7.5 6C7.77614 6 8 5.77614 8 5.5C8 5.22386 8.22386 5 8.5 5C8.77614 5 9 4.77614 9 4.5C9 4.22386 9.22386 4 9.5 4C9.77614 4 10 4.22386 10 4.5V5V5.5C10 5.77614 9.77614 6 9.5 6C9.22386 6 9 6.22386 9 6.5V7V8V9V10V10.5C9 10.7761 9.22386 11 9.5 11C9.77614 11 10 11.2239 10 11.5C10 11.7761 10.2239 12 10.5 12C10.7761 12 11 12.2239 11 12.5C11 12.7761 11.2239 13 11.5 13C11.7761 13 12 13.2239 12 13.5C12 13.7761 12.2239 14 12.5 14C12.7761 14 13 14.2239 13 14.5C13 14.7761 13.2239 15 13.5 15H14H15H16H17H17.5C17.7761 15 18 14.7761 18 14.5C18 14.2239 18.2239 14 18.5 14H19H19.5C19.7761 14 20 14.2239 20 14.5C20 14.7761 19.7761 15 19.5 15C19.2239 15 19 15.2239 19 15.5C19 15.7761 18.7761 16 18.5 16C18.2239 16 18 16.2239 18 16.5C18 16.7761 17.7761 17 17.5 17C17.2239 17 17 17.2239 17 17.5C17 17.7761 16.7761 18 16.5 18C16.2239 18 16 18.2239 16 18.5C16 18.7761 15.7761 19 15.5 19C15.2239 19 15 19.2239 15 19.5C15 19.7761 14.7761 20 14.5 20H14H13H12H11Z" fill="white"/>
</svg>
