<svg width="24" height="24" viewBox="0 0 24 24" fill="none" xmlns="http://www.w3.org/2000/svg">
<path fill-rule="evenodd" clip-rule="evenodd" d="M6 10H5.5C5.22386 10 5 10.2239 5 10.5C5 10.7761 4.77614 11 4.5 11C4.22386 11 4 11.2239 4 11.5V12V12.5C4 12.7761 4.22386 13 4.5 13C4.77614 13 5 13.2239 5 13.5C5 13.7761 5.22386 14 5.5 14H6H6.5C6.77614 14 7 13.7761 7 13.5C7 13.2239 7.22386 13 7.5 13C7.77614 13 8 12.7761 8 12.5V12V11.5C8 11.2239 7.77614 11 7.5 11C7.22386 11 7 10.7761 7 10.5C7 10.2239 6.77614 10 6.5 10H6ZM11.5 10C11.2239 10 11 10.2239 11 10.5C11 10.7761 10.7761 11 10.5 11C10.2239 11 10 11.2239 10 11.5V12V12.5C10 12.7761 10.2239 13 10.5 13C10.7761 13 11 13.2239 11 13.5C11 13.7761 11.2239 14 11.5 14H12H12.5C12.7761 14 13 13.7761 13 13.5C13 13.2239 13.2239 13 13.5 13C13.7761 13 14 12.7761 14 12.5V12V11.5C14 11.2239 13.7761 11 13.5 11C13.2239 11 13 10.7761 13 10.5C13 10.2239 12.7761 10 12.5 10H12H11.5ZM16.5 11C16.7761 11 17 10.7761 17 10.5C17 10.2239 17.2239 10 17.5 10H18H18.5C18.7761 10 19 10.2239 19 10.5C19 10.7761 19.2239 11 19.5 11C19.7761 11 20 11.2239 20 11.5V12V12.5C20 12.7761 19.7761 13 19.5 13C19.2239 13 19 13.2239 19 13.5C19 13.7761 18.7761 14 18.5 14H18H17.5C17.2239 14 17 13.7761 17 13.5C17 13.2239 16.7761 13 16.5 13C16.2239 13 16 12.7761 16 12.5V12V11.5C16 11.2239 16.2239 11 16.5 11Z" fill="white"/>
</svg>
