<svg width="24" height="24" viewBox="0 0 24 24" fill="none" xmlns="http://www.w3.org/2000/svg">
<path fill-rule="evenodd" clip-rule="evenodd" d="M20 2H21H21.5C21.7761 2 22 2.22386 22 2.5V3V4V5V6V7V8V9V10V11V12V13V14V15V16V16.5C22 16.7761 21.7761 17 21.5 17C21.2239 17 21 17.2239 21 17.5V18V18.5C21 18.7761 20.7761 19 20.5 19H20H19.5C19.2239 19 19 19.2239 19 19.5C19 19.7761 18.7761 20 18.5 20H18H17.5C17.2239 20 17 19.7761 17 19.5C17 19.2239 16.7761 19 16.5 19H16H15.5C15.2239 19 15 18.7761 15 18.5V18V17.5C15 17.2239 14.7761 17 14.5 17C14.2239 17 14 16.7761 14 16.5V16V15.5C14 15.2239 14.2239 15 14.5 15C14.7761 15 15 14.7761 15 14.5V14V13.5C15 13.2239 15.2239 13 15.5 13H16H16.5C16.7761 13 17 12.7761 17 12.5C17 12.2239 17.2239 12 17.5 12H18H18.5C18.7761 12 19 12.2239 19 12.5C19 12.7761 19.2239 13 19.5 13C19.7761 13 20 12.7761 20 12.5V12V11V10V9V8V7V6V5V4.5C20 4.22386 19.7761 4 19.5 4H19H18.5C18.2239 4 18 4.22386 18 4.5C18 4.77614 17.7761 5 17.5 5H17H16H15H14H13H12.5C12.2239 5 12 5.22386 12 5.5C12 5.77614 11.7761 6 11.5 6H11H10.5C10.2239 6 10 6.22386 10 6.5V7V8V9V10V11V12V13V14V15V16V17V18V18.5C10 18.7761 9.77614 19 9.5 19C9.22386 19 9 19.2239 9 19.5V20V20.5C9 20.7761 8.77614 21 8.5 21H8H7.5C7.22386 21 7 21.2239 7 21.5C7 21.7761 6.77614 22 6.5 22H6H5.5C5.22386 22 5 21.7761 5 21.5C5 21.2239 4.77614 21 4.5 21H4H3.5C3.22386 21 3 20.7761 3 20.5V20V19.5C3 19.2239 2.77614 19 2.5 19C2.22386 19 2 18.7761 2 18.5V18V17.5C2 17.2239 2.22386 17 2.5 17C2.77614 17 3 16.7761 3 16.5V16V15.5C3 15.2239 3.22386 15 3.5 15H4H4.5C4.77614 15 5 14.7761 5 14.5C5 14.2239 5.22386 14 5.5 14H6H6.5C6.77614 14 7 14.2239 7 14.5C7 14.7761 7.22386 15 7.5 15C7.77614 15 8 14.7761 8 14.5V14V13V12V11V10V9V8V7V6V5V4.5C8 4.22386 8.22386 4 8.5 4H9H10H11H11.5C11.7761 4 12 3.77614 12 3.5C12 3.22386 12.2239 3 12.5 3H13H14H15H16H17H17.5C17.7761 3 18 2.77614 18 2.5C18 2.22386 18.2239 2 18.5 2H19H20ZM18 14H17.5C17.2239 14 17 14.2239 17 14.5C17 14.7761 16.7761 15 16.5 15C16.2239 15 16 15.2239 16 15.5V16V16.5C16 16.7761 16.2239 17 16.5 17C16.7761 17 17 17.2239 17 17.5C17 17.7761 17.2239 18 17.5 18H18H18.5C18.7761 18 19 17.7761 19 17.5C19 17.2239 19.2239 17 19.5 17C19.7761 17 20 16.7761 20 16.5V16V15.5C20 15.2239 19.7761 15 19.5 15C19.2239 15 19 14.7761 19 14.5C19 14.2239 18.7761 14 18.5 14H18ZM5.5 16C5.22386 16 5 16.2239 5 16.5C5 16.7761 4.77614 17 4.5 17C4.22386 17 4 17.2239 4 17.5V18V18.5C4 18.7761 4.22386 19 4.5 19C4.77614 19 5 19.2239 5 19.5C5 19.7761 5.22386 20 5.5 20H6H6.5C6.77614 20 7 19.7761 7 19.5C7 19.2239 7.22386 19 7.5 19C7.77614 19 8 18.7761 8 18.5V18V17.5C8 17.2239 7.77614 17 7.5 17C7.22386 17 7 16.7761 7 16.5C7 16.2239 6.77614 16 6.5 16H6H5.5Z" fill="white"/>
</svg>
