<svg width="24" height="24" viewBox="0 0 24 24" fill="none" xmlns="http://www.w3.org/2000/svg">
<path fill-rule="evenodd" clip-rule="evenodd" d="M20 3H20.5C20.7761 3 21 3.22386 21 3.5V4V4.5C21 4.77614 20.7761 5 20.5 5C20.2239 5 20 5.22386 20 5.5V6V6.5C20 6.77614 19.7761 7 19.5 7C19.2239 7 19 7.22386 19 7.5V8V8.5C19 8.77614 18.7761 9 18.5 9C18.2239 9 18 9.22386 18 9.5V10V10.5C18 10.7761 17.7761 11 17.5 11C17.2239 11 17 11.2239 17 11.5V12V12.5C17 12.7761 16.7761 13 16.5 13C16.2239 13 16 13.2239 16 13.5V14V14.5C16 14.7761 15.7761 15 15.5 15C15.2239 15 15 15.2239 15 15.5V16V16.5C15 16.7761 14.7761 17 14.5 17C14.2239 17 14 17.2239 14 17.5V18V18.5C14 18.7761 13.7761 19 13.5 19C13.2239 19 13 19.2239 13 19.5V20V20.5C13 20.7761 12.7761 21 12.5 21H12H11.5C11.2239 21 11 20.7761 11 20.5V20V19.5C11 19.2239 10.7761 19 10.5 19C10.2239 19 10 18.7761 10 18.5V18V17V16V15.5C10 15.2239 9.77614 15 9.5 15C9.22386 15 9 14.7761 9 14.5C9 14.2239 8.77614 14 8.5 14H8H7H6H5.5C5.22386 14 5 13.7761 5 13.5C5 13.2239 4.77614 13 4.5 13H4H3.5C3.22386 13 3 12.7761 3 12.5V12V11.5C3 11.2239 3.22386 11 3.5 11H4H4.5C4.77614 11 5 10.7761 5 10.5C5 10.2239 5.22386 10 5.5 10H6H6.5C6.77614 10 7 9.77614 7 9.5C7 9.22386 7.22386 9 7.5 9H8H8.5C8.77614 9 9 8.77614 9 8.5C9 8.22386 9.22386 8 9.5 8H10H10.5C10.7761 8 11 7.77614 11 7.5C11 7.22386 11.2239 7 11.5 7H12H12.5C12.7761 7 13 6.77614 13 6.5C13 6.22386 13.2239 6 13.5 6H14H14.5C14.7761 6 15 5.77614 15 5.5C15 5.22386 15.2239 5 15.5 5H16H16.5C16.7761 5 17 4.77614 17 4.5C17 4.22386 17.2239 4 17.5 4H18H18.5C18.7761 4 19 3.77614 19 3.5C19 3.22386 19.2239 3 19.5 3H20ZM11 14.5C11 14.7761 11.2239 15 11.5 15C11.7761 15 12 15.2239 12 15.5V16V16.5C12 16.7761 12.2239 17 12.5 17C12.7761 17 13 16.7761 13 16.5V16V15.5C13 15.2239 13.2239 15 13.5 15C13.7761 15 14 14.7761 14 14.5V14V13.5C14 13.2239 14.2239 13 14.5 13C14.7761 13 15 12.7761 15 12.5V12V11.5C15 11.2239 15.2239 11 15.5 11C15.7761 11 16 10.7761 16 10.5V10V9.5C16 9.22386 16.2239 9 16.5 9C16.7761 9 17 8.77614 17 8.5V8V7H17.5C17.7761 7 18 6.77614 18 6.5C18 6.22386 17.7761 6 17.5 6C17.2239 6 17 6.22386 17 6.5V7H16H15.5C15.2239 7 15 7.22386 15 7.5C15 7.77614 14.7761 8 14.5 8H14H13.5C13.2239 8 13 8.22386 13 8.5C13 8.77614 12.7761 9 12.5 9H12H11.5C11.2239 9 11 9.22386 11 9.5C11 9.77614 10.7761 10 10.5 10H10H9.5C9.22386 10 9 10.2239 9 10.5C9 10.7761 8.77614 11 8.5 11H8H7.5C7.22386 11 7 11.2239 7 11.5C7 11.7761 7.22386 12 7.5 12H8H8.5C8.77614 12 9 12.2239 9 12.5C9 12.7761 9.22386 13 9.5 13H10H10.5C10.7761 13 11 13.2239 11 13.5V14V14.5Z" fill="white"/>
</svg>
