<svg width="24" height="24" viewBox="0 0 24 24" fill="none" xmlns="http://www.w3.org/2000/svg">
<path fill-rule="evenodd" clip-rule="evenodd" d="M6 3H5.5C5.22386 3 5 3.22386 5 3.5V4V5V6V7V8V9V10V11V12V13V14V15V16V17V18V19V20V20.5C5 20.7761 5.22386 21 5.5 21H6H7H8H9H10H10.5C10.7761 21 11 20.7761 11 20.5V20V19V18V17V16V15V14V13V12V11V10V9V8V7V6V5V4V3.5C11 3.22386 10.7761 3 10.5 3H10H9H8H7H6ZM7.5 5C7.22386 5 7 5.22386 7 5.5V6V7V8V9V10V11V12V13V14V15V16V17V18V18.5C7 18.7761 7.22386 19 7.5 19H8H8.5C8.77614 19 9 18.7761 9 18.5V18V17V16V15V14V13V12V11V10V9V8V7V6V5.5C9 5.22386 8.77614 5 8.5 5H8H7.5ZM13 3.5C13 3.22386 13.2239 3 13.5 3H14H15H16H17H18H18.5C18.7761 3 19 3.22386 19 3.5V4V5V6V7V8V9V10V11V12V13V14V15V16V17V18V19V20V20.5C19 20.7761 18.7761 21 18.5 21H18H17H16H15H14H13.5C13.2239 21 13 20.7761 13 20.5V20V19V18V17V16V15V14V13V12V11V10V9V8V7V6V5V4V3.5ZM15.5 5C15.2239 5 15 5.22386 15 5.5V6V7V8V9V10V11V12V13V14V15V16V17V18V18.5C15 18.7761 15.2239 19 15.5 19H16H16.5C16.7761 19 17 18.7761 17 18.5V18V17V16V15V14V13V12V11V10V9V8V7V6V5.5C17 5.22386 16.7761 5 16.5 5H16H15.5Z" fill="white"/>
</svg>
