<svg width="24" height="24" viewBox="0 0 24 24" fill="none" xmlns="http://www.w3.org/2000/svg">
<path fill-rule="evenodd" clip-rule="evenodd" d="M4 3H3.5C3.22386 3 3 3.22386 3 3.5V4V5V5.5C3 5.77614 3.22386 6 3.5 6C3.77614 6 4 6.22386 4 6.5V7V8V9V10V10.5C4 10.7761 4.22386 11 4.5 11C4.77614 11 5 11.2239 5 11.5V12V13V14V14.5C5 14.7761 5.22386 15 5.5 15C5.77614 15 6 15.2239 6 15.5V16V16.5C6 16.7761 6.22386 17 6.5 17H7H8H9H9.5C9.77614 17 10 17.2239 10 17.5C10 17.7761 10.2239 18 10.5 18C10.7761 18 11 18.2239 11 18.5C11 18.7761 11.2239 19 11.5 19C11.7761 19 12 19.2239 12 19.5C12 19.7761 12.2239 20 12.5 20C12.7761 20 13 20.2239 13 20.5C13 20.7761 13.2239 21 13.5 21H14H15H15.5C15.7761 21 16 20.7761 16 20.5C16 20.2239 16.2239 20 16.5 20C16.7761 20 17 19.7761 17 19.5C17 19.2239 17.2239 19 17.5 19C17.7761 19 18 18.7761 18 18.5C18 18.2239 18.2239 18 18.5 18C18.7761 18 19 17.7761 19 17.5C19 17.2239 19.2239 17 19.5 17C19.7761 17 20 16.7761 20 16.5C20 16.2239 20.2239 16 20.5 16C20.7761 16 21 15.7761 21 15.5V15V14V13.5C21 13.2239 20.7761 13 20.5 13C20.2239 13 20 12.7761 20 12.5C20 12.2239 19.7761 12 19.5 12C19.2239 12 19 11.7761 19 11.5C19 11.2239 18.7761 11 18.5 11C18.2239 11 18 10.7761 18 10.5C18 10.2239 17.7761 10 17.5 10C17.2239 10 17 9.77614 17 9.5V9V8V7V6.5C17 6.22386 16.7761 6 16.5 6H16H15.5C15.2239 6 15 5.77614 15 5.5C15 5.22386 14.7761 5 14.5 5H14H13H12H11.5C11.2239 5 11 4.77614 11 4.5C11 4.22386 10.7761 4 10.5 4H10H9H8H7H6.5C6.22386 4 6 3.77614 6 3.5C6 3.22386 5.77614 3 5.5 3H5H4ZM18.5 14C18.7761 14 19 14.2239 19 14.5C19 14.7761 18.7761 15 18.5 15C18.2239 15 18 15.2239 18 15.5C18 15.7761 17.7761 16 17.5 16C17.2239 16 17 16.2239 17 16.5C17 16.7761 16.7761 17 16.5 17C16.2239 17 16 17.2239 16 17.5C16 17.7761 15.7761 18 15.5 18C15.2239 18 15 18.2239 15 18.5C15 18.7761 14.7761 19 14.5 19C14.2239 19 14 18.7761 14 18.5V18V17.5C14 17.2239 14.2239 17 14.5 17C14.7761 17 15 16.7761 15 16.5C15 16.2239 15.2239 16 15.5 16C15.7761 16 16 15.7761 16 15.5C16 15.2239 16.2239 15 16.5 15C16.7761 15 17 14.7761 17 14.5C17 14.2239 17.2239 14 17.5 14H18H18.5ZM11 16H10.5C10.2239 16 10 15.7761 10 15.5C10 15.2239 9.77614 15 9.5 15H9H8H7.5C7.22386 15 7 14.7761 7 14.5V14V13V12V11.5C7 11.2239 6.77614 11 6.5 11C6.22386 11 6 10.7761 6 10.5V10V9V8.5C6 8.22386 6.22386 8 6.5 8C6.77614 8 7 8.22386 7 8.5C7 8.77614 7.22386 9 7.5 9C7.77614 9 8 9.22386 8 9.5V10V11V12V12.5C8 12.7761 8.22386 13 8.5 13C8.77614 13 9 13.2239 9 13.5C9 13.7761 9.22386 14 9.5 14H10H11H12H12.5C12.7761 14 13 13.7761 13 13.5C13 13.2239 13.2239 13 13.5 13C13.7761 13 14 12.7761 14 12.5V12V11V10V9.5C14 9.22386 13.7761 9 13.5 9C13.2239 9 13 8.77614 13 8.5C13 8.22386 12.7761 8 12.5 8H12H11H10H9.5C9.22386 8 9 7.77614 9 7.5C9 7.22386 8.77614 7 8.5 7C8.22386 7 8 6.77614 8 6.5C8 6.22386 8.22386 6 8.5 6H9H10H10.5C10.7761 6 11 6.22386 11 6.5C11 6.77614 11.2239 7 11.5 7H12H13H14H14.5C14.7761 7 15 7.22386 15 7.5V8V9V9.5C15 9.77614 15.2239 10 15.5 10C15.7761 10 16 10.2239 16 10.5V11V12V12.5C16 12.7761 15.7761 13 15.5 13C15.2239 13 15 13.2239 15 13.5C15 13.7761 14.7761 14 14.5 14C14.2239 14 14 14.2239 14 14.5C14 14.7761 13.7761 15 13.5 15C13.2239 15 13 15.2239 13 15.5C13 15.7761 12.7761 16 12.5 16H12H11ZM12 11.5C12 11.7761 11.7761 12 11.5 12H11H10.5C10.2239 12 10 11.7761 10 11.5V11V10.5C10 10.2239 10.2239 10 10.5 10H11H11.5C11.7761 10 12 10.2239 12 10.5V11V11.5Z" fill="white"/>
</svg>
