<svg width="24" height="24" viewBox="0 0 24 24" fill="none" xmlns="http://www.w3.org/2000/svg">
<path fill-rule="evenodd" clip-rule="evenodd" d="M3 3.5C3 3.22386 3.22386 3 3.5 3H4H5H6H7H8H9H9.5C9.77614 3 10 3.22386 10 3.5V4V4.5C10 4.77614 10.2239 5 10.5 5C10.7761 5 11 5.22386 11 5.5V6V7V8V8.5C11 8.77614 10.7761 9 10.5 9C10.2239 9 10 9.22386 10 9.5V10V10.5C10 10.7761 10.2239 11 10.5 11C10.7761 11 11 11.2239 11 11.5C11 11.7761 11.2239 12 11.5 12C11.7761 12 12 12.2239 12 12.5C12 12.7761 12.2239 13 12.5 13C12.7761 13 13 13.2239 13 13.5C13 13.7761 13.2239 14 13.5 14H14H14.5C14.7761 14 15 13.7761 15 13.5C15 13.2239 15.2239 13 15.5 13H16H17H18H18.5C18.7761 13 19 13.2239 19 13.5C19 13.7761 19.2239 14 19.5 14H20H20.5C20.7761 14 21 14.2239 21 14.5V15V16V17V18V19V20V20.5C21 20.7761 20.7761 21 20.5 21H20H19H18H17H16H15.5C15.2239 21 15 20.7761 15 20.5C15 20.2239 14.7761 20 14.5 20H14H13.5C13.2239 20 13 19.7761 13 19.5C13 19.2239 12.7761 19 12.5 19H12H11.5C11.2239 19 11 18.7761 11 18.5C11 18.2239 10.7761 18 10.5 18H10H9.5C9.22386 18 9 17.7761 9 17.5C9 17.2239 8.77614 17 8.5 17C8.22386 17 8 16.7761 8 16.5C8 16.2239 7.77614 16 7.5 16C7.22386 16 7 15.7761 7 15.5C7 15.2239 6.77614 15 6.5 15C6.22386 15 6 14.7761 6 14.5V14V13.5C6 13.2239 5.77614 13 5.5 13C5.22386 13 5 12.7761 5 12.5V12V11.5C5 11.2239 4.77614 11 4.5 11C4.22386 11 4 10.7761 4 10.5V10V9.5C4 9.22386 3.77614 9 3.5 9C3.22386 9 3 8.77614 3 8.5V8V7V6V5V4V3.5ZM5 8V8.5C5 8.77614 5.22386 9 5.5 9C5.77614 9 6 9.22386 6 9.5V10V10.5C6 10.7761 6.22386 11 6.5 11C6.77614 11 7 11.2239 7 11.5V12V12.5C7 12.7761 7.22386 13 7.5 13C7.77614 13 8 13.2239 8 13.5C8 13.7761 8.22386 14 8.5 14C8.77614 14 9 14.2239 9 14.5C9 14.7761 9.22386 15 9.5 15C9.77614 15 10 15.2239 10 15.5C10 15.7761 10.2239 16 10.5 16C10.7761 16 11 16.2239 11 16.5C11 16.7761 11.2239 17 11.5 17H12H12.5C12.7761 17 13 17.2239 13 17.5C13 17.7761 13.2239 18 13.5 18H14H14.5C14.7761 18 15 18.2239 15 18.5C15 18.7761 15.2239 19 15.5 19H16H17H18H18.5C18.7761 19 19 18.7761 19 18.5V18V17V16V15.5C19 15.2239 18.7761 15 18.5 15H18H17H16.5C16.2239 15 16 15.2239 16 15.5C16 15.7761 15.7761 16 15.5 16H15H14H13H12.5C12.2239 16 12 15.7761 12 15.5C12 15.2239 11.7761 15 11.5 15C11.2239 15 11 14.7761 11 14.5C11 14.2239 10.7761 14 10.5 14C10.2239 14 10 13.7761 10 13.5C10 13.2239 9.77614 13 9.5 13C9.22386 13 9 12.7761 9 12.5C9 12.2239 8.77614 12 8.5 12C8.22386 12 8 11.7761 8 11.5V11V10V9.5C8 9.22386 8.22386 9 8.5 9C8.77614 9 9 8.77614 9 8.5V8V7V6V5.5C9 5.22386 8.77614 5 8.5 5H8H7H6H5.5C5.22386 5 5 5.22386 5 5.5V6V7V8Z" fill="white"/>
</svg>
