<svg width="24" height="24" viewBox="0 0 24 24" fill="none" xmlns="http://www.w3.org/2000/svg">
<path fill-rule="evenodd" clip-rule="evenodd" d="M19 3.5C19 3.22386 19.2239 3 19.5 3H20H20.5C20.7761 3 21 3.22386 21 3.5V4V4.5C21 4.77614 20.7761 5 20.5 5C20.2239 5 20 5.22386 20 5.5C20 5.77614 19.7761 6 19.5 6C19.2239 6 19 6.22386 19 6.5C19 6.77614 18.7761 7 18.5 7C18.2239 7 18 7.22386 18 7.5C18 7.77614 17.7761 8 17.5 8C17.2239 8 17 8.22386 17 8.5C17 8.77614 16.7761 9 16.5 9C16.2239 9 16 9.22386 16 9.5C16 9.77614 15.7761 10 15.5 10C15.2239 10 15 10.2239 15 10.5C15 10.7761 14.7761 11 14.5 11C14.2239 11 14 11.2239 14 11.5C14 11.7761 13.7761 12 13.5 12C13.2239 12 13 12.2239 13 12.5C13 12.7761 12.7761 13 12.5 13C12.2239 13 12 13.2239 12 13.5C12 13.7761 11.7761 14 11.5 14C11.2239 14 11 14.2239 11 14.5C11 14.7761 10.7761 15 10.5 15C10.2239 15 10 15.2239 10 15.5C10 15.7761 9.77614 16 9.5 16C9.22386 16 9 16.2239 9 16.5C9 16.7761 8.77614 17 8.5 17C8.22386 17 8 17.2239 8 17.5C8 17.7761 7.77614 18 7.5 18C7.22386 18 7 18.2239 7 18.5C7 18.7761 6.77614 19 6.5 19C6.22386 19 6 19.2239 6 19.5C6 19.7761 5.77614 20 5.5 20C5.22386 20 5 20.2239 5 20.5C5 20.7761 4.77614 21 4.5 21H4H3.5C3.22386 21 3 20.7761 3 20.5V20V19.5C3 19.2239 3.22386 19 3.5 19C3.77614 19 4 18.7761 4 18.5C4 18.2239 4.22386 18 4.5 18C4.77614 18 5 17.7761 5 17.5C5 17.2239 5.22386 17 5.5 17C5.77614 17 6 16.7761 6 16.5C6 16.2239 6.22386 16 6.5 16C6.77614 16 7 15.7761 7 15.5C7 15.2239 7.22386 15 7.5 15C7.77614 15 8 14.7761 8 14.5C8 14.2239 8.22386 14 8.5 14C8.77614 14 9 13.7761 9 13.5C9 13.2239 9.22386 13 9.5 13C9.77614 13 10 12.7761 10 12.5C10 12.2239 10.2239 12 10.5 12C10.7761 12 11 11.7761 11 11.5C11 11.2239 11.2239 11 11.5 11C11.7761 11 12 10.7761 12 10.5C12 10.2239 12.2239 10 12.5 10C12.7761 10 13 9.77614 13 9.5C13 9.22386 13.2239 9 13.5 9C13.7761 9 14 8.77614 14 8.5C14 8.22386 14.2239 8 14.5 8C14.7761 8 15 7.77614 15 7.5C15 7.22386 15.2239 7 15.5 7C15.7761 7 16 6.77614 16 6.5C16 6.22386 16.2239 6 16.5 6C16.7761 6 17 5.77614 17 5.5C17 5.22386 17.2239 5 17.5 5C17.7761 5 18 4.77614 18 4.5C18 4.22386 18.2239 4 18.5 4C18.7761 4 19 3.77614 19 3.5ZM3 3.5C3 3.22386 3.22386 3 3.5 3H4H5H6H7H8H9H9.5C9.77614 3 10 3.22386 10 3.5V4V4.5C10 4.77614 10.2239 5 10.5 5C10.7761 5 11 5.22386 11 5.5V6V7V8V8.5C11 8.77614 10.7761 9 10.5 9C10.2239 9 10 9.22386 10 9.5V10V10.5C10 10.7761 9.77614 11 9.5 11C9.22386 11 9 11.2239 9 11.5C9 11.7761 8.77614 12 8.5 12C8.22386 12 8 11.7761 8 11.5V11V10V9.5C8 9.22386 8.22386 9 8.5 9C8.77614 9 9 8.77614 9 8.5V8V7V6V5.5C9 5.22386 8.77614 5 8.5 5H8H7H6H5.5C5.22386 5 5 5.22386 5 5.5V6V7V8V8.5C5 8.77614 5.22386 9 5.5 9C5.77614 9 6 9.22386 6 9.5V10V10.5C6 10.7761 6.22386 11 6.5 11C6.77614 11 7 11.2239 7 11.5V12V13V13.5C7 13.7761 6.77614 14 6.5 14C6.22386 14 6 13.7761 6 13.5C6 13.2239 5.77614 13 5.5 13C5.22386 13 5 12.7761 5 12.5V12V11.5C5 11.2239 4.77614 11 4.5 11C4.22386 11 4 10.7761 4 10.5V10V9.5C4 9.22386 3.77614 9 3.5 9C3.22386 9 3 8.77614 3 8.5V8V7V6V5V4V3.5ZM11 17H12H12.5C12.7761 17 13 17.2239 13 17.5C13 17.7761 13.2239 18 13.5 18H14H14.5C14.7761 18 15 18.2239 15 18.5C15 18.7761 15.2239 19 15.5 19H16H17H18H18.5C18.7761 19 19 18.7761 19 18.5V18V17V16V15.5C19 15.2239 18.7761 15 18.5 15H18H17H16.5C16.2239 15 16 15.2239 16 15.5C16 15.7761 15.7761 16 15.5 16H15H14H13H12.5C12.2239 16 12 15.7761 12 15.5C12 15.2239 12.2239 15 12.5 15C12.7761 15 13 14.7761 13 14.5C13 14.2239 13.2239 14 13.5 14H14H14.5C14.7761 14 15 13.7761 15 13.5C15 13.2239 15.2239 13 15.5 13H16H17H18H18.5C18.7761 13 19 13.2239 19 13.5C19 13.7761 19.2239 14 19.5 14H20H20.5C20.7761 14 21 14.2239 21 14.5V15V16V17V18V19V20V20.5C21 20.7761 20.7761 21 20.5 21H20H19H18H17H16H15.5C15.2239 21 15 20.7761 15 20.5C15 20.2239 14.7761 20 14.5 20H14H13.5C13.2239 20 13 19.7761 13 19.5C13 19.2239 12.7761 19 12.5 19H12H11.5C11.2239 19 11 18.7761 11 18.5C11 18.2239 10.7761 18 10.5 18C10.2239 18 10 17.7761 10 17.5C10 17.2239 10.2239 17 10.5 17H11Z" fill="white"/>
</svg>
