<svg width="24" height="24" viewBox="0 0 24 24" fill="none" xmlns="http://www.w3.org/2000/svg">
<path fill-rule="evenodd" clip-rule="evenodd" d="M5.5 4C5.77614 4 6 4.22386 6 4.5C6 4.77614 6.22386 5 6.5 5H7H7.5C7.77614 5 8 5.22386 8 5.5C8 5.77614 8.22386 6 8.5 6H9H9.5C9.77614 6 10 6.22386 10 6.5C10 6.77614 10.2239 7 10.5 7H11H11.5C11.7761 7 12 7.22386 12 7.5C12 7.77614 12.2239 8 12.5 8H13H13.5C13.7761 8 14 8.22386 14 8.5C14 8.77614 14.2239 9 14.5 9H15H15.5C15.7761 9 16 9.22386 16 9.5C16 9.77614 16.2239 10 16.5 10H17H17.5C17.7761 10 18 10.2239 18 10.5C18 10.7761 18.2239 11 18.5 11H19H19.5C19.7761 11 20 11.2239 20 11.5V12V12.5C20 12.7761 19.7761 13 19.5 13H19H18.5C18.2239 13 18 13.2239 18 13.5C18 13.7761 17.7761 14 17.5 14H17H16.5C16.2239 14 16 14.2239 16 14.5C16 14.7761 15.7761 15 15.5 15H15H14.5C14.2239 15 14 15.2239 14 15.5C14 15.7761 13.7761 16 13.5 16H13H12.5C12.2239 16 12 16.2239 12 16.5C12 16.7761 11.7761 17 11.5 17H11H10.5C10.2239 17 10 17.2239 10 17.5C10 17.7761 9.77614 18 9.5 18H9H8.5C8.22386 18 8 18.2239 8 18.5C8 18.7761 7.77614 19 7.5 19H7H6.5C6.22386 19 6 19.2239 6 19.5C6 19.7761 5.77614 20 5.5 20H5H4.5C4.22386 20 4 19.7761 4 19.5V19V18V17V16V15V14V13V12V11V10V9V8V7V6V5V4.5C4 4.22386 4.22386 4 4.5 4H5H5.5ZM8 7.5C8 7.22386 7.77614 7 7.5 7H7H6.5C6.22386 7 6 7.22386 6 7.5V8V9V10V11V12V13V14V15V16V16.5C6 16.7761 6.22386 17 6.5 17H7H7.5C7.77614 17 8 16.7761 8 16.5C8 16.2239 8.22386 16 8.5 16H9H9.5C9.77614 16 10 15.7761 10 15.5C10 15.2239 10.2239 15 10.5 15H11H11.5C11.7761 15 12 14.7761 12 14.5C12 14.2239 12.2239 14 12.5 14H13H13.5C13.7761 14 14 13.7761 14 13.5C14 13.2239 14.2239 13 14.5 13H15H15.5C15.7761 13 16 12.7761 16 12.5V12V11.5C16 11.2239 15.7761 11 15.5 11H15H14.5C14.2239 11 14 10.7761 14 10.5C14 10.2239 13.7761 10 13.5 10H13H12.5C12.2239 10 12 9.77614 12 9.5C12 9.22386 11.7761 9 11.5 9H11H10.5C10.2239 9 10 8.77614 10 8.5C10 8.22386 9.77614 8 9.5 8H9H8.5C8.22386 8 8 7.77614 8 7.5Z" fill="white"/>
</svg>
