<svg width="24" height="24" viewBox="0 0 24 24" fill="none" xmlns="http://www.w3.org/2000/svg">
<path fill-rule="evenodd" clip-rule="evenodd" d="M7 6V5.5C7 5.22386 6.77614 5 6.5 5H6H5.5C5.22386 5 5 5.22386 5 5.5C5 5.77614 4.77614 6 4.5 6C4.22386 6 4 6.22386 4 6.5C4 6.77614 3.77614 7 3.5 7C3.22386 7 3 7.22386 3 7.5C3 7.77614 2.77614 8 2.5 8C2.22386 8 2 8.22386 2 8.5V9V10V11V12V13V14V15V15.5C2 15.7761 2.22386 16 2.5 16C2.77614 16 3 16.2239 3 16.5C3 16.7761 3.22386 17 3.5 17C3.77614 17 4 17.2239 4 17.5C4 17.7761 4.22386 18 4.5 18C4.77614 18 5 18.2239 5 18.5C5 18.7761 5.22386 19 5.5 19H6H6.5C6.77614 19 7 18.7761 7 18.5V18V17.5C7 17.2239 6.77614 17 6.5 17C6.22386 17 6 16.7761 6 16.5C6 16.2239 5.77614 16 5.5 16C5.22386 16 5 15.7761 5 15.5C5 15.2239 4.77614 15 4.5 15C4.22386 15 4 14.7761 4 14.5V14V13V12V11V10V9.5C4 9.22386 4.22386 9 4.5 9C4.77614 9 5 8.77614 5 8.5C5 8.22386 5.22386 8 5.5 8C5.77614 8 6 7.77614 6 7.5C6 7.22386 6.22386 7 6.5 7C6.77614 7 7 6.77614 7 6.5V6ZM19 10.5C19 10.2239 18.7761 10 18.5 10C18.2239 10 18 9.77614 18 9.5C18 9.22386 17.7761 9 17.5 9C17.2239 9 17 8.77614 17 8.5C17 8.22386 16.7761 8 16.5 8H16H15.5C15.2239 8 15 8.22386 15 8.5V9V9.5C15 9.77614 15.2239 10 15.5 10C15.7761 10 16 10.2239 16 10.5C16 10.7761 16.2239 11 16.5 11C16.7761 11 17 11.2239 17 11.5V12V12.5C17 12.7761 16.7761 13 16.5 13C16.2239 13 16 13.2239 16 13.5C16 13.7761 15.7761 14 15.5 14C15.2239 14 15 14.2239 15 14.5V15V15.5C15 15.7761 15.2239 16 15.5 16H16H16.5C16.7761 16 17 15.7761 17 15.5C17 15.2239 17.2239 15 17.5 15C17.7761 15 18 14.7761 18 14.5C18 14.2239 18.2239 14 18.5 14C18.7761 14 19 13.7761 19 13.5V13V12V11V10.5ZM21 16.5C21 16.2239 21.2239 16 21.5 16C21.7761 16 22 15.7761 22 15.5V15V14V13V12V11V10V9V8.5C22 8.22386 21.7761 8 21.5 8C21.2239 8 21 7.77614 21 7.5C21 7.22386 20.7761 7 20.5 7C20.2239 7 20 6.77614 20 6.5C20 6.22386 19.7761 6 19.5 6C19.2239 6 19 5.77614 19 5.5C19 5.22386 18.7761 5 18.5 5H18H17.5C17.2239 5 17 5.22386 17 5.5V6V6.5C17 6.77614 17.2239 7 17.5 7C17.7761 7 18 7.22386 18 7.5C18 7.77614 18.2239 8 18.5 8C18.7761 8 19 8.22386 19 8.5C19 8.77614 19.2239 9 19.5 9C19.7761 9 20 9.22386 20 9.5V10V11V12V13V14V14.5C20 14.7761 19.7761 15 19.5 15C19.2239 15 19 15.2239 19 15.5C19 15.7761 18.7761 16 18.5 16C18.2239 16 18 16.2239 18 16.5C18 16.7761 17.7761 17 17.5 17C17.2239 17 17 17.2239 17 17.5V18V18.5C17 18.7761 17.2239 19 17.5 19H18H18.5C18.7761 19 19 18.7761 19 18.5C19 18.2239 19.2239 18 19.5 18C19.7761 18 20 17.7761 20 17.5C20 17.2239 20.2239 17 20.5 17C20.7761 17 21 16.7761 21 16.5ZM6 14.5C6 14.2239 5.77614 14 5.5 14C5.22386 14 5 13.7761 5 13.5V13V12V11V10.5C5 10.2239 5.22386 10 5.5 10C5.77614 10 6 9.77614 6 9.5C6 9.22386 6.22386 9 6.5 9C6.77614 9 7 8.77614 7 8.5C7 8.22386 7.22386 8 7.5 8H8H8.5C8.77614 8 9 8.22386 9 8.5V9V9.5C9 9.77614 8.77614 10 8.5 10C8.22386 10 8 10.2239 8 10.5C8 10.7761 7.77614 11 7.5 11C7.22386 11 7 11.2239 7 11.5V12V12.5C7 12.7761 7.22386 13 7.5 13C7.77614 13 8 13.2239 8 13.5C8 13.7761 8.22386 14 8.5 14C8.77614 14 9 14.2239 9 14.5V15V15.5C9 15.7761 8.77614 16 8.5 16H8H7.5C7.22386 16 7 15.7761 7 15.5C7 15.2239 6.77614 15 6.5 15C6.22386 15 6 14.7761 6 14.5ZM11 11.5C11 11.2239 11.2239 11 11.5 11H12H12.5C12.7761 11 13 11.2239 13 11.5V12V12.5C13 12.7761 12.7761 13 12.5 13H12H11.5C11.2239 13 11 12.7761 11 12.5V12V11.5ZM10 10V10.5C10 10.7761 9.77614 11 9.5 11C9.22386 11 9 11.2239 9 11.5V12V12.5C9 12.7761 9.22386 13 9.5 13C9.77614 13 10 13.2239 10 13.5V14V14.5C10 14.7761 10.2239 15 10.5 15H11H12H13H13.5C13.7761 15 14 14.7761 14 14.5V14V13.5C14 13.2239 14.2239 13 14.5 13C14.7761 13 15 12.7761 15 12.5V12V11.5C15 11.2239 14.7761 11 14.5 11C14.2239 11 14 10.7761 14 10.5V10V9.5C14 9.22386 13.7761 9 13.5 9H13H12H11H10.5C10.2239 9 10 9.22386 10 9.5V10Z" fill="white"/>
</svg>
