<svg width="24" height="24" viewBox="0 0 24 24" fill="none" xmlns="http://www.w3.org/2000/svg">
<path fill-rule="evenodd" clip-rule="evenodd" d="M16 3V2.5C16 2.22386 16.2239 2 16.5 2H17H17.5C17.7761 2 18 2.22386 18 2.5C18 2.77614 18.2239 3 18.5 3C18.7761 3 19 3.22386 19 3.5C19 3.77614 19.2239 4 19.5 4C19.7761 4 20 4.22386 20 4.5C20 4.77614 20.2239 5 20.5 5C20.7761 5 21 5.22386 21 5.5V6V6.5C21 6.77614 20.7761 7 20.5 7C20.2239 7 20 7.22386 20 7.5C20 7.77614 19.7761 8 19.5 8C19.2239 8 19 8.22386 19 8.5C19 8.77614 18.7761 9 18.5 9C18.2239 9 18 9.22386 18 9.5C18 9.77614 17.7761 10 17.5 10H17H16.5C16.2239 10 16 9.77614 16 9.5V9V8.5C16 8.22386 16.2239 8 16.5 8C16.7761 8 17 7.77614 17 7.5C17 7.22386 16.7761 7 16.5 7H16H15H14H13H12H11H10H9H8H7.5C7.22386 7 7 7.22386 7 7.5C7 7.77614 6.77614 8 6.5 8C6.22386 8 6 8.22386 6 8.5C6 8.77614 5.77614 9 5.5 9C5.22386 9 5 9.22386 5 9.5V10V11V11.5C5 11.7761 4.77614 12 4.5 12H4H3.5C3.22386 12 3 11.7761 3 11.5V11V10V9V8.5C3 8.22386 3.22386 8 3.5 8C3.77614 8 4 7.77614 4 7.5C4 7.22386 4.22386 7 4.5 7C4.77614 7 5 6.77614 5 6.5C5 6.22386 5.22386 6 5.5 6C5.77614 6 6 5.77614 6 5.5C6 5.22386 6.22386 5 6.5 5H7H8H9H10H11H12H13H14H15H16H16.5C16.7761 5 17 4.77614 17 4.5C17 4.22386 16.7761 4 16.5 4C16.2239 4 16 3.77614 16 3.5V3ZM7.5 20C7.22386 20 7 19.7761 7 19.5C7 19.2239 7.22386 19 7.5 19H8H9H10H11H12H13H14H15H16H17H17.5C17.7761 19 18 18.7761 18 18.5C18 18.2239 18.2239 18 18.5 18C18.7761 18 19 17.7761 19 17.5C19 17.2239 19.2239 17 19.5 17C19.7761 17 20 16.7761 20 16.5C20 16.2239 20.2239 16 20.5 16C20.7761 16 21 15.7761 21 15.5V15V14V13V12.5C21 12.2239 20.7761 12 20.5 12H20H19.5C19.2239 12 19 12.2239 19 12.5V13V14V14.5C19 14.7761 18.7761 15 18.5 15C18.2239 15 18 15.2239 18 15.5C18 15.7761 17.7761 16 17.5 16C17.2239 16 17 16.2239 17 16.5C17 16.7761 16.7761 17 16.5 17H16H15H14H13H12H11H10H9H8H7.5C7.22386 17 7 16.7761 7 16.5C7 16.2239 7.22386 16 7.5 16C7.77614 16 8 15.7761 8 15.5V15V14.5C8 14.2239 7.77614 14 7.5 14H7H6.5C6.22386 14 6 14.2239 6 14.5C6 14.7761 5.77614 15 5.5 15C5.22386 15 5 15.2239 5 15.5C5 15.7761 4.77614 16 4.5 16C4.22386 16 4 16.2239 4 16.5C4 16.7761 3.77614 17 3.5 17C3.22386 17 3 17.2239 3 17.5V18V18.5C3 18.7761 3.22386 19 3.5 19C3.77614 19 4 19.2239 4 19.5C4 19.7761 4.22386 20 4.5 20C4.77614 20 5 20.2239 5 20.5C5 20.7761 5.22386 21 5.5 21C5.77614 21 6 21.2239 6 21.5C6 21.7761 6.22386 22 6.5 22H7H7.5C7.77614 22 8 21.7761 8 21.5V21V20.5C8 20.2239 7.77614 20 7.5 20Z" fill="white"/>
</svg>
