<svg width="24" height="24" viewBox="0 0 24 24" fill="none" xmlns="http://www.w3.org/2000/svg">
<path fill-rule="evenodd" clip-rule="evenodd" d="M11 5H11.5C11.7761 5 12 5.22386 12 5.5V6V7V8V9V10V10.5C12 10.7761 12.2239 11 12.5 11C12.7761 11 13 10.7761 13 10.5C13 10.2239 13.2239 10 13.5 10C13.7761 10 14 9.77614 14 9.5C14 9.22386 14.2239 9 14.5 9C14.7761 9 15 8.77614 15 8.5C15 8.22386 15.2239 8 15.5 8C15.7761 8 16 7.77614 16 7.5C16 7.22386 16.2239 7 16.5 7C16.7761 7 17 6.77614 17 6.5C17 6.22386 17.2239 6 17.5 6C17.7761 6 18 5.77614 18 5.5C18 5.22386 18.2239 5 18.5 5H19H19.5C19.7761 5 20 5.22386 20 5.5V6V7V8V9V10V11V12V13V14V15V16V17V18V18.5C20 18.7761 19.7761 19 19.5 19H19H18.5C18.2239 19 18 18.7761 18 18.5C18 18.2239 17.7761 18 17.5 18C17.2239 18 17 17.7761 17 17.5C17 17.2239 16.7761 17 16.5 17C16.2239 17 16 16.7761 16 16.5C16 16.2239 15.7761 16 15.5 16C15.2239 16 15 15.7761 15 15.5C15 15.2239 14.7761 15 14.5 15C14.2239 15 14 14.7761 14 14.5C14 14.2239 13.7761 14 13.5 14C13.2239 14 13 13.7761 13 13.5C13 13.2239 12.7761 13 12.5 13C12.2239 13 12 13.2239 12 13.5V14V15V16V17V18V18.5C12 18.7761 11.7761 19 11.5 19H11H10.5C10.2239 19 10 18.7761 10 18.5C10 18.2239 9.77614 18 9.5 18C9.22386 18 9 17.7761 9 17.5C9 17.2239 8.77614 17 8.5 17C8.22386 17 8 16.7761 8 16.5C8 16.2239 7.77614 16 7.5 16C7.22386 16 7 15.7761 7 15.5C7 15.2239 6.77614 15 6.5 15C6.22386 15 6 14.7761 6 14.5C6 14.2239 5.77614 14 5.5 14C5.22386 14 5 13.7761 5 13.5C5 13.2239 4.77614 13 4.5 13C4.22386 13 4 12.7761 4 12.5V12V11.5C4 11.2239 4.22386 11 4.5 11C4.77614 11 5 10.7761 5 10.5C5 10.2239 5.22386 10 5.5 10C5.77614 10 6 9.77614 6 9.5C6 9.22386 6.22386 9 6.5 9C6.77614 9 7 8.77614 7 8.5C7 8.22386 7.22386 8 7.5 8C7.77614 8 8 7.77614 8 7.5C8 7.22386 8.22386 7 8.5 7C8.77614 7 9 6.77614 9 6.5C9 6.22386 9.22386 6 9.5 6C9.77614 6 10 5.77614 10 5.5C10 5.22386 10.2239 5 10.5 5H11ZM16.5 14C16.7761 14 17 14.2239 17 14.5C17 14.7761 17.2239 15 17.5 15C17.7761 15 18 14.7761 18 14.5V14V13V12V11V10V9.5C18 9.22386 17.7761 9 17.5 9C17.2239 9 17 9.22386 17 9.5C17 9.77614 16.7761 10 16.5 10C16.2239 10 16 10.2239 16 10.5C16 10.7761 15.7761 11 15.5 11C15.2239 11 15 11.2239 15 11.5V12V12.5C15 12.7761 15.2239 13 15.5 13C15.7761 13 16 13.2239 16 13.5C16 13.7761 16.2239 14 16.5 14ZM9 14.5C9 14.7761 9.22386 15 9.5 15C9.77614 15 10 14.7761 10 14.5V14V13V12V11V10V9.5C10 9.22386 9.77614 9 9.5 9C9.22386 9 9 9.22386 9 9.5C9 9.77614 8.77614 10 8.5 10C8.22386 10 8 10.2239 8 10.5C8 10.7761 7.77614 11 7.5 11C7.22386 11 7 11.2239 7 11.5V12V12.5C7 12.7761 7.22386 13 7.5 13C7.77614 13 8 13.2239 8 13.5C8 13.7761 8.22386 14 8.5 14C8.77614 14 9 14.2239 9 14.5Z" fill="white"/>
</svg>
