<svg width="24" height="24" viewBox="0 0 24 24" fill="none" xmlns="http://www.w3.org/2000/svg">
<path fill-rule="evenodd" clip-rule="evenodd" d="M10 5.5C10 5.77614 10.2239 6 10.5 6C10.7761 6 11 6.22386 11 6.5C11 6.77614 11.2239 7 11.5 7C11.7761 7 12 7.22386 12 7.5C12 7.77614 12.2239 8 12.5 8C12.7761 8 13 8.22386 13 8.5C13 8.77614 13.2239 9 13.5 9C13.7761 9 14 9.22386 14 9.5C14 9.77614 14.2239 10 14.5 10C14.7761 10 15 10.2239 15 10.5C15 10.7761 15.2239 11 15.5 11C15.7761 11 16 11.2239 16 11.5C16 11.7761 16.2239 12 16.5 12C16.7761 12 17 12.2239 17 12.5C17 12.7761 17.2239 13 17.5 13C17.7761 13 18 13.2239 18 13.5C18 13.7761 18.2239 14 18.5 14C18.7761 14 19 14.2239 19 14.5V15V16V17V18V19V20V20.5C19 20.7761 19.2239 21 19.5 21H20H20.5C20.7761 21 21 20.7761 21 20.5V20V19V18V17V16V15V14V13.5C21 13.2239 20.7761 13 20.5 13C20.2239 13 20 12.7761 20 12.5C20 12.2239 19.7761 12 19.5 12C19.2239 12 19 11.7761 19 11.5C19 11.2239 18.7761 11 18.5 11C18.2239 11 18 10.7761 18 10.5C18 10.2239 17.7761 10 17.5 10C17.2239 10 17 9.77614 17 9.5C17 9.22386 16.7761 9 16.5 9C16.2239 9 16 8.77614 16 8.5C16 8.22386 15.7761 8 15.5 8C15.2239 8 15 7.77614 15 7.5C15 7.22386 14.7761 7 14.5 7C14.2239 7 14 6.77614 14 6.5C14 6.22386 13.7761 6 13.5 6C13.2239 6 13 5.77614 13 5.5C13 5.22386 12.7761 5 12.5 5C12.2239 5 12 4.77614 12 4.5C12 4.22386 11.7761 4 11.5 4C11.2239 4 11 3.77614 11 3.5C11 3.22386 10.7761 3 10.5 3H10H9H8H7H6H5H4H3.5C3.22386 3 3 3.22386 3 3.5V4V4.5C3 4.77614 3.22386 5 3.5 5H4H5H6H7H8H9H9.5C9.77614 5 10 5.22386 10 5.5ZM10 13.5C10 13.7761 10.2239 14 10.5 14C10.7761 14 11 14.2239 11 14.5C11 14.7761 11.2239 15 11.5 15C11.7761 15 12 15.2239 12 15.5C12 15.7761 12.2239 16 12.5 16C12.7761 16 13 16.2239 13 16.5V17V18V19V20V20.5C13 20.7761 13.2239 21 13.5 21H14H14.5C14.7761 21 15 20.7761 15 20.5V20V19V18V17V16V15.5C15 15.2239 14.7761 15 14.5 15C14.2239 15 14 14.7761 14 14.5C14 14.2239 13.7761 14 13.5 14C13.2239 14 13 13.7761 13 13.5C13 13.2239 12.7761 13 12.5 13C12.2239 13 12 12.7761 12 12.5C12 12.2239 11.7761 12 11.5 12C11.2239 12 11 11.7761 11 11.5C11 11.2239 10.7761 11 10.5 11C10.2239 11 10 10.7761 10 10.5C10 10.2239 9.77614 10 9.5 10C9.22386 10 9 9.77614 9 9.5C9 9.22386 8.77614 9 8.5 9H8H7H6H5H4H3.5C3.22386 9 3 9.22386 3 9.5V10V10.5C3 10.7761 3.22386 11 3.5 11H4H5H6H7H7.5C7.77614 11 8 11.2239 8 11.5C8 11.7761 8.22386 12 8.5 12C8.77614 12 9 12.2239 9 12.5C9 12.7761 9.22386 13 9.5 13C9.77614 13 10 13.2239 10 13.5ZM6 17.5C6 17.2239 5.77614 17 5.5 17C5.22386 17 5 17.2239 5 17.5V18V18.5C5 18.7761 5.22386 19 5.5 19H6H6.5C6.77614 19 7 18.7761 7 18.5C7 18.2239 6.77614 18 6.5 18C6.22386 18 6 17.7761 6 17.5ZM9 18V19V20V20.5C9 20.7761 8.77614 21 8.5 21H8H7H6H5H4H3.5C3.22386 21 3 20.7761 3 20.5V20V19V18V17V16V15.5C3 15.2239 3.22386 15 3.5 15H4H5H6H6.5C6.77614 15 7 15.2239 7 15.5C7 15.7761 7.22386 16 7.5 16C7.77614 16 8 16.2239 8 16.5C8 16.7761 8.22386 17 8.5 17C8.77614 17 9 17.2239 9 17.5V18Z" fill="white"/>
</svg>
