<svg width="24" height="24" viewBox="0 0 24 24" fill="none" xmlns="http://www.w3.org/2000/svg">
<path fill-rule="evenodd" clip-rule="evenodd" d="M4 3H3.5C3.22386 3 3 3.22386 3 3.5V4V5V6V7V8V9V10V11V12V13V14V15V16V17V18V19V20V20.5C3 20.7761 3.22386 21 3.5 21H4H5H6H7H8H9H10H11H12H13H14H15H16H17H18H19H20H20.5C20.7761 21 21 20.7761 21 20.5V20V19V18V17V16V15V14V13V12V11V10V9V8V7.5C21 7.22386 20.7761 7 20.5 7C20.2239 7 20 6.77614 20 6.5C20 6.22386 19.7761 6 19.5 6C19.2239 6 19 5.77614 19 5.5C19 5.22386 18.7761 5 18.5 5C18.2239 5 18 4.77614 18 4.5C18 4.22386 17.7761 4 17.5 4C17.2239 4 17 3.77614 17 3.5C17 3.22386 16.7761 3 16.5 3H16H15H14H13H12H11H10H9H8H7H6H5H4ZM19 8.5C19 8.22386 18.7761 8 18.5 8C18.2239 8 18 7.77614 18 7.5C18 7.22386 17.7761 7 17.5 7C17.2239 7 17 6.77614 17 6.5C17 6.22386 16.7761 6 16.5 6C16.2239 6 16 5.77614 16 5.5C16 5.22386 15.7761 5 15.5 5H15H14H13H12H11H10H9H8H7H6H5.5C5.22386 5 5 5.22386 5 5.5V6V7V8V9V10V11V12V13V14V15V16V17V18V18.5C5 18.7761 5.22386 19 5.5 19H6H6.5C6.77614 19 7 18.7761 7 18.5V18V17V16V15.5C7 15.2239 7.22386 15 7.5 15H8H9H10H11H12H13H14H15H16H16.5C16.7761 15 17 15.2239 17 15.5V16V17V18V18.5C17 18.7761 17.2239 19 17.5 19H18H18.5C18.7761 19 19 18.7761 19 18.5V18V17V16V15V14V13V12V11V10V9V8.5ZM15 18V18.5C15 18.7761 14.7761 19 14.5 19H14H13H12H11H10H9.5C9.22386 19 9 18.7761 9 18.5V18V17.5C9 17.2239 9.22386 17 9.5 17H10H11H12H13H14H14.5C14.7761 17 15 17.2239 15 17.5V18ZM7 8.5C7 8.22386 7.22386 8 7.5 8H8H9H10H11H12H13H14H15H16H16.5C16.7761 8 17 8.22386 17 8.5V9V10V11V12V13V13.5C17 13.7761 16.7761 14 16.5 14H16H15H14H13H12H11H10H9H8H7.5C7.22386 14 7 13.7761 7 13.5V13V12V11V10V9V8.5ZM9.5 10C9.22386 10 9 10.2239 9 10.5V11V11.5C9 11.7761 9.22386 12 9.5 12H10H11H12H13H14H14.5C14.7761 12 15 11.7761 15 11.5V11V10.5C15 10.2239 14.7761 10 14.5 10H14H13H12H11H10H9.5Z" fill="white"/>
</svg>
