<svg width="24" height="24" viewBox="0 0 24 24" fill="none" xmlns="http://www.w3.org/2000/svg">
<path fill-rule="evenodd" clip-rule="evenodd" d="M5 2.5C5 2.22386 5.22386 2 5.5 2H6H6.5C6.77614 2 7 2.22386 7 2.5C7 2.77614 7.22386 3 7.5 3H8H8.5C8.77614 3 9 3.22386 9 3.5V4V4.5C9 4.77614 9.22386 5 9.5 5C9.77614 5 10 5.22386 10 5.5V6V6.5C10 6.77614 9.77614 7 9.5 7C9.22386 7 9 7.22386 9 7.5C9 7.77614 9.22386 8 9.5 8C9.77614 8 10 8.22386 10 8.5C10 8.77614 10.2239 9 10.5 9C10.7761 9 11 9.22386 11 9.5C11 9.77614 11.2239 10 11.5 10H12H12.5C12.7761 10 13 9.77614 13 9.5C13 9.22386 13.2239 9 13.5 9C13.7761 9 14 8.77614 14 8.5C14 8.22386 14.2239 8 14.5 8C14.7761 8 15 7.77614 15 7.5C15 7.22386 15.2239 7 15.5 7C15.7761 7 16 6.77614 16 6.5C16 6.22386 16.2239 6 16.5 6C16.7761 6 17 5.77614 17 5.5C17 5.22386 17.2239 5 17.5 5C17.7761 5 18 4.77614 18 4.5C18 4.22386 18.2239 4 18.5 4C18.7761 4 19 3.77614 19 3.5C19 3.22386 19.2239 3 19.5 3H20H20.5C20.7761 3 21 3.22386 21 3.5V4V4.5C21 4.77614 20.7761 5 20.5 5C20.2239 5 20 5.22386 20 5.5C20 5.77614 19.7761 6 19.5 6C19.2239 6 19 6.22386 19 6.5C19 6.77614 18.7761 7 18.5 7C18.2239 7 18 7.22386 18 7.5C18 7.77614 17.7761 8 17.5 8C17.2239 8 17 8.22386 17 8.5C17 8.77614 16.7761 9 16.5 9C16.2239 9 16 9.22386 16 9.5C16 9.77614 15.7761 10 15.5 10C15.2239 10 15 10.2239 15 10.5C15 10.7761 14.7761 11 14.5 11C14.2239 11 14 11.2239 14 11.5C14 11.7761 13.7761 12 13.5 12C13.2239 12 13 12.2239 13 12.5C13 12.7761 12.7761 13 12.5 13C12.2239 13 12 13.2239 12 13.5C12 13.7761 11.7761 14 11.5 14C11.2239 14 11 14.2239 11 14.5C11 14.7761 10.7761 15 10.5 15C10.2239 15 10 15.2239 10 15.5C10 15.7761 9.77614 16 9.5 16C9.22386 16 9 16.2239 9 16.5C9 16.7761 9.22386 17 9.5 17C9.77614 17 10 17.2239 10 17.5V18V18.5C10 18.7761 9.77614 19 9.5 19C9.22386 19 9 19.2239 9 19.5V20V20.5C9 20.7761 8.77614 21 8.5 21H8H7.5C7.22386 21 7 21.2239 7 21.5C7 21.7761 6.77614 22 6.5 22H6H5.5C5.22386 22 5 21.7761 5 21.5C5 21.2239 4.77614 21 4.5 21H4H3.5C3.22386 21 3 20.7761 3 20.5V20V19.5C3 19.2239 2.77614 19 2.5 19C2.22386 19 2 18.7761 2 18.5V18V17.5C2 17.2239 2.22386 17 2.5 17C2.77614 17 3 16.7761 3 16.5V16V15.5C3 15.2239 3.22386 15 3.5 15H4H4.5C4.77614 15 5 14.7761 5 14.5C5 14.2239 5.22386 14 5.5 14H6H6.5C6.77614 14 7 14.2239 7 14.5C7 14.7761 7.22386 15 7.5 15C7.77614 15 8 14.7761 8 14.5C8 14.2239 8.22386 14 8.5 14C8.77614 14 9 13.7761 9 13.5C9 13.2239 9.22386 13 9.5 13C9.77614 13 10 12.7761 10 12.5V12V11.5C10 11.2239 9.77614 11 9.5 11C9.22386 11 9 10.7761 9 10.5C9 10.2239 8.77614 10 8.5 10C8.22386 10 8 9.77614 8 9.5C8 9.22386 7.77614 9 7.5 9C7.22386 9 7 9.22386 7 9.5C7 9.77614 6.77614 10 6.5 10H6H5.5C5.22386 10 5 9.77614 5 9.5C5 9.22386 4.77614 9 4.5 9H4H3.5C3.22386 9 3 8.77614 3 8.5V8V7.5C3 7.22386 2.77614 7 2.5 7C2.22386 7 2 6.77614 2 6.5V6V5.5C2 5.22386 2.22386 5 2.5 5C2.77614 5 3 4.77614 3 4.5V4V3.5C3 3.22386 3.22386 3 3.5 3H4H4.5C4.77614 3 5 2.77614 5 2.5ZM6 4H5.5C5.22386 4 5 4.22386 5 4.5C5 4.77614 4.77614 5 4.5 5C4.22386 5 4 5.22386 4 5.5V6V6.5C4 6.77614 4.22386 7 4.5 7C4.77614 7 5 7.22386 5 7.5C5 7.77614 5.22386 8 5.5 8H6H6.5C6.77614 8 7 7.77614 7 7.5C7 7.22386 7.22386 7 7.5 7C7.77614 7 8 6.77614 8 6.5V6V5.5C8 5.22386 7.77614 5 7.5 5C7.22386 5 7 4.77614 7 4.5C7 4.22386 6.77614 4 6.5 4H6ZM5.5 16C5.22386 16 5 16.2239 5 16.5C5 16.7761 4.77614 17 4.5 17C4.22386 17 4 17.2239 4 17.5V18V18.5C4 18.7761 4.22386 19 4.5 19C4.77614 19 5 19.2239 5 19.5C5 19.7761 5.22386 20 5.5 20H6H6.5C6.77614 20 7 19.7761 7 19.5C7 19.2239 7.22386 19 7.5 19C7.77614 19 8 18.7761 8 18.5V18V17.5C8 17.2239 7.77614 17 7.5 17C7.22386 17 7 16.7761 7 16.5C7 16.2239 6.77614 16 6.5 16H6H5.5ZM15 14H14.5C14.2239 14 14 14.2239 14 14.5V15V15.5C14 15.7761 14.2239 16 14.5 16C14.7761 16 15 16.2239 15 16.5C15 16.7761 15.2239 17 15.5 17C15.7761 17 16 17.2239 16 17.5C16 17.7761 16.2239 18 16.5 18C16.7761 18 17 18.2239 17 18.5C17 18.7761 17.2239 19 17.5 19C17.7761 19 18 19.2239 18 19.5C18 19.7761 18.2239 20 18.5 20C18.7761 20 19 20.2239 19 20.5C19 20.7761 19.2239 21 19.5 21H20H20.5C20.7761 21 21 20.7761 21 20.5V20V19.5C21 19.2239 20.7761 19 20.5 19C20.2239 19 20 18.7761 20 18.5C20 18.2239 19.7761 18 19.5 18C19.2239 18 19 17.7761 19 17.5C19 17.2239 18.7761 17 18.5 17C18.2239 17 18 16.7761 18 16.5C18 16.2239 17.7761 16 17.5 16C17.2239 16 17 15.7761 17 15.5C17 15.2239 16.7761 15 16.5 15C16.2239 15 16 14.7761 16 14.5C16 14.2239 15.7761 14 15.5 14H15Z" fill="white"/>
</svg>
