<svg width="24" height="24" viewBox="0 0 24 24" fill="none" xmlns="http://www.w3.org/2000/svg">
<path fill-rule="evenodd" clip-rule="evenodd" d="M11 2.5C11 2.22386 11.2239 2 11.5 2H12H12.5C12.7761 2 13 2.22386 13 2.5C13 2.77614 13.2239 3 13.5 3C13.7761 3 14 3.22386 14 3.5C14 3.77614 14.2239 4 14.5 4C14.7761 4 15 4.22386 15 4.5C15 4.77614 15.2239 5 15.5 5C15.7761 5 16 4.77614 16 4.5C16 4.22386 16.2239 4 16.5 4H17H17.5C17.7761 4 18 4.22386 18 4.5C18 4.77614 18.2239 5 18.5 5C18.7761 5 19 5.22386 19 5.5C19 5.77614 19.2239 6 19.5 6C19.7761 6 20 6.22386 20 6.5V7V7.5C20 7.77614 19.7761 8 19.5 8C19.2239 8 19 8.22386 19 8.5C19 8.77614 19.2239 9 19.5 9C19.7761 9 20 9.22386 20 9.5C20 9.77614 20.2239 10 20.5 10C20.7761 10 21 10.2239 21 10.5C21 10.7761 21.2239 11 21.5 11C21.7761 11 22 11.2239 22 11.5V12V12.5C22 12.7761 21.7761 13 21.5 13C21.2239 13 21 13.2239 21 13.5C21 13.7761 20.7761 14 20.5 14C20.2239 14 20 14.2239 20 14.5C20 14.7761 19.7761 15 19.5 15C19.2239 15 19 15.2239 19 15.5C19 15.7761 19.2239 16 19.5 16C19.7761 16 20 16.2239 20 16.5V17V17.5C20 17.7761 19.7761 18 19.5 18C19.2239 18 19 18.2239 19 18.5C19 18.7761 18.7761 19 18.5 19C18.2239 19 18 19.2239 18 19.5C18 19.7761 17.7761 20 17.5 20H17H16.5C16.2239 20 16 19.7761 16 19.5C16 19.2239 15.7761 19 15.5 19C15.2239 19 15 19.2239 15 19.5C15 19.7761 14.7761 20 14.5 20C14.2239 20 14 20.2239 14 20.5C14 20.7761 13.7761 21 13.5 21C13.2239 21 13 21.2239 13 21.5C13 21.7761 12.7761 22 12.5 22H12H11.5C11.2239 22 11 21.7761 11 21.5C11 21.2239 10.7761 21 10.5 21C10.2239 21 10 20.7761 10 20.5C10 20.2239 9.77614 20 9.5 20C9.22386 20 9 19.7761 9 19.5C9 19.2239 8.77614 19 8.5 19C8.22386 19 8 19.2239 8 19.5C8 19.7761 7.77614 20 7.5 20H7H6.5C6.22386 20 6 19.7761 6 19.5C6 19.2239 5.77614 19 5.5 19C5.22386 19 5 18.7761 5 18.5C5 18.2239 4.77614 18 4.5 18C4.22386 18 4 17.7761 4 17.5V17V16.5C4 16.2239 4.22386 16 4.5 16C4.77614 16 5 15.7761 5 15.5C5 15.2239 4.77614 15 4.5 15C4.22386 15 4 14.7761 4 14.5C4 14.2239 3.77614 14 3.5 14C3.22386 14 3 13.7761 3 13.5C3 13.2239 2.77614 13 2.5 13C2.22386 13 2 12.7761 2 12.5V12V11.5C2 11.2239 2.22386 11 2.5 11C2.77614 11 3 10.7761 3 10.5C3 10.2239 3.22386 10 3.5 10C3.77614 10 4 9.77614 4 9.5C4 9.22386 4.22386 9 4.5 9C4.77614 9 5 8.77614 5 8.5C5 8.22386 4.77614 8 4.5 8C4.22386 8 4 7.77614 4 7.5V7V6.5C4 6.22386 4.22386 6 4.5 6C4.77614 6 5 5.77614 5 5.5C5 5.22386 5.22386 5 5.5 5C5.77614 5 6 4.77614 6 4.5C6 4.22386 6.22386 4 6.5 4H7H7.5C7.77614 4 8 4.22386 8 4.5C8 4.77614 8.22386 5 8.5 5C8.77614 5 9 4.77614 9 4.5C9 4.22386 9.22386 4 9.5 4C9.77614 4 10 3.77614 10 3.5C10 3.22386 10.2239 3 10.5 3C10.7761 3 11 2.77614 11 2.5ZM7.5 17C7.22386 17 7 16.7761 7 16.5V16V15V14.5C7 14.2239 6.77614 14 6.5 14C6.22386 14 6 13.7761 6 13.5C6 13.2239 5.77614 13 5.5 13C5.22386 13 5 12.7761 5 12.5V12V11.5C5 11.2239 5.22386 11 5.5 11C5.77614 11 6 10.7761 6 10.5C6 10.2239 6.22386 10 6.5 10C6.77614 10 7 9.77614 7 9.5V9V8V7.5C7 7.22386 7.22386 7 7.5 7H8H9H9.5C9.77614 7 10 6.77614 10 6.5C10 6.22386 10.2239 6 10.5 6C10.7761 6 11 5.77614 11 5.5C11 5.22386 11.2239 5 11.5 5H12H12.5C12.7761 5 13 5.22386 13 5.5C13 5.77614 13.2239 6 13.5 6C13.7761 6 14 6.22386 14 6.5C14 6.77614 14.2239 7 14.5 7H15H16H16.5C16.7761 7 17 7.22386 17 7.5V8V9V9.5C17 9.77614 17.2239 10 17.5 10C17.7761 10 18 10.2239 18 10.5C18 10.7761 18.2239 11 18.5 11C18.7761 11 19 11.2239 19 11.5V12V12.5C19 12.7761 18.7761 13 18.5 13C18.2239 13 18 13.2239 18 13.5C18 13.7761 17.7761 14 17.5 14C17.2239 14 17 14.2239 17 14.5V15V16V16.5C17 16.7761 16.7761 17 16.5 17H16H15H14.5C14.2239 17 14 17.2239 14 17.5C14 17.7761 13.7761 18 13.5 18C13.2239 18 13 18.2239 13 18.5C13 18.7761 12.7761 19 12.5 19H12H11.5C11.2239 19 11 18.7761 11 18.5C11 18.2239 10.7761 18 10.5 18C10.2239 18 10 17.7761 10 17.5C10 17.2239 9.77614 17 9.5 17H9H8H7.5ZM12 9H11H10.5C10.2239 9 10 9.22386 10 9.5C10 9.77614 9.77614 10 9.5 10C9.22386 10 9 10.2239 9 10.5V11V12V13V13.5C9 13.7761 9.22386 14 9.5 14C9.77614 14 10 14.2239 10 14.5C10 14.7761 10.2239 15 10.5 15H11H12H13H13.5C13.7761 15 14 14.7761 14 14.5C14 14.2239 14.2239 14 14.5 14C14.7761 14 15 13.7761 15 13.5V13V12V11V10.5C15 10.2239 14.7761 10 14.5 10C14.2239 10 14 9.77614 14 9.5C14 9.22386 13.7761 9 13.5 9H13H12ZM11 12.5C11 12.7761 11.2239 13 11.5 13H12H12.5C12.7761 13 13 12.7761 13 12.5V12V11.5C13 11.2239 12.7761 11 12.5 11H12H11.5C11.2239 11 11 11.2239 11 11.5V12V12.5Z" fill="white"/>
</svg>
