<svg width="24" height="24" viewBox="0 0 24 24" fill="none" xmlns="http://www.w3.org/2000/svg">
<path fill-rule="evenodd" clip-rule="evenodd" d="M12.5 3C12.7761 3 13 3.22386 13 3.5C13 3.77614 13.2239 4 13.5 4C13.7761 4 14 4.22386 14 4.5C14 4.77614 14.2239 5 14.5 5C14.7761 5 15 5.22386 15 5.5C15 5.77614 15.2239 6 15.5 6C15.7761 6 16 6.22386 16 6.5C16 6.77614 16.2239 7 16.5 7C16.7761 7 17 7.22386 17 7.5V8V8.5C17 8.77614 16.7761 9 16.5 9H16H15.5C15.2239 9 15 8.77614 15 8.5C15 8.22386 14.7761 8 14.5 8C14.2239 8 14 7.77614 14 7.5C14 7.22386 13.7761 7 13.5 7C13.2239 7 13 7.22386 13 7.5V8V9V10V11V12V13V14V15V15.5C13 15.7761 12.7761 16 12.5 16H12H11.5C11.2239 16 11 15.7761 11 15.5V15V14V13V12V11V10V9V8V7.5C11 7.22386 10.7761 7 10.5 7C10.2239 7 10 7.22386 10 7.5C10 7.77614 9.77614 8 9.5 8C9.22386 8 9 8.22386 9 8.5C9 8.77614 8.77614 9 8.5 9H8H7.5C7.22386 9 7 8.77614 7 8.5V8V7.5C7 7.22386 7.22386 7 7.5 7C7.77614 7 8 6.77614 8 6.5C8 6.22386 8.22386 6 8.5 6C8.77614 6 9 5.77614 9 5.5C9 5.22386 9.22386 5 9.5 5C9.77614 5 10 4.77614 10 4.5C10 4.22386 10.2239 4 10.5 4C10.7761 4 11 3.77614 11 3.5C11 3.22386 11.2239 3 11.5 3H12H12.5ZM5 13V14V15V16V17V18V18.5C5 18.7761 5.22386 19 5.5 19H6H7H8H9H10H11H12H13H14H15H16H17H18H18.5C18.7761 19 19 18.7761 19 18.5V18V17V16V15V14V13V12.5C19 12.2239 19.2239 12 19.5 12H20H20.5C20.7761 12 21 12.2239 21 12.5V13V14V15V16V17V18V19V20V20.5C21 20.7761 20.7761 21 20.5 21H20H19H18H17H16H15H14H13H12H11H10H9H8H7H6H5H4H3.5C3.22386 21 3 20.7761 3 20.5V20V19V18V17V16V15V14V13V12.5C3 12.2239 3.22386 12 3.5 12H4H4.5C4.77614 12 5 12.2239 5 12.5V13Z" fill="white"/>
</svg>
