<svg width="24" height="24" viewBox="0 0 24 24" fill="none" xmlns="http://www.w3.org/2000/svg">
<path fill-rule="evenodd" clip-rule="evenodd" d="M12 2H11H10H9H8H7H6H5.5C5.22386 2 5 2.22386 5 2.5V3V3.5C5 3.77614 4.77614 4 4.5 4C4.22386 4 4 4.22386 4 4.5V5V5.5C4 5.77614 3.77614 6 3.5 6C3.22386 6 3 6.22386 3 6.5V7V8V9V10V11V12V13V14V15V16V17V18V19V20V20.5C3 20.7761 3.22386 21 3.5 21H4H5H6H7H8H9H10H11H12H13H14H15H16H17H18H19H20H20.5C20.7761 21 21 20.7761 21 20.5V20V19V18V17V16V15V14V13V12V11V10V9V8V7V6.5C21 6.22386 20.7761 6 20.5 6C20.2239 6 20 5.77614 20 5.5V5V4.5C20 4.22386 19.7761 4 19.5 4C19.2239 4 19 3.77614 19 3.5V3V2.5C19 2.22386 18.7761 2 18.5 2H18H17H16H15H14H13H12ZM7 4.5C7 4.77614 6.77614 5 6.5 5C6.22386 5 6 5.22386 6 5.5V6V6.5C6 6.77614 6.22386 7 6.5 7H7H8H9H10H11H12H13H14H15H16H17H17.5C17.7761 7 18 6.77614 18 6.5V6V5.5C18 5.22386 17.7761 5 17.5 5C17.2239 5 17 4.77614 17 4.5C17 4.22386 16.7761 4 16.5 4H16H15H14H13H12H11H10H9H8H7.5C7.22386 4 7 4.22386 7 4.5ZM5 9.5C5 9.22386 5.22386 9 5.5 9H6H7H8H9H10H11H12H13H14H15H16H17H18H18.5C18.7761 9 19 9.22386 19 9.5V10V11V12V13V14V15V16V17V18V18.5C19 18.7761 18.7761 19 18.5 19H18H17H16H15H14H13H12H11H10H9H8H7H6H5.5C5.22386 19 5 18.7761 5 18.5V18V17V16V15V14V13V12V11V10V9.5ZM12 13H11H10.5C10.2239 13 10 12.7761 10 12.5C10 12.2239 9.77614 12 9.5 12H9H8.5C8.22386 12 8 12.2239 8 12.5V13V13.5C8 13.7761 8.22386 14 8.5 14H9H9.5C9.77614 14 10 14.2239 10 14.5C10 14.7761 10.2239 15 10.5 15H11H12H13H13.5C13.7761 15 14 14.7761 14 14.5C14 14.2239 14.2239 14 14.5 14H15H15.5C15.7761 14 16 13.7761 16 13.5V13V12.5C16 12.2239 15.7761 12 15.5 12H15H14.5C14.2239 12 14 12.2239 14 12.5C14 12.7761 13.7761 13 13.5 13H13H12Z" fill="white"/>
</svg>
