<svg width="24" height="24" viewBox="0 0 24 24" fill="none" xmlns="http://www.w3.org/2000/svg">
<path fill-rule="evenodd" clip-rule="evenodd" d="M3 3.5C3 3.22386 3.22386 3 3.5 3H4H4.5C4.77614 3 5 3.22386 5 3.5C5 3.77614 5.22386 4 5.5 4C5.77614 4 6 4.22386 6 4.5C6 4.77614 6.22386 5 6.5 5C6.77614 5 7 5.22386 7 5.5C7 5.77614 7.22386 6 7.5 6C7.77614 6 8 6.22386 8 6.5C8 6.77614 8.22386 7 8.5 7C8.77614 7 9 7.22386 9 7.5C9 7.77614 9.22386 8 9.5 8C9.77614 8 10 8.22386 10 8.5C10 8.77614 10.2239 9 10.5 9C10.7761 9 11 9.22386 11 9.5C11 9.77614 10.7761 10 10.5 10C10.2239 10 10 10.2239 10 10.5C10 10.7761 9.77614 11 9.5 11C9.22386 11 9 10.7761 9 10.5C9 10.2239 8.77614 10 8.5 10C8.22386 10 8 9.77614 8 9.5C8 9.22386 7.77614 9 7.5 9C7.22386 9 7 8.77614 7 8.5C7 8.22386 6.77614 8 6.5 8C6.22386 8 6 7.77614 6 7.5C6 7.22386 5.77614 7 5.5 7C5.22386 7 5 6.77614 5 6.5C5 6.22386 4.77614 6 4.5 6C4.22386 6 4 5.77614 4 5.5C4 5.22386 3.77614 5 3.5 5C3.22386 5 3 4.77614 3 4.5V4V3.5ZM15 14H15.5C15.7761 14 16 14.2239 16 14.5C16 14.7761 16.2239 15 16.5 15C16.7761 15 17 15.2239 17 15.5C17 15.7761 17.2239 16 17.5 16C17.7761 16 18 16.2239 18 16.5C18 16.7761 18.2239 17 18.5 17C18.7761 17 19 16.7761 19 16.5V16V15V14.5C19 14.2239 19.2239 14 19.5 14H20H20.5C20.7761 14 21 14.2239 21 14.5V15V16V17V18V19V20V20.5C21 20.7761 20.7761 21 20.5 21H20H19H18H17H16H15H14.5C14.2239 21 14 20.7761 14 20.5V20V19.5C14 19.2239 14.2239 19 14.5 19H15H16H16.5C16.7761 19 17 18.7761 17 18.5C17 18.2239 16.7761 18 16.5 18C16.2239 18 16 17.7761 16 17.5C16 17.2239 15.7761 17 15.5 17C15.2239 17 15 16.7761 15 16.5C15 16.2239 14.7761 16 14.5 16C14.2239 16 14 15.7761 14 15.5V15V14.5C14 14.2239 14.2239 14 14.5 14H15ZM16 9.5C16 9.77614 15.7761 10 15.5 10C15.2239 10 15 10.2239 15 10.5C15 10.7761 14.7761 11 14.5 11C14.2239 11 14 11.2239 14 11.5C14 11.7761 13.7761 12 13.5 12C13.2239 12 13 12.2239 13 12.5C13 12.7761 12.7761 13 12.5 13C12.2239 13 12 13.2239 12 13.5C12 13.7761 11.7761 14 11.5 14C11.2239 14 11 14.2239 11 14.5C11 14.7761 10.7761 15 10.5 15C10.2239 15 10 15.2239 10 15.5C10 15.7761 9.77614 16 9.5 16C9.22386 16 9 16.2239 9 16.5C9 16.7761 8.77614 17 8.5 17C8.22386 17 8 17.2239 8 17.5C8 17.7761 7.77614 18 7.5 18C7.22386 18 7 18.2239 7 18.5C7 18.7761 6.77614 19 6.5 19C6.22386 19 6 19.2239 6 19.5C6 19.7761 5.77614 20 5.5 20C5.22386 20 5 20.2239 5 20.5C5 20.7761 4.77614 21 4.5 21H4H3.5C3.22386 21 3 20.7761 3 20.5V20V19.5C3 19.2239 3.22386 19 3.5 19C3.77614 19 4 18.7761 4 18.5C4 18.2239 4.22386 18 4.5 18C4.77614 18 5 17.7761 5 17.5C5 17.2239 5.22386 17 5.5 17C5.77614 17 6 16.7761 6 16.5C6 16.2239 6.22386 16 6.5 16C6.77614 16 7 15.7761 7 15.5C7 15.2239 7.22386 15 7.5 15C7.77614 15 8 14.7761 8 14.5C8 14.2239 8.22386 14 8.5 14C8.77614 14 9 13.7761 9 13.5C9 13.2239 9.22386 13 9.5 13C9.77614 13 10 12.7761 10 12.5C10 12.2239 10.2239 12 10.5 12C10.7761 12 11 11.7761 11 11.5C11 11.2239 11.2239 11 11.5 11C11.7761 11 12 10.7761 12 10.5C12 10.2239 12.2239 10 12.5 10C12.7761 10 13 9.77614 13 9.5C13 9.22386 13.2239 9 13.5 9C13.7761 9 14 8.77614 14 8.5C14 8.22386 14.2239 8 14.5 8C14.7761 8 15 7.77614 15 7.5C15 7.22386 15.2239 7 15.5 7C15.7761 7 16 6.77614 16 6.5C16 6.22386 16.2239 6 16.5 6C16.7761 6 17 5.77614 17 5.5C17 5.22386 16.7761 5 16.5 5H16H15H14.5C14.2239 5 14 4.77614 14 4.5V4V3.5C14 3.22386 14.2239 3 14.5 3H15H16H17H18H19H20H20.5C20.7761 3 21 3.22386 21 3.5V4V5V6V7V8V9V9.5C21 9.77614 20.7761 10 20.5 10H20H19.5C19.2239 10 19 9.77614 19 9.5V9V8V7.5C19 7.22386 18.7761 7 18.5 7C18.2239 7 18 7.22386 18 7.5C18 7.77614 17.7761 8 17.5 8C17.2239 8 17 8.22386 17 8.5C17 8.77614 16.7761 9 16.5 9C16.2239 9 16 9.22386 16 9.5Z" fill="white"/>
</svg>
