<svg width="24" height="24" viewBox="0 0 24 24" fill="none" xmlns="http://www.w3.org/2000/svg">
<path fill-rule="evenodd" clip-rule="evenodd" d="M5 5H4.5C4.22386 5 4 5.22386 4 5.5V6V7V8V9V10V11V12V13V14V15V16V17V18V18.5C4 18.7761 4.22386 19 4.5 19H5H5.5C5.77614 19 6 18.7761 6 18.5V18V17V16V15V14V13V12V11V10V9V8V7V6V5.5C6 5.22386 5.77614 5 5.5 5H5ZM19 19H18.5C18.2239 19 18 18.7761 18 18.5C18 18.2239 17.7761 18 17.5 18C17.2239 18 17 17.7761 17 17.5C17 17.2239 16.7761 17 16.5 17H16H15.5C15.2239 17 15 16.7761 15 16.5C15 16.2239 14.7761 16 14.5 16H14H13.5C13.2239 16 13 15.7761 13 15.5C13 15.2239 12.7761 15 12.5 15H12H11.5C11.2239 15 11 14.7761 11 14.5C11 14.2239 10.7761 14 10.5 14H10H9.5C9.22386 14 9 13.7761 9 13.5C9 13.2239 8.77614 13 8.5 13C8.22386 13 8 12.7761 8 12.5V12V11.5C8 11.2239 8.22386 11 8.5 11C8.77614 11 9 10.7761 9 10.5C9 10.2239 9.22386 10 9.5 10H10H10.5C10.7761 10 11 9.77614 11 9.5C11 9.22386 11.2239 9 11.5 9H12H12.5C12.7761 9 13 8.77614 13 8.5C13 8.22386 13.2239 8 13.5 8H14H14.5C14.7761 8 15 7.77614 15 7.5C15 7.22386 15.2239 7 15.5 7H16H16.5C16.7761 7 17 6.77614 17 6.5C17 6.22386 17.2239 6 17.5 6C17.7761 6 18 5.77614 18 5.5C18 5.22386 18.2239 5 18.5 5H19H19.5C19.7761 5 20 5.22386 20 5.5V6V7V8V9V10V11V12V13V14V15V16V17V18V18.5C20 18.7761 19.7761 19 19.5 19H19ZM12.5 13C12.7761 13 13 13.2239 13 13.5C13 13.7761 13.2239 14 13.5 14H14H14.5C14.7761 14 15 14.2239 15 14.5C15 14.7761 15.2239 15 15.5 15H16H16.5C16.7761 15 17 15.2239 17 15.5C17 15.7761 17.2239 16 17.5 16C17.7761 16 18 15.7761 18 15.5V15V14V13V12V11V10V9V8.5C18 8.22386 17.7761 8 17.5 8C17.2239 8 17 8.22386 17 8.5C17 8.77614 16.7761 9 16.5 9H16H15.5C15.2239 9 15 9.22386 15 9.5C15 9.77614 14.7761 10 14.5 10H14H13.5C13.2239 10 13 10.2239 13 10.5C13 10.7761 12.7761 11 12.5 11H12H11.5C11.2239 11 11 11.2239 11 11.5V12V12.5C11 12.7761 11.2239 13 11.5 13H12H12.5Z" fill="white"/>
</svg>
