<svg width="24" height="24" viewBox="0 0 24 24" fill="none" xmlns="http://www.w3.org/2000/svg">
<path fill-rule="evenodd" clip-rule="evenodd" d="M5 3H4.5C4.22386 3 4 3.22386 4 3.5V4V5V6V7V8V9V10V10.5C4 10.7761 4.22386 11 4.5 11H5H5.5C5.77614 11 6 10.7761 6 10.5V10V9V8V7V6V5V4V3.5C6 3.22386 5.77614 3 5.5 3H5ZM2 13.5C2 13.2239 2.22386 13 2.5 13H3H4H5H6H7H7.5C7.77614 13 8 13.2239 8 13.5V14V14.5C8 14.7761 7.77614 15 7.5 15H7H6.5C6.22386 15 6 15.2239 6 15.5V16V17V18V19V20V20.5C6 20.7761 5.77614 21 5.5 21H5H4.5C4.22386 21 4 20.7761 4 20.5V20V19V18V17V16V15.5C4 15.2239 3.77614 15 3.5 15H3H2.5C2.22386 15 2 14.7761 2 14.5V14V13.5ZM11 20V19V18V17V16V15V14V13V12V11.5C11 11.2239 11.2239 11 11.5 11H12H12.5C12.7761 11 13 11.2239 13 11.5V12V13V14V15V16V17V18V19V20V20.5C13 20.7761 12.7761 21 12.5 21H12H11.5C11.2239 21 11 20.7761 11 20.5V20ZM18 19V20V20.5C18 20.7761 18.2239 21 18.5 21H19H19.5C19.7761 21 20 20.7761 20 20.5V20V19V18V17V16V15.5C20 15.2239 20.2239 15 20.5 15H21H21.5C21.7761 15 22 14.7761 22 14.5V14V13.5C22 13.2239 21.7761 13 21.5 13H21H20H19H18H17H16.5C16.2239 13 16 13.2239 16 13.5V14V14.5C16 14.7761 16.2239 15 16.5 15H17H17.5C17.7761 15 18 15.2239 18 15.5V16V17V18V19ZM18 9V10V10.5C18 10.7761 18.2239 11 18.5 11H19H19.5C19.7761 11 20 10.7761 20 10.5V10V9V8V7V6V5V4V3.5C20 3.22386 19.7761 3 19.5 3H19H18.5C18.2239 3 18 3.22386 18 3.5V4V5V6V7V8V9ZM12 3H11.5C11.2239 3 11 3.22386 11 3.5V4V5V6V6.5C11 6.77614 10.7761 7 10.5 7H10H9.5C9.22386 7 9 7.22386 9 7.5V8V8.5C9 8.77614 9.22386 9 9.5 9H10H11H12H13H14H14.5C14.7761 9 15 8.77614 15 8.5V8V7.5C15 7.22386 14.7761 7 14.5 7H14H13.5C13.2239 7 13 6.77614 13 6.5V6V5V4V3.5C13 3.22386 12.7761 3 12.5 3H12Z" fill="white"/>
</svg>
