<svg width="24" height="24" viewBox="0 0 24 24" fill="none" xmlns="http://www.w3.org/2000/svg">
<path fill-rule="evenodd" clip-rule="evenodd" d="M6 2H5.5C5.22386 2 5 2.22386 5 2.5V3V4V5V6V7V8V9V10V11V12V13V14V15V16V17V18V19V20V21V21.5C5 21.7761 5.22386 22 5.5 22H6H7H8H9H10H11H12H13H14H15H16H17H18H18.5C18.7761 22 19 21.7761 19 21.5V21V20V19V18V17V16V15V14V13V12V11V10V9V8V7V6V5V4V3V2.5C19 2.22386 18.7761 2 18.5 2H18H17H16H15H14H13H12H11H10H9H8H7H6ZM10 4.5C10 4.22386 9.77614 4 9.5 4H9H8H7.5C7.22386 4 7 4.22386 7 4.5V5V6V7V8V9V10V11V12V13V14V15V16V17V18V19V19.5C7 19.7761 7.22386 20 7.5 20H8H9H10H11H12H13H14H15H16H16.5C16.7761 20 17 19.7761 17 19.5V19V18V17V16V15V14V13V12V11V10V9V8V7V6V5V4.5C17 4.22386 16.7761 4 16.5 4H16H15H14.5C14.2239 4 14 4.22386 14 4.5C14 4.77614 13.7761 5 13.5 5H13H12H11H10.5C10.2239 5 10 4.77614 10 4.5Z" fill="white"/>
</svg>
