<svg width="24" height="24" viewBox="0 0 24 24" fill="none" xmlns="http://www.w3.org/2000/svg">
<path fill-rule="evenodd" clip-rule="evenodd" d="M11 2.5C11 2.22386 11.2239 2 11.5 2H12H12.5C12.7761 2 13 2.22386 13 2.5V3V3.5C13 3.77614 13.2239 4 13.5 4C13.7761 4 14 4.22386 14 4.5V5V5.5C14 5.77614 14.2239 6 14.5 6C14.7761 6 15 6.22386 15 6.5V7V7.5C15 7.77614 15.2239 8 15.5 8H16H17H18H18.5C18.7761 8 19 8.22386 19 8.5C19 8.77614 19.2239 9 19.5 9H20H21H21.5C21.7761 9 22 9.22386 22 9.5V10V10.5C22 10.7761 21.7761 11 21.5 11C21.2239 11 21 11.2239 21 11.5C21 11.7761 20.7761 12 20.5 12C20.2239 12 20 12.2239 20 12.5C20 12.7761 19.7761 13 19.5 13C19.2239 13 19 13.2239 19 13.5C19 13.7761 18.7761 14 18.5 14C18.2239 14 18 14.2239 18 14.5V15V16V17V18V18.5C18 18.7761 18.2239 19 18.5 19C18.7761 19 19 19.2239 19 19.5V20V21V21.5C19 21.7761 18.7761 22 18.5 22H18H17.5C17.2239 22 17 21.7761 17 21.5C17 21.2239 16.7761 21 16.5 21C16.2239 21 16 20.7761 16 20.5C16 20.2239 15.7761 20 15.5 20H15H14.5C14.2239 20 14 19.7761 14 19.5C14 19.2239 13.7761 19 13.5 19H13H12H11H10.5C10.2239 19 10 19.2239 10 19.5C10 19.7761 9.77614 20 9.5 20H9H8.5C8.22386 20 8 20.2239 8 20.5C8 20.7761 7.77614 21 7.5 21C7.22386 21 7 21.2239 7 21.5C7 21.7761 6.77614 22 6.5 22H6H5.5C5.22386 22 5 21.7761 5 21.5V21V20V19.5C5 19.2239 5.22386 19 5.5 19C5.77614 19 6 18.7761 6 18.5V18V17V16V15V14.5C6 14.2239 5.77614 14 5.5 14C5.22386 14 5 13.7761 5 13.5C5 13.2239 4.77614 13 4.5 13C4.22386 13 4 12.7761 4 12.5C4 12.2239 3.77614 12 3.5 12C3.22386 12 3 11.7761 3 11.5C3 11.2239 2.77614 11 2.5 11C2.22386 11 2 10.7761 2 10.5V10V9.5C2 9.22386 2.22386 9 2.5 9H3H4H4.5C4.77614 9 5 8.77614 5 8.5C5 8.22386 5.22386 8 5.5 8H6H7H8H8.5C8.77614 8 9 7.77614 9 7.5V7V6.5C9 6.22386 9.22386 6 9.5 6C9.77614 6 10 5.77614 10 5.5V5V4.5C10 4.22386 10.2239 4 10.5 4C10.7761 4 11 3.77614 11 3.5V3V2.5ZM14 9V8.5C14 8.22386 13.7761 8 13.5 8C13.2239 8 13 7.77614 13 7.5V7V6.5C13 6.22386 12.7761 6 12.5 6H12H11.5C11.2239 6 11 6.22386 11 6.5V7V7.5C11 7.77614 10.7761 8 10.5 8C10.2239 8 10 8.22386 10 8.5V9V9.5C10 9.77614 9.77614 10 9.5 10H9H8H7H6.5C6.22386 10 6 10.2239 6 10.5V11V11.5C6 11.7761 6.22386 12 6.5 12C6.77614 12 7 12.2239 7 12.5C7 12.7761 7.22386 13 7.5 13H8H8.5C8.77614 13 9 13.2239 9 13.5V14V14.5C9 14.7761 8.77614 15 8.5 15C8.22386 15 8 15.2239 8 15.5V16V17V17.5C8 17.7761 8.22386 18 8.5 18C8.77614 18 9 17.7761 9 17.5C9 17.2239 9.22386 17 9.5 17H10H10.5C10.7761 17 11 16.7761 11 16.5C11 16.2239 11.2239 16 11.5 16H12H12.5C12.7761 16 13 16.2239 13 16.5C13 16.7761 13.2239 17 13.5 17H14H14.5C14.7761 17 15 17.2239 15 17.5C15 17.7761 15.2239 18 15.5 18C15.7761 18 16 17.7761 16 17.5V17V16V15.5C16 15.2239 15.7761 15 15.5 15C15.2239 15 15 14.7761 15 14.5V14V13.5C15 13.2239 15.2239 13 15.5 13H16H16.5C16.7761 13 17 12.7761 17 12.5C17 12.2239 17.2239 12 17.5 12C17.7761 12 18 11.7761 18 11.5V11V10.5C18 10.2239 17.7761 10 17.5 10H17H16H15H14.5C14.2239 10 14 9.77614 14 9.5V9Z" fill="white"/>
</svg>
