<svg width="24" height="24" viewBox="0 0 24 24" fill="none" xmlns="http://www.w3.org/2000/svg">
<path fill-rule="evenodd" clip-rule="evenodd" d="M13 2.5C13 2.22386 12.7761 2 12.5 2H12H11.5C11.2239 2 11 2.22386 11 2.5V3V4V4.5C11 4.77614 11.2239 5 11.5 5H12H12.5C12.7761 5 13 4.77614 13 4.5V4V3V2.5ZM19 4H18.5C18.2239 4 18 4.22386 18 4.5C18 4.77614 17.7761 5 17.5 5C17.2239 5 17 5.22386 17 5.5V6V6.5C17 6.77614 17.2239 7 17.5 7H18H18.5C18.7761 7 19 6.77614 19 6.5C19 6.22386 19.2239 6 19.5 6C19.7761 6 20 5.77614 20 5.5V5V4.5C20 4.22386 19.7761 4 19.5 4H19ZM3 11H2.5C2.22386 11 2 11.2239 2 11.5V12V12.5C2 12.7761 2.22386 13 2.5 13H3H4H4.5C4.77614 13 5 12.7761 5 12.5V12V11.5C5 11.2239 4.77614 11 4.5 11H4H3ZM20 11H19.5C19.2239 11 19 11.2239 19 11.5V12V12.5C19 12.7761 19.2239 13 19.5 13H20H21H21.5C21.7761 13 22 12.7761 22 12.5V12V11.5C22 11.2239 21.7761 11 21.5 11H21H20ZM6.5 19C6.22386 19 6 19.2239 6 19.5C6 19.7761 5.77614 20 5.5 20H5H4.5C4.22386 20 4 19.7761 4 19.5V19V18.5C4 18.2239 4.22386 18 4.5 18C4.77614 18 5 17.7761 5 17.5C5 17.2239 5.22386 17 5.5 17H6H6.5C6.77614 17 7 17.2239 7 17.5V18V18.5C7 18.7761 6.77614 19 6.5 19ZM11.5 22C11.2239 22 11 21.7761 11 21.5V21V20V19.5C11 19.2239 11.2239 19 11.5 19H12H12.5C12.7761 19 13 19.2239 13 19.5V20V21V21.5C13 21.7761 12.7761 22 12.5 22H12H11.5ZM4 4.5C4 4.22386 4.22386 4 4.5 4H5H5.5C5.77614 4 6 4.22386 6 4.5C6 4.77614 6.22386 5 6.5 5C6.77614 5 7 5.22386 7 5.5V6V6.5C7 6.77614 6.77614 7 6.5 7H6H5.5C5.22386 7 5 6.77614 5 6.5C5 6.22386 4.77614 6 4.5 6C4.22386 6 4 5.77614 4 5.5V5V4.5ZM20 19V18.5C20 18.2239 19.7761 18 19.5 18C19.2239 18 19 17.7761 19 17.5C19 17.2239 18.7761 17 18.5 17H18H17.5C17.2239 17 17 17.2239 17 17.5V18V18.5C17 18.7761 17.2239 19 17.5 19C17.7761 19 18 19.2239 18 19.5C18 19.7761 18.2239 20 18.5 20H19H19.5C19.7761 20 20 19.7761 20 19.5V19ZM9.5 14C9.22386 14 9 13.7761 9 13.5V13V12V11V10.5C9 10.2239 9.22386 10 9.5 10C9.77614 10 10 9.77614 10 9.5C10 9.22386 10.2239 9 10.5 9H11H12H13H13.5C13.7761 9 14 9.22386 14 9.5C14 9.77614 14.2239 10 14.5 10C14.7761 10 15 10.2239 15 10.5V11V12V13V13.5C15 13.7761 14.7761 14 14.5 14C14.2239 14 14 14.2239 14 14.5C14 14.7761 13.7761 15 13.5 15H13H12H11H10.5C10.2239 15 10 14.7761 10 14.5C10 14.2239 9.77614 14 9.5 14ZM8.5 16C8.77614 16 9 16.2239 9 16.5C9 16.7761 9.22386 17 9.5 17H10H11H12H13H14H14.5C14.7761 17 15 16.7761 15 16.5C15 16.2239 15.2239 16 15.5 16C15.7761 16 16 15.7761 16 15.5C16 15.2239 16.2239 15 16.5 15C16.7761 15 17 14.7761 17 14.5V14V13V12V11V10V9.5C17 9.22386 16.7761 9 16.5 9C16.2239 9 16 8.77614 16 8.5C16 8.22386 15.7761 8 15.5 8C15.2239 8 15 7.77614 15 7.5C15 7.22386 14.7761 7 14.5 7H14H13H12H11H10H9.5C9.22386 7 9 7.22386 9 7.5C9 7.77614 8.77614 8 8.5 8C8.22386 8 8 8.22386 8 8.5C8 8.77614 7.77614 9 7.5 9C7.22386 9 7 9.22386 7 9.5V10V11V12V13V14V14.5C7 14.7761 7.22386 15 7.5 15C7.77614 15 8 15.2239 8 15.5C8 15.7761 8.22386 16 8.5 16Z" fill="white"/>
</svg>
