<svg width="24" height="24" viewBox="0 0 24 24" fill="none" xmlns="http://www.w3.org/2000/svg">
<path fill-rule="evenodd" clip-rule="evenodd" d="M5 2H4.5C4.22386 2 4 2.22386 4 2.5V3V4V5V6V7V8V9V10V11V12V13V14V15V16V17V18V19V20V21V21.5C4 21.7761 4.22386 22 4.5 22H5H6H7H8H9H10H11H12H13H14H15H16H17H18H19H19.5C19.7761 22 20 21.7761 20 21.5V21V20V19V18V17V16V15V14V13V12V11V10V9V8V7V6V5V4V3V2.5C20 2.22386 19.7761 2 19.5 2H19H18H17H16H15H14H13H12H11H10H9H8H7H6H5ZM6 7V6V5V4.5C6 4.22386 6.22386 4 6.5 4H7H8H8.5C8.77614 4 9 4.22386 9 4.5C9 4.77614 9.22386 5 9.5 5H10H11H12H13H14H14.5C14.7761 5 15 4.77614 15 4.5C15 4.22386 15.2239 4 15.5 4H16H17H17.5C17.7761 4 18 4.22386 18 4.5V5V6V7V8V9V10V11V12V13V14V15V16V17V18V19V19.5C18 19.7761 17.7761 20 17.5 20H17H16H15H14H13H12H11H10H9H8H7H6.5C6.22386 20 6 19.7761 6 19.5V19V18V17V16V15V14V13V12V11V10V9V8V7Z" fill="white"/>
</svg>
