<svg width="24" height="24" viewBox="0 0 24 24" fill="none" xmlns="http://www.w3.org/2000/svg">
<path fill-rule="evenodd" clip-rule="evenodd" d="M3 3.5C3 3.22386 3.22386 3 3.5 3H4H5H6H7H8H9H10H11H12H12.5C12.7761 3 13 3.22386 13 3.5C13 3.77614 13.2239 4 13.5 4C13.7761 4 14 4.22386 14 4.5C14 4.77614 14.2239 5 14.5 5C14.7761 5 15 5.22386 15 5.5C15 5.77614 15.2239 6 15.5 6C15.7761 6 16 6.22386 16 6.5C16 6.77614 16.2239 7 16.5 7C16.7761 7 17 7.22386 17 7.5C17 7.77614 17.2239 8 17.5 8C17.7761 8 18 8.22386 18 8.5C18 8.77614 18.2239 9 18.5 9C18.7761 9 19 9.22386 19 9.5C19 9.77614 19.2239 10 19.5 10C19.7761 10 20 10.2239 20 10.5C20 10.7761 20.2239 11 20.5 11C20.7761 11 21 11.2239 21 11.5C21 11.7761 21.2239 12 21.5 12C21.7761 12 22 12.2239 22 12.5V13V13.5C22 13.7761 21.7761 14 21.5 14C21.2239 14 21 14.2239 21 14.5C21 14.7761 20.7761 15 20.5 15C20.2239 15 20 15.2239 20 15.5C20 15.7761 19.7761 16 19.5 16C19.2239 16 19 16.2239 19 16.5C19 16.7761 18.7761 17 18.5 17C18.2239 17 18 17.2239 18 17.5C18 17.7761 17.7761 18 17.5 18C17.2239 18 17 18.2239 17 18.5C17 18.7761 16.7761 19 16.5 19C16.2239 19 16 19.2239 16 19.5C16 19.7761 15.7761 20 15.5 20C15.2239 20 15 20.2239 15 20.5C15 20.7761 14.7761 21 14.5 21C14.2239 21 14 21.2239 14 21.5C14 21.7761 13.7761 22 13.5 22H13H12.5C12.2239 22 12 21.7761 12 21.5C12 21.2239 11.7761 21 11.5 21C11.2239 21 11 20.7761 11 20.5C11 20.2239 10.7761 20 10.5 20C10.2239 20 10 19.7761 10 19.5C10 19.2239 9.77614 19 9.5 19C9.22386 19 9 18.7761 9 18.5C9 18.2239 8.77614 18 8.5 18C8.22386 18 8 17.7761 8 17.5C8 17.2239 7.77614 17 7.5 17C7.22386 17 7 16.7761 7 16.5C7 16.2239 6.77614 16 6.5 16C6.22386 16 6 15.7761 6 15.5C6 15.2239 5.77614 15 5.5 15C5.22386 15 5 14.7761 5 14.5C5 14.2239 4.77614 14 4.5 14C4.22386 14 4 13.7761 4 13.5C4 13.2239 3.77614 13 3.5 13C3.22386 13 3 12.7761 3 12.5V12V11V10V9V8V7V6V5V4V3.5ZM12 18.5C12 18.2239 11.7761 18 11.5 18C11.2239 18 11 17.7761 11 17.5C11 17.2239 10.7761 17 10.5 17C10.2239 17 10 16.7761 10 16.5C10 16.2239 9.77614 16 9.5 16C9.22386 16 9 15.7761 9 15.5C9 15.2239 8.77614 15 8.5 15C8.22386 15 8 14.7761 8 14.5C8 14.2239 7.77614 14 7.5 14C7.22386 14 7 13.7761 7 13.5C7 13.2239 6.77614 13 6.5 13C6.22386 13 6 12.7761 6 12.5C6 12.2239 5.77614 12 5.5 12C5.22386 12 5 11.7761 5 11.5V11V10V9V8V7V6V5.5C5 5.22386 5.22386 5 5.5 5H6H7H8H9H10H11H11.5C11.7761 5 12 5.22386 12 5.5C12 5.77614 12.2239 6 12.5 6C12.7761 6 13 6.22386 13 6.5C13 6.77614 13.2239 7 13.5 7C13.7761 7 14 7.22386 14 7.5C14 7.77614 14.2239 8 14.5 8C14.7761 8 15 8.22386 15 8.5C15 8.77614 15.2239 9 15.5 9C15.7761 9 16 9.22386 16 9.5C16 9.77614 16.2239 10 16.5 10C16.7761 10 17 10.2239 17 10.5C17 10.7761 17.2239 11 17.5 11C17.7761 11 18 11.2239 18 11.5C18 11.7761 18.2239 12 18.5 12C18.7761 12 19 12.2239 19 12.5V13V13.5C19 13.7761 18.7761 14 18.5 14C18.2239 14 18 14.2239 18 14.5C18 14.7761 17.7761 15 17.5 15C17.2239 15 17 15.2239 17 15.5C17 15.7761 16.7761 16 16.5 16C16.2239 16 16 16.2239 16 16.5C16 16.7761 15.7761 17 15.5 17C15.2239 17 15 17.2239 15 17.5C15 17.7761 14.7761 18 14.5 18C14.2239 18 14 18.2239 14 18.5C14 18.7761 13.7761 19 13.5 19H13H12.5C12.2239 19 12 18.7761 12 18.5ZM10 8.5C10 8.22386 9.77614 8 9.5 8H9H8.5C8.22386 8 8 8.22386 8 8.5V9V9.5C8 9.77614 8.22386 10 8.5 10H9H9.5C9.77614 10 10 9.77614 10 9.5V9V8.5Z" fill="white"/>
</svg>
