<svg width="24" height="24" viewBox="0 0 24 24" fill="none" xmlns="http://www.w3.org/2000/svg">
<path fill-rule="evenodd" clip-rule="evenodd" d="M4 6V5.5C4 5.22386 4.22386 5 4.5 5H5H5.5C5.77614 5 6 5.22386 6 5.5C6 5.77614 6.22386 6 6.5 6C6.77614 6 7 6.22386 7 6.5C7 6.77614 7.22386 7 7.5 7C7.77614 7 8 7.22386 8 7.5C8 7.77614 8.22386 8 8.5 8C8.77614 8 9 8.22386 9 8.5C9 8.77614 9.22386 9 9.5 9C9.77614 9 10 9.22386 10 9.5C10 9.77614 10.2239 10 10.5 10C10.7761 10 11 10.2239 11 10.5C11 10.7761 11.2239 11 11.5 11C11.7761 11 12 11.2239 12 11.5V12V12.5C12 12.7761 11.7761 13 11.5 13C11.2239 13 11 13.2239 11 13.5C11 13.7761 10.7761 14 10.5 14C10.2239 14 10 14.2239 10 14.5C10 14.7761 9.77614 15 9.5 15C9.22386 15 9 15.2239 9 15.5C9 15.7761 8.77614 16 8.5 16C8.22386 16 8 16.2239 8 16.5C8 16.7761 7.77614 17 7.5 17C7.22386 17 7 17.2239 7 17.5C7 17.7761 6.77614 18 6.5 18C6.22386 18 6 18.2239 6 18.5C6 18.7761 5.77614 19 5.5 19H5H4.5C4.22386 19 4 18.7761 4 18.5V18V17.5C4 17.2239 4.22386 17 4.5 17C4.77614 17 5 16.7761 5 16.5C5 16.2239 5.22386 16 5.5 16C5.77614 16 6 15.7761 6 15.5C6 15.2239 6.22386 15 6.5 15C6.77614 15 7 14.7761 7 14.5C7 14.2239 7.22386 14 7.5 14C7.77614 14 8 13.7761 8 13.5C8 13.2239 8.22386 13 8.5 13C8.77614 13 9 12.7761 9 12.5V12V11.5C9 11.2239 8.77614 11 8.5 11C8.22386 11 8 10.7761 8 10.5C8 10.2239 7.77614 10 7.5 10C7.22386 10 7 9.77614 7 9.5C7 9.22386 6.77614 9 6.5 9C6.22386 9 6 8.77614 6 8.5C6 8.22386 5.77614 8 5.5 8C5.22386 8 5 7.77614 5 7.5C5 7.22386 4.77614 7 4.5 7C4.22386 7 4 6.77614 4 6.5V6ZM17 21H16H15H14H13H12.5C12.2239 21 12 20.7761 12 20.5V20V19.5C12 19.2239 12.2239 19 12.5 19H13H14H15H16H17H18H19H19.5C19.7761 19 20 19.2239 20 19.5V20V20.5C20 20.7761 19.7761 21 19.5 21H19H18H17Z" fill="white"/>
</svg>
