<svg width="24" height="24" viewBox="0 0 24 24" fill="none" xmlns="http://www.w3.org/2000/svg">
<path fill-rule="evenodd" clip-rule="evenodd" d="M7 3H6H5.5C5.22386 3 5 3.22386 5 3.5C5 3.77614 4.77614 4 4.5 4C4.22386 4 4 4.22386 4 4.5C4 4.77614 3.77614 5 3.5 5C3.22386 5 3 5.22386 3 5.5V6V7V8V9V10V11V12V12.5C3 12.7761 3.22386 13 3.5 13C3.77614 13 4 13.2239 4 13.5C4 13.7761 4.22386 14 4.5 14C4.77614 14 5 14.2239 5 14.5C5 14.7761 5.22386 15 5.5 15H6H7H8H8.5C8.77614 15 9 15.2239 9 15.5V16V17V18V19V19.5C9 19.7761 9.22386 20 9.5 20H10H10.5C10.7761 20 11 20.2239 11 20.5C11 20.7761 11.2239 21 11.5 21H12H13H14H14.5C14.7761 21 15 20.7761 15 20.5C15 20.2239 15.2239 20 15.5 20C15.7761 20 16 19.7761 16 19.5V19V18V17.5C16 17.2239 16.2239 17 16.5 17C16.7761 17 17 16.7761 17 16.5V16V15.5C17 15.2239 17.2239 15 17.5 15C17.7761 15 18 14.7761 18 14.5V14V13.5C18 13.2239 18.2239 13 18.5 13H19H20H21H21.5C21.7761 13 22 12.7761 22 12.5V12V11V10V9V8V7V6V5V4V3.5C22 3.22386 21.7761 3 21.5 3H21H20H19H18H17H16H15H14H13H12H11H10H9H8H7ZM5 7V8V9V10V11V11.5C5 11.7761 5.22386 12 5.5 12C5.77614 12 6 12.2239 6 12.5C6 12.7761 6.22386 13 6.5 13H7H8H9H10H10.5C10.7761 13 11 13.2239 11 13.5V14V15V16V17V17.5C11 17.7761 11.2239 18 11.5 18C11.7761 18 12 18.2239 12 18.5C12 18.7761 12.2239 19 12.5 19H13H13.5C13.7761 19 14 18.7761 14 18.5V18V17V16.5C14 16.2239 14.2239 16 14.5 16C14.7761 16 15 15.7761 15 15.5V15V14.5C15 14.2239 15.2239 14 15.5 14C15.7761 14 16 13.7761 16 13.5V13V12V11V10V9V8V7V6V5.5C16 5.22386 15.7761 5 15.5 5H15H14H13H12H11H10H9H8H7H6.5C6.22386 5 6 5.22386 6 5.5C6 5.77614 5.77614 6 5.5 6C5.22386 6 5 6.22386 5 6.5V7ZM19 11H18.5C18.2239 11 18 10.7761 18 10.5V10V9V8V7V6V5.5C18 5.22386 18.2239 5 18.5 5H19H19.5C19.7761 5 20 5.22386 20 5.5V6V7V8V9V10V10.5C20 10.7761 19.7761 11 19.5 11H19Z" fill="white"/>
</svg>
