<svg width="24" height="24" viewBox="0 0 24 24" fill="none" xmlns="http://www.w3.org/2000/svg">
<path fill-rule="evenodd" clip-rule="evenodd" d="M5 6.5C5 6.22386 5.22386 6 5.5 6H6H7H8H9H10H11H12H13H14H15H16H17H18H18.5C18.7761 6 19 6.22386 19 6.5C19 6.77614 19.2239 7 19.5 7C19.7761 7 20 7.22386 20 7.5C20 7.77614 20.2239 8 20.5 8C20.7761 8 21 8.22386 21 8.5C21 8.77614 21.2239 9 21.5 9C21.7761 9 22 9.22386 22 9.5V10V11V12V13V14V14.5C22 14.7761 21.7761 15 21.5 15C21.2239 15 21 15.2239 21 15.5C21 15.7761 20.7761 16 20.5 16C20.2239 16 20 16.2239 20 16.5C20 16.7761 19.7761 17 19.5 17C19.2239 17 19 17.2239 19 17.5C19 17.7761 18.7761 18 18.5 18H18H17H16H15H14H13H12H11H10H9H8H7H6H5.5C5.22386 18 5 17.7761 5 17.5C5 17.2239 4.77614 17 4.5 17C4.22386 17 4 16.7761 4 16.5C4 16.2239 3.77614 16 3.5 16C3.22386 16 3 15.7761 3 15.5C3 15.2239 2.77614 15 2.5 15C2.22386 15 2 14.7761 2 14.5V14V13V12V11V10V9.5C2 9.22386 2.22386 9 2.5 9C2.77614 9 3 8.77614 3 8.5C3 8.22386 3.22386 8 3.5 8C3.77614 8 4 7.77614 4 7.5C4 7.22386 4.22386 7 4.5 7C4.77614 7 5 6.77614 5 6.5ZM4.5 10C4.77614 10 5 9.77614 5 9.5C5 9.22386 5.22386 9 5.5 9C5.77614 9 6 8.77614 6 8.5C6 8.22386 6.22386 8 6.5 8H7H8H9H10H11H12H13H14H15H16H17H17.5C17.7761 8 18 8.22386 18 8.5C18 8.77614 18.2239 9 18.5 9C18.7761 9 19 9.22386 19 9.5C19 9.77614 19.2239 10 19.5 10C19.7761 10 20 10.2239 20 10.5V11V12V13V13.5C20 13.7761 19.7761 14 19.5 14C19.2239 14 19 14.2239 19 14.5C19 14.7761 18.7761 15 18.5 15C18.2239 15 18 15.2239 18 15.5C18 15.7761 17.7761 16 17.5 16H17H16H15H14H13H12H11H10H9H8H7H6.5C6.22386 16 6 15.7761 6 15.5C6 15.2239 5.77614 15 5.5 15C5.22386 15 5 14.7761 5 14.5C5 14.2239 4.77614 14 4.5 14C4.22386 14 4 13.7761 4 13.5V13V12V11V10.5C4 10.2239 4.22386 10 4.5 10ZM14 10.5C14 10.2239 14.2239 10 14.5 10C14.7761 10 15 9.77614 15 9.5C15 9.22386 15.2239 9 15.5 9H16H16.5C16.7761 9 17 9.22386 17 9.5C17 9.77614 17.2239 10 17.5 10C17.7761 10 18 10.2239 18 10.5C18 10.7761 18.2239 11 18.5 11C18.7761 11 19 11.2239 19 11.5V12V12.5C19 12.7761 18.7761 13 18.5 13C18.2239 13 18 13.2239 18 13.5C18 13.7761 17.7761 14 17.5 14C17.2239 14 17 14.2239 17 14.5C17 14.7761 16.7761 15 16.5 15H16H15.5C15.2239 15 15 14.7761 15 14.5C15 14.2239 14.7761 14 14.5 14C14.2239 14 14 13.7761 14 13.5C14 13.2239 13.7761 13 13.5 13C13.2239 13 13 12.7761 13 12.5V12V11.5C13 11.2239 13.2239 11 13.5 11C13.7761 11 14 10.7761 14 10.5ZM15.5 11C15.2239 11 15 11.2239 15 11.5V12V12.5C15 12.7761 15.2239 13 15.5 13H16H16.5C16.7761 13 17 12.7761 17 12.5V12V11.5C17 11.2239 16.7761 11 16.5 11H16H15.5Z" fill="white"/>
</svg>
