<svg width="24" height="24" viewBox="0 0 24 24" fill="none" xmlns="http://www.w3.org/2000/svg">
<path fill-rule="evenodd" clip-rule="evenodd" d="M21 6.5C21 6.22386 20.7761 6 20.5 6H20H19H18H17H16H15H14H13.5C13.2239 6 13 6.22386 13 6.5V7V7.5C13 7.77614 13.2239 8 13.5 8H14H15H16H16.5C16.7761 8 17 8.22386 17 8.5C17 8.77614 16.7761 9 16.5 9C16.2239 9 16 9.22386 16 9.5C16 9.77614 15.7761 10 15.5 10C15.2239 10 15 10.2239 15 10.5C15 10.7761 14.7761 11 14.5 11C14.2239 11 14 11.2239 14 11.5C14 11.7761 13.7761 12 13.5 12C13.2239 12 13 12.2239 13 12.5C13 12.7761 12.7761 13 12.5 13H12H11.5C11.2239 13 11 12.7761 11 12.5C11 12.2239 10.7761 12 10.5 12C10.2239 12 10 11.7761 10 11.5C10 11.2239 9.77614 11 9.5 11H9H8.5C8.22386 11 8 11.2239 8 11.5C8 11.7761 7.77614 12 7.5 12C7.22386 12 7 12.2239 7 12.5C7 12.7761 6.77614 13 6.5 13C6.22386 13 6 13.2239 6 13.5C6 13.7761 5.77614 14 5.5 14C5.22386 14 5 14.2239 5 14.5C5 14.7761 4.77614 15 4.5 15C4.22386 15 4 15.2239 4 15.5C4 15.7761 3.77614 16 3.5 16C3.22386 16 3 16.2239 3 16.5V17V17.5C3 17.7761 3.22386 18 3.5 18H4H4.5C4.77614 18 5 17.7761 5 17.5C5 17.2239 5.22386 17 5.5 17C5.77614 17 6 16.7761 6 16.5C6 16.2239 6.22386 16 6.5 16C6.77614 16 7 15.7761 7 15.5C7 15.2239 7.22386 15 7.5 15C7.77614 15 8 14.7761 8 14.5C8 14.2239 8.22386 14 8.5 14H9H9.5C9.77614 14 10 14.2239 10 14.5C10 14.7761 10.2239 15 10.5 15C10.7761 15 11 15.2239 11 15.5C11 15.7761 11.2239 16 11.5 16H12H12.5C12.7761 16 13 15.7761 13 15.5C13 15.2239 13.2239 15 13.5 15C13.7761 15 14 14.7761 14 14.5C14 14.2239 14.2239 14 14.5 14C14.7761 14 15 13.7761 15 13.5C15 13.2239 15.2239 13 15.5 13C15.7761 13 16 12.7761 16 12.5C16 12.2239 16.2239 12 16.5 12C16.7761 12 17 11.7761 17 11.5C17 11.2239 17.2239 11 17.5 11C17.7761 11 18 10.7761 18 10.5C18 10.2239 18.2239 10 18.5 10C18.7761 10 19 10.2239 19 10.5V11V12V13V13.5C19 13.7761 19.2239 14 19.5 14H20H20.5C20.7761 14 21 13.7761 21 13.5V13V12V11V10V9V8V7V6.5Z" fill="white"/>
</svg>
