<svg width="24" height="24" viewBox="0 0 24 24" fill="none" xmlns="http://www.w3.org/2000/svg">
<path fill-rule="evenodd" clip-rule="evenodd" d="M7 3H7.5C7.77614 3 8 3.22386 8 3.5C8 3.77614 8.22386 4 8.5 4C8.77614 4 9 4.22386 9 4.5C9 4.77614 9.22386 5 9.5 5C9.77614 5 10 5.22386 10 5.5C10 5.77614 10.2239 6 10.5 6C10.7761 6 11 6.22386 11 6.5C11 6.77614 11.2239 7 11.5 7H12H12.5C12.7761 7 13 6.77614 13 6.5C13 6.22386 13.2239 6 13.5 6C13.7761 6 14 5.77614 14 5.5C14 5.22386 14.2239 5 14.5 5C14.7761 5 15 4.77614 15 4.5C15 4.22386 15.2239 4 15.5 4C15.7761 4 16 3.77614 16 3.5C16 3.22386 16.2239 3 16.5 3H17H17.5C17.7761 3 18 3.22386 18 3.5V4V4.5C18 4.77614 17.7761 5 17.5 5C17.2239 5 17 5.22386 17 5.5C17 5.77614 16.7761 6 16.5 6C16.2239 6 16 6.22386 16 6.5C16 6.77614 15.7761 7 15.5 7C15.2239 7 15 7.22386 15 7.5C15 7.77614 15.2239 8 15.5 8H16H17H18H19H20H20.5C20.7761 8 21 8.22386 21 8.5V9V10V11V12V13V14V15V16V17V18V19V19.5C21 19.7761 20.7761 20 20.5 20H20H19H18H17H16H15H14H13H12H11H10H9H8H7H6H5H4H3.5C3.22386 20 3 19.7761 3 19.5V19V18V17V16V15V14V13V12V11V10V9V8.5C3 8.22386 3.22386 8 3.5 8H4H5H6H7H8H8.5C8.77614 8 9 7.77614 9 7.5C9 7.22386 8.77614 7 8.5 7C8.22386 7 8 6.77614 8 6.5C8 6.22386 7.77614 6 7.5 6C7.22386 6 7 5.77614 7 5.5C7 5.22386 6.77614 5 6.5 5C6.22386 5 6 4.77614 6 4.5V4V3.5C6 3.22386 6.22386 3 6.5 3H7ZM5 10.5C5 10.2239 5.22386 10 5.5 10H6H7H8H9H10H11H12H13H14H15H16H17H18H18.5C18.7761 10 19 10.2239 19 10.5V11V12V13V14V15V16V17V17.5C19 17.7761 18.7761 18 18.5 18H18H17H16H15H14H13H12H11H10H9H8H7H6H5.5C5.22386 18 5 17.7761 5 17.5V17V16V15V14V13V12V11V10.5Z" fill="white"/>
</svg>
