<svg width="24" height="24" viewBox="0 0 24 24" fill="none" xmlns="http://www.w3.org/2000/svg">
<path fill-rule="evenodd" clip-rule="evenodd" d="M13 3H12H11H10H9.5C9.22386 3 9 3.22386 9 3.5C9 3.77614 8.77614 4 8.5 4C8.22386 4 8 4.22386 8 4.5C8 4.77614 7.77614 5 7.5 5C7.22386 5 7 5.22386 7 5.5V6V7V8V9V10V10.5C7 10.7761 7.22386 11 7.5 11C7.77614 11 8 11.2239 8 11.5C8 11.7761 8.22386 12 8.5 12C8.77614 12 9 12.2239 9 12.5C9 12.7761 9.22386 13 9.5 13H10H11H12H13H14H14.5C14.7761 13 15 12.7761 15 12.5C15 12.2239 15.2239 12 15.5 12C15.7761 12 16 11.7761 16 11.5C16 11.2239 16.2239 11 16.5 11C16.7761 11 17 10.7761 17 10.5V10V9V8V7V6V5.5C17 5.22386 16.7761 5 16.5 5C16.2239 5 16 4.77614 16 4.5C16 4.22386 15.7761 4 15.5 4C15.2239 4 15 3.77614 15 3.5C15 3.22386 14.7761 3 14.5 3H14H13ZM10 10.5C10 10.7761 10.2239 11 10.5 11H11H12H13H13.5C13.7761 11 14 10.7761 14 10.5C14 10.2239 14.2239 10 14.5 10C14.7761 10 15 9.77614 15 9.5V9V8V7V6.5C15 6.22386 14.7761 6 14.5 6C14.2239 6 14 5.77614 14 5.5C14 5.22386 13.7761 5 13.5 5H13H12H11H10.5C10.2239 5 10 5.22386 10 5.5C10 5.77614 9.77614 6 9.5 6C9.22386 6 9 6.22386 9 6.5V7V8V9V9.5C9 9.77614 9.22386 10 9.5 10C9.77614 10 10 10.2239 10 10.5ZM6 21H5.5C5.22386 21 5 20.7761 5 20.5V20V19V18V17V16V15V14.5C5 14.2239 5.22386 14 5.5 14H6H7H8H9H10H11H12H13H14H15H16H17H18H18.5C18.7761 14 19 14.2239 19 14.5V15V16V17V18V19V20V20.5C19 20.7761 18.7761 21 18.5 21H18H17.5C17.2239 21 17 20.7761 17 20.5V20V19V18V17V16.5C17 16.2239 16.7761 16 16.5 16H16H15H14H13H12H11H10H9H8H7.5C7.22386 16 7 16.2239 7 16.5V17V18V19V20V20.5C7 20.7761 6.77614 21 6.5 21H6Z" fill="white"/>
</svg>
