<svg width="24" height="24" viewBox="0 0 24 24" fill="none" xmlns="http://www.w3.org/2000/svg">
<path fill-rule="evenodd" clip-rule="evenodd" d="M17 5.5C17 5.22386 16.7761 5 16.5 5H16H15H14H13H12H11H10H9H8H7H6H5H4H3H2.5C2.22386 5 2 5.22386 2 5.5V6V7V8V9V10V11V12V13V14V15V16V17V18V18.5C2 18.7761 2.22386 19 2.5 19H3H4H5H6H7H8H9H10H11H12H13H14H15H16H16.5C16.7761 19 17 18.7761 17 18.5V18V17V16.5C17 16.2239 17.2239 16 17.5 16C17.7761 16 18 16.2239 18 16.5C18 16.7761 18.2239 17 18.5 17C18.7761 17 19 17.2239 19 17.5C19 17.7761 19.2239 18 19.5 18H20H21H21.5C21.7761 18 22 17.7761 22 17.5V17V16V15V14V13V12V11V10V9V8V7V6.5C22 6.22386 21.7761 6 21.5 6H21H20H19.5C19.2239 6 19 6.22386 19 6.5C19 6.77614 18.7761 7 18.5 7C18.2239 7 18 7.22386 18 7.5C18 7.77614 17.7761 8 17.5 8C17.2239 8 17 7.77614 17 7.5V7V6V5.5ZM14 7H14.5C14.7761 7 15 7.22386 15 7.5V8V9V10V11V12V13V14V15V16V16.5C15 16.7761 14.7761 17 14.5 17H14H13H12H11H10H9H8H7H6H5H4.5C4.22386 17 4 16.7761 4 16.5V16V15V14V13V12V11V10V9V8V7.5C4 7.22386 4.22386 7 4.5 7H5H6H7H8H9H10H11H12H13H14ZM18 13.5C18 13.7761 18.2239 14 18.5 14C18.7761 14 19 14.2239 19 14.5C19 14.7761 19.2239 15 19.5 15C19.7761 15 20 14.7761 20 14.5V14V13V12V11V10V9.5C20 9.22386 19.7761 9 19.5 9C19.2239 9 19 9.22386 19 9.5C19 9.77614 18.7761 10 18.5 10C18.2239 10 18 10.2239 18 10.5C18 10.7761 17.7761 11 17.5 11C17.2239 11 17 11.2239 17 11.5V12V12.5C17 12.7761 17.2239 13 17.5 13C17.7761 13 18 13.2239 18 13.5Z" fill="white"/>
</svg>
