<svg width="24" height="24" viewBox="0 0 24 24" fill="none" xmlns="http://www.w3.org/2000/svg">
<path fill-rule="evenodd" clip-rule="evenodd" d="M13 5H14H14.5C14.7761 5 15 5.22386 15 5.5C15 5.77614 15.2239 6 15.5 6H16H16.5C16.7761 6 17 6.22386 17 6.5C17 6.77614 17.2239 7 17.5 7H18H18.5C18.7761 7 19 7.22386 19 7.5C19 7.77614 19.2239 8 19.5 8H20H20.5C20.7761 8 21 8.22386 21 8.5C21 8.77614 21.2239 9 21.5 9C21.7761 9 22 9.22386 22 9.5V10V10.5C22 10.7761 21.7761 11 21.5 11H21H20.5C20.2239 11 20 10.7761 20 10.5C20 10.2239 19.7761 10 19.5 10H19H18.5C18.2239 10 18 9.77614 18 9.5C18 9.22386 17.7761 9 17.5 9H17H16.5C16.2239 9 16 8.77614 16 8.5C16 8.22386 15.7761 8 15.5 8H15H14.5C14.2239 8 14 7.77614 14 7.5C14 7.22386 13.7761 7 13.5 7H13H12H11H10.5C10.2239 7 10 7.22386 10 7.5C10 7.77614 9.77614 8 9.5 8H9H8.5C8.22386 8 8 8.22386 8 8.5C8 8.77614 7.77614 9 7.5 9H7H6.5C6.22386 9 6 9.22386 6 9.5C6 9.77614 5.77614 10 5.5 10H5H4.5C4.22386 10 4 10.2239 4 10.5C4 10.7761 3.77614 11 3.5 11H3H2.5C2.22386 11 2 10.7761 2 10.5V10V9.5C2 9.22386 2.22386 9 2.5 9C2.77614 9 3 8.77614 3 8.5C3 8.22386 3.22386 8 3.5 8H4H4.5C4.77614 8 5 7.77614 5 7.5C5 7.22386 5.22386 7 5.5 7H6H6.5C6.77614 7 7 6.77614 7 6.5C7 6.22386 7.22386 6 7.5 6H8H8.5C8.77614 6 9 5.77614 9 5.5C9 5.22386 9.22386 5 9.5 5H10H11H12H13ZM7 11H7.5C7.77614 11 8 10.7761 8 10.5C8 10.2239 8.22386 10 8.5 10H9H9.5C9.77614 10 10 9.77614 10 9.5C10 9.22386 10.2239 9 10.5 9H11H12H13H13.5C13.7761 9 14 9.22386 14 9.5C14 9.77614 14.2239 10 14.5 10H15H15.5C15.7761 10 16 10.2239 16 10.5C16 10.7761 16.2239 11 16.5 11H17H17.5C17.7761 11 18 11.2239 18 11.5C18 11.7761 18.2239 12 18.5 12C18.7761 12 19 12.2239 19 12.5V13V13.5C19 13.7761 18.7761 14 18.5 14H18H17.5C17.2239 14 17 13.7761 17 13.5C17 13.2239 16.7761 13 16.5 13H16H15.5C15.2239 13 15 12.7761 15 12.5C15 12.2239 14.7761 12 14.5 12H14H13.5C13.2239 12 13 11.7761 13 11.5C13 11.2239 12.7761 11 12.5 11H12H11.5C11.2239 11 11 11.2239 11 11.5C11 11.7761 10.7761 12 10.5 12H10H9.5C9.22386 12 9 12.2239 9 12.5C9 12.7761 8.77614 13 8.5 13H8H7.5C7.22386 13 7 13.2239 7 13.5C7 13.7761 6.77614 14 6.5 14H6H5.5C5.22386 14 5 13.7761 5 13.5V13V12.5C5 12.2239 5.22386 12 5.5 12C5.77614 12 6 11.7761 6 11.5C6 11.2239 6.22386 11 6.5 11H7ZM8 16V16.5C8 16.7761 8.22386 17 8.5 17H9H9.5C9.77614 17 10 16.7761 10 16.5C10 16.2239 10.2239 16 10.5 16C10.7761 16 11 15.7761 11 15.5C11 15.2239 11.2239 15 11.5 15H12H12.5C12.7761 15 13 15.2239 13 15.5C13 15.7761 13.2239 16 13.5 16C13.7761 16 14 16.2239 14 16.5C14 16.7761 14.2239 17 14.5 17H15H15.5C15.7761 17 16 16.7761 16 16.5V16V15.5C16 15.2239 15.7761 15 15.5 15C15.2239 15 15 14.7761 15 14.5C15 14.2239 14.7761 14 14.5 14H14H13.5C13.2239 14 13 13.7761 13 13.5C13 13.2239 12.7761 13 12.5 13H12H11.5C11.2239 13 11 13.2239 11 13.5C11 13.7761 10.7761 14 10.5 14H10H9.5C9.22386 14 9 14.2239 9 14.5C9 14.7761 8.77614 15 8.5 15C8.22386 15 8 15.2239 8 15.5V16ZM12 18H12.5C12.7761 18 13 18.2239 13 18.5V19V19.5C13 19.7761 12.7761 20 12.5 20H12H11.5C11.2239 20 11 19.7761 11 19.5V19V18.5C11 18.2239 11.2239 18 11.5 18H12Z" fill="white"/>
</svg>
