<svg width="24" height="24" viewBox="0 0 24 24" fill="none" xmlns="http://www.w3.org/2000/svg">
<path fill-rule="evenodd" clip-rule="evenodd" d="M8 10.5C8 10.2239 7.77614 10 7.5 10V10C7.22386 10 7 10.2239 7 10.5V10.5C7 10.7761 6.77614 11 6.5 11H6H5H4.5C4.22386 11 4 11.2239 4 11.5V12V13V13.5C4 13.7761 4.22386 14 4.5 14V14C4.77614 14 5 13.7761 5 13.5V13V12.5C5 12.2239 5.22386 12 5.5 12H6H6.5C6.77614 12 7 12.2239 7 12.5V13V13.5C7 13.7761 7.22386 14 7.5 14V14C7.77614 14 8 13.7761 8 13.5V13V12V11V10.5Z" fill="white"/>
<path fill-rule="evenodd" clip-rule="evenodd" d="M9 9H8.5C8.22386 9 8 9.22386 8 9.5V9.5C8 9.77614 8.22386 10 8.5 10H9H9.5C9.77614 10 10 10.2239 10 10.5V11V12V13V13.5C10 13.7761 9.77614 14 9.5 14H9H8.5C8.22386 14 8 14.2239 8 14.5V14.5C8 14.7761 8.22386 15 8.5 15H9H10H11H11.5C11.7761 15 12 14.7761 12 14.5V14.5C12 14.2239 12.2239 14 12.5 14H13H14H14.5C14.7761 14 15 13.7761 15 13.5V13V12V11V10.5C15 10.2239 14.7761 10 14.5 10V10C14.2239 10 14 10.2239 14 10.5V11V11.5C14 11.7761 13.7761 12 13.5 12V12C13.2239 12 13 11.7761 13 11.5V11V10.5C13 10.2239 12.7761 10 12.5 10V10C12.2239 10 12 9.77614 12 9.5V9.5C12 9.22386 11.7761 9 11.5 9H11H10H9Z" fill="white"/>
<path fill-rule="evenodd" clip-rule="evenodd" d="M16 9H15.5C15.2239 9 15 9.22386 15 9.5V9.5C15 9.77614 15.2239 10 15.5 10H16H16.5C16.7761 10 17 10.2239 17 10.5V11V12V13V13.5C17 13.7761 16.7761 14 16.5 14H16H15.5C15.2239 14 15 14.2239 15 14.5V14.5C15 14.7761 15.2239 15 15.5 15H16H17H18H18.5C18.7761 15 19 14.7761 19 14.5V14.5C19 14.2239 19.2239 14 19.5 14V14C19.7761 14 20 13.7761 20 13.5V13V12V11V10.5C20 10.2239 19.7761 10 19.5 10V10C19.2239 10 19 9.77614 19 9.5V9.5C19 9.22386 18.7761 9 18.5 9H18H17H16Z" fill="white"/>
</svg>
