<svg width="24" height="24" viewBox="0 0 24 24" fill="none" xmlns="http://www.w3.org/2000/svg">
<path fill-rule="evenodd" clip-rule="evenodd" d="M5 8H6H7H8H9H10H11H12H13H14H15H16H17H18H19H19.5C19.7761 8 20 8.22386 20 8.5V8.5C20 8.77614 20.2239 9 20.5 9V9C20.7761 9 21 9.22386 21 9.5V9.5C21 9.77614 21.2239 10 21.5 10V10C21.7761 10 22 10.2239 22 10.5V11V12V13V13.5C22 13.7761 21.7761 14 21.5 14V14C21.2239 14 21 14.2239 21 14.5V14.5C21 14.7761 20.7761 15 20.5 15V15C20.2239 15 20 15.2239 20 15.5V15.5C20 15.7761 19.7761 16 19.5 16H19H18H17H16H15H14H13H12H11H10H9H8H7H6H5H4.5C4.22386 16 4 15.7761 4 15.5V15.5C4 15.2239 3.77614 15 3.5 15V15C3.22386 15 3 14.7761 3 14.5V14.5C3 14.2239 2.77614 14 2.5 14V14C2.22386 14 2 13.7761 2 13.5V13V12V11V10.5C2 10.2239 2.22386 10 2.5 10V10C2.77614 10 3 9.77614 3 9.5V9.5C3 9.22386 3.22386 9 3.5 9V9C3.77614 9 4 8.77614 4 8.5V8.5C4 8.22386 4.22386 8 4.5 8H5ZM18 14.5C18 14.7761 17.7761 15 17.5 15H17H16H15.5C15.2239 15 15 14.7761 15 14.5V14V13.5C15 13.2239 15.2239 13 15.5 13V13C15.7761 13 16 12.7761 16 12.5V12V11.5C16 11.2239 15.7761 11 15.5 11V11C15.2239 11 15 10.7761 15 10.5V10V9.5C15 9.22386 15.2239 9 15.5 9H16H17H17.5C17.7761 9 18 9.22386 18 9.5V10V10.5C18 10.7761 17.7761 11 17.5 11V11C17.2239 11 17 11.2239 17 11.5V12V12.5C17 12.7761 17.2239 13 17.5 13V13C17.7761 13 18 13.2239 18 13.5V14V14.5ZM8.5 15C8.77614 15 9 14.7761 9 14.5V14V13.5C9 13.2239 8.77614 13 8.5 13V13C8.22386 13 8 12.7761 8 12.5V12V11.5C8 11.2239 8.22386 11 8.5 11V11C8.77614 11 9 10.7761 9 10.5V10V9.5C9 9.22386 8.77614 9 8.5 9H8H7H6.5C6.22386 9 6 9.22386 6 9.5V10V10.5C6 10.7761 6.22386 11 6.5 11V11C6.77614 11 7 11.2239 7 11.5V12V12.5C7 12.7761 6.77614 13 6.5 13V13C6.22386 13 6 13.2239 6 13.5V14V14.5C6 14.7761 6.22386 15 6.5 15H7H8H8.5Z" fill="white"/>
</svg>
