<svg width="24" height="24" viewBox="0 0 24 24" fill="none" xmlns="http://www.w3.org/2000/svg">
<path fill-rule="evenodd" clip-rule="evenodd" d="M6 8H5.5C5.22386 8 5 8.22386 5 8.5V9V10V10.5C5 10.7761 4.77614 11 4.5 11H4H3H2.5C2.22386 11 2 11.2239 2 11.5V12V13V13.5C2 13.7761 2.22386 14 2.5 14V14C2.77614 14 3 13.7761 3 13.5V13V12.5C3 12.2239 3.22386 12 3.5 12H4H4.5C4.77614 12 5 12.2239 5 12.5V13V14V15V15.5C5 15.7761 5.22386 16 5.5 16H6H7H8H9H10H11H12H12.5C12.7761 16 13 15.7761 13 15.5V15V14V13V12.5C13 12.2239 13.2239 12 13.5 12V12C13.7761 12 14 12.2239 14 12.5V13V14V15V15.5C14 15.7761 14.2239 16 14.5 16H15H16H17H18H19H20H21H21.5C21.7761 16 22 15.7761 22 15.5V15V14V13V12V11V10V9V8.5C22 8.22386 21.7761 8 21.5 8H21H20H19H18H17H16H15H14.5C14.2239 8 14 8.22386 14 8.5V9V10V10.5C14 10.7761 13.7761 11 13.5 11V11C13.2239 11 13 10.7761 13 10.5V10V9V8.5C13 8.22386 12.7761 8 12.5 8H12H11H10H9H8H7H6ZM16 9H16.5C16.7761 9 17 9.22386 17 9.5V10V11V12V13V14V14.5C17 14.7761 16.7761 15 16.5 15H16H15.5C15.2239 15 15 14.7761 15 14.5V14V13V12V11V10V9.5C15 9.22386 15.2239 9 15.5 9H16ZM7 9H7.5C7.77614 9 8 9.22386 8 9.5V10V11V12V13V14V14.5C8 14.7761 7.77614 15 7.5 15H7H6.5C6.22386 15 6 14.7761 6 14.5V14V13V12V11V10V9.5C6 9.22386 6.22386 9 6.5 9H7Z" fill="white"/>
</svg>
