<svg width="24" height="24" viewBox="0 0 24 24" fill="none" xmlns="http://www.w3.org/2000/svg">
<path fill-rule="evenodd" clip-rule="evenodd" d="M3 7H2.5C2.22386 7 2 7.22386 2 7.5V8V9V10V11V12V13V14V15V16V16.5C2 16.7761 2.22386 17 2.5 17H3H4H5H6H7H8H9H9.5C9.77614 17 10 16.7761 10 16.5V16V15V14V13V12V11.5C10 11.2239 9.77614 11 9.5 11H9H8H7H6.5C6.22386 11 6 11.2239 6 11.5V12V12.5C6 12.7761 6.22386 13 6.5 13H7H7.5C7.77614 13 8 13.2239 8 13.5V14V14.5C8 14.7761 7.77614 15 7.5 15H7H6H5H4.5C4.22386 15 4 14.7761 4 14.5V14V13V12V11V10V9.5C4 9.22386 4.22386 9 4.5 9H5H6H7H8H9H9.5C9.77614 9 10 8.77614 10 8.5V8V7.5C10 7.22386 9.77614 7 9.5 7H9H8H7H6H5H4H3ZM13 7H12.5C12.2239 7 12 7.22386 12 7.5V8V9V10V11V12V13V14V15V16V16.5C12 16.7761 12.2239 17 12.5 17H13H13.5C13.7761 17 14 16.7761 14 16.5V16V15V14V13V12V11V10V9.5C14 9.22386 14.2239 9 14.5 9H15H15.5C15.7761 9 16 9.22386 16 9.5V10V11V12V13V14V15V16V16.5C16 16.7761 16.2239 17 16.5 17H17H17.5C17.7761 17 18 16.7761 18 16.5V16V15V14V13V12V11V10V9.5C18 9.22386 18.2239 9 18.5 9H19H19.5C19.7761 9 20 9.22386 20 9.5V10V11V12V13V14V15V16V16.5C20 16.7761 20.2239 17 20.5 17H21H21.5C21.7761 17 22 16.7761 22 16.5V16V15V14V13V12V11V10V9V8V7.5C22 7.22386 21.7761 7 21.5 7H21H20H19H18H17H16H15H14H13Z" fill="white"/>
</svg>
