<svg width="24" height="24" viewBox="0 0 24 24" fill="none" xmlns="http://www.w3.org/2000/svg">
<path fill-rule="evenodd" clip-rule="evenodd" d="M11 5H11.5C11.7761 5 12 5.22386 12 5.5V6V6.5C12 6.77614 11.7761 7 11.5 7V7C11.2239 7 11 7.22386 11 7.5V8V8.5C11 8.77614 10.7761 9 10.5 9V9C10.2239 9 10 9.22386 10 9.5V10V11V12V13V13.5C10 13.7761 10.2239 14 10.5 14H11H11.5C11.7761 14 12 14.2239 12 14.5V15V15.5C12 15.7761 11.7761 16 11.5 16H11H10.5C10.2239 16 10 15.7761 10 15.5V15.5C10 15.2239 9.77614 15 9.5 15H9H8.5C8.22386 15 8 14.7761 8 14.5V14.5C8 14.2239 7.77614 14 7.5 14H7H6.5C6.22386 14 6 14.2239 6 14.5V15V15.5C6 15.7761 6.22386 16 6.5 16H7H7.5C7.77614 16 8 16.2239 8 16.5V16.5C8 16.7761 8.22386 17 8.5 17H9H9.5C9.77614 17 10 17.2239 10 17.5V17.5C10 17.7761 10.2239 18 10.5 18H11H11.5C11.7761 18 12 18.2239 12 18.5V18.5C12 18.7761 11.7761 19 11.5 19H11H10H9H8H7H6H5.5C5.22386 19 5 18.7761 5 18.5V18V17V16V15V14V13V12V11V10V9V8V7V6V5.5C5 5.22386 5.22386 5 5.5 5H6H7H8H9H10H11ZM13 12H12.5C12.2239 12 12 11.7761 12 11.5V11V10V9.5C12 9.22386 12.2239 9 12.5 9V9C12.7761 9 13 8.77614 13 8.5V8V7.5C13 7.22386 13.2239 7 13.5 7V7C13.7761 7 14 6.77614 14 6.5V6V5.5C14 5.22386 14.2239 5 14.5 5H15H16H17H18H18.5C18.7761 5 19 5.22386 19 5.5V6V7V8V9V10V11V12V13V14V15V16V17V18V18.5C19 18.7761 18.7761 19 18.5 19H18H17H16H15H14.5C14.2239 19 14 18.7761 14 18.5V18V17.5C14 17.2239 14.2239 17 14.5 17H15H15.5C15.7761 17 16 16.7761 16 16.5V16.5C16 16.2239 16.2239 16 16.5 16H17H17.5C17.7761 16 18 15.7761 18 15.5V15V14.5C18 14.2239 17.7761 14 17.5 14H17H16.5C16.2239 14 16 14.2239 16 14.5V14.5C16 14.7761 15.7761 15 15.5 15H15H14.5C14.2239 15 14 14.7761 14 14.5V14V13V12.5C14 12.2239 13.7761 12 13.5 12H13ZM6 21H5H4H3.5C3.22386 21 3 20.7761 3 20.5V20V19V18V17V16V15V14V13V12V11V10V9V8V7V6V5V4V3.5C3 3.22386 3.22386 3 3.5 3H4H5H6H7H8H9H10H11H12H13H14H15H16H17H18H19H20H20.5C20.7761 3 21 3.22386 21 3.5V4V5V6V7V8V9V10V11V12V13V14V15V16V17V18V19V20V20.5C21 20.7761 20.7761 21 20.5 21H20H19H18H17H16H15H14H13H12H11H10H9H8H7H6ZM7 8V7.5C7 7.22386 7.22386 7 7.5 7H8H8.5C8.77614 7 9 7.22386 9 7.5V8V8.5C9 8.77614 8.77614 9 8.5 9H8H7.5C7.22386 9 7 8.77614 7 8.5V8ZM15.5 7C15.2239 7 15 7.22386 15 7.5V8V8.5C15 8.77614 15.2239 9 15.5 9H16H16.5C16.7761 9 17 8.77614 17 8.5V8V7.5C17 7.22386 16.7761 7 16.5 7H16H15.5Z" fill="white"/>
</svg>
