<svg width="24" height="24" viewBox="0 0 24 24" fill="none" xmlns="http://www.w3.org/2000/svg">
<path fill-rule="evenodd" clip-rule="evenodd" d="M7 3H6.5C6.22386 3 6 3.22386 6 3.5V3.5C6 3.77614 6.22386 4 6.5 4H7H8H9H10H11H12H13H14H15H16H17H18H18.5C18.7761 4 19 3.77614 19 3.5V3.5C19 3.22386 18.7761 3 18.5 3H18H17H16H15H14H13H12H11H10H9H8H7ZM5.5 4V4C5.22386 4 5 4.22386 5 4.5V5V6V7V8V9V10V11V12V13V13.5C5 13.7761 4.77614 14 4.5 14V14C4.22386 14 4 14.2239 4 14.5V14.5C4 14.7761 4.22386 15 4.5 15H5H5.5C5.77614 15 6 14.7761 6 14.5V14V13V12.5C6 12.2239 6.22386 12 6.5 12H7H8H9H10H11H11.5C11.7761 12 12 11.7761 12 11.5V11V10V9.5C12 9.22386 12.2239 9 12.5 9V9C12.7761 9 13 9.22386 13 9.5V10V11V11.5C13 11.7761 13.2239 12 13.5 12H14H15H16H17H18H18.5C18.7761 12 19 12.2239 19 12.5V13V14V14.5C19 14.7761 19.2239 15 19.5 15H20H20.5C20.7761 15 21 14.7761 21 14.5V14.5C21 14.2239 20.7761 14 20.5 14V14C20.2239 14 20 13.7761 20 13.5V13V12V11V10V9V8V7V6V5V4.5C20 4.22386 19.7761 4 19.5 4V4C19.2239 4 19 4.22386 19 4.5V5V5.5C19 5.77614 18.7761 6 18.5 6H18H17H16H15H14H13.5C13.2239 6 13 6.22386 13 6.5V7V7.5C13 7.77614 12.7761 8 12.5 8V8C12.2239 8 12 7.77614 12 7.5V7V6.5C12 6.22386 11.7761 6 11.5 6H11H10H9H8H7H6.5C6.22386 6 6 5.77614 6 5.5V5V4.5C6 4.22386 5.77614 4 5.5 4ZM15 7H14.5C14.2239 7 14 7.22386 14 7.5V8V9V10V10.5C14 10.7761 14.2239 11 14.5 11H15H15.5C15.7761 11 16 10.7761 16 10.5V10V9V8V7.5C16 7.22386 15.7761 7 15.5 7H15ZM8 7H8.5C8.77614 7 9 7.22386 9 7.5V8V9V10V10.5C9 10.7761 8.77614 11 8.5 11H8H7.5C7.22386 11 7 10.7761 7 10.5V10V9V8V7.5C7 7.22386 7.22386 7 7.5 7H8ZM12 14.5C12 14.2239 12.2239 14 12.5 14V14C12.7761 14 13 14.2239 13 14.5V15V16V17V18V19V19.5C13 19.7761 13.2239 20 13.5 20H14H14.5C14.7761 20 15 19.7761 15 19.5V19.5C15 19.2239 14.7761 19 14.5 19V19C14.2239 19 14 18.7761 14 18.5V18V17V16V15V14.5C14 14.2239 14.2239 14 14.5 14V14C14.7761 14 15 14.2239 15 14.5V15V16V17V17.5C15 17.7761 15.2239 18 15.5 18H16H16.5C16.7761 18 17 18.2239 17 18.5V18.5C17 18.7761 16.7761 19 16.5 19V19C16.2239 19 16 19.2239 16 19.5V19.5C16 19.7761 16.2239 20 16.5 20H17H18H19H19.5C19.7761 20 20 20.2239 20 20.5V20.5C20 20.7761 19.7761 21 19.5 21H19H18H17H16H15H14H13H12H11H10H9H8H7H6H5.5C5.22386 21 5 20.7761 5 20.5V20.5C5 20.2239 5.22386 20 5.5 20H6H7H8H8.5C8.77614 20 9 19.7761 9 19.5V19.5C9 19.2239 8.77614 19 8.5 19V19C8.22386 19 8 18.7761 8 18.5V18.5C8 18.2239 8.22386 18 8.5 18H9H9.5C9.77614 18 10 17.7761 10 17.5V17V16V15V14.5C10 14.2239 10.2239 14 10.5 14V14C10.7761 14 11 14.2239 11 14.5V15V16V17V18V18.5C11 18.7761 10.7761 19 10.5 19V19C10.2239 19 10 19.2239 10 19.5V19.5C10 19.7761 10.2239 20 10.5 20H11H11.5C11.7761 20 12 19.7761 12 19.5V19V18V17V16V15V14.5ZM7.5 17C7.22386 17 7 17.2239 7 17.5C7 17.7761 7.22386 18 7.5 18C7.77614 18 8 17.7761 8 17.5V17.5C8 17.2239 7.77614 17 7.5 17V17ZM18 17.5C18 17.2239 17.7761 17 17.5 17V17C17.2239 17 17 17.2239 17 17.5V17.5C17 17.7761 17.2239 18 17.5 18C17.7761 18 18 17.7761 18 17.5V17.5ZM6.5 17C6.77614 17 7 16.7761 7 16.5V16V15.5C7 15.2239 6.77614 15 6.5 15V15C6.22386 15 6 15.2239 6 15.5V16V16.5C6 16.7761 6.22386 17 6.5 17V17ZM18 16V16.5C18 16.7761 18.2239 17 18.5 17V17C18.7761 17 19 16.7761 19 16.5V16V15.5C19 15.2239 18.7761 15 18.5 15V15C18.2239 15 18 15.2239 18 15.5V16ZM5 18.5C5 18.2239 5.22386 18 5.5 18H6H6.5C6.77614 18 7 18.2239 7 18.5V18.5C7 18.7761 6.77614 19 6.5 19H6H5.5C5.22386 19 5 18.7761 5 18.5V18.5ZM19.5 19H19H18.5C18.2239 19 18 18.7761 18 18.5V18.5C18 18.2239 18.2239 18 18.5 18H19H19.5C19.7761 18 20 18.2239 20 18.5V18.5C20 18.7761 19.7761 19 19.5 19ZM4 19.5C4 19.2239 4.22386 19 4.5 19V19C4.77614 19 5 19.2239 5 19.5C5 19.7761 4.77614 20 4.5 20V20C4.22386 20 4 19.7761 4 19.5V19.5ZM20 19.5V19.5C20 19.2239 20.2239 19 20.5 19V19C20.7761 19 21 19.2239 21 19.5V19.5C21 19.7761 20.7761 20 20.5 20V20C20.2239 20 20 19.7761 20 19.5ZM4 16.5C4 16.7761 4.22386 17 4.5 17V17C4.77614 17 5 17.2239 5 17.5V17.5C5 17.7761 4.77614 18 4.5 18H4H3.5C3.22386 18 3 17.7761 3 17.5V17V16V15.5C3 15.2239 3.22386 15 3.5 15V15C3.77614 15 4 15.2239 4 15.5V16V16.5ZM20 17.5C20 17.2239 20.2239 17 20.5 17V17C20.7761 17 21 16.7761 21 16.5V16V15.5C21 15.2239 21.2239 15 21.5 15V15C21.7761 15 22 15.2239 22 15.5V16V17V17.5C22 17.7761 21.7761 18 21.5 18H21H20.5C20.2239 18 20 17.7761 20 17.5V17.5Z" fill="white"/>
</svg>
