<svg width="24" height="24" viewBox="0 0 24 24" fill="none" xmlns="http://www.w3.org/2000/svg">
<path fill-rule="evenodd" clip-rule="evenodd" d="M12 6.5C12 6.22386 12.2239 6 12.5 6H13H14H15H15.5C15.7761 6 16 6.22386 16 6.5V7V7.5C16 7.77614 16.2239 8 16.5 8H17H17.5C17.7761 8 18 8.22386 18 8.5V9V9.5C18 9.77614 17.7761 10 17.5 10H17H16.5C16.2239 10 16 10.2239 16 10.5V11V11.5C16 11.7761 15.7761 12 15.5 12H15H14.5C14.2239 12 14 12.2239 14 12.5V13V13.5C14 13.7761 13.7761 14 13.5 14H13H12.5C12.2239 14 12 14.2239 12 14.5V15V16V17V17.5C12 17.7761 11.7761 18 11.5 18H11H10.5C10.2239 18 10 17.7761 10 17.5V17V16V15V14V13V12.5C10 12.2239 9.77614 12 9.5 12H9H8.5C8.22386 12 8 11.7761 8 11.5V11V10.5C8 10.2239 7.77614 10 7.5 10H7H6.5C6.22386 10 6 9.77614 6 9.5V9V8.5C6 8.22386 6.22386 8 6.5 8H7H8H9H9.5C9.77614 8 10 8.22386 10 8.5V9V9.5C10 9.77614 10.2239 10 10.5 10H11H12H13H13.5C13.7761 10 14 9.77614 14 9.5V9V8.5C14 8.22386 13.7761 8 13.5 8H13H12.5C12.2239 8 12 7.77614 12 7.5V7V6.5Z" fill="white"/>
</svg>
