<svg width="24" height="24" viewBox="0 0 24 24" fill="none" xmlns="http://www.w3.org/2000/svg">
<rect x="5" y="17" width="1" height="1" rx="0.5" fill="white"/>
<path fill-rule="evenodd" clip-rule="evenodd" d="M6 13.5C6 13.2239 5.77614 13 5.5 13V13C5.22386 13 5 13.2239 5 13.5V14V14.5C5 14.7761 5.22386 15 5.5 15V15C5.77614 15 6 14.7761 6 14.5V14V13.5Z" fill="white"/>
<path fill-rule="evenodd" clip-rule="evenodd" d="M6 9.5C6 9.22386 5.77614 9 5.5 9V9C5.22386 9 5 9.22386 5 9.5V10V10.5C5 10.7761 5.22386 11 5.5 11V11C5.77614 11 6 10.7761 6 10.5V10V9.5Z" fill="white"/>
<path fill-rule="evenodd" clip-rule="evenodd" d="M7 15.5C7 15.2239 6.77614 15 6.5 15V15C6.22386 15 6 15.2239 6 15.5V16V16.5C6 16.7761 6.22386 17 6.5 17V17C6.77614 17 7 16.7761 7 16.5V16V15.5Z" fill="white"/>
<path fill-rule="evenodd" clip-rule="evenodd" d="M7 11.5C7 11.2239 6.77614 11 6.5 11V11C6.22386 11 6 11.2239 6 11.5V12V12.5C6 12.7761 6.22386 13 6.5 13V13C6.77614 13 7 12.7761 7 12.5V12V11.5Z" fill="white"/>
<path fill-rule="evenodd" clip-rule="evenodd" d="M8 13.5C8 13.2239 8.22386 13 8.5 13H9H9.5C9.77614 13 10 13.2239 10 13.5V14V14.5C10 14.7761 9.77614 15 9.5 15H9H8.5C8.22386 15 8 14.7761 8 14.5V14V13.5Z" fill="white"/>
<path fill-rule="evenodd" clip-rule="evenodd" d="M9 17H8.5C8.22386 17 8 17.2239 8 17.5V17.5C8 17.7761 8.22386 18 8.5 18H9H9.5C9.77614 18 10 17.7761 10 17.5V17.5C10 17.2239 9.77614 17 9.5 17H9Z" fill="white"/>
<path fill-rule="evenodd" clip-rule="evenodd" d="M10 11.5C10 11.2239 10.2239 11 10.5 11H11H11.5C11.7761 11 12 11.2239 12 11.5V12V12.5C12 12.7761 11.7761 13 11.5 13H11H10.5C10.2239 13 10 12.7761 10 12.5V12V11.5Z" fill="white"/>
<path fill-rule="evenodd" clip-rule="evenodd" d="M10 15.5C10 15.2239 10.2239 15 10.5 15H11H11.5C11.7761 15 12 15.2239 12 15.5V16V16.5C12 16.7761 11.7761 17 11.5 17H11H10.5C10.2239 17 10 16.7761 10 16.5V16V15.5Z" fill="white"/>
<path fill-rule="evenodd" clip-rule="evenodd" d="M12 13.5C12 13.2239 12.2239 13 12.5 13H13H13.5C13.7761 13 14 13.2239 14 13.5V14V14.5C14 14.7761 13.7761 15 13.5 15H13H12.5C12.2239 15 12 14.7761 12 14.5V14V13.5Z" fill="white"/>
<path fill-rule="evenodd" clip-rule="evenodd" d="M13 17H12.5C12.2239 17 12 17.2239 12 17.5V17.5C12 17.7761 12.2239 18 12.5 18H13H13.5C13.7761 18 14 17.7761 14 17.5V17.5C14 17.2239 13.7761 17 13.5 17H13Z" fill="white"/>
<path fill-rule="evenodd" clip-rule="evenodd" d="M14 11.5C14 11.2239 14.2239 11 14.5 11H15H15.5C15.7761 11 16 11.2239 16 11.5V12V12.5C16 12.7761 15.7761 13 15.5 13H15H14.5C14.2239 13 14 12.7761 14 12.5V12V11.5Z" fill="white"/>
<path fill-rule="evenodd" clip-rule="evenodd" d="M14 15.5C14 15.2239 14.2239 15 14.5 15H15H15.5C15.7761 15 16 15.2239 16 15.5V16V16.5C16 16.7761 15.7761 17 15.5 17H15H14.5C14.2239 17 14 16.7761 14 16.5V16V15.5Z" fill="white"/>
<path fill-rule="evenodd" clip-rule="evenodd" d="M16 13.5C16 13.2239 16.2239 13 16.5 13H17H17.5C17.7761 13 18 13.2239 18 13.5V14V14.5C18 14.7761 17.7761 15 17.5 15H17H16.5C16.2239 15 16 14.7761 16 14.5V14V13.5Z" fill="white"/>
<path fill-rule="evenodd" clip-rule="evenodd" d="M17 17H16.5C16.2239 17 16 17.2239 16 17.5V17.5C16 17.7761 16.2239 18 16.5 18H17H17.5C17.7761 18 18 17.7761 18 17.5V17.5C18 17.2239 17.7761 17 17.5 17H17Z" fill="white"/>
<path fill-rule="evenodd" clip-rule="evenodd" d="M19 11.5C19 11.2239 18.7761 11 18.5 11V11C18.2239 11 18 11.2239 18 11.5V12V12.5C18 12.7761 18.2239 13 18.5 13V13C18.7761 13 19 12.7761 19 12.5V12V11.5Z" fill="white"/>
<path fill-rule="evenodd" clip-rule="evenodd" d="M19 15.5C19 15.2239 18.7761 15 18.5 15V15C18.2239 15 18 15.2239 18 15.5V16V16.5C18 16.7761 18.2239 17 18.5 17V17C18.7761 17 19 16.7761 19 16.5V16V15.5Z" fill="white"/>
<path fill-rule="evenodd" clip-rule="evenodd" d="M10 9.5C10 9.22386 9.77614 9 9.5 9H9H8.5C8.22386 9 8 9.22386 8 9.5V10V10.5C8 10.7761 8.22386 11 8.5 11H9H9.5C9.77614 11 10 10.7761 10 10.5V10V9.5Z" fill="white"/>
<path fill-rule="evenodd" clip-rule="evenodd" d="M14 9.5C14 9.22386 13.7761 9 13.5 9H13H12.5C12.2239 9 12 9.22386 12 9.5V10V10.5C12 10.7761 12.2239 11 12.5 11H13H13.5C13.7761 11 14 10.7761 14 10.5V10V9.5Z" fill="white"/>
<path fill-rule="evenodd" clip-rule="evenodd" d="M18 9.5C18 9.22386 17.7761 9 17.5 9H17H16.5C16.2239 9 16 9.22386 16 9.5V10V10.5C16 10.7761 16.2239 11 16.5 11H17H17.5C17.7761 11 18 10.7761 18 10.5V10V9.5Z" fill="white"/>
<path fill-rule="evenodd" clip-rule="evenodd" d="M8 7.5C8 7.22386 7.77614 7 7.5 7H7H6.5C6.22386 7 6 7.22386 6 7.5V8V8.5C6 8.77614 6.22386 9 6.5 9H7H7.5C7.77614 9 8 8.77614 8 8.5V8V7.5Z" fill="white"/>
<path fill-rule="evenodd" clip-rule="evenodd" d="M12 7.5C12 7.22386 11.7761 7 11.5 7H11H10.5C10.2239 7 10 7.22386 10 7.5V8V8.5C10 8.77614 10.2239 9 10.5 9H11H11.5C11.7761 9 12 8.77614 12 8.5V8V7.5Z" fill="white"/>
<path fill-rule="evenodd" clip-rule="evenodd" d="M16 7.5C16 7.22386 15.7761 7 15.5 7H15H14.5C14.2239 7 14 7.22386 14 7.5V8V8.5C14 8.77614 14.2239 9 14.5 9H15H15.5C15.7761 9 16 8.77614 16 8.5V8V7.5Z" fill="white"/>
<path fill-rule="evenodd" clip-rule="evenodd" d="M19 7.5C19 7.22386 18.7761 7 18.5 7V7C18.2239 7 18 7.22386 18 7.5V8V8.5C18 8.77614 18.2239 9 18.5 9V9C18.7761 9 19 8.77614 19 8.5V8V7.5Z" fill="white"/>
</svg>
