<svg width="24" height="24" viewBox="0 0 24 24" fill="none" xmlns="http://www.w3.org/2000/svg">
<path fill-rule="evenodd" clip-rule="evenodd" d="M17 14H16.5C16.2239 14 16 14.2239 16 14.5V15V15.5C16 15.7761 16.2239 16 16.5 16H17H17.5C17.7761 16 18 15.7761 18 15.5V15V14.5C18 14.2239 17.7761 14 17.5 14H17Z" fill="white"/>
<path fill-rule="evenodd" clip-rule="evenodd" d="M7 10H6.5C6.22386 10 6 10.2239 6 10.5V11V11.5C6 11.7761 6.22386 12 6.5 12H7H7.5C7.77614 12 8 11.7761 8 11.5V11V10.5C8 10.2239 7.77614 10 7.5 10H7Z" fill="white"/>
<path fill-rule="evenodd" clip-rule="evenodd" d="M8 8.5C8 8.22386 8.22386 8 8.5 8H9H10H11H12H13H14H15H16H17H17.5C17.7761 8 18 8.22386 18 8.5V9V9.5C18 9.77614 17.7761 10 17.5 10H17H16.5C16.2239 10 16 10.2239 16 10.5V11V12V13V13.5C16 13.7761 15.7761 14 15.5 14H15H14.5C14.2239 14 14 13.7761 14 13.5V13V12V11V10.5C14 10.2239 13.7761 10 13.5 10H13H12.5C12.2239 10 12 10.2239 12 10.5V11V12V13V14V15V15.5C12 15.7761 11.7761 16 11.5 16H11H10.5C10.2239 16 10 15.7761 10 15.5V15V14V13V12V11V10C10 10 10 10 10 10V10H9H8.5C8.22386 10 8 9.77614 8 9.5V9V8.5Z" fill="white"/>
</svg>
