<svg width="24" height="24" viewBox="0 0 24 24" fill="none" xmlns="http://www.w3.org/2000/svg">
<path fill-rule="evenodd" clip-rule="evenodd" d="M5 4.5C5 4.22386 5.22386 4 5.5 4H6H7H8H8.5C8.77614 4 9 4.22386 9 4.5V5V5.5C9 5.77614 9.22386 6 9.5 6H10H10.5C10.7761 6 11 5.77614 11 5.5V5V4.5C11 4.22386 11.2239 4 11.5 4H12H13H14H15H16H16.5C16.7761 4 17 4.22386 17 4.5V5V5.5C17 5.77614 17.2239 6 17.5 6H18H18.5C18.7761 6 19 6.22386 19 6.5V7V7.5C19 7.77614 18.7761 8 18.5 8H18H17.5C17.2239 8 17 8.22386 17 8.5V9V10V11V11.5C17 11.7761 16.7761 12 16.5 12H16H15H14H13H12H11.5C11.2239 12 11 11.7761 11 11.5V11V10.5C11 10.2239 11.2239 10 11.5 10H12H13H14H14.5C14.7761 10 15 9.77614 15 9.5V9V8V7V6.5C15 6.22386 14.7761 6 14.5 6H14H13.5C13.2239 6 13 6.22386 13 6.5V7V7.5C13 7.77614 12.7761 8 12.5 8H12H11H10H9.5C9.22386 8 9 8.22386 9 8.5V9V9.5C9 9.77614 8.77614 10 8.5 10H8H7H6H5.5C5.22386 10 5 9.77614 5 9.5V9V8.5C5 8.22386 5.22386 8 5.5 8H6H6.5C6.77614 8 7 7.77614 7 7.5V7V6.5C7 6.22386 6.77614 6 6.5 6H6H5.5C5.22386 6 5 5.77614 5 5.5V5V4.5Z" fill="white"/>
<path fill-rule="evenodd" clip-rule="evenodd" d="M8 12H7.5C7.22386 12 7 12.2239 7 12.5V13V13.5C7 13.7761 7.22386 14 7.5 14H8H9H10H10.5C10.7761 14 11 13.7761 11 13.5V13V12.5C11 12.2239 10.7761 12 10.5 12H10H9H8Z" fill="white"/>
<path fill-rule="evenodd" clip-rule="evenodd" d="M6 14H5.5C5.22386 14 5 14.2239 5 14.5V15V15.5C5 15.7761 5.22386 16 5.5 16H6H6.5C6.77614 16 7 15.7761 7 15.5V15V14.5C7 14.2239 6.77614 14 6.5 14H6Z" fill="white"/>
<path fill-rule="evenodd" clip-rule="evenodd" d="M13 14.5C13 14.2239 13.2239 14 13.5 14H14H15H16H16.5C16.7761 14 17 14.2239 17 14.5V15V15.5C17 15.7761 16.7761 16 16.5 16H16H15H14H13.5C13.2239 16 13 15.7761 13 15.5V15V14.5Z" fill="white"/>
<path fill-rule="evenodd" clip-rule="evenodd" d="M18 16H17.5C17.2239 16 17 16.2239 17 16.5V17V17.5C17 17.7761 17.2239 18 17.5 18H18H18.5C18.7761 18 19 17.7761 19 17.5V17V16.5C19 16.2239 18.7761 16 18.5 16H18Z" fill="white"/>
<path fill-rule="evenodd" clip-rule="evenodd" d="M7 16.5C7 16.2239 7.22386 16 7.5 16H8H9H10H11H12H12.5C12.7761 16 13 16.2239 13 16.5V17V17.5C13 17.7761 12.7761 18 12.5 18H12H11.5C11.2239 18 11 18.2239 11 18.5V19V19.5C11 19.7761 10.7761 20 10.5 20H10H9.5C9.22386 20 9 19.7761 9 19.5V19V18.5C9 18.2239 8.77614 18 8.5 18H8H7.5C7.22386 18 7 17.7761 7 17.5V17V16.5Z" fill="white"/>
</svg>
