<svg width="24" height="24" viewBox="0 0 24 24" fill="none" xmlns="http://www.w3.org/2000/svg">
<path fill-rule="evenodd" clip-rule="evenodd" d="M10 4.5C10 4.22386 10.2239 4 10.5 4H11H12H13H13.5C13.7761 4 14 4.22386 14 4.5V5V5.5C14 5.77614 14.2239 6 14.5 6H15H15.5C15.7761 6 16 6.22386 16 6.5V7V8V9V9.5C16 9.77614 15.7761 10 15.5 10H15H14.5C14.2239 10 14 10.2239 14 10.5V11V11.5C14 11.7761 13.7761 12 13.5 12H13H12H11H10.5C10.2239 12 10 11.7761 10 11.5V11V10.5C10 10.2239 9.77614 10 9.5 10H9H8.5C8.22386 10 8 9.77614 8 9.5V9V8V7V6.5C8 6.22386 8.22386 6 8.5 6H9H9.5C9.77614 6 10 5.77614 10 5.5V5V4.5ZM8 12H7H6H5.5C5.22386 12 5 12.2239 5 12.5V13V13.5C5 13.7761 4.77614 14 4.5 14H4H3.5C3.22386 14 3 14.2239 3 14.5V15V16V17V17.5C3 17.7761 3.22386 18 3.5 18H4H4.5C4.77614 18 5 18.2239 5 18.5V19V19.5C5 19.7761 5.22386 20 5.5 20H6H7H8H8.5C8.77614 20 9 19.7761 9 19.5V19V18.5C9 18.2239 9.22386 18 9.5 18H10H10.5C10.7761 18 11 17.7761 11 17.5V17V16V15V14.5C11 14.2239 10.7761 14 10.5 14H10H9.5C9.22386 14 9 13.7761 9 13.5V13V12.5C9 12.2239 8.77614 12 8.5 12H8ZM19 13.5C19 13.7761 19.2239 14 19.5 14H20H20.5C20.7761 14 21 14.2239 21 14.5V15V16V17V17.5C21 17.7761 20.7761 18 20.5 18H20H19.5C19.2239 18 19 18.2239 19 18.5V19V19.5C19 19.7761 18.7761 20 18.5 20H18H17H16H15.5C15.2239 20 15 19.7761 15 19.5V19V18.5C15 18.2239 14.7761 18 14.5 18H14H13.5C13.2239 18 13 17.7761 13 17.5V17V16V15V14.5C13 14.2239 13.2239 14 13.5 14H14H14.5C14.7761 14 15 13.7761 15 13.5V13V12.5C15 12.2239 15.2239 12 15.5 12H16H17H18H18.5C18.7761 12 19 12.2239 19 12.5V13V13.5Z" fill="white"/>
</svg>
