<svg width="24" height="24" viewBox="0 0 24 24" fill="none" xmlns="http://www.w3.org/2000/svg">
<path fill-rule="evenodd" clip-rule="evenodd" d="M17 9.5C17 9.22386 16.7761 9 16.5 9H16H15H14H13H12H11H10H9H8H7H6H5H4H3.5C3.22386 9 3 9.22386 3 9.5V10V11V12V13V14V14.5C3 14.7761 3.22386 15 3.5 15H4H5H6H7H8H8.5C8.77614 15 9 14.7761 9 14.5V14V13V12V11.5C9 11.2239 9.22386 11 9.5 11H10H10.5C10.7761 11 11 11.2239 11 11.5V12V13V14V14.5C11 14.7761 11.2239 15 11.5 15H12H13H14H15H16H16.5C16.7761 15 17 14.7761 17 14.5V14V13.5C17 13.2239 17.2239 13 17.5 13H18H18.5C18.7761 13 19 13.2239 19 13.5V14V14.5C19 14.7761 19.2239 15 19.5 15H20H20.5C20.7761 15 21 14.7761 21 14.5V14V13V12V11.5C21 11.2239 20.7761 11 20.5 11H20H19H18H17.5C17.2239 11 17 10.7761 17 10.5V10V9.5ZM5.5 11C5.22386 11 5 11.2239 5 11.5V12V12.5C5 12.7761 5.22386 13 5.5 13H6H6.5C6.77614 13 7 12.7761 7 12.5V12V11.5C7 11.2239 6.77614 11 6.5 11H6H5.5ZM15 12V12.5C15 12.7761 14.7761 13 14.5 13H14H13.5C13.2239 13 13 12.7761 13 12.5V12V11.5C13 11.2239 13.2239 11 13.5 11H14H14.5C14.7761 11 15 11.2239 15 11.5V12Z" fill="white"/>
</svg>
