<svg width="24" height="24" viewBox="0 0 24 24" fill="none" xmlns="http://www.w3.org/2000/svg">
<path fill-rule="evenodd" clip-rule="evenodd" d="M12.9999 5.5C12.9999 5.22386 12.7761 5 12.4999 5H12.0001H11.9999H11.5001C11.2239 5 11.0001 5.22386 11.0001 5.5V5.99994C11.0001 5.99997 11 6 11 6V6H10.5C10.2239 6 10 6.22386 10 6.5V6.5C10 6.77614 9.77614 7 9.5 7V7C9.22386 7 9 7.22386 9 7.5V7.5C9 7.77614 8.77614 8 8.5 8V8C8.22386 8 8 8.22386 8 8.5V8.5C8 8.77614 8.22386 9 8.5 9H9H9.5C9.77614 9 10 9.22386 10 9.5V9.5C10 9.77614 10.2239 10 10.5 10H11V10C11 10 11.0001 10 11.0001 10.0001V10.5001C11.0001 10.7762 11.2239 11 11.5 11V11C11.7761 11 11.9999 11.2239 11.9999 11.5V11.5C11.9999 11.7761 12.2238 12 12.4999 12V12C12.7761 12 12.9999 11.7761 12.9999 11.5V11V10V9V8V7V6V5.5ZM8 13H7.5C7.22386 13 7 13.2239 7 13.5V14V14.5C7 14.7761 6.77614 15 6.5 15H6H5.5C5.22386 15 5 15.2239 5 15.5V16V16.5C5 16.7761 5.22386 17 5.5 17V17C5.77614 17 6 16.7761 6 16.5V16.5C6 16.2239 6.22386 16 6.5 16V16C6.77614 16 7 16.2239 7 16.5V17V17.5C7 17.7761 7.22386 18 7.5 18H8H9H10H11H11.5C11.7761 18 12 17.7761 12 17.5V17V16.5C12 16.2239 12.2239 16 12.5 16V16C12.7761 16 13 16.2239 13 16.5V17V17.5C13 17.7761 13.2239 18 13.5 18H14H15H16H17H17.5C17.7761 18 18 17.7761 18 17.5V17V16V15V14V13.5C18 13.2239 17.7761 13 17.5 13H17H16H15H14H13.5C13.2239 13 13 13.2239 13 13.5V14V14.5C13 14.7761 12.7761 15 12.5 15V15C12.2239 15 12 14.7761 12 14.5V14V13.5C12 13.2239 11.7761 13 11.5 13H11H10H9H8ZM10.5 17C10.2239 17 10 16.7761 10 16.5V16V15V14.5C10 14.2239 10.2239 14 10.5 14V14C10.7761 14 11 14.2239 11 14.5V15V16V16.5C11 16.7761 10.7761 17 10.5 17V17ZM17 16.5C17 16.7761 16.7761 17 16.5 17V17C16.2239 17 16 16.7761 16 16.5V16V15V14.5C16 14.2239 16.2239 14 16.5 14V14C16.7761 14 17 14.2239 17 14.5V15V16V16.5Z" fill="white"/>
</svg>
