<svg width="24" height="24" viewBox="0 0 24 24" fill="none" xmlns="http://www.w3.org/2000/svg">
<path fill-rule="evenodd" clip-rule="evenodd" d="M14 6.5C14 6.22386 13.7761 6 13.5 6H13H12.5C12.2239 6 12 6.22386 12 6.5V7V8V9V9.5C12 9.77614 11.7761 10 11.5 10H11H10.5C10.2239 10 10 10.2239 10 10.5V11V11.5C10 11.7761 9.77614 12 9.5 12H9H8H7H6.5C6.22386 12 6 12.2239 6 12.5V13V13.5C6 13.7761 6.22386 14 6.5 14H7H8H9H9.5C9.77614 14 10 14.2239 10 14.5V15V15.5C10 15.7761 10.2239 16 10.5 16H11H11.5C11.7761 16 12 16.2239 12 16.5V17V18V19V19.5C12 19.7761 12.2239 20 12.5 20H13H13.5C13.7761 20 14 19.7761 14 19.5V19V18V17V16.5C14 16.2239 14.2239 16 14.5 16H15H15.5C15.7761 16 16 15.7761 16 15.5V15V14.5C16 14.2239 16.2239 14 16.5 14H17H18H19H19.5C19.7761 14 20 13.7761 20 13.5V13V12.5C20 12.2239 19.7761 12 19.5 12H19H18H17H16.5C16.2239 12 16 11.7761 16 11.5V11V10.5C16 10.2239 15.7761 10 15.5 10H15H14.5C14.2239 10 14 9.77614 14 9.5V9V8V7V6.5Z" fill="white"/>
<path fill-rule="evenodd" clip-rule="evenodd" d="M19 6H18.5C18.2239 6 18 6.22386 18 6.5V7V7.5C18 7.77614 18.2239 8 18.5 8H19H19.5C19.7761 8 20 7.77614 20 7.5V7V6.5C20 6.22386 19.7761 6 19.5 6H19Z" fill="white"/>
<path fill-rule="evenodd" clip-rule="evenodd" d="M8 4.5C8 4.22386 7.77614 4 7.5 4H7H6.5C6.22386 4 6 4.22386 6 4.5V5V5.5C6 5.77614 5.77614 6 5.5 6H5H4.5C4.22386 6 4 6.22386 4 6.5V7V7.5C4 7.77614 4.22386 8 4.5 8H5H5.5C5.77614 8 6 8.22386 6 8.5V9V9.5C6 9.77614 6.22386 10 6.5 10H7H7.5C7.77614 10 8 9.77614 8 9.5V9V8.5C8 8.22386 8.22386 8 8.5 8H9H9.5C9.77614 8 10 7.77614 10 7.5V7V6.5C10 6.22386 9.77614 6 9.5 6H9H8.5C8.22386 6 8 5.77614 8 5.5V5V4.5Z" fill="white"/>
</svg>
