<svg width="24" height="24" viewBox="0 0 24 24" fill="none" xmlns="http://www.w3.org/2000/svg">
<path fill-rule="evenodd" clip-rule="evenodd" d="M14 9.5C14 9.22386 13.7761 9 13.5 9H13H12H11H10.5C10.2239 9 10 9.22386 10 9.5V10V11V12V13V14V14.5C10 14.7761 10.2239 15 10.5 15H11H12H13H13.5C13.7761 15 14 14.7761 14 14.5V14V13V12V11V10V9.5ZM6 10V9.5C6 9.22386 5.77614 9 5.5 9H5H4.5C4.22386 9 4 9.22386 4 9.5V10V11V12V13V14V14.5C4 14.7761 4.22386 15 4.5 15H5H6H7H7.5C7.77614 15 8 14.7761 8 14.5V14V13.5C8 13.2239 7.77614 13 7.5 13H7H6.5C6.22386 13 6 12.7761 6 12.5V12V11V10ZM17 9H17.5C17.7761 9 18 9.22386 18 9.5V10V11V12V12.5C18 12.7761 18.2239 13 18.5 13H19H19.5C19.7761 13 20 13.2239 20 13.5V14V14.5C20 14.7761 19.7761 15 19.5 15H19H18H17H16.5C16.2239 15 16 14.7761 16 14.5V14V13V12V11V10V9.5C16 9.22386 16.2239 9 16.5 9H17Z" fill="white"/>
</svg>
