<svg width="24" height="24" viewBox="0 0 24 24" fill="none" xmlns="http://www.w3.org/2000/svg">
<path fill-rule="evenodd" clip-rule="evenodd" d="M17 18H16.5C16.2239 18 16 18.2239 16 18.5V19V19.5C16 19.7761 16.2239 20 16.5 20H17H18H19H19.5C19.7761 20 20 19.7761 20 19.5V19V18.5C20 18.2239 19.7761 18 19.5 18H19H18H17Z" fill="white"/>
<path fill-rule="evenodd" clip-rule="evenodd" d="M15 16H14.5C14.2239 16 14 16.2239 14 16.5V17V17.5C14 17.7761 14.2239 18 14.5 18H15H15.5C15.7761 18 16 17.7761 16 17.5V17V16.5C16 16.2239 15.7761 16 15.5 16H15Z" fill="white"/>
<path fill-rule="evenodd" clip-rule="evenodd" d="M10 12.5C10 12.2239 10.2239 12 10.5 12H11H11.5C11.7761 12 12 12.2239 12 12.5V13V13.5C12 13.7761 12.2239 14 12.5 14H13H13.5C13.7761 14 14 14.2239 14 14.5V15V15.5C14 15.7761 13.7761 16 13.5 16H13H12.5C12.2239 16 12 16.2239 12 16.5V17V17.5C12 17.7761 11.7761 18 11.5 18H11H10H9H8.5C8.22386 18 8 17.7761 8 17.5V17V16V15V14.5C8 14.2239 8.22386 14 8.5 14H9H9.5C9.77614 14 10 13.7761 10 13.5V13V12.5Z" fill="white"/>
<path fill-rule="evenodd" clip-rule="evenodd" d="M14 8.5C14 8.22386 14.2239 8 14.5 8H15H16H17H17.5C17.7761 8 18 8.22386 18 8.5V9V10V11V11.5C18 11.7761 17.7761 12 17.5 12H17H16.5C16.2239 12 16 12.2239 16 12.5V13V13.5C16 13.7761 15.7761 14 15.5 14H15H14.5C14.2239 14 14 13.7761 14 13.5V13V12.5C14 12.2239 13.7761 12 13.5 12H13H12.5C12.2239 12 12 11.7761 12 11.5V11V10.5C12 10.2239 12.2239 10 12.5 10H13H13.5C13.7761 10 14 9.77614 14 9.5V9V8.5Z" fill="white"/>
<path fill-rule="evenodd" clip-rule="evenodd" d="M6 8.5C6 8.22386 6.22386 8 6.5 8H7H7.5C7.77614 8 8 8.22386 8 8.5V9V9.5C8 9.77614 8.22386 10 8.5 10H9H9.5C9.77614 10 10 10.2239 10 10.5V11V11.5C10 11.7761 9.77614 12 9.5 12H9H8.5C8.22386 12 8 12.2239 8 12.5V13V13.5C8 13.7761 7.77614 14 7.5 14H7H6H5H4.5C4.22386 14 4 13.7761 4 13.5V13V12V11V10.5C4 10.2239 4.22386 10 4.5 10H5H5.5C5.77614 10 6 9.77614 6 9.5V9V8.5Z" fill="white"/>
<path fill-rule="evenodd" clip-rule="evenodd" d="M9 4H8.5C8.22386 4 8 4.22386 8 4.5V5V6V7V7.5C8 7.77614 8.22386 8 8.5 8H9H9.5C9.77614 8 10 8.22386 10 8.5V9V9.5C10 9.77614 10.2239 10 10.5 10H11H11.5C11.7761 10 12 9.77614 12 9.5V9V8.5C12 8.22386 12.2239 8 12.5 8H13H13.5C13.7761 8 14 7.77614 14 7.5V7V6.5C14 6.22386 13.7761 6 13.5 6H13H12.5C12.2239 6 12 5.77614 12 5.5V5V4.5C12 4.22386 11.7761 4 11.5 4H11H10H9Z" fill="white"/>
</svg>
