<svg width="24" height="24" viewBox="0 0 24 24" fill="none" xmlns="http://www.w3.org/2000/svg">
<path fill-rule="evenodd" clip-rule="evenodd" d="M5 7.5C5 7.22386 5.22386 7 5.5 7H6H7H8H9H10H11H12H13H14H15H16H17H18H18.5C18.7761 7 19 7.22386 19 7.5V8V9V10V11V12V13V14V15V16V17V17.5C19 17.7761 18.7761 18 18.5 18H18H17H16H15H14H13H12H11H10H9H8.5C8.22386 18 8 17.7761 8 17.5V17V16V15V14V13V12V11.5C8 11.2239 7.77614 11 7.5 11V11C7.22386 11 7 11.2239 7 11.5V12V13V14V15V16V17V17.5C7 17.7761 6.77614 18 6.5 18H6H5.5C5.22386 18 5 17.7761 5 17.5V17V16V15V14V13V12V11V10V9V8V7.5Z" fill="white"/>
</svg>
