<svg width="24" height="24" viewBox="0 0 24 24" fill="none" xmlns="http://www.w3.org/2000/svg">
<path fill-rule="evenodd" clip-rule="evenodd" d="M5 7H4.5C4.22386 7 4 7.22386 4 7.5V8V9V10V10.5C4 10.7761 4.22386 11 4.5 11H5H5.5C5.77614 11 6 10.7761 6 10.5V10V9V8.5C6 8.22386 6.22386 8 6.5 8H7H8H9H10H11H11.5C11.7761 8 12 8.22386 12 8.5V9V9.5C12 9.77614 12.2239 10 12.5 10V10C12.7761 10 13 9.77614 13 9.5V9V8.5C13 8.22386 13.2239 8 13.5 8H14H15H16H17H18H18.5C18.7761 8 19 8.22386 19 8.5V9V10V11V12V13V13.5C19 13.7761 18.7761 14 18.5 14H18H17H16H15H14H13.5C13.2239 14 13 13.7761 13 13.5V13V12V11.5C13 11.2239 12.7761 11 12.5 11V11C12.2239 11 12 11.2239 12 11.5V12V13V13.5C12 13.7761 11.7761 14 11.5 14H11H10H9H8H7H6.5C6.22386 14 6 13.7761 6 13.5V13V12.5C6 12.2239 5.77614 12 5.5 12H5H4.5C4.22386 12 4 12.2239 4 12.5V13V14V15V16V16.5C4 16.7761 4.22386 17 4.5 17H5H6H7H8H9H10H11H12H13H14H15H16H17H18H19H19.5C19.7761 17 20 16.7761 20 16.5V16.5C20 16.2239 19.7761 16 19.5 16V16C19.2239 16 19 15.7761 19 15.5V15.5C19 15.2239 19.2239 15 19.5 15V15C19.7761 15 20 14.7761 20 14.5V14V13V12V11V10V9V8V7.5C20 7.22386 19.7761 7 19.5 7H19H18H17H16H15H14H13H12H11H10H9H8H7H6H5ZM5 15.5C5 15.7761 5.22386 16 5.5 16V16C5.77614 16 6 15.7761 6 15.5V15.5C6 15.2239 5.77614 15 5.5 15V15C5.22386 15 5 15.2239 5 15.5V15.5ZM18 15.5C18 15.2239 17.7761 15 17.5 15V15C17.2239 15 17 15.2239 17 15.5V15.5C17 15.7761 17.2239 16 17.5 16V16C17.7761 16 18 15.7761 18 15.5V15.5ZM15 15.5C15 15.2239 15.2239 15 15.5 15V15C15.7761 15 16 15.2239 16 15.5V15.5C16 15.7761 15.7761 16 15.5 16V16C15.2239 16 15 15.7761 15 15.5V15.5ZM13.5 15C13.2239 15 13 15.2239 13 15.5V15.5C13 15.7761 13.2239 16 13.5 16V16C13.7761 16 14 15.7761 14 15.5V15.5C14 15.2239 13.7761 15 13.5 15V15ZM11.5 15C11.2239 15 11 15.2239 11 15.5V15.5C11 15.7761 11.2239 16 11.5 16V16C11.7761 16 12 15.7761 12 15.5V15.5C12 15.2239 11.7761 15 11.5 15V15ZM9.5 15C9.22386 15 9 15.2239 9 15.5V15.5C9 15.7761 9.22386 16 9.5 16V16C9.77614 16 10 15.7761 10 15.5V15.5C10 15.2239 9.77614 15 9.5 15V15ZM7.5 15C7.22386 15 7 15.2239 7 15.5V15.5C7 15.7761 7.22386 16 7.5 16V16C7.77614 16 8 15.7761 8 15.5V15.5C8 15.2239 7.77614 15 7.5 15V15ZM8 9.5C8 9.22386 8.22386 9 8.5 9H9H10H10.5C10.7761 9 11 9.22386 11 9.5V10V11V11.5C11 11.7761 10.7761 12 10.5 12V12C10.2239 12 10 11.7761 10 11.5V11V10.5C10 10.2239 9.77614 10 9.5 10H9H8.5C8.22386 10 8 9.77614 8 9.5V9.5ZM15 9.5C15 9.22386 15.2239 9 15.5 9H16H17H17.5C17.7761 9 18 9.22386 18 9.5V10V11V11.5C18 11.7761 17.7761 12 17.5 12V12C17.2239 12 17 11.7761 17 11.5V11V10.5C17 10.2239 16.7761 10 16.5 10H16H15.5C15.2239 10 15 9.77614 15 9.5V9.5Z" fill="white"/>
</svg>
