<svg width="24" height="24" viewBox="0 0 24 24" fill="none" xmlns="http://www.w3.org/2000/svg">
<path fill-rule="evenodd" clip-rule="evenodd" d="M12 11H11.5C11.2239 11 11 11.2239 11 11.5V12V12.5C11 12.7761 11.2239 13 11.5 13H12H12.5C12.7761 13 13 12.7761 13 12.5V12V11.5C13 11.2239 12.7761 11 12.5 11H12Z" fill="white"/>
<path fill-rule="evenodd" clip-rule="evenodd" d="M15 5H14H13.5C13.2239 5 13 5.22386 13 5.5V6V6.5C13 6.77614 13.2239 7 13.5 7H14H14.9998C14.9999 7 15 7.00011 15 7.00024V7.00024V8V8.5C15 8.77614 15.2239 9 15.5 9H16H16.5C16.7761 9 17 9.22386 17 9.5V10V10.5C17 10.7761 17.2239 11 17.5 11H18H18.5C18.7761 11 19 10.7761 19 10.5V10V9V8V7V6V5.5C19 5.22386 18.7761 5 18.5 5H18H17H16H15ZM15 6.00012C15 6.00005 15.0001 6 15.0001 6H15.9999C15.9999 6 16 6.00005 16 6.00012V6.00012C16 6.00019 15.9999 6.00024 15.9999 6.00024H15.0001C15.0001 6.00024 15 6.00019 15 6.00012V6.00012Z" fill="white"/>
<path fill-rule="evenodd" clip-rule="evenodd" d="M14 9H13.5C13.2239 9 13 9.22386 13 9.5V10V10.5C13 10.7761 13.2239 11 13.5 11H14H14H14.5C14.7761 11 15 10.7761 15 10.5V10C15 10 15 10 15 10V10C15 10 15 10 15 10V9.5C15 9.22386 14.7761 9 14.5 9H14Z" fill="white"/>
<path fill-rule="evenodd" clip-rule="evenodd" d="M10 13H9.00012C9.00005 13 9 13.0001 9 13.0001V13.0001C9 13.0002 8.99995 13.0002 8.99988 13.0002H8H7.5C7.22386 13.0002 7 13.2241 7 13.5002V14V14.0002V14.5C7 14.7761 6.77614 15 6.5 15H6H5.5C5.22386 15 5 15.2239 5 15.5V16V16.5C5 16.7761 5.22386 17 5.5 17H6H6.5C6.77614 17 7 17.2239 7 17.5V17.9998V18V18.4998C7 18.7759 7.22386 18.9998 7.5 18.9998H8H8.5C8.77614 18.9998 9 18.7759 9 18.4998V18V17.9998V17.5C9 17.2239 9.22386 17 9.5 17H10H10.5C10.7761 17 11 16.7761 11 16.5V16V15V14V13.5C11 13.2239 10.7761 13 10.5 13H10Z" fill="white"/>
</svg>
