<svg width="24" height="24" viewBox="0 0 24 24" fill="none" xmlns="http://www.w3.org/2000/svg">
<path fill-rule="evenodd" clip-rule="evenodd" d="M8 9H7.5C7.22386 9 7 9.22386 7 9.5V10V10.5C7 10.7761 6.77614 11 6.5 11H6H5.5C5.22386 11 5 11.2239 5 11.5V12V12.5C5 12.7761 5.22386 13 5.5 13V13C5.77614 13 6 12.7761 6 12.5V12.5C6 12.2239 6.22386 12 6.5 12V12C6.77614 12 7 12.2239 7 12.5V13V13.5C7 13.7761 7.22386 14 7.5 14H8H9H10H11H11.5C11.7761 14 12 13.7761 12 13.5V13V12.5C12 12.2239 12.2239 12 12.5 12V12C12.7761 12 13 12.2239 13 12.5V13V13.5C13 13.7761 13.2239 14 13.5 14H14H15H16H17H17.5C17.7761 14 18 13.7761 18 13.5V13V12V11V10V9.5C18 9.22386 17.7761 9 17.5 9H17H16H15H14H13.5C13.2239 9 13 9.22386 13 9.5V10V10.5C13 10.7761 12.7761 11 12.5 11V11C12.2239 11 12 10.7761 12 10.5V10V9.5C12 9.22386 11.7761 9 11.5 9H11H10H9H8ZM10.5 13C10.2239 13 10 12.7761 10 12.5V12V11V10.5C10 10.2239 10.2239 10 10.5 10V10C10.7761 10 11 10.2239 11 10.5V11V12V12.5C11 12.7761 10.7761 13 10.5 13V13ZM17 12.5C17 12.7761 16.7761 13 16.5 13V13C16.2239 13 16 12.7761 16 12.5V12V11V10.5C16 10.2239 16.2239 10 16.5 10V10C16.7761 10 17 10.2239 17 10.5V11V12V12.5Z" fill="white"/>
</svg>
