<svg width="24" height="24" viewBox="0 0 24 24" fill="none" xmlns="http://www.w3.org/2000/svg">
<path fill-rule="evenodd" clip-rule="evenodd" d="M16 13H15.5C15.2239 13 15 13.2239 15 13.5V14V14.5C15 14.7761 15.2239 15 15.5 15H16H16.5C16.7761 15 17 14.7761 17 14.5V14V13.5C17 13.2239 16.7761 13 16.5 13H16Z" fill="white"/>
<path fill-rule="evenodd" clip-rule="evenodd" d="M13 7.5C13 7.22386 12.7761 7 12.5 7H12H11.5C11.2239 7 11 7.22386 11 7.5V8V8.5C11 8.77614 10.7761 9 10.5 9H10H9.5C9.22386 9 9 9.22386 9 9.5V10V10.5C9 10.7761 9.22386 11 9.5 11H10H10.5C10.7761 11 11 11.2239 11 11.5V12V13V14V14.5C11 14.7761 10.7761 15 10.5 15H10H9.5C9.22386 15 9 15.2239 9 15.5V16V16.5C9 16.7761 9.22386 17 9.5 17H10H11H12H13H14H14.5C14.7761 17 15 16.7761 15 16.5V16V15.5C15 15.2239 14.7761 15 14.5 15H14H13.5C13.2239 15 13 14.7761 13 14.5V14V13V12V11.5C13 11.2239 13.2239 11 13.5 11H14H14.5C14.7761 11 15 10.7761 15 10.5V10V9.5C15 9.22386 14.7761 9 14.5 9H14H13.5C13.2239 9 13 8.77614 13 8.5V8V7.5Z" fill="white"/>
<path fill-rule="evenodd" clip-rule="evenodd" d="M8 13H7.5C7.22386 13 7 13.2239 7 13.5V14V14.5C7 14.7761 7.22386 15 7.5 15H8H8.5C8.77614 15 9 14.7761 9 14.5V14V13.5C9 13.2239 8.77614 13 8.5 13H8Z" fill="white"/>
</svg>
