<svg width="24" height="24" viewBox="0 0 24 24" fill="none" xmlns="http://www.w3.org/2000/svg">
<path fill-rule="evenodd" clip-rule="evenodd" d="M5 11H4.5C4.22386 11 4 11.2239 4 11.5V12V12.5C4 12.7761 4.22386 13 4.5 13H5H5.5C5.77614 13 6 12.7761 6 12.5V12V11.5C6 11.2239 5.77614 11 5.5 11H5Z" fill="white"/>
<path fill-rule="evenodd" clip-rule="evenodd" d="M7 9H6.5C6.22386 9 6 9.22386 6 9.5V10V10.5C6 10.7761 6.22386 11 6.5 11H7H8H9H9.5C9.77614 11 10 10.7761 10 10.5V10V9.5C10 9.22386 9.77614 9 9.5 9H9H8H7Z" fill="white"/>
<path fill-rule="evenodd" clip-rule="evenodd" d="M11 11H10.5C10.2239 11 10 11.2239 10 11.5V12V13V14V14.5C10 14.7761 10.2239 15 10.5 15H11H12H13H13.5C13.7761 15 14 14.7761 14 14.5V14V13V12V11.5C14 11.2239 13.7761 11 13.5 11H13H12H11Z" fill="white"/>
<path fill-rule="evenodd" clip-rule="evenodd" d="M15 9H14.5C14.2239 9 14 9.22386 14 9.5V10V10.5C14 10.7761 14.2239 11 14.5 11H15H16H17H17.5C17.7761 11 18 10.7761 18 10.5V10V9.5C18 9.22386 17.7761 9 17.5 9H17H16H15Z" fill="white"/>
<path fill-rule="evenodd" clip-rule="evenodd" d="M19 11H18.5C18.2239 11 18 11.2239 18 11.5V12V12.5C18 12.7761 18.2239 13 18.5 13H19H19.5C19.7761 13 20 12.7761 20 12.5V12V11.5C20 11.2239 19.7761 11 19.5 11H19Z" fill="white"/>
</svg>
