<svg width="24" height="24" viewBox="0 0 24 24" fill="none" xmlns="http://www.w3.org/2000/svg">
<path fill-rule="evenodd" clip-rule="evenodd" d="M11 5H12H13H14H15H15.5C15.7761 5 16 5.22386 16 5.5V6V7V8V8.5C16 8.77614 16.2239 9 16.5 9H17H17.5C17.7761 9 18 9.22386 18 9.5V10V10.5C18 10.7761 17.7761 11 17.5 11H17H16.5C16.2239 11 16 11.2239 16 11.5V12V13V14V14.5C16 14.7761 16.2239 15 16.5 15H17H17.5C17.7761 15 18 15.2239 18 15.5V16V16.5C18 16.7761 17.7761 17 17.5 17H17H16H15H14.5C14.2239 17 14 17.2239 14 17.5V18V18.5C14 18.7761 13.7761 19 13.5 19H13H12.5C12.2239 19 12 18.7761 12 18.5V18V17.5C12 17.2239 11.7761 17 11.5 17H11H10H9H8H7H6.5C6.22386 17 6 16.7761 6 16.5V16V15V14V13.5C6 13.2239 6.22386 13 6.5 13H7H7.5C7.77614 13 8 13.2239 8 13.5V14V14.5C8 14.7761 8.22386 15 8.5 15H9H9.5C9.77614 15 10 14.7761 10 14.5L10 14V13V12V11V10V9V8V7V6V5.5C10 5.22386 10.2239 5 10.5 5H11ZM13 7H13.5C13.7761 7 14 7.22386 14 7.5L14 8L14 8.5C14 8.77614 13.7761 9 13.5 9H13H12.5C12.2239 9 12 8.77614 12 8.5V8V7.5C12 7.22386 12.2239 7 12.5 7H13Z" fill="white"/>
</svg>
