<svg width="24" height="24" viewBox="0 0 24 24" fill="none" xmlns="http://www.w3.org/2000/svg">
<path fill-rule="evenodd" clip-rule="evenodd" d="M8 2H7.5C7.22386 2 7 2.22386 7 2.5V3V4V5V6V7V8V9V10V11V11.5C7 11.7761 7.22386 12 7.5 12H8H8.5C8.77614 12 9 12.2239 9 12.5V13V13.5C9 13.7761 9.22386 14 9.5 14H10H11H12H13H14H14.5C14.7761 14 15 13.7761 15 13.5V13V12.5C15 12.2239 15.2239 12 15.5 12H16H16.5C16.7761 12 17 11.7761 17 11.5V11V10V9V8V7V6V5V4V3V2.5C17 2.22386 16.7761 2 16.5 2H16H15.5C15.2239 2 15 2.22386 15 2.5V3V3.5C15 3.77614 14.7761 4 14.5 4H14H13H12H11H10H9.5C9.22386 4 9 3.77614 9 3.5V3V2.5C9 2.22386 8.77614 2 8.5 2H8ZM9.5 8C9.22386 8 9 8.22386 9 8.5V9V9.5C9 9.77614 9.22386 10 9.5 10H10H10.5C10.7761 10 11 9.77614 11 9.5V9V8.5C11 8.22386 10.7761 8 10.5 8H10H9.5ZM13 9.5C13 9.77614 13.2239 10 13.5 10H14H14.5C14.7761 10 15 9.77614 15 9.5V9V8.5C15 8.22386 14.7761 8 14.5 8H14H13.5C13.2239 8 13 8.22386 13 8.5V9V9.5Z" fill="white"/>
<path fill-rule="evenodd" clip-rule="evenodd" d="M16 16H15.5C15.2239 16 15 16.2239 15 16.5V17V17.5C15 17.7761 15.2239 18 15.5 18H16H17H18H18.5C18.7761 18 19 17.7761 19 17.5V17V16.5C19 16.2239 18.7761 16 18.5 16H18H17H16Z" fill="white"/>
<path fill-rule="evenodd" clip-rule="evenodd" d="M9 18.5C9 18.2239 9.22386 18 9.5 18H10H11H12H13H14H14.5C14.7761 18 15 18.2239 15 18.5V19V19.5C15 19.7761 14.7761 20 14.5 20H14H13H12H11H10H9.5C9.22386 20 9 19.7761 9 19.5V19V18.5Z" fill="white"/>
<path fill-rule="evenodd" clip-rule="evenodd" d="M6 16H5.5C5.22386 16 5 16.2239 5 16.5V17V17.5C5 17.7761 5.22386 18 5.5 18H6H7H8H8.5C8.77614 18 9 17.7761 9 17.5V17V16.5C9 16.2239 8.77614 16 8.5 16H8H7H6Z" fill="white"/>
<path fill-rule="evenodd" clip-rule="evenodd" d="M6 20H5.5C5.22386 20 5 20.2239 5 20.5V21V21.5C5 21.7761 5.22386 22 5.5 22H6H7H8H8.5C8.77614 22 9 21.7761 9 21.5V21V20.5C9 20.2239 8.77614 20 8.5 20H8H7H6Z" fill="white"/>
<path fill-rule="evenodd" clip-rule="evenodd" d="M16 20H15.5C15.2239 20 15 20.2239 15 20.5V21V21.5C15 21.7761 15.2239 22 15.5 22H16H17H18H18.5C18.7761 22 19 21.7761 19 21.5V21V20.5C19 20.2239 18.7761 20 18.5 20H18H17H16Z" fill="white"/>
</svg>
