<svg width="24" height="24" viewBox="0 0 24 24" fill="none" xmlns="http://www.w3.org/2000/svg">
<path fill-rule="evenodd" clip-rule="evenodd" d="M10 10H9.5C9.22386 10 9 10.2239 9 10.5V11V11.5C9 11.7761 9.22386 12 9.5 12H10H10.5C10.7761 12 11 11.7761 11 11.5V11V10.5C11 10.2239 10.7761 10 10.5 10H10Z" fill="white"/>
<path fill-rule="evenodd" clip-rule="evenodd" d="M14 10H13.5C13.2239 10 13 10.2239 13 10.5V11V11.5C13 11.7761 13.2239 12 13.5 12H14H14.5C14.7761 12 15 11.7761 15 11.5V11V10.5C15 10.2239 14.7761 10 14.5 10H14Z" fill="white"/>
<path fill-rule="evenodd" clip-rule="evenodd" d="M8 12H7.5C7.22386 12 7 12.2239 7 12.5V13V13.5C7 13.7761 7.22386 14 7.5 14H8H8.5C8.77614 14 9 13.7761 9 13.5V13V12.5C9 12.2239 8.77614 12 8.5 12H8Z" fill="white"/>
<path fill-rule="evenodd" clip-rule="evenodd" d="M10 14H9.5C9.22386 14 9 14.2239 9 14.5V15V15.5C9 15.7761 9.22386 16 9.5 16H10H10.5C10.7761 16 11 16.2239 11 16.5V17V17.5C11 17.7761 11.2239 18 11.5 18H12H12.5C12.7761 18 13 17.7761 13 17.5V17V16.5C13 16.2239 13.2239 16 13.5 16H14H14.5C14.7761 16 15 15.7761 15 15.5V15V14.5C15 14.2239 14.7761 14 14.5 14H14H13H12H11H10Z" fill="white"/>
<path fill-rule="evenodd" clip-rule="evenodd" d="M16 12H15.5C15.2239 12 15 12.2239 15 12.5V13V13.5C15 13.7761 15.2239 14 15.5 14H16H16.5C16.7761 14 17 13.7761 17 13.5V13V12.5C17 12.2239 16.7761 12 16.5 12H16Z" fill="white"/>
<path fill-rule="evenodd" clip-rule="evenodd" d="M12 6H11.5C11.2239 6 11 6.22386 11 6.5V7V8V9V9.5C11 9.77614 11.2239 10 11.5 10H12H12.5C12.7761 10 13 9.77614 13 9.5V9V8V7V6.5C13 6.22386 12.7761 6 12.5 6H12Z" fill="white"/>
</svg>
