<svg width="24" height="24" viewBox="0 0 24 24" fill="none" xmlns="http://www.w3.org/2000/svg">
<path fill-rule="evenodd" clip-rule="evenodd" d="M8 10H7.5C7.22386 10 7 10.2239 7 10.5V11V11.5C7 11.7761 7.22386 12 7.5 12H8H8.5C8.77614 12 9 11.7761 9 11.5V11V10.5C9 10.2239 8.77614 10 8.5 10H8Z" fill="white"/>
<path fill-rule="evenodd" clip-rule="evenodd" d="M12 8H11.5C11.2239 8 11 8.22386 11 8.5V9V9.5C11 9.77614 11.2239 10 11.5 10H12H12.5C12.7761 10 13 9.77614 13 9.5V9V8.5C13 8.22386 12.7761 8 12.5 8H12Z" fill="white"/>
<path fill-rule="evenodd" clip-rule="evenodd" d="M16 10H15.5C15.2239 10 15 10.2239 15 10.5V11V11.5C15 11.7761 15.2239 12 15.5 12H16H16.5C16.7761 12 17 11.7761 17 11.5V11V10.5C17 10.2239 16.7761 10 16.5 10H16Z" fill="white"/>
<path fill-rule="evenodd" clip-rule="evenodd" d="M18 14H17.5C17.2239 14 17 14.2239 17 14.5V15V15.5C17 15.7761 17.2239 16 17.5 16H18H18.5C18.7761 16 19 15.7761 19 15.5V15V14.5C19 14.2239 18.7761 14 18.5 14H18Z" fill="white"/>
<path fill-rule="evenodd" clip-rule="evenodd" d="M10 12H9.5C9.22386 12 9 12.2239 9 12.5V13V14V15V15.5C9 15.7761 9.22386 16 9.5 16H10H11H12H13H14H14.5C14.7761 16 15 15.7761 15 15.5V15V14V13V12.5C15 12.2239 14.7761 12 14.5 12H14H13H12H11H10Z" fill="white"/>
<path fill-rule="evenodd" clip-rule="evenodd" d="M6 14H5.5C5.22386 14 5 14.2239 5 14.5V15V15.5C5 15.7761 5.22386 16 5.5 16H6H6.5C6.77614 16 7 15.7761 7 15.5V15V14.5C7 14.2239 6.77614 14 6.5 14H6Z" fill="white"/>
</svg>
