<svg width="24" height="24" viewBox="0 0 24 24" fill="none" xmlns="http://www.w3.org/2000/svg">
<path fill-rule="evenodd" clip-rule="evenodd" d="M17 9H16.5C16.2239 9 16 9.22386 16 9.5V10V10.5C16 10.7761 16.2239 11 16.5 11H17H17.5C17.7761 11 18 10.7761 18 10.5V10V9.5C18 9.22386 17.7761 9 17.5 9H17Z" fill="white"/>
<path fill-rule="evenodd" clip-rule="evenodd" d="M19 11H18.5C18.2239 11 18 11.2239 18 11.5V12V12.5C18 12.7761 18.2239 13 18.5 13H19H19.5C19.7761 13 20 12.7761 20 12.5V12V11.5C20 11.2239 19.7761 11 19.5 11H19Z" fill="white"/>
<path fill-rule="evenodd" clip-rule="evenodd" d="M17 13H16.5C16.2239 13 16 13.2239 16 13.5V14V14.5C16 14.7761 16.2239 15 16.5 15H17H17.5C17.7761 15 18 14.7761 18 14.5V14V13.5C18 13.2239 17.7761 13 17.5 13H17Z" fill="white"/>
<path fill-rule="evenodd" clip-rule="evenodd" d="M9 15H8.5C8.22386 15 8 15.2239 8 15.5V16V16.5C8 16.7761 8.22386 17 8.5 17H9H10H11H12H13H14H15H15.5C15.7761 17 16 16.7761 16 16.5V16V15.5C16 15.2239 15.7761 15 15.5 15H15H14H13H12H11H10H9Z" fill="white"/>
<path fill-rule="evenodd" clip-rule="evenodd" d="M7 13H6.5C6.22386 13 6 13.2239 6 13.5V14V14.5C6 14.7761 6.22386 15 6.5 15H7H7.5C7.77614 15 8 14.7761 8 14.5V14V13.5C8 13.2239 7.77614 13 7.5 13H7Z" fill="white"/>
<path fill-rule="evenodd" clip-rule="evenodd" d="M5 11H4.5C4.22386 11 4 11.2239 4 11.5V12V12.5C4 12.7761 4.22386 13 4.5 13H5H5.5C5.77614 13 6 12.7761 6 12.5V12V11.5C6 11.2239 5.77614 11 5.5 11H5Z" fill="white"/>
<path fill-rule="evenodd" clip-rule="evenodd" d="M7 9H6.5C6.22386 9 6 9.22386 6 9.5V10V10.5C6 10.7761 6.22386 11 6.5 11H7H7.5C7.77614 11 8 10.7761 8 10.5V10V9.5C8 9.22386 7.77614 9 7.5 9H7Z" fill="white"/>
<path fill-rule="evenodd" clip-rule="evenodd" d="M8 7.5C8 7.22386 8.22386 7 8.5 7H9H10H11H12H13H14H15H15.5C15.7761 7 16 7.22386 16 7.5V8V8.5C16 8.77614 15.7761 9 15.5 9H15H14.5C14.2239 9 14 9.22386 14 9.5V10V11V12V12.5C14 12.7761 13.7761 13 13.5 13H13H12H11H10.5C10.2239 13 10 12.7761 10 12.5V12V11V10V9.5C10 9.22386 9.77614 9 9.5 9H9H8.5C8.22386 9 8 8.77614 8 8.5V8V7.5Z" fill="white"/>
</svg>
