<svg width="24" height="24" viewBox="0 0 24 24" fill="none" xmlns="http://www.w3.org/2000/svg">
<path fill-rule="evenodd" clip-rule="evenodd" d="M7 5.5C7 5.22386 7.22386 5 7.5 5H8H8.5C8.77614 5 9 5.22386 9 5.5V6V7V8V8.5C9 8.77614 8.77614 9 8.5 9H8H7.5C7.22386 9 7 8.77614 7 8.5V8V7V6V5.5Z" fill="white"/>
<path fill-rule="evenodd" clip-rule="evenodd" d="M9 9.5C9 9.22386 9.22386 9 9.5 9H10H10.5C10.7761 9 11 9.22386 11 9.5V10V11V12V12.5C11 12.7761 10.7761 13 10.5 13H10H9.5C9.22386 13 9 12.7761 9 12.5V12V11V10V9.5Z" fill="white"/>
<path fill-rule="evenodd" clip-rule="evenodd" d="M12 13H11.5C11.2239 13 11 13.2239 11 13.5V14V14.5C11 14.7761 11.2239 15 11.5 15H12H12.5C12.7761 15 13 14.7761 13 14.5V14V13.5C13 13.2239 12.7761 13 12.5 13H12Z" fill="white"/>
<path fill-rule="evenodd" clip-rule="evenodd" d="M15 9.5C15 9.22386 14.7761 9 14.5 9H14H13.5C13.2239 9 13 9.22386 13 9.5V10V11V12V12.5C13 12.7761 13.2239 13 13.5 13H14H14.5C14.7761 13 15 12.7761 15 12.5V12V11V10V9.5Z" fill="white"/>
<path fill-rule="evenodd" clip-rule="evenodd" d="M17 5.5C17 5.22386 16.7761 5 16.5 5H16H15.5C15.2239 5 15 5.22386 15 5.5V6V7V8V8.5C15 8.77614 15.2239 9 15.5 9H16H16.5C16.7761 9 17 8.77614 17 8.5V8V7V6V5.5Z" fill="white"/>
<path fill-rule="evenodd" clip-rule="evenodd" d="M13 15.5C13 15.2239 13.2239 15 13.5 15H14H15H16H16.5C16.7761 15 17 15.2239 17 15.5V16V17V18V18.5C17 18.7761 16.7761 19 16.5 19H16H15H14H13.5C13.2239 19 13 18.7761 13 18.5V18V17V16V15.5Z" fill="white"/>
<path fill-rule="evenodd" clip-rule="evenodd" d="M7 15.5C7 15.2239 7.22386 15 7.5 15H8H9H10H10.5C10.7761 15 11 15.2239 11 15.5V16V17V18V18.5C11 18.7761 10.7761 19 10.5 19H10H9H8H7.5C7.22386 19 7 18.7761 7 18.5V18V17V16V15.5Z" fill="white"/>
</svg>
