<svg width="24" height="24" viewBox="0 0 24 24" fill="none" xmlns="http://www.w3.org/2000/svg">
<path fill-rule="evenodd" clip-rule="evenodd" d="M8 6.5C8 6.22386 8.22386 6 8.5 6H9H10H11H12H13H14H15H16H16.5C16.7761 6 17 6.22386 17 6.5V6.5C17 6.77614 17.2239 7 17.5 7V7C17.7761 7 18 7.22386 18 7.5V7.5C18 7.77614 18.2239 8 18.5 8V8C18.7761 8 19 8.22386 19 8.5V9V10V11V12V12.5C19 12.7761 18.7761 13 18.5 13V13C18.2239 13 18 13.2239 18 13.5V13.5C18 13.7761 17.7761 14 17.5 14V14C17.2239 14 17 14.2239 17 14.5V14.5C17 14.7761 16.7761 15 16.5 15H16H15.5C15.2239 15 15 15.2239 15 15.5V16V17V18V18.5C15 18.7761 14.7761 19 14.5 19H14H13H12H11H10.5C10.2239 19 10 18.7761 10 18.5V18V17V16V15.5C10 15.2239 9.77614 15 9.5 15H9H8.5C8.22386 15 8 14.7761 8 14.5V14.5C8 14.2239 7.77614 14 7.5 14V14C7.22386 14 7 13.7761 7 13.5V13.5C7 13.2239 6.77614 13 6.5 13V13C6.22386 13 6 12.7761 6 12.5V12V11V10V9V8.5C6 8.22386 6.22386 8 6.5 8V8C6.77614 8 7 7.77614 7 7.5V7.5C7 7.22386 7.22386 7 7.5 7V7C7.77614 7 8 6.77614 8 6.5V6.5ZM15 11.5C15 11.7761 15.2239 12 15.5 12V12C15.7761 12 16 11.7761 16 11.5V11V10.5C16 10.2239 15.7761 10 15.5 10V10C15.2239 10 15 10.2239 15 10.5V11V11.5ZM14 12V11.5C14 11.2239 13.7761 11 13.5 11V11C13.2239 11 13 11.2239 13 11.5V12V12.5C13 12.7761 12.7761 13 12.5 13H12H11H10H9V12V11.5C9 11.2239 8.77614 11 8.5 11V11C8.22386 11 8 11.2239 8 11.5V12V12.5C8 12.7761 8.22386 13 8.5 13H9V13.5C9 13.7761 9.22386 14 9.5 14H10H10.5C10.7761 14 11 14.2239 11 14.5V15V15.5C11 15.7761 11.2239 16 11.5 16H12H13H13.5C13.7761 16 14 15.7761 14 15.5V15V14.5C14 14.2239 14.2239 14 14.5 14H15H15.5C15.7761 14 16 13.7761 16 13.5V13.5C16 13.2239 15.7761 13 15.5 13H15H14.5C14.2239 13 14 12.7761 14 12.5V12ZM8.5 10C8.77614 10 9 9.77614 9 9.5V9.5C9 9.22386 9.22386 9 9.5 9H10H11H12H12.5C12.7761 9 13 9.22386 13 9.5V9.5C13 9.77614 13.2239 10 13.5 10V10C13.7761 10 14 9.77614 14 9.5V9.5C14 9.22386 14.2239 9 14.5 9H15H16H16.5C16.7761 9 17 8.77614 17 8.5V8.5C17 8.22386 16.7761 8 16.5 8V8C16.2239 8 16 7.77614 16 7.5V7.5C16 7.22386 15.7761 7 15.5 7H15H14H13H12H11H10H9.5C9.22386 7 9 7.22386 9 7.5V7.5C9 7.77614 8.77614 8 8.5 8V8C8.22386 8 8 8.22386 8 8.5V8.5C8 8.77614 7.77614 9 7.5 9V9C7.22386 9 7 9.22386 7 9.5V9.5C7 9.77614 7.22386 10 7.5 10H8H8.5ZM10.5 10C10.2239 10 10 10.2239 10 10.5V11V11.5C10 11.7761 10.2239 12 10.5 12V12C10.7761 12 11 11.7761 11 11.5V11V10.5C11 10.2239 10.7761 10 10.5 10V10ZM13 18H13.5C13.7761 18 14 17.7761 14 17.5V17.5C14 17.2239 13.7761 17 13.5 17H13H12H11.5C11.2239 17 11 17.2239 11 17.5V17.5C11 17.7761 11.2239 18 11.5 18H12H13Z" fill="white"/>
</svg>
