<svg width="24" height="24" viewBox="0 0 24 24" fill="none" xmlns="http://www.w3.org/2000/svg">
<path fill-rule="evenodd" clip-rule="evenodd" d="M20 10.5C20 10.2239 20.2239 10 20.5 10V10C20.7761 10 21 10.2239 21 10.5V10.5C21 10.7761 21.2239 11 21.5 11V11C21.7761 11 22 11.2239 22 11.5V12V12.5C22 12.7761 21.7761 13 21.5 13V13C21.2239 13 21 13.2239 21 13.5V14V14.5C21 14.7761 20.7761 15 20.5 15V15C20.2239 15 20 14.7761 20 14.5V14V13V12V11V10.5Z" fill="white"/>
<path fill-rule="evenodd" clip-rule="evenodd" d="M10 4H9.5C9.22386 4 9 4.22386 9 4.5V4.5C9 4.77614 9.22386 5 9.5 5V5C9.77614 5 10 5.22386 10 5.5V6V7V7.5C10 7.77614 9.77614 8 9.5 8H9H8.5C8.22386 8 8 8.22386 8 8.5V8.5C8 8.77614 7.77614 9 7.5 9H7H6.5C6.22386 9 6 9.22386 6 9.5V9.5C6 9.77614 5.77614 10 5.5 10V10C5.22386 10 5 9.77614 5 9.5V9.5C5 9.22386 4.77614 9 4.5 9V9C4.22386 9 4 8.77614 4 8.5V8.5C4 8.22386 3.77614 8 3.5 8V8C3.22386 8 3 7.77614 3 7.5V7.5C3 7.22386 2.77614 7 2.5 7V7C2.22386 7 2 7.22386 2 7.5V8V9V10V11V11.5C2 11.7761 2.22386 12 2.5 12V12C2.77614 12 3 12.2239 3 12.5V13V14V14.5C3 14.7761 2.77614 15 2.5 15V15C2.22386 15 2 15.2239 2 15.5V16V17V18V18.5C2 18.7761 2.22386 19 2.5 19V19C2.77614 19 3 18.7761 3 18.5V18.5C3 18.2239 3.22386 18 3.5 18V18C3.77614 18 4 17.7761 4 17.5V17.5C4 17.2239 4.22386 17 4.5 17V17C4.77614 17 5 16.7761 5 16.5V16.5C5 16.2239 5.22386 16 5.5 16V16C5.77614 16 6 16.2239 6 16.5V17V18V19V19.5C6 19.7761 6.22386 20 6.5 20H7H8H9H10H11H12H13H14H15H16H17H17.5C17.7761 20 18 19.7761 18 19.5V19.5C18 19.2239 17.7761 19 17.5 19V19C17.2239 19 17 18.7761 17 18.5V18.5C17 18.2239 16.7761 18 16.5 18V18C16.2239 18 16 18.2239 16 18.5V18.5C16 18.7761 15.7761 19 15.5 19V19C15.2239 19 15 18.7761 15 18.5V18.5C15 18.2239 14.7761 18 14.5 18V18C14.2239 18 14 18.2239 14 18.5V18.5C14 18.7761 13.7761 19 13.5 19V19C13.2239 19 13 18.7761 13 18.5V18.5C13 18.2239 13.2239 18 13.5 18V18C13.7761 18 14 17.7761 14 17.5V17.5C14 17.2239 14.2239 17 14.5 17V17C14.7761 17 15 17.2239 15 17.5V17.5C15 17.7761 15.2239 18 15.5 18V18C15.7761 18 16 17.7761 16 17.5V17.5C16 17.2239 16.2239 17 16.5 17V17C16.7761 17 17 17.2239 17 17.5V17.5C17 17.7761 17.2239 18 17.5 18V18C17.7761 18 18 18.2239 18 18.5V18.5C18 18.7761 18.2239 19 18.5 19V19C18.7761 19 19 18.7761 19 18.5V18V17.5C19 17.2239 19.2239 17 19.5 17V17C19.7761 17 20 16.7761 20 16.5V16.5C20 16.2239 19.7761 16 19.5 16H19H18H17H16H15H14.5C14.2239 16 14 15.7761 14 15.5V15V14V13.5C14 13.2239 13.7761 13 13.5 13V13C13.2239 13 13 13.2239 13 13.5V14V15V15.5C13 15.7761 12.7761 16 12.5 16H12H11H10H9H8H7.5C7.22386 16 7 15.7761 7 15.5V15V14V13.5C7 13.2239 6.77614 13 6.5 13H6H5.5C5.22386 13 5 13.2239 5 13.5V14V14.5C5 14.7761 4.77614 15 4.5 15V15C4.22386 15 4 14.7761 4 14.5V14V13V12.5C4 12.2239 4.22386 12 4.5 12H5H6H6.5C6.77614 12 7 11.7761 7 11.5V11V10.5C7 10.2239 7.22386 10 7.5 10H8H9H10H11H12H12.5C12.7761 10 13 10.2239 13 10.5V11V11.5C13 11.7761 13.2239 12 13.5 12V12C13.7761 12 14 11.7761 14 11.5V11V10.5C14 10.2239 14.2239 10 14.5 10H15H16H17H18H19H19.5C19.7761 10 20 9.77614 20 9.5V9.5C20 9.22386 19.7761 9 19.5 9V9C19.2239 9 19 8.77614 19 8.5V8.5C19 8.22386 18.7761 8 18.5 8V8C18.2239 8 18 7.77614 18 7.5V7.5C18 7.22386 17.7761 7 17.5 7H17H16H15H14.5C14.2239 7 14 6.77614 14 6.5V6.5C14 6.22386 13.7761 6 13.5 6V6C13.2239 6 13 5.77614 13 5.5V5.5C13 5.22386 12.7761 5 12.5 5V5C12.2239 5 12 4.77614 12 4.5V4.5C12 4.22386 11.7761 4 11.5 4H11H10ZM8.5 19C8.22386 19 8 18.7761 8 18.5V18.5C8 18.2239 8.22386 18 8.5 18V18C8.77614 18 9 17.7761 9 17.5V17.5C9 17.2239 9.22386 17 9.5 17V17C9.77614 17 10 17.2239 10 17.5V17.5C10 17.7761 10.2239 18 10.5 18V18C10.7761 18 11 17.7761 11 17.5V17.5C11 17.2239 11.2239 17 11.5 17V17C11.7761 17 12 17.2239 12 17.5V17.5C12 17.7761 11.7761 18 11.5 18V18C11.2239 18 11 18.2239 11 18.5V18.5C11 18.7761 10.7761 19 10.5 19V19C10.2239 19 10 18.7761 10 18.5V18.5C10 18.2239 9.77614 18 9.5 18V18C9.22386 18 9 18.2239 9 18.5V18.5C9 18.7761 8.77614 19 8.5 19V19ZM9 11H8.5C8.22386 11 8 11.2239 8 11.5V12V13V14V14.5C8 14.7761 8.22386 15 8.5 15H9H9.5C9.77614 15 10 14.7761 10 14.5V14V13V12V11.5C10 11.2239 9.77614 11 9.5 11H9ZM16 11H15.5C15.2239 11 15 11.2239 15 11.5V12V13V14V14.5C15 14.7761 15.2239 15 15.5 15H16H16.5C16.7761 15 17 14.7761 17 14.5V14V13V12V11.5C17 11.2239 16.7761 11 16.5 11H16Z" fill="white"/>
</svg>
