<svg width="24" height="24" viewBox="0 0 24 24" fill="none" xmlns="http://www.w3.org/2000/svg">
<path fill-rule="evenodd" clip-rule="evenodd" d="M12 4.5C12 4.22386 12.2239 4 12.5 4V4C12.7761 4 13 4.22386 13 4.5V5V6V6.5C13 6.77614 13.2239 7 13.5 7V7C13.7761 7 14 7.22386 14 7.5V7.5C14 7.77614 14.2239 8 14.5 8V8C14.7761 8 15 8.22386 15 8.5V8.5C15 8.77614 14.7761 9 14.5 9V9C14.2239 9 14 9.22386 14 9.5V10V10.5C14 10.7761 14.2239 11 14.5 11V11C14.7761 11 15 10.7761 15 10.5V10.5C15 10.2239 15.2239 10 15.5 10V10C15.7761 10 16 9.77614 16 9.5V9.5C16 9.22386 16.2239 9 16.5 9V9C16.7761 9 17 8.77614 17 8.5V8.5C17 8.22386 17.2239 8 17.5 8V8C17.7761 8 18 7.77614 18 7.5V7.5C18 7.22386 18.2239 7 18.5 7H19H19.5C19.7761 7 20 7.22386 20 7.5V7.5C20 7.77614 19.7761 8 19.5 8V8C19.2239 8 19 8.22386 19 8.5V9V9.5C19 9.77614 18.7761 10 18.5 10V10C18.2239 10 18 10.2239 18 10.5V11V11.5C18 11.7761 17.7761 12 17.5 12V12C17.2239 12 17 12.2239 17 12.5V12.5C17 12.7761 17.2239 13 17.5 13H18H19H20H20.5C20.7761 13 21 13.2239 21 13.5V13.5C21 13.7761 20.7761 14 20.5 14V14C20.2239 14 20 14.2239 20 14.5V14.5C20 14.7761 19.7761 15 19.5 15H19H18H17.5C17.2239 15 17 15.2239 17 15.5V15.5C17 15.7761 16.7761 16 16.5 16H16H15.5C15.2239 16 15 16.2239 15 16.5V16.5C15 16.7761 15.2239 17 15.5 17V17C15.7761 17 16 17.2239 16 17.5V17.5C16 17.7761 16.2239 18 16.5 18H17H17.5C17.7761 18 18 18.2239 18 18.5V18.5C18 18.7761 18.2239 19 18.5 19V19C18.7761 19 19 19.2239 19 19.5V19.5C19 19.7761 18.7761 20 18.5 20H18H17.5C17.2239 20 17 19.7761 17 19.5V19.5C17 19.2239 16.7761 19 16.5 19H16H15H14H13H12H11H10H9H8H7.5C7.22386 19 7 19.2239 7 19.5V19.5C7 19.7761 6.77614 20 6.5 20H6H5.5C5.22386 20 5 19.7761 5 19.5V19.5C5 19.2239 5.22386 19 5.5 19V19C5.77614 19 6 18.7761 6 18.5V18.5C6 18.2239 6.22386 18 6.5 18H7H7.5C7.77614 18 8 17.7761 8 17.5V17.5C8 17.2239 8.22386 17 8.5 17V17C8.77614 17 9 16.7761 9 16.5V16.5C9 16.2239 8.77614 16 8.5 16H8H7H6H5.5C5.22386 16 5 15.7761 5 15.5V15.5C5 15.2239 4.77614 15 4.5 15V15C4.22386 15 4 14.7761 4 14.5V14.5C4 14.2239 3.77614 14 3.5 14V14C3.22386 14 3 13.7761 3 13.5V13.5C3 13.2239 3.22386 13 3.5 13V13C3.77614 13 4 12.7761 4 12.5V12.5C4 12.2239 4.22386 12 4.5 12V12C4.77614 12 5 12.2239 5 12.5V12.5C5 12.7761 5.22386 13 5.5 13V13C5.77614 13 6 13.2239 6 13.5V13.5C6 13.7761 6.22386 14 6.5 14V14C6.77614 14 7 13.7761 7 13.5V13.5C7 13.2239 7.22386 13 7.5 13V13C7.77614 13 8 12.7761 8 12.5V12.5C8 12.2239 7.77614 12 7.5 12V12C7.22386 12 7 11.7761 7 11.5V11.5C7 11.2239 6.77614 11 6.5 11V11C6.22386 11 6 10.7761 6 10.5V10.5C6 10.2239 5.77614 10 5.5 10V10C5.22386 10 5 9.77614 5 9.5V9V8V7.5C5 7.22386 5.22386 7 5.5 7V7C5.77614 7 6 7.22386 6 7.5V7.5C6 7.77614 6.22386 8 6.5 8V8C6.77614 8 7 8.22386 7 8.5V8.5C7 8.77614 7.22386 9 7.5 9V9C7.77614 9 8 8.77614 8 8.5V8.5C8 8.22386 8.22386 8 8.5 8V8C8.77614 8 9 8.22386 9 8.5V9V9.5C9 9.77614 9.22386 10 9.5 10V10C9.77614 10 10 10.2239 10 10.5V10.5C10 10.7761 10.2239 11 10.5 11V11C10.7761 11 11 10.7761 11 10.5V10V9.5C11 9.22386 10.7761 9 10.5 9V9C10.2239 9 10 8.77614 10 8.5V8.5C10 8.22386 10.2239 8 10.5 8V8C10.7761 8 11 7.77614 11 7.5V7.5C11 7.22386 10.7761 7 10.5 7V7C10.2239 7 10 6.77614 10 6.5V6.5C10 6.22386 10.2239 6 10.5 6V6C10.7761 6 11 5.77614 11 5.5V5.5C11 5.22386 11.2239 5 11.5 5V5C11.7761 5 12 4.77614 12 4.5V4.5ZM3 12.5C3 12.2239 2.77614 12 2.5 12V12C2.22386 12 2 12.2239 2 12.5V12.5C2 12.7761 2.22386 13 2.5 13V13C2.77614 13 3 12.7761 3 12.5V12.5ZM21 12.5C21 12.2239 21.2239 12 21.5 12V12C21.7761 12 22 12.2239 22 12.5V12.5C22 12.7761 21.7761 13 21.5 13V13C21.2239 13 21 12.7761 21 12.5V12.5ZM15 6.5C15 6.22386 14.7761 6 14.5 6V6C14.2239 6 14 6.22386 14 6.5V6.5C14 6.77614 14.2239 7 14.5 7V7C14.7761 7 15 6.77614 15 6.5V6.5Z" fill="white"/>
</svg>
