<svg width="24" height="24" viewBox="0 0 24 24" fill="none" xmlns="http://www.w3.org/2000/svg">
<path fill-rule="evenodd" clip-rule="evenodd" d="M4 6.5C4 6.22386 4.22386 6 4.5 6H5H6H7H8H9H10H11H12H13H14H15H16H17H18H18.5C18.7761 6 19 6.22386 19 6.5V7V8V9V10V11V12V13V14V15V16V17V17.5C19 17.7761 18.7761 18 18.5 18H18H17H16H15H14H13H12H11H10H9H8H7H6H5H4.5C4.22386 18 4 17.7761 4 17.5V17V16V15V14V13V12V11V10V9V8V7V6.5ZM15 17H16H17H17.5C17.7761 17 18 16.7761 18 16.5V16.5C18 16.2239 17.7761 16 17.5 16H17H16H15H14.5C14.2239 16 14 15.7761 14 15.5V15.5C14 15.2239 14.2239 15 14.5 15H15H16H17H17.5C17.7761 15 18 14.7761 18 14.5V14.5C18 14.2239 17.7761 14 17.5 14H17H16H15H14.5C14.2239 14 14 13.7761 14 13.5V13.5C14 13.2239 14.2239 13 14.5 13H15H16H17H17.5C17.7761 13 18 12.7761 18 12.5V12.5C18 12.2239 17.7761 12 17.5 12H17H16H15H14.5C14.2239 12 14 11.7761 14 11.5V11.5C14 11.2239 14.2239 11 14.5 11H15H16H17H17.5C17.7761 11 18 10.7761 18 10.5V10.5C18 10.2239 17.7761 10 17.5 10H17H16H15H14.5C14.2239 10 14 9.77614 14 9.5V9.5C14 9.22386 14.2239 9 14.5 9H15H16H17H17.5C17.7761 9 18 8.77614 18 8.5V8V7.5C18 7.22386 17.7761 7 17.5 7H17H16H15H14H13H12H11H10H9H8H7H6H5.5C5.22386 7 5 7.22386 5 7.5V8V9V10V11V12V13V14V15V16V16.5C5 16.7761 5.22386 17 5.5 17H6H6.5C6.77614 17 7 16.7761 7 16.5V16V15V14V13V12V11V10V9.5C7 9.22386 7.22386 9 7.5 9H8H9H10H11H11.5C11.7761 9 12 9.22386 12 9.5V9.5C12 9.77614 11.7761 10 11.5 10H11H10H9H8.5C8.22386 10 8 10.2239 8 10.5V10.5C8 10.7761 8.22386 11 8.5 11H9H10H11H11.5C11.7761 11 12 11.2239 12 11.5V11.5C12 11.7761 11.7761 12 11.5 12H11H10H9H8.5C8.22386 12 8 12.2239 8 12.5V12.5C8 12.7761 8.22386 13 8.5 13H9H10H11H11.5C11.7761 13 12 13.2239 12 13.5V13.5C12 13.7761 11.7761 14 11.5 14H11H10H9H8.5C8.22386 14 8 14.2239 8 14.5V14.5C8 14.7761 8.22386 15 8.5 15H9H10H11H11.5C11.7761 15 12 15.2239 12 15.5V15.5C12 15.7761 11.7761 16 11.5 16H11H10H9H8.5C8.22386 16 8 16.2239 8 16.5V16.5C8 16.7761 8.22386 17 8.5 17H9H10H11H12H13H14H15Z" fill="white"/>
</svg>
