<svg width="24" height="24" viewBox="0 0 24 24" fill="none" xmlns="http://www.w3.org/2000/svg">
<path fill-rule="evenodd" clip-rule="evenodd" d="M4 8H3.5C3.22386 8 3 8.22386 3 8.5V9V10V11V12V13V14V15V15.5C3 15.7761 3.22386 16 3.5 16H4H4.5C4.77614 16 5 15.7761 5 15.5V15V14.5C5 14.2239 5.22386 14 5.5 14H6H6.5C6.77614 14 7 13.7761 7 13.5V13V12.5C7 12.2239 6.77614 12 6.5 12H6H5.5C5.22386 12 5 11.7761 5 11.5V11V10.5C5 10.2239 5.22386 10 5.5 10H6H6.5C6.77614 10 7 9.77614 7 9.5V9V8.5C7 8.22386 6.77614 8 6.5 8H6H5H4ZM7 10.5C7 10.2239 7.22386 10 7.5 10H8H8.5C8.77614 10 9 10.2239 9 10.5V11V11.5C9 11.7761 8.77614 12 8.5 12H8H7.5C7.22386 12 7 11.7761 7 11.5V11V10.5ZM7.5 14C7.22386 14 7 14.2239 7 14.5V15V15.5C7 15.7761 7.22386 16 7.5 16H8H8.5C8.77614 16 9 15.7761 9 15.5V15V14.5C9 14.2239 8.77614 14 8.5 14H8H7.5ZM11.5 16C11.2239 16 11 15.7761 11 15.5V15V14V13V12V11V10V9V8.5C11 8.22386 11.2239 8 11.5 8H12H12.5C12.7761 8 13 8.22386 13 8.5V9V10V11V12V13V14V15V15.5C13 15.7761 12.7761 16 12.5 16H12H11.5ZM15 8.5C15 8.22386 15.2239 8 15.5 8H16H17H18H18.5C18.7761 8 19 8.22386 19 8.5V9V9.5C19 9.77614 18.7761 10 18.5 10H18H17.5C17.2239 10 17 10.2239 17 10.5V11V11.5C17 11.7761 17.2239 12 17.5 12H18H18.5C18.7761 12 19 12.2239 19 12.5V13V13.5C19 13.7761 18.7761 14 18.5 14H18H17.5C17.2239 14 17 14.2239 17 14.5V15V15.5C17 15.7761 16.7761 16 16.5 16H16H15.5C15.2239 16 15 15.7761 15 15.5V15V14V13V12V11V10V9V8.5ZM19 10.5C19 10.2239 19.2239 10 19.5 10H20H20.5C20.7761 10 21 10.2239 21 10.5V11V11.5C21 11.7761 20.7761 12 20.5 12H20H19.5C19.2239 12 19 11.7761 19 11.5V11V10.5Z" fill="white"/>
</svg>
