<svg width="24" height="24" viewBox="0 0 24 24" fill="none" xmlns="http://www.w3.org/2000/svg">
<path fill-rule="evenodd" clip-rule="evenodd" d="M5 7.5C5 7.22386 5.22386 7 5.5 7H6H7H8H9H10H11H12H13H14H15H16H17H18H18.5C18.7761 7 19 7.22386 19 7.5V7.5C19 7.77614 19.2239 8 19.5 8V8C19.7761 8 20 8.22386 20 8.5V9V10V11V11.5C20 11.7761 20.2239 12 20.5 12V12C20.7761 12 21 12.2239 21 12.5V12.5C21 12.7761 21.2239 13 21.5 13V13C21.7761 13 22 13.2239 22 13.5V14V14.5C22 14.7761 21.7761 15 21.5 15H21H20.5C20.2239 15 20 14.7761 20 14.5V14.5C20 14.2239 19.7761 14 19.5 14V14C19.2239 14 19 14.2239 19 14.5V14.5C19 14.7761 18.7761 15 18.5 15V15C18.2239 15 18 14.7761 18 14.5V14.5C18 14.2239 17.7761 14 17.5 14V14C17.2239 14 17 14.2239 17 14.5V14.5C17 14.7761 16.7761 15 16.5 15V15C16.2239 15 16 14.7761 16 14.5V14.5C16 14.2239 15.7761 14 15.5 14V14C15.2239 14 15 14.2239 15 14.5V14.5C15 14.7761 14.7761 15 14.5 15V15C14.2239 15 14 14.7761 14 14.5V14.5C14 14.2239 13.7761 14 13.5 14V14C13.2239 14 13 14.2239 13 14.5V14.5C13 14.7761 12.7761 15 12.5 15V15C12.2239 15 12 14.7761 12 14.5V14.5C12 14.2239 11.7761 14 11.5 14V14C11.2239 14 11 14.2239 11 14.5V14.5C11 14.7761 10.7761 15 10.5 15V15C10.2239 15 10 14.7761 10 14.5V14.5C10 14.2239 9.77614 14 9.5 14V14C9.22386 14 9 14.2239 9 14.5V14.5C9 14.7761 8.77614 15 8.5 15V15C8.22386 15 8 14.7761 8 14.5V14V13.5C8 13.2239 7.77614 13 7.5 13V13C7.22386 13 7 13.2239 7 13.5V13.5C7 13.7761 6.77614 14 6.5 14V14C6.22386 14 6 13.7761 6 13.5V13.5C6 13.2239 5.77614 13 5.5 13V13C5.22386 13 5 12.7761 5 12.5V12V11.5C5 11.2239 4.77614 11 4.5 11V11C4.22386 11 4 11.2239 4 11.5V12V12.5C4 12.7761 4.22386 13 4.5 13V13C4.77614 13 5 13.2239 5 13.5V13.5C5 13.7761 5.22386 14 5.5 14V14C5.77614 14 6 14.2239 6 14.5V14.5C6 14.7761 5.77614 15 5.5 15H5H4H3.5C3.22386 15 3 14.7761 3 14.5V14V13V12V11V10V9.5C3 9.22386 3.22386 9 3.5 9V9C3.77614 9 4 8.77614 4 8.5V8.5C4 8.22386 4.22386 8 4.5 8V8C4.77614 8 5 7.77614 5 7.5V7.5ZM19 9.5C19 9.22386 18.7761 9 18.5 9H18H17H16H15H14.5C14.2239 9 14 9.22386 14 9.5V10V10.5C14 10.7761 14.2239 11 14.5 11H15H16H17H18H18.5C18.7761 11 19 10.7761 19 10.5V10V9.5ZM12.5 11C12.7761 11 13 10.7761 13 10.5V10V9.5C13 9.22386 12.7761 9 12.5 9H12H11H10H9H8.5C8.22386 9 8 9.22386 8 9.5V10V10.5C8 10.7761 8.22386 11 8.5 11H9H10H11H12H12.5ZM4 16.5C4 16.2239 4.22386 16 4.5 16H5H5.5C5.77614 16 6 16.2239 6 16.5V16.5C6 16.7761 6.22386 17 6.5 17H7H7.5C7.77614 17 8 16.7761 8 16.5V16.5C8 16.2239 8.22386 16 8.5 16V16C8.77614 16 9 16.2239 9 16.5V16.5C9 16.7761 9.22386 17 9.5 17V17C9.77614 17 10 16.7761 10 16.5V16.5C10 16.2239 10.2239 16 10.5 16V16C10.7761 16 11 16.2239 11 16.5V16.5C11 16.7761 11.2239 17 11.5 17V17C11.7761 17 12 16.7761 12 16.5V16.5C12 16.2239 12.2239 16 12.5 16V16C12.7761 16 13 16.2239 13 16.5V16.5C13 16.7761 13.2239 17 13.5 17V17C13.7761 17 14 16.7761 14 16.5V16.5C14 16.2239 14.2239 16 14.5 16V16C14.7761 16 15 16.2239 15 16.5V16.5C15 16.7761 15.2239 17 15.5 17V17C15.7761 17 16 16.7761 16 16.5V16.5C16 16.2239 16.2239 16 16.5 16V16C16.7761 16 17 16.2239 17 16.5V16.5C17 16.7761 17.2239 17 17.5 17V17C17.7761 17 18 16.7761 18 16.5V16.5C18 16.2239 18.2239 16 18.5 16V16C18.7761 16 19 16.2239 19 16.5V16.5C19 16.7761 19.2239 17 19.5 17V17C19.7761 17 20 16.7761 20 16.5V16.5C20 16.2239 20.2239 16 20.5 16H21H21.5C21.7761 16 22 16.2239 22 16.5V16.5C22 16.7761 21.7761 17 21.5 17V17C21.2239 17 21 17.2239 21 17.5V17.5C21 17.7761 20.7761 18 20.5 18H20H19H18H17H16H15H14H13H12H11H10H9H8H7H6H5H4.5C4.22386 18 4 17.7761 4 17.5V17V16.5Z" fill="white"/>
</svg>
