<svg width="24" height="24" viewBox="0 0 24 24" fill="none" xmlns="http://www.w3.org/2000/svg">
<path fill-rule="evenodd" clip-rule="evenodd" d="M18 8H19H19.5C19.7761 8 20 8.22386 20 8.5V9V10V11V12V13V13.5C20 13.7761 19.7761 14 19.5 14H19H18H17H16H15H14.5C14.2239 14 14 13.7761 14 13.5V13V12V11.5C14 11.2239 13.7761 11 13.5 11V11C13.2239 11 13 11.2239 13 11.5V12V13V13.5C13 13.7761 12.7761 14 12.5 14H12H11H10H9H8H7.5C7.22386 14 7 13.7761 7 13.5V13V12V11.5C7 11.2239 6.77614 11 6.5 11H6H5.5C5.22386 11 5 11.2239 5 11.5V12V12.5C5 12.7761 4.77614 13 4.5 13V13C4.22386 13 4 12.7761 4 12.5V12V11V10.5C4 10.2239 4.22386 10 4.5 10H5H6H6.5C6.77614 10 7 9.77614 7 9.5V9V8.5C7 8.22386 7.22386 8 7.5 8H8H9H10H11H12H12.5C12.7761 8 13 8.22386 13 8.5V9V9.5C13 9.77614 13.2239 10 13.5 10V10C13.7761 10 14 9.77614 14 9.5V9V8.5C14 8.22386 14.2239 8 14.5 8H15H16H17H18ZM18 10.5C18 10.2239 18.2239 10 18.5 10V10C18.7761 10 19 10.2239 19 10.5V10.5C19 10.7761 18.7761 11 18.5 11V11C18.2239 11 18 10.7761 18 10.5V10.5ZM15.5 11C15.7761 11 16 10.7761 16 10.5V10.5C16 10.2239 15.7761 10 15.5 10V10C15.2239 10 15 10.2239 15 10.5V10.5C15 10.7761 15.2239 11 15.5 11V11ZM11.5 11C11.7761 11 12 10.7761 12 10.5V10.5C12 10.2239 11.7761 10 11.5 10V10C11.2239 10 11 10.2239 11 10.5V10.5C11 10.7761 11.2239 11 11.5 11V11ZM8.5 11C8.77614 11 9 10.7761 9 10.5V10.5C9 10.2239 8.77614 10 8.5 10V10C8.22386 10 8 10.2239 8 10.5V10.5C8 10.7761 8.22386 11 8.5 11V11Z" fill="white"/>
</svg>
