<svg width="24" height="24" viewBox="0 0 24 24" fill="none" xmlns="http://www.w3.org/2000/svg">
<path fill-rule="evenodd" clip-rule="evenodd" d="M8 9H9H10H11H12H12.5C12.7761 9 13 9.22386 13 9.5V10V10.5C13 10.7761 13.2239 11 13.5 11V11C13.7761 11 14 10.7761 14 10.5V10V9.5C14 9.22386 14.2239 9 14.5 9H15H16H17H18H19H19.5C19.7761 9 20 9.22386 20 9.5V10V11V12V13V14V14.5C20 14.7761 19.7761 15 19.5 15H19H18H17H16H15H14.5C14.2239 15 14 14.7761 14 14.5V14V13V12.5C14 12.2239 13.7761 12 13.5 12V12C13.2239 12 13 12.2239 13 12.5V13V14V14.5C13 14.7761 12.7761 15 12.5 15H12H11H10H9H8H7.5C7.22386 15 7 14.7761 7 14.5V14V13V12.5C7 12.2239 6.77614 12 6.5 12H6H5.5C5.22386 12 5 12.2239 5 12.5V13V13.5C5 13.7761 4.77614 14 4.5 14V14C4.22386 14 4 13.7761 4 13.5V13V12V11.5C4 11.2239 4.22386 11 4.5 11H5H6H6.5C6.77614 11 7 10.7761 7 10.5V10V9.5C7 9.22386 7.22386 9 7.5 9H8ZM12 10.5C12 10.2239 11.7761 10 11.5 10H11H10.5C10.2239 10 10 10.2239 10 10.5V10.5C10 10.7761 9.77614 11 9.5 11V11C9.22386 11 9 11.2239 9 11.5V12V12.5C9 12.7761 9.22386 13 9.5 13H10H10.5C10.7761 13 11 12.7761 11 12.5V12.5C11 12.2239 11.2239 12 11.5 12V12C11.7761 12 12 11.7761 12 11.5V11V10.5ZM16.5 13C16.2239 13 16 12.7761 16 12.5V12V11.5C16 11.2239 16.2239 11 16.5 11V11C16.7761 11 17 10.7761 17 10.5V10.5C17 10.2239 17.2239 10 17.5 10H18H18.5C18.7761 10 19 10.2239 19 10.5V11V11.5C19 11.7761 18.7761 12 18.5 12V12C18.2239 12 18 12.2239 18 12.5V12.5C18 12.7761 17.7761 13 17.5 13H17H16.5Z" fill="white"/>
</svg>
