<svg width="24" height="24" viewBox="0 0 24 24" fill="none" xmlns="http://www.w3.org/2000/svg">
<path fill-rule="evenodd" clip-rule="evenodd" d="M11 3H12H13H14V4H15H16V5H17V6V7H18V8V9V10V11H19V12V13V14H20V15V16V17H19H18H17H16H15H14H13H12H11H10H9H8H7H6H5H4V16V15V14H5V13V12V11H6V10V9V8V7H7V6V5H8V4H9H10V3H11ZM8 11V10V9V8H9V7V6H10H11V5H12H13V6H14H15V7V8H16V9V10V11V12H17V13V14V15H16H15H14H13H12H11H10H9H8H7V14V13V12H8V11ZM14 19H15V20V21H14H13V22H12H11V21H10H9V20V19H10H11V20H12H13V19H14Z" fill="white"/>
</svg>
