<svg width="24" height="24" viewBox="0 0 24 24" fill="none" xmlns="http://www.w3.org/2000/svg">
<path fill-rule="evenodd" clip-rule="evenodd" d="M11 3H12H13V4H14H15V5H16H17V6H18H19V7H20H21V8V9V10V11V12V13V14V15V16V17H20H19V18H18H17V19H16H15V20H14H13V21H12H11V20H10H9V19H8H7V18H6H5V17H4H3V16V15V14V13V12V11V10V9V8V7H4H5V6H6H7V5H8H9V4H10H11V3ZM11 18V17V16V15V14V13V12H10H9V11H8H7V10H6H5V11V12V13V14V15V16H6H7V17H8H9V18H10H11ZM12 11H13V10H14H15V9H16H17V8V7H16H15V6H14H13V5H12H11V6H10H9V7H8H7V8V9H8H9V10H10H11V11H12ZM17 10V11H16H15V12H14H13V13V14V15V16V17V18H14H15V17H16H17V16H18H19V15V14V13V12V11V10H18H17Z" fill="white"/>
</svg>
