<svg width="24" height="24" viewBox="0 0 24 24" fill="none" xmlns="http://www.w3.org/2000/svg">
<path fill-rule="evenodd" clip-rule="evenodd" d="M5 4H4H3V5V6H4V7H5V8H6V9H7V10H8V11H9V12H10V13H11V14H12V15H13V16H14V17H15V18H16V19H17V20H18V21H19H20V20V19H19V18H18V17H17V16H16V15H15V14H14V13H13V12H12V11H11V10H10V9H9V8H8V7H7V6H6V5H5V4ZM12 5H11H10H9V6H10V7H11H12H13H14V8H15V9H16H17H18H19H20V10V11V12V13V14V15V16V17H21V18H22V17V16V15V14V13V12V11V10V9V8V7H21H20H19H18H17H16V6H15V5H14H13H12ZM2 10V9V8V7H3V8H4V9V10V11V12V13V14V15V16V17V18H5H6H7H8H9H10H11H12H13H14V19H15V20H14H13H12H11H10H9H8H7H6H5H4H3H2V19V18V17V16V15V14V13V12V11V10ZM12 16H11V15H10V14H9V13H8V14H9V15V16H10H11V17H12V16ZM13 10H14H15V11V12H14V11H13V10ZM13 10H12V9H13V10ZM15 12H16V13H15V12Z" fill="white"/>
</svg>
