<svg width="24" height="24" viewBox="0 0 24 24" fill="none" xmlns="http://www.w3.org/2000/svg">
<path fill-rule="evenodd" clip-rule="evenodd" d="M12 5H11H10H9V6H8V7H7H6H5H4H3H2V8V9V10V11V12V13V14V15V16V17V18V19V20H3H4H5H6H7H8H9H10H11H12H13H14H15H16H17H18H19H20H21H22V19V18V17V16V15V14V13V12V11V10V9V8V7H21H20H19H18H17H16V6H15V5H14H13H12ZM20 17V18H19H18H17H16H15H14H13H12H11H10H9H8H7H6H5H4V17V16V15V14V13V12V11V10V9H5H6H7H8H9V8H10V7H11H12H13H14V8H15V9H16H17H18H19H20V10V11V12V13V14V15V16V17ZM13 10H14H15V11V12H16V13V14H15V15V16H14H13V17H12H11V16H10H9V15V14H8V13V12H9V11V10H10H11V9H12H13V10ZM10 13V12H11V11H12H13V12H14V13V14H13V15H12H11V14H10V13Z" fill="white"/>
</svg>
