<svg width="24" height="24" viewBox="0 0 24 24" fill="none" xmlns="http://www.w3.org/2000/svg">
<path fill-rule="evenodd" clip-rule="evenodd" d="M7 4H8H9H10H11H12V5H13H14V6H15V7V8H16V9H17H18H19V10H20V11H21V12H22V13V14V15V16V17H21V18H20V19H19V20H18H17H16H15H14H13H12H11H10H9H8H7V19H6H5V18H4V17H3V16V15H2V14V13V12V11V10V9H3V8V7H4V6H5V5H6H7V4ZM9 6H8V7H7H6V8H5V9V10H4V11V12V13V14H5V15V16H6V17H7H8V18H9H10H11H12H13H14H15H16H17H18V17H19V16H20V15V14V13H19V12H18V11H17H16H15H14V10V9H13V8V7H12H11V6H10H9Z" fill="white"/>
</svg>
