<svg width="24" height="24" viewBox="0 0 24 24" fill="none" xmlns="http://www.w3.org/2000/svg">
<path fill-rule="evenodd" clip-rule="evenodd" d="M3 4H2V5V6V7V8V9V10V11V12V13V14V15V16V17V18V19V20H3H4H5H6H7H8H9H10H11H12H13H14H15H16H17H18H19H20H21H22V19V18V17V16V15V14V13V12V11V10V9V8V7V6V5V4H21H20H19H18H17H16H15H14H13H12H11H10H9H8H7H6H5H4H3ZM4 6V7V8V9H5H6H7H8H9H10H11H12H13H14H15H16H17H18H19H20V8V7V6H19H18H17H16H15H14H13H12H11H10H9H8H7H6H5H4ZM6 11H7H8H9H10H11H12H13H14H15H16H17H18H19H20V12V13V14V15V16V17V18H19H18H17H16H15H14H13H12H11H10H9H8H7H6H5H4V17V16V15V14V13V12V11H5H6Z" fill="white"/>
</svg>
