<svg width="24" height="24" viewBox="0 0 24 24" fill="none" xmlns="http://www.w3.org/2000/svg">
<path fill-rule="evenodd" clip-rule="evenodd" d="M5 3H4H3V4V5H4V6H5V7H6V8H7V9H8V10H9V11H10V12H11V13H12V14H13V15H14V16H15V17H16V18H17V19H18V20H19V21H20H21V20V19H20V18H19V17H18V16H17V15H16V14H15V13H14V12H13V11H12V10H11V9H10V8H9V7H8V6H7V5H6V4H5V3ZM13 4H14V5H15H16H17V6H18V7H19V8H20V9H21V10H22V11V12V13V14H21V15H20V16H19V15H18V14H19V13H20V12V11H19V10H18V9H17V8H16V7H15H14V6H13H12H11H10H9V5H10V4H11H12H13ZM13 9H14V10H13V9ZM14 10H15V11H14V10ZM3 10H2V11V12V13V14H3V15H4V16H5V17H6V18H7V19H8H9H10V20H11H12H13H14V19H15V18H14H13H12H11H10V17H9H8V16H7V15H6V14H5V13H4V12V11H5V10H6V9H5V8H4V9H3V10ZM10 13H9V14H10V15H11V14H10V13Z" fill="white"/>
</svg>
