<svg width="24" height="24" viewBox="0 0 24 24" fill="none" xmlns="http://www.w3.org/2000/svg">
<path fill-rule="evenodd" clip-rule="evenodd" d="M4 3H3V4V5V6V7V8V9V10V11V12V13V14V15V16V17V18V19V20V21H4H5H6H7H8H9H10H11H12H13H14H15H16H17H18H19H20H21V20V19V18V17V16V15V14V13V12V11V10V9V8V7V6V5V4V3H20H19H18H17H16H15H14H13H12H11H10H9H8H7H6H5H4ZM6 19H5V18V17H6H7V18V19H6ZM7 14V15H6H5V14V13H6H7V14ZM6 11H5V10V9H6H7V10V11H6ZM7 6V7H6H5V6V5H6H7V6ZM10 19H9V18V17V16V15V14V13H10H11H12H13H14H15V14V15V16V17V18V19H14H13H12H11H10ZM15 10V11H14H13H12H11H10H9V10V9V8V7V6V5H10H11H12H13H14H15V6V7V8V9V10ZM18 19H17V18V17H18H19V18V19H18ZM19 14V15H18H17V14V13H18H19V14ZM19 10V11H18H17V10V9H18H19V10ZM19 6V7H18H17V6V5H18H19V6Z" fill="white"/>
</svg>
