<svg width="24" height="24" viewBox="0 0 24 24" fill="none" xmlns="http://www.w3.org/2000/svg">
<path fill-rule="evenodd" clip-rule="evenodd" d="M4 3H3V4V5V6V7V8V9V10V11H4H5H6H7H8H9H10H11V10V9V8V7V6V5V4V3H10H9H8H7H6H5H4ZM5 5V6V7V8V9H6H7H8H9V8V7V6V5H8H7H6H5ZM13 3H14H15H16H17H18H19H20H21V4V5V6V7V8V9V10V11H20H19H18H17H16H15H14H13V10V9V8V7V6V5V4V3ZM15 5V6V7V8V9H16H17H18H19V8V7V6V5H18H17H16H15ZM13 13H14H15H16H17H18H19H20H21V14V15V16V17V18V19V20V21H20H19H18H17H16H15H14H13V20V19V18V17V16V15V14V13ZM18 15H17H16H15V16V17V18V19H16H17H18H19V18V17V16V15H18ZM9 13H10H11V14V15V16V17V18V19V20V21H10H9H8H7H6H5H4H3V20V19V18V17V16V15V14V13H4H5H6H7H8H9ZM9 17V16V15H8H7H6H5V16V17V18V19H6H7H8H9V18V17Z" fill="white"/>
</svg>
