<svg width="24" height="24" viewBox="0 0 24 24" fill="none" xmlns="http://www.w3.org/2000/svg">
<path fill-rule="evenodd" clip-rule="evenodd" d="M6 4H7H8H9H10V5H11V6H12H13V5H14V4H15H16H17H18H19V5H20V6H21V7V8V9V10V11V12H20V13H19V14H18V15H17V16H16V17H15V18H14V19H13V20H12H11V19H10V18H9V17H8V16H7V15H6V14H5V13H4V12H3V11V10V9V8V7V6H4V5H5V4H6ZM13 16V17H12H11V16H10V15H9V14H8V13H7V12H6V11H5V10V9V8V7H6V6H7H8H9V7H10V8H11V9H12H13V8H14V7H15V6H16H17H18V7H19V8V9V10V11H18V12H17V13H16V14H15V15H14V16H13Z" fill="white"/>
</svg>
