<svg width="24" height="24" viewBox="0 0 24 24" fill="none" xmlns="http://www.w3.org/2000/svg">
<path fill-rule="evenodd" clip-rule="evenodd" d="M12 4H11H10H9H8H7H6H5V5V6H4V7V8H3V9V10H2V11V12V13V14V15V16V17V18V19V20H3H4H5H6H7H8H9H10H11H12H13H14H15H16H17H18H19H20H21H22V19V18V17V16V15V14V13V12V11V10H21V9V8H20V7V6H19V5V4H18H17H16H15H14H13H12ZM6 9V8V7H7V6H8H9H10H11H12H13H14H15H16H17V7H18V8V9H19V10V11H18H17H16V12H15V13H14V14H13H12H11H10V13H9V12H8V11H7H6H5V10V9H6ZM16 14V15H15V16H14H13H12H11H10H9V15H8V14H7V13H6H5H4V14V15V16V17V18H5H6H7H8H9H10H11H12H13H14H15H16H17H18H19H20V17V16V15V14V13H19H18H17V14H16Z" fill="white"/>
</svg>
