<svg width="24" height="24" viewBox="0 0 24 24" fill="none" xmlns="http://www.w3.org/2000/svg">
<path fill-rule="evenodd" clip-rule="evenodd" d="M4 5H3V6V7H4H5V6V5H4ZM8 5H7V6V7H8H9H10H11H12H13H14H15H16H17H18H19H20H21V6V5H20H19H18H17H16H15H14H13H12H11H10H9H8ZM19 11H20H21V12V13H20H19H18H17H16H15H14H13H12H11H10H9H8H7V12V11H8H9H10H11H12H13H14H15H16H17H18H19ZM20 17H19H18H17H16H15H14H13H12H11H10H9H8H7V18V19H8H9H10H11H12H13H14H15H16H17H18H19H20H21V18V17H20ZM3 17H4H5V18V19H4H3V18V17ZM4 11H3V12V13H4H5V12V11H4Z" fill="white"/>
</svg>
