<svg width="24" height="24" viewBox="0 0 24 24" fill="none" xmlns="http://www.w3.org/2000/svg">
<path fill-rule="evenodd" clip-rule="evenodd" d="M12 2H13V3V4V5V6V7H12H11V6V5V4V3V2H12ZM18 4H19H20V5V6H19V7H18V8H17V9H16H15V8V7H16V6H17V5H18V4ZM3 11H2V12V13H3H4H5H6H7V12V11H6H5H4H3ZM18 11H17V12V13H18H19H20H21H22V12V11H21H20H19H18ZM7 18V19H6V20H5H4V19V18H5V17H6V16H7V15H8H9V16V17H8V18H7ZM13 22V21V20V19V18V17H12H11V18V19V20V21V22H12H13ZM8 7H9V8V9H8H7V8H6V7H5V6H4V5V4H5H6V5H7V6H8V7ZM20 18H19V17H18V16H17V15H16H15V16V17H16V18H17V19H18V20H19H20V19V18Z" fill="white"/>
</svg>
