<svg width="24" height="24" viewBox="0 0 24 24" fill="none" xmlns="http://www.w3.org/2000/svg">
<path fill-rule="evenodd" clip-rule="evenodd" d="M11 2H12H13H14V3H15V4H16V5H17V6V7V8V9V10H18H19H20V11V12V13V14V15V16V17V18V19V20V21V22H19H18H17H16H15H14H13H12H11H10H9H8H7H6H5H4V21V20V19V18V17V16V15V14V13V12V11V10H5H6H7V9V8V7V6V5H8V4H9V3H10V2H11ZM9 7V6H10V5H11V4H12H13V5H14V6H15V7V8V9V10H14H13H12H11H10H9V9V8V7ZM18 14V13V12H17H16H15H14H13H12H11H10H9H8H7H6V13V14V15V16V17V18V19V20H7H8H9H10H11H12H13H14H15H16H17H18V19V18V17V16V15V14Z" fill="white"/>
</svg>
