<svg width="24" height="24" viewBox="0 0 24 24" fill="none" xmlns="http://www.w3.org/2000/svg">
<path fill-rule="evenodd" clip-rule="evenodd" d="M12 3H13H14H15H16H17H18H19H20H21V4V5V6V7V8V9V10V11V12V13V14V15V16V17V18V19V20V21H20H19H18H17H16H15H14H13H12V20V19H13H14H15H16H17H18H19V18V17V16V15V14V13V12V11V10V9V8V7V6V5H18H17H16H15H14H13H12V4V3ZM7 11H6V12V13H7H8H9H10H11H12H13V14H12V15H11V16V17H12H13V16H14V15H15V14H16V13H17V12V11H16V10H15V9H14V8H13V7H12H11V8V9H12V10H13V11H12H11H10H9H8H7Z" fill="white"/>
</svg>
