<svg width="24" height="24" viewBox="0 0 24 24" fill="none" xmlns="http://www.w3.org/2000/svg">
<path fill-rule="evenodd" clip-rule="evenodd" d="M11 2H12H13V3H14H15V4V5H16V6V7V8V9V10V11H15V10H14V9V8V7V6V5H13V4H12H11V5H10H9V4V3H10H11V2ZM11 14H12V15H13V16H12H11V15H10H9V14V13H8V12V11H9V12H10V13H11V14ZM4 11H5H6V12V13H7V14V15H8V16H9H10V17H11H12H13H14H15V18H14V19H13H12H11H10V18H9H8V17H7H6V16V15H5V14V13H4V12V11ZM18 11H19H20V12V13H19V14H18V13V12V11ZM10 20H9V21V22H10H11H12H13H14H15V21V20H14H13H12H11H10ZM4 3H5H6V4H7V5H8V6H9V7H10V8H11V9H12V10H13V11H14V12H15V13H16V14H17V15H18V16H19V17H20V18V19H19H18V18H17V17H16V16H15V15H14V14H13V13H12V12H11V11H10V10H9V9H8V8H7V7H6V6H5V5H4V4V3Z" fill="white"/>
</svg>
