<svg width="24" height="24" viewBox="0 0 24 24" fill="none" xmlns="http://www.w3.org/2000/svg">
<path fill-rule="evenodd" clip-rule="evenodd" d="M12 2H11V3H10H9V4V5H8V6V7V8V9V10V11V12V13H9V14V15H10H11V16H12H13V15H14H15V14V13H16V12V11V10V9V8V7V6V5H15V4V3H14H13V2H12ZM10 13V12V11V10V9V8V7V6V5H11V4H12H13V5H14V6V7V8V9V10V11V12V13H13V14H12H11V13H10ZM4 11H5H6V12V13H7V14V15H8V16H9H10V17H11H12H13H14V16H15H16V15H17V14V13H18V12V11H19H20V12V13H19V14V15H18V16V17H17H16V18H15H14V19H13H12H11H10V18H9H8V17H7H6V16V15H5V14V13H4V12V11ZM9 20H10H11H12H13H14H15V21V22H14H13H12H11H10H9V21V20Z" fill="white"/>
</svg>
