<svg width="24" height="24" viewBox="0 0 24 24" fill="none" xmlns="http://www.w3.org/2000/svg">
<path fill-rule="evenodd" clip-rule="evenodd" d="M7 3H6V4V5V6V7V8V9H5H4H3V10V11V12V13V14V15V16V17V18V19H4H5H6V20V21H7H8H9H10H11H12H13H14H15H16H17H18V20V19H19H20H21V18V17V16V15V14V13V12V11V10V9H20H19H18V8V7V6V5V4V3H17H16H15H14H13H12H11H10H9H8H7ZM8 8V7V6V5H9H10H11H12H13H14H15H16V6V7V8V9H15H14H13H12H11H10H9H8V8ZM5 11V12V13V14V15V16V17H6V16V15V14V13H7H8H9H10H11H12H13H14H15H16H17H18V14V15V16V17H19V16V15V14V13V12V11H18H17H16H15H14H13H12H11H10H9H8H7H6H5ZM16 15V16V17V18V19H15H14H13H12H11H10H9H8V18V17V16V15H9H10H11H12H13H14H15H16Z" fill="white"/>
</svg>
