<svg width="24" height="24" viewBox="0 0 24 24" fill="none" xmlns="http://www.w3.org/2000/svg">
<path fill-rule="evenodd" clip-rule="evenodd" d="M21 3H20H19H18V4H17H16H15H14V5H13H12H11V6H10H9V7H8H7V8H6H5V9H4H3V10V11H4H5H6H7V12H8H9V13H10H11V14V15H12V16V17H13V18V19V20V21H14H15V20V19H16V18V17H17V16V15H18V14V13H19V12V11V10H20V9V8V7V6H21V5V4V3ZM15 16V15H16V14V13H17V12V11V10H18V9V8H17V9H16V10H15V11H14V12H13V13V14V15H14V16V17H15V16ZM8 9H7V10H8H9V11H10H11H12V10H13V9H14V8H15V7H16V6H15H14V7H13H12H11V8H10H9V9H8Z" fill="white"/>
</svg>
