<svg width="24" height="24" viewBox="0 0 24 24" fill="none" xmlns="http://www.w3.org/2000/svg">
<path fill-rule="evenodd" clip-rule="evenodd" d="M4 3H3V4V5V6V7V8V9V10V11V12V13V14V15V16V17V18V19V20V21H4H5H6H7H8H9H10H11H12H13H14H15H16H17H18H19H20H21V20V19V18V17V16V15V14V13V12V11V10V9V8V7V6V5V4V3H20H19H18H17H16H15H14H13H12H11H10H9H8H7H6H5H4ZM18 5H19V6V7V8V9V10V11H18H17H16H15H14H13H12H11H10H9H8H7H6H5V10V9V8V7V6V5H6H7H8H9H10H11H12H13H14H15H16H17H18ZM17 13H18H19V14V15V16V17V18V19H18H17H16H15H14H13H12H11H10H9H8H7H6H5V18V17V16V15V14V13H6H7H8H9H10H11H12H13H14H15H16H17ZM9 15H8H7H6V16V17V18H7H8H9V17V16V15ZM7 9H6V8V7V6H7H8H9V7V8V9H8H7Z" fill="white"/>
</svg>
