<svg width="24" height="24" viewBox="0 0 24 24" fill="none" xmlns="http://www.w3.org/2000/svg">
<path fill-rule="evenodd" clip-rule="evenodd" d="M13 4V3H12H11V4H10V5H9V6H8V7H7V8V9H8H9V8H10V7H11V8V9V10V11V12V13V14V15V16H12H13V15V14V13V12V11V10V9V8V7H14V8H15V9H16H17V8V7H16V6H15V5H14V4H13ZM5 13V14V15V16V17V18V19H6H7H8H9H10H11H12H13H14H15H16H17H18H19V18V17V16V15V14V13V12H20H21V13V14V15V16V17V18V19V20V21H20H19H18H17H16H15H14H13H12H11H10H9H8H7H6H5H4H3V20V19V18V17V16V15V14V13V12H4H5V13Z" fill="white"/>
</svg>
