<svg width="24" height="24" viewBox="0 0 24 24" fill="none" xmlns="http://www.w3.org/2000/svg">
<path fill-rule="evenodd" clip-rule="evenodd" d="M12 2H11H10V3H9H8H7V4H6H5V5H4V6V7V8V9V10V11V12V13V14V15H5V16V17H6V18H7V19H8V20H9V21H10H11V22H12H13V21H14H15V20H16V19H17V18H18V17H19V16V15H20V14V13V12V11V10V9V8V7V6V5H19V4H18H17V3H16H15H14V2H13H12ZM18 14V15H17V16H16V17H15V18H14H13V19H12H11V18H10H9V17H8V16H7V15H6V14V13V12V11V10V9V8V7H7V6H8H9V5H10H11H12H13H14H15V6H16H17V7H18V8V9V10V11V12V13V14Z" fill="white"/>
</svg>
