<svg width="24" height="24" viewBox="0 0 24 24" fill="none" xmlns="http://www.w3.org/2000/svg">
<path fill-rule="evenodd" clip-rule="evenodd" d="M12 2H11H10V3H9H8H7V4H8V5H9H10H11H12H13H14H15V6H16H17V7H18V8V9V10V11V12V13V14V15H19H20V14V13V12V11V10V9V8V7V6V5H19V4H18H17V3H16H15H14V2H13H12ZM4 10V9V8H5V9H6V10V11V12V13V14V15H7V16H8V17H9V18H10H11V19H12H13V18H14H15V19H16V20H15V21H14H13V22H12H11V21H10H9V20H8V19H7V18H6V17H5V16V15H4V14V13V12V11V10ZM5 4H6V5H7V6H8V7H9V8H10V9H11V10H12V11H13V12H14V13H15V14H16V15H17V16H18V17H19V18H20V19H21V20V21H20H19V20H18V19H17V18H16V17H15V16H14V15H13V14H12V13H11V12H10V11H9V10H8V9H7V8H6V7H5V6H4V5H3V4V3H4H5V4Z" fill="white"/>
</svg>
