<svg width="24" height="24" viewBox="0 0 24 24" fill="none" xmlns="http://www.w3.org/2000/svg">
<path fill-rule="evenodd" clip-rule="evenodd" d="M12 2H11H10H9H8H7H6H5V3V4H4V5V6H3V7V8V9V10V11V12V13V14V15V16V17V18V19V20V21H4H5H6H7H8H9H10H11H12H13H14H15H16H17H18H19H20H21V20V19V18V17V16V15V14V13V12V11V10V9V8V7V6H20V5V4H19V3V2H18H17H16H15H14H13H12ZM7 5H6V6V7H7H8H9H10H11H12H13H14H15H16H17H18V6V5H17V4H16H15H14H13H12H11H10H9H8H7V5ZM5 9H6H7H8H9H10H11H12H13H14H15H16H17H18H19V10V11V12V13V14V15V16V17V18V19H18H17H16H15H14H13H12H11H10H9H8H7H6H5V18V17V16V15V14V13V12V11V10V9ZM12 13H11H10V12H9H8V13V14H9H10V15H11H12H13H14V14H15H16V13V12H15H14V13H13H12Z" fill="white"/>
</svg>
