<svg width="24" height="24" viewBox="0 0 24 24" fill="none" xmlns="http://www.w3.org/2000/svg">
<path fill-rule="evenodd" clip-rule="evenodd" d="M5 3H4V4V5V6V7V8V9V10V11H5H6V10V9V8V7V6V5V4V3H5ZM2 13H3H4H5H6H7H8V14V15H7H6V16V17V18V19V20V21H5H4V20V19V18V17V16V15H3H2V14V13ZM11 20V19V18V17V16V15V14V13V12V11H12H13V12V13V14V15V16V17V18V19V20V21H12H11V20ZM18 19V20V21H19H20V20V19V18V17V16V15H21H22V14V13H21H20H19H18H17H16V14V15H17H18V16V17V18V19ZM18 9V10V11H19H20V10V9V8V7V6V5V4V3H19H18V4V5V6V7V8V9ZM12 3H11V4V5V6V7H10H9V8V9H10H11H12H13H14H15V8V7H14H13V6V5V4V3H12Z" fill="white"/>
</svg>
