<svg width="24" height="24" viewBox="0 0 24 24" fill="none" xmlns="http://www.w3.org/2000/svg">
<path fill-rule="evenodd" clip-rule="evenodd" d="M6 6H5V7H4V8H3V9H2V10V11V12V13V14V15H3V16H4V17H5V18H6H7H8H9H10H11H12H13H14H15H16H17H18H19V17H20V16H21V15H22V14V13V12V11V10V9H21V8H20V7H19V6H18H17H16H15H14H13H12H11H10H9H8H7H6ZM19 10H20V11V12V13V14H19V15H18V16H17H16H15H14H13H12H11H10H9H8H7H6V15H5V14H4V13V12V11V10H5V9H6V8H7H8H9H10H11H12H13H14H15H16H17H18V9H19V10ZM10 10H9V9H8H7V10H6V11H5V12V13H6V14H7V15H8H9V14H10V13H11V12V11H10V10ZM9 12V13H8H7V12V11H8H9V12Z" fill="white"/>
</svg>
