<svg width="24" height="24" viewBox="0 0 24 24" fill="none" xmlns="http://www.w3.org/2000/svg">
<path fill-rule="evenodd" clip-rule="evenodd" d="M4 4H3V5V6H4V7H5V8H6V9H7V10H8V11H9V12H10V13H11V14H12V15H13V16H14V17H15V18H16V19H17V20H18V21H19H20V20V19H19V18H18V17H17V16H16V15H15V14H14V13H13V12H12V11H11V10H10V9H9V8H8V7H7V6H6V5H5V4H4ZM17 5H16H15H14H13H12H11H10H9H8V6H9V7H10H11H12H13H14H15V8V9V10V11V12V13H16V14H17V15H18V16H19V17H20V18H21H22V17V16V15V14V13V12V11V10V9V8V7V6H21H20H19V7H18V8H17V7V6V5ZM18 14H19V15H20V14V13V12V11V10V9H19V10H18V11H17V12V13H18V14ZM12 17H13V18H14V19H13H12H11H10H9H8H7H6H5H4H3H2V18V17V16V15V14V13V12V11V10V9V8V7H3V8H4V9V10V11V12V13V14V15V16V17H5H6H7H8H9H10H11H12Z" fill="white"/>
</svg>
