<svg width="24" height="24" viewBox="0 0 24 24" fill="none" xmlns="http://www.w3.org/2000/svg">
<path fill-rule="evenodd" clip-rule="evenodd" d="M14 4H15V5V6V7V8V9V10V11V12V13V14V15V16V17V18V19V20H14H13H12H11V19H10V18H9V17H8V16H7H6H5H4H3V15H2V14V13V12V11V10V9H3V8H4H5H6H7H8V7H9V6H10V5H11V4H12H13H14ZM12 17H11V16H10V15H9V14H8H7H6H5V13H4V12V11H5V10H6H7H8H9V9H10V8H11V7H12V6H13V7V8V9V10V11V12V13V14V15V16V17V18H12V17ZM22 9H21H20V10V11H19H18V10V9H17H16V10V11H17H18V12V13H17H16V14V15H17H18V14V13H19H20V14V15H21H22V14V13H21H20V12V11H21H22V10V9Z" fill="white"/>
</svg>
