<svg width="24" height="24" viewBox="0 0 24 24" fill="none" xmlns="http://www.w3.org/2000/svg">
<rect x="7" y="2" width="1" height="1" rx="0.5" fill="white"/>
<rect x="15" y="2" width="1" height="1" rx="0.5" fill="white"/>
<rect x="15" y="4" width="1" height="1" rx="0.5" fill="white"/>
<rect x="15" y="6" width="1" height="1" rx="0.5" fill="white"/>
<rect x="15" y="8" width="1" height="1" rx="0.5" fill="white"/>
<rect x="15" y="10" width="1" height="1" rx="0.5" fill="white"/>
<rect x="13" y="12" width="1" height="1" rx="0.5" fill="white"/>
<rect x="11" y="12" width="1" height="1" rx="0.5" fill="white"/>
<rect x="9" y="12" width="1" height="1" rx="0.5" fill="white"/>
<rect x="7" y="10" width="1" height="1" rx="0.5" fill="white"/>
<rect x="7" y="8" width="1" height="1" rx="0.5" fill="white"/>
<rect x="7" y="6" width="1" height="1" rx="0.5" fill="white"/>
<rect x="7" y="4" width="1" height="1" rx="0.5" fill="white"/>
<rect x="9" y="4" width="1" height="1" rx="0.5" fill="white"/>
<rect x="11" y="4" width="1" height="1" rx="0.5" fill="white"/>
<rect x="13" y="4" width="1" height="1" rx="0.5" fill="white"/>
<rect x="13" y="6" width="1" height="1" rx="0.5" fill="white"/>
<rect x="11" y="6" width="1" height="1" rx="0.5" fill="white"/>
<rect x="9" y="6" width="1" height="1" rx="0.5" fill="white"/>
<rect x="11" y="8" width="1" height="1" rx="0.5" fill="white"/>
<rect x="9" y="10" width="1" height="1" rx="0.5" fill="white"/>
<rect x="11" y="10" width="1" height="1" rx="0.5" fill="white"/>
<rect x="13" y="10" width="1" height="1" rx="0.5" fill="white"/>
<rect x="15" y="16" width="1" height="1" rx="0.5" fill="white"/>
<rect x="17" y="16" width="1" height="1" rx="0.5" fill="white"/>
<rect x="13" y="18" width="1" height="1" rx="0.5" fill="white"/>
<rect x="11" y="18" width="1" height="1" rx="0.5" fill="white"/>
<rect x="9" y="18" width="1" height="1" rx="0.5" fill="white"/>
<rect x="7" y="16" width="1" height="1" rx="0.5" fill="white"/>
<rect x="5" y="16" width="1" height="1" rx="0.5" fill="white"/>
<rect x="7" y="20" width="1" height="1" rx="0.5" fill="white"/>
<rect x="5" y="20" width="1" height="1" rx="0.5" fill="white"/>
<rect x="15" y="20" width="1" height="1" rx="0.5" fill="white"/>
<rect x="17" y="20" width="1" height="1" rx="0.5" fill="white"/>
<rect x="8" y="2" width="1" height="1" rx="0.5" fill="white"/>
<rect x="16" y="2" width="1" height="1" rx="0.5" fill="white"/>
<rect x="16" y="4" width="1" height="1" rx="0.5" fill="white"/>
<rect x="16" y="6" width="1" height="1" rx="0.5" fill="white"/>
<rect x="16" y="8" width="1" height="1" rx="0.5" fill="white"/>
<rect x="16" y="10" width="1" height="1" rx="0.5" fill="white"/>
<rect x="14" y="12" width="1" height="1" rx="0.5" fill="white"/>
<rect x="12" y="12" width="1" height="1" rx="0.5" fill="white"/>
<rect x="10" y="12" width="1" height="1" rx="0.5" fill="white"/>
<rect x="8" y="10" width="1" height="1" rx="0.5" fill="white"/>
<rect x="8" y="8" width="1" height="1" rx="0.5" fill="white"/>
<rect x="8" y="6" width="1" height="1" rx="0.5" fill="white"/>
<rect x="8" y="4" width="1" height="1" rx="0.5" fill="white"/>
<rect x="10" y="4" width="1" height="1" rx="0.5" fill="white"/>
<rect x="12" y="4" width="1" height="1" rx="0.5" fill="white"/>
<rect x="14" y="4" width="1" height="1" rx="0.5" fill="white"/>
<rect x="14" y="6" width="1" height="1" rx="0.5" fill="white"/>
<rect x="12" y="6" width="1" height="1" rx="0.5" fill="white"/>
<rect x="10" y="6" width="1" height="1" rx="0.5" fill="white"/>
<rect x="12" y="8" width="1" height="1" rx="0.5" fill="white"/>
<rect x="10" y="10" width="1" height="1" rx="0.5" fill="white"/>
<rect x="12" y="10" width="1" height="1" rx="0.5" fill="white"/>
<rect x="14" y="10" width="1" height="1" rx="0.5" fill="white"/>
<rect x="16" y="16" width="1" height="1" rx="0.5" fill="white"/>
<rect x="18" y="16" width="1" height="1" rx="0.5" fill="white"/>
<rect x="14" y="18" width="1" height="1" rx="0.5" fill="white"/>
<rect x="12" y="18" width="1" height="1" rx="0.5" fill="white"/>
<rect x="10" y="18" width="1" height="1" rx="0.5" fill="white"/>
<rect x="8" y="16" width="1" height="1" rx="0.5" fill="white"/>
<rect x="6" y="16" width="1" height="1" rx="0.5" fill="white"/>
<rect x="8" y="20" width="1" height="1" rx="0.5" fill="white"/>
<rect x="6" y="20" width="1" height="1" rx="0.5" fill="white"/>
<rect x="16" y="20" width="1" height="1" rx="0.5" fill="white"/>
<rect x="18" y="20" width="1" height="1" rx="0.5" fill="white"/>
<rect x="7" y="3" width="1" height="1" rx="0.5" fill="white"/>
<rect x="15" y="3" width="1" height="1" rx="0.5" fill="white"/>
<rect x="15" y="5" width="1" height="1" rx="0.5" fill="white"/>
<rect x="15" y="7" width="1" height="1" rx="0.5" fill="white"/>
<rect x="15" y="9" width="1" height="1" rx="0.5" fill="white"/>
<rect x="15" y="11" width="1" height="1" rx="0.5" fill="white"/>
<rect x="13" y="13" width="1" height="1" rx="0.5" fill="white"/>
<rect x="11" y="13" width="1" height="1" rx="0.5" fill="white"/>
<rect x="9" y="13" width="1" height="1" rx="0.5" fill="white"/>
<rect x="7" y="11" width="1" height="1" rx="0.5" fill="white"/>
<rect x="7" y="9" width="1" height="1" rx="0.5" fill="white"/>
<rect x="7" y="7" width="1" height="1" rx="0.5" fill="white"/>
<rect x="7" y="5" width="1" height="1" rx="0.5" fill="white"/>
<rect x="9" y="5" width="1" height="1" rx="0.5" fill="white"/>
<rect x="11" y="5" width="1" height="1" rx="0.5" fill="white"/>
<rect x="13" y="5" width="1" height="1" rx="0.5" fill="white"/>
<rect x="13" y="7" width="1" height="1" rx="0.5" fill="white"/>
<rect x="11" y="7" width="1" height="1" rx="0.5" fill="white"/>
<rect x="9" y="7" width="1" height="1" rx="0.5" fill="white"/>
<rect x="11" y="9" width="1" height="1" rx="0.5" fill="white"/>
<rect x="9" y="11" width="1" height="1" rx="0.5" fill="white"/>
<rect x="11" y="11" width="1" height="1" rx="0.5" fill="white"/>
<rect x="13" y="11" width="1" height="1" rx="0.5" fill="white"/>
<rect x="15" y="17" width="1" height="1" rx="0.5" fill="white"/>
<rect x="17" y="17" width="1" height="1" rx="0.5" fill="white"/>
<rect x="13" y="19" width="1" height="1" rx="0.5" fill="white"/>
<rect x="11" y="19" width="1" height="1" rx="0.5" fill="white"/>
<rect x="9" y="19" width="1" height="1" rx="0.5" fill="white"/>
<rect x="7" y="17" width="1" height="1" rx="0.5" fill="white"/>
<rect x="5" y="17" width="1" height="1" rx="0.5" fill="white"/>
<rect x="7" y="21" width="1" height="1" rx="0.5" fill="white"/>
<rect x="5" y="21" width="1" height="1" rx="0.5" fill="white"/>
<rect x="15" y="21" width="1" height="1" rx="0.5" fill="white"/>
<rect x="17" y="21" width="1" height="1" rx="0.5" fill="white"/>
<rect x="8" y="3" width="1" height="1" rx="0.5" fill="white"/>
<rect x="16" y="3" width="1" height="1" rx="0.5" fill="white"/>
<rect x="16" y="5" width="1" height="1" rx="0.5" fill="white"/>
<rect x="16" y="7" width="1" height="1" rx="0.5" fill="white"/>
<rect x="16" y="9" width="1" height="1" rx="0.5" fill="white"/>
<rect x="16" y="11" width="1" height="1" rx="0.5" fill="white"/>
<rect x="14" y="13" width="1" height="1" rx="0.5" fill="white"/>
<rect x="12" y="13" width="1" height="1" rx="0.5" fill="white"/>
<rect x="10" y="13" width="1" height="1" rx="0.5" fill="white"/>
<rect x="8" y="11" width="1" height="1" rx="0.5" fill="white"/>
<rect x="8" y="9" width="1" height="1" rx="0.5" fill="white"/>
<rect x="8" y="7" width="1" height="1" rx="0.5" fill="white"/>
<rect x="8" y="5" width="1" height="1" rx="0.5" fill="white"/>
<rect x="10" y="5" width="1" height="1" rx="0.5" fill="white"/>
<rect x="12" y="5" width="1" height="1" rx="0.5" fill="white"/>
<rect x="14" y="5" width="1" height="1" rx="0.5" fill="white"/>
<rect x="14" y="7" width="1" height="1" rx="0.5" fill="white"/>
<rect x="12" y="7" width="1" height="1" rx="0.5" fill="white"/>
<rect x="10" y="7" width="1" height="1" rx="0.5" fill="white"/>
<rect x="12" y="9" width="1" height="1" rx="0.5" fill="white"/>
<rect x="10" y="11" width="1" height="1" rx="0.5" fill="white"/>
<rect x="12" y="11" width="1" height="1" rx="0.5" fill="white"/>
<rect x="14" y="11" width="1" height="1" rx="0.5" fill="white"/>
<rect x="16" y="17" width="1" height="1" rx="0.5" fill="white"/>
<rect x="18" y="17" width="1" height="1" rx="0.5" fill="white"/>
<rect x="14" y="19" width="1" height="1" rx="0.5" fill="white"/>
<rect x="12" y="19" width="1" height="1" rx="0.5" fill="white"/>
<rect x="10" y="19" width="1" height="1" rx="0.5" fill="white"/>
<rect x="8" y="17" width="1" height="1" rx="0.5" fill="white"/>
<rect x="6" y="17" width="1" height="1" rx="0.5" fill="white"/>
<rect x="8" y="21" width="1" height="1" rx="0.5" fill="white"/>
<rect x="6" y="21" width="1" height="1" rx="0.5" fill="white"/>
<rect x="16" y="21" width="1" height="1" rx="0.5" fill="white"/>
<rect x="18" y="21" width="1" height="1" rx="0.5" fill="white"/>
</svg>
