<svg width="24" height="24" viewBox="0 0 24 24" fill="none" xmlns="http://www.w3.org/2000/svg">
<rect x="5" y="8" width="1" height="1" rx="0.5" fill="black"/>
<rect x="5" y="9" width="1" height="1" rx="0.5" fill="black"/>
<rect x="5" y="10" width="1" height="1" rx="0.5" fill="black"/>
<rect x="5" y="11" width="1" height="1" rx="0.5" fill="black"/>
<rect x="4" y="11" width="1" height="1" rx="0.5" fill="black"/>
<rect x="3" y="11" width="1" height="1" rx="0.5" fill="black"/>
<rect x="2" y="11" width="1" height="1" rx="0.5" fill="black"/>
<rect x="2" y="12" width="1" height="1" rx="0.5" fill="black"/>
<rect x="2" y="13" width="1" height="1" rx="0.5" fill="black"/>
<rect x="5" y="12" width="1" height="1" rx="0.5" fill="black"/>
<rect x="5" y="13" width="1" height="1" rx="0.5" fill="black"/>
<rect x="5" y="14" width="1" height="1" rx="0.5" fill="black"/>
<rect x="5" y="15" width="1" height="1" rx="0.5" fill="black"/>
<rect x="6" y="15" width="1" height="1" rx="0.5" fill="black"/>
<rect x="7" y="15" width="1" height="1" rx="0.5" fill="black"/>
<rect x="8" y="15" width="1" height="1" rx="0.5" fill="black"/>
<rect x="9" y="15" width="1" height="1" rx="0.5" fill="black"/>
<rect x="10" y="15" width="1" height="1" rx="0.5" fill="black"/>
<rect x="11" y="15" width="1" height="1" rx="0.5" fill="black"/>
<rect x="12" y="15" width="1" height="1" rx="0.5" fill="black"/>
<rect x="12" y="14" width="1" height="1" rx="0.5" fill="black"/>
<rect x="12" y="13" width="1" height="1" rx="0.5" fill="black"/>
<rect x="12" y="12" width="1" height="1" rx="0.5" fill="black"/>
<rect x="12" y="11" width="1" height="1" rx="0.5" fill="black"/>
<rect x="8" y="9" width="1" height="1" rx="0.5" fill="black"/>
<rect x="17" y="9" width="1" height="1" rx="0.5" fill="black"/>
<rect x="9" y="9" width="1" height="1" rx="0.5" fill="black"/>
<rect x="18" y="9" width="1" height="1" rx="0.5" fill="black"/>
<rect x="10" y="9" width="1" height="1" rx="0.5" fill="black"/>
<rect x="19" y="9" width="1" height="1" rx="0.5" fill="black"/>
<rect x="11" y="9" width="1" height="1" rx="0.5" fill="black"/>
<rect x="20" y="9" width="1" height="1" rx="0.5" fill="black"/>
<rect x="8" y="10" width="1" height="1" rx="0.5" fill="black"/>
<rect x="17" y="10" width="1" height="1" rx="0.5" fill="black"/>
<rect x="9" y="10" width="1" height="1" rx="0.5" fill="black"/>
<rect x="18" y="10" width="1" height="1" rx="0.5" fill="black"/>
<rect x="10" y="10" width="1" height="1" rx="0.5" fill="black"/>
<rect x="19" y="10" width="1" height="1" rx="0.5" fill="black"/>
<rect x="11" y="10" width="1" height="1" rx="0.5" fill="black"/>
<rect x="20" y="10" width="1" height="1" rx="0.5" fill="black"/>
<rect x="8" y="11" width="1" height="1" rx="0.5" fill="black"/>
<rect x="17" y="11" width="1" height="1" rx="0.5" fill="black"/>
<rect x="8" y="13" width="1" height="1" rx="0.5" fill="black"/>
<rect x="17" y="13" width="1" height="1" rx="0.5" fill="black"/>
<rect x="9" y="11" width="1" height="1" rx="0.5" fill="black"/>
<rect x="18" y="11" width="1" height="1" rx="0.5" fill="black"/>
<rect x="9" y="13" width="1" height="1" rx="0.5" fill="black"/>
<rect x="18" y="13" width="1" height="1" rx="0.5" fill="black"/>
<rect x="10" y="11" width="1" height="1" rx="0.5" fill="black"/>
<rect x="19" y="11" width="1" height="1" rx="0.5" fill="black"/>
<rect x="10" y="13" width="1" height="1" rx="0.5" fill="black"/>
<rect x="19" y="13" width="1" height="1" rx="0.5" fill="black"/>
<rect x="11" y="11" width="1" height="1" rx="0.5" fill="black"/>
<rect x="20" y="11" width="1" height="1" rx="0.5" fill="black"/>
<rect x="11" y="13" width="1" height="1" rx="0.5" fill="black"/>
<rect x="20" y="13" width="1" height="1" rx="0.5" fill="black"/>
<rect x="8" y="12" width="1" height="1" rx="0.5" fill="black"/>
<rect x="17" y="12" width="1" height="1" rx="0.5" fill="black"/>
<rect x="8" y="14" width="1" height="1" rx="0.5" fill="black"/>
<rect x="17" y="14" width="1" height="1" rx="0.5" fill="black"/>
<rect x="9" y="12" width="1" height="1" rx="0.5" fill="black"/>
<rect x="18" y="12" width="1" height="1" rx="0.5" fill="black"/>
<rect x="9" y="14" width="1" height="1" rx="0.5" fill="black"/>
<rect x="18" y="14" width="1" height="1" rx="0.5" fill="black"/>
<rect x="10" y="12" width="1" height="1" rx="0.5" fill="black"/>
<rect x="19" y="12" width="1" height="1" rx="0.5" fill="black"/>
<rect x="10" y="14" width="1" height="1" rx="0.5" fill="black"/>
<rect x="19" y="14" width="1" height="1" rx="0.5" fill="black"/>
<rect x="11" y="12" width="1" height="1" rx="0.5" fill="black"/>
<rect x="20" y="12" width="1" height="1" rx="0.5" fill="black"/>
<rect x="11" y="14" width="1" height="1" rx="0.5" fill="black"/>
<rect x="20" y="14" width="1" height="1" rx="0.5" fill="black"/>
<rect x="12" y="10" width="1" height="1" rx="0.5" fill="black"/>
<rect x="12" y="9" width="1" height="1" rx="0.5" fill="black"/>
<rect x="13" y="11" width="1" height="1" rx="0.5" fill="black"/>
<rect x="14" y="11" width="1" height="1" rx="0.5" fill="black"/>
<rect x="14" y="10" width="1" height="1" rx="0.5" fill="black"/>
<rect x="14" y="9" width="1" height="1" rx="0.5" fill="black"/>
<rect x="21" y="9" width="1" height="1" rx="0.5" fill="black"/>
<rect x="21" y="10" width="1" height="1" rx="0.5" fill="black"/>
<rect x="21" y="11" width="1" height="1" rx="0.5" fill="black"/>
<rect x="21" y="12" width="1" height="1" rx="0.5" fill="black"/>
<rect x="21" y="13" width="1" height="1" rx="0.5" fill="black"/>
<rect x="21" y="14" width="1" height="1" rx="0.5" fill="black"/>
<rect x="21" y="15" width="1" height="1" rx="0.5" fill="black"/>
<rect x="20" y="15" width="1" height="1" rx="0.5" fill="black"/>
<rect x="19" y="15" width="1" height="1" rx="0.5" fill="black"/>
<rect x="18" y="15" width="1" height="1" rx="0.5" fill="black"/>
<rect x="17" y="15" width="1" height="1" rx="0.5" fill="black"/>
<rect x="16" y="15" width="1" height="1" rx="0.5" fill="black"/>
<rect x="15" y="15" width="1" height="1" rx="0.5" fill="black"/>
<rect x="14" y="15" width="1" height="1" rx="0.5" fill="black"/>
<rect x="14" y="14" width="1" height="1" rx="0.5" fill="black"/>
<rect x="14" y="13" width="1" height="1" rx="0.5" fill="black"/>
<rect x="14" y="12" width="1" height="1" rx="0.5" fill="black"/>
<rect x="6" y="8" width="1" height="1" rx="0.5" fill="black"/>
<rect x="7" y="8" width="1" height="1" rx="0.5" fill="black"/>
<rect x="8" y="8" width="1" height="1" rx="0.5" fill="black"/>
<rect x="9" y="8" width="1" height="1" rx="0.5" fill="black"/>
<rect x="10" y="8" width="1" height="1" rx="0.5" fill="black"/>
<rect x="11" y="8" width="1" height="1" rx="0.5" fill="black"/>
<rect x="12" y="8" width="1" height="1" rx="0.5" fill="black"/>
<rect x="14" y="8" width="1" height="1" rx="0.5" fill="black"/>
<rect x="15" y="8" width="1" height="1" rx="0.5" fill="black"/>
<rect x="16" y="8" width="1" height="1" rx="0.5" fill="black"/>
<rect x="17" y="8" width="1" height="1" rx="0.5" fill="black"/>
<rect x="18" y="8" width="1" height="1" rx="0.5" fill="black"/>
<rect x="19" y="8" width="1" height="1" rx="0.5" fill="black"/>
<rect x="20" y="8" width="1" height="1" rx="0.5" fill="black"/>
<rect x="21" y="8" width="1" height="1" rx="0.5" fill="black"/>
</svg>
