<svg width="24" height="24" viewBox="0 0 24 24" fill="none" xmlns="http://www.w3.org/2000/svg">
<rect width="1" height="1" rx="0.5" transform="matrix(1 0 0 -1 3 4)" fill="black"/>
<rect width="1" height="1" rx="0.5" transform="matrix(1 0 0 -1 5 4)" fill="black"/>
<rect width="1" height="1" rx="0.5" transform="matrix(1 0 0 -1 7 4)" fill="black"/>
<rect width="1" height="1" rx="0.5" transform="matrix(1 0 0 -1 9 4)" fill="black"/>
<rect width="1" height="1" rx="0.5" transform="matrix(1 0 0 -1 11 4)" fill="black"/>
<rect width="1" height="1" rx="0.5" transform="matrix(1 0 0 -1 13 4)" fill="black"/>
<rect width="1" height="1" rx="0.5" transform="matrix(1 0 0 -1 15 4)" fill="black"/>
<rect width="1" height="1" rx="0.5" transform="matrix(1 0 0 -1 17 4)" fill="black"/>
<rect width="1" height="1" rx="0.5" transform="matrix(1 0 0 -1 19 4)" fill="black"/>
<rect width="1" height="1" rx="0.5" transform="matrix(1 0 0 -1 19 6)" fill="black"/>
<rect width="1" height="1" rx="0.5" transform="matrix(1 0 0 -1 19 8)" fill="black"/>
<rect width="1" height="1" rx="0.5" transform="matrix(1 0 0 -1 19 10)" fill="black"/>
<rect width="1" height="1" rx="0.5" transform="matrix(1 0 0 -1 19 12)" fill="black"/>
<rect width="1" height="1" rx="0.5" transform="matrix(1 0 0 -1 19 14)" fill="black"/>
<rect width="1" height="1" rx="0.5" transform="matrix(1 0 0 -1 19 16)" fill="black"/>
<rect width="1" height="1" rx="0.5" transform="matrix(1 0 0 -1 19 18)" fill="black"/>
<rect width="1" height="1" rx="0.5" transform="matrix(1 0 0 -1 19 20)" fill="black"/>
<rect width="1" height="1" rx="0.5" transform="matrix(1 0 0 -1 17 20)" fill="black"/>
<rect width="1" height="1" rx="0.5" transform="matrix(1 0 0 -1 15 20)" fill="black"/>
<rect width="1" height="1" rx="0.5" transform="matrix(1 0 0 -1 13 20)" fill="black"/>
<rect width="1" height="1" rx="0.5" transform="matrix(1 0 0 -1 11 20)" fill="black"/>
<rect width="1" height="1" rx="0.5" transform="matrix(1 0 0 -1 9 20)" fill="black"/>
<rect width="1" height="1" rx="0.5" transform="matrix(1 0 0 -1 7 20)" fill="black"/>
<rect width="1" height="1" rx="0.5" transform="matrix(1 0 0 -1 5 20)" fill="black"/>
<rect width="1" height="1" rx="0.5" transform="matrix(1 0 0 -1 3 20)" fill="black"/>
<rect width="1" height="1" rx="0.5" transform="matrix(1 0 0 -1 3 18)" fill="black"/>
<rect width="1" height="1" rx="0.5" transform="matrix(1 0 0 -1 3 16)" fill="black"/>
<rect width="1" height="1" rx="0.5" transform="matrix(1 0 0 -1 3 14)" fill="black"/>
<rect width="1" height="1" rx="0.5" transform="matrix(1 0 0 -1 3 12)" fill="black"/>
<rect width="1" height="1" rx="0.5" transform="matrix(1 0 0 -1 3 10)" fill="black"/>
<rect width="1" height="1" rx="0.5" transform="matrix(1 0 0 -1 3 8)" fill="black"/>
<rect width="1" height="1" rx="0.5" transform="matrix(1 0 0 -1 7 8)" fill="black"/>
<rect width="1" height="1" rx="0.5" transform="matrix(1 0 0 -1 15 8)" fill="black"/>
<rect width="1" height="1" rx="0.5" transform="matrix(1 0 0 -1 12 6)" fill="black"/>
<rect width="1" height="1" rx="0.5" transform="matrix(1 0 0 -1 11 8)" fill="black"/>
<rect width="1" height="1" rx="0.5" transform="matrix(1 0 0 -1 10 10)" fill="black"/>
<rect width="1" height="1" rx="0.5" transform="matrix(1 0 0 -1 10 13)" fill="black"/>
<rect width="1" height="1" rx="0.5" transform="matrix(1 0 0 -1 12 13)" fill="black"/>
<rect width="1" height="1" rx="0.5" transform="matrix(1 0 0 -1 12 16)" fill="black"/>
<rect width="1" height="1" rx="0.5" transform="matrix(1 0 0 -1 6 15)" fill="black"/>
<rect width="1" height="1" rx="0.5" transform="matrix(1 0 0 -1 8 16)" fill="black"/>
<rect width="1" height="1" rx="0.5" transform="matrix(1 0 0 -1 10 17)" fill="black"/>
<rect width="1" height="1" rx="0.5" transform="matrix(1 0 0 -1 14 16)" fill="black"/>
<rect width="1" height="1" rx="0.5" transform="matrix(1 0 0 -1 16 15)" fill="black"/>
<rect width="1" height="1" rx="0.5" transform="matrix(1 0 0 -1 12 15)" fill="black"/>
<rect width="1" height="1" rx="0.5" transform="matrix(1 0 0 -1 12 18)" fill="black"/>
<rect width="1" height="1" rx="0.5" transform="matrix(1 0 0 -1 3 6)" fill="black"/>
<rect width="1" height="1" rx="0.5" transform="matrix(1 0 0 -1 3 5)" fill="black"/>
<rect width="1" height="1" rx="0.5" transform="matrix(1 0 0 -1 5 5)" fill="black"/>
<rect width="1" height="1" rx="0.5" transform="matrix(1 0 0 -1 7 5)" fill="black"/>
<rect width="1" height="1" rx="0.5" transform="matrix(1 0 0 -1 9 5)" fill="black"/>
<rect width="1" height="1" rx="0.5" transform="matrix(1 0 0 -1 11 5)" fill="black"/>
<rect width="1" height="1" rx="0.5" transform="matrix(1 0 0 -1 13 5)" fill="black"/>
<rect width="1" height="1" rx="0.5" transform="matrix(1 0 0 -1 15 5)" fill="black"/>
<rect width="1" height="1" rx="0.5" transform="matrix(1 0 0 -1 17 5)" fill="black"/>
<rect width="1" height="1" rx="0.5" transform="matrix(1 0 0 -1 19 5)" fill="black"/>
<rect width="1" height="1" rx="0.5" transform="matrix(1 0 0 -1 19 7)" fill="black"/>
<rect width="1" height="1" rx="0.5" transform="matrix(1 0 0 -1 19 9)" fill="black"/>
<rect width="1" height="1" rx="0.5" transform="matrix(1 0 0 -1 19 11)" fill="black"/>
<rect width="1" height="1" rx="0.5" transform="matrix(1 0 0 -1 19 13)" fill="black"/>
<rect width="1" height="1" rx="0.5" transform="matrix(1 0 0 -1 19 15)" fill="black"/>
<rect width="1" height="1" rx="0.5" transform="matrix(1 0 0 -1 19 17)" fill="black"/>
<rect width="1" height="1" rx="0.5" transform="matrix(1 0 0 -1 19 19)" fill="black"/>
<rect width="1" height="1" rx="0.5" transform="matrix(1 0 0 -1 19 21)" fill="black"/>
<rect width="1" height="1" rx="0.5" transform="matrix(1 0 0 -1 17 21)" fill="black"/>
<rect width="1" height="1" rx="0.5" transform="matrix(1 0 0 -1 15 21)" fill="black"/>
<rect width="1" height="1" rx="0.5" transform="matrix(1 0 0 -1 13 21)" fill="black"/>
<rect width="1" height="1" rx="0.5" transform="matrix(1 0 0 -1 11 21)" fill="black"/>
<rect width="1" height="1" rx="0.5" transform="matrix(1 0 0 -1 9 21)" fill="black"/>
<rect width="1" height="1" rx="0.5" transform="matrix(1 0 0 -1 7 21)" fill="black"/>
<rect width="1" height="1" rx="0.5" transform="matrix(1 0 0 -1 5 21)" fill="black"/>
<rect width="1" height="1" rx="0.5" transform="matrix(1 0 0 -1 3 21)" fill="black"/>
<rect width="1" height="1" rx="0.5" transform="matrix(1 0 0 -1 3 19)" fill="black"/>
<rect width="1" height="1" rx="0.5" transform="matrix(1 0 0 -1 3 17)" fill="black"/>
<rect width="1" height="1" rx="0.5" transform="matrix(1 0 0 -1 3 15)" fill="black"/>
<rect width="1" height="1" rx="0.5" transform="matrix(1 0 0 -1 3 13)" fill="black"/>
<rect width="1" height="1" rx="0.5" transform="matrix(1 0 0 -1 3 11)" fill="black"/>
<rect width="1" height="1" rx="0.5" transform="matrix(1 0 0 -1 3 9)" fill="black"/>
<rect width="1" height="1" rx="0.5" transform="matrix(1 0 0 -1 7 9)" fill="black"/>
<rect width="1" height="1" rx="0.5" transform="matrix(1 0 0 -1 15 9)" fill="black"/>
<rect width="1" height="1" rx="0.5" transform="matrix(1 0 0 -1 12 7)" fill="black"/>
<rect width="1" height="1" rx="0.5" transform="matrix(1 0 0 -1 11 9)" fill="black"/>
<rect width="1" height="1" rx="0.5" transform="matrix(1 0 0 -1 10 11)" fill="black"/>
<rect width="1" height="1" rx="0.5" transform="matrix(1 0 0 -1 10 12)" fill="black"/>
<rect width="1" height="1" rx="0.5" transform="matrix(1 0 0 -1 10 14)" fill="black"/>
<rect width="1" height="1" rx="0.5" transform="matrix(1 0 0 -1 12 14)" fill="black"/>
<rect width="1" height="1" rx="0.5" transform="matrix(1 0 0 -1 12 17)" fill="black"/>
<rect width="1" height="1" rx="0.5" transform="matrix(1 0 0 -1 6 16)" fill="black"/>
<rect width="1" height="1" rx="0.5" transform="matrix(1 0 0 -1 8 17)" fill="black"/>
<rect width="1" height="1" rx="0.5" transform="matrix(1 0 0 -1 10 18)" fill="black"/>
<rect width="1" height="1" rx="0.5" transform="matrix(1 0 0 -1 14 17)" fill="black"/>
<rect width="1" height="1" rx="0.5" transform="matrix(1 0 0 -1 16 16)" fill="black"/>
<rect width="1" height="1" rx="0.5" transform="matrix(1 0 0 -1 12 19)" fill="black"/>
<rect width="1" height="1" rx="0.5" transform="matrix(1 0 0 -1 3 7)" fill="black"/>
<rect width="1" height="1" rx="0.5" transform="matrix(1 0 0 -1 4 4)" fill="black"/>
<rect width="1" height="1" rx="0.5" transform="matrix(1 0 0 -1 6 4)" fill="black"/>
<rect width="1" height="1" rx="0.5" transform="matrix(1 0 0 -1 8 4)" fill="black"/>
<rect width="1" height="1" rx="0.5" transform="matrix(1 0 0 -1 10 4)" fill="black"/>
<rect width="1" height="1" rx="0.5" transform="matrix(1 0 0 -1 12 4)" fill="black"/>
<rect width="1" height="1" rx="0.5" transform="matrix(1 0 0 -1 14 4)" fill="black"/>
<rect width="1" height="1" rx="0.5" transform="matrix(1 0 0 -1 16 4)" fill="black"/>
<rect width="1" height="1" rx="0.5" transform="matrix(1 0 0 -1 18 4)" fill="black"/>
<rect width="1" height="1" rx="0.5" transform="matrix(1 0 0 -1 20 4)" fill="black"/>
<rect width="1" height="1" rx="0.5" transform="matrix(1 0 0 -1 20 6)" fill="black"/>
<rect width="1" height="1" rx="0.5" transform="matrix(1 0 0 -1 20 8)" fill="black"/>
<rect width="1" height="1" rx="0.5" transform="matrix(1 0 0 -1 20 10)" fill="black"/>
<rect width="1" height="1" rx="0.5" transform="matrix(1 0 0 -1 20 12)" fill="black"/>
<rect width="1" height="1" rx="0.5" transform="matrix(1 0 0 -1 20 14)" fill="black"/>
<rect width="1" height="1" rx="0.5" transform="matrix(1 0 0 -1 20 16)" fill="black"/>
<rect width="1" height="1" rx="0.5" transform="matrix(1 0 0 -1 20 18)" fill="black"/>
<rect width="1" height="1" rx="0.5" transform="matrix(1 0 0 -1 20 20)" fill="black"/>
<rect width="1" height="1" rx="0.5" transform="matrix(1 0 0 -1 18 20)" fill="black"/>
<rect width="1" height="1" rx="0.5" transform="matrix(1 0 0 -1 16 20)" fill="black"/>
<rect width="1" height="1" rx="0.5" transform="matrix(1 0 0 -1 14 20)" fill="black"/>
<rect width="1" height="1" rx="0.5" transform="matrix(1 0 0 -1 12 20)" fill="black"/>
<rect width="1" height="1" rx="0.5" transform="matrix(1 0 0 -1 10 20)" fill="black"/>
<rect width="1" height="1" rx="0.5" transform="matrix(1 0 0 -1 8 20)" fill="black"/>
<rect width="1" height="1" rx="0.5" transform="matrix(1 0 0 -1 6 20)" fill="black"/>
<rect width="1" height="1" rx="0.5" transform="matrix(1 0 0 -1 4 20)" fill="black"/>
<rect width="1" height="1" rx="0.5" transform="matrix(1 0 0 -1 4 18)" fill="black"/>
<rect width="1" height="1" rx="0.5" transform="matrix(1 0 0 -1 4 16)" fill="black"/>
<rect width="1" height="1" rx="0.5" transform="matrix(1 0 0 -1 4 14)" fill="black"/>
<rect width="1" height="1" rx="0.5" transform="matrix(1 0 0 -1 4 12)" fill="black"/>
<rect width="1" height="1" rx="0.5" transform="matrix(1 0 0 -1 4 10)" fill="black"/>
<rect width="1" height="1" rx="0.5" transform="matrix(1 0 0 -1 4 8)" fill="black"/>
<rect width="1" height="1" rx="0.5" transform="matrix(1 0 0 -1 8 8)" fill="black"/>
<rect width="1" height="1" rx="0.5" transform="matrix(1 0 0 -1 16 8)" fill="black"/>
<rect width="1" height="1" rx="0.5" transform="matrix(1 0 0 -1 13 6)" fill="black"/>
<rect width="1" height="1" rx="0.5" transform="matrix(1 0 0 -1 12 8)" fill="black"/>
<rect width="1" height="1" rx="0.5" transform="matrix(1 0 0 -1 11 10)" fill="black"/>
<rect width="1" height="1" rx="0.5" transform="matrix(1 0 0 -1 11 13)" fill="black"/>
<rect width="1" height="1" rx="0.5" transform="matrix(1 0 0 -1 13 13)" fill="black"/>
<rect width="1" height="1" rx="0.5" transform="matrix(1 0 0 -1 13 16)" fill="black"/>
<rect width="1" height="1" rx="0.5" transform="matrix(1 0 0 -1 7 15)" fill="black"/>
<rect width="1" height="1" rx="0.5" transform="matrix(1 0 0 -1 9 16)" fill="black"/>
<rect width="1" height="1" rx="0.5" transform="matrix(1 0 0 -1 11 17)" fill="black"/>
<rect width="1" height="1" rx="0.5" transform="matrix(1 0 0 -1 15 16)" fill="black"/>
<rect width="1" height="1" rx="0.5" transform="matrix(1 0 0 -1 17 15)" fill="black"/>
<rect width="1" height="1" rx="0.5" transform="matrix(1 0 0 -1 13 15)" fill="black"/>
<rect width="1" height="1" rx="0.5" transform="matrix(1 0 0 -1 13 18)" fill="black"/>
<rect width="1" height="1" rx="0.5" transform="matrix(1 0 0 -1 4 6)" fill="black"/>
<rect width="1" height="1" rx="0.5" transform="matrix(1 0 0 -1 4 5)" fill="black"/>
<rect width="1" height="1" rx="0.5" transform="matrix(1 0 0 -1 6 5)" fill="black"/>
<rect width="1" height="1" rx="0.5" transform="matrix(1 0 0 -1 8 5)" fill="black"/>
<rect width="1" height="1" rx="0.5" transform="matrix(1 0 0 -1 10 5)" fill="black"/>
<rect width="1" height="1" rx="0.5" transform="matrix(1 0 0 -1 12 5)" fill="black"/>
<rect width="1" height="1" rx="0.5" transform="matrix(1 0 0 -1 14 5)" fill="black"/>
<rect width="1" height="1" rx="0.5" transform="matrix(1 0 0 -1 16 5)" fill="black"/>
<rect width="1" height="1" rx="0.5" transform="matrix(1 0 0 -1 18 5)" fill="black"/>
<rect width="1" height="1" rx="0.5" transform="matrix(1 0 0 -1 20 5)" fill="black"/>
<rect width="1" height="1" rx="0.5" transform="matrix(1 0 0 -1 20 7)" fill="black"/>
<rect width="1" height="1" rx="0.5" transform="matrix(1 0 0 -1 20 9)" fill="black"/>
<rect width="1" height="1" rx="0.5" transform="matrix(1 0 0 -1 20 11)" fill="black"/>
<rect width="1" height="1" rx="0.5" transform="matrix(1 0 0 -1 20 13)" fill="black"/>
<rect width="1" height="1" rx="0.5" transform="matrix(1 0 0 -1 20 15)" fill="black"/>
<rect width="1" height="1" rx="0.5" transform="matrix(1 0 0 -1 20 17)" fill="black"/>
<rect width="1" height="1" rx="0.5" transform="matrix(1 0 0 -1 20 19)" fill="black"/>
<rect width="1" height="1" rx="0.5" transform="matrix(1 0 0 -1 20 21)" fill="black"/>
<rect width="1" height="1" rx="0.5" transform="matrix(1 0 0 -1 18 21)" fill="black"/>
<rect width="1" height="1" rx="0.5" transform="matrix(1 0 0 -1 16 21)" fill="black"/>
<rect width="1" height="1" rx="0.5" transform="matrix(1 0 0 -1 14 21)" fill="black"/>
<rect width="1" height="1" rx="0.5" transform="matrix(1 0 0 -1 12 21)" fill="black"/>
<rect width="1" height="1" rx="0.5" transform="matrix(1 0 0 -1 10 21)" fill="black"/>
<rect width="1" height="1" rx="0.5" transform="matrix(1 0 0 -1 8 21)" fill="black"/>
<rect width="1" height="1" rx="0.5" transform="matrix(1 0 0 -1 6 21)" fill="black"/>
<rect width="1" height="1" rx="0.5" transform="matrix(1 0 0 -1 4 21)" fill="black"/>
<rect width="1" height="1" rx="0.5" transform="matrix(1 0 0 -1 4 19)" fill="black"/>
<rect width="1" height="1" rx="0.5" transform="matrix(1 0 0 -1 4 17)" fill="black"/>
<rect width="1" height="1" rx="0.5" transform="matrix(1 0 0 -1 4 15)" fill="black"/>
<rect width="1" height="1" rx="0.5" transform="matrix(1 0 0 -1 4 13)" fill="black"/>
<rect width="1" height="1" rx="0.5" transform="matrix(1 0 0 -1 4 11)" fill="black"/>
<rect width="1" height="1" rx="0.5" transform="matrix(1 0 0 -1 4 9)" fill="black"/>
<rect width="1" height="1" rx="0.5" transform="matrix(1 0 0 -1 8 9)" fill="black"/>
<rect width="1" height="1" rx="0.5" transform="matrix(1 0 0 -1 16 9)" fill="black"/>
<rect width="1" height="1" rx="0.5" transform="matrix(1 0 0 -1 13 7)" fill="black"/>
<rect width="1" height="1" rx="0.5" transform="matrix(1 0 0 -1 12 9)" fill="black"/>
<rect width="1" height="1" rx="0.5" transform="matrix(1 0 0 -1 11 11)" fill="black"/>
<rect width="1" height="1" rx="0.5" transform="matrix(1 0 0 -1 11 12)" fill="black"/>
<rect width="1" height="1" rx="0.5" transform="matrix(1 0 0 -1 11 14)" fill="black"/>
<rect width="1" height="1" rx="0.5" transform="matrix(1 0 0 -1 13 14)" fill="black"/>
<rect width="1" height="1" rx="0.5" transform="matrix(1 0 0 -1 13 17)" fill="black"/>
<rect width="1" height="1" rx="0.5" transform="matrix(1 0 0 -1 7 16)" fill="black"/>
<rect width="1" height="1" rx="0.5" transform="matrix(1 0 0 -1 9 17)" fill="black"/>
<rect width="1" height="1" rx="0.5" transform="matrix(1 0 0 -1 11 18)" fill="black"/>
<rect width="1" height="1" rx="0.5" transform="matrix(1 0 0 -1 15 17)" fill="black"/>
<rect width="1" height="1" rx="0.5" transform="matrix(1 0 0 -1 17 16)" fill="black"/>
<rect width="1" height="1" rx="0.5" transform="matrix(1 0 0 -1 13 19)" fill="black"/>
<rect width="1" height="1" rx="0.5" transform="matrix(1 0 0 -1 4 7)" fill="black"/>
</svg>
