<svg width="24" height="24" viewBox="0 0 24 24" fill="none" xmlns="http://www.w3.org/2000/svg">
<rect x="7" y="11" width="1" height="1" rx="0.5" fill="black"/>
<rect x="8" y="11" width="1" height="1" rx="0.5" fill="black"/>
<rect x="7" y="5" width="1" height="1" rx="0.5" fill="black"/>
<rect x="7" y="4" width="1" height="1" rx="0.5" fill="black"/>
<rect x="8" y="4" width="1" height="1" rx="0.5" fill="black"/>
<rect x="8" y="5" width="1" height="1" rx="0.5" fill="black"/>
<rect x="8" y="6" width="1" height="1" rx="0.5" fill="black"/>
<rect x="8" y="7" width="1" height="1" rx="0.5" fill="black"/>
<rect x="8" y="8" width="1" height="1" rx="0.5" fill="black"/>
<rect x="8" y="9" width="1" height="1" rx="0.5" fill="black"/>
<rect x="7" y="8" width="1" height="1" rx="0.5" fill="black"/>
<rect x="7" y="9" width="1" height="1" rx="0.5" fill="black"/>
<rect x="8" y="10" width="1" height="1" rx="0.5" fill="black"/>
<rect x="7" y="10" width="1" height="1" rx="0.5" fill="black"/>
<rect x="6" y="6" width="1" height="1" rx="0.5" fill="black"/>
<rect x="5" y="6" width="1" height="1" rx="0.5" fill="black"/>
<rect x="5" y="7" width="1" height="1" rx="0.5" fill="black"/>
<rect x="6" y="7" width="1" height="1" rx="0.5" fill="black"/>
<rect x="7" y="6" width="1" height="1" rx="0.5" fill="black"/>
<rect x="7" y="7" width="1" height="1" rx="0.5" fill="black"/>
<rect x="9" y="15" width="1" height="1" rx="0.5" fill="black"/>
<rect x="10" y="14" width="1" height="1" rx="0.5" fill="black"/>
<rect x="11" y="13" width="1" height="1" rx="0.5" fill="black"/>
<path d="M12 12.5C12 12.2239 12.2239 12 12.5 12C12.7761 12 13 12.2239 13 12.5C13 12.7761 12.7761 13 12.5 13C12.2239 13 12 12.7761 12 12.5Z" fill="black"/>
<path d="M12 13.5C12 13.2239 12.2239 13 12.5 13C12.7761 13 13 13.2239 13 13.5C13 13.7761 12.7761 14 12.5 14C12.2239 14 12 13.7761 12 13.5Z" fill="black"/>
<path d="M11 12.5C11 12.2239 11.2239 12 11.5 12C11.7761 12 12 12.2239 12 12.5C12 12.7761 11.7761 13 11.5 13C11.2239 13 11 12.7761 11 12.5Z" fill="black"/>
<rect x="13" y="11" width="1" height="1" rx="0.5" fill="black"/>
<rect x="14" y="11" width="1" height="1" rx="0.5" fill="black"/>
<rect x="14" y="10" width="1" height="1" rx="0.5" fill="black"/>
<rect x="13" y="10" width="1" height="1" rx="0.5" fill="black"/>
<rect x="15" y="9" width="1" height="1" rx="0.5" fill="black"/>
<rect x="16" y="9" width="1" height="1" rx="0.5" fill="black"/>
<rect x="16" y="8" width="1" height="1" rx="0.5" fill="black"/>
<rect x="15" y="8" width="1" height="1" rx="0.5" fill="black"/>
<rect x="10" y="15" width="1" height="1" rx="0.5" fill="black"/>
<rect x="9" y="14" width="1" height="1" rx="0.5" fill="black"/>
<rect x="8" y="16" width="1" height="1" rx="0.5" fill="black"/>
<rect x="8" y="17" width="1" height="1" rx="0.5" fill="black"/>
<rect x="7" y="17" width="1" height="1" rx="0.5" fill="black"/>
<rect x="7" y="16" width="1" height="1" rx="0.5" fill="black"/>
<rect x="13" y="16" width="1" height="1" rx="0.5" fill="black"/>
<rect x="14" y="16" width="1" height="1" rx="0.5" fill="black"/>
<rect x="13" y="17" width="1" height="1" rx="0.5" fill="black"/>
<rect x="14" y="17" width="1" height="1" rx="0.5" fill="black"/>
<rect x="13" y="18" width="1" height="1" rx="0.5" fill="black"/>
<rect x="14" y="18" width="1" height="1" rx="0.5" fill="black"/>
<rect x="14" y="19" width="1" height="1" rx="0.5" fill="black"/>
<rect x="13" y="19" width="1" height="1" rx="0.5" fill="black"/>
<rect x="15" y="15" width="1" height="1" rx="0.5" fill="black"/>
<rect x="15" y="14" width="1" height="1" rx="0.5" fill="black"/>
<rect x="16" y="14" width="1" height="1" rx="0.5" fill="black"/>
<rect x="16" y="15" width="1" height="1" rx="0.5" fill="black"/>
<rect x="17" y="15" width="1" height="1" rx="0.5" fill="black"/>
<rect x="17" y="17" width="1" height="1" rx="0.5" fill="black"/>
<rect x="17" y="19" width="1" height="1" rx="0.5" fill="black"/>
<rect x="18" y="15" width="1" height="1" rx="0.5" fill="black"/>
<rect x="18" y="17" width="1" height="1" rx="0.5" fill="black"/>
<rect x="18" y="19" width="1" height="1" rx="0.5" fill="black"/>
<rect x="18" y="14" width="1" height="1" rx="0.5" fill="black"/>
<rect x="18" y="16" width="1" height="1" rx="0.5" fill="black"/>
<rect x="18" y="18" width="1" height="1" rx="0.5" fill="black"/>
<rect x="17" y="14" width="1" height="1" rx="0.5" fill="black"/>
<rect x="17" y="16" width="1" height="1" rx="0.5" fill="black"/>
<rect x="17" y="18" width="1" height="1" rx="0.5" fill="black"/>
</svg>
