<svg width="24" height="24" viewBox="0 0 24 24" fill="none" xmlns="http://www.w3.org/2000/svg">
<rect x="7" y="9" width="1" height="1" rx="0.5" fill="black"/>
<rect width="1" height="1" rx="0.5" transform="matrix(-1 0 0 1 19 9)" fill="black"/>
<rect width="1" height="1" rx="0.5" transform="matrix(-1 0 0 1 5 9)" fill="black"/>
<rect width="1" height="1" rx="0.5" transform="matrix(-1 0 0 1 19 7)" fill="black"/>
<rect width="1" height="1" rx="0.5" transform="matrix(-1 0 0 1 5 7)" fill="black"/>
<rect width="1" height="1" rx="0.5" transform="matrix(-1 0 0 1 5 6)" fill="black"/>
<rect width="1" height="1" rx="0.5" transform="matrix(-1 0 0 1 6 6)" fill="black"/>
<rect width="1" height="1" rx="0.5" transform="matrix(-1 0 0 1 7 6)" fill="black"/>
<rect width="1" height="1" rx="0.5" transform="matrix(-1 0 0 1 8 6)" fill="black"/>
<rect width="1" height="1" rx="0.5" transform="matrix(-1 0 0 1 9 6)" fill="black"/>
<rect width="1" height="1" rx="0.5" transform="matrix(-1 0 0 1 10 6)" fill="black"/>
<rect width="1" height="1" rx="0.5" transform="matrix(-1 0 0 1 11 6)" fill="black"/>
<rect width="1" height="1" rx="0.5" transform="matrix(-1 0 0 1 12 6)" fill="black"/>
<rect width="1" height="1" rx="0.5" transform="matrix(-1 0 0 1 13 6)" fill="black"/>
<rect width="1" height="1" rx="0.5" transform="matrix(-1 0 0 1 14 6)" fill="black"/>
<rect width="1" height="1" rx="0.5" transform="matrix(-1 0 0 1 15 6)" fill="black"/>
<rect width="1" height="1" rx="0.5" transform="matrix(-1 0 0 1 16 6)" fill="black"/>
<rect width="1" height="1" rx="0.5" transform="matrix(-1 0 0 1 17 6)" fill="black"/>
<rect width="1" height="1" rx="0.5" transform="matrix(-1 0 0 1 18 6)" fill="black"/>
<rect width="1" height="1" rx="0.5" transform="matrix(-1 0 0 1 19 6)" fill="black"/>
<rect x="7" y="11" width="1" height="1" rx="0.5" fill="black"/>
<rect width="1" height="1" rx="0.5" transform="matrix(-1 0 0 1 19 11)" fill="black"/>
<rect width="1" height="1" rx="0.5" transform="matrix(-1 0 0 1 5 11)" fill="black"/>
<rect x="7" y="13" width="1" height="1" rx="0.5" fill="black"/>
<rect width="1" height="1" rx="0.5" transform="matrix(-1 0 0 1 19 13)" fill="black"/>
<rect width="1" height="1" rx="0.5" transform="matrix(-1 0 0 1 5 13)" fill="black"/>
<rect x="7" y="15" width="1" height="1" rx="0.5" fill="black"/>
<rect width="1" height="1" rx="0.5" transform="matrix(-1 0 0 1 19 15)" fill="black"/>
<rect width="1" height="1" rx="0.5" transform="matrix(-1 0 0 1 5 15)" fill="black"/>
<rect x="7" y="17" width="1" height="1" rx="0.5" fill="black"/>
<rect width="1" height="1" rx="0.5" transform="matrix(-1 0 0 1 19 17)" fill="black"/>
<rect width="1" height="1" rx="0.5" transform="matrix(-1 0 0 1 5 17)" fill="black"/>
<rect width="1" height="1" rx="0.5" transform="matrix(-1 0 0 1 6 17)" fill="black"/>
<rect width="1" height="1" rx="0.5" transform="matrix(-1 0 0 1 7 17)" fill="black"/>
<rect x="7" y="10" width="1" height="1" rx="0.5" fill="black"/>
<rect width="1" height="1" rx="0.5" transform="matrix(-1 0 0 1 19 10)" fill="black"/>
<rect width="1" height="1" rx="0.5" transform="matrix(-1 0 0 1 5 10)" fill="black"/>
<rect width="1" height="1" rx="0.5" transform="matrix(-1 0 0 1 19 8)" fill="black"/>
<rect width="1" height="1" rx="0.5" transform="matrix(-1 0 0 1 5 8)" fill="black"/>
<rect x="7" y="12" width="1" height="1" rx="0.5" fill="black"/>
<rect width="1" height="1" rx="0.5" transform="matrix(-1 0 0 1 19 12)" fill="black"/>
<rect width="1" height="1" rx="0.5" transform="matrix(-1 0 0 1 5 12)" fill="black"/>
<rect x="7" y="14" width="1" height="1" rx="0.5" fill="black"/>
<rect width="1" height="1" rx="0.5" transform="matrix(-1 0 0 1 19 14)" fill="black"/>
<rect width="1" height="1" rx="0.5" transform="matrix(-1 0 0 1 5 14)" fill="black"/>
<rect x="7" y="16" width="1" height="1" rx="0.5" fill="black"/>
<rect width="1" height="1" rx="0.5" transform="matrix(-1 0 0 1 19 16)" fill="black"/>
<rect width="1" height="1" rx="0.5" transform="matrix(-1 0 0 1 5 16)" fill="black"/>
<rect x="8" y="9" width="1" height="1" rx="0.5" fill="black"/>
<rect width="1" height="1" rx="0.5" transform="matrix(-1 0 0 1 18 9)" fill="black"/>
<rect x="9" y="9" width="1" height="1" rx="0.5" fill="black"/>
<rect width="1" height="1" rx="0.5" transform="matrix(-1 0 0 1 17 9)" fill="black"/>
<rect x="10" y="9" width="1" height="1" rx="0.5" fill="black"/>
<rect width="1" height="1" rx="0.5" transform="matrix(-1 0 0 1 16 9)" fill="black"/>
<rect x="11" y="9" width="1" height="1" rx="0.5" fill="black"/>
<rect width="1" height="1" rx="0.5" transform="matrix(-1 0 0 1 15 9)" fill="black"/>
<rect x="8" y="11" width="1" height="1" rx="0.5" fill="black"/>
<rect width="1" height="1" rx="0.5" transform="matrix(-1 0 0 1 18 11)" fill="black"/>
<rect x="9" y="11" width="1" height="1" rx="0.5" fill="black"/>
<rect width="1" height="1" rx="0.5" transform="matrix(-1 0 0 1 17 11)" fill="black"/>
<rect x="10" y="11" width="1" height="1" rx="0.5" fill="black"/>
<rect width="1" height="1" rx="0.5" transform="matrix(-1 0 0 1 16 11)" fill="black"/>
<rect x="11" y="11" width="1" height="1" rx="0.5" fill="black"/>
<rect width="1" height="1" rx="0.5" transform="matrix(-1 0 0 1 15 11)" fill="black"/>
<rect x="8" y="13" width="1" height="1" rx="0.5" fill="black"/>
<rect width="1" height="1" rx="0.5" transform="matrix(-1 0 0 1 18 13)" fill="black"/>
<rect x="9" y="13" width="1" height="1" rx="0.5" fill="black"/>
<rect width="1" height="1" rx="0.5" transform="matrix(-1 0 0 1 17 13)" fill="black"/>
<rect x="10" y="13" width="1" height="1" rx="0.5" fill="black"/>
<rect width="1" height="1" rx="0.5" transform="matrix(-1 0 0 1 16 13)" fill="black"/>
<rect x="11" y="13" width="1" height="1" rx="0.5" fill="black"/>
<rect width="1" height="1" rx="0.5" transform="matrix(-1 0 0 1 15 13)" fill="black"/>
<rect x="8" y="15" width="1" height="1" rx="0.5" fill="black"/>
<rect width="1" height="1" rx="0.5" transform="matrix(-1 0 0 1 18 15)" fill="black"/>
<rect x="9" y="15" width="1" height="1" rx="0.5" fill="black"/>
<rect width="1" height="1" rx="0.5" transform="matrix(-1 0 0 1 17 15)" fill="black"/>
<rect x="10" y="15" width="1" height="1" rx="0.5" fill="black"/>
<rect width="1" height="1" rx="0.5" transform="matrix(-1 0 0 1 16 15)" fill="black"/>
<rect x="11" y="15" width="1" height="1" rx="0.5" fill="black"/>
<rect width="1" height="1" rx="0.5" transform="matrix(-1 0 0 1 15 15)" fill="black"/>
<rect x="8" y="17" width="1" height="1" rx="0.5" fill="black"/>
<rect width="1" height="1" rx="0.5" transform="matrix(-1 0 0 1 18 17)" fill="black"/>
<rect x="9" y="17" width="1" height="1" rx="0.5" fill="black"/>
<rect width="1" height="1" rx="0.5" transform="matrix(-1 0 0 1 17 17)" fill="black"/>
<rect x="10" y="17" width="1" height="1" rx="0.5" fill="black"/>
<rect width="1" height="1" rx="0.5" transform="matrix(-1 0 0 1 16 17)" fill="black"/>
<rect x="11" y="17" width="1" height="1" rx="0.5" fill="black"/>
<rect x="12" y="17" width="1" height="1" rx="0.5" fill="black"/>
<rect x="13" y="17" width="1" height="1" rx="0.5" fill="black"/>
<rect width="1" height="1" rx="0.5" transform="matrix(-1 0 0 1 15 17)" fill="black"/>
</svg>
