<svg width="24" height="24" viewBox="0 0 24 24" fill="none" xmlns="http://www.w3.org/2000/svg">
<path fill-rule="evenodd" clip-rule="evenodd" d="M2 4.5C2 4.22386 2.22386 4 2.5 4C2.77614 4 3 4.22386 3 4.5C3 4.77614 2.77614 5 2.5 5C2.22386 5 2 4.77614 2 4.5ZM3 5.5C3 5.22386 2.77614 5 2.5 5C2.22386 5 2 5.22386 2 5.5C2 5.77614 2.22386 6 2.5 6C2.22386 6 2 6.22386 2 6.5C2 6.77614 2.22386 7 2.5 7C2.22386 7 2 7.22386 2 7.5C2 7.77614 2.22386 8 2.5 8C2.22386 8 2 8.22386 2 8.5C2 8.77614 2.22386 9 2.5 9C2.22386 9 2 9.22386 2 9.5C2 9.77614 2.22386 10 2.5 10C2.22386 10 2 10.2239 2 10.5C2 10.7761 2.22386 11 2.5 11C2.22386 11 2 11.2239 2 11.5C2 11.7761 2.22386 12 2.5 12C2.22386 12 2 12.2239 2 12.5C2 12.7761 2.22386 13 2.5 13C2.22386 13 2 13.2239 2 13.5C2 13.7761 2.22386 14 2.5 14C2.22386 14 2 14.2239 2 14.5C2 14.7761 2.22386 15 2.5 15C2.22386 15 2 15.2239 2 15.5C2 15.7761 2.22386 16 2.5 16C2.22386 16 2 16.2239 2 16.5C2 16.7761 2.22386 17 2.5 17C2.22386 17 2 17.2239 2 17.5C2 17.7761 2.22386 18 2.5 18C2.77614 18 3 17.7761 3 17.5C3 17.7761 3.22386 18 3.5 18C3.77614 18 4 17.7761 4 17.5C4 17.7761 4.22386 18 4.5 18C4.77614 18 5 17.7761 5 17.5C5 17.7761 5.22386 18 5.5 18C5.77614 18 6 17.7761 6 17.5C6 17.2239 5.77614 17 5.5 17C5.77614 17 6 16.7761 6 16.5C6 16.2239 5.77614 16 5.5 16C5.22386 16 5 16.2239 5 16.5C5 16.2239 4.77614 16 4.5 16C4.22386 16 4 16.2239 4 16.5C4 16.2239 3.77614 16 3.5 16C3.77614 16 4 15.7761 4 15.5C4 15.2239 3.77614 15 3.5 15C3.77614 15 4 14.7761 4 14.5C4 14.2239 3.77614 14 3.5 14C3.77614 14 4 13.7761 4 13.5C4 13.2239 3.77614 13 3.5 13C3.77614 13 4 12.7761 4 12.5C4 12.2239 3.77614 12 3.5 12C3.77614 12 4 11.7761 4 11.5C4 11.2239 3.77614 11 3.5 11C3.77614 11 4 10.7761 4 10.5C4 10.2239 3.77614 10 3.5 10C3.77614 10 4 9.77614 4 9.5C4 9.22386 3.77614 9 3.5 9C3.77614 9 4 8.77614 4 8.5C4 8.22386 3.77614 8 3.5 8C3.77614 8 4 7.77614 4 7.5C4 7.22386 3.77614 7 3.5 7C3.77614 7 4 6.77614 4 6.5C4 6.22386 3.77614 6 3.5 6C3.77614 6 4 5.77614 4 5.5C4 5.77614 4.22386 6 4.5 6C4.77614 6 5 5.77614 5 5.5C5 5.77614 5.22386 6 5.5 6C5.77614 6 6 5.77614 6 5.5C6 5.77614 6.22386 6 6.5 6C6.77614 6 7 5.77614 7 5.5C7 5.77614 7.22386 6 7.5 6C7.77614 6 8 5.77614 8 5.5C8 5.77614 8.22386 6 8.5 6C8.77614 6 9 5.77614 9 5.5C9 5.77614 9.22386 6 9.5 6C9.77614 6 10 5.77614 10 5.5C10 5.77614 10.2239 6 10.5 6C10.7761 6 11 5.77614 11 5.5C11 5.77614 11.2239 6 11.5 6C11.7761 6 12 5.77614 12 5.5C12 5.77614 12.2239 6 12.5 6C12.7761 6 13 5.77614 13 5.5C13 5.77614 13.2239 6 13.5 6C13.7761 6 14 5.77614 14 5.5C14 5.77614 14.2239 6 14.5 6C14.7761 6 15 5.77614 15 5.5C15 5.77614 15.2239 6 15.5 6C15.7761 6 16 5.77614 16 5.5C16 5.77614 16.2239 6 16.5 6C16.7761 6 17 5.77614 17 5.5C17 5.77614 17.2239 6 17.5 6C17.7761 6 18 5.77614 18 5.5C18 5.77614 18.2239 6 18.5 6C18.7761 6 19 5.77614 19 5.5C19 5.77614 19.2239 6 19.5 6C19.7761 6 20 5.77614 20 5.5C20 5.77614 20.2239 6 20.5 6C20.2239 6 20 6.22386 20 6.5C20 6.77614 20.2239 7 20.5 7C20.2239 7 20 7.22386 20 7.5C20 7.77614 20.2239 8 20.5 8C20.2239 8 20 8.22386 20 8.5C20 8.77614 20.2239 9 20.5 9C20.2239 9 20 9.22386 20 9.5C20 9.77614 20.2239 10 20.5 10C20.2239 10 20 10.2239 20 10.5C20 10.7761 20.2239 11 20.5 11C20.2239 11 20 11.2239 20 11.5C20 11.7761 20.2239 12 20.5 12C20.2239 12 20 12.2239 20 12.5C20 12.7761 20.2239 13 20.5 13C20.2239 13 20 13.2239 20 13.5C20 13.7761 20.2239 14 20.5 14C20.2239 14 20 14.2239 20 14.5C20 14.7761 20.2239 15 20.5 15C20.2239 15 20 15.2239 20 15.5C20 15.7761 20.2239 16 20.5 16C20.2239 16 20 16.2239 20 16.5C20 16.2239 19.7761 16 19.5 16C19.2239 16 19 16.2239 19 16.5C19 16.2239 18.7761 16 18.5 16C18.2239 16 18 16.2239 18 16.5C18 16.7761 18.2239 17 18.5 17C18.2239 17 18 17.2239 18 17.5C18 17.7761 18.2239 18 18.5 18C18.7761 18 19 17.7761 19 17.5C19 17.7761 19.2239 18 19.5 18C19.7761 18 20 17.7761 20 17.5C20 17.7761 20.2239 18 20.5 18C20.7761 18 21 17.7761 21 17.5C21 17.7761 21.2239 18 21.5 18C21.7761 18 22 17.7761 22 17.5C22 17.2239 21.7761 17 21.5 17C21.7761 17 22 16.7761 22 16.5C22 16.2239 21.7761 16 21.5 16C21.7761 16 22 15.7761 22 15.5C22 15.2239 21.7761 15 21.5 15C21.7761 15 22 14.7761 22 14.5C22 14.2239 21.7761 14 21.5 14C21.7761 14 22 13.7761 22 13.5C22 13.2239 21.7761 13 21.5 13C21.7761 13 22 12.7761 22 12.5C22 12.2239 21.7761 12 21.5 12C21.7761 12 22 11.7761 22 11.5C22 11.2239 21.7761 11 21.5 11C21.7761 11 22 10.7761 22 10.5C22 10.2239 21.7761 10 21.5 10C21.7761 10 22 9.77614 22 9.5C22 9.22386 21.7761 9 21.5 9C21.7761 9 22 8.77614 22 8.5C22 8.22386 21.7761 8 21.5 8C21.7761 8 22 7.77614 22 7.5C22 7.22386 21.7761 7 21.5 7C21.7761 7 22 6.77614 22 6.5C22 6.22386 21.7761 6 21.5 6C21.7761 6 22 5.77614 22 5.5C22 5.22386 21.7761 5 21.5 5C21.7761 5 22 4.77614 22 4.5C22 4.22386 21.7761 4 21.5 4C21.2239 4 21 4.22386 21 4.5C21 4.22386 20.7761 4 20.5 4C20.2239 4 20 4.22386 20 4.5C20 4.22386 19.7761 4 19.5 4C19.2239 4 19 4.22386 19 4.5C19 4.22386 18.7761 4 18.5 4C18.2239 4 18 4.22386 18 4.5C18 4.22386 17.7761 4 17.5 4C17.2239 4 17 4.22386 17 4.5C17 4.22386 16.7761 4 16.5 4C16.2239 4 16 4.22386 16 4.5C16 4.22386 15.7761 4 15.5 4C15.2239 4 15 4.22386 15 4.5C15 4.22386 14.7761 4 14.5 4C14.2239 4 14 4.22386 14 4.5C14 4.22386 13.7761 4 13.5 4C13.2239 4 13 4.22386 13 4.5C13 4.22386 12.7761 4 12.5 4C12.2239 4 12 4.22386 12 4.5C12 4.22386 11.7761 4 11.5 4C11.2239 4 11 4.22386 11 4.5C11 4.22386 10.7761 4 10.5 4C10.2239 4 10 4.22386 10 4.5C10 4.22386 9.77614 4 9.5 4C9.22386 4 9 4.22386 9 4.5C9 4.22386 8.77614 4 8.5 4C8.22386 4 8 4.22386 8 4.5C8 4.22386 7.77614 4 7.5 4C7.22386 4 7 4.22386 7 4.5C7 4.22386 6.77614 4 6.5 4C6.22386 4 6 4.22386 6 4.5C6 4.22386 5.77614 4 5.5 4C5.22386 4 5 4.22386 5 4.5C5 4.22386 4.77614 4 4.5 4C4.22386 4 4 4.22386 4 4.5C4 4.22386 3.77614 4 3.5 4C3.22386 4 3 4.22386 3 4.5C3 4.77614 3.22386 5 3.5 5C3.22386 5 3 5.22386 3 5.5ZM4.5 5C4.22386 5 4 5.22386 4 5.5C4 5.22386 3.77614 5 3.5 5C3.77614 5 4 4.77614 4 4.5C4 4.77614 4.22386 5 4.5 5ZM5.5 5C5.22386 5 5 5.22386 5 5.5C5 5.22386 4.77614 5 4.5 5C4.77614 5 5 4.77614 5 4.5C5 4.77614 5.22386 5 5.5 5ZM6.5 5C6.22386 5 6 5.22386 6 5.5C6 5.22386 5.77614 5 5.5 5C5.77614 5 6 4.77614 6 4.5C6 4.77614 6.22386 5 6.5 5ZM7.5 5C7.22386 5 7 5.22386 7 5.5C7 5.22386 6.77614 5 6.5 5C6.77614 5 7 4.77614 7 4.5C7 4.77614 7.22386 5 7.5 5ZM8.5 5C8.22386 5 8 5.22386 8 5.5C8 5.22386 7.77614 5 7.5 5C7.77614 5 8 4.77614 8 4.5C8 4.77614 8.22386 5 8.5 5ZM9.5 5C9.22386 5 9 5.22386 9 5.5C9 5.22386 8.77614 5 8.5 5C8.77614 5 9 4.77614 9 4.5C9 4.77614 9.22386 5 9.5 5ZM10.5 5C10.2239 5 10 5.22386 10 5.5C10 5.22386 9.77614 5 9.5 5C9.77614 5 10 4.77614 10 4.5C10 4.77614 10.2239 5 10.5 5ZM11.5 5C11.2239 5 11 5.22386 11 5.5C11 5.22386 10.7761 5 10.5 5C10.7761 5 11 4.77614 11 4.5C11 4.77614 11.2239 5 11.5 5ZM12.5 5C12.2239 5 12 5.22386 12 5.5C12 5.22386 11.7761 5 11.5 5C11.7761 5 12 4.77614 12 4.5C12 4.77614 12.2239 5 12.5 5ZM13.5 5C13.2239 5 13 5.22386 13 5.5C13 5.22386 12.7761 5 12.5 5C12.7761 5 13 4.77614 13 4.5C13 4.77614 13.2239 5 13.5 5ZM14.5 5C14.2239 5 14 5.22386 14 5.5C14 5.22386 13.7761 5 13.5 5C13.7761 5 14 4.77614 14 4.5C14 4.77614 14.2239 5 14.5 5ZM15.5 5C15.2239 5 15 5.22386 15 5.5C15 5.22386 14.7761 5 14.5 5C14.7761 5 15 4.77614 15 4.5C15 4.77614 15.2239 5 15.5 5ZM16.5 5C16.2239 5 16 5.22386 16 5.5C16 5.22386 15.7761 5 15.5 5C15.7761 5 16 4.77614 16 4.5C16 4.77614 16.2239 5 16.5 5ZM17.5 5C17.2239 5 17 5.22386 17 5.5C17 5.22386 16.7761 5 16.5 5C16.7761 5 17 4.77614 17 4.5C17 4.77614 17.2239 5 17.5 5ZM18.5 5C18.2239 5 18 5.22386 18 5.5C18 5.22386 17.7761 5 17.5 5C17.7761 5 18 4.77614 18 4.5C18 4.77614 18.2239 5 18.5 5ZM19.5 5C19.2239 5 19 5.22386 19 5.5C19 5.22386 18.7761 5 18.5 5C18.7761 5 19 4.77614 19 4.5C19 4.77614 19.2239 5 19.5 5ZM20.5 5C20.2239 5 20 5.22386 20 5.5C20 5.22386 19.7761 5 19.5 5C19.7761 5 20 4.77614 20 4.5C20 4.77614 20.2239 5 20.5 5ZM21 5.5C21 5.77614 20.7761 6 20.5 6C20.7761 6 21 6.22386 21 6.5C21 6.77614 20.7761 7 20.5 7C20.7761 7 21 7.22386 21 7.5C21 7.77614 20.7761 8 20.5 8C20.7761 8 21 8.22386 21 8.5C21 8.77614 20.7761 9 20.5 9C20.7761 9 21 9.22386 21 9.5C21 9.77614 20.7761 10 20.5 10C20.7761 10 21 10.2239 21 10.5C21 10.7761 20.7761 11 20.5 11C20.7761 11 21 11.2239 21 11.5C21 11.7761 20.7761 12 20.5 12C20.7761 12 21 12.2239 21 12.5C21 12.7761 20.7761 13 20.5 13C20.7761 13 21 13.2239 21 13.5C21 13.7761 20.7761 14 20.5 14C20.7761 14 21 14.2239 21 14.5C21 14.7761 20.7761 15 20.5 15C20.7761 15 21 15.2239 21 15.5C21 15.7761 20.7761 16 20.5 16C20.7761 16 21 16.2239 21 16.5C21 16.7761 20.7761 17 20.5 17C20.2239 17 20 16.7761 20 16.5C20 16.7761 19.7761 17 19.5 17C19.2239 17 19 16.7761 19 16.5C19 16.7761 18.7761 17 18.5 17C18.7761 17 19 17.2239 19 17.5C19 17.2239 19.2239 17 19.5 17C19.7761 17 20 17.2239 20 17.5C20 17.2239 20.2239 17 20.5 17C20.7761 17 21 17.2239 21 17.5C21 17.2239 21.2239 17 21.5 17C21.2239 17 21 16.7761 21 16.5C21 16.2239 21.2239 16 21.5 16C21.2239 16 21 15.7761 21 15.5C21 15.2239 21.2239 15 21.5 15C21.2239 15 21 14.7761 21 14.5C21 14.2239 21.2239 14 21.5 14C21.2239 14 21 13.7761 21 13.5C21 13.2239 21.2239 13 21.5 13C21.2239 13 21 12.7761 21 12.5C21 12.2239 21.2239 12 21.5 12C21.2239 12 21 11.7761 21 11.5C21 11.2239 21.2239 11 21.5 11C21.2239 11 21 10.7761 21 10.5C21 10.2239 21.2239 10 21.5 10C21.2239 10 21 9.77614 21 9.5C21 9.22386 21.2239 9 21.5 9C21.2239 9 21 8.77614 21 8.5C21 8.22386 21.2239 8 21.5 8C21.2239 8 21 7.77614 21 7.5C21 7.22386 21.2239 7 21.5 7C21.2239 7 21 6.77614 21 6.5C21 6.22386 21.2239 6 21.5 6C21.2239 6 21 5.77614 21 5.5ZM21 5.5C21 5.22386 20.7761 5 20.5 5C20.7761 5 21 4.77614 21 4.5C21 4.77614 21.2239 5 21.5 5C21.2239 5 21 5.22386 21 5.5ZM3 6.5C3 6.22386 2.77614 6 2.5 6C2.77614 6 3 5.77614 3 5.5C3 5.77614 3.22386 6 3.5 6C3.22386 6 3 6.22386 3 6.5ZM3 7.5C3 7.22386 2.77614 7 2.5 7C2.77614 7 3 6.77614 3 6.5C3 6.77614 3.22386 7 3.5 7C3.22386 7 3 7.22386 3 7.5ZM3 8.5C3 8.22386 2.77614 8 2.5 8C2.77614 8 3 7.77614 3 7.5C3 7.77614 3.22386 8 3.5 8C3.22386 8 3 8.22386 3 8.5ZM3 9.5C3 9.22386 2.77614 9 2.5 9C2.77614 9 3 8.77614 3 8.5C3 8.77614 3.22386 9 3.5 9C3.22386 9 3 9.22386 3 9.5ZM3 10.5C3 10.2239 2.77614 10 2.5 10C2.77614 10 3 9.77614 3 9.5C3 9.77614 3.22386 10 3.5 10C3.22386 10 3 10.2239 3 10.5ZM3 11.5C3 11.2239 2.77614 11 2.5 11C2.77614 11 3 10.7761 3 10.5C3 10.7761 3.22386 11 3.5 11C3.22386 11 3 11.2239 3 11.5ZM3 12.5C3 12.2239 2.77614 12 2.5 12C2.77614 12 3 11.7761 3 11.5C3 11.7761 3.22386 12 3.5 12C3.22386 12 3 12.2239 3 12.5ZM3 13.5C3 13.2239 2.77614 13 2.5 13C2.77614 13 3 12.7761 3 12.5C3 12.7761 3.22386 13 3.5 13C3.22386 13 3 13.2239 3 13.5ZM3 14.5C3 14.2239 2.77614 14 2.5 14C2.77614 14 3 13.7761 3 13.5C3 13.7761 3.22386 14 3.5 14C3.22386 14 3 14.2239 3 14.5ZM3 15.5C3 15.2239 2.77614 15 2.5 15C2.77614 15 3 14.7761 3 14.5C3 14.7761 3.22386 15 3.5 15C3.22386 15 3 15.2239 3 15.5ZM3 16.5C3 16.2239 2.77614 16 2.5 16C2.77614 16 3 15.7761 3 15.5C3 15.7761 3.22386 16 3.5 16C3.22386 16 3 16.2239 3 16.5ZM3.5 17C3.22386 17 3 17.2239 3 17.5C3 17.2239 2.77614 17 2.5 17C2.77614 17 3 16.7761 3 16.5C3 16.7761 3.22386 17 3.5 17ZM4.5 17C4.22386 17 4 17.2239 4 17.5C4 17.2239 3.77614 17 3.5 17C3.77614 17 4 16.7761 4 16.5C4 16.7761 4.22386 17 4.5 17ZM4.5 17C4.77614 17 5 16.7761 5 16.5C5 16.7761 5.22386 17 5.5 17C5.22386 17 5 17.2239 5 17.5C5 17.2239 4.77614 17 4.5 17ZM5 21.5C5 21.2239 5.22386 21 5.5 21C5.77614 21 6 21.2239 6 21.5C6 21.7761 5.77614 22 5.5 22C5.22386 22 5 21.7761 5 21.5ZM6.5 21C6.22386 21 6 21.2239 6 21.5C6 21.7761 6.22386 22 6.5 22C6.77614 22 7 21.7761 7 21.5C7 21.7761 7.22386 22 7.5 22C7.77614 22 8 21.7761 8 21.5C8 21.7761 8.22386 22 8.5 22C8.77614 22 9 21.7761 9 21.5C9 21.7761 9.22386 22 9.5 22C9.77614 22 10 21.7761 10 21.5C10 21.7761 10.2239 22 10.5 22C10.7761 22 11 21.7761 11 21.5C11 21.7761 11.2239 22 11.5 22C11.7761 22 12 21.7761 12 21.5C12 21.7761 12.2239 22 12.5 22C12.7761 22 13 21.7761 13 21.5C13 21.7761 13.2239 22 13.5 22C13.7761 22 14 21.7761 14 21.5C14 21.7761 14.2239 22 14.5 22C14.7761 22 15 21.7761 15 21.5C15 21.7761 15.2239 22 15.5 22C15.7761 22 16 21.7761 16 21.5C16 21.7761 16.2239 22 16.5 22C16.7761 22 17 21.7761 17 21.5C17 21.7761 17.2239 22 17.5 22C17.7761 22 18 21.7761 18 21.5C18 21.7761 18.2239 22 18.5 22C18.7761 22 19 21.7761 19 21.5C19 21.2239 18.7761 21 18.5 21C18.7761 21 19 20.7761 19 20.5C19 20.2239 18.7761 20 18.5 20C18.2239 20 18 20.2239 18 20.5C18 20.2239 17.7761 20 17.5 20C17.7761 20 18 19.7761 18 19.5C18 19.2239 17.7761 19 17.5 19C17.2239 19 17 19.2239 17 19.5C17 19.2239 16.7761 19 16.5 19C16.7761 19 17 18.7761 17 18.5C17 18.2239 16.7761 18 16.5 18C16.2239 18 16 18.2239 16 18.5C16 18.2239 15.7761 18 15.5 18C15.7761 18 16 17.7761 16 17.5C16 17.2239 15.7761 17 15.5 17C15.2239 17 15 17.2239 15 17.5C15 17.2239 14.7761 17 14.5 17C14.7761 17 15 16.7761 15 16.5C15 16.2239 14.7761 16 14.5 16C14.2239 16 14 16.2239 14 16.5C14 16.2239 13.7761 16 13.5 16C13.7761 16 14 15.7761 14 15.5C14 15.2239 13.7761 15 13.5 15C13.2239 15 13 15.2239 13 15.5C13 15.2239 12.7761 15 12.5 15C12.7761 15 13 14.7761 13 14.5C13 14.2239 12.7761 14 12.5 14C12.2239 14 12 14.2239 12 14.5C12 14.2239 11.7761 14 11.5 14C11.2239 14 11 14.2239 11 14.5C11 14.7761 11.2239 15 11.5 15C11.2239 15 11 15.2239 11 15.5C11 15.2239 10.7761 15 10.5 15C10.2239 15 10 15.2239 10 15.5C10 15.7761 10.2239 16 10.5 16C10.2239 16 10 16.2239 10 16.5C10 16.2239 9.77614 16 9.5 16C9.22386 16 9 16.2239 9 16.5C9 16.7761 9.22386 17 9.5 17C9.22386 17 9 17.2239 9 17.5C9 17.2239 8.77614 17 8.5 17C8.22386 17 8 17.2239 8 17.5C8 17.7761 8.22386 18 8.5 18C8.22386 18 8 18.2239 8 18.5C8 18.2239 7.77614 18 7.5 18C7.22386 18 7 18.2239 7 18.5C7 18.7761 7.22386 19 7.5 19C7.22386 19 7 19.2239 7 19.5C7 19.2239 6.77614 19 6.5 19C6.22386 19 6 19.2239 6 19.5C6 19.7761 6.22386 20 6.5 20C6.22386 20 6 20.2239 6 20.5C6 20.2239 5.77614 20 5.5 20C5.22386 20 5 20.2239 5 20.5C5 20.7761 5.22386 21 5.5 21C5.77614 21 6 20.7761 6 20.5C6 20.7761 6.22386 21 6.5 21ZM7 20.5C7 20.2239 6.77614 20 6.5 20C6.77614 20 7 19.7761 7 19.5C7 19.7761 7.22386 20 7.5 20C7.22386 20 7 20.2239 7 20.5ZM7.5 21C7.22386 21 7 21.2239 7 21.5C7 21.2239 6.77614 21 6.5 21C6.77614 21 7 20.7761 7 20.5C7 20.7761 7.22386 21 7.5 21ZM8 20.5C8 20.2239 7.77614 20 7.5 20C7.77614 20 8 19.7761 8 19.5C8 19.7761 8.22386 20 8.5 20C8.22386 20 8 20.2239 8 20.5ZM8.5 21C8.22386 21 8 20.7761 8 20.5C8 20.7761 7.77614 21 7.5 21C7.77614 21 8 21.2239 8 21.5C8 21.2239 8.22386 21 8.5 21ZM9 20.5C9 20.7761 8.77614 21 8.5 21C8.77614 21 9 21.2239 9 21.5C9 21.2239 9.22386 21 9.5 21C9.77614 21 10 21.2239 10 21.5C10 21.2239 10.2239 21 10.5 21C10.7761 21 11 21.2239 11 21.5C11 21.2239 11.2239 21 11.5 21C11.7761 21 12 21.2239 12 21.5C12 21.2239 12.2239 21 12.5 21C12.7761 21 13 21.2239 13 21.5C13 21.2239 13.2239 21 13.5 21C13.7761 21 14 21.2239 14 21.5C14 21.2239 14.2239 21 14.5 21C14.7761 21 15 21.2239 15 21.5C15 21.2239 15.2239 21 15.5 21C15.7761 21 16 21.2239 16 21.5C16 21.2239 16.2239 21 16.5 21C16.7761 21 17 21.2239 17 21.5C17 21.2239 17.2239 21 17.5 21C17.7761 21 18 21.2239 18 21.5C18 21.2239 18.2239 21 18.5 21C18.2239 21 18 20.7761 18 20.5C18 20.7761 17.7761 21 17.5 21C17.2239 21 17 20.7761 17 20.5C17 20.2239 17.2239 20 17.5 20C17.2239 20 17 19.7761 17 19.5C17 19.7761 16.7761 20 16.5 20C16.2239 20 16 19.7761 16 19.5C16 19.2239 16.2239 19 16.5 19C16.2239 19 16 18.7761 16 18.5C16 18.7761 15.7761 19 15.5 19C15.2239 19 15 18.7761 15 18.5C15 18.2239 15.2239 18 15.5 18C15.2239 18 15 17.7761 15 17.5C15 17.7761 14.7761 18 14.5 18C14.2239 18 14 17.7761 14 17.5C14 17.2239 14.2239 17 14.5 17C14.2239 17 14 16.7761 14 16.5C14 16.7761 13.7761 17 13.5 17C13.2239 17 13 16.7761 13 16.5C13 16.2239 13.2239 16 13.5 16C13.2239 16 13 15.7761 13 15.5C13 15.7761 12.7761 16 12.5 16C12.2239 16 12 15.7761 12 15.5C12 15.2239 12.2239 15 12.5 15C12.2239 15 12 14.7761 12 14.5C12 14.7761 11.7761 15 11.5 15C11.7761 15 12 15.2239 12 15.5C12 15.7761 11.7761 16 11.5 16C11.2239 16 11 15.7761 11 15.5C11 15.7761 10.7761 16 10.5 16C10.7761 16 11 16.2239 11 16.5C11 16.7761 10.7761 17 10.5 17C10.2239 17 10 16.7761 10 16.5C10 16.7761 9.77614 17 9.5 17C9.77614 17 10 17.2239 10 17.5C10 17.7761 9.77614 18 9.5 18C9.22386 18 9 17.7761 9 17.5C9 17.7761 8.77614 18 8.5 18C8.77614 18 9 18.2239 9 18.5C9 18.7761 8.77614 19 8.5 19C8.22386 19 8 18.7761 8 18.5C8 18.7761 7.77614 19 7.5 19C7.77614 19 8 19.2239 8 19.5C8 19.2239 8.22386 19 8.5 19C8.77614 19 9 19.2239 9 19.5C9 19.7761 8.77614 20 8.5 20C8.77614 20 9 20.2239 9 20.5ZM10 20.5C10 20.7761 9.77614 21 9.5 21C9.22386 21 9 20.7761 9 20.5C9 20.2239 9.22386 20 9.5 20C9.77614 20 10 20.2239 10 20.5ZM11 20.5C11 20.7761 10.7761 21 10.5 21C10.2239 21 10 20.7761 10 20.5C10 20.2239 10.2239 20 10.5 20C10.7761 20 11 20.2239 11 20.5ZM12 20.5C12 20.7761 11.7761 21 11.5 21C11.2239 21 11 20.7761 11 20.5C11 20.2239 11.2239 20 11.5 20C11.7761 20 12 20.2239 12 20.5ZM13 20.5C13 20.7761 12.7761 21 12.5 21C12.2239 21 12 20.7761 12 20.5C12 20.2239 12.2239 20 12.5 20C12.7761 20 13 20.2239 13 20.5ZM14 20.5C14 20.7761 13.7761 21 13.5 21C13.2239 21 13 20.7761 13 20.5C13 20.2239 13.2239 20 13.5 20C13.7761 20 14 20.2239 14 20.5ZM15 20.5C15 20.7761 14.7761 21 14.5 21C14.2239 21 14 20.7761 14 20.5C14 20.2239 14.2239 20 14.5 20C14.7761 20 15 20.2239 15 20.5ZM15.5 20C15.2239 20 15 20.2239 15 20.5C15 20.7761 15.2239 21 15.5 21C15.7761 21 16 20.7761 16 20.5C16 20.7761 16.2239 21 16.5 21C16.7761 21 17 20.7761 17 20.5C17 20.2239 16.7761 20 16.5 20C16.2239 20 16 20.2239 16 20.5C16 20.2239 15.7761 20 15.5 20ZM15.5 20C15.7761 20 16 19.7761 16 19.5C16 19.2239 15.7761 19 15.5 19C15.2239 19 15 19.2239 15 19.5C15 19.7761 15.2239 20 15.5 20ZM9 18.5C9 18.7761 9.22386 19 9.5 19C9.77614 19 10 18.7761 10 18.5C10 18.2239 9.77614 18 9.5 18C9.22386 18 9 18.2239 9 18.5ZM10 17.5C10 17.2239 10.2239 17 10.5 17C10.7761 17 11 17.2239 11 17.5C11 17.7761 10.7761 18 10.5 18C10.2239 18 10 17.7761 10 17.5ZM12 16.5C12 16.2239 12.2239 16 12.5 16C12.7761 16 13 16.2239 13 16.5C13 16.7761 12.7761 17 12.5 17C12.2239 17 12 16.7761 12 16.5ZM12 16.5C12 16.7761 11.7761 17 11.5 17C11.2239 17 11 16.7761 11 16.5C11 16.2239 11.2239 16 11.5 16C11.7761 16 12 16.2239 12 16.5ZM13.5 17C13.2239 17 13 17.2239 13 17.5C13 17.7761 13.2239 18 13.5 18C13.7761 18 14 17.7761 14 17.5C14 17.2239 13.7761 17 13.5 17ZM14.5 18C14.7761 18 15 18.2239 15 18.5C15 18.7761 14.7761 19 14.5 19C14.2239 19 14 18.7761 14 18.5C14 18.2239 14.2239 18 14.5 18Z" fill="white"/>
</svg>
