<svg width="24" height="24" viewBox="0 0 24 24" fill="none" xmlns="http://www.w3.org/2000/svg">
<path fill-rule="evenodd" clip-rule="evenodd" d="M11.5 5C11.7761 5 12 5.22386 12 5.5C12 5.77614 11.7761 6 11.5 6C11.2239 6 11 5.77614 11 5.5C11 5.22386 11.2239 5 11.5 5ZM12 6.5C12 6.77614 11.7761 7 11.5 7C11.2239 7 11 6.77614 11 6.5C11 6.22386 11.2239 6 11.5 6C11.7761 6 12 6.22386 12 6.5ZM12.5 6C12.2239 6 12 6.22386 12 6.5C12 6.77614 12.2239 7 12.5 7C12.2239 7 12 7.22386 12 7.5C12 7.77614 12.2239 8 12.5 8C12.7761 8 13 7.77614 13 7.5C13 7.77614 13.2239 8 13.5 8C13.2239 8 13 8.22386 13 8.5C13 8.77614 13.2239 9 13.5 9C13.7761 9 14 8.77614 14 8.5C14 8.77614 14.2239 9 14.5 9C14.2239 9 14 9.22386 14 9.5C14 9.77614 14.2239 10 14.5 10C14.7761 10 15 9.77614 15 9.5C15 9.77614 15.2239 10 15.5 10C15.2239 10 15 10.2239 15 10.5C15 10.7761 15.2239 11 15.5 11C15.2239 11 15 11.2239 15 11.5C15 11.2239 14.7761 11 14.5 11C14.2239 11 14 11.2239 14 11.5C14 11.2239 13.7761 11 13.5 11C13.2239 11 13 11.2239 13 11.5C13 11.2239 12.7761 11 12.5 11C12.2239 11 12 11.2239 12 11.5C12 11.2239 11.7761 11 11.5 11C11.2239 11 11 11.2239 11 11.5C11 11.2239 10.7761 11 10.5 11C10.2239 11 10 11.2239 10 11.5C10 11.2239 9.77614 11 9.5 11C9.22386 11 9 11.2239 9 11.5C9 11.2239 8.77614 11 8.5 11C8.22386 11 8 11.2239 8 11.5C8 11.2239 7.77614 11 7.5 11C7.22386 11 7 11.2239 7 11.5C7 11.2239 6.77614 11 6.5 11C6.22386 11 6 11.2239 6 11.5C6 11.2239 5.77614 11 5.5 11C5.22386 11 5 11.2239 5 11.5C5 11.7761 5.22386 12 5.5 12C5.22386 12 5 12.2239 5 12.5C5 12.7761 5.22386 13 5.5 13C5.77614 13 6 12.7761 6 12.5C6 12.7761 6.22386 13 6.5 13C6.77614 13 7 12.7761 7 12.5C7 12.7761 7.22386 13 7.5 13C7.77614 13 8 12.7761 8 12.5C8 12.7761 8.22386 13 8.5 13C8.77614 13 9 12.7761 9 12.5C9 12.7761 9.22386 13 9.5 13C9.77614 13 10 12.7761 10 12.5C10 12.7761 10.2239 13 10.5 13C10.7761 13 11 12.7761 11 12.5C11 12.7761 11.2239 13 11.5 13C11.7761 13 12 12.7761 12 12.5C12 12.7761 12.2239 13 12.5 13C12.7761 13 13 12.7761 13 12.5C13 12.7761 13.2239 13 13.5 13C13.7761 13 14 12.7761 14 12.5C14 12.7761 14.2239 13 14.5 13C14.7761 13 15 12.7761 15 12.5C15 12.7761 15.2239 13 15.5 13C15.2239 13 15 13.2239 15 13.5C15 13.7761 15.2239 14 15.5 14C15.2239 14 15 14.2239 15 14.5C15 14.2239 14.7761 14 14.5 14C14.2239 14 14 14.2239 14 14.5C14 14.7761 14.2239 15 14.5 15C14.2239 15 14 15.2239 14 15.5C14 15.2239 13.7761 15 13.5 15C13.2239 15 13 15.2239 13 15.5C13 15.7761 13.2239 16 13.5 16C13.2239 16 13 16.2239 13 16.5C13 16.2239 12.7761 16 12.5 16C12.2239 16 12 16.2239 12 16.5C12 16.7761 12.2239 17 12.5 17C12.2239 17 12 17.2239 12 17.5C12 17.2239 11.7761 17 11.5 17C11.2239 17 11 17.2239 11 17.5C11 17.7761 11.2239 18 11.5 18C11.2239 18 11 18.2239 11 18.5C11 18.7761 11.2239 19 11.5 19C11.7761 19 12 18.7761 12 18.5C12 18.7761 12.2239 19 12.5 19C12.7761 19 13 18.7761 13 18.5C13 18.2239 12.7761 18 12.5 18C12.7761 18 13 17.7761 13 17.5C13 17.7761 13.2239 18 13.5 18C13.7761 18 14 17.7761 14 17.5C14 17.2239 13.7761 17 13.5 17C13.7761 17 14 16.7761 14 16.5C14 16.7761 14.2239 17 14.5 17C14.7761 17 15 16.7761 15 16.5C15 16.2239 14.7761 16 14.5 16C14.7761 16 15 15.7761 15 15.5C15 15.7761 15.2239 16 15.5 16C15.7761 16 16 15.7761 16 15.5C16 15.2239 15.7761 15 15.5 15C15.7761 15 16 14.7761 16 14.5C16 14.7761 16.2239 15 16.5 15C16.7761 15 17 14.7761 17 14.5C17 14.2239 16.7761 14 16.5 14C16.7761 14 17 13.7761 17 13.5C17 13.7761 17.2239 14 17.5 14C17.7761 14 18 13.7761 18 13.5C18 13.2239 17.7761 13 17.5 13C17.7761 13 18 12.7761 18 12.5C18 12.7761 18.2239 13 18.5 13C18.7761 13 19 12.7761 19 12.5C19 12.2239 18.7761 12 18.5 12C18.7761 12 19 11.7761 19 11.5C19 11.2239 18.7761 11 18.5 11C18.2239 11 18 11.2239 18 11.5C18 11.2239 17.7761 11 17.5 11C17.7761 11 18 10.7761 18 10.5C18 10.2239 17.7761 10 17.5 10C17.2239 10 17 10.2239 17 10.5C17 10.2239 16.7761 10 16.5 10C16.7761 10 17 9.77614 17 9.5C17 9.22386 16.7761 9 16.5 9C16.2239 9 16 9.22386 16 9.5C16 9.22386 15.7761 9 15.5 9C15.7761 9 16 8.77614 16 8.5C16 8.22386 15.7761 8 15.5 8C15.2239 8 15 8.22386 15 8.5C15 8.22386 14.7761 8 14.5 8C14.7761 8 15 7.77614 15 7.5C15 7.22386 14.7761 7 14.5 7C14.2239 7 14 7.22386 14 7.5C14 7.22386 13.7761 7 13.5 7C13.7761 7 14 6.77614 14 6.5C14 6.22386 13.7761 6 13.5 6C13.2239 6 13 6.22386 13 6.5C13 6.22386 12.7761 6 12.5 6ZM12.5 6C12.7761 6 13 5.77614 13 5.5C13 5.22386 12.7761 5 12.5 5C12.2239 5 12 5.22386 12 5.5C12 5.77614 12.2239 6 12.5 6ZM13 6.5C13 6.77614 12.7761 7 12.5 7C12.7761 7 13 7.22386 13 7.5C13 7.22386 13.2239 7 13.5 7C13.2239 7 13 6.77614 13 6.5ZM14 7.5C14 7.77614 13.7761 8 13.5 8C13.7761 8 14 8.22386 14 8.5C14 8.22386 14.2239 8 14.5 8C14.2239 8 14 7.77614 14 7.5ZM15 8.5C15 8.77614 14.7761 9 14.5 9C14.7761 9 15 9.22386 15 9.5C15 9.22386 15.2239 9 15.5 9C15.2239 9 15 8.77614 15 8.5ZM16 10.5C16 10.7761 15.7761 11 15.5 11C15.7761 11 16 11.2239 16 11.5C16 11.7761 15.7761 12 15.5 12C15.2239 12 15 11.7761 15 11.5C15 11.7761 14.7761 12 14.5 12C14.2239 12 14 11.7761 14 11.5C14 11.7761 13.7761 12 13.5 12C13.2239 12 13 11.7761 13 11.5C13 11.7761 12.7761 12 12.5 12C12.2239 12 12 11.7761 12 11.5C12 11.7761 11.7761 12 11.5 12C11.2239 12 11 11.7761 11 11.5C11 11.7761 10.7761 12 10.5 12C10.2239 12 10 11.7761 10 11.5C10 11.7761 9.77614 12 9.5 12C9.22386 12 9 11.7761 9 11.5C9 11.7761 8.77614 12 8.5 12C8.22386 12 8 11.7761 8 11.5C8 11.7761 7.77614 12 7.5 12C7.22386 12 7 11.7761 7 11.5C7 11.7761 6.77614 12 6.5 12C6.22386 12 6 11.7761 6 11.5C6 11.7761 5.77614 12 5.5 12C5.77614 12 6 12.2239 6 12.5C6 12.2239 6.22386 12 6.5 12C6.77614 12 7 12.2239 7 12.5C7 12.2239 7.22386 12 7.5 12C7.77614 12 8 12.2239 8 12.5C8 12.2239 8.22386 12 8.5 12C8.77614 12 9 12.2239 9 12.5C9 12.2239 9.22386 12 9.5 12C9.77614 12 10 12.2239 10 12.5C10 12.2239 10.2239 12 10.5 12C10.7761 12 11 12.2239 11 12.5C11 12.2239 11.2239 12 11.5 12C11.7761 12 12 12.2239 12 12.5C12 12.2239 12.2239 12 12.5 12C12.7761 12 13 12.2239 13 12.5C13 12.2239 13.2239 12 13.5 12C13.7761 12 14 12.2239 14 12.5C14 12.2239 14.2239 12 14.5 12C14.7761 12 15 12.2239 15 12.5C15 12.2239 15.2239 12 15.5 12C15.7761 12 16 12.2239 16 12.5C16 12.7761 15.7761 13 15.5 13C15.7761 13 16 13.2239 16 13.5C16 13.7761 15.7761 14 15.5 14C15.7761 14 16 14.2239 16 14.5C16 14.2239 16.2239 14 16.5 14C16.2239 14 16 13.7761 16 13.5C16 13.2239 16.2239 13 16.5 13C16.7761 13 17 13.2239 17 13.5C17 13.2239 17.2239 13 17.5 13C17.2239 13 17 12.7761 17 12.5C17 12.2239 17.2239 12 17.5 12C17.7761 12 18 12.2239 18 12.5C18 12.2239 18.2239 12 18.5 12C18.2239 12 18 11.7761 18 11.5C18 11.7761 17.7761 12 17.5 12C17.2239 12 17 11.7761 17 11.5C17 11.2239 17.2239 11 17.5 11C17.2239 11 17 10.7761 17 10.5C17 10.7761 16.7761 11 16.5 11C16.2239 11 16 10.7761 16 10.5ZM16 10.5C16 10.2239 15.7761 10 15.5 10C15.7761 10 16 9.77614 16 9.5C16 9.77614 16.2239 10 16.5 10C16.2239 10 16 10.2239 16 10.5ZM16.5 12C16.2239 12 16 11.7761 16 11.5C16 11.2239 16.2239 11 16.5 11C16.7761 11 17 11.2239 17 11.5C17 11.7761 16.7761 12 16.5 12ZM16.5 12C16.7761 12 17 12.2239 17 12.5C17 12.7761 16.7761 13 16.5 13C16.2239 13 16 12.7761 16 12.5C16 12.2239 16.2239 12 16.5 12ZM15.5 15C15.2239 15 15 15.2239 15 15.5C15 15.2239 14.7761 15 14.5 15C14.7761 15 15 14.7761 15 14.5C15 14.7761 15.2239 15 15.5 15ZM14.5 16C14.2239 16 14 15.7761 14 15.5C14 15.7761 13.7761 16 13.5 16C13.7761 16 14 16.2239 14 16.5C14 16.2239 14.2239 16 14.5 16ZM13.5 17C13.2239 17 13 17.2239 13 17.5C13 17.2239 12.7761 17 12.5 17C12.7761 17 13 16.7761 13 16.5C13 16.7761 13.2239 17 13.5 17ZM12.5 18C12.2239 18 12 17.7761 12 17.5C12 17.7761 11.7761 18 11.5 18C11.7761 18 12 18.2239 12 18.5C12 18.2239 12.2239 18 12.5 18Z" fill="white"/>
</svg>
