<svg width="24" height="24" viewBox="0 0 24 24" fill="none" xmlns="http://www.w3.org/2000/svg">
<path fill-rule="evenodd" clip-rule="evenodd" d="M11.5 2C11.2239 2 11 2.22386 11 2.5C11 2.77614 11.2239 3 11.5 3C11.2239 3 11 3.22386 11 3.5C11 3.77614 11.2239 4 11.5 4C11.2239 4 11 4.22386 11 4.5C11 4.77614 11.2239 5 11.5 5C11.2239 5 11 5.22386 11 5.5C11 5.77614 11.2239 6 11.5 6C11.2239 6 11 6.22386 11 6.5C11 6.77614 11.2239 7 11.5 7C11.2239 7 11 7.22386 11 7.5C11 7.77614 11.2239 8 11.5 8C11.2239 8 11 8.22386 11 8.5C11 8.77614 11.2239 9 11.5 9C11.2239 9 11 9.22386 11 9.5C11 9.22386 10.7761 9 10.5 9C10.2239 9 10 9.22386 10 9.5C10 9.22386 9.77614 9 9.5 9C9.77614 9 10 8.77614 10 8.5C10 8.22386 9.77614 8 9.5 8C9.22386 8 9 8.22386 9 8.5C9 8.22386 8.77614 8 8.5 8C8.77614 8 9 7.77614 9 7.5C9 7.22386 8.77614 7 8.5 7C8.22386 7 8 7.22386 8 7.5C8 7.22386 7.77614 7 7.5 7C7.22386 7 7 7.22386 7 7.5C7 7.77614 7.22386 8 7.5 8C7.22386 8 7 8.22386 7 8.5C7 8.77614 7.22386 9 7.5 9C7.77614 9 8 8.77614 8 8.5C8 8.77614 8.22386 9 8.5 9C8.22386 9 8 9.22386 8 9.5C8 9.77614 8.22386 10 8.5 10C8.77614 10 9 9.77614 9 9.5C9 9.77614 9.22386 10 9.5 10C9.22386 10 9 10.2239 9 10.5C9 10.7761 9.22386 11 9.5 11C9.77614 11 10 10.7761 10 10.5C10 10.7761 10.2239 11 10.5 11C10.2239 11 10 11.2239 10 11.5C10 11.7761 10.2239 12 10.5 12C10.2239 12 10 12.2239 10 12.5C10 12.7761 10.2239 13 10.5 13C10.2239 13 10 13.2239 10 13.5C10 13.2239 9.77614 13 9.5 13C9.22386 13 9 13.2239 9 13.5C9 13.7761 9.22386 14 9.5 14C9.22386 14 9 14.2239 9 14.5C9 14.2239 8.77614 14 8.5 14C8.22386 14 8 14.2239 8 14.5C8 14.7761 8.22386 15 8.5 15C8.22386 15 8 15.2239 8 15.5C8 15.2239 7.77614 15 7.5 15C7.22386 15 7 15.2239 7 15.5C7 15.7761 7.22386 16 7.5 16C7.22386 16 7 16.2239 7 16.5C7 16.7761 7.22386 17 7.5 17C7.77614 17 8 16.7761 8 16.5C8 16.7761 8.22386 17 8.5 17C8.77614 17 9 16.7761 9 16.5C9 16.2239 8.77614 16 8.5 16C8.77614 16 9 15.7761 9 15.5C9 15.7761 9.22386 16 9.5 16C9.77614 16 10 15.7761 10 15.5C10 15.2239 9.77614 15 9.5 15C9.77614 15 10 14.7761 10 14.5C10 14.7761 10.2239 15 10.5 15C10.7761 15 11 14.7761 11 14.5C11 14.7761 11.2239 15 11.5 15C11.2239 15 11 15.2239 11 15.5C11 15.7761 11.2239 16 11.5 16C11.2239 16 11 16.2239 11 16.5C11 16.7761 11.2239 17 11.5 17C11.2239 17 11 17.2239 11 17.5C11 17.7761 11.2239 18 11.5 18C11.2239 18 11 18.2239 11 18.5C11 18.7761 11.2239 19 11.5 19C11.2239 19 11 19.2239 11 19.5C11 19.7761 11.2239 20 11.5 20C11.2239 20 11 20.2239 11 20.5C11 20.7761 11.2239 21 11.5 21C11.2239 21 11 21.2239 11 21.5C11 21.7761 11.2239 22 11.5 22C11.7761 22 12 21.7761 12 21.5C12 21.2239 11.7761 21 11.5 21C11.7761 21 12 20.7761 12 20.5C12 20.7761 12.2239 21 12.5 21C12.7761 21 13 20.7761 13 20.5C13 20.2239 12.7761 20 12.5 20C12.7761 20 13 19.7761 13 19.5C13 19.7761 13.2239 20 13.5 20C13.7761 20 14 19.7761 14 19.5C14 19.2239 13.7761 19 13.5 19C13.7761 19 14 18.7761 14 18.5C14 18.7761 14.2239 19 14.5 19C14.7761 19 15 18.7761 15 18.5C15 18.2239 14.7761 18 14.5 18C14.7761 18 15 17.7761 15 17.5C15 17.7761 15.2239 18 15.5 18C15.7761 18 16 17.7761 16 17.5C16 17.2239 15.7761 17 15.5 17C15.7761 17 16 16.7761 16 16.5C16 16.7761 16.2239 17 16.5 17C16.7761 17 17 16.7761 17 16.5C17 16.2239 16.7761 16 16.5 16C16.7761 16 17 15.7761 17 15.5C17 15.2239 16.7761 15 16.5 15C16.2239 15 16 15.2239 16 15.5C16 15.2239 15.7761 15 15.5 15C15.7761 15 16 14.7761 16 14.5C16 14.2239 15.7761 14 15.5 14C15.2239 14 15 14.2239 15 14.5C15 14.2239 14.7761 14 14.5 14C14.7761 14 15 13.7761 15 13.5C15 13.2239 14.7761 13 14.5 13C14.2239 13 14 13.2239 14 13.5C14 13.2239 13.7761 13 13.5 13C13.7761 13 14 12.7761 14 12.5C14 12.2239 13.7761 12 13.5 12C13.7761 12 14 11.7761 14 11.5C14 11.2239 13.7761 11 13.5 11C13.7761 11 14 10.7761 14 10.5C14 10.7761 14.2239 11 14.5 11C14.7761 11 15 10.7761 15 10.5C15 10.2239 14.7761 10 14.5 10C14.7761 10 15 9.77614 15 9.5C15 9.77614 15.2239 10 15.5 10C15.7761 10 16 9.77614 16 9.5C16 9.22386 15.7761 9 15.5 9C15.7761 9 16 8.77614 16 8.5C16 8.77614 16.2239 9 16.5 9C16.7761 9 17 8.77614 17 8.5C17 8.22386 16.7761 8 16.5 8C16.7761 8 17 7.77614 17 7.5C17 7.22386 16.7761 7 16.5 7C16.2239 7 16 7.22386 16 7.5C16 7.22386 15.7761 7 15.5 7C15.7761 7 16 6.77614 16 6.5C16 6.22386 15.7761 6 15.5 6C15.2239 6 15 6.22386 15 6.5C15 6.22386 14.7761 6 14.5 6C14.7761 6 15 5.77614 15 5.5C15 5.22386 14.7761 5 14.5 5C14.2239 5 14 5.22386 14 5.5C14 5.22386 13.7761 5 13.5 5C13.7761 5 14 4.77614 14 4.5C14 4.22386 13.7761 4 13.5 4C13.2239 4 13 4.22386 13 4.5C13 4.22386 12.7761 4 12.5 4C12.7761 4 13 3.77614 13 3.5C13 3.22386 12.7761 3 12.5 3C12.2239 3 12 3.22386 12 3.5C12 3.22386 11.7761 3 11.5 3C11.7761 3 12 2.77614 12 2.5C12 2.22386 11.7761 2 11.5 2ZM12 4.5C12 4.77614 11.7761 5 11.5 5C11.7761 5 12 5.22386 12 5.5C12 5.77614 11.7761 6 11.5 6C11.7761 6 12 6.22386 12 6.5C12 6.77614 11.7761 7 11.5 7C11.7761 7 12 7.22386 12 7.5C12 7.77614 11.7761 8 11.5 8C11.7761 8 12 8.22386 12 8.5C12 8.77614 11.7761 9 11.5 9C11.7761 9 12 9.22386 12 9.5C12 9.77614 11.7761 10 11.5 10C11.2239 10 11 9.77614 11 9.5C11 9.77614 10.7761 10 10.5 10C10.2239 10 10 9.77614 10 9.5C10 9.77614 9.77614 10 9.5 10C9.77614 10 10 10.2239 10 10.5C10 10.2239 10.2239 10 10.5 10C10.7761 10 11 10.2239 11 10.5C11 10.7761 10.7761 11 10.5 11C10.7761 11 11 11.2239 11 11.5C11 11.7761 10.7761 12 10.5 12C10.7761 12 11 12.2239 11 12.5C11 12.7761 10.7761 13 10.5 13C10.7761 13 11 13.2239 11 13.5C11 13.7761 10.7761 14 10.5 14C10.2239 14 10 13.7761 10 13.5C10 13.7761 9.77614 14 9.5 14C9.77614 14 10 14.2239 10 14.5C10 14.2239 10.2239 14 10.5 14C10.7761 14 11 14.2239 11 14.5C11 14.2239 11.2239 14 11.5 14C11.7761 14 12 14.2239 12 14.5C12 14.7761 11.7761 15 11.5 15C11.7761 15 12 15.2239 12 15.5C12 15.7761 11.7761 16 11.5 16C11.7761 16 12 16.2239 12 16.5C12 16.7761 11.7761 17 11.5 17C11.7761 17 12 17.2239 12 17.5C12 17.7761 11.7761 18 11.5 18C11.7761 18 12 18.2239 12 18.5C12 18.7761 11.7761 19 11.5 19C11.7761 19 12 19.2239 12 19.5C12 19.7761 11.7761 20 11.5 20C11.7761 20 12 20.2239 12 20.5C12 20.2239 12.2239 20 12.5 20C12.2239 20 12 19.7761 12 19.5C12 19.2239 12.2239 19 12.5 19C12.7761 19 13 19.2239 13 19.5C13 19.2239 13.2239 19 13.5 19C13.2239 19 13 18.7761 13 18.5C13 18.2239 13.2239 18 13.5 18C13.7761 18 14 18.2239 14 18.5C14 18.2239 14.2239 18 14.5 18C14.2239 18 14 17.7761 14 17.5C14 17.2239 14.2239 17 14.5 17C14.7761 17 15 17.2239 15 17.5C15 17.2239 15.2239 17 15.5 17C15.2239 17 15 16.7761 15 16.5C15 16.2239 15.2239 16 15.5 16C15.7761 16 16 16.2239 16 16.5C16 16.2239 16.2239 16 16.5 16C16.2239 16 16 15.7761 16 15.5C16 15.7761 15.7761 16 15.5 16C15.2239 16 15 15.7761 15 15.5C15 15.2239 15.2239 15 15.5 15C15.2239 15 15 14.7761 15 14.5C15 14.7761 14.7761 15 14.5 15C14.2239 15 14 14.7761 14 14.5C14 14.2239 14.2239 14 14.5 14C14.2239 14 14 13.7761 14 13.5C14 13.7761 13.7761 14 13.5 14C13.2239 14 13 13.7761 13 13.5C13 13.2239 13.2239 13 13.5 13C13.2239 13 13 12.7761 13 12.5C13 12.2239 13.2239 12 13.5 12C13.2239 12 13 11.7761 13 11.5C13 11.2239 13.2239 11 13.5 11C13.2239 11 13 10.7761 13 10.5C13 10.2239 13.2239 10 13.5 10C13.7761 10 14 10.2239 14 10.5C14 10.2239 14.2239 10 14.5 10C14.2239 10 14 9.77614 14 9.5C14 9.22386 14.2239 9 14.5 9C14.7761 9 15 9.22386 15 9.5C15 9.22386 15.2239 9 15.5 9C15.2239 9 15 8.77614 15 8.5C15 8.22386 15.2239 8 15.5 8C15.7761 8 16 8.22386 16 8.5C16 8.22386 16.2239 8 16.5 8C16.2239 8 16 7.77614 16 7.5C16 7.77614 15.7761 8 15.5 8C15.2239 8 15 7.77614 15 7.5C15 7.22386 15.2239 7 15.5 7C15.2239 7 15 6.77614 15 6.5C15 6.77614 14.7761 7 14.5 7C14.2239 7 14 6.77614 14 6.5C14 6.22386 14.2239 6 14.5 6C14.2239 6 14 5.77614 14 5.5C14 5.77614 13.7761 6 13.5 6C13.2239 6 13 5.77614 13 5.5C13 5.22386 13.2239 5 13.5 5C13.2239 5 13 4.77614 13 4.5C13 4.77614 12.7761 5 12.5 5C12.2239 5 12 4.77614 12 4.5ZM12 4.5C12 4.22386 11.7761 4 11.5 4C11.7761 4 12 3.77614 12 3.5C12 3.77614 12.2239 4 12.5 4C12.2239 4 12 4.22386 12 4.5ZM12.5 6C12.2239 6 12 6.22386 12 6.5C12 6.77614 12.2239 7 12.5 7C12.2239 7 12 7.22386 12 7.5C12 7.77614 12.2239 8 12.5 8C12.2239 8 12 8.22386 12 8.5C12 8.77614 12.2239 9 12.5 9C12.2239 9 12 9.22386 12 9.5C12 9.77614 12.2239 10 12.5 10C12.2239 10 12 10.2239 12 10.5C12 10.2239 11.7761 10 11.5 10C11.2239 10 11 10.2239 11 10.5C11 10.7761 11.2239 11 11.5 11C11.2239 11 11 11.2239 11 11.5C11 11.7761 11.2239 12 11.5 12C11.2239 12 11 12.2239 11 12.5C11 12.7761 11.2239 13 11.5 13C11.2239 13 11 13.2239 11 13.5C11 13.7761 11.2239 14 11.5 14C11.7761 14 12 13.7761 12 13.5C12 13.7761 12.2239 14 12.5 14C12.2239 14 12 14.2239 12 14.5C12 14.7761 12.2239 15 12.5 15C12.2239 15 12 15.2239 12 15.5C12 15.7761 12.2239 16 12.5 16C12.2239 16 12 16.2239 12 16.5C12 16.7761 12.2239 17 12.5 17C12.2239 17 12 17.2239 12 17.5C12 17.7761 12.2239 18 12.5 18C12.2239 18 12 18.2239 12 18.5C12 18.7761 12.2239 19 12.5 19C12.7761 19 13 18.7761 13 18.5C13 18.2239 12.7761 18 12.5 18C12.7761 18 13 17.7761 13 17.5C13 17.7761 13.2239 18 13.5 18C13.7761 18 14 17.7761 14 17.5C14 17.2239 13.7761 17 13.5 17C13.2239 17 13 17.2239 13 17.5C13 17.2239 12.7761 17 12.5 17C12.7761 17 13 16.7761 13 16.5C13 16.2239 12.7761 16 12.5 16C12.7761 16 13 15.7761 13 15.5C13 15.2239 12.7761 15 12.5 15C12.7761 15 13 14.7761 13 14.5C13 14.7761 13.2239 15 13.5 15C13.7761 15 14 14.7761 14 14.5C14 14.2239 13.7761 14 13.5 14C13.2239 14 13 14.2239 13 14.5C13 14.2239 12.7761 14 12.5 14C12.7761 14 13 13.7761 13 13.5C13 13.2239 12.7761 13 12.5 13C12.7761 13 13 12.7761 13 12.5C13 12.2239 12.7761 12 12.5 12C12.7761 12 13 11.7761 13 11.5C13 11.2239 12.7761 11 12.5 11C12.7761 11 13 10.7761 13 10.5C13 10.2239 12.7761 10 12.5 10C12.7761 10 13 9.77614 13 9.5C13 9.77614 13.2239 10 13.5 10C13.7761 10 14 9.77614 14 9.5C14 9.22386 13.7761 9 13.5 9C13.2239 9 13 9.22386 13 9.5C13 9.22386 12.7761 9 12.5 9C12.7761 9 13 8.77614 13 8.5C13 8.22386 12.7761 8 12.5 8C12.7761 8 13 7.77614 13 7.5C13 7.22386 12.7761 7 12.5 7C12.7761 7 13 6.77614 13 6.5C13 6.77614 13.2239 7 13.5 7C13.7761 7 14 6.77614 14 6.5C14 6.22386 13.7761 6 13.5 6C13.2239 6 13 6.22386 13 6.5C13 6.22386 12.7761 6 12.5 6ZM12.5 6C12.2239 6 12 5.77614 12 5.5C12 5.22386 12.2239 5 12.5 5C12.7761 5 13 5.22386 13 5.5C13 5.77614 12.7761 6 12.5 6ZM12 11.5C12 11.7761 11.7761 12 11.5 12C11.7761 12 12 12.2239 12 12.5C12 12.7761 11.7761 13 11.5 13C11.7761 13 12 13.2239 12 13.5C12 13.2239 12.2239 13 12.5 13C12.2239 13 12 12.7761 12 12.5C12 12.2239 12.2239 12 12.5 12C12.2239 12 12 11.7761 12 11.5ZM12 11.5C12 11.2239 12.2239 11 12.5 11C12.2239 11 12 10.7761 12 10.5C12 10.7761 11.7761 11 11.5 11C11.7761 11 12 11.2239 12 11.5ZM14.5 8C14.2239 8 14 8.22386 14 8.5C14 8.77614 14.2239 9 14.5 9C14.7761 9 15 8.77614 15 8.5C15 8.22386 14.7761 8 14.5 8ZM14.5 8C14.2239 8 14 7.77614 14 7.5C14 7.22386 14.2239 7 14.5 7C14.7761 7 15 7.22386 15 7.5C15 7.77614 14.7761 8 14.5 8ZM14.5 16C14.2239 16 14 16.2239 14 16.5C14 16.7761 14.2239 17 14.5 17C14.7761 17 15 16.7761 15 16.5C15 16.2239 14.7761 16 14.5 16ZM14.5 16C14.2239 16 14 15.7761 14 15.5C14 15.2239 14.2239 15 14.5 15C14.7761 15 15 15.2239 15 15.5C15 15.7761 14.7761 16 14.5 16ZM9.5 15C9.22386 15 9 15.2239 9 15.5C9 15.2239 8.77614 15 8.5 15C8.77614 15 9 14.7761 9 14.5C9 14.7761 9.22386 15 9.5 15ZM8.5 16C8.22386 16 8 15.7761 8 15.5C8 15.7761 7.77614 16 7.5 16C7.77614 16 8 16.2239 8 16.5C8 16.2239 8.22386 16 8.5 16ZM9 9.5C9 9.22386 9.22386 9 9.5 9C9.22386 9 9 8.77614 9 8.5C9 8.77614 8.77614 9 8.5 9C8.77614 9 9 9.22386 9 9.5ZM8 8.5C8 8.22386 7.77614 8 7.5 8C7.77614 8 8 7.77614 8 7.5C8 7.77614 8.22386 8 8.5 8C8.22386 8 8 8.22386 8 8.5Z" fill="white"/>
</svg>
