<svg width="24" height="24" viewBox="0 0 24 24" fill="none" xmlns="http://www.w3.org/2000/svg">
<path fill-rule="evenodd" clip-rule="evenodd" d="M9 6.5C9 6.22386 8.77614 6 8.5 6C8.22386 6 8 6.22386 8 6.5C8 6.77614 8.22386 7 8.5 7C8.22386 7 8 7.22386 8 7.5C8 7.77614 8.22386 8 8.5 8C8.77614 8 9 7.77614 9 7.5C9 7.77614 9.22386 8 9.5 8C9.22386 8 9 8.22386 9 8.5C9 8.77614 9.22386 9 9.5 9C9.77614 9 10 8.77614 10 8.5C10 8.77614 10.2239 9 10.5 9C10.2239 9 10 9.22386 10 9.5C10 9.77614 10.2239 10 10.5 10C10.7761 10 11 9.77614 11 9.5C11 9.77614 11.2239 10 11.5 10C11.2239 10 11 10.2239 11 10.5C11 10.7761 11.2239 11 11.5 11C11.7761 11 12 10.7761 12 10.5C12 10.7761 12.2239 11 12.5 11C12.2239 11 12 11.2239 12 11.5C12 11.7761 12.2239 12 12.5 12C12.2239 12 12 12.2239 12 12.5C12 12.7761 12.2239 13 12.5 13C12.2239 13 12 13.2239 12 13.5C12 13.2239 11.7761 13 11.5 13C11.2239 13 11 13.2239 11 13.5C11 13.7761 11.2239 14 11.5 14C11.2239 14 11 14.2239 11 14.5C11 14.2239 10.7761 14 10.5 14C10.2239 14 10 14.2239 10 14.5C10 14.7761 10.2239 15 10.5 15C10.2239 15 10 15.2239 10 15.5C10 15.2239 9.77614 15 9.5 15C9.22386 15 9 15.2239 9 15.5C9 15.7761 9.22386 16 9.5 16C9.22386 16 9 16.2239 9 16.5C9 16.2239 8.77614 16 8.5 16C8.22386 16 8 16.2239 8 16.5C8 16.7761 8.22386 17 8.5 17C8.22386 17 8 17.2239 8 17.5C8 17.7761 8.22386 18 8.5 18C8.77614 18 9 17.7761 9 17.5C9 17.7761 9.22386 18 9.5 18C9.77614 18 10 17.7761 10 17.5C10 17.2239 9.77614 17 9.5 17C9.77614 17 10 16.7761 10 16.5C10 16.7761 10.2239 17 10.5 17C10.7761 17 11 16.7761 11 16.5C11 16.2239 10.7761 16 10.5 16C10.7761 16 11 15.7761 11 15.5C11 15.7761 11.2239 16 11.5 16C11.7761 16 12 15.7761 12 15.5C12 15.2239 11.7761 15 11.5 15C11.7761 15 12 14.7761 12 14.5C12 14.7761 12.2239 15 12.5 15C12.7761 15 13 14.7761 13 14.5C13 14.2239 12.7761 14 12.5 14C12.7761 14 13 13.7761 13 13.5C13 13.7761 13.2239 14 13.5 14C13.7761 14 14 13.7761 14 13.5C14 13.2239 13.7761 13 13.5 13C13.7761 13 14 12.7761 14 12.5C14 12.7761 14.2239 13 14.5 13C14.7761 13 15 12.7761 15 12.5C15 12.2239 14.7761 12 14.5 12C14.7761 12 15 11.7761 15 11.5C15 11.2239 14.7761 11 14.5 11C14.2239 11 14 11.2239 14 11.5C14 11.2239 13.7761 11 13.5 11C13.7761 11 14 10.7761 14 10.5C14 10.2239 13.7761 10 13.5 10C13.2239 10 13 10.2239 13 10.5C13 10.2239 12.7761 10 12.5 10C12.7761 10 13 9.77614 13 9.5C13 9.22386 12.7761 9 12.5 9C12.2239 9 12 9.22386 12 9.5C12 9.22386 11.7761 9 11.5 9C11.7761 9 12 8.77614 12 8.5C12 8.22386 11.7761 8 11.5 8C11.2239 8 11 8.22386 11 8.5C11 8.22386 10.7761 8 10.5 8C10.7761 8 11 7.77614 11 7.5C11 7.22386 10.7761 7 10.5 7C10.2239 7 10 7.22386 10 7.5C10 7.22386 9.77614 7 9.5 7C9.77614 7 10 6.77614 10 6.5C10 6.22386 9.77614 6 9.5 6C9.22386 6 9 6.22386 9 6.5ZM9 6.5C9 6.77614 9.22386 7 9.5 7C9.22386 7 9 7.22386 9 7.5C9 7.22386 8.77614 7 8.5 7C8.77614 7 9 6.77614 9 6.5ZM10 7.5C10 7.77614 10.2239 8 10.5 8C10.2239 8 10 8.22386 10 8.5C10 8.22386 9.77614 8 9.5 8C9.77614 8 10 7.77614 10 7.5ZM11 8.5C11 8.77614 11.2239 9 11.5 9C11.2239 9 11 9.22386 11 9.5C11 9.22386 10.7761 9 10.5 9C10.7761 9 11 8.77614 11 8.5ZM12 9.5C12 9.77614 12.2239 10 12.5 10C12.2239 10 12 10.2239 12 10.5C12 10.2239 11.7761 10 11.5 10C11.7761 10 12 9.77614 12 9.5ZM13 11.5C13 11.7761 12.7761 12 12.5 12C12.7761 12 13 12.2239 13 12.5C13 12.7761 12.7761 13 12.5 13C12.7761 13 13 13.2239 13 13.5C13 13.2239 13.2239 13 13.5 13C13.2239 13 13 12.7761 13 12.5C13 12.2239 13.2239 12 13.5 12C13.7761 12 14 12.2239 14 12.5C14 12.2239 14.2239 12 14.5 12C14.2239 12 14 11.7761 14 11.5C14 11.7761 13.7761 12 13.5 12C13.2239 12 13 11.7761 13 11.5ZM13 11.5C13 11.2239 12.7761 11 12.5 11C12.7761 11 13 10.7761 13 10.5C13 10.7761 13.2239 11 13.5 11C13.2239 11 13 11.2239 13 11.5ZM12.5 14C12.2239 14 12 14.2239 12 14.5C12 14.2239 11.7761 14 11.5 14C11.7761 14 12 13.7761 12 13.5C12 13.7761 12.2239 14 12.5 14ZM11.5 15C11.2239 15 11 14.7761 11 14.5C11 14.7761 10.7761 15 10.5 15C10.7761 15 11 15.2239 11 15.5C11 15.2239 11.2239 15 11.5 15ZM10.5 16C10.2239 16 10 16.2239 10 16.5C10 16.2239 9.77614 16 9.5 16C9.77614 16 10 15.7761 10 15.5C10 15.7761 10.2239 16 10.5 16ZM9.5 17C9.22386 17 9 16.7761 9 16.5C9 16.7761 8.77614 17 8.5 17C8.77614 17 9 17.2239 9 17.5C9 17.2239 9.22386 17 9.5 17Z" fill="white"/>
</svg>
