<svg width="24" height="24" viewBox="0 0 24 24" fill="none" xmlns="http://www.w3.org/2000/svg">
<path fill-rule="evenodd" clip-rule="evenodd" d="M11 3.5C11 3.22386 11.2239 3 11.5 3C11.7761 3 12 3.22386 12 3.5C12 3.77614 11.7761 4 11.5 4C11.2239 4 11 3.77614 11 3.5ZM10.5 4C10.7761 4 11 3.77614 11 3.5C11 3.22386 10.7761 3 10.5 3C10.2239 3 10 3.22386 10 3.5C10 3.22386 9.77614 3 9.5 3C9.22386 3 9 3.22386 9 3.5C9 3.22386 8.77614 3 8.5 3C8.22386 3 8 3.22386 8 3.5C8 3.22386 7.77614 3 7.5 3C7.22386 3 7 3.22386 7 3.5C7 3.22386 6.77614 3 6.5 3C6.22386 3 6 3.22386 6 3.5C6 3.22386 5.77614 3 5.5 3C5.22386 3 5 3.22386 5 3.5C5 3.22386 4.77614 3 4.5 3C4.22386 3 4 3.22386 4 3.5C4 3.22386 3.77614 3 3.5 3C3.22386 3 3 3.22386 3 3.5C3 3.77614 3.22386 4 3.5 4C3.22386 4 3 4.22386 3 4.5C3 4.77614 3.22386 5 3.5 5C3.77614 5 4 4.77614 4 4.5C4 4.77614 4.22386 5 4.5 5C4.77614 5 5 4.77614 5 4.5C5 4.77614 5.22386 5 5.5 5C5.77614 5 6 4.77614 6 4.5C6 4.77614 6.22386 5 6.5 5C6.77614 5 7 4.77614 7 4.5C7 4.77614 7.22386 5 7.5 5C7.77614 5 8 4.77614 8 4.5C8 4.77614 8.22386 5 8.5 5C8.77614 5 9 4.77614 9 4.5C9 4.77614 9.22386 5 9.5 5C9.77614 5 10 4.77614 10 4.5C10 4.77614 10.2239 5 10.5 5C10.7761 5 11 4.77614 11 4.5C11 4.77614 11.2239 5 11.5 5C11.7761 5 12 4.77614 12 4.5C12 4.77614 12.2239 5 12.5 5C12.2239 5 12 5.22386 12 5.5C12 5.77614 12.2239 6 12.5 6C12.7761 6 13 5.77614 13 5.5C13 5.77614 13.2239 6 13.5 6C13.2239 6 13 6.22386 13 6.5C13 6.77614 13.2239 7 13.5 7C13.7761 7 14 6.77614 14 6.5C14 6.77614 14.2239 7 14.5 7C14.2239 7 14 7.22386 14 7.5C14 7.77614 14.2239 8 14.5 8C14.2239 8 14 8.22386 14 8.5C14 8.77614 14.2239 9 14.5 9C14.2239 9 14 9.22386 14 9.5C14 9.77614 14.2239 10 14.5 10C14.2239 10 14 10.2239 14 10.5C14 10.7761 14.2239 11 14.5 11C14.2239 11 14 11.2239 14 11.5C14 11.7761 14.2239 12 14.5 12C14.2239 12 14 12.2239 14 12.5C14 12.7761 14.2239 13 14.5 13C14.2239 13 14 13.2239 14 13.5C14 13.7761 14.2239 14 14.5 14C14.2239 14 14 14.2239 14 14.5C14 14.7761 14.2239 15 14.5 15C14.2239 15 14 15.2239 14 15.5C14 15.7761 14.2239 16 14.5 16C14.2239 16 14 16.2239 14 16.5C14 16.7761 14.2239 17 14.5 17C14.2239 17 14 17.2239 14 17.5C14 17.2239 13.7761 17 13.5 17C13.2239 17 13 17.2239 13 17.5C13 17.2239 12.7761 17 12.5 17C12.7761 17 13 16.7761 13 16.5C13 16.2239 12.7761 16 12.5 16C12.2239 16 12 16.2239 12 16.5C12 16.2239 11.7761 16 11.5 16C11.7761 16 12 15.7761 12 15.5C12 15.2239 11.7761 15 11.5 15C11.2239 15 11 15.2239 11 15.5C11 15.2239 10.7761 15 10.5 15C10.2239 15 10 15.2239 10 15.5C10 15.7761 10.2239 16 10.5 16C10.2239 16 10 16.2239 10 16.5C10 16.7761 10.2239 17 10.5 17C10.7761 17 11 16.7761 11 16.5C11 16.7761 11.2239 17 11.5 17C11.2239 17 11 17.2239 11 17.5C11 17.7761 11.2239 18 11.5 18C11.7761 18 12 17.7761 12 17.5C12 17.7761 12.2239 18 12.5 18C12.2239 18 12 18.2239 12 18.5C12 18.7761 12.2239 19 12.5 19C12.7761 19 13 18.7761 13 18.5C13 18.7761 13.2239 19 13.5 19C13.2239 19 13 19.2239 13 19.5C13 19.7761 13.2239 20 13.5 20C13.7761 20 14 19.7761 14 19.5C14 19.7761 14.2239 20 14.5 20C14.2239 20 14 20.2239 14 20.5C14 20.7761 14.2239 21 14.5 21C14.7761 21 15 20.7761 15 20.5C15 20.7761 15.2239 21 15.5 21C15.7761 21 16 20.7761 16 20.5C16 20.2239 15.7761 20 15.5 20C15.7761 20 16 19.7761 16 19.5C16 19.7761 16.2239 20 16.5 20C16.7761 20 17 19.7761 17 19.5C17 19.2239 16.7761 19 16.5 19C16.7761 19 17 18.7761 17 18.5C17 18.7761 17.2239 19 17.5 19C17.7761 19 18 18.7761 18 18.5C18 18.2239 17.7761 18 17.5 18C17.7761 18 18 17.7761 18 17.5C18 17.7761 18.2239 18 18.5 18C18.7761 18 19 17.7761 19 17.5C19 17.2239 18.7761 17 18.5 17C18.7761 17 19 16.7761 19 16.5C19 16.7761 19.2239 17 19.5 17C19.7761 17 20 16.7761 20 16.5C20 16.2239 19.7761 16 19.5 16C19.7761 16 20 15.7761 20 15.5C20 15.2239 19.7761 15 19.5 15C19.2239 15 19 15.2239 19 15.5C19 15.2239 18.7761 15 18.5 15C18.2239 15 18 15.2239 18 15.5C18 15.7761 18.2239 16 18.5 16C18.2239 16 18 16.2239 18 16.5C18 16.2239 17.7761 16 17.5 16C17.2239 16 17 16.2239 17 16.5C17 16.7761 17.2239 17 17.5 17C17.2239 17 17 17.2239 17 17.5C17 17.2239 16.7761 17 16.5 17C16.2239 17 16 17.2239 16 17.5C16 17.2239 15.7761 17 15.5 17C15.7761 17 16 16.7761 16 16.5C16 16.2239 15.7761 16 15.5 16C15.7761 16 16 15.7761 16 15.5C16 15.2239 15.7761 15 15.5 15C15.7761 15 16 14.7761 16 14.5C16 14.2239 15.7761 14 15.5 14C15.7761 14 16 13.7761 16 13.5C16 13.2239 15.7761 13 15.5 13C15.7761 13 16 12.7761 16 12.5C16 12.2239 15.7761 12 15.5 12C15.7761 12 16 11.7761 16 11.5C16 11.2239 15.7761 11 15.5 11C15.7761 11 16 10.7761 16 10.5C16 10.2239 15.7761 10 15.5 10C15.7761 10 16 9.77614 16 9.5C16 9.22386 15.7761 9 15.5 9C15.7761 9 16 8.77614 16 8.5C16 8.22386 15.7761 8 15.5 8C15.7761 8 16 7.77614 16 7.5C16 7.22386 15.7761 7 15.5 7C15.7761 7 16 6.77614 16 6.5C16 6.22386 15.7761 6 15.5 6C15.2239 6 15 6.22386 15 6.5C15 6.22386 14.7761 6 14.5 6C14.7761 6 15 5.77614 15 5.5C15 5.22386 14.7761 5 14.5 5C14.2239 5 14 5.22386 14 5.5C14 5.22386 13.7761 5 13.5 5C13.7761 5 14 4.77614 14 4.5C14 4.22386 13.7761 4 13.5 4C13.2239 4 13 4.22386 13 4.5C13 4.22386 12.7761 4 12.5 4C12.7761 4 13 3.77614 13 3.5C13 3.22386 12.7761 3 12.5 3C12.2239 3 12 3.22386 12 3.5C12 3.77614 12.2239 4 12.5 4C12.2239 4 12 4.22386 12 4.5C12 4.22386 11.7761 4 11.5 4C11.2239 4 11 4.22386 11 4.5C11 4.22386 10.7761 4 10.5 4ZM13 4.5C13 4.77614 12.7761 5 12.5 5C12.7761 5 13 5.22386 13 5.5C13 5.22386 13.2239 5 13.5 5C13.2239 5 13 4.77614 13 4.5ZM14 5.5C14 5.77614 14.2239 6 14.5 6C14.2239 6 14 6.22386 14 6.5C14 6.22386 13.7761 6 13.5 6C13.7761 6 14 5.77614 14 5.5ZM15 7.5C15 7.22386 14.7761 7 14.5 7C14.7761 7 15 6.77614 15 6.5C15 6.77614 15.2239 7 15.5 7C15.2239 7 15 7.22386 15 7.5ZM15 8.5C15 8.22386 14.7761 8 14.5 8C14.7761 8 15 7.77614 15 7.5C15 7.77614 15.2239 8 15.5 8C15.2239 8 15 8.22386 15 8.5ZM15 9.5C15 9.22386 14.7761 9 14.5 9C14.7761 9 15 8.77614 15 8.5C15 8.77614 15.2239 9 15.5 9C15.2239 9 15 9.22386 15 9.5ZM15 10.5C15 10.2239 14.7761 10 14.5 10C14.7761 10 15 9.77614 15 9.5C15 9.77614 15.2239 10 15.5 10C15.2239 10 15 10.2239 15 10.5ZM15 11.5C15 11.2239 14.7761 11 14.5 11C14.7761 11 15 10.7761 15 10.5C15 10.7761 15.2239 11 15.5 11C15.2239 11 15 11.2239 15 11.5ZM15 12.5C15 12.2239 14.7761 12 14.5 12C14.7761 12 15 11.7761 15 11.5C15 11.7761 15.2239 12 15.5 12C15.2239 12 15 12.2239 15 12.5ZM15 13.5C15 13.2239 14.7761 13 14.5 13C14.7761 13 15 12.7761 15 12.5C15 12.7761 15.2239 13 15.5 13C15.2239 13 15 13.2239 15 13.5ZM15 14.5C15 14.2239 14.7761 14 14.5 14C14.7761 14 15 13.7761 15 13.5C15 13.7761 15.2239 14 15.5 14C15.2239 14 15 14.2239 15 14.5ZM15 15.5C15 15.2239 14.7761 15 14.5 15C14.7761 15 15 14.7761 15 14.5C15 14.7761 15.2239 15 15.5 15C15.2239 15 15 15.2239 15 15.5ZM15 16.5C15 16.2239 14.7761 16 14.5 16C14.7761 16 15 15.7761 15 15.5C15 15.7761 15.2239 16 15.5 16C15.2239 16 15 16.2239 15 16.5ZM15 17.5C15 17.2239 14.7761 17 14.5 17C14.7761 17 15 16.7761 15 16.5C15 16.7761 15.2239 17 15.5 17C15.2239 17 15 17.2239 15 17.5ZM15.5 18C15.2239 18 15 17.7761 15 17.5C15 17.7761 14.7761 18 14.5 18C14.2239 18 14 17.7761 14 17.5C14 17.7761 13.7761 18 13.5 18C13.2239 18 13 17.7761 13 17.5C13 17.7761 12.7761 18 12.5 18C12.7761 18 13 18.2239 13 18.5C13 18.2239 13.2239 18 13.5 18C13.7761 18 14 18.2239 14 18.5C14 18.7761 13.7761 19 13.5 19C13.7761 19 14 19.2239 14 19.5C14 19.2239 14.2239 19 14.5 19C14.7761 19 15 19.2239 15 19.5C15 19.7761 14.7761 20 14.5 20C14.7761 20 15 20.2239 15 20.5C15 20.2239 15.2239 20 15.5 20C15.2239 20 15 19.7761 15 19.5C15 19.2239 15.2239 19 15.5 19C15.7761 19 16 19.2239 16 19.5C16 19.2239 16.2239 19 16.5 19C16.2239 19 16 18.7761 16 18.5C16 18.2239 16.2239 18 16.5 18C16.7761 18 17 18.2239 17 18.5C17 18.2239 17.2239 18 17.5 18C17.2239 18 17 17.7761 17 17.5C17 17.7761 16.7761 18 16.5 18C16.2239 18 16 17.7761 16 17.5C16 17.7761 15.7761 18 15.5 18ZM15 18.5C15 18.2239 14.7761 18 14.5 18C14.2239 18 14 18.2239 14 18.5C14 18.7761 14.2239 19 14.5 19C14.7761 19 15 18.7761 15 18.5ZM15 18.5C15 18.2239 15.2239 18 15.5 18C15.7761 18 16 18.2239 16 18.5C16 18.7761 15.7761 19 15.5 19C15.2239 19 15 18.7761 15 18.5ZM17.5 17C17.7761 17 18 16.7761 18 16.5C18 16.7761 18.2239 17 18.5 17C18.2239 17 18 17.2239 18 17.5C18 17.2239 17.7761 17 17.5 17ZM18.5 16C18.7761 16 19 16.2239 19 16.5C19 16.2239 19.2239 16 19.5 16C19.2239 16 19 15.7761 19 15.5C19 15.7761 18.7761 16 18.5 16ZM12 17.5C12 17.2239 12.2239 17 12.5 17C12.2239 17 12 16.7761 12 16.5C12 16.7761 11.7761 17 11.5 17C11.7761 17 12 17.2239 12 17.5ZM11 16.5C11 16.2239 11.2239 16 11.5 16C11.2239 16 11 15.7761 11 15.5C11 15.7761 10.7761 16 10.5 16C10.7761 16 11 16.2239 11 16.5ZM9.5 4C9.77614 4 10 3.77614 10 3.5C10 3.77614 10.2239 4 10.5 4C10.2239 4 10 4.22386 10 4.5C10 4.22386 9.77614 4 9.5 4ZM8.5 4C8.77614 4 9 3.77614 9 3.5C9 3.77614 9.22386 4 9.5 4C9.22386 4 9 4.22386 9 4.5C9 4.22386 8.77614 4 8.5 4ZM7.5 4C7.77614 4 8 3.77614 8 3.5C8 3.77614 8.22386 4 8.5 4C8.22386 4 8 4.22386 8 4.5C8 4.22386 7.77614 4 7.5 4ZM6.5 4C6.77614 4 7 3.77614 7 3.5C7 3.77614 7.22386 4 7.5 4C7.22386 4 7 4.22386 7 4.5C7 4.22386 6.77614 4 6.5 4ZM5.5 4C5.77614 4 6 3.77614 6 3.5C6 3.77614 6.22386 4 6.5 4C6.22386 4 6 4.22386 6 4.5C6 4.22386 5.77614 4 5.5 4ZM4.5 4C4.77614 4 5 3.77614 5 3.5C5 3.77614 5.22386 4 5.5 4C5.22386 4 5 4.22386 5 4.5C5 4.22386 4.77614 4 4.5 4ZM4.5 4C4.22386 4 4 4.22386 4 4.5C4 4.22386 3.77614 4 3.5 4C3.77614 4 4 3.77614 4 3.5C4 3.77614 4.22386 4 4.5 4Z" fill="white"/>
</svg>
