<svg width="24" height="24" viewBox="0 0 24 24" fill="none" xmlns="http://www.w3.org/2000/svg">
<path fill-rule="evenodd" clip-rule="evenodd" d="M11.5 4C11.2239 4 11 3.77614 11 3.5C11 3.22386 11.2239 3 11.5 3C11.7761 3 12 3.22386 12 3.5C12 3.77614 11.7761 4 11.5 4ZM12 4.5C12 4.22386 11.7761 4 11.5 4C11.2239 4 11 4.22386 11 4.5C11 4.22386 10.7761 4 10.5 4C10.7761 4 11 3.77614 11 3.5C11 3.22386 10.7761 3 10.5 3C10.2239 3 10 3.22386 10 3.5C10 3.77614 10.2239 4 10.5 4C10.2239 4 10 4.22386 10 4.5C10 4.22386 9.77614 4 9.5 4C9.22386 4 9 4.22386 9 4.5C9 4.22386 8.77614 4 8.5 4C8.22386 4 8 4.22386 8 4.5C8 4.77614 8.22386 5 8.5 5C8.22386 5 8 5.22386 8 5.5C8 5.22386 7.77614 5 7.5 5C7.22386 5 7 5.22386 7 5.5C7 5.22386 6.77614 5 6.5 5C6.22386 5 6 5.22386 6 5.5C6 5.77614 6.22386 6 6.5 6C6.22386 6 6 6.22386 6 6.5C6 6.22386 5.77614 6 5.5 6C5.22386 6 5 6.22386 5 6.5C5 6.22386 4.77614 6 4.5 6C4.22386 6 4 6.22386 4 6.5C4 6.77614 4.22386 7 4.5 7C4.22386 7 4 7.22386 4 7.5C4 7.22386 3.77614 7 3.5 7C3.22386 7 3 7.22386 3 7.5C3 7.77614 3.22386 8 3.5 8C3.22386 8 3 8.22386 3 8.5C3 8.77614 3.22386 9 3.5 9C3.77614 9 4 8.77614 4 8.5C4 8.77614 4.22386 9 4.5 9C4.22386 9 4 9.22386 4 9.5C4 9.77614 4.22386 10 4.5 10C4.77614 10 5 9.77614 5 9.5C5 9.77614 5.22386 10 5.5 10C5.77614 10 6 9.77614 6 9.5C6 9.77614 6.22386 10 6.5 10C6.22386 10 6 10.2239 6 10.5C6 10.7761 6.22386 11 6.5 11C6.77614 11 7 10.7761 7 10.5C7 10.7761 7.22386 11 7.5 11C7.77614 11 8 10.7761 8 10.5C8 10.7761 8.22386 11 8.5 11C8.22386 11 8 11.2239 8 11.5C8 11.7761 8.22386 12 8.5 12C8.77614 12 9 11.7761 9 11.5C9 11.7761 9.22386 12 9.5 12C9.77614 12 10 11.7761 10 11.5C10 11.7761 10.2239 12 10.5 12C10.2239 12 10 12.2239 10 12.5C10 12.7761 10.2239 13 10.5 13C10.7761 13 11 12.7761 11 12.5C11 12.7761 11.2239 13 11.5 13C11.7761 13 12 12.7761 12 12.5C12 12.7761 12.2239 13 12.5 13C12.7761 13 13 12.7761 13 12.5C13 12.7761 13.2239 13 13.5 13C13.7761 13 14 12.7761 14 12.5C14 12.2239 13.7761 12 13.5 12C13.7761 12 14 11.7761 14 11.5C14 11.7761 14.2239 12 14.5 12C14.7761 12 15 11.7761 15 11.5C15 11.7761 15.2239 12 15.5 12C15.7761 12 16 11.7761 16 11.5C16 11.2239 15.7761 11 15.5 11C15.7761 11 16 10.7761 16 10.5C16 10.7761 16.2239 11 16.5 11C16.7761 11 17 10.7761 17 10.5C17 10.7761 17.2239 11 17.5 11C17.7761 11 18 10.7761 18 10.5C18 10.2239 17.7761 10 17.5 10C17.7761 10 18 9.77614 18 9.5C18 9.77614 18.2239 10 18.5 10C18.7761 10 19 9.77614 19 9.5C19 9.77614 19.2239 10 19.5 10C19.7761 10 20 9.77614 20 9.5C20 9.22386 19.7761 9 19.5 9C19.7761 9 20 8.77614 20 8.5C20 8.77614 20.2239 9 20.5 9C20.7761 9 21 8.77614 21 8.5C21 8.22386 20.7761 8 20.5 8C20.7761 8 21 7.77614 21 7.5C21 7.22386 20.7761 7 20.5 7C20.2239 7 20 7.22386 20 7.5C20 7.22386 19.7761 7 19.5 7C19.7761 7 20 6.77614 20 6.5C20 6.22386 19.7761 6 19.5 6C19.2239 6 19 6.22386 19 6.5C19 6.22386 18.7761 6 18.5 6C18.2239 6 18 6.22386 18 6.5C18 6.22386 17.7761 6 17.5 6C17.7761 6 18 5.77614 18 5.5C18 5.22386 17.7761 5 17.5 5C17.2239 5 17 5.22386 17 5.5C17 5.22386 16.7761 5 16.5 5C16.2239 5 16 5.22386 16 5.5C16 5.22386 15.7761 5 15.5 5C15.7761 5 16 4.77614 16 4.5C16 4.22386 15.7761 4 15.5 4C15.2239 4 15 4.22386 15 4.5C15 4.22386 14.7761 4 14.5 4C14.2239 4 14 4.22386 14 4.5C14 4.22386 13.7761 4 13.5 4C13.7761 4 14 3.77614 14 3.5C14 3.22386 13.7761 3 13.5 3C13.2239 3 13 3.22386 13 3.5C13 3.22386 12.7761 3 12.5 3C12.2239 3 12 3.22386 12 3.5C12 3.77614 12.2239 4 12.5 4C12.2239 4 12 4.22386 12 4.5ZM13 4.5C13 4.77614 12.7761 5 12.5 5C12.2239 5 12 4.77614 12 4.5C12 4.77614 11.7761 5 11.5 5C11.2239 5 11 4.77614 11 4.5C11 4.77614 10.7761 5 10.5 5C10.2239 5 10 4.77614 10 4.5C10 4.77614 9.77614 5 9.5 5C9.22386 5 9 4.77614 9 4.5C9 4.77614 8.77614 5 8.5 5C8.77614 5 9 5.22386 9 5.5C9 5.77614 8.77614 6 8.5 6C8.22386 6 8 5.77614 8 5.5C8 5.77614 7.77614 6 7.5 6C7.22386 6 7 5.77614 7 5.5C7 5.77614 6.77614 6 6.5 6C6.77614 6 7 6.22386 7 6.5C7 6.77614 6.77614 7 6.5 7C6.22386 7 6 6.77614 6 6.5C6 6.77614 5.77614 7 5.5 7C5.22386 7 5 6.77614 5 6.5C5 6.77614 4.77614 7 4.5 7C4.77614 7 5 7.22386 5 7.5C5 7.77614 4.77614 8 4.5 8C4.22386 8 4 7.77614 4 7.5C4 7.77614 3.77614 8 3.5 8C3.77614 8 4 8.22386 4 8.5C4 8.22386 4.22386 8 4.5 8C4.77614 8 5 8.22386 5 8.5C5 8.77614 4.77614 9 4.5 9C4.77614 9 5 9.22386 5 9.5C5 9.22386 5.22386 9 5.5 9C5.77614 9 6 9.22386 6 9.5C6 9.22386 6.22386 9 6.5 9C6.77614 9 7 9.22386 7 9.5C7 9.77614 6.77614 10 6.5 10C6.77614 10 7 10.2239 7 10.5C7 10.2239 7.22386 10 7.5 10C7.77614 10 8 10.2239 8 10.5C8 10.2239 8.22386 10 8.5 10C8.77614 10 9 10.2239 9 10.5C9 10.7761 8.77614 11 8.5 11C8.77614 11 9 11.2239 9 11.5C9 11.2239 9.22386 11 9.5 11C9.77614 11 10 11.2239 10 11.5C10 11.2239 10.2239 11 10.5 11C10.7761 11 11 11.2239 11 11.5C11 11.7761 10.7761 12 10.5 12C10.7761 12 11 12.2239 11 12.5C11 12.2239 11.2239 12 11.5 12C11.7761 12 12 12.2239 12 12.5C12 12.2239 12.2239 12 12.5 12C12.7761 12 13 12.2239 13 12.5C13 12.2239 13.2239 12 13.5 12C13.2239 12 13 11.7761 13 11.5C13 11.2239 13.2239 11 13.5 11C13.7761 11 14 11.2239 14 11.5C14 11.2239 14.2239 11 14.5 11C14.7761 11 15 11.2239 15 11.5C15 11.2239 15.2239 11 15.5 11C15.2239 11 15 10.7761 15 10.5C15 10.2239 15.2239 10 15.5 10C15.7761 10 16 10.2239 16 10.5C16 10.2239 16.2239 10 16.5 10C16.7761 10 17 10.2239 17 10.5C17 10.2239 17.2239 10 17.5 10C17.2239 10 17 9.77614 17 9.5C17 9.22386 17.2239 9 17.5 9C17.7761 9 18 9.22386 18 9.5C18 9.22386 18.2239 9 18.5 9C18.7761 9 19 9.22386 19 9.5C19 9.22386 19.2239 9 19.5 9C19.2239 9 19 8.77614 19 8.5C19 8.22386 19.2239 8 19.5 8C19.7761 8 20 8.22386 20 8.5C20 8.22386 20.2239 8 20.5 8C20.2239 8 20 7.77614 20 7.5C20 7.77614 19.7761 8 19.5 8C19.2239 8 19 7.77614 19 7.5C19 7.22386 19.2239 7 19.5 7C19.2239 7 19 6.77614 19 6.5C19 6.77614 18.7761 7 18.5 7C18.2239 7 18 6.77614 18 6.5C18 6.77614 17.7761 7 17.5 7C17.2239 7 17 6.77614 17 6.5C17 6.22386 17.2239 6 17.5 6C17.2239 6 17 5.77614 17 5.5C17 5.77614 16.7761 6 16.5 6C16.2239 6 16 5.77614 16 5.5C16 5.77614 15.7761 6 15.5 6C15.2239 6 15 5.77614 15 5.5C15 5.22386 15.2239 5 15.5 5C15.2239 5 15 4.77614 15 4.5C15 4.77614 14.7761 5 14.5 5C14.2239 5 14 4.77614 14 4.5C14 4.77614 13.7761 5 13.5 5C13.2239 5 13 4.77614 13 4.5ZM14 5.5C14 5.77614 13.7761 6 13.5 6C13.2239 6 13 5.77614 13 5.5C13 5.22386 13.2239 5 13.5 5C13.7761 5 14 5.22386 14 5.5ZM14 5.5C14 5.77614 14.2239 6 14.5 6C14.7761 6 15 5.77614 15 5.5C15 5.22386 14.7761 5 14.5 5C14.2239 5 14 5.22386 14 5.5ZM13 4.5C13 4.22386 12.7761 4 12.5 4C12.7761 4 13 3.77614 13 3.5C13 3.77614 13.2239 4 13.5 4C13.2239 4 13 4.22386 13 4.5ZM16 6.5C16 6.77614 15.7761 7 15.5 7C15.2239 7 15 6.77614 15 6.5C15 6.22386 15.2239 6 15.5 6C15.7761 6 16 6.22386 16 6.5ZM16 6.5C16 6.77614 16.2239 7 16.5 7C16.7761 7 17 6.77614 17 6.5C17 6.22386 16.7761 6 16.5 6C16.2239 6 16 6.22386 16 6.5ZM18 7.5C18 7.22386 18.2239 7 18.5 7C18.7761 7 19 7.22386 19 7.5C19 7.77614 18.7761 8 18.5 8C18.2239 8 18 7.77614 18 7.5ZM17.5 8C17.2239 8 17 7.77614 17 7.5C17 7.22386 17.2239 7 17.5 7C17.7761 7 18 7.22386 18 7.5C18 7.77614 17.7761 8 17.5 8ZM18 8.5C18 8.22386 18.2239 8 18.5 8C18.7761 8 19 8.22386 19 8.5C19 8.77614 18.7761 9 18.5 9C18.2239 9 18 8.77614 18 8.5ZM18 8.5C18 8.22386 17.7761 8 17.5 8C17.2239 8 17 8.22386 17 8.5C17 8.77614 17.2239 9 17.5 9C17.7761 9 18 8.77614 18 8.5ZM16 9.5C16 9.22386 15.7761 9 15.5 9C15.2239 9 15 9.22386 15 9.5C15 9.77614 15.2239 10 15.5 10C15.7761 10 16 9.77614 16 9.5ZM16 9.5C16 9.22386 16.2239 9 16.5 9C16.7761 9 17 9.22386 17 9.5C17 9.77614 16.7761 10 16.5 10C16.2239 10 16 9.77614 16 9.5ZM14 10.5C14 10.2239 13.7761 10 13.5 10C13.2239 10 13 10.2239 13 10.5C13 10.7761 13.2239 11 13.5 11C13.7761 11 14 10.7761 14 10.5ZM14 10.5C14 10.2239 14.2239 10 14.5 10C14.7761 10 15 10.2239 15 10.5C15 10.7761 14.7761 11 14.5 11C14.2239 11 14 10.7761 14 10.5ZM12 11.5C12 11.2239 11.7761 11 11.5 11C11.2239 11 11 11.2239 11 11.5C11 11.7761 11.2239 12 11.5 12C11.7761 12 12 11.7761 12 11.5ZM12 11.5C12 11.2239 12.2239 11 12.5 11C12.7761 11 13 11.2239 13 11.5C13 11.7761 12.7761 12 12.5 12C12.2239 12 12 11.7761 12 11.5ZM10 10.5C10 10.2239 10.2239 10 10.5 10C10.7761 10 11 10.2239 11 10.5C11 10.7761 10.7761 11 10.5 11C10.2239 11 10 10.7761 10 10.5ZM10 10.5C10 10.2239 9.77614 10 9.5 10C9.22386 10 9 10.2239 9 10.5C9 10.7761 9.22386 11 9.5 11C9.77614 11 10 10.7761 10 10.5ZM8 9.5C8 9.22386 8.22386 9 8.5 9C8.77614 9 9 9.22386 9 9.5C9 9.77614 8.77614 10 8.5 10C8.22386 10 8 9.77614 8 9.5ZM8 9.5C8 9.22386 7.77614 9 7.5 9C7.22386 9 7 9.22386 7 9.5C7 9.77614 7.22386 10 7.5 10C7.77614 10 8 9.77614 8 9.5ZM6 8.5C6 8.77614 6.22386 9 6.5 9C6.77614 9 7 8.77614 7 8.5C7 8.22386 6.77614 8 6.5 8C6.77614 8 7 7.77614 7 7.5C7 7.22386 6.77614 7 6.5 7C6.22386 7 6 7.22386 6 7.5C6 7.22386 5.77614 7 5.5 7C5.22386 7 5 7.22386 5 7.5C5 7.77614 5.22386 8 5.5 8C5.22386 8 5 8.22386 5 8.5C5 8.77614 5.22386 9 5.5 9C5.77614 9 6 8.77614 6 8.5ZM6 8.5C6 8.22386 5.77614 8 5.5 8C5.77614 8 6 7.77614 6 7.5C6 7.77614 6.22386 8 6.5 8C6.22386 8 6 8.22386 6 8.5ZM8 6.5C8 6.77614 8.22386 7 8.5 7C8.77614 7 9 6.77614 9 6.5C9 6.22386 8.77614 6 8.5 6C8.22386 6 8 6.22386 8 6.5ZM8 6.5C8 6.77614 7.77614 7 7.5 7C7.22386 7 7 6.77614 7 6.5C7 6.22386 7.22386 6 7.5 6C7.77614 6 8 6.22386 8 6.5ZM10 5.5C10 5.77614 10.2239 6 10.5 6C10.7761 6 11 5.77614 11 5.5C11 5.22386 10.7761 5 10.5 5C10.2239 5 10 5.22386 10 5.5ZM10 5.5C10 5.77614 9.77614 6 9.5 6C9.22386 6 9 5.77614 9 5.5C9 5.22386 9.22386 5 9.5 5C9.77614 5 10 5.22386 10 5.5ZM12.5 15C12.2239 15 12 15.2239 12 15.5C12 15.2239 11.7761 15 11.5 15C11.2239 15 11 15.2239 11 15.5C11 15.2239 10.7761 15 10.5 15C10.7761 15 11 14.7761 11 14.5C11 14.2239 10.7761 14 10.5 14C10.2239 14 10 14.2239 10 14.5C10 14.2239 9.77614 14 9.5 14C9.22386 14 9 14.2239 9 14.5C9 14.2239 8.77614 14 8.5 14C8.77614 14 9 13.7761 9 13.5C9 13.2239 8.77614 13 8.5 13C8.22386 13 8 13.2239 8 13.5C8 13.2239 7.77614 13 7.5 13C7.22386 13 7 13.2239 7 13.5C7 13.2239 6.77614 13 6.5 13C6.77614 13 7 12.7761 7 12.5C7 12.2239 6.77614 12 6.5 12C6.22386 12 6 12.2239 6 12.5C6 12.2239 5.77614 12 5.5 12C5.22386 12 5 12.2239 5 12.5C5 12.2239 4.77614 12 4.5 12C4.77614 12 5 11.7761 5 11.5C5 11.2239 4.77614 11 4.5 11C4.22386 11 4 11.2239 4 11.5C4 11.2239 3.77614 11 3.5 11C3.22386 11 3 11.2239 3 11.5C3 11.7761 3.22386 12 3.5 12C3.22386 12 3 12.2239 3 12.5C3 12.7761 3.22386 13 3.5 13C3.77614 13 4 12.7761 4 12.5C4 12.7761 4.22386 13 4.5 13C4.22386 13 4 13.2239 4 13.5C4 13.7761 4.22386 14 4.5 14C4.77614 14 5 13.7761 5 13.5C5 13.7761 5.22386 14 5.5 14C5.77614 14 6 13.7761 6 13.5C6 13.7761 6.22386 14 6.5 14C6.22386 14 6 14.2239 6 14.5C6 14.7761 6.22386 15 6.5 15C6.77614 15 7 14.7761 7 14.5C7 14.7761 7.22386 15 7.5 15C7.77614 15 8 14.7761 8 14.5C8 14.7761 8.22386 15 8.5 15C8.22386 15 8 15.2239 8 15.5C8 15.7761 8.22386 16 8.5 16C8.77614 16 9 15.7761 9 15.5C9 15.7761 9.22386 16 9.5 16C9.77614 16 10 15.7761 10 15.5C10 15.7761 10.2239 16 10.5 16C10.2239 16 10 16.2239 10 16.5C10 16.7761 10.2239 17 10.5 17C10.7761 17 11 16.7761 11 16.5C11 16.7761 11.2239 17 11.5 17C11.7761 17 12 16.7761 12 16.5C12 16.7761 12.2239 17 12.5 17C12.7761 17 13 16.7761 13 16.5C13 16.7761 13.2239 17 13.5 17C13.7761 17 14 16.7761 14 16.5C14 16.2239 13.7761 16 13.5 16C13.7761 16 14 15.7761 14 15.5C14 15.7761 14.2239 16 14.5 16C14.7761 16 15 15.7761 15 15.5C15 15.7761 15.2239 16 15.5 16C15.7761 16 16 15.7761 16 15.5C16 15.2239 15.7761 15 15.5 15C15.7761 15 16 14.7761 16 14.5C16 14.7761 16.2239 15 16.5 15C16.7761 15 17 14.7761 17 14.5C17 14.7761 17.2239 15 17.5 15C17.7761 15 18 14.7761 18 14.5C18 14.2239 17.7761 14 17.5 14C17.7761 14 18 13.7761 18 13.5C18 13.7761 18.2239 14 18.5 14C18.7761 14 19 13.7761 19 13.5C19 13.7761 19.2239 14 19.5 14C19.7761 14 20 13.7761 20 13.5C20 13.2239 19.7761 13 19.5 13C19.7761 13 20 12.7761 20 12.5C20 12.7761 20.2239 13 20.5 13C20.7761 13 21 12.7761 21 12.5C21 12.2239 20.7761 12 20.5 12C20.7761 12 21 11.7761 21 11.5C21 11.2239 20.7761 11 20.5 11C20.2239 11 20 11.2239 20 11.5C20 11.2239 19.7761 11 19.5 11C19.2239 11 19 11.2239 19 11.5C19 11.7761 19.2239 12 19.5 12C19.2239 12 19 12.2239 19 12.5C19 12.2239 18.7761 12 18.5 12C18.2239 12 18 12.2239 18 12.5C18 12.2239 17.7761 12 17.5 12C17.2239 12 17 12.2239 17 12.5C17 12.7761 17.2239 13 17.5 13C17.2239 13 17 13.2239 17 13.5C17 13.2239 16.7761 13 16.5 13C16.2239 13 16 13.2239 16 13.5C16 13.2239 15.7761 13 15.5 13C15.2239 13 15 13.2239 15 13.5C15 13.7761 15.2239 14 15.5 14C15.2239 14 15 14.2239 15 14.5C15 14.2239 14.7761 14 14.5 14C14.2239 14 14 14.2239 14 14.5C14 14.2239 13.7761 14 13.5 14C13.2239 14 13 14.2239 13 14.5C13 14.7761 13.2239 15 13.5 15C13.2239 15 13 15.2239 13 15.5C13 15.2239 12.7761 15 12.5 15ZM12.5 16C12.2239 16 12 15.7761 12 15.5C12 15.7761 11.7761 16 11.5 16C11.2239 16 11 15.7761 11 15.5C11 15.7761 10.7761 16 10.5 16C10.7761 16 11 16.2239 11 16.5C11 16.2239 11.2239 16 11.5 16C11.7761 16 12 16.2239 12 16.5C12 16.2239 12.2239 16 12.5 16ZM12.5 16C12.7761 16 13 15.7761 13 15.5C13 15.7761 13.2239 16 13.5 16C13.2239 16 13 16.2239 13 16.5C13 16.2239 12.7761 16 12.5 16ZM14.5 15C14.7761 15 15 14.7761 15 14.5C15 14.7761 15.2239 15 15.5 15C15.2239 15 15 15.2239 15 15.5C15 15.2239 14.7761 15 14.5 15ZM14.5 15C14.2239 15 14 14.7761 14 14.5C14 14.7761 13.7761 15 13.5 15C13.7761 15 14 15.2239 14 15.5C14 15.2239 14.2239 15 14.5 15ZM16.5 14C16.7761 14 17 13.7761 17 13.5C17 13.7761 17.2239 14 17.5 14C17.2239 14 17 14.2239 17 14.5C17 14.2239 16.7761 14 16.5 14ZM16.5 14C16.2239 14 16 13.7761 16 13.5C16 13.7761 15.7761 14 15.5 14C15.7761 14 16 14.2239 16 14.5C16 14.2239 16.2239 14 16.5 14ZM18.5 13C18.7761 13 19 12.7761 19 12.5C19 12.7761 19.2239 13 19.5 13C19.2239 13 19 13.2239 19 13.5C19 13.2239 18.7761 13 18.5 13ZM18.5 13C18.2239 13 18 12.7761 18 12.5C18 12.7761 17.7761 13 17.5 13C17.7761 13 18 13.2239 18 13.5C18 13.2239 18.2239 13 18.5 13ZM19.5 12C19.7761 12 20 12.2239 20 12.5C20 12.2239 20.2239 12 20.5 12C20.2239 12 20 11.7761 20 11.5C20 11.7761 19.7761 12 19.5 12ZM9.5 15C9.22386 15 9 15.2239 9 15.5C9 15.2239 8.77614 15 8.5 15C8.77614 15 9 14.7761 9 14.5C9 14.7761 9.22386 15 9.5 15ZM9.5 15C9.77614 15 10 15.2239 10 15.5C10 15.2239 10.2239 15 10.5 15C10.2239 15 10 14.7761 10 14.5C10 14.7761 9.77614 15 9.5 15ZM7.5 14C7.22386 14 7 14.2239 7 14.5C7 14.2239 6.77614 14 6.5 14C6.77614 14 7 13.7761 7 13.5C7 13.7761 7.22386 14 7.5 14ZM7.5 14C7.77614 14 8 14.2239 8 14.5C8 14.2239 8.22386 14 8.5 14C8.22386 14 8 13.7761 8 13.5C8 13.7761 7.77614 14 7.5 14ZM5.5 13C5.22386 13 5 13.2239 5 13.5C5 13.2239 4.77614 13 4.5 13C4.77614 13 5 12.7761 5 12.5C5 12.7761 5.22386 13 5.5 13ZM5.5 13C5.77614 13 6 13.2239 6 13.5C6 13.2239 6.22386 13 6.5 13C6.22386 13 6 12.7761 6 12.5C6 12.7761 5.77614 13 5.5 13ZM4 12.5C4 12.2239 3.77614 12 3.5 12C3.77614 12 4 11.7761 4 11.5C4 11.7761 4.22386 12 4.5 12C4.22386 12 4 12.2239 4 12.5ZM12.5 19C12.2239 19 12 19.2239 12 19.5C12 19.2239 11.7761 19 11.5 19C11.2239 19 11 19.2239 11 19.5C11 19.2239 10.7761 19 10.5 19C10.7761 19 11 18.7761 11 18.5C11 18.2239 10.7761 18 10.5 18C10.2239 18 10 18.2239 10 18.5C10 18.2239 9.77614 18 9.5 18C9.22386 18 9 18.2239 9 18.5C9 18.2239 8.77614 18 8.5 18C8.77614 18 9 17.7761 9 17.5C9 17.2239 8.77614 17 8.5 17C8.22386 17 8 17.2239 8 17.5C8 17.2239 7.77614 17 7.5 17C7.22386 17 7 17.2239 7 17.5C7 17.2239 6.77614 17 6.5 17C6.77614 17 7 16.7761 7 16.5C7 16.2239 6.77614 16 6.5 16C6.22386 16 6 16.2239 6 16.5C6 16.2239 5.77614 16 5.5 16C5.22386 16 5 16.2239 5 16.5C5 16.2239 4.77614 16 4.5 16C4.77614 16 5 15.7761 5 15.5C5 15.2239 4.77614 15 4.5 15C4.22386 15 4 15.2239 4 15.5C4 15.2239 3.77614 15 3.5 15C3.22386 15 3 15.2239 3 15.5C3 15.7761 3.22386 16 3.5 16C3.22386 16 3 16.2239 3 16.5C3 16.7761 3.22386 17 3.5 17C3.77614 17 4 16.7761 4 16.5C4 16.7761 4.22386 17 4.5 17C4.22386 17 4 17.2239 4 17.5C4 17.7761 4.22386 18 4.5 18C4.77614 18 5 17.7761 5 17.5C5 17.7761 5.22386 18 5.5 18C5.77614 18 6 17.7761 6 17.5C6 17.7761 6.22386 18 6.5 18C6.22386 18 6 18.2239 6 18.5C6 18.7761 6.22386 19 6.5 19C6.77614 19 7 18.7761 7 18.5C7 18.7761 7.22386 19 7.5 19C7.77614 19 8 18.7761 8 18.5C8 18.7761 8.22386 19 8.5 19C8.22386 19 8 19.2239 8 19.5C8 19.7761 8.22386 20 8.5 20C8.77614 20 9 19.7761 9 19.5C9 19.7761 9.22386 20 9.5 20C9.77614 20 10 19.7761 10 19.5C10 19.7761 10.2239 20 10.5 20C10.2239 20 10 20.2239 10 20.5C10 20.7761 10.2239 21 10.5 21C10.7761 21 11 20.7761 11 20.5C11 20.7761 11.2239 21 11.5 21C11.7761 21 12 20.7761 12 20.5C12 20.7761 12.2239 21 12.5 21C12.7761 21 13 20.7761 13 20.5C13 20.7761 13.2239 21 13.5 21C13.7761 21 14 20.7761 14 20.5C14 20.2239 13.7761 20 13.5 20C13.7761 20 14 19.7761 14 19.5C14 19.7761 14.2239 20 14.5 20C14.7761 20 15 19.7761 15 19.5C15 19.7761 15.2239 20 15.5 20C15.7761 20 16 19.7761 16 19.5C16 19.2239 15.7761 19 15.5 19C15.7761 19 16 18.7761 16 18.5C16 18.7761 16.2239 19 16.5 19C16.7761 19 17 18.7761 17 18.5C17 18.7761 17.2239 19 17.5 19C17.7761 19 18 18.7761 18 18.5C18 18.2239 17.7761 18 17.5 18C17.7761 18 18 17.7761 18 17.5C18 17.7761 18.2239 18 18.5 18C18.7761 18 19 17.7761 19 17.5C19 17.7761 19.2239 18 19.5 18C19.7761 18 20 17.7761 20 17.5C20 17.2239 19.7761 17 19.5 17C19.7761 17 20 16.7761 20 16.5C20 16.7761 20.2239 17 20.5 17C20.7761 17 21 16.7761 21 16.5C21 16.2239 20.7761 16 20.5 16C20.7761 16 21 15.7761 21 15.5C21 15.2239 20.7761 15 20.5 15C20.2239 15 20 15.2239 20 15.5C20 15.2239 19.7761 15 19.5 15C19.2239 15 19 15.2239 19 15.5C19 15.7761 19.2239 16 19.5 16C19.2239 16 19 16.2239 19 16.5C19 16.2239 18.7761 16 18.5 16C18.2239 16 18 16.2239 18 16.5C18 16.2239 17.7761 16 17.5 16C17.2239 16 17 16.2239 17 16.5C17 16.7761 17.2239 17 17.5 17C17.2239 17 17 17.2239 17 17.5C17 17.2239 16.7761 17 16.5 17C16.2239 17 16 17.2239 16 17.5C16 17.2239 15.7761 17 15.5 17C15.2239 17 15 17.2239 15 17.5C15 17.7761 15.2239 18 15.5 18C15.2239 18 15 18.2239 15 18.5C15 18.2239 14.7761 18 14.5 18C14.2239 18 14 18.2239 14 18.5C14 18.2239 13.7761 18 13.5 18C13.2239 18 13 18.2239 13 18.5C13 18.7761 13.2239 19 13.5 19C13.2239 19 13 19.2239 13 19.5C13 19.2239 12.7761 19 12.5 19ZM12.5 20C12.2239 20 12 19.7761 12 19.5C12 19.7761 11.7761 20 11.5 20C11.2239 20 11 19.7761 11 19.5C11 19.7761 10.7761 20 10.5 20C10.7761 20 11 20.2239 11 20.5C11 20.2239 11.2239 20 11.5 20C11.7761 20 12 20.2239 12 20.5C12 20.2239 12.2239 20 12.5 20ZM12.5 20C12.7761 20 13 19.7761 13 19.5C13 19.7761 13.2239 20 13.5 20C13.2239 20 13 20.2239 13 20.5C13 20.2239 12.7761 20 12.5 20ZM14.5 19C14.2239 19 14 19.2239 14 19.5C14 19.2239 13.7761 19 13.5 19C13.7761 19 14 18.7761 14 18.5C14 18.7761 14.2239 19 14.5 19ZM14.5 19C14.7761 19 15 19.2239 15 19.5C15 19.2239 15.2239 19 15.5 19C15.2239 19 15 18.7761 15 18.5C15 18.7761 14.7761 19 14.5 19ZM16.5 18C16.2239 18 16 18.2239 16 18.5C16 18.2239 15.7761 18 15.5 18C15.7761 18 16 17.7761 16 17.5C16 17.7761 16.2239 18 16.5 18ZM16.5 18C16.7761 18 17 18.2239 17 18.5C17 18.2239 17.2239 18 17.5 18C17.2239 18 17 17.7761 17 17.5C17 17.7761 16.7761 18 16.5 18ZM18.5 17C18.2239 17 18 17.2239 18 17.5C18 17.2239 17.7761 17 17.5 17C17.7761 17 18 16.7761 18 16.5C18 16.7761 18.2239 17 18.5 17ZM18.5 17C18.7761 17 19 17.2239 19 17.5C19 17.2239 19.2239 17 19.5 17C19.2239 17 19 16.7761 19 16.5C19 16.7761 18.7761 17 18.5 17ZM19.5 16C19.7761 16 20 15.7761 20 15.5C20 15.7761 20.2239 16 20.5 16C20.2239 16 20 16.2239 20 16.5C20 16.2239 19.7761 16 19.5 16ZM9.5 19C9.77614 19 10 18.7761 10 18.5C10 18.7761 10.2239 19 10.5 19C10.2239 19 10 19.2239 10 19.5C10 19.2239 9.77614 19 9.5 19ZM9.5 19C9.22386 19 9 18.7761 9 18.5C9 18.7761 8.77614 19 8.5 19C8.77614 19 9 19.2239 9 19.5C9 19.2239 9.22386 19 9.5 19ZM7.5 18C7.77614 18 8 17.7761 8 17.5C8 17.7761 8.22386 18 8.5 18C8.22386 18 8 18.2239 8 18.5C8 18.2239 7.77614 18 7.5 18ZM7.5 18C7.22386 18 7 17.7761 7 17.5C7 17.7761 6.77614 18 6.5 18C6.77614 18 7 18.2239 7 18.5C7 18.2239 7.22386 18 7.5 18ZM5.5 17C5.77614 17 6 16.7761 6 16.5C6 16.7761 6.22386 17 6.5 17C6.22386 17 6 17.2239 6 17.5C6 17.2239 5.77614 17 5.5 17ZM5.5 17C5.22386 17 5 16.7761 5 16.5C5 16.7761 4.77614 17 4.5 17C4.77614 17 5 17.2239 5 17.5C5 17.2239 5.22386 17 5.5 17ZM4 16.5C4 16.2239 4.22386 16 4.5 16C4.22386 16 4 15.7761 4 15.5C4 15.7761 3.77614 16 3.5 16C3.77614 16 4 16.2239 4 16.5Z" fill="white"/>
</svg>
