<svg width="24" height="24" viewBox="0 0 24 24" fill="none" xmlns="http://www.w3.org/2000/svg">
<path fill-rule="evenodd" clip-rule="evenodd" d="M11 2.5C11 2.22386 11.2239 2 11.5 2C11.7761 2 12 2.22386 12 2.5C12 2.77614 11.7761 3 11.5 3C11.2239 3 11 2.77614 11 2.5ZM12 3.5C12 3.22386 11.7761 3 11.5 3C11.2239 3 11 3.22386 11 3.5C11 3.22386 10.7761 3 10.5 3C10.2239 3 10 3.22386 10 3.5C10 3.22386 9.77614 3 9.5 3C9.22386 3 9 3.22386 9 3.5C9 3.77614 9.22386 4 9.5 4C9.22386 4 9 4.22386 9 4.5C9 4.77614 9.22386 5 9.5 5C9.77614 5 10 4.77614 10 4.5C10 4.77614 10.2239 5 10.5 5C10.7761 5 11 4.77614 11 4.5C11 4.22386 10.7761 4 10.5 4C10.7761 4 11 3.77614 11 3.5C11 3.77614 11.2239 4 11.5 4C11.7761 4 12 3.77614 12 3.5ZM12.5 3C12.2239 3 12 3.22386 12 3.5C12 3.77614 12.2239 4 12.5 4C12.7761 4 13 3.77614 13 3.5C13 3.77614 13.2239 4 13.5 4C13.2239 4 13 4.22386 13 4.5C13 4.77614 13.2239 5 13.5 5C13.7761 5 14 4.77614 14 4.5C14 4.77614 14.2239 5 14.5 5C14.2239 5 14 5.22386 14 5.5C14 5.77614 14.2239 6 14.5 6C14.2239 6 14 6.22386 14 6.5C14 6.77614 14.2239 7 14.5 7C14.2239 7 14 7.22386 14 7.5C14 7.77614 14.2239 8 14.5 8C14.2239 8 14 8.22386 14 8.5C14 8.77614 14.2239 9 14.5 9C14.2239 9 14 9.22386 14 9.5C14 9.77614 14.2239 10 14.5 10C14.7761 10 15 9.77614 15 9.5C15 9.77614 15.2239 10 15.5 10C15.2239 10 15 10.2239 15 10.5C15 10.7761 15.2239 11 15.5 11C15.7761 11 16 10.7761 16 10.5C16 10.2239 15.7761 10 15.5 10C15.7761 10 16 9.77614 16 9.5C16 9.22386 15.7761 9 15.5 9C15.7761 9 16 8.77614 16 8.5C16 8.22386 15.7761 8 15.5 8C15.7761 8 16 7.77614 16 7.5C16 7.22386 15.7761 7 15.5 7C15.7761 7 16 6.77614 16 6.5C16 6.22386 15.7761 6 15.5 6C15.7761 6 16 5.77614 16 5.5C16 5.22386 15.7761 5 15.5 5C15.2239 5 15 5.22386 15 5.5C15 5.22386 14.7761 5 14.5 5C14.7761 5 15 4.77614 15 4.5C15 4.22386 14.7761 4 14.5 4C14.7761 4 15 3.77614 15 3.5C15 3.22386 14.7761 3 14.5 3C14.2239 3 14 3.22386 14 3.5C14 3.22386 13.7761 3 13.5 3C13.2239 3 13 3.22386 13 3.5C13 3.22386 12.7761 3 12.5 3ZM14 3.5C14 3.77614 13.7761 4 13.5 4C13.7761 4 14 4.22386 14 4.5C14 4.22386 14.2239 4 14.5 4C14.2239 4 14 3.77614 14 3.5ZM15 6.5C15 6.77614 14.7761 7 14.5 7C14.7761 7 15 7.22386 15 7.5C15 7.77614 14.7761 8 14.5 8C14.7761 8 15 8.22386 15 8.5C15 8.77614 14.7761 9 14.5 9C14.7761 9 15 9.22386 15 9.5C15 9.22386 15.2239 9 15.5 9C15.2239 9 15 8.77614 15 8.5C15 8.22386 15.2239 8 15.5 8C15.2239 8 15 7.77614 15 7.5C15 7.22386 15.2239 7 15.5 7C15.2239 7 15 6.77614 15 6.5ZM15 6.5C15 6.22386 15.2239 6 15.5 6C15.2239 6 15 5.77614 15 5.5C15 5.77614 14.7761 6 14.5 6C14.7761 6 15 6.22386 15 6.5ZM12.5 3C12.7761 3 13 2.77614 13 2.5C13 2.22386 12.7761 2 12.5 2C12.2239 2 12 2.22386 12 2.5C12 2.77614 12.2239 3 12.5 3ZM10.5 4C10.2239 4 10 4.22386 10 4.5C10 4.22386 9.77614 4 9.5 4C9.77614 4 10 3.77614 10 3.5C10 3.77614 10.2239 4 10.5 4ZM11 14.5C11 14.2239 11.2239 14 11.5 14C11.7761 14 12 14.2239 12 14.5C12 14.7761 11.7761 15 11.5 15C11.2239 15 11 14.7761 11 14.5ZM10 14.5C10 14.2239 9.77614 14 9.5 14C9.77614 14 10 13.7761 10 13.5C10 13.7761 10.2239 14 10.5 14C10.2239 14 10 14.2239 10 14.5ZM9.5 13C9.77614 13 10 13.2239 10 13.5C10 13.2239 10.2239 13 10.5 13C10.7761 13 11 13.2239 11 13.5C11 13.7761 10.7761 14 10.5 14C10.7761 14 11 14.2239 11 14.5C11 14.7761 10.7761 15 10.5 15C10.2239 15 10 14.7761 10 14.5C10 14.7761 9.77614 15 9.5 15C9.22386 15 9 14.7761 9 14.5C9 14.2239 9.22386 14 9.5 14C9.22386 14 9 13.7761 9 13.5C9 13.2239 9.22386 13 9.5 13ZM9 12.5C9 12.2239 9.22386 12 9.5 12C9.77614 12 10 12.2239 10 12.5C10 12.7761 9.77614 13 9.5 13C9.22386 13 9 12.7761 9 12.5ZM8.5 12C8.77614 12 9 12.2239 9 12.5C9 12.7761 8.77614 13 8.5 13C8.22386 13 8 12.7761 8 12.5C8 12.2239 8.22386 12 8.5 12ZM8.5 12C8.22386 12 8 11.7761 8 11.5C8 11.2239 8.22386 11 8.5 11C8.77614 11 9 11.2239 9 11.5C9 11.7761 8.77614 12 8.5 12ZM12 15.5C12 15.7761 11.7761 16 11.5 16C11.2239 16 11 15.7761 11 15.5C11 15.2239 11.2239 15 11.5 15C11.7761 15 12 15.2239 12 15.5ZM12 15.5C12 15.2239 12.2239 15 12.5 15C12.7761 15 13 15.2239 13 15.5C13 15.7761 12.7761 16 12.5 16C12.2239 16 12 15.7761 12 15.5ZM4 11.5C4 11.2239 4.22386 11 4.5 11C4.77614 11 5 11.2239 5 11.5C5 11.7761 4.77614 12 4.5 12C4.22386 12 4 11.7761 4 11.5ZM5 12.5C5 12.7761 4.77614 13 4.5 13C4.22386 13 4 12.7761 4 12.5C4 12.2239 4.22386 12 4.5 12C4.77614 12 5 12.2239 5 12.5ZM5.5 12C5.22386 12 5 12.2239 5 12.5C5 12.7761 5.22386 13 5.5 13C5.22386 13 5 13.2239 5 13.5C5 13.7761 5.22386 14 5.5 14C5.22386 14 5 14.2239 5 14.5C5 14.7761 5.22386 15 5.5 15C5.77614 15 6 14.7761 6 14.5C6 14.7761 6.22386 15 6.5 15C6.22386 15 6 15.2239 6 15.5C6 15.7761 6.22386 16 6.5 16C6.22386 16 6 16.2239 6 16.5C6 16.7761 6.22386 17 6.5 17C6.77614 17 7 16.7761 7 16.5C7 16.7761 7.22386 17 7.5 17C7.77614 17 8 16.7761 8 16.5C8 16.7761 8.22386 17 8.5 17C8.22386 17 8 17.2239 8 17.5C8 17.7761 8.22386 18 8.5 18C8.77614 18 9 17.7761 9 17.5C9 17.7761 9.22386 18 9.5 18C9.77614 18 10 17.7761 10 17.5C10 17.7761 10.2239 18 10.5 18C10.2239 18 10 18.2239 10 18.5C10 18.7761 10.2239 19 10.5 19C10.7761 19 11 18.7761 11 18.5C11 18.7761 11.2239 19 11.5 19C11.7761 19 12 18.7761 12 18.5C12 18.7761 12.2239 19 12.5 19C12.7761 19 13 18.7761 13 18.5C13 18.7761 13.2239 19 13.5 19C13.7761 19 14 18.7761 14 18.5C14 18.2239 13.7761 18 13.5 18C13.7761 18 14 17.7761 14 17.5C14 17.7761 14.2239 18 14.5 18C14.7761 18 15 17.7761 15 17.5C15 17.2239 14.7761 17 14.5 17C14.2239 17 14 17.2239 14 17.5C14 17.2239 13.7761 17 13.5 17C13.2239 17 13 17.2239 13 17.5C13 17.2239 12.7761 17 12.5 17C12.2239 17 12 17.2239 12 17.5C12 17.2239 11.7761 17 11.5 17C11.2239 17 11 17.2239 11 17.5C11 17.2239 10.7761 17 10.5 17C10.2239 17 10 17.2239 10 17.5C10 17.2239 9.77614 17 9.5 17C9.77614 17 10 16.7761 10 16.5C10 16.2239 9.77614 16 9.5 16C9.22386 16 9 16.2239 9 16.5C9 16.2239 8.77614 16 8.5 16C8.22386 16 8 16.2239 8 16.5C8 16.2239 7.77614 16 7.5 16C7.77614 16 8 15.7761 8 15.5C8 15.2239 7.77614 15 7.5 15C7.22386 15 7 15.2239 7 15.5C7 15.2239 6.77614 15 6.5 15C6.77614 15 7 14.7761 7 14.5C7 14.2239 6.77614 14 6.5 14C6.77614 14 7 13.7761 7 13.5C7 13.2239 6.77614 13 6.5 13C6.22386 13 6 13.2239 6 13.5C6 13.2239 5.77614 13 5.5 13C5.77614 13 6 12.7761 6 12.5C6 12.2239 5.77614 12 5.5 12ZM6 13.5C6 13.7761 6.22386 14 6.5 14C6.22386 14 6 14.2239 6 14.5C6 14.2239 5.77614 14 5.5 14C5.77614 14 6 13.7761 6 13.5ZM7 15.5C7 15.7761 6.77614 16 6.5 16C6.77614 16 7 16.2239 7 16.5C7 16.2239 7.22386 16 7.5 16C7.22386 16 7 15.7761 7 15.5ZM9 16.5C9 16.7761 9.22386 17 9.5 17C9.22386 17 9 17.2239 9 17.5C9 17.2239 8.77614 17 8.5 17C8.77614 17 9 16.7761 9 16.5ZM11.5 18C11.2239 18 11 18.2239 11 18.5C11 18.2239 10.7761 18 10.5 18C10.7761 18 11 17.7761 11 17.5C11 17.7761 11.2239 18 11.5 18ZM12.5 18C12.2239 18 12 18.2239 12 18.5C12 18.2239 11.7761 18 11.5 18C11.7761 18 12 17.7761 12 17.5C12 17.7761 12.2239 18 12.5 18ZM12.5 18C12.7761 18 13 17.7761 13 17.5C13 17.7761 13.2239 18 13.5 18C13.2239 18 13 18.2239 13 18.5C13 18.2239 12.7761 18 12.5 18ZM5.5 12C5.77614 12 6 11.7761 6 11.5C6 11.2239 5.77614 11 5.5 11C5.22386 11 5 11.2239 5 11.5C5 11.7761 5.22386 12 5.5 12ZM18 11.5C18 11.2239 18.2239 11 18.5 11C18.7761 11 19 11.2239 19 11.5C19 11.7761 18.7761 12 18.5 12C18.2239 12 18 11.7761 18 11.5ZM19 12.5C19 12.2239 18.7761 12 18.5 12C18.2239 12 18 12.2239 18 12.5C18 12.7761 18.2239 13 18.5 13C18.2239 13 18 13.2239 18 13.5C18 13.7761 18.2239 14 18.5 14C18.7761 14 19 13.7761 19 13.5C19 13.2239 18.7761 13 18.5 13C18.7761 13 19 12.7761 19 12.5ZM19.5 12C19.7761 12 20 12.2239 20 12.5C20 12.7761 19.7761 13 19.5 13C19.2239 13 19 12.7761 19 12.5C19 12.2239 19.2239 12 19.5 12ZM19.5 12C19.7761 12 20 11.7761 20 11.5C20 11.2239 19.7761 11 19.5 11C19.2239 11 19 11.2239 19 11.5C19 11.7761 19.2239 12 19.5 12ZM9.5 20C9.22386 20 9 20.2239 9 20.5C9 20.7761 9.22386 21 9.5 21C9.22386 21 9 21.2239 9 21.5C9 21.7761 9.22386 22 9.5 22C9.77614 22 10 21.7761 10 21.5C10 21.7761 10.2239 22 10.5 22C10.7761 22 11 21.7761 11 21.5C11 21.7761 11.2239 22 11.5 22C11.7761 22 12 21.7761 12 21.5C12 21.7761 12.2239 22 12.5 22C12.7761 22 13 21.7761 13 21.5C13 21.7761 13.2239 22 13.5 22C13.7761 22 14 21.7761 14 21.5C14 21.7761 14.2239 22 14.5 22C14.7761 22 15 21.7761 15 21.5C15 21.2239 14.7761 21 14.5 21C14.7761 21 15 20.7761 15 20.5C15 20.2239 14.7761 20 14.5 20C14.2239 20 14 20.2239 14 20.5C14 20.2239 13.7761 20 13.5 20C13.2239 20 13 20.2239 13 20.5C13 20.2239 12.7761 20 12.5 20C12.2239 20 12 20.2239 12 20.5C12 20.2239 11.7761 20 11.5 20C11.2239 20 11 20.2239 11 20.5C11 20.2239 10.7761 20 10.5 20C10.2239 20 10 20.2239 10 20.5C10 20.2239 9.77614 20 9.5 20ZM10.5 21C10.7761 21 11 21.2239 11 21.5C11 21.2239 11.2239 21 11.5 21C11.7761 21 12 21.2239 12 21.5C12 21.2239 12.2239 21 12.5 21C12.7761 21 13 21.2239 13 21.5C13 21.2239 13.2239 21 13.5 21C13.7761 21 14 21.2239 14 21.5C14 21.2239 14.2239 21 14.5 21C14.2239 21 14 20.7761 14 20.5C14 20.7761 13.7761 21 13.5 21C13.2239 21 13 20.7761 13 20.5C13 20.7761 12.7761 21 12.5 21C12.2239 21 12 20.7761 12 20.5C12 20.7761 11.7761 21 11.5 21C11.2239 21 11 20.7761 11 20.5C11 20.7761 10.7761 21 10.5 21ZM10.5 21C10.2239 21 10 20.7761 10 20.5C10 20.7761 9.77614 21 9.5 21C9.77614 21 10 21.2239 10 21.5C10 21.2239 10.2239 21 10.5 21ZM4 3.5C4 3.22386 4.22386 3 4.5 3C4.77614 3 5 3.22386 5 3.5C5 3.77614 4.77614 4 4.5 4C4.22386 4 4 3.77614 4 3.5ZM5 4.5C5 4.77614 4.77614 5 4.5 5C4.22386 5 4 4.77614 4 4.5C4 4.22386 4.22386 4 4.5 4C4.77614 4 5 4.22386 5 4.5ZM5.5 4C5.22386 4 5 4.22386 5 4.5C5 4.77614 5.22386 5 5.5 5C5.22386 5 5 5.22386 5 5.5C5 5.77614 5.22386 6 5.5 6C5.77614 6 6 5.77614 6 5.5C6 5.77614 6.22386 6 6.5 6C6.22386 6 6 6.22386 6 6.5C6 6.77614 6.22386 7 6.5 7C6.77614 7 7 6.77614 7 6.5C7 6.77614 7.22386 7 7.5 7C7.22386 7 7 7.22386 7 7.5C7 7.77614 7.22386 8 7.5 8C7.77614 8 8 7.77614 8 7.5C8 7.77614 8.22386 8 8.5 8C8.22386 8 8 8.22386 8 8.5C8 8.77614 8.22386 9 8.5 9C8.77614 9 9 8.77614 9 8.5C9 8.77614 9.22386 9 9.5 9C9.22386 9 9 9.22386 9 9.5C9 9.77614 9.22386 10 9.5 10C9.77614 10 10 9.77614 10 9.5C10 9.77614 10.2239 10 10.5 10C10.2239 10 10 10.2239 10 10.5C10 10.7761 10.2239 11 10.5 11C10.7761 11 11 10.7761 11 10.5C11 10.7761 11.2239 11 11.5 11C11.2239 11 11 11.2239 11 11.5C11 11.7761 11.2239 12 11.5 12C11.7761 12 12 11.7761 12 11.5C12 11.7761 12.2239 12 12.5 12C12.2239 12 12 12.2239 12 12.5C12 12.7761 12.2239 13 12.5 13C12.7761 13 13 12.7761 13 12.5C13 12.7761 13.2239 13 13.5 13C13.2239 13 13 13.2239 13 13.5C13 13.7761 13.2239 14 13.5 14C13.7761 14 14 13.7761 14 13.5C14 13.7761 14.2239 14 14.5 14C14.2239 14 14 14.2239 14 14.5C14 14.7761 14.2239 15 14.5 15C14.7761 15 15 14.7761 15 14.5C15 14.7761 15.2239 15 15.5 15C15.2239 15 15 15.2239 15 15.5C15 15.7761 15.2239 16 15.5 16C15.7761 16 16 15.7761 16 15.5C16 15.7761 16.2239 16 16.5 16C16.2239 16 16 16.2239 16 16.5C16 16.7761 16.2239 17 16.5 17C16.7761 17 17 16.7761 17 16.5C17 16.7761 17.2239 17 17.5 17C17.2239 17 17 17.2239 17 17.5C17 17.7761 17.2239 18 17.5 18C17.7761 18 18 17.7761 18 17.5C18 17.7761 18.2239 18 18.5 18C18.2239 18 18 18.2239 18 18.5C18 18.7761 18.2239 19 18.5 19C18.7761 19 19 18.7761 19 18.5C19 18.7761 19.2239 19 19.5 19C19.7761 19 20 18.7761 20 18.5C20 18.2239 19.7761 18 19.5 18C19.7761 18 20 17.7761 20 17.5C20 17.2239 19.7761 17 19.5 17C19.2239 17 19 17.2239 19 17.5C19 17.2239 18.7761 17 18.5 17C18.7761 17 19 16.7761 19 16.5C19 16.2239 18.7761 16 18.5 16C18.2239 16 18 16.2239 18 16.5C18 16.2239 17.7761 16 17.5 16C17.7761 16 18 15.7761 18 15.5C18 15.2239 17.7761 15 17.5 15C17.2239 15 17 15.2239 17 15.5C17 15.2239 16.7761 15 16.5 15C16.7761 15 17 14.7761 17 14.5C17 14.2239 16.7761 14 16.5 14C16.2239 14 16 14.2239 16 14.5C16 14.2239 15.7761 14 15.5 14C15.7761 14 16 13.7761 16 13.5C16 13.2239 15.7761 13 15.5 13C15.2239 13 15 13.2239 15 13.5C15 13.2239 14.7761 13 14.5 13C14.7761 13 15 12.7761 15 12.5C15 12.2239 14.7761 12 14.5 12C14.2239 12 14 12.2239 14 12.5C14 12.2239 13.7761 12 13.5 12C13.7761 12 14 11.7761 14 11.5C14 11.2239 13.7761 11 13.5 11C13.2239 11 13 11.2239 13 11.5C13 11.2239 12.7761 11 12.5 11C12.7761 11 13 10.7761 13 10.5C13 10.2239 12.7761 10 12.5 10C12.2239 10 12 10.2239 12 10.5C12 10.2239 11.7761 10 11.5 10C11.7761 10 12 9.77614 12 9.5C12 9.22386 11.7761 9 11.5 9C11.2239 9 11 9.22386 11 9.5C11 9.22386 10.7761 9 10.5 9C10.7761 9 11 8.77614 11 8.5C11 8.22386 10.7761 8 10.5 8C10.2239 8 10 8.22386 10 8.5C10 8.22386 9.77614 8 9.5 8C9.77614 8 10 7.77614 10 7.5C10 7.22386 9.77614 7 9.5 7C9.22386 7 9 7.22386 9 7.5C9 7.22386 8.77614 7 8.5 7C8.77614 7 9 6.77614 9 6.5C9 6.22386 8.77614 6 8.5 6C8.22386 6 8 6.22386 8 6.5C8 6.22386 7.77614 6 7.5 6C7.77614 6 8 5.77614 8 5.5C8 5.22386 7.77614 5 7.5 5C7.22386 5 7 5.22386 7 5.5C7 5.22386 6.77614 5 6.5 5C6.77614 5 7 4.77614 7 4.5C7 4.22386 6.77614 4 6.5 4C6.22386 4 6 4.22386 6 4.5C6 4.22386 5.77614 4 5.5 4ZM5.5 4C5.77614 4 6 3.77614 6 3.5C6 3.22386 5.77614 3 5.5 3C5.22386 3 5 3.22386 5 3.5C5 3.77614 5.22386 4 5.5 4ZM6 4.5C6 4.77614 5.77614 5 5.5 5C5.77614 5 6 5.22386 6 5.5C6 5.22386 6.22386 5 6.5 5C6.22386 5 6 4.77614 6 4.5ZM7 5.5C7 5.77614 7.22386 6 7.5 6C7.22386 6 7 6.22386 7 6.5C7 6.22386 6.77614 6 6.5 6C6.77614 6 7 5.77614 7 5.5ZM8 6.5C8 6.77614 7.77614 7 7.5 7C7.77614 7 8 7.22386 8 7.5C8 7.22386 8.22386 7 8.5 7C8.22386 7 8 6.77614 8 6.5ZM9 7.5C9 7.77614 9.22386 8 9.5 8C9.22386 8 9 8.22386 9 8.5C9 8.22386 8.77614 8 8.5 8C8.77614 8 9 7.77614 9 7.5ZM10 8.5C10 8.77614 9.77614 9 9.5 9C9.77614 9 10 9.22386 10 9.5C10 9.22386 10.2239 9 10.5 9C10.2239 9 10 8.77614 10 8.5ZM11 9.5C11 9.77614 11.2239 10 11.5 10C11.2239 10 11 10.2239 11 10.5C11 10.2239 10.7761 10 10.5 10C10.7761 10 11 9.77614 11 9.5ZM12 10.5C12 10.7761 11.7761 11 11.5 11C11.7761 11 12 11.2239 12 11.5C12 11.2239 12.2239 11 12.5 11C12.2239 11 12 10.7761 12 10.5ZM13 11.5C13 11.7761 13.2239 12 13.5 12C13.2239 12 13 12.2239 13 12.5C13 12.2239 12.7761 12 12.5 12C12.7761 12 13 11.7761 13 11.5ZM14 12.5C14 12.7761 13.7761 13 13.5 13C13.7761 13 14 13.2239 14 13.5C14 13.2239 14.2239 13 14.5 13C14.2239 13 14 12.7761 14 12.5ZM15 13.5C15 13.7761 15.2239 14 15.5 14C15.2239 14 15 14.2239 15 14.5C15 14.2239 14.7761 14 14.5 14C14.7761 14 15 13.7761 15 13.5ZM16 14.5C16 14.7761 15.7761 15 15.5 15C15.7761 15 16 15.2239 16 15.5C16 15.2239 16.2239 15 16.5 15C16.2239 15 16 14.7761 16 14.5ZM17 15.5C17 15.7761 17.2239 16 17.5 16C17.2239 16 17 16.2239 17 16.5C17 16.2239 16.7761 16 16.5 16C16.7761 16 17 15.7761 17 15.5ZM18 16.5C18 16.7761 17.7761 17 17.5 17C17.7761 17 18 17.2239 18 17.5C18 17.2239 18.2239 17 18.5 17C18.2239 17 18 16.7761 18 16.5ZM19 17.5C19 17.7761 19.2239 18 19.5 18C19.2239 18 19 18.2239 19 18.5C19 18.2239 18.7761 18 18.5 18C18.7761 18 19 17.7761 19 17.5Z" fill="white"/>
</svg>
