<svg width="24" height="24" viewBox="0 0 24 24" fill="none" xmlns="http://www.w3.org/2000/svg">
<path fill-rule="evenodd" clip-rule="evenodd" d="M20 3.5C20 3.22386 20.2239 3 20.5 3C20.7761 3 21 3.22386 21 3.5C21 3.77614 20.7761 4 20.5 4C20.2239 4 20 3.77614 20 3.5ZM19.5 4C19.2239 4 19 3.77614 19 3.5C19 3.22386 19.2239 3 19.5 3C19.7761 3 20 3.22386 20 3.5C20 3.77614 19.7761 4 19.5 4ZM20 4.5C20 4.22386 19.7761 4 19.5 4C19.2239 4 19 4.22386 19 4.5C19 4.22386 18.7761 4 18.5 4C18.2239 4 18 4.22386 18 4.5C18 4.22386 17.7761 4 17.5 4C17.2239 4 17 4.22386 17 4.5C17 4.77614 17.2239 5 17.5 5C17.2239 5 17 5.22386 17 5.5C17 5.22386 16.7761 5 16.5 5C16.2239 5 16 5.22386 16 5.5C16 5.22386 15.7761 5 15.5 5C15.2239 5 15 5.22386 15 5.5C15 5.77614 15.2239 6 15.5 6C15.2239 6 15 6.22386 15 6.5C15 6.22386 14.7761 6 14.5 6C14.2239 6 14 6.22386 14 6.5C14 6.22386 13.7761 6 13.5 6C13.2239 6 13 6.22386 13 6.5C13 6.77614 13.2239 7 13.5 7C13.2239 7 13 7.22386 13 7.5C13 7.22386 12.7761 7 12.5 7C12.2239 7 12 7.22386 12 7.5C12 7.22386 11.7761 7 11.5 7C11.2239 7 11 7.22386 11 7.5C11 7.77614 11.2239 8 11.5 8C11.2239 8 11 8.22386 11 8.5C11 8.22386 10.7761 8 10.5 8C10.2239 8 10 8.22386 10 8.5C10 8.22386 9.77614 8 9.5 8C9.22386 8 9 8.22386 9 8.5C9 8.77614 9.22386 9 9.5 9C9.22386 9 9 9.22386 9 9.5C9 9.22386 8.77614 9 8.5 9C8.22386 9 8 9.22386 8 9.5C8 9.22386 7.77614 9 7.5 9C7.22386 9 7 9.22386 7 9.5C7 9.77614 7.22386 10 7.5 10C7.22386 10 7 10.2239 7 10.5C7 10.2239 6.77614 10 6.5 10C6.22386 10 6 10.2239 6 10.5C6 10.2239 5.77614 10 5.5 10C5.22386 10 5 10.2239 5 10.5C5 10.7761 5.22386 11 5.5 11C5.22386 11 5 11.2239 5 11.5C5 11.2239 4.77614 11 4.5 11C4.22386 11 4 11.2239 4 11.5C4 11.2239 3.77614 11 3.5 11C3.22386 11 3 11.2239 3 11.5C3 11.7761 3.22386 12 3.5 12C3.22386 12 3 12.2239 3 12.5C3 12.7761 3.22386 13 3.5 13C3.77614 13 4 12.7761 4 12.5C4 12.7761 4.22386 13 4.5 13C4.77614 13 5 12.7761 5 12.5C5 12.7761 5.22386 13 5.5 13C5.22386 13 5 13.2239 5 13.5C5 13.7761 5.22386 14 5.5 14C5.77614 14 6 13.7761 6 13.5C6 13.7761 6.22386 14 6.5 14C6.77614 14 7 13.7761 7 13.5C7 13.7761 7.22386 14 7.5 14C7.77614 14 8 13.7761 8 13.5C8 13.7761 8.22386 14 8.5 14C8.77614 14 9 13.7761 9 13.5C9 13.7761 9.22386 14 9.5 14C9.22386 14 9 14.2239 9 14.5C9 14.7761 9.22386 15 9.5 15C9.77614 15 10 14.7761 10 14.5C10 14.7761 10.2239 15 10.5 15C10.2239 15 10 15.2239 10 15.5C10 15.7761 10.2239 16 10.5 16C10.2239 16 10 16.2239 10 16.5C10 16.7761 10.2239 17 10.5 17C10.2239 17 10 17.2239 10 17.5C10 17.7761 10.2239 18 10.5 18C10.2239 18 10 18.2239 10 18.5C10 18.7761 10.2239 19 10.5 19C10.7761 19 11 18.7761 11 18.5C11 18.7761 11.2239 19 11.5 19C11.2239 19 11 19.2239 11 19.5C11 19.7761 11.2239 20 11.5 20C11.2239 20 11 20.2239 11 20.5C11 20.7761 11.2239 21 11.5 21C11.7761 21 12 20.7761 12 20.5C12 20.7761 12.2239 21 12.5 21C12.7761 21 13 20.7761 13 20.5C13 20.2239 12.7761 20 12.5 20C12.7761 20 13 19.7761 13 19.5C13 19.2239 12.7761 19 12.5 19C12.7761 19 13 18.7761 13 18.5C13 18.7761 13.2239 19 13.5 19C13.7761 19 14 18.7761 14 18.5C14 18.2239 13.7761 18 13.5 18C13.7761 18 14 17.7761 14 17.5C14 17.2239 13.7761 17 13.5 17C13.7761 17 14 16.7761 14 16.5C14 16.7761 14.2239 17 14.5 17C14.7761 17 15 16.7761 15 16.5C15 16.2239 14.7761 16 14.5 16C14.7761 16 15 15.7761 15 15.5C15 15.2239 14.7761 15 14.5 15C14.7761 15 15 14.7761 15 14.5C15 14.7761 15.2239 15 15.5 15C15.7761 15 16 14.7761 16 14.5C16 14.2239 15.7761 14 15.5 14C15.7761 14 16 13.7761 16 13.5C16 13.2239 15.7761 13 15.5 13C15.7761 13 16 12.7761 16 12.5C16 12.7761 16.2239 13 16.5 13C16.7761 13 17 12.7761 17 12.5C17 12.2239 16.7761 12 16.5 12C16.7761 12 17 11.7761 17 11.5C17 11.2239 16.7761 11 16.5 11C16.7761 11 17 10.7761 17 10.5C17 10.7761 17.2239 11 17.5 11C17.7761 11 18 10.7761 18 10.5C18 10.2239 17.7761 10 17.5 10C17.7761 10 18 9.77614 18 9.5C18 9.22386 17.7761 9 17.5 9C17.7761 9 18 8.77614 18 8.5C18 8.77614 18.2239 9 18.5 9C18.7761 9 19 8.77614 19 8.5C19 8.22386 18.7761 8 18.5 8C18.7761 8 19 7.77614 19 7.5C19 7.22386 18.7761 7 18.5 7C18.7761 7 19 6.77614 19 6.5C19 6.77614 19.2239 7 19.5 7C19.7761 7 20 6.77614 20 6.5C20 6.22386 19.7761 6 19.5 6C19.7761 6 20 5.77614 20 5.5C20 5.22386 19.7761 5 19.5 5C19.7761 5 20 4.77614 20 4.5ZM19 5.5C19 5.77614 19.2239 6 19.5 6C19.2239 6 19 6.22386 19 6.5C19 6.22386 18.7761 6 18.5 6C18.7761 6 19 5.77614 19 5.5ZM18.5 5C18.7761 5 19 4.77614 19 4.5C19 4.77614 19.2239 5 19.5 5C19.2239 5 19 5.22386 19 5.5C19 5.22386 18.7761 5 18.5 5ZM18 5.5C18 5.22386 17.7761 5 17.5 5C17.7761 5 18 4.77614 18 4.5C18 4.77614 18.2239 5 18.5 5C18.2239 5 18 5.22386 18 5.5ZM18 5.5C18 5.77614 18.2239 6 18.5 6C18.2239 6 18 6.22386 18 6.5C18 6.77614 18.2239 7 18.5 7C18.2239 7 18 7.22386 18 7.5C18 7.22386 17.7761 7 17.5 7C17.2239 7 17 7.22386 17 7.5C17 7.77614 17.2239 8 17.5 8C17.2239 8 17 8.22386 17 8.5C17 8.77614 17.2239 9 17.5 9C17.2239 9 17 9.22386 17 9.5C17 9.22386 16.7761 9 16.5 9C16.2239 9 16 9.22386 16 9.5C16 9.77614 16.2239 10 16.5 10C16.2239 10 16 10.2239 16 10.5C16 10.7761 16.2239 11 16.5 11C16.2239 11 16 11.2239 16 11.5C16 11.2239 15.7761 11 15.5 11C15.2239 11 15 11.2239 15 11.5C15 11.7761 15.2239 12 15.5 12C15.2239 12 15 12.2239 15 12.5C15 12.7761 15.2239 13 15.5 13C15.2239 13 15 13.2239 15 13.5C15 13.2239 14.7761 13 14.5 13C14.2239 13 14 13.2239 14 13.5C14 13.7761 14.2239 14 14.5 14C14.2239 14 14 14.2239 14 14.5C14 14.7761 14.2239 15 14.5 15C14.2239 15 14 15.2239 14 15.5C14 15.2239 13.7761 15 13.5 15C13.2239 15 13 15.2239 13 15.5C13 15.7761 13.2239 16 13.5 16C13.2239 16 13 16.2239 13 16.5C13 16.7761 13.2239 17 13.5 17C13.2239 17 13 17.2239 13 17.5C13 17.2239 12.7761 17 12.5 17C12.2239 17 12 17.2239 12 17.5C12 17.2239 11.7761 17 11.5 17C11.7761 17 12 16.7761 12 16.5C12 16.2239 11.7761 16 11.5 16C11.7761 16 12 15.7761 12 15.5C12 15.2239 11.7761 15 11.5 15C11.2239 15 11 15.2239 11 15.5C11 15.2239 10.7761 15 10.5 15C10.7761 15 11 14.7761 11 14.5C11 14.2239 10.7761 14 10.5 14C10.7761 14 11 13.7761 11 13.5C11 13.2239 10.7761 13 10.5 13C10.2239 13 10 13.2239 10 13.5C10 13.2239 9.77614 13 9.5 13C9.22386 13 9 13.2239 9 13.5C9 13.2239 8.77614 13 8.5 13C8.77614 13 9 12.7761 9 12.5C9 12.2239 8.77614 12 8.5 12C8.22386 12 8 12.2239 8 12.5C8 12.2239 7.77614 12 7.5 12C7.22386 12 7 12.2239 7 12.5C7 12.2239 6.77614 12 6.5 12C6.77614 12 7 11.7761 7 11.5C7 11.2239 6.77614 11 6.5 11C6.77614 11 7 10.7761 7 10.5C7 10.7761 7.22386 11 7.5 11C7.77614 11 8 10.7761 8 10.5C8 10.7761 8.22386 11 8.5 11C8.77614 11 9 10.7761 9 10.5C9 10.2239 8.77614 10 8.5 10C8.77614 10 9 9.77614 9 9.5C9 9.77614 9.22386 10 9.5 10C9.77614 10 10 9.77614 10 9.5C10 9.77614 10.2239 10 10.5 10C10.7761 10 11 9.77614 11 9.5C11 9.22386 10.7761 9 10.5 9C10.7761 9 11 8.77614 11 8.5C11 8.77614 11.2239 9 11.5 9C11.7761 9 12 8.77614 12 8.5C12 8.77614 12.2239 9 12.5 9C12.7761 9 13 8.77614 13 8.5C13 8.22386 12.7761 8 12.5 8C12.7761 8 13 7.77614 13 7.5C13 7.77614 13.2239 8 13.5 8C13.7761 8 14 7.77614 14 7.5C14 7.77614 14.2239 8 14.5 8C14.7761 8 15 7.77614 15 7.5C15 7.22386 14.7761 7 14.5 7C14.7761 7 15 6.77614 15 6.5C15 6.77614 15.2239 7 15.5 7C15.7761 7 16 6.77614 16 6.5C16 6.77614 16.2239 7 16.5 7C16.7761 7 17 6.77614 17 6.5C17 6.22386 16.7761 6 16.5 6C16.7761 6 17 5.77614 17 5.5C17 5.77614 17.2239 6 17.5 6C17.7761 6 18 5.77614 18 5.5ZM16.5 6C16.2239 6 16 6.22386 16 6.5C16 6.22386 15.7761 6 15.5 6C15.7761 6 16 5.77614 16 5.5C16 5.77614 16.2239 6 16.5 6ZM14.5 7C14.2239 7 14 7.22386 14 7.5C14 7.22386 13.7761 7 13.5 7C13.7761 7 14 6.77614 14 6.5C14 6.77614 14.2239 7 14.5 7ZM12.5 8C12.2239 8 12 8.22386 12 8.5C12 8.22386 11.7761 8 11.5 8C11.7761 8 12 7.77614 12 7.5C12 7.77614 12.2239 8 12.5 8ZM10.5 9C10.2239 9 10 9.22386 10 9.5C10 9.22386 9.77614 9 9.5 9C9.77614 9 10 8.77614 10 8.5C10 8.77614 10.2239 9 10.5 9ZM8.5 10C8.22386 10 8 10.2239 8 10.5C8 10.2239 7.77614 10 7.5 10C7.77614 10 8 9.77614 8 9.5C8 9.77614 8.22386 10 8.5 10ZM6 11.5C6 11.7761 6.22386 12 6.5 12C6.22386 12 6 12.2239 6 12.5C6 12.2239 5.77614 12 5.5 12C5.77614 12 6 11.7761 6 11.5ZM6 11.5C6 11.2239 6.22386 11 6.5 11C6.22386 11 6 10.7761 6 10.5C6 10.7761 5.77614 11 5.5 11C5.77614 11 6 11.2239 6 11.5ZM6.5 13C6.22386 13 6 13.2239 6 13.5C6 13.2239 5.77614 13 5.5 13C5.77614 13 6 12.7761 6 12.5C6 12.7761 6.22386 13 6.5 13ZM7.5 13C7.22386 13 7 13.2239 7 13.5C7 13.2239 6.77614 13 6.5 13C6.77614 13 7 12.7761 7 12.5C7 12.7761 7.22386 13 7.5 13ZM7.5 13C7.77614 13 8 12.7761 8 12.5C8 12.7761 8.22386 13 8.5 13C8.22386 13 8 13.2239 8 13.5C8 13.2239 7.77614 13 7.5 13ZM10 13.5C10 13.7761 10.2239 14 10.5 14C10.2239 14 10 14.2239 10 14.5C10 14.2239 9.77614 14 9.5 14C9.77614 14 10 13.7761 10 13.5ZM11 16.5C11 16.7761 10.7761 17 10.5 17C10.7761 17 11 17.2239 11 17.5C11 17.7761 10.7761 18 10.5 18C10.7761 18 11 18.2239 11 18.5C11 18.2239 11.2239 18 11.5 18C11.7761 18 12 18.2239 12 18.5C12 18.7761 11.7761 19 11.5 19C11.7761 19 12 19.2239 12 19.5C12 19.7761 11.7761 20 11.5 20C11.7761 20 12 20.2239 12 20.5C12 20.2239 12.2239 20 12.5 20C12.2239 20 12 19.7761 12 19.5C12 19.2239 12.2239 19 12.5 19C12.2239 19 12 18.7761 12 18.5C12 18.2239 12.2239 18 12.5 18C12.7761 18 13 18.2239 13 18.5C13 18.2239 13.2239 18 13.5 18C13.2239 18 13 17.7761 13 17.5C13 17.7761 12.7761 18 12.5 18C12.2239 18 12 17.7761 12 17.5C12 17.7761 11.7761 18 11.5 18C11.2239 18 11 17.7761 11 17.5C11 17.2239 11.2239 17 11.5 17C11.2239 17 11 16.7761 11 16.5ZM11 16.5C11 16.2239 11.2239 16 11.5 16C11.2239 16 11 15.7761 11 15.5C11 15.7761 10.7761 16 10.5 16C10.7761 16 11 16.2239 11 16.5ZM13.5 16C13.7761 16 14 15.7761 14 15.5C14 15.7761 14.2239 16 14.5 16C14.2239 16 14 16.2239 14 16.5C14 16.2239 13.7761 16 13.5 16ZM14.5 14C14.7761 14 15 13.7761 15 13.5C15 13.7761 15.2239 14 15.5 14C15.2239 14 15 14.2239 15 14.5C15 14.2239 14.7761 14 14.5 14ZM15.5 12C15.7761 12 16 11.7761 16 11.5C16 11.7761 16.2239 12 16.5 12C16.2239 12 16 12.2239 16 12.5C16 12.2239 15.7761 12 15.5 12ZM16.5 10C16.7761 10 17 9.77614 17 9.5C17 9.77614 17.2239 10 17.5 10C17.2239 10 17 10.2239 17 10.5C17 10.2239 16.7761 10 16.5 10ZM17.5 8C17.7761 8 18 7.77614 18 7.5C18 7.77614 18.2239 8 18.5 8C18.2239 8 18 8.22386 18 8.5C18 8.22386 17.7761 8 17.5 8ZM20 4.5C20 4.77614 20.2239 5 20.5 5C20.7761 5 21 4.77614 21 4.5C21 4.22386 20.7761 4 20.5 4C20.2239 4 20 4.22386 20 4.5ZM4.5 12C4.77614 12 5 11.7761 5 11.5C5 11.7761 5.22386 12 5.5 12C5.22386 12 5 12.2239 5 12.5C5 12.2239 4.77614 12 4.5 12ZM4.5 12C4.22386 12 4 12.2239 4 12.5C4 12.2239 3.77614 12 3.5 12C3.77614 12 4 11.7761 4 11.5C4 11.7761 4.22386 12 4.5 12Z" fill="white"/>
</svg>
