<svg width="24" height="24" viewBox="0 0 24 24" fill="none" xmlns="http://www.w3.org/2000/svg">
<path fill-rule="evenodd" clip-rule="evenodd" d="M3 3.5C3 3.22386 3.22386 3 3.5 3C3.77614 3 4 3.22386 4 3.5C4 3.77614 3.77614 4 3.5 4C3.22386 4 3 3.77614 3 3.5ZM4 4.5C4 4.22386 3.77614 4 3.5 4C3.22386 4 3 4.22386 3 4.5C3 4.77614 3.22386 5 3.5 5C3.22386 5 3 5.22386 3 5.5C3 5.77614 3.22386 6 3.5 6C3.22386 6 3 6.22386 3 6.5C3 6.77614 3.22386 7 3.5 7C3.22386 7 3 7.22386 3 7.5C3 7.77614 3.22386 8 3.5 8C3.22386 8 3 8.22386 3 8.5C3 8.77614 3.22386 9 3.5 9C3.77614 9 4 8.77614 4 8.5C4 8.77614 4.22386 9 4.5 9C4.22386 9 4 9.22386 4 9.5C4 9.77614 4.22386 10 4.5 10C4.22386 10 4 10.2239 4 10.5C4 10.7761 4.22386 11 4.5 11C4.77614 11 5 10.7761 5 10.5C5 10.7761 5.22386 11 5.5 11C5.22386 11 5 11.2239 5 11.5C5 11.7761 5.22386 12 5.5 12C5.22386 12 5 12.2239 5 12.5C5 12.7761 5.22386 13 5.5 13C5.77614 13 6 12.7761 6 12.5C6 12.7761 6.22386 13 6.5 13C6.22386 13 6 13.2239 6 13.5C6 13.7761 6.22386 14 6.5 14C6.22386 14 6 14.2239 6 14.5C6 14.7761 6.22386 15 6.5 15C6.77614 15 7 14.7761 7 14.5C7 14.7761 7.22386 15 7.5 15C7.22386 15 7 15.2239 7 15.5C7 15.7761 7.22386 16 7.5 16C7.77614 16 8 15.7761 8 15.5C8 15.7761 8.22386 16 8.5 16C8.22386 16 8 16.2239 8 16.5C8 16.7761 8.22386 17 8.5 17C8.77614 17 9 16.7761 9 16.5C9 16.7761 9.22386 17 9.5 17C9.22386 17 9 17.2239 9 17.5C9 17.7761 9.22386 18 9.5 18C9.77614 18 10 17.7761 10 17.5C10 17.7761 10.2239 18 10.5 18C10.7761 18 11 17.7761 11 17.5C11 17.7761 11.2239 18 11.5 18C11.2239 18 11 18.2239 11 18.5C11 18.7761 11.2239 19 11.5 19C11.7761 19 12 18.7761 12 18.5C12 18.7761 12.2239 19 12.5 19C12.7761 19 13 18.7761 13 18.5C13 18.7761 13.2239 19 13.5 19C13.2239 19 13 19.2239 13 19.5C13 19.7761 13.2239 20 13.5 20C13.7761 20 14 19.7761 14 19.5C14 19.7761 14.2239 20 14.5 20C14.7761 20 15 19.7761 15 19.5C15 19.7761 15.2239 20 15.5 20C15.2239 20 15 20.2239 15 20.5C15 20.7761 15.2239 21 15.5 21C15.7761 21 16 20.7761 16 20.5C16 20.7761 16.2239 21 16.5 21C16.7761 21 17 20.7761 17 20.5C17 20.7761 17.2239 21 17.5 21C17.7761 21 18 20.7761 18 20.5C18 20.7761 18.2239 21 18.5 21C18.7761 21 19 20.7761 19 20.5C19 20.7761 19.2239 21 19.5 21C19.7761 21 20 20.7761 20 20.5C20 20.7761 20.2239 21 20.5 21C20.7761 21 21 20.7761 21 20.5C21 20.2239 20.7761 20 20.5 20C20.7761 20 21 19.7761 21 19.5C21 19.2239 20.7761 19 20.5 19C20.7761 19 21 18.7761 21 18.5C21 18.2239 20.7761 18 20.5 18C20.7761 18 21 17.7761 21 17.5C21 17.2239 20.7761 17 20.5 17C20.7761 17 21 16.7761 21 16.5C21 16.2239 20.7761 16 20.5 16C20.7761 16 21 15.7761 21 15.5C21 15.2239 20.7761 15 20.5 15C20.7761 15 21 14.7761 21 14.5C21 14.2239 20.7761 14 20.5 14C20.2239 14 20 14.2239 20 14.5C20 14.2239 19.7761 14 19.5 14C19.2239 14 19 14.2239 19 14.5C19 14.2239 18.7761 14 18.5 14C18.7761 14 19 13.7761 19 13.5C19 13.2239 18.7761 13 18.5 13C18.2239 13 18 13.2239 18 13.5C18 13.2239 17.7761 13 17.5 13C17.2239 13 17 13.2239 17 13.5C17 13.2239 16.7761 13 16.5 13C16.2239 13 16 13.2239 16 13.5C16 13.2239 15.7761 13 15.5 13C15.2239 13 15 13.2239 15 13.5C15 13.7761 15.2239 14 15.5 14C15.2239 14 15 14.2239 15 14.5C15 14.2239 14.7761 14 14.5 14C14.2239 14 14 14.2239 14 14.5C14 14.2239 13.7761 14 13.5 14C13.2239 14 13 14.2239 13 14.5C13 14.2239 12.7761 14 12.5 14C12.7761 14 13 13.7761 13 13.5C13 13.2239 12.7761 13 12.5 13C12.2239 13 12 13.2239 12 13.5C12 13.2239 11.7761 13 11.5 13C11.7761 13 12 12.7761 12 12.5C12 12.2239 11.7761 12 11.5 12C11.2239 12 11 12.2239 11 12.5C11 12.2239 10.7761 12 10.5 12C10.7761 12 11 11.7761 11 11.5C11 11.2239 10.7761 11 10.5 11C10.2239 11 10 11.2239 10 11.5C10 11.2239 9.77614 11 9.5 11C9.77614 11 10 10.7761 10 10.5C10 10.2239 9.77614 10 9.5 10C9.77614 10 10 9.77614 10 9.5C10 9.22386 9.77614 9 9.5 9C9.77614 9 10 8.77614 10 8.5C10 8.77614 10.2239 9 10.5 9C10.7761 9 11 8.77614 11 8.5C11 8.22386 10.7761 8 10.5 8C10.7761 8 11 7.77614 11 7.5C11 7.22386 10.7761 7 10.5 7C10.7761 7 11 6.77614 11 6.5C11 6.22386 10.7761 6 10.5 6C10.7761 6 11 5.77614 11 5.5C11 5.22386 10.7761 5 10.5 5C10.2239 5 10 5.22386 10 5.5C10 5.22386 9.77614 5 9.5 5C9.77614 5 10 4.77614 10 4.5C10 4.22386 9.77614 4 9.5 4C9.77614 4 10 3.77614 10 3.5C10 3.22386 9.77614 3 9.5 3C9.22386 3 9 3.22386 9 3.5C9 3.22386 8.77614 3 8.5 3C8.22386 3 8 3.22386 8 3.5C8 3.22386 7.77614 3 7.5 3C7.22386 3 7 3.22386 7 3.5C7 3.22386 6.77614 3 6.5 3C6.22386 3 6 3.22386 6 3.5C6 3.22386 5.77614 3 5.5 3C5.22386 3 5 3.22386 5 3.5C5 3.22386 4.77614 3 4.5 3C4.22386 3 4 3.22386 4 3.5C4 3.77614 4.22386 4 4.5 4C4.22386 4 4 4.22386 4 4.5ZM4.5 5C4.22386 5 4 4.77614 4 4.5C4 4.77614 3.77614 5 3.5 5C3.77614 5 4 5.22386 4 5.5C4 5.77614 3.77614 6 3.5 6C3.77614 6 4 6.22386 4 6.5C4 6.77614 3.77614 7 3.5 7C3.77614 7 4 7.22386 4 7.5C4 7.77614 3.77614 8 3.5 8C3.77614 8 4 8.22386 4 8.5C4 8.22386 4.22386 8 4.5 8C4.77614 8 5 8.22386 5 8.5C5 8.77614 4.77614 9 4.5 9C4.77614 9 5 9.22386 5 9.5C5 9.77614 4.77614 10 4.5 10C4.77614 10 5 10.2239 5 10.5C5 10.2239 5.22386 10 5.5 10C5.77614 10 6 10.2239 6 10.5C6 10.7761 5.77614 11 5.5 11C5.77614 11 6 11.2239 6 11.5C6 11.7761 5.77614 12 5.5 12C5.77614 12 6 12.2239 6 12.5C6 12.2239 6.22386 12 6.5 12C6.77614 12 7 12.2239 7 12.5C7 12.7761 6.77614 13 6.5 13C6.77614 13 7 13.2239 7 13.5C7 13.7761 6.77614 14 6.5 14C6.77614 14 7 14.2239 7 14.5C7 14.2239 7.22386 14 7.5 14C7.77614 14 8 14.2239 8 14.5C8 14.7761 7.77614 15 7.5 15C7.77614 15 8 15.2239 8 15.5C8 15.2239 8.22386 15 8.5 15C8.77614 15 9 15.2239 9 15.5C9 15.7761 8.77614 16 8.5 16C8.77614 16 9 16.2239 9 16.5C9 16.2239 9.22386 16 9.5 16C9.77614 16 10 16.2239 10 16.5C10 16.7761 9.77614 17 9.5 17C9.77614 17 10 17.2239 10 17.5C10 17.2239 10.2239 17 10.5 17C10.7761 17 11 17.2239 11 17.5C11 17.2239 11.2239 17 11.5 17C11.7761 17 12 17.2239 12 17.5C12 17.7761 11.7761 18 11.5 18C11.7761 18 12 18.2239 12 18.5C12 18.2239 12.2239 18 12.5 18C12.7761 18 13 18.2239 13 18.5C13 18.2239 13.2239 18 13.5 18C13.7761 18 14 18.2239 14 18.5C14 18.7761 13.7761 19 13.5 19C13.7761 19 14 19.2239 14 19.5C14 19.2239 14.2239 19 14.5 19C14.7761 19 15 19.2239 15 19.5C15 19.2239 15.2239 19 15.5 19C15.7761 19 16 19.2239 16 19.5C16 19.7761 15.7761 20 15.5 20C15.7761 20 16 20.2239 16 20.5C16 20.2239 16.2239 20 16.5 20C16.7761 20 17 20.2239 17 20.5C17 20.2239 17.2239 20 17.5 20C17.7761 20 18 20.2239 18 20.5C18 20.2239 18.2239 20 18.5 20C18.7761 20 19 20.2239 19 20.5C19 20.2239 19.2239 20 19.5 20C19.7761 20 20 20.2239 20 20.5C20 20.2239 20.2239 20 20.5 20C20.2239 20 20 19.7761 20 19.5C20 19.2239 20.2239 19 20.5 19C20.2239 19 20 18.7761 20 18.5C20 18.2239 20.2239 18 20.5 18C20.2239 18 20 17.7761 20 17.5C20 17.2239 20.2239 17 20.5 17C20.2239 17 20 16.7761 20 16.5C20 16.2239 20.2239 16 20.5 16C20.2239 16 20 15.7761 20 15.5C20 15.2239 20.2239 15 20.5 15C20.2239 15 20 14.7761 20 14.5C20 14.7761 19.7761 15 19.5 15C19.2239 15 19 14.7761 19 14.5C19 14.7761 18.7761 15 18.5 15C18.2239 15 18 14.7761 18 14.5C18 14.2239 18.2239 14 18.5 14C18.2239 14 18 13.7761 18 13.5C18 13.7761 17.7761 14 17.5 14C17.2239 14 17 13.7761 17 13.5C17 13.7761 16.7761 14 16.5 14C16.2239 14 16 13.7761 16 13.5C16 13.7761 15.7761 14 15.5 14C15.7761 14 16 14.2239 16 14.5C16 14.7761 15.7761 15 15.5 15C15.2239 15 15 14.7761 15 14.5C15 14.7761 14.7761 15 14.5 15C14.2239 15 14 14.7761 14 14.5C14 14.7761 13.7761 15 13.5 15C13.2239 15 13 14.7761 13 14.5C13 14.7761 12.7761 15 12.5 15C12.2239 15 12 14.7761 12 14.5C12 14.2239 12.2239 14 12.5 14C12.2239 14 12 13.7761 12 13.5C12 13.7761 11.7761 14 11.5 14C11.2239 14 11 13.7761 11 13.5C11 13.2239 11.2239 13 11.5 13C11.2239 13 11 12.7761 11 12.5C11 12.7761 10.7761 13 10.5 13C10.2239 13 10 12.7761 10 12.5C10 12.2239 10.2239 12 10.5 12C10.2239 12 10 11.7761 10 11.5C10 11.7761 9.77614 12 9.5 12C9.22386 12 9 11.7761 9 11.5C9 11.2239 9.22386 11 9.5 11C9.22386 11 9 10.7761 9 10.5C9 10.2239 9.22386 10 9.5 10C9.22386 10 9 9.77614 9 9.5C9 9.22386 9.22386 9 9.5 9C9.22386 9 9 8.77614 9 8.5C9 8.22386 9.22386 8 9.5 8C9.77614 8 10 8.22386 10 8.5C10 8.22386 10.2239 8 10.5 8C10.2239 8 10 7.77614 10 7.5C10 7.22386 10.2239 7 10.5 7C10.2239 7 10 6.77614 10 6.5C10 6.22386 10.2239 6 10.5 6C10.2239 6 10 5.77614 10 5.5C10 5.77614 9.77614 6 9.5 6C9.22386 6 9 5.77614 9 5.5C9 5.22386 9.22386 5 9.5 5C9.22386 5 9 4.77614 9 4.5C9 4.22386 9.22386 4 9.5 4C9.22386 4 9 3.77614 9 3.5C9 3.77614 8.77614 4 8.5 4C8.22386 4 8 3.77614 8 3.5C8 3.77614 7.77614 4 7.5 4C7.22386 4 7 3.77614 7 3.5C7 3.77614 6.77614 4 6.5 4C6.22386 4 6 3.77614 6 3.5C6 3.77614 5.77614 4 5.5 4C5.22386 4 5 3.77614 5 3.5C5 3.77614 4.77614 4 4.5 4C4.77614 4 5 4.22386 5 4.5C5 4.77614 4.77614 5 4.5 5ZM4.5 6C4.22386 6 4 5.77614 4 5.5C4 5.22386 4.22386 5 4.5 5C4.77614 5 5 5.22386 5 5.5C5 5.77614 4.77614 6 4.5 6ZM4.5 7C4.22386 7 4 6.77614 4 6.5C4 6.22386 4.22386 6 4.5 6C4.77614 6 5 6.22386 5 6.5C5 6.77614 4.77614 7 4.5 7ZM6 4.5C6 4.22386 6.22386 4 6.5 4C6.77614 4 7 4.22386 7 4.5C7 4.77614 6.77614 5 6.5 5C6.22386 5 6 4.77614 6 4.5ZM8 4.5C8 4.22386 7.77614 4 7.5 4C7.22386 4 7 4.22386 7 4.5C7 4.77614 7.22386 5 7.5 5C7.77614 5 8 4.77614 8 4.5ZM6 4.5C6 4.22386 5.77614 4 5.5 4C5.22386 4 5 4.22386 5 4.5C5 4.77614 5.22386 5 5.5 5C5.77614 5 6 4.77614 6 4.5ZM8 4.5C8 4.22386 8.22386 4 8.5 4C8.77614 4 9 4.22386 9 4.5C9 4.77614 8.77614 5 8.5 5C8.22386 5 8 4.77614 8 4.5ZM9.5 7C9.77614 7 10 6.77614 10 6.5C10 6.22386 9.77614 6 9.5 6C9.22386 6 9 6.22386 9 6.5C9 6.77614 9.22386 7 9.5 7ZM9.5 7C9.22386 7 9 7.22386 9 7.5C9 7.77614 9.22386 8 9.5 8C9.77614 8 10 7.77614 10 7.5C10 7.22386 9.77614 7 9.5 7ZM8.5 10C8.77614 10 9 9.77614 9 9.5C9 9.22386 8.77614 9 8.5 9C8.22386 9 8 9.22386 8 9.5C8 9.77614 8.22386 10 8.5 10ZM8.5 11C8.77614 11 9 10.7761 9 10.5C9 10.2239 8.77614 10 8.5 10C8.22386 10 8 10.2239 8 10.5C8 10.7761 8.22386 11 8.5 11ZM8.5 11C8.22386 11 8 11.2239 8 11.5C8 11.7761 8.22386 12 8.5 12C8.77614 12 9 11.7761 9 11.5C9 11.2239 8.77614 11 8.5 11ZM9.5 12C9.77614 12 10 12.2239 10 12.5C10 12.7761 9.77614 13 9.5 13C9.22386 13 9 12.7761 9 12.5C9 12.2239 9.22386 12 9.5 12ZM10.5 13C10.2239 13 10 13.2239 10 13.5C10 13.7761 10.2239 14 10.5 14C10.7761 14 11 13.7761 11 13.5C11 13.2239 10.7761 13 10.5 13ZM11.5 14C11.7761 14 12 14.2239 12 14.5C12 14.7761 11.7761 15 11.5 15C11.2239 15 11 14.7761 11 14.5C11 14.2239 11.2239 14 11.5 14ZM13 15.5C13 15.2239 13.2239 15 13.5 15C13.7761 15 14 15.2239 14 15.5C14 15.7761 13.7761 16 13.5 16C13.2239 16 13 15.7761 13 15.5ZM15 15.5C15 15.2239 15.2239 15 15.5 15C15.7761 15 16 15.2239 16 15.5C16 15.7761 15.7761 16 15.5 16C15.2239 16 15 15.7761 15 15.5ZM15 15.5C15 15.7761 14.7761 16 14.5 16C14.2239 16 14 15.7761 14 15.5C14 15.2239 14.2239 15 14.5 15C14.7761 15 15 15.2239 15 15.5ZM13 15.5C13 15.7761 12.7761 16 12.5 16C12.2239 16 12 15.7761 12 15.5C12 15.2239 12.2239 15 12.5 15C12.7761 15 13 15.2239 13 15.5ZM17 14.5C17 14.2239 16.7761 14 16.5 14C16.2239 14 16 14.2239 16 14.5C16 14.7761 16.2239 15 16.5 15C16.7761 15 17 14.7761 17 14.5ZM17 14.5C17 14.7761 17.2239 15 17.5 15C17.7761 15 18 14.7761 18 14.5C18 14.2239 17.7761 14 17.5 14C17.2239 14 17 14.2239 17 14.5ZM19.5 16C19.7761 16 20 16.2239 20 16.5C20 16.7761 19.7761 17 19.5 17C19.2239 17 19 16.7761 19 16.5C19 16.2239 19.2239 16 19.5 16ZM19.5 18C19.2239 18 19 17.7761 19 17.5C19 17.2239 19.2239 17 19.5 17C19.7761 17 20 17.2239 20 17.5C20 17.7761 19.7761 18 19.5 18ZM19.5 19C19.7761 19 20 18.7761 20 18.5C20 18.2239 19.7761 18 19.5 18C19.2239 18 19 18.2239 19 18.5C19 18.7761 19.2239 19 19.5 19ZM19 19.5C19 19.2239 19.2239 19 19.5 19C19.7761 19 20 19.2239 20 19.5C20 19.7761 19.7761 20 19.5 20C19.2239 20 19 19.7761 19 19.5ZM18 19.5C18 19.7761 18.2239 20 18.5 20C18.7761 20 19 19.7761 19 19.5C19 19.2239 18.7761 19 18.5 19C18.2239 19 18 19.2239 18 19.5ZM17 19.5C17 19.7761 16.7761 20 16.5 20C16.2239 20 16 19.7761 16 19.5C16 19.2239 16.2239 19 16.5 19C16.7761 19 17 19.2239 17 19.5ZM17 19.5C17 19.2239 17.2239 19 17.5 19C17.7761 19 18 19.2239 18 19.5C18 19.7761 17.7761 20 17.5 20C17.2239 20 17 19.7761 17 19.5ZM19.5 16C19.7761 16 20 15.7761 20 15.5C20 15.2239 19.7761 15 19.5 15C19.2239 15 19 15.2239 19 15.5C19 15.7761 19.2239 16 19.5 16ZM14.5 19C14.7761 19 15 18.7761 15 18.5C15 18.2239 14.7761 18 14.5 18C14.2239 18 14 18.2239 14 18.5C14 18.7761 14.2239 19 14.5 19ZM12.5 18C12.2239 18 12 17.7761 12 17.5C12 17.2239 12.2239 17 12.5 17C12.7761 17 13 17.2239 13 17.5C13 17.7761 12.7761 18 12.5 18ZM10.5 17C10.7761 17 11 16.7761 11 16.5C11 16.2239 10.7761 16 10.5 16C10.2239 16 10 16.2239 10 16.5C10 16.7761 10.2239 17 10.5 17ZM9.5 16C9.77614 16 10 15.7761 10 15.5C10 15.2239 9.77614 15 9.5 15C9.22386 15 9 15.2239 9 15.5C9 15.7761 9.22386 16 9.5 16ZM8.5 15C8.22386 15 8 14.7761 8 14.5C8 14.2239 8.22386 14 8.5 14C8.77614 14 9 14.2239 9 14.5C9 14.7761 8.77614 15 8.5 15ZM7.5 14C7.22386 14 7 13.7761 7 13.5C7 13.2239 7.22386 13 7.5 13C7.77614 13 8 13.2239 8 13.5C8 13.7761 7.77614 14 7.5 14ZM6.5 12C6.22386 12 6 11.7761 6 11.5C6 11.2239 6.22386 11 6.5 11C6.77614 11 7 11.2239 7 11.5C7 11.7761 6.77614 12 6.5 12ZM5.5 10C5.77614 10 6 9.77614 6 9.5C6 9.22386 5.77614 9 5.5 9C5.22386 9 5 9.22386 5 9.5C5 9.77614 5.22386 10 5.5 10ZM4.5 7C4.77614 7 5 7.22386 5 7.5C5 7.77614 4.77614 8 4.5 8C4.22386 8 4 7.77614 4 7.5C4 7.22386 4.22386 7 4.5 7Z" fill="white"/>
</svg>
