<svg width="24" height="24" viewBox="0 0 24 24" fill="none" xmlns="http://www.w3.org/2000/svg">
<path fill-rule="evenodd" clip-rule="evenodd" d="M3.5 3C3.77614 3 4 3.22386 4 3.5C4 3.77614 3.77614 4 3.5 4C3.22386 4 3 3.77614 3 3.5C3 3.22386 3.22386 3 3.5 3ZM4 4.5C4 4.77614 3.77614 5 3.5 5C3.22386 5 3 4.77614 3 4.5C3 4.22386 3.22386 4 3.5 4C3.77614 4 4 4.22386 4 4.5ZM4.5 4C4.22386 4 4 4.22386 4 4.5C4 4.77614 4.22386 5 4.5 5C4.22386 5 4 5.22386 4 5.5C4 5.77614 4.22386 6 4.5 6C4.77614 6 5 5.77614 5 5.5C5 5.77614 5.22386 6 5.5 6C5.22386 6 5 6.22386 5 6.5C5 6.77614 5.22386 7 5.5 7C5.77614 7 6 6.77614 6 6.5C6 6.77614 6.22386 7 6.5 7C6.22386 7 6 7.22386 6 7.5C6 7.77614 6.22386 8 6.5 8C6.77614 8 7 7.77614 7 7.5C7 7.77614 7.22386 8 7.5 8C7.22386 8 7 8.22386 7 8.5C7 8.77614 7.22386 9 7.5 9C7.77614 9 8 8.77614 8 8.5C8 8.77614 8.22386 9 8.5 9C8.22386 9 8 9.22386 8 9.5C8 9.77614 8.22386 10 8.5 10C8.77614 10 9 9.77614 9 9.5C9 9.77614 9.22386 10 9.5 10C9.22386 10 9 10.2239 9 10.5C9 10.7761 9.22386 11 9.5 11C9.77614 11 10 10.7761 10 10.5C10 10.2239 9.77614 10 9.5 10C9.77614 10 10 9.77614 10 9.5C10 9.77614 10.2239 10 10.5 10C10.7761 10 11 9.77614 11 9.5C11 9.22386 10.7761 9 10.5 9C10.2239 9 10 9.22386 10 9.5C10 9.22386 9.77614 9 9.5 9C9.77614 9 10 8.77614 10 8.5C10 8.22386 9.77614 8 9.5 8C9.22386 8 9 8.22386 9 8.5C9 8.22386 8.77614 8 8.5 8C8.77614 8 9 7.77614 9 7.5C9 7.22386 8.77614 7 8.5 7C8.22386 7 8 7.22386 8 7.5C8 7.22386 7.77614 7 7.5 7C7.77614 7 8 6.77614 8 6.5C8 6.22386 7.77614 6 7.5 6C7.22386 6 7 6.22386 7 6.5C7 6.22386 6.77614 6 6.5 6C6.77614 6 7 5.77614 7 5.5C7 5.22386 6.77614 5 6.5 5C6.22386 5 6 5.22386 6 5.5C6 5.22386 5.77614 5 5.5 5C5.77614 5 6 4.77614 6 4.5C6 4.22386 5.77614 4 5.5 4C5.22386 4 5 4.22386 5 4.5C5 4.22386 4.77614 4 4.5 4ZM4.5 4C4.77614 4 5 3.77614 5 3.5C5 3.22386 4.77614 3 4.5 3C4.22386 3 4 3.22386 4 3.5C4 3.77614 4.22386 4 4.5 4ZM5 4.5C5 4.77614 4.77614 5 4.5 5C4.77614 5 5 5.22386 5 5.5C5 5.22386 5.22386 5 5.5 5C5.22386 5 5 4.77614 5 4.5ZM6 5.5C6 5.77614 6.22386 6 6.5 6C6.22386 6 6 6.22386 6 6.5C6 6.22386 5.77614 6 5.5 6C5.77614 6 6 5.77614 6 5.5ZM7 6.5C7 6.77614 6.77614 7 6.5 7C6.77614 7 7 7.22386 7 7.5C7 7.22386 7.22386 7 7.5 7C7.22386 7 7 6.77614 7 6.5ZM8 7.5C8 7.77614 8.22386 8 8.5 8C8.22386 8 8 8.22386 8 8.5C8 8.22386 7.77614 8 7.5 8C7.77614 8 8 7.77614 8 7.5ZM9 8.5C9 8.77614 8.77614 9 8.5 9C8.77614 9 9 9.22386 9 9.5C9 9.22386 9.22386 9 9.5 9C9.22386 9 9 8.77614 9 8.5ZM15.5 14C15.7761 14 16 14.2239 16 14.5C16 14.7761 15.7761 15 15.5 15C15.2239 15 15 14.7761 15 14.5C15 14.2239 15.2239 14 15.5 14ZM14.5 15C14.2239 15 14 14.7761 14 14.5C14 14.2239 14.2239 14 14.5 14C14.7761 14 15 14.2239 15 14.5C15 14.7761 14.7761 15 14.5 15ZM15 15.5C15 15.7761 14.7761 16 14.5 16C14.2239 16 14 15.7761 14 15.5C14 15.2239 14.2239 15 14.5 15C14.7761 15 15 15.2239 15 15.5ZM15.5 16C15.2239 16 15 15.7761 15 15.5C15 15.2239 15.2239 15 15.5 15C15.7761 15 16 15.2239 16 15.5C16 15.7761 15.7761 16 15.5 16ZM16 16.5C16 16.7761 15.7761 17 15.5 17C15.2239 17 15 16.7761 15 16.5C15 16.2239 15.2239 16 15.5 16C15.7761 16 16 16.2239 16 16.5ZM16.5 16C16.2239 16 16 16.2239 16 16.5C16 16.7761 16.2239 17 16.5 17C16.2239 17 16 17.2239 16 17.5C16 17.7761 16.2239 18 16.5 18C16.7761 18 17 17.7761 17 17.5C17 17.7761 17.2239 18 17.5 18C17.2239 18 17 18.2239 17 18.5C17 18.7761 17.2239 19 17.5 19C17.2239 19 17 19.2239 17 19.5C17 19.2239 16.7761 19 16.5 19C16.2239 19 16 19.2239 16 19.5C16 19.2239 15.7761 19 15.5 19C15.2239 19 15 19.2239 15 19.5C15 19.2239 14.7761 19 14.5 19C14.2239 19 14 19.2239 14 19.5C14 19.7761 14.2239 20 14.5 20C14.2239 20 14 20.2239 14 20.5C14 20.7761 14.2239 21 14.5 21C14.7761 21 15 20.7761 15 20.5C15 20.7761 15.2239 21 15.5 21C15.7761 21 16 20.7761 16 20.5C16 20.7761 16.2239 21 16.5 21C16.7761 21 17 20.7761 17 20.5C17 20.7761 17.2239 21 17.5 21C17.7761 21 18 20.7761 18 20.5C18 20.7761 18.2239 21 18.5 21C18.7761 21 19 20.7761 19 20.5C19 20.7761 19.2239 21 19.5 21C19.7761 21 20 20.7761 20 20.5C20 20.7761 20.2239 21 20.5 21C20.7761 21 21 20.7761 21 20.5C21 20.2239 20.7761 20 20.5 20C20.7761 20 21 19.7761 21 19.5C21 19.2239 20.7761 19 20.5 19C20.7761 19 21 18.7761 21 18.5C21 18.2239 20.7761 18 20.5 18C20.7761 18 21 17.7761 21 17.5C21 17.2239 20.7761 17 20.5 17C20.7761 17 21 16.7761 21 16.5C21 16.2239 20.7761 16 20.5 16C20.7761 16 21 15.7761 21 15.5C21 15.2239 20.7761 15 20.5 15C20.7761 15 21 14.7761 21 14.5C21 14.2239 20.7761 14 20.5 14C20.2239 14 20 14.2239 20 14.5C20 14.2239 19.7761 14 19.5 14C19.2239 14 19 14.2239 19 14.5C19 14.7761 19.2239 15 19.5 15C19.2239 15 19 15.2239 19 15.5C19 15.7761 19.2239 16 19.5 16C19.2239 16 19 16.2239 19 16.5C19 16.7761 19.2239 17 19.5 17C19.2239 17 19 17.2239 19 17.5C19 17.2239 18.7761 17 18.5 17C18.2239 17 18 17.2239 18 17.5C18 17.2239 17.7761 17 17.5 17C17.7761 17 18 16.7761 18 16.5C18 16.2239 17.7761 16 17.5 16C17.2239 16 17 16.2239 17 16.5C17 16.2239 16.7761 16 16.5 16ZM16.5 16C16.7761 16 17 15.7761 17 15.5C17 15.2239 16.7761 15 16.5 15C16.2239 15 16 15.2239 16 15.5C16 15.7761 16.2239 16 16.5 16ZM17 16.5C17 16.7761 17.2239 17 17.5 17C17.2239 17 17 17.2239 17 17.5C17 17.2239 16.7761 17 16.5 17C16.7761 17 17 16.7761 17 16.5ZM18.5 18C18.7761 18 19 17.7761 19 17.5C19 17.7761 19.2239 18 19.5 18C19.2239 18 19 18.2239 19 18.5C19 18.2239 18.7761 18 18.5 18ZM18 18.5C18 18.2239 18.2239 18 18.5 18C18.2239 18 18 17.7761 18 17.5C18 17.7761 17.7761 18 17.5 18C17.7761 18 18 18.2239 18 18.5ZM18.5 19C18.2239 19 18 18.7761 18 18.5C18 18.7761 17.7761 19 17.5 19C17.7761 19 18 19.2239 18 19.5C18 19.7761 17.7761 20 17.5 20C17.2239 20 17 19.7761 17 19.5C17 19.7761 16.7761 20 16.5 20C16.2239 20 16 19.7761 16 19.5C16 19.7761 15.7761 20 15.5 20C15.2239 20 15 19.7761 15 19.5C15 19.7761 14.7761 20 14.5 20C14.7761 20 15 20.2239 15 20.5C15 20.2239 15.2239 20 15.5 20C15.7761 20 16 20.2239 16 20.5C16 20.2239 16.2239 20 16.5 20C16.7761 20 17 20.2239 17 20.5C17 20.2239 17.2239 20 17.5 20C17.7761 20 18 20.2239 18 20.5C18 20.2239 18.2239 20 18.5 20C18.7761 20 19 20.2239 19 20.5C19 20.2239 19.2239 20 19.5 20C19.7761 20 20 20.2239 20 20.5C20 20.2239 20.2239 20 20.5 20C20.2239 20 20 19.7761 20 19.5C20 19.2239 20.2239 19 20.5 19C20.2239 19 20 18.7761 20 18.5C20 18.2239 20.2239 18 20.5 18C20.2239 18 20 17.7761 20 17.5C20 17.2239 20.2239 17 20.5 17C20.2239 17 20 16.7761 20 16.5C20 16.2239 20.2239 16 20.5 16C20.2239 16 20 15.7761 20 15.5C20 15.2239 20.2239 15 20.5 15C20.2239 15 20 14.7761 20 14.5C20 14.7761 19.7761 15 19.5 15C19.7761 15 20 15.2239 20 15.5C20 15.7761 19.7761 16 19.5 16C19.7761 16 20 16.2239 20 16.5C20 16.7761 19.7761 17 19.5 17C19.7761 17 20 17.2239 20 17.5C20 17.7761 19.7761 18 19.5 18C19.7761 18 20 18.2239 20 18.5C20 18.7761 19.7761 19 19.5 19C19.2239 19 19 18.7761 19 18.5C19 18.7761 18.7761 19 18.5 19ZM19 19.5C19 19.7761 18.7761 20 18.5 20C18.2239 20 18 19.7761 18 19.5C18 19.2239 18.2239 19 18.5 19C18.7761 19 19 19.2239 19 19.5ZM19 19.5C19 19.2239 19.2239 19 19.5 19C19.7761 19 20 19.2239 20 19.5C20 19.7761 19.7761 20 19.5 20C19.2239 20 19 19.7761 19 19.5ZM16 9.5C16 9.77614 15.7761 10 15.5 10C15.2239 10 15 9.77614 15 9.5C15 9.22386 15.2239 9 15.5 9C15.7761 9 16 9.22386 16 9.5ZM15 8.5C15 8.77614 15.2239 9 15.5 9C15.7761 9 16 8.77614 16 8.5C16 8.77614 16.2239 9 16.5 9C16.7761 9 17 8.77614 17 8.5C17 8.22386 16.7761 8 16.5 8C16.7761 8 17 7.77614 17 7.5C17 7.77614 17.2239 8 17.5 8C17.7761 8 18 7.77614 18 7.5C18 7.22386 17.7761 7 17.5 7C17.7761 7 18 6.77614 18 6.5C18 6.77614 18.2239 7 18.5 7C18.7761 7 19 6.77614 19 6.5C19 6.77614 19.2239 7 19.5 7C19.2239 7 19 7.22386 19 7.5C19 7.77614 19.2239 8 19.5 8C19.2239 8 19 8.22386 19 8.5C19 8.77614 19.2239 9 19.5 9C19.2239 9 19 9.22386 19 9.5C19 9.77614 19.2239 10 19.5 10C19.7761 10 20 9.77614 20 9.5C20 9.77614 20.2239 10 20.5 10C20.7761 10 21 9.77614 21 9.5C21 9.22386 20.7761 9 20.5 9C20.7761 9 21 8.77614 21 8.5C21 8.22386 20.7761 8 20.5 8C20.7761 8 21 7.77614 21 7.5C21 7.22386 20.7761 7 20.5 7C20.7761 7 21 6.77614 21 6.5C21 6.22386 20.7761 6 20.5 6C20.7761 6 21 5.77614 21 5.5C21 5.22386 20.7761 5 20.5 5C20.7761 5 21 4.77614 21 4.5C21 4.22386 20.7761 4 20.5 4C20.7761 4 21 3.77614 21 3.5C21 3.22386 20.7761 3 20.5 3C20.2239 3 20 3.22386 20 3.5C20 3.22386 19.7761 3 19.5 3C19.2239 3 19 3.22386 19 3.5C19 3.22386 18.7761 3 18.5 3C18.2239 3 18 3.22386 18 3.5C18 3.22386 17.7761 3 17.5 3C17.2239 3 17 3.22386 17 3.5C17 3.22386 16.7761 3 16.5 3C16.2239 3 16 3.22386 16 3.5C16 3.22386 15.7761 3 15.5 3C15.2239 3 15 3.22386 15 3.5C15 3.22386 14.7761 3 14.5 3C14.2239 3 14 3.22386 14 3.5C14 3.77614 14.2239 4 14.5 4C14.2239 4 14 4.22386 14 4.5C14 4.77614 14.2239 5 14.5 5C14.7761 5 15 4.77614 15 4.5C15 4.77614 15.2239 5 15.5 5C15.7761 5 16 4.77614 16 4.5C16 4.77614 16.2239 5 16.5 5C16.7761 5 17 4.77614 17 4.5C17 4.77614 17.2239 5 17.5 5C17.2239 5 17 5.22386 17 5.5C17 5.77614 17.2239 6 17.5 6C17.2239 6 17 6.22386 17 6.5C17 6.22386 16.7761 6 16.5 6C16.2239 6 16 6.22386 16 6.5C16 6.77614 16.2239 7 16.5 7C16.2239 7 16 7.22386 16 7.5C16 7.22386 15.7761 7 15.5 7C15.2239 7 15 7.22386 15 7.5C15 7.77614 15.2239 8 15.5 8C15.2239 8 15 8.22386 15 8.5ZM14.5 9C14.2239 9 14 8.77614 14 8.5C14 8.22386 14.2239 8 14.5 8C14.7761 8 15 8.22386 15 8.5C15 8.77614 14.7761 9 14.5 9ZM14 9.5C14 9.22386 14.2239 9 14.5 9C14.7761 9 15 9.22386 15 9.5C15 9.77614 14.7761 10 14.5 10C14.2239 10 14 9.77614 14 9.5ZM13.5 10C13.2239 10 13 9.77614 13 9.5C13 9.22386 13.2239 9 13.5 9C13.7761 9 14 9.22386 14 9.5C14 9.77614 13.7761 10 13.5 10ZM14 10.5C14 10.2239 13.7761 10 13.5 10C13.2239 10 13 10.2239 13 10.5C13 10.2239 12.7761 10 12.5 10C12.2239 10 12 10.2239 12 10.5C12 10.7761 12.2239 11 12.5 11C12.2239 11 12 11.2239 12 11.5C12 11.2239 11.7761 11 11.5 11C11.2239 11 11 11.2239 11 11.5C11 11.7761 11.2239 12 11.5 12C11.2239 12 11 12.2239 11 12.5C11 12.2239 10.7761 12 10.5 12C10.2239 12 10 12.2239 10 12.5C10 12.7761 10.2239 13 10.5 13C10.2239 13 10 13.2239 10 13.5C10 13.2239 9.77614 13 9.5 13C9.22386 13 9 13.2239 9 13.5C9 13.7761 9.22386 14 9.5 14C9.22386 14 9 14.2239 9 14.5C9 14.2239 8.77614 14 8.5 14C8.22386 14 8 14.2239 8 14.5C8 14.7761 8.22386 15 8.5 15C8.22386 15 8 15.2239 8 15.5C8 15.2239 7.77614 15 7.5 15C7.22386 15 7 15.2239 7 15.5C7 15.7761 7.22386 16 7.5 16C7.22386 16 7 16.2239 7 16.5C7 16.2239 6.77614 16 6.5 16C6.22386 16 6 16.2239 6 16.5C6 16.7761 6.22386 17 6.5 17C6.22386 17 6 17.2239 6 17.5C6 17.2239 5.77614 17 5.5 17C5.22386 17 5 17.2239 5 17.5C5 17.7761 5.22386 18 5.5 18C5.22386 18 5 18.2239 5 18.5C5 18.2239 4.77614 18 4.5 18C4.22386 18 4 18.2239 4 18.5C4 18.7761 4.22386 19 4.5 19C4.22386 19 4 19.2239 4 19.5C4 19.2239 3.77614 19 3.5 19C3.22386 19 3 19.2239 3 19.5C3 19.7761 3.22386 20 3.5 20C3.22386 20 3 20.2239 3 20.5C3 20.7761 3.22386 21 3.5 21C3.77614 21 4 20.7761 4 20.5C4 20.7761 4.22386 21 4.5 21C4.77614 21 5 20.7761 5 20.5C5 20.2239 4.77614 20 4.5 20C4.77614 20 5 19.7761 5 19.5C5 19.7761 5.22386 20 5.5 20C5.77614 20 6 19.7761 6 19.5C6 19.2239 5.77614 19 5.5 19C5.77614 19 6 18.7761 6 18.5C6 18.7761 6.22386 19 6.5 19C6.77614 19 7 18.7761 7 18.5C7 18.2239 6.77614 18 6.5 18C6.77614 18 7 17.7761 7 17.5C7 17.7761 7.22386 18 7.5 18C7.77614 18 8 17.7761 8 17.5C8 17.2239 7.77614 17 7.5 17C7.77614 17 8 16.7761 8 16.5C8 16.7761 8.22386 17 8.5 17C8.77614 17 9 16.7761 9 16.5C9 16.2239 8.77614 16 8.5 16C8.77614 16 9 15.7761 9 15.5C9 15.7761 9.22386 16 9.5 16C9.77614 16 10 15.7761 10 15.5C10 15.2239 9.77614 15 9.5 15C9.77614 15 10 14.7761 10 14.5C10 14.7761 10.2239 15 10.5 15C10.7761 15 11 14.7761 11 14.5C11 14.2239 10.7761 14 10.5 14C10.7761 14 11 13.7761 11 13.5C11 13.7761 11.2239 14 11.5 14C11.7761 14 12 13.7761 12 13.5C12 13.2239 11.7761 13 11.5 13C11.7761 13 12 12.7761 12 12.5C12 12.7761 12.2239 13 12.5 13C12.7761 13 13 12.7761 13 12.5C13 12.2239 12.7761 12 12.5 12C12.7761 12 13 11.7761 13 11.5C13 11.7761 13.2239 12 13.5 12C13.7761 12 14 11.7761 14 11.5C14 11.2239 13.7761 11 13.5 11C13.7761 11 14 10.7761 14 10.5ZM14 10.5C14 10.7761 14.2239 11 14.5 11C14.7761 11 15 10.7761 15 10.5C15 10.2239 14.7761 10 14.5 10C14.2239 10 14 10.2239 14 10.5ZM13.5 11C13.2239 11 13 10.7761 13 10.5C13 10.7761 12.7761 11 12.5 11C12.7761 11 13 11.2239 13 11.5C13 11.2239 13.2239 11 13.5 11ZM12.5 12C12.2239 12 12 12.2239 12 12.5C12 12.2239 11.7761 12 11.5 12C11.7761 12 12 11.7761 12 11.5C12 11.7761 12.2239 12 12.5 12ZM11.5 13C11.2239 13 11 12.7761 11 12.5C11 12.7761 10.7761 13 10.5 13C10.7761 13 11 13.2239 11 13.5C11 13.2239 11.2239 13 11.5 13ZM10.5 14C10.2239 14 10 14.2239 10 14.5C10 14.2239 9.77614 14 9.5 14C9.77614 14 10 13.7761 10 13.5C10 13.7761 10.2239 14 10.5 14ZM9.5 15C9.22386 15 9 14.7761 9 14.5C9 14.7761 8.77614 15 8.5 15C8.77614 15 9 15.2239 9 15.5C9 15.2239 9.22386 15 9.5 15ZM8.5 16C8.22386 16 8 16.2239 8 16.5C8 16.2239 7.77614 16 7.5 16C7.77614 16 8 15.7761 8 15.5C8 15.7761 8.22386 16 8.5 16ZM7.5 17C7.22386 17 7 16.7761 7 16.5C7 16.7761 6.77614 17 6.5 17C6.77614 17 7 17.2239 7 17.5C7 17.2239 7.22386 17 7.5 17ZM6.5 18C6.22386 18 6 18.2239 6 18.5C6 18.2239 5.77614 18 5.5 18C5.77614 18 6 17.7761 6 17.5C6 17.7761 6.22386 18 6.5 18ZM5.5 19C5.22386 19 5 18.7761 5 18.5C5 18.7761 4.77614 19 4.5 19C4.77614 19 5 19.2239 5 19.5C5 19.2239 5.22386 19 5.5 19ZM4.5 20C4.22386 20 4 20.2239 4 20.5C4 20.2239 3.77614 20 3.5 20C3.77614 20 4 19.7761 4 19.5C4 19.7761 4.22386 20 4.5 20ZM16.5 7C16.7761 7 17 6.77614 17 6.5C17 6.77614 17.2239 7 17.5 7C17.2239 7 17 7.22386 17 7.5C17 7.22386 16.7761 7 16.5 7ZM18 5.5C18 5.22386 17.7761 5 17.5 5C17.7761 5 18 4.77614 18 4.5C18 4.77614 18.2239 5 18.5 5C18.2239 5 18 5.22386 18 5.5ZM18.5 6C18.2239 6 18 6.22386 18 6.5C18 6.22386 17.7761 6 17.5 6C17.7761 6 18 5.77614 18 5.5C18 5.77614 18.2239 6 18.5 6ZM19 5.5C19 5.77614 18.7761 6 18.5 6C18.7761 6 19 6.22386 19 6.5C19 6.22386 19.2239 6 19.5 6C19.7761 6 20 6.22386 20 6.5C20 6.77614 19.7761 7 19.5 7C19.7761 7 20 7.22386 20 7.5C20 7.77614 19.7761 8 19.5 8C19.7761 8 20 8.22386 20 8.5C20 8.77614 19.7761 9 19.5 9C19.7761 9 20 9.22386 20 9.5C20 9.22386 20.2239 9 20.5 9C20.2239 9 20 8.77614 20 8.5C20 8.22386 20.2239 8 20.5 8C20.2239 8 20 7.77614 20 7.5C20 7.22386 20.2239 7 20.5 7C20.2239 7 20 6.77614 20 6.5C20 6.22386 20.2239 6 20.5 6C20.2239 6 20 5.77614 20 5.5C20 5.22386 20.2239 5 20.5 5C20.2239 5 20 4.77614 20 4.5C20 4.22386 20.2239 4 20.5 4C20.2239 4 20 3.77614 20 3.5C20 3.77614 19.7761 4 19.5 4C19.2239 4 19 3.77614 19 3.5C19 3.77614 18.7761 4 18.5 4C18.2239 4 18 3.77614 18 3.5C18 3.77614 17.7761 4 17.5 4C17.2239 4 17 3.77614 17 3.5C17 3.77614 16.7761 4 16.5 4C16.2239 4 16 3.77614 16 3.5C16 3.77614 15.7761 4 15.5 4C15.2239 4 15 3.77614 15 3.5C15 3.77614 14.7761 4 14.5 4C14.7761 4 15 4.22386 15 4.5C15 4.22386 15.2239 4 15.5 4C15.7761 4 16 4.22386 16 4.5C16 4.22386 16.2239 4 16.5 4C16.7761 4 17 4.22386 17 4.5C17 4.22386 17.2239 4 17.5 4C17.7761 4 18 4.22386 18 4.5C18 4.22386 18.2239 4 18.5 4C18.7761 4 19 4.22386 19 4.5C19 4.77614 18.7761 5 18.5 5C18.7761 5 19 5.22386 19 5.5ZM19.5 5C19.7761 5 20 5.22386 20 5.5C20 5.77614 19.7761 6 19.5 6C19.2239 6 19 5.77614 19 5.5C19 5.22386 19.2239 5 19.5 5ZM19.5 5C19.7761 5 20 4.77614 20 4.5C20 4.22386 19.7761 4 19.5 4C19.2239 4 19 4.22386 19 4.5C19 4.77614 19.2239 5 19.5 5ZM16 7.5C16 7.77614 16.2239 8 16.5 8C16.2239 8 16 8.22386 16 8.5C16 8.22386 15.7761 8 15.5 8C15.7761 8 16 7.77614 16 7.5Z" fill="white"/>
</svg>
