<svg width="24" height="24" viewBox="0 0 24 24" fill="none" xmlns="http://www.w3.org/2000/svg">
<path fill-rule="evenodd" clip-rule="evenodd" d="M4.5 5C4.22386 5 4 5.22386 4 5.5C4 5.77614 4.22386 6 4.5 6C4.22386 6 4 6.22386 4 6.5C4 6.77614 4.22386 7 4.5 7C4.22386 7 4 7.22386 4 7.5C4 7.77614 4.22386 8 4.5 8C4.22386 8 4 8.22386 4 8.5C4 8.77614 4.22386 9 4.5 9C4.22386 9 4 9.22386 4 9.5C4 9.77614 4.22386 10 4.5 10C4.22386 10 4 10.2239 4 10.5C4 10.7761 4.22386 11 4.5 11C4.22386 11 4 11.2239 4 11.5C4 11.7761 4.22386 12 4.5 12C4.22386 12 4 12.2239 4 12.5C4 12.7761 4.22386 13 4.5 13C4.22386 13 4 13.2239 4 13.5C4 13.7761 4.22386 14 4.5 14C4.22386 14 4 14.2239 4 14.5C4 14.7761 4.22386 15 4.5 15C4.22386 15 4 15.2239 4 15.5C4 15.7761 4.22386 16 4.5 16C4.22386 16 4 16.2239 4 16.5C4 16.7761 4.22386 17 4.5 17C4.22386 17 4 17.2239 4 17.5C4 17.7761 4.22386 18 4.5 18C4.22386 18 4 18.2239 4 18.5C4 18.7761 4.22386 19 4.5 19C4.77614 19 5 18.7761 5 18.5C5 18.7761 5.22386 19 5.5 19C5.77614 19 6 18.7761 6 18.5C6 18.2239 5.77614 18 5.5 18C5.77614 18 6 17.7761 6 17.5C6 17.2239 5.77614 17 5.5 17C5.77614 17 6 16.7761 6 16.5C6 16.2239 5.77614 16 5.5 16C5.77614 16 6 15.7761 6 15.5C6 15.2239 5.77614 15 5.5 15C5.77614 15 6 14.7761 6 14.5C6 14.2239 5.77614 14 5.5 14C5.77614 14 6 13.7761 6 13.5C6 13.2239 5.77614 13 5.5 13C5.77614 13 6 12.7761 6 12.5C6 12.2239 5.77614 12 5.5 12C5.77614 12 6 11.7761 6 11.5C6 11.2239 5.77614 11 5.5 11C5.77614 11 6 10.7761 6 10.5C6 10.2239 5.77614 10 5.5 10C5.77614 10 6 9.77614 6 9.5C6 9.22386 5.77614 9 5.5 9C5.77614 9 6 8.77614 6 8.5C6 8.22386 5.77614 8 5.5 8C5.77614 8 6 7.77614 6 7.5C6 7.22386 5.77614 7 5.5 7C5.77614 7 6 6.77614 6 6.5C6 6.22386 5.77614 6 5.5 6C5.77614 6 6 5.77614 6 5.5C6 5.22386 5.77614 5 5.5 5C5.22386 5 5 5.22386 5 5.5C5 5.22386 4.77614 5 4.5 5ZM5 6.5C5 6.77614 4.77614 7 4.5 7C4.77614 7 5 7.22386 5 7.5C5 7.77614 4.77614 8 4.5 8C4.77614 8 5 8.22386 5 8.5C5 8.77614 4.77614 9 4.5 9C4.77614 9 5 9.22386 5 9.5C5 9.77614 4.77614 10 4.5 10C4.77614 10 5 10.2239 5 10.5C5 10.7761 4.77614 11 4.5 11C4.77614 11 5 11.2239 5 11.5C5 11.7761 4.77614 12 4.5 12C4.77614 12 5 12.2239 5 12.5C5 12.7761 4.77614 13 4.5 13C4.77614 13 5 13.2239 5 13.5C5 13.7761 4.77614 14 4.5 14C4.77614 14 5 14.2239 5 14.5C5 14.7761 4.77614 15 4.5 15C4.77614 15 5 15.2239 5 15.5C5 15.7761 4.77614 16 4.5 16C4.77614 16 5 16.2239 5 16.5C5 16.7761 4.77614 17 4.5 17C4.77614 17 5 17.2239 5 17.5C5 17.7761 4.77614 18 4.5 18C4.77614 18 5 18.2239 5 18.5C5 18.2239 5.22386 18 5.5 18C5.22386 18 5 17.7761 5 17.5C5 17.2239 5.22386 17 5.5 17C5.22386 17 5 16.7761 5 16.5C5 16.2239 5.22386 16 5.5 16C5.22386 16 5 15.7761 5 15.5C5 15.2239 5.22386 15 5.5 15C5.22386 15 5 14.7761 5 14.5C5 14.2239 5.22386 14 5.5 14C5.22386 14 5 13.7761 5 13.5C5 13.2239 5.22386 13 5.5 13C5.22386 13 5 12.7761 5 12.5C5 12.2239 5.22386 12 5.5 12C5.22386 12 5 11.7761 5 11.5C5 11.2239 5.22386 11 5.5 11C5.22386 11 5 10.7761 5 10.5C5 10.2239 5.22386 10 5.5 10C5.22386 10 5 9.77614 5 9.5C5 9.22386 5.22386 9 5.5 9C5.22386 9 5 8.77614 5 8.5C5 8.22386 5.22386 8 5.5 8C5.22386 8 5 7.77614 5 7.5C5 7.22386 5.22386 7 5.5 7C5.22386 7 5 6.77614 5 6.5ZM5 6.5C5 6.22386 5.22386 6 5.5 6C5.22386 6 5 5.77614 5 5.5C5 5.77614 4.77614 6 4.5 6C4.77614 6 5 6.22386 5 6.5ZM19 18.5C19 18.7761 18.7761 19 18.5 19C18.2239 19 18 18.7761 18 18.5C18 18.2239 18.2239 18 18.5 18C18.7761 18 19 18.2239 19 18.5ZM19.5 18C19.7761 18 20 18.2239 20 18.5C20 18.7761 19.7761 19 19.5 19C19.2239 19 19 18.7761 19 18.5C19 18.2239 19.2239 18 19.5 18ZM19 17.5C19 17.7761 19.2239 18 19.5 18C19.7761 18 20 17.7761 20 17.5C20 17.2239 19.7761 17 19.5 17C19.7761 17 20 16.7761 20 16.5C20 16.2239 19.7761 16 19.5 16C19.7761 16 20 15.7761 20 15.5C20 15.2239 19.7761 15 19.5 15C19.7761 15 20 14.7761 20 14.5C20 14.2239 19.7761 14 19.5 14C19.7761 14 20 13.7761 20 13.5C20 13.2239 19.7761 13 19.5 13C19.7761 13 20 12.7761 20 12.5C20 12.2239 19.7761 12 19.5 12C19.7761 12 20 11.7761 20 11.5C20 11.2239 19.7761 11 19.5 11C19.7761 11 20 10.7761 20 10.5C20 10.2239 19.7761 10 19.5 10C19.7761 10 20 9.77614 20 9.5C20 9.22386 19.7761 9 19.5 9C19.7761 9 20 8.77614 20 8.5C20 8.22386 19.7761 8 19.5 8C19.7761 8 20 7.77614 20 7.5C20 7.22386 19.7761 7 19.5 7C19.7761 7 20 6.77614 20 6.5C20 6.22386 19.7761 6 19.5 6C19.7761 6 20 5.77614 20 5.5C20 5.22386 19.7761 5 19.5 5C19.2239 5 19 5.22386 19 5.5C19 5.22386 18.7761 5 18.5 5C18.2239 5 18 5.22386 18 5.5C18 5.77614 18.2239 6 18.5 6C18.2239 6 18 6.22386 18 6.5C18 6.22386 17.7761 6 17.5 6C17.2239 6 17 6.22386 17 6.5C17 6.77614 17.2239 7 17.5 7C17.2239 7 17 7.22386 17 7.5C17 7.22386 16.7761 7 16.5 7C16.2239 7 16 7.22386 16 7.5C16 7.22386 15.7761 7 15.5 7C15.2239 7 15 7.22386 15 7.5C15 7.77614 15.2239 8 15.5 8C15.2239 8 15 8.22386 15 8.5C15 8.22386 14.7761 8 14.5 8C14.2239 8 14 8.22386 14 8.5C14 8.22386 13.7761 8 13.5 8C13.2239 8 13 8.22386 13 8.5C13 8.77614 13.2239 9 13.5 9C13.2239 9 13 9.22386 13 9.5C13 9.22386 12.7761 9 12.5 9C12.2239 9 12 9.22386 12 9.5C12 9.22386 11.7761 9 11.5 9C11.2239 9 11 9.22386 11 9.5C11 9.77614 11.2239 10 11.5 10C11.2239 10 11 10.2239 11 10.5C11 10.2239 10.7761 10 10.5 10C10.2239 10 10 10.2239 10 10.5C10 10.2239 9.77614 10 9.5 10C9.22386 10 9 10.2239 9 10.5C9 10.7761 9.22386 11 9.5 11C9.22386 11 9 11.2239 9 11.5C9 11.2239 8.77614 11 8.5 11C8.22386 11 8 11.2239 8 11.5C8 11.7761 8.22386 12 8.5 12C8.22386 12 8 12.2239 8 12.5C8 12.7761 8.22386 13 8.5 13C8.77614 13 9 12.7761 9 12.5C9 12.7761 9.22386 13 9.5 13C9.22386 13 9 13.2239 9 13.5C9 13.7761 9.22386 14 9.5 14C9.77614 14 10 13.7761 10 13.5C10 13.7761 10.2239 14 10.5 14C10.7761 14 11 13.7761 11 13.5C11 13.7761 11.2239 14 11.5 14C11.2239 14 11 14.2239 11 14.5C11 14.7761 11.2239 15 11.5 15C11.7761 15 12 14.7761 12 14.5C12 14.7761 12.2239 15 12.5 15C12.7761 15 13 14.7761 13 14.5C13 14.7761 13.2239 15 13.5 15C13.2239 15 13 15.2239 13 15.5C13 15.7761 13.2239 16 13.5 16C13.7761 16 14 15.7761 14 15.5C14 15.7761 14.2239 16 14.5 16C14.7761 16 15 15.7761 15 15.5C15 15.7761 15.2239 16 15.5 16C15.2239 16 15 16.2239 15 16.5C15 16.7761 15.2239 17 15.5 17C15.7761 17 16 16.7761 16 16.5C16 16.7761 16.2239 17 16.5 17C16.7761 17 17 16.7761 17 16.5C17 16.7761 17.2239 17 17.5 17C17.2239 17 17 17.2239 17 17.5C17 17.7761 17.2239 18 17.5 18C17.7761 18 18 17.7761 18 17.5C18 17.7761 18.2239 18 18.5 18C18.7761 18 19 17.7761 19 17.5ZM18.5 17C18.2239 17 18 17.2239 18 17.5C18 17.2239 17.7761 17 17.5 17C17.7761 17 18 16.7761 18 16.5C18 16.7761 18.2239 17 18.5 17ZM18.5 16C18.2239 16 18 16.2239 18 16.5C18 16.2239 17.7761 16 17.5 16C17.2239 16 17 16.2239 17 16.5C17 16.2239 16.7761 16 16.5 16C16.7761 16 17 15.7761 17 15.5C17 15.2239 16.7761 15 16.5 15C16.2239 15 16 15.2239 16 15.5C16 15.2239 15.7761 15 15.5 15C15.2239 15 15 15.2239 15 15.5C15 15.2239 14.7761 15 14.5 15C14.7761 15 15 14.7761 15 14.5C15 14.2239 14.7761 14 14.5 14C14.2239 14 14 14.2239 14 14.5C14 14.2239 13.7761 14 13.5 14C13.2239 14 13 14.2239 13 14.5C13 14.2239 12.7761 14 12.5 14C12.7761 14 13 13.7761 13 13.5C13 13.2239 12.7761 13 12.5 13C12.2239 13 12 13.2239 12 13.5C12 13.2239 11.7761 13 11.5 13C11.2239 13 11 13.2239 11 13.5C11 13.2239 10.7761 13 10.5 13C10.7761 13 11 12.7761 11 12.5C11 12.2239 10.7761 12 10.5 12C10.7761 12 11 11.7761 11 11.5C11 11.2239 10.7761 11 10.5 11C10.7761 11 11 10.7761 11 10.5C11 10.7761 11.2239 11 11.5 11C11.7761 11 12 10.7761 12 10.5C12 10.7761 12.2239 11 12.5 11C12.7761 11 13 10.7761 13 10.5C13 10.2239 12.7761 10 12.5 10C12.7761 10 13 9.77614 13 9.5C13 9.77614 13.2239 10 13.5 10C13.7761 10 14 9.77614 14 9.5C14 9.77614 14.2239 10 14.5 10C14.7761 10 15 9.77614 15 9.5C15 9.22386 14.7761 9 14.5 9C14.7761 9 15 8.77614 15 8.5C15 8.77614 15.2239 9 15.5 9C15.7761 9 16 8.77614 16 8.5C16 8.77614 16.2239 9 16.5 9C16.7761 9 17 8.77614 17 8.5C17 8.22386 16.7761 8 16.5 8C16.7761 8 17 7.77614 17 7.5C17 7.77614 17.2239 8 17.5 8C17.7761 8 18 7.77614 18 7.5C18 7.77614 18.2239 8 18.5 8C18.2239 8 18 8.22386 18 8.5C18 8.77614 18.2239 9 18.5 9C18.2239 9 18 9.22386 18 9.5C18 9.77614 18.2239 10 18.5 10C18.2239 10 18 10.2239 18 10.5C18 10.7761 18.2239 11 18.5 11C18.2239 11 18 11.2239 18 11.5C18 11.7761 18.2239 12 18.5 12C18.2239 12 18 12.2239 18 12.5C18 12.7761 18.2239 13 18.5 13C18.2239 13 18 13.2239 18 13.5C18 13.7761 18.2239 14 18.5 14C18.2239 14 18 14.2239 18 14.5C18 14.7761 18.2239 15 18.5 15C18.2239 15 18 15.2239 18 15.5C18 15.7761 18.2239 16 18.5 16ZM18.5 16C18.7761 16 19 15.7761 19 15.5C19 15.7761 19.2239 16 19.5 16C19.2239 16 19 16.2239 19 16.5C19 16.2239 18.7761 16 18.5 16ZM18.5 7C18.7761 7 19 6.77614 19 6.5C19 6.77614 19.2239 7 19.5 7C19.2239 7 19 7.22386 19 7.5C19 7.22386 18.7761 7 18.5 7ZM18.5 7C18.2239 7 18 7.22386 18 7.5C18 7.22386 17.7761 7 17.5 7C17.7761 7 18 6.77614 18 6.5C18 6.77614 18.2239 7 18.5 7ZM16.5 8C16.2239 8 16 7.77614 16 7.5C16 7.77614 15.7761 8 15.5 8C15.7761 8 16 8.22386 16 8.5C16 8.22386 16.2239 8 16.5 8ZM14.5 9C14.2239 9 14 9.22386 14 9.5C14 9.22386 13.7761 9 13.5 9C13.7761 9 14 8.77614 14 8.5C14 8.77614 14.2239 9 14.5 9ZM12.5 10C12.2239 10 12 9.77614 12 9.5C12 9.77614 11.7761 10 11.5 10C11.7761 10 12 10.2239 12 10.5C12 10.2239 12.2239 10 12.5 10ZM10 11.5C10 11.2239 9.77614 11 9.5 11C9.77614 11 10 10.7761 10 10.5C10 10.7761 10.2239 11 10.5 11C10.2239 11 10 11.2239 10 11.5ZM9.5 12C9.77614 12 10 11.7761 10 11.5C10 11.7761 10.2239 12 10.5 12C10.2239 12 10 12.2239 10 12.5C10 12.2239 9.77614 12 9.5 12ZM9.5 12C9.22386 12 9 11.7761 9 11.5C9 11.7761 8.77614 12 8.5 12C8.77614 12 9 12.2239 9 12.5C9 12.2239 9.22386 12 9.5 12ZM10 12.5C10 12.7761 10.2239 13 10.5 13C10.2239 13 10 13.2239 10 13.5C10 13.2239 9.77614 13 9.5 13C9.77614 13 10 12.7761 10 12.5ZM12 13.5C12 13.7761 12.2239 14 12.5 14C12.2239 14 12 14.2239 12 14.5C12 14.2239 11.7761 14 11.5 14C11.7761 14 12 13.7761 12 13.5ZM14 14.5C14 14.7761 14.2239 15 14.5 15C14.2239 15 14 15.2239 14 15.5C14 15.2239 13.7761 15 13.5 15C13.7761 15 14 14.7761 14 14.5ZM16 15.5C16 15.7761 16.2239 16 16.5 16C16.2239 16 16 16.2239 16 16.5C16 16.2239 15.7761 16 15.5 16C15.7761 16 16 15.7761 16 15.5ZM18.5 17C18.7761 17 19 16.7761 19 16.5C19 16.7761 19.2239 17 19.5 17C19.2239 17 19 17.2239 19 17.5C19 17.2239 18.7761 17 18.5 17ZM19 6.5C19 6.22386 18.7761 6 18.5 6C18.7761 6 19 5.77614 19 5.5C19 5.77614 19.2239 6 19.5 6C19.2239 6 19 6.22386 19 6.5ZM19 8.5C19 8.22386 18.7761 8 18.5 8C18.7761 8 19 7.77614 19 7.5C19 7.77614 19.2239 8 19.5 8C19.2239 8 19 8.22386 19 8.5ZM19 9.5C19 9.22386 18.7761 9 18.5 9C18.7761 9 19 8.77614 19 8.5C19 8.77614 19.2239 9 19.5 9C19.2239 9 19 9.22386 19 9.5ZM19 10.5C19 10.2239 18.7761 10 18.5 10C18.7761 10 19 9.77614 19 9.5C19 9.77614 19.2239 10 19.5 10C19.2239 10 19 10.2239 19 10.5ZM19 11.5C19 11.2239 18.7761 11 18.5 11C18.7761 11 19 10.7761 19 10.5C19 10.7761 19.2239 11 19.5 11C19.2239 11 19 11.2239 19 11.5ZM19 12.5C19 12.2239 18.7761 12 18.5 12C18.7761 12 19 11.7761 19 11.5C19 11.7761 19.2239 12 19.5 12C19.2239 12 19 12.2239 19 12.5ZM19 13.5C19 13.2239 18.7761 13 18.5 13C18.7761 13 19 12.7761 19 12.5C19 12.7761 19.2239 13 19.5 13C19.2239 13 19 13.2239 19 13.5ZM19 14.5C19 14.2239 18.7761 14 18.5 14C18.7761 14 19 13.7761 19 13.5C19 13.7761 19.2239 14 19.5 14C19.2239 14 19 14.2239 19 14.5ZM19 15.5C19 15.2239 19.2239 15 19.5 15C19.2239 15 19 14.7761 19 14.5C19 14.7761 18.7761 15 18.5 15C18.7761 15 19 15.2239 19 15.5Z" fill="white"/>
</svg>
