<svg width="24" height="24" viewBox="0 0 24 24" fill="none" xmlns="http://www.w3.org/2000/svg">
<path fill-rule="evenodd" clip-rule="evenodd" d="M5.5 2C5.22386 2 5 2.22386 5 2.5C5 2.77614 5.22386 3 5.5 3C5.22386 3 5 3.22386 5 3.5C5 3.77614 5.22386 4 5.5 4C5.22386 4 5 4.22386 5 4.5C5 4.77614 5.22386 5 5.5 5C5.22386 5 5 5.22386 5 5.5C5 5.77614 5.22386 6 5.5 6C5.22386 6 5 6.22386 5 6.5C5 6.77614 5.22386 7 5.5 7C5.22386 7 5 7.22386 5 7.5C5 7.77614 5.22386 8 5.5 8C5.22386 8 5 8.22386 5 8.5C5 8.77614 5.22386 9 5.5 9C5.22386 9 5 9.22386 5 9.5C5 9.77614 5.22386 10 5.5 10C5.22386 10 5 10.2239 5 10.5C5 10.7761 5.22386 11 5.5 11C5.22386 11 5 11.2239 5 11.5C5 11.7761 5.22386 12 5.5 12C5.22386 12 5 12.2239 5 12.5C5 12.7761 5.22386 13 5.5 13C5.22386 13 5 13.2239 5 13.5C5 13.7761 5.22386 14 5.5 14C5.22386 14 5 14.2239 5 14.5C5 14.7761 5.22386 15 5.5 15C5.22386 15 5 15.2239 5 15.5C5 15.7761 5.22386 16 5.5 16C5.22386 16 5 16.2239 5 16.5C5 16.7761 5.22386 17 5.5 17C5.22386 17 5 17.2239 5 17.5C5 17.7761 5.22386 18 5.5 18C5.22386 18 5 18.2239 5 18.5C5 18.7761 5.22386 19 5.5 19C5.22386 19 5 19.2239 5 19.5C5 19.7761 5.22386 20 5.5 20C5.22386 20 5 20.2239 5 20.5C5 20.7761 5.22386 21 5.5 21C5.22386 21 5 21.2239 5 21.5C5 21.7761 5.22386 22 5.5 22C5.77614 22 6 21.7761 6 21.5C6 21.7761 6.22386 22 6.5 22C6.77614 22 7 21.7761 7 21.5C7 21.7761 7.22386 22 7.5 22C7.77614 22 8 21.7761 8 21.5C8 21.7761 8.22386 22 8.5 22C8.77614 22 9 21.7761 9 21.5C9 21.7761 9.22386 22 9.5 22C9.77614 22 10 21.7761 10 21.5C10 21.7761 10.2239 22 10.5 22C10.7761 22 11 21.7761 11 21.5C11 21.7761 11.2239 22 11.5 22C11.7761 22 12 21.7761 12 21.5C12 21.7761 12.2239 22 12.5 22C12.7761 22 13 21.7761 13 21.5C13 21.7761 13.2239 22 13.5 22C13.7761 22 14 21.7761 14 21.5C14 21.7761 14.2239 22 14.5 22C14.7761 22 15 21.7761 15 21.5C15 21.7761 15.2239 22 15.5 22C15.7761 22 16 21.7761 16 21.5C16 21.7761 16.2239 22 16.5 22C16.7761 22 17 21.7761 17 21.5C17 21.7761 17.2239 22 17.5 22C17.7761 22 18 21.7761 18 21.5C18 21.7761 18.2239 22 18.5 22C18.7761 22 19 21.7761 19 21.5C19 21.2239 18.7761 21 18.5 21C18.7761 21 19 20.7761 19 20.5C19 20.2239 18.7761 20 18.5 20C18.7761 20 19 19.7761 19 19.5C19 19.2239 18.7761 19 18.5 19C18.7761 19 19 18.7761 19 18.5C19 18.2239 18.7761 18 18.5 18C18.7761 18 19 17.7761 19 17.5C19 17.2239 18.7761 17 18.5 17C18.7761 17 19 16.7761 19 16.5C19 16.2239 18.7761 16 18.5 16C18.7761 16 19 15.7761 19 15.5C19 15.2239 18.7761 15 18.5 15C18.7761 15 19 14.7761 19 14.5C19 14.2239 18.7761 14 18.5 14C18.7761 14 19 13.7761 19 13.5C19 13.2239 18.7761 13 18.5 13C18.7761 13 19 12.7761 19 12.5C19 12.2239 18.7761 12 18.5 12C18.7761 12 19 11.7761 19 11.5C19 11.2239 18.7761 11 18.5 11C18.7761 11 19 10.7761 19 10.5C19 10.2239 18.7761 10 18.5 10C18.7761 10 19 9.77614 19 9.5C19 9.22386 18.7761 9 18.5 9C18.7761 9 19 8.77614 19 8.5C19 8.22386 18.7761 8 18.5 8C18.7761 8 19 7.77614 19 7.5C19 7.22386 18.7761 7 18.5 7C18.7761 7 19 6.77614 19 6.5C19 6.22386 18.7761 6 18.5 6C18.7761 6 19 5.77614 19 5.5C19 5.22386 18.7761 5 18.5 5C18.7761 5 19 4.77614 19 4.5C19 4.22386 18.7761 4 18.5 4C18.7761 4 19 3.77614 19 3.5C19 3.22386 18.7761 3 18.5 3C18.7761 3 19 2.77614 19 2.5C19 2.22386 18.7761 2 18.5 2C18.2239 2 18 2.22386 18 2.5C18 2.22386 17.7761 2 17.5 2C17.2239 2 17 2.22386 17 2.5C17 2.22386 16.7761 2 16.5 2C16.2239 2 16 2.22386 16 2.5C16 2.22386 15.7761 2 15.5 2C15.2239 2 15 2.22386 15 2.5C15 2.22386 14.7761 2 14.5 2C14.2239 2 14 2.22386 14 2.5C14 2.22386 13.7761 2 13.5 2C13.2239 2 13 2.22386 13 2.5C13 2.22386 12.7761 2 12.5 2C12.2239 2 12 2.22386 12 2.5C12 2.22386 11.7761 2 11.5 2C11.2239 2 11 2.22386 11 2.5C11 2.22386 10.7761 2 10.5 2C10.2239 2 10 2.22386 10 2.5C10 2.22386 9.77614 2 9.5 2C9.22386 2 9 2.22386 9 2.5C9 2.22386 8.77614 2 8.5 2C8.22386 2 8 2.22386 8 2.5C8 2.22386 7.77614 2 7.5 2C7.22386 2 7 2.22386 7 2.5C7 2.22386 6.77614 2 6.5 2C6.22386 2 6 2.22386 6 2.5C6 2.22386 5.77614 2 5.5 2ZM6.5 3C6.22386 3 6 2.77614 6 2.5C6 2.77614 5.77614 3 5.5 3C5.77614 3 6 3.22386 6 3.5C6 3.77614 5.77614 4 5.5 4C5.77614 4 6 4.22386 6 4.5C6 4.77614 5.77614 5 5.5 5C5.77614 5 6 5.22386 6 5.5C6 5.77614 5.77614 6 5.5 6C5.77614 6 6 6.22386 6 6.5C6 6.77614 5.77614 7 5.5 7C5.77614 7 6 7.22386 6 7.5C6 7.77614 5.77614 8 5.5 8C5.77614 8 6 8.22386 6 8.5C6 8.77614 5.77614 9 5.5 9C5.77614 9 6 9.22386 6 9.5C6 9.77614 5.77614 10 5.5 10C5.77614 10 6 10.2239 6 10.5C6 10.7761 5.77614 11 5.5 11C5.77614 11 6 11.2239 6 11.5C6 11.7761 5.77614 12 5.5 12C5.77614 12 6 12.2239 6 12.5C6 12.7761 5.77614 13 5.5 13C5.77614 13 6 13.2239 6 13.5C6 13.7761 5.77614 14 5.5 14C5.77614 14 6 14.2239 6 14.5C6 14.7761 5.77614 15 5.5 15C5.77614 15 6 15.2239 6 15.5C6 15.7761 5.77614 16 5.5 16C5.77614 16 6 16.2239 6 16.5C6 16.7761 5.77614 17 5.5 17C5.77614 17 6 17.2239 6 17.5C6 17.7761 5.77614 18 5.5 18C5.77614 18 6 18.2239 6 18.5C6 18.7761 5.77614 19 5.5 19C5.77614 19 6 19.2239 6 19.5C6 19.7761 5.77614 20 5.5 20C5.77614 20 6 20.2239 6 20.5C6 20.7761 5.77614 21 5.5 21C5.77614 21 6 21.2239 6 21.5C6 21.2239 6.22386 21 6.5 21C6.77614 21 7 21.2239 7 21.5C7 21.2239 7.22386 21 7.5 21C7.77614 21 8 21.2239 8 21.5C8 21.2239 8.22386 21 8.5 21C8.77614 21 9 21.2239 9 21.5C9 21.2239 9.22386 21 9.5 21C9.77614 21 10 21.2239 10 21.5C10 21.2239 10.2239 21 10.5 21C10.7761 21 11 21.2239 11 21.5C11 21.2239 11.2239 21 11.5 21C11.7761 21 12 21.2239 12 21.5C12 21.2239 12.2239 21 12.5 21C12.7761 21 13 21.2239 13 21.5C13 21.2239 13.2239 21 13.5 21C13.7761 21 14 21.2239 14 21.5C14 21.2239 14.2239 21 14.5 21C14.7761 21 15 21.2239 15 21.5C15 21.2239 15.2239 21 15.5 21C15.7761 21 16 21.2239 16 21.5C16 21.2239 16.2239 21 16.5 21C16.7761 21 17 21.2239 17 21.5C17 21.2239 17.2239 21 17.5 21C17.7761 21 18 21.2239 18 21.5C18 21.2239 18.2239 21 18.5 21C18.2239 21 18 20.7761 18 20.5C18 20.2239 18.2239 20 18.5 20C18.2239 20 18 19.7761 18 19.5C18 19.2239 18.2239 19 18.5 19C18.2239 19 18 18.7761 18 18.5C18 18.2239 18.2239 18 18.5 18C18.2239 18 18 17.7761 18 17.5C18 17.2239 18.2239 17 18.5 17C18.2239 17 18 16.7761 18 16.5C18 16.2239 18.2239 16 18.5 16C18.2239 16 18 15.7761 18 15.5C18 15.2239 18.2239 15 18.5 15C18.2239 15 18 14.7761 18 14.5C18 14.2239 18.2239 14 18.5 14C18.2239 14 18 13.7761 18 13.5C18 13.2239 18.2239 13 18.5 13C18.2239 13 18 12.7761 18 12.5C18 12.2239 18.2239 12 18.5 12C18.2239 12 18 11.7761 18 11.5C18 11.2239 18.2239 11 18.5 11C18.2239 11 18 10.7761 18 10.5C18 10.2239 18.2239 10 18.5 10C18.2239 10 18 9.77614 18 9.5C18 9.22386 18.2239 9 18.5 9C18.2239 9 18 8.77614 18 8.5C18 8.22386 18.2239 8 18.5 8C18.2239 8 18 7.77614 18 7.5C18 7.22386 18.2239 7 18.5 7C18.2239 7 18 6.77614 18 6.5C18 6.22386 18.2239 6 18.5 6C18.2239 6 18 5.77614 18 5.5C18 5.22386 18.2239 5 18.5 5C18.2239 5 18 4.77614 18 4.5C18 4.22386 18.2239 4 18.5 4C18.2239 4 18 3.77614 18 3.5C18 3.22386 18.2239 3 18.5 3C18.2239 3 18 2.77614 18 2.5C18 2.77614 17.7761 3 17.5 3C17.2239 3 17 2.77614 17 2.5C17 2.77614 16.7761 3 16.5 3C16.2239 3 16 2.77614 16 2.5C16 2.77614 15.7761 3 15.5 3C15.2239 3 15 2.77614 15 2.5C15 2.77614 14.7761 3 14.5 3C14.2239 3 14 2.77614 14 2.5C14 2.77614 13.7761 3 13.5 3C13.2239 3 13 2.77614 13 2.5C13 2.77614 12.7761 3 12.5 3C12.2239 3 12 2.77614 12 2.5C12 2.77614 11.7761 3 11.5 3C11.2239 3 11 2.77614 11 2.5C11 2.77614 10.7761 3 10.5 3C10.2239 3 10 2.77614 10 2.5C10 2.77614 9.77614 3 9.5 3C9.22386 3 9 2.77614 9 2.5C9 2.77614 8.77614 3 8.5 3C8.22386 3 8 2.77614 8 2.5C8 2.77614 7.77614 3 7.5 3C7.22386 3 7 2.77614 7 2.5C7 2.77614 6.77614 3 6.5 3ZM7 3.5C7 3.22386 6.77614 3 6.5 3C6.22386 3 6 3.22386 6 3.5C6 3.77614 6.22386 4 6.5 4C6.22386 4 6 4.22386 6 4.5C6 4.77614 6.22386 5 6.5 5C6.22386 5 6 5.22386 6 5.5C6 5.77614 6.22386 6 6.5 6C6.22386 6 6 6.22386 6 6.5C6 6.77614 6.22386 7 6.5 7C6.22386 7 6 7.22386 6 7.5C6 7.77614 6.22386 8 6.5 8C6.22386 8 6 8.22386 6 8.5C6 8.77614 6.22386 9 6.5 9C6.22386 9 6 9.22386 6 9.5C6 9.77614 6.22386 10 6.5 10C6.22386 10 6 10.2239 6 10.5C6 10.7761 6.22386 11 6.5 11C6.22386 11 6 11.2239 6 11.5C6 11.7761 6.22386 12 6.5 12C6.22386 12 6 12.2239 6 12.5C6 12.7761 6.22386 13 6.5 13C6.22386 13 6 13.2239 6 13.5C6 13.7761 6.22386 14 6.5 14C6.22386 14 6 14.2239 6 14.5C6 14.7761 6.22386 15 6.5 15C6.22386 15 6 15.2239 6 15.5C6 15.7761 6.22386 16 6.5 16C6.22386 16 6 16.2239 6 16.5C6 16.7761 6.22386 17 6.5 17C6.22386 17 6 17.2239 6 17.5C6 17.7761 6.22386 18 6.5 18C6.22386 18 6 18.2239 6 18.5C6 18.7761 6.22386 19 6.5 19C6.22386 19 6 19.2239 6 19.5C6 19.7761 6.22386 20 6.5 20C6.22386 20 6 20.2239 6 20.5C6 20.7761 6.22386 21 6.5 21C6.77614 21 7 20.7761 7 20.5C7 20.7761 7.22386 21 7.5 21C7.77614 21 8 20.7761 8 20.5C8 20.7761 8.22386 21 8.5 21C8.77614 21 9 20.7761 9 20.5C9 20.7761 9.22386 21 9.5 21C9.77614 21 10 20.7761 10 20.5C10 20.7761 10.2239 21 10.5 21C10.7761 21 11 20.7761 11 20.5C11 20.7761 11.2239 21 11.5 21C11.7761 21 12 20.7761 12 20.5C12 20.7761 12.2239 21 12.5 21C12.7761 21 13 20.7761 13 20.5C13 20.7761 13.2239 21 13.5 21C13.7761 21 14 20.7761 14 20.5C14 20.7761 14.2239 21 14.5 21C14.7761 21 15 20.7761 15 20.5C15 20.7761 15.2239 21 15.5 21C15.7761 21 16 20.7761 16 20.5C16 20.7761 16.2239 21 16.5 21C16.7761 21 17 20.7761 17 20.5C17 20.7761 17.2239 21 17.5 21C17.7761 21 18 20.7761 18 20.5C18 20.2239 17.7761 20 17.5 20C17.7761 20 18 19.7761 18 19.5C18 19.2239 17.7761 19 17.5 19C17.7761 19 18 18.7761 18 18.5C18 18.2239 17.7761 18 17.5 18C17.7761 18 18 17.7761 18 17.5C18 17.2239 17.7761 17 17.5 17C17.7761 17 18 16.7761 18 16.5C18 16.2239 17.7761 16 17.5 16C17.7761 16 18 15.7761 18 15.5C18 15.2239 17.7761 15 17.5 15C17.7761 15 18 14.7761 18 14.5C18 14.2239 17.7761 14 17.5 14C17.7761 14 18 13.7761 18 13.5C18 13.2239 17.7761 13 17.5 13C17.7761 13 18 12.7761 18 12.5C18 12.2239 17.7761 12 17.5 12C17.7761 12 18 11.7761 18 11.5C18 11.2239 17.7761 11 17.5 11C17.7761 11 18 10.7761 18 10.5C18 10.2239 17.7761 10 17.5 10C17.7761 10 18 9.77614 18 9.5C18 9.22386 17.7761 9 17.5 9C17.7761 9 18 8.77614 18 8.5C18 8.22386 17.7761 8 17.5 8C17.7761 8 18 7.77614 18 7.5C18 7.22386 17.7761 7 17.5 7C17.7761 7 18 6.77614 18 6.5C18 6.22386 17.7761 6 17.5 6C17.7761 6 18 5.77614 18 5.5C18 5.22386 17.7761 5 17.5 5C17.7761 5 18 4.77614 18 4.5C18 4.22386 17.7761 4 17.5 4C17.7761 4 18 3.77614 18 3.5C18 3.22386 17.7761 3 17.5 3C17.2239 3 17 3.22386 17 3.5C17 3.22386 16.7761 3 16.5 3C16.2239 3 16 3.22386 16 3.5C16 3.22386 15.7761 3 15.5 3C15.2239 3 15 3.22386 15 3.5C15 3.22386 14.7761 3 14.5 3C14.2239 3 14 3.22386 14 3.5C14 3.22386 13.7761 3 13.5 3C13.2239 3 13 3.22386 13 3.5C13 3.22386 12.7761 3 12.5 3C12.2239 3 12 3.22386 12 3.5C12 3.22386 11.7761 3 11.5 3C11.2239 3 11 3.22386 11 3.5C11 3.22386 10.7761 3 10.5 3C10.2239 3 10 3.22386 10 3.5C10 3.22386 9.77614 3 9.5 3C9.22386 3 9 3.22386 9 3.5C9 3.22386 8.77614 3 8.5 3C8.22386 3 8 3.22386 8 3.5C8 3.22386 7.77614 3 7.5 3C7.22386 3 7 3.22386 7 3.5ZM7 3.5C7 3.77614 7.22386 4 7.5 4C7.77614 4 8 3.77614 8 3.5C8 3.77614 8.22386 4 8.5 4C8.77614 4 9 3.77614 9 3.5C9 3.77614 9.22386 4 9.5 4C9.77614 4 10 3.77614 10 3.5C10 3.77614 10.2239 4 10.5 4C10.2239 4 10 4.22386 10 4.5C10 4.77614 10.2239 5 10.5 5C10.7761 5 11 4.77614 11 4.5C11 4.77614 11.2239 5 11.5 5C11.7761 5 12 4.77614 12 4.5C12 4.77614 12.2239 5 12.5 5C12.7761 5 13 4.77614 13 4.5C13 4.77614 13.2239 5 13.5 5C13.7761 5 14 4.77614 14 4.5C14 4.22386 13.7761 4 13.5 4C13.7761 4 14 3.77614 14 3.5C14 3.77614 14.2239 4 14.5 4C14.7761 4 15 3.77614 15 3.5C15 3.77614 15.2239 4 15.5 4C15.7761 4 16 3.77614 16 3.5C16 3.77614 16.2239 4 16.5 4C16.7761 4 17 3.77614 17 3.5C17 3.77614 17.2239 4 17.5 4C17.2239 4 17 4.22386 17 4.5C17 4.77614 17.2239 5 17.5 5C17.2239 5 17 5.22386 17 5.5C17 5.77614 17.2239 6 17.5 6C17.2239 6 17 6.22386 17 6.5C17 6.77614 17.2239 7 17.5 7C17.2239 7 17 7.22386 17 7.5C17 7.77614 17.2239 8 17.5 8C17.2239 8 17 8.22386 17 8.5C17 8.77614 17.2239 9 17.5 9C17.2239 9 17 9.22386 17 9.5C17 9.77614 17.2239 10 17.5 10C17.2239 10 17 10.2239 17 10.5C17 10.7761 17.2239 11 17.5 11C17.2239 11 17 11.2239 17 11.5C17 11.7761 17.2239 12 17.5 12C17.2239 12 17 12.2239 17 12.5C17 12.7761 17.2239 13 17.5 13C17.2239 13 17 13.2239 17 13.5C17 13.7761 17.2239 14 17.5 14C17.2239 14 17 14.2239 17 14.5C17 14.7761 17.2239 15 17.5 15C17.2239 15 17 15.2239 17 15.5C17 15.7761 17.2239 16 17.5 16C17.2239 16 17 16.2239 17 16.5C17 16.7761 17.2239 17 17.5 17C17.2239 17 17 17.2239 17 17.5C17 17.7761 17.2239 18 17.5 18C17.2239 18 17 18.2239 17 18.5C17 18.7761 17.2239 19 17.5 19C17.2239 19 17 19.2239 17 19.5C17 19.7761 17.2239 20 17.5 20C17.2239 20 17 20.2239 17 20.5C17 20.2239 16.7761 20 16.5 20C16.2239 20 16 20.2239 16 20.5C16 20.2239 15.7761 20 15.5 20C15.2239 20 15 20.2239 15 20.5C15 20.2239 14.7761 20 14.5 20C14.2239 20 14 20.2239 14 20.5C14 20.2239 13.7761 20 13.5 20C13.2239 20 13 20.2239 13 20.5C13 20.2239 12.7761 20 12.5 20C12.2239 20 12 20.2239 12 20.5C12 20.2239 11.7761 20 11.5 20C11.2239 20 11 20.2239 11 20.5C11 20.2239 10.7761 20 10.5 20C10.2239 20 10 20.2239 10 20.5C10 20.2239 9.77614 20 9.5 20C9.22386 20 9 20.2239 9 20.5C9 20.2239 8.77614 20 8.5 20C8.22386 20 8 20.2239 8 20.5C8 20.2239 7.77614 20 7.5 20C7.22386 20 7 20.2239 7 20.5C7 20.2239 6.77614 20 6.5 20C6.77614 20 7 19.7761 7 19.5C7 19.2239 6.77614 19 6.5 19C6.77614 19 7 18.7761 7 18.5C7 18.2239 6.77614 18 6.5 18C6.77614 18 7 17.7761 7 17.5C7 17.2239 6.77614 17 6.5 17C6.77614 17 7 16.7761 7 16.5C7 16.2239 6.77614 16 6.5 16C6.77614 16 7 15.7761 7 15.5C7 15.2239 6.77614 15 6.5 15C6.77614 15 7 14.7761 7 14.5C7 14.2239 6.77614 14 6.5 14C6.77614 14 7 13.7761 7 13.5C7 13.2239 6.77614 13 6.5 13C6.77614 13 7 12.7761 7 12.5C7 12.2239 6.77614 12 6.5 12C6.77614 12 7 11.7761 7 11.5C7 11.2239 6.77614 11 6.5 11C6.77614 11 7 10.7761 7 10.5C7 10.2239 6.77614 10 6.5 10C6.77614 10 7 9.77614 7 9.5C7 9.22386 6.77614 9 6.5 9C6.77614 9 7 8.77614 7 8.5C7 8.22386 6.77614 8 6.5 8C6.77614 8 7 7.77614 7 7.5C7 7.22386 6.77614 7 6.5 7C6.77614 7 7 6.77614 7 6.5C7 6.22386 6.77614 6 6.5 6C6.77614 6 7 5.77614 7 5.5C7 5.22386 6.77614 5 6.5 5C6.77614 5 7 4.77614 7 4.5C7 4.22386 6.77614 4 6.5 4C6.77614 4 7 3.77614 7 3.5ZM12.5 4C12.7761 4 13 3.77614 13 3.5C13 3.77614 13.2239 4 13.5 4C13.2239 4 13 4.22386 13 4.5C13 4.22386 12.7761 4 12.5 4ZM11.5 4C11.7761 4 12 3.77614 12 3.5C12 3.77614 12.2239 4 12.5 4C12.2239 4 12 4.22386 12 4.5C12 4.22386 11.7761 4 11.5 4ZM11.5 4C11.2239 4 11 3.77614 11 3.5C11 3.77614 10.7761 4 10.5 4C10.7761 4 11 4.22386 11 4.5C11 4.22386 11.2239 4 11.5 4Z" fill="white"/>
</svg>
