<svg width="24" height="24" viewBox="0 0 24 24" fill="none" xmlns="http://www.w3.org/2000/svg">
<path fill-rule="evenodd" clip-rule="evenodd" d="M11.5 4C11.7761 4 12 3.77614 12 3.5C12 3.77614 12.2239 4 12.5 4C12.2239 4 12 4.22386 12 4.5C12 4.22386 11.7761 4 11.5 4ZM11 4.5C11 4.22386 11.2239 4 11.5 4C11.2239 4 11 3.77614 11 3.5C11 3.22386 11.2239 3 11.5 3C11.7761 3 12 3.22386 12 3.5C12 3.22386 12.2239 3 12.5 3C12.7761 3 13 3.22386 13 3.5C13 3.77614 12.7761 4 12.5 4C12.7761 4 13 4.22386 13 4.5C13 4.77614 12.7761 5 12.5 5C12.2239 5 12 4.77614 12 4.5C12 4.77614 11.7761 5 11.5 5C11.2239 5 11 4.77614 11 4.5ZM10.5 5C10.7761 5 11 4.77614 11 4.5C11 4.22386 10.7761 4 10.5 4C10.7761 4 11 3.77614 11 3.5C11 3.22386 10.7761 3 10.5 3C10.2239 3 10 3.22386 10 3.5C10 3.77614 10.2239 4 10.5 4C10.2239 4 10 4.22386 10 4.5C10 4.22386 9.77614 4 9.5 4C9.22386 4 9 4.22386 9 4.5C9 4.77614 9.22386 5 9.5 5C9.22386 5 9 5.22386 9 5.5C9 5.77614 9.22386 6 9.5 6C9.22386 6 9 6.22386 9 6.5C9 6.77614 9.22386 7 9.5 7C9.22386 7 9 7.22386 9 7.5C9 7.22386 8.77614 7 8.5 7C8.22386 7 8 7.22386 8 7.5C8 7.77614 8.22386 8 8.5 8C8.22386 8 8 8.22386 8 8.5C8 8.77614 8.22386 9 8.5 9C8.22386 9 8 9.22386 8 9.5C8 9.22386 7.77614 9 7.5 9C7.22386 9 7 9.22386 7 9.5C7 9.77614 7.22386 10 7.5 10C7.22386 10 7 10.2239 7 10.5C7 10.7761 7.22386 11 7.5 11C7.22386 11 7 11.2239 7 11.5C7 11.2239 6.77614 11 6.5 11C6.22386 11 6 11.2239 6 11.5C6 11.2239 5.77614 11 5.5 11C5.22386 11 5 11.2239 5 11.5C5 11.2239 4.77614 11 4.5 11C4.22386 11 4 11.2239 4 11.5C4 11.2239 3.77614 11 3.5 11C3.22386 11 3 11.2239 3 11.5C3 11.7761 3.22386 12 3.5 12C3.22386 12 3 12.2239 3 12.5C3 12.7761 3.22386 13 3.5 13C3.22386 13 3 13.2239 3 13.5C3 13.7761 3.22386 14 3.5 14C3.22386 14 3 14.2239 3 14.5C3 14.7761 3.22386 15 3.5 15C3.22386 15 3 15.2239 3 15.5C3 15.7761 3.22386 16 3.5 16C3.22386 16 3 16.2239 3 16.5C3 16.7761 3.22386 17 3.5 17C3.22386 17 3 17.2239 3 17.5C3 17.7761 3.22386 18 3.5 18C3.22386 18 3 18.2239 3 18.5C3 18.7761 3.22386 19 3.5 19C3.22386 19 3 19.2239 3 19.5C3 19.7761 3.22386 20 3.5 20C3.22386 20 3 20.2239 3 20.5C3 20.7761 3.22386 21 3.5 21C3.77614 21 4 20.7761 4 20.5C4 20.7761 4.22386 21 4.5 21C4.77614 21 5 20.7761 5 20.5C5 20.7761 5.22386 21 5.5 21C5.77614 21 6 20.7761 6 20.5C6 20.7761 6.22386 21 6.5 21C6.77614 21 7 20.7761 7 20.5C7 20.7761 7.22386 21 7.5 21C7.77614 21 8 20.7761 8 20.5C8 20.7761 8.22386 21 8.5 21C8.77614 21 9 20.7761 9 20.5C9 20.7761 9.22386 21 9.5 21C9.77614 21 10 20.7761 10 20.5C10 20.7761 10.2239 21 10.5 21C10.7761 21 11 20.7761 11 20.5C11 20.7761 11.2239 21 11.5 21C11.7761 21 12 20.7761 12 20.5C12 20.7761 12.2239 21 12.5 21C12.7761 21 13 20.7761 13 20.5C13 20.7761 13.2239 21 13.5 21C13.7761 21 14 20.7761 14 20.5C14 20.7761 14.2239 21 14.5 21C14.7761 21 15 20.7761 15 20.5C15 20.7761 15.2239 21 15.5 21C15.7761 21 16 20.7761 16 20.5C16 20.7761 16.2239 21 16.5 21C16.7761 21 17 20.7761 17 20.5C17 20.7761 17.2239 21 17.5 21C17.7761 21 18 20.7761 18 20.5C18 20.7761 18.2239 21 18.5 21C18.7761 21 19 20.7761 19 20.5C19 20.7761 19.2239 21 19.5 21C19.7761 21 20 20.7761 20 20.5C20 20.2239 19.7761 20 19.5 20C19.7761 20 20 19.7761 20 19.5C20 19.7761 20.2239 20 20.5 20C20.7761 20 21 19.7761 21 19.5C21 19.2239 20.7761 19 20.5 19C20.7761 19 21 18.7761 21 18.5C21 18.7761 21.2239 19 21.5 19C21.7761 19 22 18.7761 22 18.5C22 18.2239 21.7761 18 21.5 18C21.7761 18 22 17.7761 22 17.5C22 17.2239 21.7761 17 21.5 17C21.7761 17 22 16.7761 22 16.5C22 16.2239 21.7761 16 21.5 16C21.7761 16 22 15.7761 22 15.5C22 15.2239 21.7761 15 21.5 15C21.7761 15 22 14.7761 22 14.5C22 14.2239 21.7761 14 21.5 14C21.7761 14 22 13.7761 22 13.5C22 13.2239 21.7761 13 21.5 13C21.7761 13 22 12.7761 22 12.5C22 12.2239 21.7761 12 21.5 12C21.7761 12 22 11.7761 22 11.5C22 11.2239 21.7761 11 21.5 11C21.2239 11 21 11.2239 21 11.5C21 11.2239 20.7761 11 20.5 11C20.7761 11 21 10.7761 21 10.5C21 10.2239 20.7761 10 20.5 10C20.2239 10 20 10.2239 20 10.5C20 10.2239 19.7761 10 19.5 10C19.7761 10 20 9.77614 20 9.5C20 9.22386 19.7761 9 19.5 9C19.2239 9 19 9.22386 19 9.5C19 9.22386 18.7761 9 18.5 9C18.2239 9 18 9.22386 18 9.5C18 9.22386 17.7761 9 17.5 9C17.2239 9 17 9.22386 17 9.5C17 9.22386 16.7761 9 16.5 9C16.2239 9 16 9.22386 16 9.5C16 9.22386 15.7761 9 15.5 9C15.7761 9 16 8.77614 16 8.5C16 8.22386 15.7761 8 15.5 8C15.7761 8 16 7.77614 16 7.5C16 7.22386 15.7761 7 15.5 7C15.7761 7 16 6.77614 16 6.5C16 6.22386 15.7761 6 15.5 6C15.7761 6 16 5.77614 16 5.5C16 5.22386 15.7761 5 15.5 5C15.7761 5 16 4.77614 16 4.5C16 4.22386 15.7761 4 15.5 4C15.2239 4 15 4.22386 15 4.5C15 4.22386 14.7761 4 14.5 4C14.2239 4 14 4.22386 14 4.5C14 4.22386 13.7761 4 13.5 4C13.7761 4 14 3.77614 14 3.5C14 3.22386 13.7761 3 13.5 3C13.2239 3 13 3.22386 13 3.5C13 3.77614 13.2239 4 13.5 4C13.2239 4 13 4.22386 13 4.5C13 4.77614 13.2239 5 13.5 5C13.2239 5 13 5.22386 13 5.5C13 5.77614 13.2239 6 13.5 6C13.7761 6 14 5.77614 14 5.5C14 5.77614 14.2239 6 14.5 6C14.2239 6 14 6.22386 14 6.5C14 6.77614 14.2239 7 14.5 7C14.2239 7 14 7.22386 14 7.5C14 7.77614 14.2239 8 14.5 8C14.2239 8 14 8.22386 14 8.5C14 8.77614 14.2239 9 14.5 9C14.2239 9 14 9.22386 14 9.5C14 9.77614 14.2239 10 14.5 10C14.2239 10 14 10.2239 14 10.5C14 10.7761 14.2239 11 14.5 11C14.7761 11 15 10.7761 15 10.5C15 10.7761 15.2239 11 15.5 11C15.7761 11 16 10.7761 16 10.5C16 10.7761 16.2239 11 16.5 11C16.7761 11 17 10.7761 17 10.5C17 10.7761 17.2239 11 17.5 11C17.7761 11 18 10.7761 18 10.5C18 10.7761 18.2239 11 18.5 11C18.7761 11 19 10.7761 19 10.5C19 10.7761 19.2239 11 19.5 11C19.2239 11 19 11.2239 19 11.5C19 11.7761 19.2239 12 19.5 12C19.7761 12 20 11.7761 20 11.5C20 11.7761 20.2239 12 20.5 12C20.2239 12 20 12.2239 20 12.5C20 12.7761 20.2239 13 20.5 13C20.2239 13 20 13.2239 20 13.5C20 13.7761 20.2239 14 20.5 14C20.2239 14 20 14.2239 20 14.5C20 14.7761 20.2239 15 20.5 15C20.2239 15 20 15.2239 20 15.5C20 15.7761 20.2239 16 20.5 16C20.2239 16 20 16.2239 20 16.5C20 16.7761 20.2239 17 20.5 17C20.2239 17 20 17.2239 20 17.5C20 17.7761 20.2239 18 20.5 18C20.2239 18 20 18.2239 20 18.5C20 18.2239 19.7761 18 19.5 18C19.2239 18 19 18.2239 19 18.5C19 18.7761 19.2239 19 19.5 19C19.2239 19 19 19.2239 19 19.5C19 19.2239 18.7761 19 18.5 19C18.2239 19 18 19.2239 18 19.5C18 19.2239 17.7761 19 17.5 19C17.2239 19 17 19.2239 17 19.5C17 19.2239 16.7761 19 16.5 19C16.2239 19 16 19.2239 16 19.5C16 19.2239 15.7761 19 15.5 19C15.2239 19 15 19.2239 15 19.5C15 19.2239 14.7761 19 14.5 19C14.2239 19 14 19.2239 14 19.5C14 19.2239 13.7761 19 13.5 19C13.2239 19 13 19.2239 13 19.5C13 19.2239 12.7761 19 12.5 19C12.2239 19 12 19.2239 12 19.5C12 19.2239 11.7761 19 11.5 19C11.2239 19 11 19.2239 11 19.5C11 19.2239 10.7761 19 10.5 19C10.2239 19 10 19.2239 10 19.5C10 19.2239 9.77614 19 9.5 19C9.22386 19 9 19.2239 9 19.5C9 19.2239 8.77614 19 8.5 19C8.77614 19 9 18.7761 9 18.5C9 18.2239 8.77614 18 8.5 18C8.77614 18 9 17.7761 9 17.5C9 17.2239 8.77614 17 8.5 17C8.77614 17 9 16.7761 9 16.5C9 16.2239 8.77614 16 8.5 16C8.77614 16 9 15.7761 9 15.5C9 15.2239 8.77614 15 8.5 15C8.77614 15 9 14.7761 9 14.5C9 14.2239 8.77614 14 8.5 14C8.77614 14 9 13.7761 9 13.5C9 13.2239 8.77614 13 8.5 13C8.77614 13 9 12.7761 9 12.5C9 12.2239 8.77614 12 8.5 12C8.77614 12 9 11.7761 9 11.5C9 11.2239 8.77614 11 8.5 11C8.77614 11 9 10.7761 9 10.5C9 10.2239 8.77614 10 8.5 10C8.77614 10 9 9.77614 9 9.5C9 9.77614 9.22386 10 9.5 10C9.77614 10 10 9.77614 10 9.5C10 9.22386 9.77614 9 9.5 9C9.77614 9 10 8.77614 10 8.5C10 8.22386 9.77614 8 9.5 8C9.77614 8 10 7.77614 10 7.5C10 7.77614 10.2239 8 10.5 8C10.7761 8 11 7.77614 11 7.5C11 7.22386 10.7761 7 10.5 7C10.7761 7 11 6.77614 11 6.5C11 6.22386 10.7761 6 10.5 6C10.7761 6 11 5.77614 11 5.5C11 5.22386 10.7761 5 10.5 5ZM10 5.5C10 5.77614 10.2239 6 10.5 6C10.2239 6 10 6.22386 10 6.5C10 6.22386 9.77614 6 9.5 6C9.77614 6 10 5.77614 10 5.5ZM10 5.5C10 5.22386 10.2239 5 10.5 5C10.2239 5 10 4.77614 10 4.5C10 4.77614 9.77614 5 9.5 5C9.77614 5 10 5.22386 10 5.5ZM10 6.5C10 6.77614 10.2239 7 10.5 7C10.2239 7 10 7.22386 10 7.5C10 7.22386 9.77614 7 9.5 7C9.77614 7 10 6.77614 10 6.5ZM9 8.5C9 8.77614 9.22386 9 9.5 9C9.22386 9 9 9.22386 9 9.5C9 9.22386 8.77614 9 8.5 9C8.77614 9 9 8.77614 9 8.5ZM9 8.5C9 8.22386 9.22386 8 9.5 8C9.22386 8 9 7.77614 9 7.5C9 7.77614 8.77614 8 8.5 8C8.77614 8 9 8.22386 9 8.5ZM8 10.5C8 10.7761 8.22386 11 8.5 11C8.22386 11 8 11.2239 8 11.5C8 11.2239 7.77614 11 7.5 11C7.77614 11 8 10.7761 8 10.5ZM7.5 12C7.22386 12 7 11.7761 7 11.5C7 11.7761 6.77614 12 6.5 12C6.22386 12 6 11.7761 6 11.5C6 11.7761 5.77614 12 5.5 12C5.22386 12 5 11.7761 5 11.5C5 11.7761 4.77614 12 4.5 12C4.22386 12 4 11.7761 4 11.5C4 11.7761 3.77614 12 3.5 12C3.77614 12 4 12.2239 4 12.5C4 12.7761 3.77614 13 3.5 13C3.77614 13 4 13.2239 4 13.5C4 13.7761 3.77614 14 3.5 14C3.77614 14 4 14.2239 4 14.5C4 14.7761 3.77614 15 3.5 15C3.77614 15 4 15.2239 4 15.5C4 15.7761 3.77614 16 3.5 16C3.77614 16 4 16.2239 4 16.5C4 16.7761 3.77614 17 3.5 17C3.77614 17 4 17.2239 4 17.5C4 17.7761 3.77614 18 3.5 18C3.77614 18 4 18.2239 4 18.5C4 18.7761 3.77614 19 3.5 19C3.77614 19 4 19.2239 4 19.5C4 19.7761 3.77614 20 3.5 20C3.77614 20 4 20.2239 4 20.5C4 20.2239 4.22386 20 4.5 20C4.77614 20 5 20.2239 5 20.5C5 20.2239 5.22386 20 5.5 20C5.77614 20 6 20.2239 6 20.5C6 20.2239 6.22386 20 6.5 20C6.77614 20 7 20.2239 7 20.5C7 20.2239 7.22386 20 7.5 20C7.77614 20 8 20.2239 8 20.5C8 20.2239 8.22386 20 8.5 20C8.77614 20 9 20.2239 9 20.5C9 20.2239 9.22386 20 9.5 20C9.77614 20 10 20.2239 10 20.5C10 20.2239 10.2239 20 10.5 20C10.7761 20 11 20.2239 11 20.5C11 20.2239 11.2239 20 11.5 20C11.7761 20 12 20.2239 12 20.5C12 20.2239 12.2239 20 12.5 20C12.7761 20 13 20.2239 13 20.5C13 20.2239 13.2239 20 13.5 20C13.7761 20 14 20.2239 14 20.5C14 20.2239 14.2239 20 14.5 20C14.7761 20 15 20.2239 15 20.5C15 20.2239 15.2239 20 15.5 20C15.7761 20 16 20.2239 16 20.5C16 20.2239 16.2239 20 16.5 20C16.7761 20 17 20.2239 17 20.5C17 20.2239 17.2239 20 17.5 20C17.7761 20 18 20.2239 18 20.5C18 20.2239 18.2239 20 18.5 20C18.7761 20 19 20.2239 19 20.5C19 20.2239 19.2239 20 19.5 20C19.2239 20 19 19.7761 19 19.5C19 19.7761 18.7761 20 18.5 20C18.2239 20 18 19.7761 18 19.5C18 19.7761 17.7761 20 17.5 20C17.2239 20 17 19.7761 17 19.5C17 19.7761 16.7761 20 16.5 20C16.2239 20 16 19.7761 16 19.5C16 19.7761 15.7761 20 15.5 20C15.2239 20 15 19.7761 15 19.5C15 19.7761 14.7761 20 14.5 20C14.2239 20 14 19.7761 14 19.5C14 19.7761 13.7761 20 13.5 20C13.2239 20 13 19.7761 13 19.5C13 19.7761 12.7761 20 12.5 20C12.2239 20 12 19.7761 12 19.5C12 19.7761 11.7761 20 11.5 20C11.2239 20 11 19.7761 11 19.5C11 19.7761 10.7761 20 10.5 20C10.2239 20 10 19.7761 10 19.5C10 19.7761 9.77614 20 9.5 20C9.22386 20 9 19.7761 9 19.5C9 19.7761 8.77614 20 8.5 20C8.22386 20 8 19.7761 8 19.5C8 19.2239 8.22386 19 8.5 19C8.22386 19 8 18.7761 8 18.5C8 18.2239 8.22386 18 8.5 18C8.22386 18 8 17.7761 8 17.5C8 17.2239 8.22386 17 8.5 17C8.22386 17 8 16.7761 8 16.5C8 16.2239 8.22386 16 8.5 16C8.22386 16 8 15.7761 8 15.5C8 15.2239 8.22386 15 8.5 15C8.22386 15 8 14.7761 8 14.5C8 14.2239 8.22386 14 8.5 14C8.22386 14 8 13.7761 8 13.5C8 13.2239 8.22386 13 8.5 13C8.22386 13 8 12.7761 8 12.5C8 12.2239 8.22386 12 8.5 12C8.22386 12 8 11.7761 8 11.5C8 11.7761 7.77614 12 7.5 12ZM7 12.5C7 12.2239 6.77614 12 6.5 12C6.22386 12 6 12.2239 6 12.5C6 12.2239 5.77614 12 5.5 12C5.22386 12 5 12.2239 5 12.5C5 12.2239 4.77614 12 4.5 12C4.22386 12 4 12.2239 4 12.5C4 12.7761 4.22386 13 4.5 13C4.22386 13 4 13.2239 4 13.5C4 13.7761 4.22386 14 4.5 14C4.22386 14 4 14.2239 4 14.5C4 14.7761 4.22386 15 4.5 15C4.22386 15 4 15.2239 4 15.5C4 15.7761 4.22386 16 4.5 16C4.22386 16 4 16.2239 4 16.5C4 16.7761 4.22386 17 4.5 17C4.22386 17 4 17.2239 4 17.5C4 17.7761 4.22386 18 4.5 18C4.22386 18 4 18.2239 4 18.5C4 18.7761 4.22386 19 4.5 19C4.22386 19 4 19.2239 4 19.5C4 19.7761 4.22386 20 4.5 20C4.77614 20 5 19.7761 5 19.5C5 19.7761 5.22386 20 5.5 20C5.77614 20 6 19.7761 6 19.5C6 19.7761 6.22386 20 6.5 20C6.77614 20 7 19.7761 7 19.5C7 19.7761 7.22386 20 7.5 20C7.77614 20 8 19.7761 8 19.5C8 19.2239 7.77614 19 7.5 19C7.77614 19 8 18.7761 8 18.5C8 18.2239 7.77614 18 7.5 18C7.77614 18 8 17.7761 8 17.5C8 17.2239 7.77614 17 7.5 17C7.77614 17 8 16.7761 8 16.5C8 16.2239 7.77614 16 7.5 16C7.77614 16 8 15.7761 8 15.5C8 15.2239 7.77614 15 7.5 15C7.77614 15 8 14.7761 8 14.5C8 14.2239 7.77614 14 7.5 14C7.77614 14 8 13.7761 8 13.5C8 13.2239 7.77614 13 7.5 13C7.77614 13 8 12.7761 8 12.5C8 12.2239 7.77614 12 7.5 12C7.22386 12 7 12.2239 7 12.5ZM7 12.5C7 12.7761 6.77614 13 6.5 13C6.22386 13 6 12.7761 6 12.5C6 12.7761 5.77614 13 5.5 13C5.22386 13 5 12.7761 5 12.5C5 12.7761 4.77614 13 4.5 13C4.77614 13 5 13.2239 5 13.5C5 13.7761 4.77614 14 4.5 14C4.77614 14 5 14.2239 5 14.5C5 14.7761 4.77614 15 4.5 15C4.77614 15 5 15.2239 5 15.5C5 15.7761 4.77614 16 4.5 16C4.77614 16 5 16.2239 5 16.5C5 16.7761 4.77614 17 4.5 17C4.77614 17 5 17.2239 5 17.5C5 17.7761 4.77614 18 4.5 18C4.77614 18 5 18.2239 5 18.5C5 18.7761 4.77614 19 4.5 19C4.77614 19 5 19.2239 5 19.5C5 19.2239 5.22386 19 5.5 19C5.77614 19 6 19.2239 6 19.5C6 19.2239 6.22386 19 6.5 19C6.77614 19 7 19.2239 7 19.5C7 19.2239 7.22386 19 7.5 19C7.22386 19 7 18.7761 7 18.5C7 18.2239 7.22386 18 7.5 18C7.22386 18 7 17.7761 7 17.5C7 17.2239 7.22386 17 7.5 17C7.22386 17 7 16.7761 7 16.5C7 16.2239 7.22386 16 7.5 16C7.22386 16 7 15.7761 7 15.5C7 15.2239 7.22386 15 7.5 15C7.22386 15 7 14.7761 7 14.5C7 14.2239 7.22386 14 7.5 14C7.22386 14 7 13.7761 7 13.5C7 13.2239 7.22386 13 7.5 13C7.22386 13 7 12.7761 7 12.5ZM8 10.5C8 10.2239 8.22386 10 8.5 10C8.22386 10 8 9.77614 8 9.5C8 9.77614 7.77614 10 7.5 10C7.77614 10 8 10.2239 8 10.5ZM19.5 19C19.7761 19 20 18.7761 20 18.5C20 18.7761 20.2239 19 20.5 19C20.2239 19 20 19.2239 20 19.5C20 19.2239 19.7761 19 19.5 19ZM21 17.5C21 17.2239 20.7761 17 20.5 17C20.7761 17 21 16.7761 21 16.5C21 16.7761 21.2239 17 21.5 17C21.2239 17 21 17.2239 21 17.5ZM21 17.5C21 17.7761 20.7761 18 20.5 18C20.7761 18 21 18.2239 21 18.5C21 18.2239 21.2239 18 21.5 18C21.2239 18 21 17.7761 21 17.5ZM21 15.5C21 15.7761 21.2239 16 21.5 16C21.2239 16 21 16.2239 21 16.5C21 16.2239 20.7761 16 20.5 16C20.7761 16 21 15.7761 21 15.5ZM21 14.5C21 14.7761 21.2239 15 21.5 15C21.2239 15 21 15.2239 21 15.5C21 15.2239 20.7761 15 20.5 15C20.7761 15 21 14.7761 21 14.5ZM21 13.5C21 13.7761 21.2239 14 21.5 14C21.2239 14 21 14.2239 21 14.5C21 14.2239 20.7761 14 20.5 14C20.7761 14 21 13.7761 21 13.5ZM21 12.5C21 12.7761 21.2239 13 21.5 13C21.2239 13 21 13.2239 21 13.5C21 13.2239 20.7761 13 20.5 13C20.7761 13 21 12.7761 21 12.5ZM21 12.5C21 12.2239 20.7761 12 20.5 12C20.7761 12 21 11.7761 21 11.5C21 11.7761 21.2239 12 21.5 12C21.2239 12 21 12.2239 21 12.5ZM20 11.5C20 11.2239 19.7761 11 19.5 11C19.7761 11 20 10.7761 20 10.5C20 10.7761 20.2239 11 20.5 11C20.2239 11 20 11.2239 20 11.5ZM18.5 10C18.2239 10 18 10.2239 18 10.5C18 10.2239 17.7761 10 17.5 10C17.7761 10 18 9.77614 18 9.5C18 9.77614 18.2239 10 18.5 10ZM18.5 10C18.7761 10 19 10.2239 19 10.5C19 10.2239 19.2239 10 19.5 10C19.2239 10 19 9.77614 19 9.5C19 9.77614 18.7761 10 18.5 10ZM16.5 10C16.7761 10 17 9.77614 17 9.5C17 9.77614 17.2239 10 17.5 10C17.2239 10 17 10.2239 17 10.5C17 10.2239 16.7761 10 16.5 10ZM15.5 10C15.7761 10 16 9.77614 16 9.5C16 9.77614 16.2239 10 16.5 10C16.2239 10 16 10.2239 16 10.5C16 10.2239 15.7761 10 15.5 10ZM15 9.5C15 9.22386 15.2239 9 15.5 9C15.2239 9 15 8.77614 15 8.5C15 8.22386 15.2239 8 15.5 8C15.2239 8 15 7.77614 15 7.5C15 7.22386 15.2239 7 15.5 7C15.2239 7 15 6.77614 15 6.5C15 6.22386 15.2239 6 15.5 6C15.2239 6 15 5.77614 15 5.5C15 5.22386 15.2239 5 15.5 5C15.2239 5 15 4.77614 15 4.5C15 4.77614 14.7761 5 14.5 5C14.2239 5 14 4.77614 14 4.5C14 4.77614 13.7761 5 13.5 5C13.7761 5 14 5.22386 14 5.5C14 5.22386 14.2239 5 14.5 5C14.7761 5 15 5.22386 15 5.5C15 5.77614 14.7761 6 14.5 6C14.7761 6 15 6.22386 15 6.5C15 6.77614 14.7761 7 14.5 7C14.7761 7 15 7.22386 15 7.5C15 7.77614 14.7761 8 14.5 8C14.7761 8 15 8.22386 15 8.5C15 8.77614 14.7761 9 14.5 9C14.7761 9 15 9.22386 15 9.5ZM15 9.5C15 9.77614 15.2239 10 15.5 10C15.2239 10 15 10.2239 15 10.5C15 10.2239 14.7761 10 14.5 10C14.7761 10 15 9.77614 15 9.5Z" fill="white"/>
</svg>
