<svg width="24" height="24" viewBox="0 0 24 24" fill="none" xmlns="http://www.w3.org/2000/svg">
<path fill-rule="evenodd" clip-rule="evenodd" d="M12 3.5C12 3.77614 12.2239 4 12.5 4C12.2239 4 12 4.22386 12 4.5C12 4.22386 11.7761 4 11.5 4C11.2239 4 11 4.22386 11 4.5C11 4.77614 11.2239 5 11.5 5C11.2239 5 11 5.22386 11 5.5C11 5.22386 10.7761 5 10.5 5C10.2239 5 10 5.22386 10 5.5C10 5.77614 10.2239 6 10.5 6C10.2239 6 10 6.22386 10 6.5C10 6.22386 9.77614 6 9.5 6C9.22386 6 9 6.22386 9 6.5C9 6.77614 9.22386 7 9.5 7C9.22386 7 9 7.22386 9 7.5C9 7.22386 8.77614 7 8.5 7C8.22386 7 8 7.22386 8 7.5C8 7.77614 8.22386 8 8.5 8C8.22386 8 8 8.22386 8 8.5C8 8.77614 8.22386 9 8.5 9C8.22386 9 8 9.22386 8 9.5C8 9.77614 8.22386 10 8.5 10C8.22386 10 8 10.2239 8 10.5C8 10.7761 8.22386 11 8.5 11C8.22386 11 8 11.2239 8 11.5C8 11.7761 8.22386 12 8.5 12C8.22386 12 8 12.2239 8 12.5C8 12.2239 7.77614 12 7.5 12C7.22386 12 7 12.2239 7 12.5C7 12.7761 7.22386 13 7.5 13C7.22386 13 7 13.2239 7 13.5C7 13.2239 6.77614 13 6.5 13C6.22386 13 6 13.2239 6 13.5C6 13.7761 6.22386 14 6.5 14C6.22386 14 6 14.2239 6 14.5C6 14.2239 5.77614 14 5.5 14C5.22386 14 5 14.2239 5 14.5C5 14.7761 5.22386 15 5.5 15C5.22386 15 5 15.2239 5 15.5C5 15.2239 4.77614 15 4.5 15C4.22386 15 4 15.2239 4 15.5C4 15.7761 4.22386 16 4.5 16C4.22386 16 4 16.2239 4 16.5C4 16.2239 3.77614 16 3.5 16C3.22386 16 3 16.2239 3 16.5C3 16.7761 3.22386 17 3.5 17C3.22386 17 3 17.2239 3 17.5C3 17.7761 3.22386 18 3.5 18C3.22386 18 3 18.2239 3 18.5C3 18.7761 3.22386 19 3.5 19C3.22386 19 3 19.2239 3 19.5C3 19.7761 3.22386 20 3.5 20C3.77614 20 4 19.7761 4 19.5C4 19.7761 4.22386 20 4.5 20C4.22386 20 4 20.2239 4 20.5C4 20.7761 4.22386 21 4.5 21C4.77614 21 5 20.7761 5 20.5C5 20.7761 5.22386 21 5.5 21C5.77614 21 6 20.7761 6 20.5C6 20.7761 6.22386 21 6.5 21C6.77614 21 7 20.7761 7 20.5C7 20.7761 7.22386 21 7.5 21C7.77614 21 8 20.7761 8 20.5C8 20.2239 7.77614 20 7.5 20C7.77614 20 8 19.7761 8 19.5C8 19.7761 8.22386 20 8.5 20C8.77614 20 9 19.7761 9 19.5C9 19.2239 8.77614 19 8.5 19C8.77614 19 9 18.7761 9 18.5C9 18.7761 9.22386 19 9.5 19C9.77614 19 10 18.7761 10 18.5C10 18.2239 9.77614 18 9.5 18C9.77614 18 10 17.7761 10 17.5C10 17.7761 10.2239 18 10.5 18C10.7761 18 11 17.7761 11 17.5C11 17.2239 10.7761 17 10.5 17C10.7761 17 11 16.7761 11 16.5C11 16.7761 11.2239 17 11.5 17C11.7761 17 12 16.7761 12 16.5C12 16.2239 11.7761 16 11.5 16C11.7761 16 12 15.7761 12 15.5C12 15.7761 12.2239 16 12.5 16C12.7761 16 13 15.7761 13 15.5C13 15.7761 13.2239 16 13.5 16C13.7761 16 14 15.7761 14 15.5C14 15.7761 14.2239 16 14.5 16C14.7761 16 15 15.7761 15 15.5C15 15.7761 15.2239 16 15.5 16C15.7761 16 16 15.7761 16 15.5C16 15.7761 16.2239 16 16.5 16C16.7761 16 17 15.7761 17 15.5C17 15.2239 16.7761 15 16.5 15C16.7761 15 17 14.7761 17 14.5C17 14.7761 17.2239 15 17.5 15C17.7761 15 18 14.7761 18 14.5C18 14.2239 17.7761 14 17.5 14C17.7761 14 18 13.7761 18 13.5C18 13.7761 18.2239 14 18.5 14C18.7761 14 19 13.7761 19 13.5C19 13.2239 18.7761 13 18.5 13C18.7761 13 19 12.7761 19 12.5C19 12.7761 19.2239 13 19.5 13C19.7761 13 20 12.7761 20 12.5C20 12.2239 19.7761 12 19.5 12C19.7761 12 20 11.7761 20 11.5C20 11.7761 20.2239 12 20.5 12C20.7761 12 21 11.7761 21 11.5C21 11.2239 20.7761 11 20.5 11C20.7761 11 21 10.7761 21 10.5C21 10.2239 20.7761 10 20.5 10C20.7761 10 21 9.77614 21 9.5C21 9.22386 20.7761 9 20.5 9C20.7761 9 21 8.77614 21 8.5C21 8.22386 20.7761 8 20.5 8C20.2239 8 20 8.22386 20 8.5C20 8.22386 19.7761 8 19.5 8C19.7761 8 20 7.77614 20 7.5C20 7.22386 19.7761 7 19.5 7C19.2239 7 19 7.22386 19 7.5C19 7.22386 18.7761 7 18.5 7C18.2239 7 18 7.22386 18 7.5C18 7.22386 17.7761 7 17.5 7C17.2239 7 17 7.22386 17 7.5C17 7.77614 17.2239 8 17.5 8C17.2239 8 17 8.22386 17 8.5C17 8.22386 16.7761 8 16.5 8C16.2239 8 16 8.22386 16 8.5C16 8.77614 16.2239 9 16.5 9C16.2239 9 16 9.22386 16 9.5C16 9.22386 15.7761 9 15.5 9C15.2239 9 15 9.22386 15 9.5C15 9.77614 15.2239 10 15.5 10C15.2239 10 15 10.2239 15 10.5C15 10.2239 14.7761 10 14.5 10C14.2239 10 14 10.2239 14 10.5C14 10.2239 13.7761 10 13.5 10C13.7761 10 14 9.77614 14 9.5C14 9.22386 13.7761 9 13.5 9C13.7761 9 14 8.77614 14 8.5C14 8.77614 14.2239 9 14.5 9C14.7761 9 15 8.77614 15 8.5C15 8.22386 14.7761 8 14.5 8C14.7761 8 15 7.77614 15 7.5C15 7.77614 15.2239 8 15.5 8C15.7761 8 16 7.77614 16 7.5C16 7.22386 15.7761 7 15.5 7C15.7761 7 16 6.77614 16 6.5C16 6.77614 16.2239 7 16.5 7C16.7761 7 17 6.77614 17 6.5C17 6.22386 16.7761 6 16.5 6C16.7761 6 17 5.77614 17 5.5C17 5.22386 16.7761 5 16.5 5C16.7761 5 17 4.77614 17 4.5C17 4.22386 16.7761 4 16.5 4C16.2239 4 16 4.22386 16 4.5C16 4.22386 15.7761 4 15.5 4C15.7761 4 16 3.77614 16 3.5C16 3.22386 15.7761 3 15.5 3C15.2239 3 15 3.22386 15 3.5C15 3.22386 14.7761 3 14.5 3C14.2239 3 14 3.22386 14 3.5C14 3.22386 13.7761 3 13.5 3C13.2239 3 13 3.22386 13 3.5C13 3.22386 12.7761 3 12.5 3C12.2239 3 12 3.22386 12 3.5ZM13.5 4C13.2239 4 13 3.77614 13 3.5C13 3.77614 12.7761 4 12.5 4C12.7761 4 13 4.22386 13 4.5C13 4.77614 12.7761 5 12.5 5C12.2239 5 12 4.77614 12 4.5C12 4.77614 11.7761 5 11.5 5C11.7761 5 12 5.22386 12 5.5C12 5.77614 11.7761 6 11.5 6C11.2239 6 11 5.77614 11 5.5C11 5.77614 10.7761 6 10.5 6C10.7761 6 11 6.22386 11 6.5C11 6.77614 10.7761 7 10.5 7C10.2239 7 10 6.77614 10 6.5C10 6.77614 9.77614 7 9.5 7C9.77614 7 10 7.22386 10 7.5C10 7.77614 9.77614 8 9.5 8C9.22386 8 9 7.77614 9 7.5C9 7.77614 8.77614 8 8.5 8C8.77614 8 9 8.22386 9 8.5C9 8.77614 8.77614 9 8.5 9C8.77614 9 9 9.22386 9 9.5C9 9.77614 8.77614 10 8.5 10C8.77614 10 9 10.2239 9 10.5C9 10.7761 8.77614 11 8.5 11C8.77614 11 9 11.2239 9 11.5C9 11.7761 8.77614 12 8.5 12C8.77614 12 9 12.2239 9 12.5C9 12.7761 8.77614 13 8.5 13C8.22386 13 8 12.7761 8 12.5C8 12.7761 7.77614 13 7.5 13C7.77614 13 8 13.2239 8 13.5C8 13.7761 7.77614 14 7.5 14C7.22386 14 7 13.7761 7 13.5C7 13.7761 6.77614 14 6.5 14C6.77614 14 7 14.2239 7 14.5C7 14.7761 6.77614 15 6.5 15C6.22386 15 6 14.7761 6 14.5C6 14.7761 5.77614 15 5.5 15C5.77614 15 6 15.2239 6 15.5C6 15.7761 5.77614 16 5.5 16C5.22386 16 5 15.7761 5 15.5C5 15.7761 4.77614 16 4.5 16C4.77614 16 5 16.2239 5 16.5C5 16.7761 4.77614 17 4.5 17C4.22386 17 4 16.7761 4 16.5C4 16.7761 3.77614 17 3.5 17C3.77614 17 4 17.2239 4 17.5C4 17.7761 3.77614 18 3.5 18C3.77614 18 4 18.2239 4 18.5C4 18.7761 3.77614 19 3.5 19C3.77614 19 4 19.2239 4 19.5C4 19.2239 4.22386 19 4.5 19C4.77614 19 5 19.2239 5 19.5C5 19.7761 4.77614 20 4.5 20C4.77614 20 5 20.2239 5 20.5C5 20.2239 5.22386 20 5.5 20C5.77614 20 6 20.2239 6 20.5C6 20.2239 6.22386 20 6.5 20C6.77614 20 7 20.2239 7 20.5C7 20.2239 7.22386 20 7.5 20C7.22386 20 7 19.7761 7 19.5C7 19.2239 7.22386 19 7.5 19C7.77614 19 8 19.2239 8 19.5C8 19.2239 8.22386 19 8.5 19C8.22386 19 8 18.7761 8 18.5C8 18.2239 8.22386 18 8.5 18C8.77614 18 9 18.2239 9 18.5C9 18.2239 9.22386 18 9.5 18C9.22386 18 9 17.7761 9 17.5C9 17.2239 9.22386 17 9.5 17C9.77614 17 10 17.2239 10 17.5C10 17.2239 10.2239 17 10.5 17C10.2239 17 10 16.7761 10 16.5C10 16.2239 10.2239 16 10.5 16C10.7761 16 11 16.2239 11 16.5C11 16.2239 11.2239 16 11.5 16C11.2239 16 11 15.7761 11 15.5C11 15.2239 11.2239 15 11.5 15C11.7761 15 12 15.2239 12 15.5C12 15.2239 12.2239 15 12.5 15C12.7761 15 13 15.2239 13 15.5C13 15.2239 13.2239 15 13.5 15C13.7761 15 14 15.2239 14 15.5C14 15.2239 14.2239 15 14.5 15C14.7761 15 15 15.2239 15 15.5C15 15.2239 15.2239 15 15.5 15C15.7761 15 16 15.2239 16 15.5C16 15.2239 16.2239 15 16.5 15C16.2239 15 16 14.7761 16 14.5C16 14.2239 16.2239 14 16.5 14C16.7761 14 17 14.2239 17 14.5C17 14.2239 17.2239 14 17.5 14C17.2239 14 17 13.7761 17 13.5C17 13.2239 17.2239 13 17.5 13C17.7761 13 18 13.2239 18 13.5C18 13.2239 18.2239 13 18.5 13C18.2239 13 18 12.7761 18 12.5C18 12.2239 18.2239 12 18.5 12C18.7761 12 19 12.2239 19 12.5C19 12.2239 19.2239 12 19.5 12C19.2239 12 19 11.7761 19 11.5C19 11.2239 19.2239 11 19.5 11C19.7761 11 20 11.2239 20 11.5C20 11.2239 20.2239 11 20.5 11C20.2239 11 20 10.7761 20 10.5C20 10.2239 20.2239 10 20.5 10C20.2239 10 20 9.77614 20 9.5C20 9.22386 20.2239 9 20.5 9C20.2239 9 20 8.77614 20 8.5C20 8.77614 19.7761 9 19.5 9C19.2239 9 19 8.77614 19 8.5C19 8.22386 19.2239 8 19.5 8C19.2239 8 19 7.77614 19 7.5C19 7.77614 18.7761 8 18.5 8C18.2239 8 18 7.77614 18 7.5C18 7.77614 17.7761 8 17.5 8C17.7761 8 18 8.22386 18 8.5C18 8.77614 17.7761 9 17.5 9C17.2239 9 17 8.77614 17 8.5C17 8.77614 16.7761 9 16.5 9C16.7761 9 17 9.22386 17 9.5C17 9.77614 16.7761 10 16.5 10C16.2239 10 16 9.77614 16 9.5C16 9.77614 15.7761 10 15.5 10C15.7761 10 16 10.2239 16 10.5C16 10.7761 15.7761 11 15.5 11C15.2239 11 15 10.7761 15 10.5C15 10.7761 14.7761 11 14.5 11C14.2239 11 14 10.7761 14 10.5C14 10.7761 13.7761 11 13.5 11C13.2239 11 13 10.7761 13 10.5C13 10.2239 13.2239 10 13.5 10C13.2239 10 13 9.77614 13 9.5C13 9.22386 13.2239 9 13.5 9C13.2239 9 13 8.77614 13 8.5C13 8.22386 13.2239 8 13.5 8C13.7761 8 14 8.22386 14 8.5C14 8.22386 14.2239 8 14.5 8C14.2239 8 14 7.77614 14 7.5C14 7.22386 14.2239 7 14.5 7C14.7761 7 15 7.22386 15 7.5C15 7.22386 15.2239 7 15.5 7C15.2239 7 15 6.77614 15 6.5C15 6.22386 15.2239 6 15.5 6C15.7761 6 16 6.22386 16 6.5C16 6.22386 16.2239 6 16.5 6C16.2239 6 16 5.77614 16 5.5C16 5.22386 16.2239 5 16.5 5C16.2239 5 16 4.77614 16 4.5C16 4.77614 15.7761 5 15.5 5C15.2239 5 15 4.77614 15 4.5C15 4.22386 15.2239 4 15.5 4C15.2239 4 15 3.77614 15 3.5C15 3.77614 14.7761 4 14.5 4C14.2239 4 14 3.77614 14 3.5C14 3.77614 13.7761 4 13.5 4ZM14 4.5C14 4.22386 14.2239 4 14.5 4C14.7761 4 15 4.22386 15 4.5C15 4.77614 14.7761 5 14.5 5C14.2239 5 14 4.77614 14 4.5ZM14 4.5C14 4.22386 13.7761 4 13.5 4C13.2239 4 13 4.22386 13 4.5C13 4.77614 13.2239 5 13.5 5C13.7761 5 14 4.77614 14 4.5ZM15.5 5C15.7761 5 16 5.22386 16 5.5C16 5.77614 15.7761 6 15.5 6C15.2239 6 15 5.77614 15 5.5C15 5.22386 15.2239 5 15.5 5ZM15 6.5C15 6.22386 14.7761 6 14.5 6C14.2239 6 14 6.22386 14 6.5C14 6.77614 14.2239 7 14.5 7C14.7761 7 15 6.77614 15 6.5ZM14 7.5C14 7.77614 13.7761 8 13.5 8C13.2239 8 13 7.77614 13 7.5C13 7.22386 13.2239 7 13.5 7C13.7761 7 14 7.22386 14 7.5ZM12.5 9C12.7761 9 13 9.22386 13 9.5C13 9.77614 12.7761 10 12.5 10C12.2239 10 12 9.77614 12 9.5C12 9.22386 12.2239 9 12.5 9ZM12.5 9C12.7761 9 13 8.77614 13 8.5C13 8.22386 12.7761 8 12.5 8C12.2239 8 12 8.22386 12 8.5C12 8.77614 12.2239 9 12.5 9ZM15 11.5C15 11.2239 15.2239 11 15.5 11C15.7761 11 16 11.2239 16 11.5C16 11.7761 15.7761 12 15.5 12C15.2239 12 15 11.7761 15 11.5ZM15 11.5C15 11.2239 14.7761 11 14.5 11C14.2239 11 14 11.2239 14 11.5C14 11.7761 14.2239 12 14.5 12C14.7761 12 15 11.7761 15 11.5ZM16 10.5C16 10.2239 16.2239 10 16.5 10C16.7761 10 17 10.2239 17 10.5C17 10.7761 16.7761 11 16.5 11C16.2239 11 16 10.7761 16 10.5ZM17 9.5C17 9.77614 17.2239 10 17.5 10C17.7761 10 18 9.77614 18 9.5C18 9.22386 17.7761 9 17.5 9C17.2239 9 17 9.22386 17 9.5ZM18 8.5C18 8.22386 18.2239 8 18.5 8C18.7761 8 19 8.22386 19 8.5C19 8.77614 18.7761 9 18.5 9C18.2239 9 18 8.77614 18 8.5ZM19.5 10C19.2239 10 19 10.2239 19 10.5C19 10.7761 19.2239 11 19.5 11C19.7761 11 20 10.7761 20 10.5C20 10.2239 19.7761 10 19.5 10ZM19.5 10C19.2239 10 19 9.77614 19 9.5C19 9.22386 19.2239 9 19.5 9C19.7761 9 20 9.22386 20 9.5C20 9.77614 19.7761 10 19.5 10ZM19 11.5C19 11.7761 18.7761 12 18.5 12C18.2239 12 18 11.7761 18 11.5C18 11.2239 18.2239 11 18.5 11C18.7761 11 19 11.2239 19 11.5ZM18 12.5C18 12.7761 17.7761 13 17.5 13C17.2239 13 17 12.7761 17 12.5C17 12.2239 17.2239 12 17.5 12C17.7761 12 18 12.2239 18 12.5ZM17 13.5C17 13.2239 16.7761 13 16.5 13C16.2239 13 16 13.2239 16 13.5C16 13.7761 16.2239 14 16.5 14C16.7761 14 17 13.7761 17 13.5ZM15 14.5C15 14.7761 15.2239 15 15.5 15C15.7761 15 16 14.7761 16 14.5C16 14.2239 15.7761 14 15.5 14C15.2239 14 15 14.2239 15 14.5ZM14 14.5C14 14.2239 14.2239 14 14.5 14C14.7761 14 15 14.2239 15 14.5C15 14.7761 14.7761 15 14.5 15C14.2239 15 14 14.7761 14 14.5ZM13 14.5C13 14.7761 13.2239 15 13.5 15C13.7761 15 14 14.7761 14 14.5C14 14.2239 13.7761 14 13.5 14C13.2239 14 13 14.2239 13 14.5ZM12 14.5C12 14.2239 11.7761 14 11.5 14C11.2239 14 11 14.2239 11 14.5C11 14.7761 11.2239 15 11.5 15C11.7761 15 12 14.7761 12 14.5ZM12 14.5C12 14.2239 12.2239 14 12.5 14C12.7761 14 13 14.2239 13 14.5C13 14.7761 12.7761 15 12.5 15C12.2239 15 12 14.7761 12 14.5ZM11 15.5C11 15.2239 10.7761 15 10.5 15C10.2239 15 10 15.2239 10 15.5C10 15.7761 10.2239 16 10.5 16C10.7761 16 11 15.7761 11 15.5ZM10 16.5C10 16.7761 9.77614 17 9.5 17C9.22386 17 9 16.7761 9 16.5C9 16.2239 9.22386 16 9.5 16C9.77614 16 10 16.2239 10 16.5ZM9 17.5C9 17.2239 8.77614 17 8.5 17C8.22386 17 8 17.2239 8 17.5C8 17.7761 8.22386 18 8.5 18C8.77614 18 9 17.7761 9 17.5ZM8 18.5C8 18.7761 7.77614 19 7.5 19C7.22386 19 7 18.7761 7 18.5C7 18.2239 7.22386 18 7.5 18C7.77614 18 8 18.2239 8 18.5ZM6 19.5C6 19.2239 5.77614 19 5.5 19C5.22386 19 5 19.2239 5 19.5C5 19.7761 5.22386 20 5.5 20C5.77614 20 6 19.7761 6 19.5ZM6 19.5C6 19.2239 6.22386 19 6.5 19C6.77614 19 7 19.2239 7 19.5C7 19.7761 6.77614 20 6.5 20C6.22386 20 6 19.7761 6 19.5ZM4.5 18C4.77614 18 5 17.7761 5 17.5C5 17.2239 4.77614 17 4.5 17C4.22386 17 4 17.2239 4 17.5C4 17.7761 4.22386 18 4.5 18ZM4.5 18C4.77614 18 5 18.2239 5 18.5C5 18.7761 4.77614 19 4.5 19C4.22386 19 4 18.7761 4 18.5C4 18.2239 4.22386 18 4.5 18ZM5 16.5C5 16.7761 5.22386 17 5.5 17C5.77614 17 6 16.7761 6 16.5C6 16.2239 5.77614 16 5.5 16C5.22386 16 5 16.2239 5 16.5ZM6 15.5C6 15.2239 6.22386 15 6.5 15C6.77614 15 7 15.2239 7 15.5C7 15.7761 6.77614 16 6.5 16C6.22386 16 6 15.7761 6 15.5ZM7 14.5C7 14.7761 7.22386 15 7.5 15C7.77614 15 8 14.7761 8 14.5C8 14.2239 7.77614 14 7.5 14C7.22386 14 7 14.2239 7 14.5ZM8 13.5C8 13.2239 8.22386 13 8.5 13C8.77614 13 9 13.2239 9 13.5C9 13.7761 8.77614 14 8.5 14C8.22386 14 8 13.7761 8 13.5ZM9.5 12C9.22386 12 9 12.2239 9 12.5C9 12.7761 9.22386 13 9.5 13C9.77614 13 10 12.7761 10 12.5C10 12.2239 9.77614 12 9.5 12ZM9.5 11C9.22386 11 9 11.2239 9 11.5C9 11.7761 9.22386 12 9.5 12C9.77614 12 10 11.7761 10 11.5C10 11.2239 9.77614 11 9.5 11ZM9.5 10C9.22386 10 9 9.77614 9 9.5C9 9.22386 9.22386 9 9.5 9C9.77614 9 10 9.22386 10 9.5C10 9.77614 9.77614 10 9.5 10ZM9.5 10C9.22386 10 9 10.2239 9 10.5C9 10.7761 9.22386 11 9.5 11C9.77614 11 10 10.7761 10 10.5C10 10.2239 9.77614 10 9.5 10ZM9.5 9C9.22386 9 9 8.77614 9 8.5C9 8.22386 9.22386 8 9.5 8C9.77614 8 10 8.22386 10 8.5C10 8.77614 9.77614 9 9.5 9ZM10 7.5C10 7.77614 10.2239 8 10.5 8C10.7761 8 11 7.77614 11 7.5C11 7.22386 10.7761 7 10.5 7C10.2239 7 10 7.22386 10 7.5ZM11 6.5C11 6.22386 11.2239 6 11.5 6C11.7761 6 12 6.22386 12 6.5C12 6.77614 11.7761 7 11.5 7C11.2239 7 11 6.77614 11 6.5ZM12 5.5C12 5.77614 12.2239 6 12.5 6C12.7761 6 13 5.77614 13 5.5C13 5.22386 12.7761 5 12.5 5C12.2239 5 12 5.22386 12 5.5Z" fill="white"/>
</svg>
