<svg width="24" height="24" viewBox="0 0 24 24" fill="none" xmlns="http://www.w3.org/2000/svg">
<path fill-rule="evenodd" clip-rule="evenodd" d="M8 8.5C8 8.77614 8.22386 9 8.5 9C8.22386 9 8 9.22386 8 9.5C8 9.22386 7.77614 9 7.5 9C7.77614 9 8 8.77614 8 8.5ZM7 8.5C7 8.22386 7.22386 8 7.5 8C7.77614 8 8 8.22386 8 8.5C8 8.22386 8.22386 8 8.5 8C8.77614 8 9 8.22386 9 8.5C9 8.77614 8.77614 9 8.5 9C8.77614 9 9 9.22386 9 9.5C9 9.77614 8.77614 10 8.5 10C8.22386 10 8 9.77614 8 9.5C8 9.77614 7.77614 10 7.5 10C7.22386 10 7 9.77614 7 9.5C7 9.22386 7.22386 9 7.5 9C7.22386 9 7 8.77614 7 8.5ZM6 8.5C6 8.22386 5.77614 8 5.5 8C5.22386 8 5 8.22386 5 8.5C5 8.77614 5.22386 9 5.5 9C5.22386 9 5 9.22386 5 9.5C5 9.22386 4.77614 9 4.5 9C4.22386 9 4 9.22386 4 9.5C4 9.77614 4.22386 10 4.5 10C4.22386 10 4 10.2239 4 10.5C4 10.2239 3.77614 10 3.5 10C3.22386 10 3 10.2239 3 10.5C3 10.7761 3.22386 11 3.5 11C3.22386 11 3 11.2239 3 11.5C3 11.7761 3.22386 12 3.5 12C3.22386 12 3 12.2239 3 12.5C3 12.7761 3.22386 13 3.5 13C3.22386 13 3 13.2239 3 13.5C3 13.7761 3.22386 14 3.5 14C3.77614 14 4 13.7761 4 13.5C4 13.7761 4.22386 14 4.5 14C4.22386 14 4 14.2239 4 14.5C4 14.7761 4.22386 15 4.5 15C4.77614 15 5 14.7761 5 14.5C5 14.7761 5.22386 15 5.5 15C5.22386 15 5 15.2239 5 15.5C5 15.7761 5.22386 16 5.5 16C5.77614 16 6 15.7761 6 15.5C6 15.7761 6.22386 16 6.5 16C6.77614 16 7 15.7761 7 15.5C7 15.7761 7.22386 16 7.5 16C7.77614 16 8 15.7761 8 15.5C8 15.7761 8.22386 16 8.5 16C8.77614 16 9 15.7761 9 15.5C9 15.7761 9.22386 16 9.5 16C9.77614 16 10 15.7761 10 15.5C10 15.7761 10.2239 16 10.5 16C10.7761 16 11 15.7761 11 15.5C11 15.7761 11.2239 16 11.5 16C11.7761 16 12 15.7761 12 15.5C12 15.7761 12.2239 16 12.5 16C12.7761 16 13 15.7761 13 15.5C13 15.7761 13.2239 16 13.5 16C13.7761 16 14 15.7761 14 15.5C14 15.7761 14.2239 16 14.5 16C14.7761 16 15 15.7761 15 15.5C15 15.7761 15.2239 16 15.5 16C15.7761 16 16 15.7761 16 15.5C16 15.7761 16.2239 16 16.5 16C16.7761 16 17 15.7761 17 15.5C17 15.7761 17.2239 16 17.5 16C17.7761 16 18 15.7761 18 15.5C18 15.7761 18.2239 16 18.5 16C18.7761 16 19 15.7761 19 15.5C19 15.2239 18.7761 15 18.5 15C18.7761 15 19 14.7761 19 14.5C19 14.7761 19.2239 15 19.5 15C19.7761 15 20 14.7761 20 14.5C20 14.2239 19.7761 14 19.5 14C19.7761 14 20 13.7761 20 13.5C20 13.7761 20.2239 14 20.5 14C20.7761 14 21 13.7761 21 13.5C21 13.2239 20.7761 13 20.5 13C20.7761 13 21 12.7761 21 12.5C21 12.2239 20.7761 12 20.5 12C20.7761 12 21 11.7761 21 11.5C21 11.2239 20.7761 11 20.5 11C20.7761 11 21 10.7761 21 10.5C21 10.2239 20.7761 10 20.5 10C20.2239 10 20 10.2239 20 10.5C20 10.2239 19.7761 10 19.5 10C19.7761 10 20 9.77614 20 9.5C20 9.22386 19.7761 9 19.5 9C19.2239 9 19 9.22386 19 9.5C19 9.22386 18.7761 9 18.5 9C18.7761 9 19 8.77614 19 8.5C19 8.22386 18.7761 8 18.5 8C18.2239 8 18 8.22386 18 8.5C18 8.22386 17.7761 8 17.5 8C17.2239 8 17 8.22386 17 8.5C17 8.22386 16.7761 8 16.5 8C16.2239 8 16 8.22386 16 8.5C16 8.22386 15.7761 8 15.5 8C15.2239 8 15 8.22386 15 8.5C15 8.77614 15.2239 9 15.5 9C15.2239 9 15 9.22386 15 9.5C15 9.22386 14.7761 9 14.5 9C14.2239 9 14 9.22386 14 9.5C14 9.77614 14.2239 10 14.5 10C14.2239 10 14 10.2239 14 10.5C14 10.2239 13.7761 10 13.5 10C13.2239 10 13 10.2239 13 10.5C13 10.7761 13.2239 11 13.5 11C13.2239 11 13 11.2239 13 11.5C13 11.7761 13.2239 12 13.5 12C13.2239 12 13 12.2239 13 12.5C13 12.7761 13.2239 13 13.5 13C13.2239 13 13 13.2239 13 13.5C13 13.7761 13.2239 14 13.5 14C13.2239 14 13 14.2239 13 14.5C13 14.2239 12.7761 14 12.5 14C12.2239 14 12 14.2239 12 14.5C12 14.2239 11.7761 14 11.5 14C11.2239 14 11 14.2239 11 14.5C11 14.2239 10.7761 14 10.5 14C10.7761 14 11 13.7761 11 13.5C11 13.2239 10.7761 13 10.5 13C10.7761 13 11 12.7761 11 12.5C11 12.2239 10.7761 12 10.5 12C10.7761 12 11 11.7761 11 11.5C11 11.2239 10.7761 11 10.5 11C10.7761 11 11 10.7761 11 10.5C11 10.2239 10.7761 10 10.5 10C10.2239 10 10 10.2239 10 10.5C10 10.2239 9.77614 10 9.5 10C9.77614 10 10 9.77614 10 9.5C10 9.22386 9.77614 9 9.5 9C9.22386 9 9 9.22386 9 9.5C9 9.77614 9.22386 10 9.5 10C9.22386 10 9 10.2239 9 10.5C9 10.2239 8.77614 10 8.5 10C8.22386 10 8 10.2239 8 10.5C8 10.7761 8.22386 11 8.5 11C8.77614 11 9 10.7761 9 10.5C9 10.7761 9.22386 11 9.5 11C9.22386 11 9 11.2239 9 11.5C9 11.7761 9.22386 12 9.5 12C9.22386 12 9 12.2239 9 12.5C9 12.7761 9.22386 13 9.5 13C9.22386 13 9 13.2239 9 13.5C9 13.2239 8.77614 13 8.5 13C8.22386 13 8 13.2239 8 13.5C8 13.7761 8.22386 14 8.5 14C8.22386 14 8 14.2239 8 14.5C8 14.2239 7.77614 14 7.5 14C7.22386 14 7 14.2239 7 14.5C7 14.2239 6.77614 14 6.5 14C6.22386 14 6 14.2239 6 14.5C6 14.2239 5.77614 14 5.5 14C5.77614 14 6 13.7761 6 13.5C6 13.2239 5.77614 13 5.5 13C5.22386 13 5 13.2239 5 13.5C5 13.2239 4.77614 13 4.5 13C4.77614 13 5 12.7761 5 12.5C5 12.2239 4.77614 12 4.5 12C4.77614 12 5 11.7761 5 11.5C5 11.2239 4.77614 11 4.5 11C4.77614 11 5 10.7761 5 10.5C5 10.7761 5.22386 11 5.5 11C5.77614 11 6 10.7761 6 10.5C6 10.2239 5.77614 10 5.5 10C5.77614 10 6 9.77614 6 9.5C6 9.77614 6.22386 10 6.5 10C6.77614 10 7 9.77614 7 9.5C7 9.22386 6.77614 9 6.5 9C6.77614 9 7 8.77614 7 8.5C7 8.22386 6.77614 8 6.5 8C6.22386 8 6 8.22386 6 8.5ZM6.5 9C6.22386 9 6 9.22386 6 9.5C6 9.22386 5.77614 9 5.5 9C5.77614 9 6 8.77614 6 8.5C6 8.77614 6.22386 9 6.5 9ZM5.5 10C5.22386 10 5 10.2239 5 10.5C5 10.2239 4.77614 10 4.5 10C4.77614 10 5 9.77614 5 9.5C5 9.77614 5.22386 10 5.5 10ZM4 11.5C4 11.7761 4.22386 12 4.5 12C4.22386 12 4 12.2239 4 12.5C4 12.2239 3.77614 12 3.5 12C3.77614 12 4 11.7761 4 11.5ZM4 11.5C4 11.2239 4.22386 11 4.5 11C4.22386 11 4 10.7761 4 10.5C4 10.7761 3.77614 11 3.5 11C3.77614 11 4 11.2239 4 11.5ZM4 12.5C4 12.7761 4.22386 13 4.5 13C4.22386 13 4 13.2239 4 13.5C4 13.2239 3.77614 13 3.5 13C3.77614 13 4 12.7761 4 12.5ZM5 13.5C5 13.7761 5.22386 14 5.5 14C5.22386 14 5 14.2239 5 14.5C5 14.2239 4.77614 14 4.5 14C4.77614 14 5 13.7761 5 13.5ZM6.5 15C6.77614 15 7 14.7761 7 14.5C7 14.7761 7.22386 15 7.5 15C7.22386 15 7 15.2239 7 15.5C7 15.2239 6.77614 15 6.5 15ZM6.5 15C6.22386 15 6 14.7761 6 14.5C6 14.7761 5.77614 15 5.5 15C5.77614 15 6 15.2239 6 15.5C6 15.2239 6.22386 15 6.5 15ZM7.5 15C7.77614 15 8 14.7761 8 14.5C8 14.7761 8.22386 15 8.5 15C8.22386 15 8 15.2239 8 15.5C8 15.2239 7.77614 15 7.5 15ZM9 14.5C9 14.7761 8.77614 15 8.5 15C8.77614 15 9 15.2239 9 15.5C9 15.2239 9.22386 15 9.5 15C9.77614 15 10 15.2239 10 15.5C10 15.2239 10.2239 15 10.5 15C10.7761 15 11 15.2239 11 15.5C11 15.2239 11.2239 15 11.5 15C11.7761 15 12 15.2239 12 15.5C12 15.2239 12.2239 15 12.5 15C12.7761 15 13 15.2239 13 15.5C13 15.2239 13.2239 15 13.5 15C13.7761 15 14 15.2239 14 15.5C14 15.2239 14.2239 15 14.5 15C14.7761 15 15 15.2239 15 15.5C15 15.2239 15.2239 15 15.5 15C15.7761 15 16 15.2239 16 15.5C16 15.2239 16.2239 15 16.5 15C16.7761 15 17 15.2239 17 15.5C17 15.2239 17.2239 15 17.5 15C17.7761 15 18 15.2239 18 15.5C18 15.2239 18.2239 15 18.5 15C18.2239 15 18 14.7761 18 14.5C18 14.2239 18.2239 14 18.5 14C18.7761 14 19 14.2239 19 14.5C19 14.2239 19.2239 14 19.5 14C19.2239 14 19 13.7761 19 13.5C19 13.2239 19.2239 13 19.5 13C19.7761 13 20 13.2239 20 13.5C20 13.2239 20.2239 13 20.5 13C20.2239 13 20 12.7761 20 12.5C20 12.2239 20.2239 12 20.5 12C20.2239 12 20 11.7761 20 11.5C20 11.2239 20.2239 11 20.5 11C20.2239 11 20 10.7761 20 10.5C20 10.7761 19.7761 11 19.5 11C19.2239 11 19 10.7761 19 10.5C19 10.2239 19.2239 10 19.5 10C19.2239 10 19 9.77614 19 9.5C19 9.77614 18.7761 10 18.5 10C18.2239 10 18 9.77614 18 9.5C18 9.22386 18.2239 9 18.5 9C18.2239 9 18 8.77614 18 8.5C18 8.77614 17.7761 9 17.5 9C17.2239 9 17 8.77614 17 8.5C17 8.77614 16.7761 9 16.5 9C16.2239 9 16 8.77614 16 8.5C16 8.77614 15.7761 9 15.5 9C15.7761 9 16 9.22386 16 9.5C16 9.77614 15.7761 10 15.5 10C15.2239 10 15 9.77614 15 9.5C15 9.77614 14.7761 10 14.5 10C14.7761 10 15 10.2239 15 10.5C15 10.7761 14.7761 11 14.5 11C14.2239 11 14 10.7761 14 10.5C14 10.7761 13.7761 11 13.5 11C13.7761 11 14 11.2239 14 11.5C14 11.7761 13.7761 12 13.5 12C13.7761 12 14 12.2239 14 12.5C14 12.7761 13.7761 13 13.5 13C13.7761 13 14 13.2239 14 13.5C14 13.7761 13.7761 14 13.5 14C13.7761 14 14 14.2239 14 14.5C14 14.7761 13.7761 15 13.5 15C13.2239 15 13 14.7761 13 14.5C13 14.7761 12.7761 15 12.5 15C12.2239 15 12 14.7761 12 14.5C12 14.7761 11.7761 15 11.5 15C11.2239 15 11 14.7761 11 14.5C11 14.7761 10.7761 15 10.5 15C10.2239 15 10 14.7761 10 14.5C10 14.2239 10.2239 14 10.5 14C10.2239 14 10 13.7761 10 13.5C10 13.2239 10.2239 13 10.5 13C10.2239 13 10 12.7761 10 12.5C10 12.2239 10.2239 12 10.5 12C10.2239 12 10 11.7761 10 11.5C10 11.2239 10.2239 11 10.5 11C10.2239 11 10 10.7761 10 10.5C10 10.7761 9.77614 11 9.5 11C9.77614 11 10 11.2239 10 11.5C10 11.7761 9.77614 12 9.5 12C9.77614 12 10 12.2239 10 12.5C10 12.7761 9.77614 13 9.5 13C9.77614 13 10 13.2239 10 13.5C10 13.7761 9.77614 14 9.5 14C9.22386 14 9 13.7761 9 13.5C9 13.7761 8.77614 14 8.5 14C8.77614 14 9 14.2239 9 14.5ZM9 14.5C9 14.7761 9.22386 15 9.5 15C9.77614 15 10 14.7761 10 14.5C10 14.2239 9.77614 14 9.5 14C9.22386 14 9 14.2239 9 14.5ZM14.5 14C14.2239 14 14 14.2239 14 14.5C14 14.7761 14.2239 15 14.5 15C14.7761 15 15 14.7761 15 14.5C15 14.7761 15.2239 15 15.5 15C15.7761 15 16 14.7761 16 14.5C16 14.7761 16.2239 15 16.5 15C16.7761 15 17 14.7761 17 14.5C17 14.7761 17.2239 15 17.5 15C17.7761 15 18 14.7761 18 14.5C18 14.2239 17.7761 14 17.5 14C17.2239 14 17 14.2239 17 14.5C17 14.2239 16.7761 14 16.5 14C16.2239 14 16 14.2239 16 14.5C16 14.2239 15.7761 14 15.5 14C15.7761 14 16 13.7761 16 13.5C16 13.2239 15.7761 13 15.5 13C15.2239 13 15 13.2239 15 13.5C15 13.2239 14.7761 13 14.5 13C14.7761 13 15 12.7761 15 12.5C15 12.2239 14.7761 12 14.5 12C14.7761 12 15 11.7761 15 11.5C15 11.2239 14.7761 11 14.5 11C14.2239 11 14 11.2239 14 11.5C14 11.7761 14.2239 12 14.5 12C14.2239 12 14 12.2239 14 12.5C14 12.7761 14.2239 13 14.5 13C14.2239 13 14 13.2239 14 13.5C14 13.7761 14.2239 14 14.5 14ZM14.5 14C14.7761 14 15 13.7761 15 13.5C15 13.7761 15.2239 14 15.5 14C15.2239 14 15 14.2239 15 14.5C15 14.2239 14.7761 14 14.5 14ZM15 10.5C15 10.2239 15.2239 10 15.5 10C15.7761 10 16 10.2239 16 10.5C16 10.7761 15.7761 11 15.5 11C15.2239 11 15 10.7761 15 10.5ZM17 9.5C17 9.22386 16.7761 9 16.5 9C16.2239 9 16 9.22386 16 9.5C16 9.77614 16.2239 10 16.5 10C16.7761 10 17 9.77614 17 9.5ZM17 9.5C17 9.22386 17.2239 9 17.5 9C17.7761 9 18 9.22386 18 9.5C18 9.77614 17.7761 10 17.5 10C17.2239 10 17 9.77614 17 9.5ZM18.5 10C18.7761 10 19 10.2239 19 10.5C19 10.7761 18.7761 11 18.5 11C18.2239 11 18 10.7761 18 10.5C18 10.2239 18.2239 10 18.5 10ZM19.5 12C19.7761 12 20 12.2239 20 12.5C20 12.7761 19.7761 13 19.5 13C19.2239 13 19 12.7761 19 12.5C19 12.2239 19.2239 12 19.5 12ZM19.5 12C19.2239 12 19 11.7761 19 11.5C19 11.2239 19.2239 11 19.5 11C19.7761 11 20 11.2239 20 11.5C20 11.7761 19.7761 12 19.5 12ZM19 13.5C19 13.2239 18.7761 13 18.5 13C18.2239 13 18 13.2239 18 13.5C18 13.7761 18.2239 14 18.5 14C18.7761 14 19 13.7761 19 13.5Z" fill="white"/>
</svg>
