<svg width="24" height="24" viewBox="0 0 24 24" fill="none" xmlns="http://www.w3.org/2000/svg">
<path fill-rule="evenodd" clip-rule="evenodd" d="M6.5 6C6.22386 6 6 6.22386 6 6.5C6 6.77614 6.22386 7 6.5 7C6.22386 7 6 7.22386 6 7.5C6 7.77614 6.22386 8 6.5 8C6.77614 8 7 7.77614 7 7.5C7 7.77614 7.22386 8 7.5 8C7.22386 8 7 8.22386 7 8.5C7 8.77614 7.22386 9 7.5 9C7.77614 9 8 8.77614 8 8.5C8 8.77614 8.22386 9 8.5 9C8.22386 9 8 9.22386 8 9.5C8 9.77614 8.22386 10 8.5 10C8.77614 10 9 9.77614 9 9.5C9 9.77614 9.22386 10 9.5 10C9.22386 10 9 10.2239 9 10.5C9 10.7761 9.22386 11 9.5 11C9.77614 11 10 10.7761 10 10.5C10 10.7761 10.2239 11 10.5 11C10.2239 11 10 11.2239 10 11.5C10 11.7761 10.2239 12 10.5 12C10.2239 12 10 12.2239 10 12.5C10 12.7761 10.2239 13 10.5 13C10.2239 13 10 13.2239 10 13.5C10 13.2239 9.77614 13 9.5 13C9.22386 13 9 13.2239 9 13.5C9 13.7761 9.22386 14 9.5 14C9.22386 14 9 14.2239 9 14.5C9 14.2239 8.77614 14 8.5 14C8.22386 14 8 14.2239 8 14.5C8 14.7761 8.22386 15 8.5 15C8.22386 15 8 15.2239 8 15.5C8 15.2239 7.77614 15 7.5 15C7.22386 15 7 15.2239 7 15.5C7 15.7761 7.22386 16 7.5 16C7.22386 16 7 16.2239 7 16.5C7 16.2239 6.77614 16 6.5 16C6.22386 16 6 16.2239 6 16.5C6 16.7761 6.22386 17 6.5 17C6.22386 17 6 17.2239 6 17.5C6 17.7761 6.22386 18 6.5 18C6.77614 18 7 17.7761 7 17.5C7 17.7761 7.22386 18 7.5 18C7.77614 18 8 17.7761 8 17.5C8 17.2239 7.77614 17 7.5 17C7.77614 17 8 16.7761 8 16.5C8 16.7761 8.22386 17 8.5 17C8.77614 17 9 16.7761 9 16.5C9 16.2239 8.77614 16 8.5 16C8.77614 16 9 15.7761 9 15.5C9 15.7761 9.22386 16 9.5 16C9.77614 16 10 15.7761 10 15.5C10 15.2239 9.77614 15 9.5 15C9.77614 15 10 14.7761 10 14.5C10 14.7761 10.2239 15 10.5 15C10.7761 15 11 14.7761 11 14.5C11 14.2239 10.7761 14 10.5 14C10.7761 14 11 13.7761 11 13.5C11 13.7761 11.2239 14 11.5 14C11.7761 14 12 13.7761 12 13.5C12 13.7761 12.2239 14 12.5 14C12.7761 14 13 13.7761 13 13.5C13 13.7761 13.2239 14 13.5 14C13.2239 14 13 14.2239 13 14.5C13 14.7761 13.2239 15 13.5 15C13.7761 15 14 14.7761 14 14.5C14 14.7761 14.2239 15 14.5 15C14.2239 15 14 15.2239 14 15.5C14 15.7761 14.2239 16 14.5 16C14.7761 16 15 15.7761 15 15.5C15 15.7761 15.2239 16 15.5 16C15.2239 16 15 16.2239 15 16.5C15 16.7761 15.2239 17 15.5 17C15.7761 17 16 16.7761 16 16.5C16 16.7761 16.2239 17 16.5 17C16.2239 17 16 17.2239 16 17.5C16 17.7761 16.2239 18 16.5 18C16.7761 18 17 17.7761 17 17.5C17 17.7761 17.2239 18 17.5 18C17.7761 18 18 17.7761 18 17.5C18 17.2239 17.7761 17 17.5 17C17.7761 17 18 16.7761 18 16.5C18 16.2239 17.7761 16 17.5 16C17.2239 16 17 16.2239 17 16.5C17 16.2239 16.7761 16 16.5 16C16.7761 16 17 15.7761 17 15.5C17 15.2239 16.7761 15 16.5 15C16.2239 15 16 15.2239 16 15.5C16 15.2239 15.7761 15 15.5 15C15.7761 15 16 14.7761 16 14.5C16 14.2239 15.7761 14 15.5 14C15.2239 14 15 14.2239 15 14.5C15 14.2239 14.7761 14 14.5 14C14.7761 14 15 13.7761 15 13.5C15 13.2239 14.7761 13 14.5 13C14.2239 13 14 13.2239 14 13.5C14 13.2239 13.7761 13 13.5 13C13.7761 13 14 12.7761 14 12.5C14 12.2239 13.7761 12 13.5 12C13.7761 12 14 11.7761 14 11.5C14 11.2239 13.7761 11 13.5 11C13.7761 11 14 10.7761 14 10.5C14 10.7761 14.2239 11 14.5 11C14.7761 11 15 10.7761 15 10.5C15 10.2239 14.7761 10 14.5 10C14.7761 10 15 9.77614 15 9.5C15 9.77614 15.2239 10 15.5 10C15.7761 10 16 9.77614 16 9.5C16 9.22386 15.7761 9 15.5 9C15.7761 9 16 8.77614 16 8.5C16 8.77614 16.2239 9 16.5 9C16.7761 9 17 8.77614 17 8.5C17 8.22386 16.7761 8 16.5 8C16.7761 8 17 7.77614 17 7.5C17 7.77614 17.2239 8 17.5 8C17.7761 8 18 7.77614 18 7.5C18 7.22386 17.7761 7 17.5 7C17.7761 7 18 6.77614 18 6.5C18 6.22386 17.7761 6 17.5 6C17.2239 6 17 6.22386 17 6.5C17 6.22386 16.7761 6 16.5 6C16.2239 6 16 6.22386 16 6.5C16 6.77614 16.2239 7 16.5 7C16.2239 7 16 7.22386 16 7.5C16 7.22386 15.7761 7 15.5 7C15.2239 7 15 7.22386 15 7.5C15 7.77614 15.2239 8 15.5 8C15.2239 8 15 8.22386 15 8.5C15 8.22386 14.7761 8 14.5 8C14.2239 8 14 8.22386 14 8.5C14 8.77614 14.2239 9 14.5 9C14.2239 9 14 9.22386 14 9.5C14 9.22386 13.7761 9 13.5 9C13.2239 9 13 9.22386 13 9.5C13 9.77614 13.2239 10 13.5 10C13.2239 10 13 10.2239 13 10.5C13 10.2239 12.7761 10 12.5 10C12.2239 10 12 10.2239 12 10.5C12 10.2239 11.7761 10 11.5 10C11.2239 10 11 10.2239 11 10.5C11 10.2239 10.7761 10 10.5 10C10.7761 10 11 9.77614 11 9.5C11 9.22386 10.7761 9 10.5 9C10.2239 9 10 9.22386 10 9.5C10 9.22386 9.77614 9 9.5 9C9.77614 9 10 8.77614 10 8.5C10 8.22386 9.77614 8 9.5 8C9.22386 8 9 8.22386 9 8.5C9 8.22386 8.77614 8 8.5 8C8.77614 8 9 7.77614 9 7.5C9 7.22386 8.77614 7 8.5 7C8.22386 7 8 7.22386 8 7.5C8 7.22386 7.77614 7 7.5 7C7.77614 7 8 6.77614 8 6.5C8 6.22386 7.77614 6 7.5 6C7.22386 6 7 6.22386 7 6.5C7 6.22386 6.77614 6 6.5 6ZM7 6.5C7 6.77614 7.22386 7 7.5 7C7.22386 7 7 7.22386 7 7.5C7 7.22386 6.77614 7 6.5 7C6.77614 7 7 6.77614 7 6.5ZM8 7.5C8 7.77614 8.22386 8 8.5 8C8.22386 8 8 8.22386 8 8.5C8 8.22386 7.77614 8 7.5 8C7.77614 8 8 7.77614 8 7.5ZM9 8.5C9 8.77614 8.77614 9 8.5 9C8.77614 9 9 9.22386 9 9.5C9 9.22386 9.22386 9 9.5 9C9.22386 9 9 8.77614 9 8.5ZM10 9.5C10 9.77614 10.2239 10 10.5 10C10.2239 10 10 10.2239 10 10.5C10 10.2239 9.77614 10 9.5 10C9.77614 10 10 9.77614 10 9.5ZM11.5 11C11.7761 11 12 10.7761 12 10.5C12 10.7761 12.2239 11 12.5 11C12.2239 11 12 11.2239 12 11.5C12 11.2239 11.7761 11 11.5 11ZM11 11.5C11 11.2239 10.7761 11 10.5 11C10.7761 11 11 10.7761 11 10.5C11 10.7761 11.2239 11 11.5 11C11.2239 11 11 11.2239 11 11.5ZM11.5 12C11.7761 12 12 11.7761 12 11.5C12 11.7761 12.2239 12 12.5 12C12.2239 12 12 12.2239 12 12.5C12 12.2239 11.7761 12 11.5 12ZM11 12.5C11 12.2239 10.7761 12 10.5 12C10.7761 12 11 11.7761 11 11.5C11 11.7761 11.2239 12 11.5 12C11.2239 12 11 12.2239 11 12.5ZM11.5 13C11.2239 13 11 13.2239 11 13.5C11 13.2239 10.7761 13 10.5 13C10.7761 13 11 12.7761 11 12.5C11 12.7761 11.2239 13 11.5 13ZM12.5 13C12.2239 13 12 13.2239 12 13.5C12 13.2239 11.7761 13 11.5 13C11.7761 13 12 12.7761 12 12.5C12 12.7761 12.2239 13 12.5 13ZM13 12.5C13 12.7761 13.2239 13 13.5 13C13.2239 13 13 13.2239 13 13.5C13 13.2239 12.7761 13 12.5 13C12.7761 13 13 12.7761 13 12.5ZM13 11.5C13 11.7761 13.2239 12 13.5 12C13.2239 12 13 12.2239 13 12.5C13 12.2239 12.7761 12 12.5 12C12.7761 12 13 11.7761 13 11.5ZM13 11.5C13 11.2239 12.7761 11 12.5 11C12.7761 11 13 10.7761 13 10.5C13 10.7761 13.2239 11 13.5 11C13.2239 11 13 11.2239 13 11.5ZM13.5 10C13.7761 10 14 9.77614 14 9.5C14 9.77614 14.2239 10 14.5 10C14.2239 10 14 10.2239 14 10.5C14 10.2239 13.7761 10 13.5 10ZM14.5 9C14.7761 9 15 9.22386 15 9.5C15 9.22386 15.2239 9 15.5 9C15.2239 9 15 8.77614 15 8.5C15 8.77614 14.7761 9 14.5 9ZM15.5 8C15.7761 8 16 7.77614 16 7.5C16 7.77614 16.2239 8 16.5 8C16.2239 8 16 8.22386 16 8.5C16 8.22386 15.7761 8 15.5 8ZM16.5 7C16.7761 7 17 7.22386 17 7.5C17 7.22386 17.2239 7 17.5 7C17.2239 7 17 6.77614 17 6.5C17 6.77614 16.7761 7 16.5 7ZM14 13.5C14 13.7761 13.7761 14 13.5 14C13.7761 14 14 14.2239 14 14.5C14 14.2239 14.2239 14 14.5 14C14.2239 14 14 13.7761 14 13.5ZM15 14.5C15 14.7761 15.2239 15 15.5 15C15.2239 15 15 15.2239 15 15.5C15 15.2239 14.7761 15 14.5 15C14.7761 15 15 14.7761 15 14.5ZM16 15.5C16 15.7761 15.7761 16 15.5 16C15.7761 16 16 16.2239 16 16.5C16 16.2239 16.2239 16 16.5 16C16.2239 16 16 15.7761 16 15.5ZM17 16.5C17 16.7761 17.2239 17 17.5 17C17.2239 17 17 17.2239 17 17.5C17 17.2239 16.7761 17 16.5 17C16.7761 17 17 16.7761 17 16.5ZM10.5 14C10.2239 14 10 14.2239 10 14.5C10 14.2239 9.77614 14 9.5 14C9.77614 14 10 13.7761 10 13.5C10 13.7761 10.2239 14 10.5 14ZM9.5 15C9.22386 15 9 14.7761 9 14.5C9 14.7761 8.77614 15 8.5 15C8.77614 15 9 15.2239 9 15.5C9 15.2239 9.22386 15 9.5 15ZM8.5 16C8.22386 16 8 16.2239 8 16.5C8 16.2239 7.77614 16 7.5 16C7.77614 16 8 15.7761 8 15.5C8 15.7761 8.22386 16 8.5 16ZM7.5 17C7.22386 17 7 16.7761 7 16.5C7 16.7761 6.77614 17 6.5 17C6.77614 17 7 17.2239 7 17.5C7 17.2239 7.22386 17 7.5 17Z" fill="white"/>
</svg>
