<svg width="24" height="24" viewBox="0 0 24 24" fill="none" xmlns="http://www.w3.org/2000/svg">
<path fill-rule="evenodd" clip-rule="evenodd" d="M11 2.5C11 2.22386 11.2239 2 11.5 2H12H12.5C12.7761 2 13 2.22386 13 2.5C13 2.77614 13.2239 3 13.5 3C13.7761 3 14 3.22386 14 3.5V4V4.5C14 4.77614 14.2239 5 14.5 5C14.7761 5 15 5.22386 15 5.5V6V6.5C15 6.77614 15.2239 7 15.5 7C15.7761 7 16 7.22386 16 7.5V8V8.5C16 8.77614 16.2239 9 16.5 9C16.7761 9 17 9.22386 17 9.5V10V10.5C17 10.7761 17.2239 11 17.5 11C17.7761 11 18 11.2239 18 11.5V12V12.5C18 12.7761 18.2239 13 18.5 13C18.7761 13 19 13.2239 19 13.5V14V14.5C19 14.7761 19.2239 15 19.5 15C19.7761 15 20 15.2239 20 15.5V16V16.5C20 16.7761 20.2239 17 20.5 17C20.7761 17 21 17.2239 21 17.5V18V18.5C21 18.7761 21.2239 19 21.5 19C21.7761 19 22 19.2239 22 19.5V20V20.5C22 20.7761 21.7761 21 21.5 21H21H20H19H18H17H16H15H14H13H12H11H10H9H8H7H6H5H4H3H2.5C2.22386 21 2 20.7761 2 20.5V20V19.5C2 19.2239 2.22386 19 2.5 19C2.77614 19 3 18.7761 3 18.5V18V17.5C3 17.2239 3.22386 17 3.5 17C3.77614 17 4 16.7761 4 16.5V16V15.5C4 15.2239 4.22386 15 4.5 15C4.77614 15 5 14.7761 5 14.5V14V13.5C5 13.2239 5.22386 13 5.5 13C5.77614 13 6 12.7761 6 12.5V12V11.5C6 11.2239 6.22386 11 6.5 11C6.77614 11 7 10.7761 7 10.5V10V9.5C7 9.22386 7.22386 9 7.5 9C7.77614 9 8 8.77614 8 8.5V8V7.5C8 7.22386 8.22386 7 8.5 7C8.77614 7 9 6.77614 9 6.5V6V5.5C9 5.22386 9.22386 5 9.5 5C9.77614 5 10 4.77614 10 4.5V4V3.5C10 3.22386 10.2239 3 10.5 3C10.7761 3 11 2.77614 11 2.5ZM18 19H18.5C18.7761 19 19 18.7761 19 18.5C19 18.2239 18.7761 18 18.5 18C18.2239 18 18 17.7761 18 17.5V17V16.5C18 16.2239 17.7761 16 17.5 16C17.2239 16 17 15.7761 17 15.5V15V14.5C17 14.2239 16.7761 14 16.5 14C16.2239 14 16 13.7761 16 13.5V13V12.5C16 12.2239 15.7761 12 15.5 12C15.2239 12 15 11.7761 15 11.5V11V10.5C15 10.2239 14.7761 10 14.5 10C14.2239 10 14 9.77614 14 9.5V9V8.5C14 8.22386 13.7761 8 13.5 8C13.2239 8 13 7.77614 13 7.5V7V6.5C13 6.22386 12.7761 6 12.5 6H12H11.5C11.2239 6 11 6.22386 11 6.5V7V7.5C11 7.77614 10.7761 8 10.5 8C10.2239 8 10 8.22386 10 8.5V9V9.5C10 9.77614 9.77614 10 9.5 10C9.22386 10 9 10.2239 9 10.5V11V11.5C9 11.7761 8.77614 12 8.5 12C8.22386 12 8 12.2239 8 12.5V13V13.5C8 13.7761 7.77614 14 7.5 14C7.22386 14 7 14.2239 7 14.5V15V15.5C7 15.7761 6.77614 16 6.5 16C6.22386 16 6 16.2239 6 16.5V17V17.5C6 17.7761 5.77614 18 5.5 18C5.22386 18 5 18.2239 5 18.5C5 18.7761 5.22386 19 5.5 19H6H7H8H9H10H11H12H13H14H15H16H17H18ZM11 16.5C11 16.2239 11.2239 16 11.5 16H12H12.5C12.7761 16 13 16.2239 13 16.5V17V17.5C13 17.7761 12.7761 18 12.5 18H12H11.5C11.2239 18 11 17.7761 11 17.5V17V16.5ZM11 12V13V13.5C11 13.7761 11.2239 14 11.5 14H12H12.5C12.7761 14 13 13.7761 13 13.5V13V12V11V10.5C13 10.2239 12.7761 10 12.5 10H12H11.5C11.2239 10 11 10.2239 11 10.5V11V12Z" fill="black"/>
</svg>
