<svg width="24" height="24" viewBox="0 0 24 24" fill="none" xmlns="http://www.w3.org/2000/svg">
<path fill-rule="evenodd" clip-rule="evenodd" d="M4 5H3.5C3.22386 5 3 5.22386 3 5.5V6V6.5C3 6.77614 3.22386 7 3.5 7H4H5H6H7H8H9H10H11H12H13H14H15H16H17H18H19H20H20.5C20.7761 7 21 6.77614 21 6.5V6V5.5C21 5.22386 20.7761 5 20.5 5H20H19H18H17H16H15H14H13H12H11H10H9H8H7H6H5H4ZM4 13H3.5C3.22386 13 3 13.2239 3 13.5V14V14.5C3 14.7761 3.22386 15 3.5 15H4H5H6H7H8H9H10H11H12H13H14H15H16H17H18H19H20H20.5C20.7761 15 21 14.7761 21 14.5V14V13.5C21 13.2239 20.7761 13 20.5 13H20H19H18H17H16H15H14H13H12H11H10H9H8H7H6H5H4ZM5 9H6H7H8H9H10H11H12H13H14H15H16H16.5C16.7761 9 17 9.22386 17 9.5V10V10.5C17 10.7761 16.7761 11 16.5 11H16H15H14H13H12H11H10H9H8H7H6H5H4H3.5C3.22386 11 3 10.7761 3 10.5V10V9.5C3 9.22386 3.22386 9 3.5 9H4H5ZM5 17H6H7H8H9H10H11H12H13H14H15H16H16.5C16.7761 17 17 17.2239 17 17.5V18V18.5C17 18.7761 16.7761 19 16.5 19H16H15H14H13H12H11H10H9H8H7H6H5H4H3.5C3.22386 19 3 18.7761 3 18.5V18V17.5C3 17.2239 3.22386 17 3.5 17H4H5Z" fill="black"/>
</svg>
