<svg width="24" height="24" viewBox="0 0 24 24" fill="none" xmlns="http://www.w3.org/2000/svg">
<path fill-rule="evenodd" clip-rule="evenodd" d="M16 7H15.5C15.2239 7 15 7.22386 15 7.5C15 7.77614 14.7761 8 14.5 8C14.2239 8 14 8.22386 14 8.5C14 8.77614 13.7761 9 13.5 9C13.2239 9 13 9.22386 13 9.5C13 9.77614 12.7761 10 12.5 10C12.2239 10 12 10.2239 12 10.5C12 10.7761 11.7761 11 11.5 11C11.2239 11 11 11.2239 11 11.5C11 11.7761 10.7761 12 10.5 12C10.2239 12 10 12.2239 10 12.5C10 12.7761 9.77614 13 9.5 13C9.22386 13 9 12.7761 9 12.5V12V11V10V9V8V7.5C9 7.22386 8.77614 7 8.5 7H8H7.5C7.22386 7 7 7.22386 7 7.5V8V9V10V11V12V13V14V15V16V16.5C7 16.7761 7.22386 17 7.5 17H8H9H10H11H12H13H14H15H16H16.5C16.7761 17 17 16.7761 17 16.5V16V15.5C17 15.2239 16.7761 15 16.5 15H16H15H14H13H12H11.5C11.2239 15 11 14.7761 11 14.5C11 14.2239 11.2239 14 11.5 14C11.7761 14 12 13.7761 12 13.5C12 13.2239 12.2239 13 12.5 13C12.7761 13 13 12.7761 13 12.5C13 12.2239 13.2239 12 13.5 12C13.7761 12 14 11.7761 14 11.5C14 11.2239 14.2239 11 14.5 11C14.7761 11 15 10.7761 15 10.5C15 10.2239 15.2239 10 15.5 10C15.7761 10 16 9.77614 16 9.5C16 9.22386 16.2239 9 16.5 9C16.7761 9 17 8.77614 17 8.5V8V7.5C17 7.22386 16.7761 7 16.5 7H16Z" fill="black"/>
</svg>
