<svg width="24" height="24" viewBox="0 0 24 24" fill="none" xmlns="http://www.w3.org/2000/svg">
<path fill-rule="evenodd" clip-rule="evenodd" d="M11 2H10H9.5C9.22386 2 9 2.22386 9 2.5C9 2.77614 8.77614 3 8.5 3C8.22386 3 8 3.22386 8 3.5C8 3.77614 7.77614 4 7.5 4C7.22386 4 7 4.22386 7 4.5C7 4.77614 6.77614 5 6.5 5C6.22386 5 6 5.22386 6 5.5C6 5.77614 5.77614 6 5.5 6C5.22386 6 5 6.22386 5 6.5V7V8V9V10V11V11.5C5 11.7761 5.22386 12 5.5 12C5.77614 12 6 12.2239 6 12.5C6 12.7761 6.22386 13 6.5 13C6.77614 13 7 13.2239 7 13.5C7 13.7761 7.22386 14 7.5 14C7.77614 14 8 14.2239 8 14.5V15V15.5C8 15.7761 7.77614 16 7.5 16C7.22386 16 7 16.2239 7 16.5V17V17.5C7 17.7761 6.77614 18 6.5 18C6.22386 18 6 18.2239 6 18.5V19V20V21V21.5C6 21.7761 6.22386 22 6.5 22H7H7.5C7.77614 22 8 21.7761 8 21.5C8 21.2239 8.22386 21 8.5 21H9H9.5C9.77614 21 10 20.7761 10 20.5C10 20.2239 10.2239 20 10.5 20H11H12H13H13.5C13.7761 20 14 20.2239 14 20.5C14 20.7761 14.2239 21 14.5 21H15H15.5C15.7761 21 16 21.2239 16 21.5C16 21.7761 16.2239 22 16.5 22H17H17.5C17.7761 22 18 21.7761 18 21.5V21V20V19V18.5C18 18.2239 17.7761 18 17.5 18C17.2239 18 17 17.7761 17 17.5V17V16.5C17 16.2239 16.7761 16 16.5 16C16.2239 16 16 15.7761 16 15.5V15V14.5C16 14.2239 16.2239 14 16.5 14C16.7761 14 17 13.7761 17 13.5C17 13.2239 17.2239 13 17.5 13C17.7761 13 18 12.7761 18 12.5C18 12.2239 18.2239 12 18.5 12C18.7761 12 19 11.7761 19 11.5V11V10V9V8V7V6.5C19 6.22386 18.7761 6 18.5 6C18.2239 6 18 5.77614 18 5.5C18 5.22386 17.7761 5 17.5 5C17.2239 5 17 4.77614 17 4.5C17 4.22386 16.7761 4 16.5 4C16.2239 4 16 3.77614 16 3.5C16 3.22386 15.7761 3 15.5 3C15.2239 3 15 2.77614 15 2.5C15 2.22386 14.7761 2 14.5 2H14H13H12H11ZM13 16H13.5C13.7761 16 14 16.2239 14 16.5C14 16.7761 14.2239 17 14.5 17C14.7761 17 15 17.2239 15 17.5V18V18.5C15 18.7761 14.7761 19 14.5 19C14.2239 19 14 18.7761 14 18.5C14 18.2239 13.7761 18 13.5 18H13H12H11H10.5C10.2239 18 10 18.2239 10 18.5C10 18.7761 9.77614 19 9.5 19C9.22386 19 9 18.7761 9 18.5V18V17.5C9 17.2239 9.22386 17 9.5 17C9.77614 17 10 16.7761 10 16.5C10 16.2239 10.2239 16 10.5 16H11H12H13ZM16.5 11C16.7761 11 17 10.7761 17 10.5V10V9V8V7.5C17 7.22386 16.7761 7 16.5 7C16.2239 7 16 6.77614 16 6.5C16 6.22386 15.7761 6 15.5 6C15.2239 6 15 5.77614 15 5.5C15 5.22386 14.7761 5 14.5 5C14.2239 5 14 4.77614 14 4.5C14 4.22386 13.7761 4 13.5 4H13H12H11H10.5C10.2239 4 10 4.22386 10 4.5C10 4.77614 9.77614 5 9.5 5C9.22386 5 9 5.22386 9 5.5C9 5.77614 8.77614 6 8.5 6C8.22386 6 8 6.22386 8 6.5C8 6.77614 7.77614 7 7.5 7C7.22386 7 7 7.22386 7 7.5V8V9V10V10.5C7 10.7761 7.22386 11 7.5 11C7.77614 11 8 11.2239 8 11.5C8 11.7761 8.22386 12 8.5 12C8.77614 12 9 12.2239 9 12.5C9 12.7761 9.22386 13 9.5 13C9.77614 13 10 13.2239 10 13.5C10 13.7761 10.2239 14 10.5 14H11H12H13H13.5C13.7761 14 14 13.7761 14 13.5C14 13.2239 14.2239 13 14.5 13C14.7761 13 15 12.7761 15 12.5C15 12.2239 15.2239 12 15.5 12C15.7761 12 16 11.7761 16 11.5C16 11.2239 16.2239 11 16.5 11Z" fill="black"/>
</svg>
