<svg width="24" height="24" viewBox="0 0 24 24" fill="none" xmlns="http://www.w3.org/2000/svg">
<path fill-rule="evenodd" clip-rule="evenodd" d="M11 6.5C11 6.22386 11.2239 6 11.5 6C11.7761 6 12 6.22386 12 6.5V7V8V8.5C12 8.77614 11.7761 9 11.5 9C11.2239 9 11 9.22386 11 9.5C11 9.77614 10.7761 10 10.5 10C10.2239 10 10 10.2239 10 10.5C10 10.7761 10.2239 11 10.5 11H11H12H13H14H14.5C14.7761 11 15 11.2239 15 11.5V12V12.5C15 12.7761 14.7761 13 14.5 13C14.2239 13 14 13.2239 14 13.5C14 13.7761 13.7761 14 13.5 14C13.2239 14 13 14.2239 13 14.5C13 14.7761 12.7761 15 12.5 15C12.2239 15 12 15.2239 12 15.5C12 15.7761 11.7761 16 11.5 16C11.2239 16 11 16.2239 11 16.5C11 16.7761 10.7761 17 10.5 17C10.2239 17 10 17.2239 10 17.5C10 17.7761 9.77614 18 9.5 18C9.22386 18 9 17.7761 9 17.5V17V16V15.5C9 15.2239 9.22386 15 9.5 15C9.77614 15 10 14.7761 10 14.5C10 14.2239 10.2239 14 10.5 14C10.7761 14 11 13.7761 11 13.5C11 13.2239 10.7761 13 10.5 13H10H9H8H7H6.5C6.22386 13 6 12.7761 6 12.5V12V11.5C6 11.2239 6.22386 11 6.5 11C6.77614 11 7 10.7761 7 10.5C7 10.2239 7.22386 10 7.5 10C7.77614 10 8 9.77614 8 9.5C8 9.22386 8.22386 9 8.5 9C8.77614 9 9 8.77614 9 8.5C9 8.22386 9.22386 8 9.5 8C9.77614 8 10 7.77614 10 7.5C10 7.22386 10.2239 7 10.5 7C10.7761 7 11 6.77614 11 6.5ZM15 6H14.5C14.2239 6 14 6.22386 14 6.5V7V7.5C14 7.77614 14.2239 8 14.5 8H15H16H16.5C16.7761 8 17 8.22386 17 8.5V9V10V11V12V13V14V15V15.5C17 15.7761 16.7761 16 16.5 16H16H15H14.5C14.2239 16 14 16.2239 14 16.5V17V17.5C14 17.7761 14.2239 18 14.5 18H15H16H17H18H18.5C18.7761 18 19 17.7761 19 17.5V17V16V15V14V13V12V11V10V9V8V7V6.5C19 6.22386 18.7761 6 18.5 6H18H17H16H15ZM21 9H20.5C20.2239 9 20 9.22386 20 9.5V10V11V12V13V14V14.5C20 14.7761 20.2239 15 20.5 15H21H21.5C21.7761 15 22 14.7761 22 14.5V14V13V12V11V10V9.5C22 9.22386 21.7761 9 21.5 9H21ZM6 16H6.5C6.77614 16 7 16.2239 7 16.5V17V17.5C7 17.7761 6.77614 18 6.5 18H6H5H4H3H2.5C2.22386 18 2 17.7761 2 17.5V17V16V15V14V13V12V11V10V9V8V7V6.5C2 6.22386 2.22386 6 2.5 6H3H4H5H6H6.5C6.77614 6 7 6.22386 7 6.5V7V7.5C7 7.77614 6.77614 8 6.5 8H6H5H4.5C4.22386 8 4 8.22386 4 8.5V9V10V11V12V13V14V15V15.5C4 15.7761 4.22386 16 4.5 16H5H6Z" fill="black"/>
</svg>
