<svg width="24" height="24" viewBox="0 0 24 24" fill="none" xmlns="http://www.w3.org/2000/svg">
<path fill-rule="evenodd" clip-rule="evenodd" d="M11 3H12H13H13.5C13.7761 3 14 3.22386 14 3.5C14 3.77614 14.2239 4 14.5 4H15H15.5C15.7761 4 16 4.22386 16 4.5C16 4.77614 16.2239 5 16.5 5C16.7761 5 17 5.22386 17 5.5V6V6.5C17 6.77614 17.2239 7 17.5 7C17.7761 7 18 7.22386 18 7.5V8V9V10V10.5C18 10.7761 18.2239 11 18.5 11C18.7761 11 19 11.2239 19 11.5V12V13V13.5C19 13.7761 19.2239 14 19.5 14C19.7761 14 20 14.2239 20 14.5V15V16V16.5C20 16.7761 19.7761 17 19.5 17H19H18H17H16H15H14H13H12H11H10H9H8H7H6H5H4.5C4.22386 17 4 16.7761 4 16.5V16V15V14.5C4 14.2239 4.22386 14 4.5 14C4.77614 14 5 13.7761 5 13.5V13V12V11.5C5 11.2239 5.22386 11 5.5 11C5.77614 11 6 10.7761 6 10.5V10V9V8V7.5C6 7.22386 6.22386 7 6.5 7C6.77614 7 7 6.77614 7 6.5V6V5.5C7 5.22386 7.22386 5 7.5 5C7.77614 5 8 4.77614 8 4.5C8 4.22386 8.22386 4 8.5 4H9H9.5C9.77614 4 10 3.77614 10 3.5C10 3.22386 10.2239 3 10.5 3H11ZM8 11V10V9V8.5C8 8.22386 8.22386 8 8.5 8C8.77614 8 9 7.77614 9 7.5V7V6.5C9 6.22386 9.22386 6 9.5 6H10H10.5C10.7761 6 11 5.77614 11 5.5C11 5.22386 11.2239 5 11.5 5H12H12.5C12.7761 5 13 5.22386 13 5.5C13 5.77614 13.2239 6 13.5 6H14H14.5C14.7761 6 15 6.22386 15 6.5V7V7.5C15 7.77614 15.2239 8 15.5 8C15.7761 8 16 8.22386 16 8.5V9V10V11V11.5C16 11.7761 16.2239 12 16.5 12C16.7761 12 17 12.2239 17 12.5V13V14V14.5C17 14.7761 16.7761 15 16.5 15H16H15H14H13H12H11H10H9H8H7.5C7.22386 15 7 14.7761 7 14.5V14V13V12.5C7 12.2239 7.22386 12 7.5 12C7.77614 12 8 11.7761 8 11.5V11ZM14 19H14.5C14.7761 19 15 19.2239 15 19.5V20V20.5C15 20.7761 14.7761 21 14.5 21H14H13.5C13.2239 21 13 21.2239 13 21.5C13 21.7761 12.7761 22 12.5 22H12H11.5C11.2239 22 11 21.7761 11 21.5C11 21.2239 10.7761 21 10.5 21H10H9.5C9.22386 21 9 20.7761 9 20.5V20V19.5C9 19.2239 9.22386 19 9.5 19H10H10.5C10.7761 19 11 19.2239 11 19.5C11 19.7761 11.2239 20 11.5 20H12H12.5C12.7761 20 13 19.7761 13 19.5C13 19.2239 13.2239 19 13.5 19H14Z" fill="black"/>
</svg>
