<svg width="24" height="24" viewBox="0 0 24 24" fill="none" xmlns="http://www.w3.org/2000/svg">
<path fill-rule="evenodd" clip-rule="evenodd" d="M5 2H4.5C4.22386 2 4 2.22386 4 2.5V3V4V5V6V7V8V9V10V11V12V13V14V15V16V17V18V19V20V20.5C4 20.7761 4.22386 21 4.5 21C4.77614 21 5 21.2239 5 21.5C5 21.7761 5.22386 22 5.5 22H6H6.5C6.77614 22 7 21.7761 7 21.5C7 21.2239 7.22386 21 7.5 21C7.77614 21 8 20.7761 8 20.5C8 20.2239 8.22386 20 8.5 20C8.77614 20 9 19.7761 9 19.5C9 19.2239 9.22386 19 9.5 19C9.77614 19 10 18.7761 10 18.5C10 18.2239 10.2239 18 10.5 18C10.7761 18 11 17.7761 11 17.5C11 17.2239 11.2239 17 11.5 17H12H12.5C12.7761 17 13 17.2239 13 17.5C13 17.7761 13.2239 18 13.5 18C13.7761 18 14 18.2239 14 18.5C14 18.7761 14.2239 19 14.5 19C14.7761 19 15 19.2239 15 19.5C15 19.7761 15.2239 20 15.5 20C15.7761 20 16 20.2239 16 20.5C16 20.7761 16.2239 21 16.5 21C16.7761 21 17 21.2239 17 21.5C17 21.7761 17.2239 22 17.5 22H18H18.5C18.7761 22 19 21.7761 19 21.5C19 21.2239 19.2239 21 19.5 21C19.7761 21 20 20.7761 20 20.5V20V19V18V17V16V15V14V13V12V11V10V9V8V7V6V5V4V3V2.5C20 2.22386 19.7761 2 19.5 2H19H18H17H16H15H14H13H12H11H10H9H8H7H6H5ZM6.5 19C6.22386 19 6 18.7761 6 18.5V18V17V16V15V14V13V12V11V10V9V8V7V6V5V4.5C6 4.22386 6.22386 4 6.5 4H7H8H9H10H11H12H13H14H15H16H17H17.5C17.7761 4 18 4.22386 18 4.5V5V6V7V8V9V10V11V12V13V14V15V16V17V18V18.5C18 18.7761 17.7761 19 17.5 19C17.2239 19 17 18.7761 17 18.5C17 18.2239 16.7761 18 16.5 18C16.2239 18 16 17.7761 16 17.5C16 17.2239 15.7761 17 15.5 17C15.2239 17 15 16.7761 15 16.5C15 16.2239 14.7761 16 14.5 16C14.2239 16 14 15.7761 14 15.5C14 15.2239 13.7761 15 13.5 15H13H12H11H10.5C10.2239 15 10 15.2239 10 15.5C10 15.7761 9.77614 16 9.5 16C9.22386 16 9 16.2239 9 16.5C9 16.7761 8.77614 17 8.5 17C8.22386 17 8 17.2239 8 17.5C8 17.7761 7.77614 18 7.5 18C7.22386 18 7 18.2239 7 18.5C7 18.7761 6.77614 19 6.5 19Z" fill="black"/>
</svg>
