<svg width="24" height="24" viewBox="0 0 24 24" fill="none" xmlns="http://www.w3.org/2000/svg">
<path fill-rule="evenodd" clip-rule="evenodd" d="M11 3.5C11 3.22386 11.2239 3 11.5 3H12H12.5C12.7761 3 13 3.22386 13 3.5C13 3.77614 13.2239 4 13.5 4H14H14.5C14.7761 4 15 4.22386 15 4.5C15 4.77614 15.2239 5 15.5 5H16H16.5C16.7761 5 17 5.22386 17 5.5C17 5.77614 17.2239 6 17.5 6H18H18.5C18.7761 6 19 6.22386 19 6.5C19 6.77614 19.2239 7 19.5 7H20H20.5C20.7761 7 21 7.22386 21 7.5V8V9V10V11V12V13V14V15V16V16.5C21 16.7761 20.7761 17 20.5 17H20H19.5C19.2239 17 19 17.2239 19 17.5C19 17.7761 18.7761 18 18.5 18H18H17.5C17.2239 18 17 18.2239 17 18.5C17 18.7761 16.7761 19 16.5 19H16H15.5C15.2239 19 15 19.2239 15 19.5C15 19.7761 14.7761 20 14.5 20H14H13.5C13.2239 20 13 20.2239 13 20.5C13 20.7761 12.7761 21 12.5 21H12H11.5C11.2239 21 11 20.7761 11 20.5C11 20.2239 10.7761 20 10.5 20H10H9.5C9.22386 20 9 19.7761 9 19.5C9 19.2239 8.77614 19 8.5 19H8H7.5C7.22386 19 7 18.7761 7 18.5C7 18.2239 6.77614 18 6.5 18H6H5.5C5.22386 18 5 17.7761 5 17.5C5 17.2239 4.77614 17 4.5 17H4H3.5C3.22386 17 3 16.7761 3 16.5V16V15V14V13V12V11V10V9V8V7.5C3 7.22386 3.22386 7 3.5 7H4H4.5C4.77614 7 5 6.77614 5 6.5C5 6.22386 5.22386 6 5.5 6H6H6.5C6.77614 6 7 5.77614 7 5.5C7 5.22386 7.22386 5 7.5 5H8H8.5C8.77614 5 9 4.77614 9 4.5C9 4.22386 9.22386 4 9.5 4H10H10.5C10.7761 4 11 3.77614 11 3.5ZM10.5 18C10.7761 18 11 17.7761 11 17.5V17V16V15V14V13V12.5C11 12.2239 10.7761 12 10.5 12H10H9.5C9.22386 12 9 11.7761 9 11.5C9 11.2239 8.77614 11 8.5 11H8H7.5C7.22386 11 7 10.7761 7 10.5C7 10.2239 6.77614 10 6.5 10H6H5.5C5.22386 10 5 10.2239 5 10.5V11V12V13V14V15V15.5C5 15.7761 5.22386 16 5.5 16H6H6.5C6.77614 16 7 16.2239 7 16.5C7 16.7761 7.22386 17 7.5 17H8H8.5C8.77614 17 9 17.2239 9 17.5C9 17.7761 9.22386 18 9.5 18H10H10.5ZM12 11H12.5C12.7761 11 13 10.7761 13 10.5C13 10.2239 13.2239 10 13.5 10H14H14.5C14.7761 10 15 9.77614 15 9.5C15 9.22386 15.2239 9 15.5 9H16H16.5C16.7761 9 17 8.77614 17 8.5V8V7.5C17 7.22386 16.7761 7 16.5 7H16H15.5C15.2239 7 15 6.77614 15 6.5C15 6.22386 14.7761 6 14.5 6H14H13.5C13.2239 6 13 5.77614 13 5.5C13 5.22386 12.7761 5 12.5 5H12H11.5C11.2239 5 11 5.22386 11 5.5C11 5.77614 10.7761 6 10.5 6H10H9.5C9.22386 6 9 6.22386 9 6.5C9 6.77614 8.77614 7 8.5 7H8H7.5C7.22386 7 7 7.22386 7 7.5V8V8.5C7 8.77614 7.22386 9 7.5 9H8H8.5C8.77614 9 9 9.22386 9 9.5C9 9.77614 9.22386 10 9.5 10H10H10.5C10.7761 10 11 10.2239 11 10.5C11 10.7761 11.2239 11 11.5 11H12ZM17.5 10C17.2239 10 17 10.2239 17 10.5C17 10.7761 16.7761 11 16.5 11H16H15.5C15.2239 11 15 11.2239 15 11.5C15 11.7761 14.7761 12 14.5 12H14H13.5C13.2239 12 13 12.2239 13 12.5V13V14V15V16V17V17.5C13 17.7761 13.2239 18 13.5 18H14H14.5C14.7761 18 15 17.7761 15 17.5C15 17.2239 15.2239 17 15.5 17H16H16.5C16.7761 17 17 16.7761 17 16.5C17 16.2239 17.2239 16 17.5 16H18H18.5C18.7761 16 19 15.7761 19 15.5V15V14V13V12V11V10.5C19 10.2239 18.7761 10 18.5 10H18H17.5Z" fill="black"/>
</svg>
