<svg width="24" height="24" viewBox="0 0 24 24" fill="none" xmlns="http://www.w3.org/2000/svg">
<path fill-rule="evenodd" clip-rule="evenodd" d="M12 5H11H10H9.5C9.22386 5 9 5.22386 9 5.5C9 5.77614 8.77614 6 8.5 6C8.22386 6 8 6.22386 8 6.5C8 6.77614 7.77614 7 7.5 7H7H6H5H4H3H2.5C2.22386 7 2 7.22386 2 7.5V8V9V10V11V12V13V14V15V16V17V18V19V19.5C2 19.7761 2.22386 20 2.5 20H3H4H5H6H7H8H9H10H11H12H13H14H15H16H17H18H19H20H21H21.5C21.7761 20 22 19.7761 22 19.5V19V18V17V16V15V14V13V12V11V10V9V8V7.5C22 7.22386 21.7761 7 21.5 7H21H20H19H18H17H16.5C16.2239 7 16 6.77614 16 6.5C16 6.22386 15.7761 6 15.5 6C15.2239 6 15 5.77614 15 5.5C15 5.22386 14.7761 5 14.5 5H14H13H12ZM20 17V17.5C20 17.7761 19.7761 18 19.5 18H19H18H17H16H15H14H13H12H11H10H9H8H7H6H5H4.5C4.22386 18 4 17.7761 4 17.5V17V16V15V14V13V12V11V10V9.5C4 9.22386 4.22386 9 4.5 9H5H6H7H8H8.5C8.77614 9 9 8.77614 9 8.5C9 8.22386 9.22386 8 9.5 8C9.77614 8 10 7.77614 10 7.5C10 7.22386 10.2239 7 10.5 7H11H12H13H13.5C13.7761 7 14 7.22386 14 7.5C14 7.77614 14.2239 8 14.5 8C14.7761 8 15 8.22386 15 8.5C15 8.77614 15.2239 9 15.5 9H16H17H18H19H19.5C19.7761 9 20 9.22386 20 9.5V10V11V12V13V14V15V16V17ZM13 9.5C13 9.77614 13.2239 10 13.5 10H14H14.5C14.7761 10 15 10.2239 15 10.5V11V11.5C15 11.7761 15.2239 12 15.5 12C15.7761 12 16 12.2239 16 12.5V13V13.5C16 13.7761 15.7761 14 15.5 14C15.2239 14 15 14.2239 15 14.5V15V15.5C15 15.7761 14.7761 16 14.5 16H14H13.5C13.2239 16 13 16.2239 13 16.5C13 16.7761 12.7761 17 12.5 17H12H11.5C11.2239 17 11 16.7761 11 16.5C11 16.2239 10.7761 16 10.5 16H10H9.5C9.22386 16 9 15.7761 9 15.5V15V14.5C9 14.2239 8.77614 14 8.5 14C8.22386 14 8 13.7761 8 13.5V13V12.5C8 12.2239 8.22386 12 8.5 12C8.77614 12 9 11.7761 9 11.5V11V10.5C9 10.2239 9.22386 10 9.5 10H10H10.5C10.7761 10 11 9.77614 11 9.5C11 9.22386 11.2239 9 11.5 9H12H12.5C12.7761 9 13 9.22386 13 9.5ZM10 13V12.5C10 12.2239 10.2239 12 10.5 12C10.7761 12 11 11.7761 11 11.5C11 11.2239 11.2239 11 11.5 11H12H12.5C12.7761 11 13 11.2239 13 11.5C13 11.7761 13.2239 12 13.5 12C13.7761 12 14 12.2239 14 12.5V13V13.5C14 13.7761 13.7761 14 13.5 14C13.2239 14 13 14.2239 13 14.5C13 14.7761 12.7761 15 12.5 15H12H11.5C11.2239 15 11 14.7761 11 14.5C11 14.2239 10.7761 14 10.5 14C10.2239 14 10 13.7761 10 13.5V13Z" fill="black"/>
</svg>
