<svg width="24" height="24" viewBox="0 0 24 24" fill="none" xmlns="http://www.w3.org/2000/svg">
<path fill-rule="evenodd" clip-rule="evenodd" d="M3 4H2.5C2.22386 4 2 4.22386 2 4.5V5V6V7V8V8.5C2 8.77614 2.22386 9 2.5 9H3H3.5C3.77614 9 4 8.77614 4 8.5V8V7V6.5C4 6.22386 4.22386 6 4.5 6H5H6H7H8H9H10H11H12H13H14H15H16H17H18H19H19.5C19.7761 6 20 6.22386 20 6.5V7V8V9V10V11V12V13V14V15V16V17V17.5C20 17.7761 19.7761 18 19.5 18H19H18H17H16H15H14H13.5C13.2239 18 13 18.2239 13 18.5V19V19.5C13 19.7761 13.2239 20 13.5 20H14H15H16H17H18H19H20H21H21.5C21.7761 20 22 19.7761 22 19.5V19V18V17V16V15V14V13V12V11V10V9V8V7V6V5V4.5C22 4.22386 21.7761 4 21.5 4H21H20H19H18H17H16H15H14H13H12H11H10H9H8H7H6H5H4H3ZM2.5 12C2.22386 12 2 11.7761 2 11.5V11V10.5C2 10.2239 2.22386 10 2.5 10H3H4H5H5.5C5.77614 10 6 10.2239 6 10.5C6 10.7761 6.22386 11 6.5 11H7H7.5C7.77614 11 8 11.2239 8 11.5C8 11.7761 8.22386 12 8.5 12H9H9.5C9.77614 12 10 12.2239 10 12.5V13V13.5C10 13.7761 10.2239 14 10.5 14C10.7761 14 11 14.2239 11 14.5V15V15.5C11 15.7761 11.2239 16 11.5 16C11.7761 16 12 16.2239 12 16.5V17V18V19V19.5C12 19.7761 11.7761 20 11.5 20H11H10.5C10.2239 20 10 19.7761 10 19.5V19V18V17V16.5C10 16.2239 9.77614 16 9.5 16C9.22386 16 9 15.7761 9 15.5V15V14.5C9 14.2239 8.77614 14 8.5 14C8.22386 14 8 13.7761 8 13.5C8 13.2239 7.77614 13 7.5 13H7H6.5C6.22386 13 6 12.7761 6 12.5C6 12.2239 5.77614 12 5.5 12H5H4H3H2.5ZM2 14V14.5C2 14.7761 2.22386 15 2.5 15H3H4H4.5C4.77614 15 5 15.2239 5 15.5C5 15.7761 5.22386 16 5.5 16C5.77614 16 6 16.2239 6 16.5V17V17.5C6 17.7761 6.22386 18 6.5 18C6.77614 18 7 18.2239 7 18.5V19V19.5C7 19.7761 7.22386 20 7.5 20H8H8.5C8.77614 20 9 19.7761 9 19.5V19V18.5C9 18.2239 8.77614 18 8.5 18C8.22386 18 8 17.7761 8 17.5V17V16.5C8 16.2239 7.77614 16 7.5 16C7.22386 16 7 15.7761 7 15.5V15V14.5C7 14.2239 6.77614 14 6.5 14H6H5.5C5.22386 14 5 13.7761 5 13.5C5 13.2239 4.77614 13 4.5 13H4H3H2.5C2.22386 13 2 13.2239 2 13.5V14ZM2.5 18C2.22386 18 2 17.7761 2 17.5V17V16.5C2 16.2239 2.22386 16 2.5 16H3H3.5C3.77614 16 4 16.2239 4 16.5V17V17.5C4 17.7761 4.22386 18 4.5 18C4.77614 18 5 18.2239 5 18.5V19V19.5C5 19.7761 4.77614 20 4.5 20H4H3.5C3.22386 20 3 19.7761 3 19.5V19V18.5C3 18.2239 2.77614 18 2.5 18Z" fill="black"/>
</svg>
