<svg width="24" height="24" viewBox="0 0 24 24" fill="none" xmlns="http://www.w3.org/2000/svg">
<path fill-rule="evenodd" clip-rule="evenodd" d="M6 3H5H4H3.5C3.22386 3 3 3.22386 3 3.5V4V5V6V7V8V9V10V11V12V13V14V15V16V17V18V19V20V20.5C3 20.7761 3.22386 21 3.5 21H4H5H6H7H8H9H10H11H12H13H14H15H16H17H18H19H20H20.5C20.7761 21 21 20.7761 21 20.5V20V19V18V17V16V15V14V13V12.5C21 12.2239 20.7761 12 20.5 12H20H19.5C19.2239 12 19 12.2239 19 12.5V13V14V15V16V17V18V18.5C19 18.7761 18.7761 19 18.5 19H18H17H16H15H14H13H12H11H10H9H8H7H6H5.5C5.22386 19 5 18.7761 5 18.5V18V17V16V15V14V13V12V11V10V9V8V7V6V5.5C5 5.22386 5.22386 5 5.5 5H6H7H8H9H10H11H12H13H14H15H15.5C15.7761 5 16 4.77614 16 4.5V4V3.5C16 3.22386 15.7761 3 15.5 3H15H14H13H12H11H10H9H8H7H6ZM19 5.5C19 5.22386 19.2239 5 19.5 5H20H20.5C20.7761 5 21 5.22386 21 5.5V6V6.5C21 6.77614 20.7761 7 20.5 7C20.2239 7 20 7.22386 20 7.5C20 7.77614 19.7761 8 19.5 8C19.2239 8 19 8.22386 19 8.5C19 8.77614 18.7761 9 18.5 9C18.2239 9 18 9.22386 18 9.5C18 9.77614 17.7761 10 17.5 10C17.2239 10 17 10.2239 17 10.5C17 10.7761 16.7761 11 16.5 11C16.2239 11 16 11.2239 16 11.5C16 11.7761 15.7761 12 15.5 12C15.2239 12 15 12.2239 15 12.5C15 12.7761 14.7761 13 14.5 13C14.2239 13 14 13.2239 14 13.5C14 13.7761 13.7761 14 13.5 14C13.2239 14 13 14.2239 13 14.5C13 14.7761 12.7761 15 12.5 15H12H11.5C11.2239 15 11 14.7761 11 14.5C11 14.2239 10.7761 14 10.5 14C10.2239 14 10 13.7761 10 13.5C10 13.2239 9.77614 13 9.5 13C9.22386 13 9 12.7761 9 12.5C9 12.2239 8.77614 12 8.5 12C8.22386 12 8 11.7761 8 11.5V11V10.5C8 10.2239 8.22386 10 8.5 10H9H9.5C9.77614 10 10 10.2239 10 10.5C10 10.7761 10.2239 11 10.5 11C10.7761 11 11 11.2239 11 11.5C11 11.7761 11.2239 12 11.5 12H12H12.5C12.7761 12 13 11.7761 13 11.5C13 11.2239 13.2239 11 13.5 11C13.7761 11 14 10.7761 14 10.5C14 10.2239 14.2239 10 14.5 10C14.7761 10 15 9.77614 15 9.5C15 9.22386 15.2239 9 15.5 9C15.7761 9 16 8.77614 16 8.5C16 8.22386 16.2239 8 16.5 8C16.7761 8 17 7.77614 17 7.5C17 7.22386 17.2239 7 17.5 7C17.7761 7 18 6.77614 18 6.5C18 6.22386 18.2239 6 18.5 6C18.7761 6 19 5.77614 19 5.5Z" fill="black"/>
</svg>
