<svg width="24" height="24" viewBox="0 0 24 24" fill="none" xmlns="http://www.w3.org/2000/svg">
<path fill-rule="evenodd" clip-rule="evenodd" d="M15.5 5C15.2239 5 15 4.77614 15 4.5C15 4.22386 14.7761 4 14.5 4H14H13H12H11H10H9.5C9.22386 4 9 4.22386 9 4.5C9 4.77614 8.77614 5 8.5 5C8.22386 5 8 5.22386 8 5.5C8 5.77614 7.77614 6 7.5 6C7.22386 6 7 6.22386 7 6.5C7 6.77614 6.77614 7 6.5 7C6.22386 7 6 7.22386 6 7.5C6 7.77614 5.77614 8 5.5 8C5.22386 8 5 8.22386 5 8.5C5 8.77614 4.77614 9 4.5 9C4.22386 9 4 9.22386 4 9.5V10V11V12V13V14V14.5C4 14.7761 4.22386 15 4.5 15C4.77614 15 5 15.2239 5 15.5C5 15.7761 5.22386 16 5.5 16C5.77614 16 6 16.2239 6 16.5C6 16.7761 6.22386 17 6.5 17C6.77614 17 7 17.2239 7 17.5C7 17.7761 7.22386 18 7.5 18C7.77614 18 8 18.2239 8 18.5C8 18.7761 8.22386 19 8.5 19C8.77614 19 9 19.2239 9 19.5C9 19.7761 9.22386 20 9.5 20H10H11H12H13H14H14.5C14.7761 20 15 19.7761 15 19.5C15 19.2239 15.2239 19 15.5 19C15.7761 19 16 18.7761 16 18.5C16 18.2239 16.2239 18 16.5 18C16.7761 18 17 17.7761 17 17.5C17 17.2239 17.2239 17 17.5 17C17.7761 17 18 16.7761 18 16.5C18 16.2239 18.2239 16 18.5 16C18.7761 16 19 15.7761 19 15.5C19 15.2239 19.2239 15 19.5 15C19.7761 15 20 14.7761 20 14.5V14V13V12V11V10.5C20 10.2239 20.2239 10 20.5 10C20.7761 10 21 9.77614 21 9.5C21 9.22386 21.2239 9 21.5 9C21.7761 9 22 9.22386 22 9.5V10V11V12V13V14V15V15.5C22 15.7761 21.7761 16 21.5 16C21.2239 16 21 16.2239 21 16.5C21 16.7761 20.7761 17 20.5 17C20.2239 17 20 17.2239 20 17.5C20 17.7761 19.7761 18 19.5 18C19.2239 18 19 18.2239 19 18.5C19 18.7761 18.7761 19 18.5 19C18.2239 19 18 19.2239 18 19.5C18 19.7761 17.7761 20 17.5 20C17.2239 20 17 20.2239 17 20.5C17 20.7761 16.7761 21 16.5 21C16.2239 21 16 21.2239 16 21.5C16 21.7761 15.7761 22 15.5 22H15H14H13H12H11H10H9H8.5C8.22386 22 8 21.7761 8 21.5C8 21.2239 7.77614 21 7.5 21C7.22386 21 7 20.7761 7 20.5C7 20.2239 6.77614 20 6.5 20C6.22386 20 6 19.7761 6 19.5C6 19.2239 5.77614 19 5.5 19C5.22386 19 5 18.7761 5 18.5C5 18.2239 4.77614 18 4.5 18C4.22386 18 4 17.7761 4 17.5C4 17.2239 3.77614 17 3.5 17C3.22386 17 3 16.7761 3 16.5C3 16.2239 2.77614 16 2.5 16C2.22386 16 2 15.7761 2 15.5V15V14V13V12V11V10V9V8.5C2 8.22386 2.22386 8 2.5 8C2.77614 8 3 7.77614 3 7.5C3 7.22386 3.22386 7 3.5 7C3.77614 7 4 6.77614 4 6.5C4 6.22386 4.22386 6 4.5 6C4.77614 6 5 5.77614 5 5.5C5 5.22386 5.22386 5 5.5 5C5.77614 5 6 4.77614 6 4.5C6 4.22386 6.22386 4 6.5 4C6.77614 4 7 3.77614 7 3.5C7 3.22386 7.22386 3 7.5 3C7.77614 3 8 2.77614 8 2.5C8 2.22386 8.22386 2 8.5 2H9H10H11H12H13H14H15H15.5C15.7761 2 16 2.22386 16 2.5C16 2.77614 16.2239 3 16.5 3C16.7761 3 17 3.22386 17 3.5V4V4.5C17 4.77614 16.7761 5 16.5 5H16H15.5ZM20.5 7C20.7761 7 21 6.77614 21 6.5C21 6.22386 21.2239 6 21.5 6C21.7761 6 22 5.77614 22 5.5V5V4.5C22 4.22386 21.7761 4 21.5 4H21H20.5C20.2239 4 20 4.22386 20 4.5C20 4.77614 19.7761 5 19.5 5C19.2239 5 19 5.22386 19 5.5C19 5.77614 18.7761 6 18.5 6C18.2239 6 18 6.22386 18 6.5C18 6.77614 17.7761 7 17.5 7C17.2239 7 17 7.22386 17 7.5C17 7.77614 16.7761 8 16.5 8C16.2239 8 16 8.22386 16 8.5C16 8.77614 15.7761 9 15.5 9C15.2239 9 15 9.22386 15 9.5C15 9.77614 14.7761 10 14.5 10C14.2239 10 14 10.2239 14 10.5C14 10.7761 13.7761 11 13.5 11C13.2239 11 13 11.2239 13 11.5C13 11.7761 12.7761 12 12.5 12C12.2239 12 12 12.2239 12 12.5C12 12.7761 11.7761 13 11.5 13H11H10.5C10.2239 13 10 12.7761 10 12.5C10 12.2239 9.77614 12 9.5 12C9.22386 12 9 11.7761 9 11.5C9 11.2239 8.77614 11 8.5 11H8H7.5C7.22386 11 7 11.2239 7 11.5V12V12.5C7 12.7761 7.22386 13 7.5 13C7.77614 13 8 13.2239 8 13.5C8 13.7761 8.22386 14 8.5 14C8.77614 14 9 14.2239 9 14.5C9 14.7761 9.22386 15 9.5 15C9.77614 15 10 15.2239 10 15.5C10 15.7761 10.2239 16 10.5 16H11H11.5C11.7761 16 12 15.7761 12 15.5C12 15.2239 12.2239 15 12.5 15C12.7761 15 13 14.7761 13 14.5C13 14.2239 13.2239 14 13.5 14C13.7761 14 14 13.7761 14 13.5C14 13.2239 14.2239 13 14.5 13C14.7761 13 15 12.7761 15 12.5C15 12.2239 15.2239 12 15.5 12C15.7761 12 16 11.7761 16 11.5C16 11.2239 16.2239 11 16.5 11C16.7761 11 17 10.7761 17 10.5C17 10.2239 17.2239 10 17.5 10C17.7761 10 18 9.77614 18 9.5C18 9.22386 18.2239 9 18.5 9C18.7761 9 19 8.77614 19 8.5C19 8.22386 19.2239 8 19.5 8C19.7761 8 20 7.77614 20 7.5C20 7.22386 20.2239 7 20.5 7Z" fill="black"/>
</svg>
