<svg width="24" height="24" viewBox="0 0 24 24" fill="none" xmlns="http://www.w3.org/2000/svg">
<path fill-rule="evenodd" clip-rule="evenodd" d="M9 6.5C9 6.22386 8.77614 6 8.5 6H8H7.5C7.22386 6 7 6.22386 7 6.5V7V7.5C7 7.77614 7.22386 8 7.5 8C7.77614 8 8 8.22386 8 8.5C8 8.77614 8.22386 9 8.5 9C8.77614 9 9 9.22386 9 9.5C9 9.77614 9.22386 10 9.5 10C9.77614 10 10 10.2239 10 10.5C10 10.7761 10.2239 11 10.5 11C10.7761 11 11 11.2239 11 11.5C11 11.7761 11.2239 12 11.5 12H12H12.5C12.7761 12 13 11.7761 13 11.5C13 11.2239 13.2239 11 13.5 11C13.7761 11 14 10.7761 14 10.5C14 10.2239 14.2239 10 14.5 10C14.7761 10 15 9.77614 15 9.5C15 9.22386 15.2239 9 15.5 9C15.7761 9 16 8.77614 16 8.5C16 8.22386 16.2239 8 16.5 8C16.7761 8 17 7.77614 17 7.5V7V6.5C17 6.22386 16.7761 6 16.5 6H16H15.5C15.2239 6 15 6.22386 15 6.5C15 6.77614 14.7761 7 14.5 7C14.2239 7 14 7.22386 14 7.5C14 7.77614 13.7761 8 13.5 8C13.2239 8 13 8.22386 13 8.5C13 8.77614 12.7761 9 12.5 9H12H11.5C11.2239 9 11 8.77614 11 8.5C11 8.22386 10.7761 8 10.5 8C10.2239 8 10 7.77614 10 7.5C10 7.22386 9.77614 7 9.5 7C9.22386 7 9 6.77614 9 6.5ZM9 13.5C9 13.2239 8.77614 13 8.5 13H8H7.5C7.22386 13 7 13.2239 7 13.5V14V14.5C7 14.7761 7.22386 15 7.5 15C7.77614 15 8 15.2239 8 15.5C8 15.7761 8.22386 16 8.5 16C8.77614 16 9 16.2239 9 16.5C9 16.7761 9.22386 17 9.5 17C9.77614 17 10 17.2239 10 17.5C10 17.7761 10.2239 18 10.5 18C10.7761 18 11 18.2239 11 18.5C11 18.7761 11.2239 19 11.5 19H12H12.5C12.7761 19 13 18.7761 13 18.5C13 18.2239 13.2239 18 13.5 18C13.7761 18 14 17.7761 14 17.5C14 17.2239 14.2239 17 14.5 17C14.7761 17 15 16.7761 15 16.5C15 16.2239 15.2239 16 15.5 16C15.7761 16 16 15.7761 16 15.5C16 15.2239 16.2239 15 16.5 15C16.7761 15 17 14.7761 17 14.5V14V13.5C17 13.2239 16.7761 13 16.5 13H16H15.5C15.2239 13 15 13.2239 15 13.5C15 13.7761 14.7761 14 14.5 14C14.2239 14 14 14.2239 14 14.5C14 14.7761 13.7761 15 13.5 15C13.2239 15 13 15.2239 13 15.5C13 15.7761 12.7761 16 12.5 16H12H11.5C11.2239 16 11 15.7761 11 15.5C11 15.2239 10.7761 15 10.5 15C10.2239 15 10 14.7761 10 14.5C10 14.2239 9.77614 14 9.5 14C9.22386 14 9 13.7761 9 13.5Z" fill="black"/>
</svg>
