<svg width="24" height="24" viewBox="0 0 24 24" fill="none" xmlns="http://www.w3.org/2000/svg">
<path fill-rule="evenodd" clip-rule="evenodd" d="M12 5H11.5C11.2239 5 11 5.22386 11 5.5C11 5.77614 10.7761 6 10.5 6C10.2239 6 10 6.22386 10 6.5C10 6.77614 9.77614 7 9.5 7C9.22386 7 9 7.22386 9 7.5C9 7.77614 8.77614 8 8.5 8C8.22386 8 8 8.22386 8 8.5C8 8.77614 7.77614 9 7.5 9C7.22386 9 7 9.22386 7 9.5V10V10.5C7 10.7761 7.22386 11 7.5 11H8H8.5C8.77614 11 9 10.7761 9 10.5C9 10.2239 9.22386 10 9.5 10C9.77614 10 10 9.77614 10 9.5C10 9.22386 10.2239 9 10.5 9C10.7761 9 11 8.77614 11 8.5C11 8.22386 11.2239 8 11.5 8H12H12.5C12.7761 8 13 8.22386 13 8.5C13 8.77614 13.2239 9 13.5 9C13.7761 9 14 9.22386 14 9.5C14 9.77614 14.2239 10 14.5 10C14.7761 10 15 10.2239 15 10.5C15 10.7761 15.2239 11 15.5 11H16H16.5C16.7761 11 17 10.7761 17 10.5V10V9.5C17 9.22386 16.7761 9 16.5 9C16.2239 9 16 8.77614 16 8.5C16 8.22386 15.7761 8 15.5 8C15.2239 8 15 7.77614 15 7.5C15 7.22386 14.7761 7 14.5 7C14.2239 7 14 6.77614 14 6.5C14 6.22386 13.7761 6 13.5 6C13.2239 6 13 5.77614 13 5.5C13 5.22386 12.7761 5 12.5 5H12ZM12 15H11.5C11.2239 15 11 15.2239 11 15.5C11 15.7761 10.7761 16 10.5 16C10.2239 16 10 16.2239 10 16.5C10 16.7761 9.77614 17 9.5 17C9.22386 17 9 17.2239 9 17.5C9 17.7761 8.77614 18 8.5 18H8H7.5C7.22386 18 7 17.7761 7 17.5V17V16.5C7 16.2239 7.22386 16 7.5 16C7.77614 16 8 15.7761 8 15.5C8 15.2239 8.22386 15 8.5 15C8.77614 15 9 14.7761 9 14.5C9 14.2239 9.22386 14 9.5 14C9.77614 14 10 13.7761 10 13.5C10 13.2239 10.2239 13 10.5 13C10.7761 13 11 12.7761 11 12.5C11 12.2239 11.2239 12 11.5 12H12H12.5C12.7761 12 13 12.2239 13 12.5C13 12.7761 13.2239 13 13.5 13C13.7761 13 14 13.2239 14 13.5C14 13.7761 14.2239 14 14.5 14C14.7761 14 15 14.2239 15 14.5C15 14.7761 15.2239 15 15.5 15C15.7761 15 16 15.2239 16 15.5C16 15.7761 16.2239 16 16.5 16C16.7761 16 17 16.2239 17 16.5V17V17.5C17 17.7761 16.7761 18 16.5 18H16H15.5C15.2239 18 15 17.7761 15 17.5C15 17.2239 14.7761 17 14.5 17C14.2239 17 14 16.7761 14 16.5C14 16.2239 13.7761 16 13.5 16C13.2239 16 13 15.7761 13 15.5C13 15.2239 12.7761 15 12.5 15H12Z" fill="black"/>
</svg>
