<svg width="24" height="24" viewBox="0 0 24 24" fill="none" xmlns="http://www.w3.org/2000/svg">
<path fill-rule="evenodd" clip-rule="evenodd" d="M7 8.5C7 8.22386 6.77614 8 6.5 8H6H5.5C5.22386 8 5 8.22386 5 8.5V9V9.5C5 9.77614 5.22386 10 5.5 10C5.77614 10 6 10.2239 6 10.5C6 10.7761 6.22386 11 6.5 11C6.77614 11 7 11.2239 7 11.5C7 11.7761 7.22386 12 7.5 12C7.77614 12 8 12.2239 8 12.5C8 12.7761 8.22386 13 8.5 13C8.77614 13 9 13.2239 9 13.5C9 13.7761 9.22386 14 9.5 14C9.77614 14 10 14.2239 10 14.5C10 14.7761 10.2239 15 10.5 15C10.7761 15 11 15.2239 11 15.5C11 15.7761 11.2239 16 11.5 16H12H12.5C12.7761 16 13 15.7761 13 15.5C13 15.2239 13.2239 15 13.5 15C13.7761 15 14 14.7761 14 14.5C14 14.2239 14.2239 14 14.5 14C14.7761 14 15 13.7761 15 13.5C15 13.2239 15.2239 13 15.5 13C15.7761 13 16 12.7761 16 12.5C16 12.2239 16.2239 12 16.5 12C16.7761 12 17 11.7761 17 11.5C17 11.2239 17.2239 11 17.5 11C17.7761 11 18 10.7761 18 10.5C18 10.2239 18.2239 10 18.5 10C18.7761 10 19 9.77614 19 9.5V9V8.5C19 8.22386 18.7761 8 18.5 8H18H17.5C17.2239 8 17 8.22386 17 8.5C17 8.77614 16.7761 9 16.5 9C16.2239 9 16 9.22386 16 9.5C16 9.77614 15.7761 10 15.5 10C15.2239 10 15 10.2239 15 10.5C15 10.7761 14.7761 11 14.5 11C14.2239 11 14 11.2239 14 11.5C14 11.7761 13.7761 12 13.5 12C13.2239 12 13 12.2239 13 12.5C13 12.7761 12.7761 13 12.5 13H12H11.5C11.2239 13 11 12.7761 11 12.5C11 12.2239 10.7761 12 10.5 12C10.2239 12 10 11.7761 10 11.5C10 11.2239 9.77614 11 9.5 11C9.22386 11 9 10.7761 9 10.5C9 10.2239 8.77614 10 8.5 10C8.22386 10 8 9.77614 8 9.5C8 9.22386 7.77614 9 7.5 9C7.22386 9 7 8.77614 7 8.5Z" fill="black"/>
</svg>
