<svg width="24" height="24" viewBox="0 0 24 24" fill="none" xmlns="http://www.w3.org/2000/svg">
<path fill-rule="evenodd" clip-rule="evenodd" d="M7 4.5C7 4.22386 7.22386 4 7.5 4H8H9H10H11H11.5C11.7761 4 12 4.22386 12 4.5C12 4.77614 12.2239 5 12.5 5H13H13.5C13.7761 5 14 5.22386 14 5.5C14 5.77614 14.2239 6 14.5 6C14.7761 6 15 6.22386 15 6.5V7V7.5C15 7.77614 15.2239 8 15.5 8C15.7761 8 16 8.22386 16 8.5C16 8.77614 16.2239 9 16.5 9H17H18H18.5C18.7761 9 19 9.22386 19 9.5C19 9.77614 19.2239 10 19.5 10C19.7761 10 20 10.2239 20 10.5C20 10.7761 20.2239 11 20.5 11C20.7761 11 21 11.2239 21 11.5C21 11.7761 21.2239 12 21.5 12C21.7761 12 22 12.2239 22 12.5V13V14V15V16V16.5C22 16.7761 21.7761 17 21.5 17C21.2239 17 21 17.2239 21 17.5C21 17.7761 20.7761 18 20.5 18C20.2239 18 20 18.2239 20 18.5C20 18.7761 19.7761 19 19.5 19C19.2239 19 19 19.2239 19 19.5C19 19.7761 18.7761 20 18.5 20H18H17H16H15H14H13H12H11H10H9H8H7.5C7.22386 20 7 19.7761 7 19.5C7 19.2239 6.77614 19 6.5 19H6H5.5C5.22386 19 5 18.7761 5 18.5C5 18.2239 4.77614 18 4.5 18C4.22386 18 4 17.7761 4 17.5C4 17.2239 3.77614 17 3.5 17C3.22386 17 3 16.7761 3 16.5V16V15.5C3 15.2239 2.77614 15 2.5 15C2.22386 15 2 14.7761 2 14.5V14V13V12V11V10V9.5C2 9.22386 2.22386 9 2.5 9C2.77614 9 3 8.77614 3 8.5V8V7.5C3 7.22386 3.22386 7 3.5 7C3.77614 7 4 6.77614 4 6.5C4 6.22386 4.22386 6 4.5 6C4.77614 6 5 5.77614 5 5.5C5 5.22386 5.22386 5 5.5 5H6H6.5C6.77614 5 7 4.77614 7 4.5ZM9 6H8.5C8.22386 6 8 6.22386 8 6.5C8 6.77614 7.77614 7 7.5 7H7H6.5C6.22386 7 6 7.22386 6 7.5C6 7.77614 5.77614 8 5.5 8C5.22386 8 5 8.22386 5 8.5V9V9.5C5 9.77614 4.77614 10 4.5 10C4.22386 10 4 10.2239 4 10.5V11V12V13V13.5C4 13.7761 4.22386 14 4.5 14C4.77614 14 5 14.2239 5 14.5V15V15.5C5 15.7761 5.22386 16 5.5 16C5.77614 16 6 16.2239 6 16.5C6 16.7761 6.22386 17 6.5 17H7H7.5C7.77614 17 8 17.2239 8 17.5C8 17.7761 8.22386 18 8.5 18H9H10H11H12H13H14H15H16H17H17.5C17.7761 18 18 17.7761 18 17.5C18 17.2239 18.2239 17 18.5 17C18.7761 17 19 16.7761 19 16.5C19 16.2239 19.2239 16 19.5 16C19.7761 16 20 15.7761 20 15.5V15V14V13.5C20 13.2239 19.7761 13 19.5 13C19.2239 13 19 12.7761 19 12.5C19 12.2239 18.7761 12 18.5 12C18.2239 12 18 11.7761 18 11.5C18 11.2239 17.7761 11 17.5 11H17H16H15H14.5C14.2239 11 14 10.7761 14 10.5V10V9.5C14 9.22386 13.7761 9 13.5 9C13.2239 9 13 8.77614 13 8.5V8V7.5C13 7.22386 12.7761 7 12.5 7H12H11.5C11.2239 7 11 6.77614 11 6.5C11 6.22386 10.7761 6 10.5 6H10H9Z" fill="black"/>
</svg>
