<svg width="24" height="24" viewBox="0 0 24 24" fill="none" xmlns="http://www.w3.org/2000/svg">
<path fill-rule="evenodd" clip-rule="evenodd" d="M7 7H7.5C7.77614 7 8 7.22386 8 7.5V8V8.5C8 8.77614 7.77614 9 7.5 9C7.22386 9 7 9.22386 7 9.5C7 9.77614 6.77614 10 6.5 10C6.22386 10 6 10.2239 6 10.5C6 10.7761 5.77614 11 5.5 11C5.22386 11 5 11.2239 5 11.5V12V12.5C5 12.7761 5.22386 13 5.5 13C5.77614 13 6 13.2239 6 13.5C6 13.7761 6.22386 14 6.5 14C6.77614 14 7 14.2239 7 14.5C7 14.7761 7.22386 15 7.5 15C7.77614 15 8 15.2239 8 15.5V16V16.5C8 16.7761 7.77614 17 7.5 17H7H6.5C6.22386 17 6 16.7761 6 16.5C6 16.2239 5.77614 16 5.5 16C5.22386 16 5 15.7761 5 15.5C5 15.2239 4.77614 15 4.5 15C4.22386 15 4 14.7761 4 14.5C4 14.2239 3.77614 14 3.5 14C3.22386 14 3 13.7761 3 13.5C3 13.2239 2.77614 13 2.5 13C2.22386 13 2 12.7761 2 12.5V12V11.5C2 11.2239 2.22386 11 2.5 11C2.77614 11 3 10.7761 3 10.5C3 10.2239 3.22386 10 3.5 10C3.77614 10 4 9.77614 4 9.5C4 9.22386 4.22386 9 4.5 9C4.77614 9 5 8.77614 5 8.5C5 8.22386 5.22386 8 5.5 8C5.77614 8 6 7.77614 6 7.5C6 7.22386 6.22386 7 6.5 7H7ZM21 10.5C21 10.2239 20.7761 10 20.5 10C20.2239 10 20 9.77614 20 9.5C20 9.22386 19.7761 9 19.5 9C19.2239 9 19 8.77614 19 8.5C19 8.22386 18.7761 8 18.5 8C18.2239 8 18 7.77614 18 7.5C18 7.22386 17.7761 7 17.5 7H17H16.5C16.2239 7 16 7.22386 16 7.5V8V8.5C16 8.77614 16.2239 9 16.5 9C16.7761 9 17 9.22386 17 9.5C17 9.77614 17.2239 10 17.5 10C17.7761 10 18 10.2239 18 10.5C18 10.7761 18.2239 11 18.5 11C18.7761 11 19 11.2239 19 11.5V12V12.5C19 12.7761 18.7761 13 18.5 13C18.2239 13 18 13.2239 18 13.5C18 13.7761 17.7761 14 17.5 14C17.2239 14 17 14.2239 17 14.5C17 14.7761 16.7761 15 16.5 15C16.2239 15 16 15.2239 16 15.5V16V16.5C16 16.7761 16.2239 17 16.5 17H17H17.5C17.7761 17 18 16.7761 18 16.5C18 16.2239 18.2239 16 18.5 16C18.7761 16 19 15.7761 19 15.5C19 15.2239 19.2239 15 19.5 15C19.7761 15 20 14.7761 20 14.5C20 14.2239 20.2239 14 20.5 14C20.7761 14 21 13.7761 21 13.5C21 13.2239 21.2239 13 21.5 13C21.7761 13 22 12.7761 22 12.5V12V11.5C22 11.2239 21.7761 11 21.5 11C21.2239 11 21 10.7761 21 10.5Z" fill="black"/>
</svg>
