<svg width="24" height="24" viewBox="0 0 24 24" fill="none" xmlns="http://www.w3.org/2000/svg">
<path fill-rule="evenodd" clip-rule="evenodd" d="M4 3H3.5C3.22386 3 3 3.22386 3 3.5V4V5V6V7V8V9V10V11V12V13V14V15V16V17V18V19V20V20.5C3 20.7761 3.22386 21 3.5 21H4H5H6H7H8H9H10H11H12H13H14H15H16H17H18H19H20H20.5C20.7761 21 21 20.7761 21 20.5V20V19V18V17V16V15V14V13V12V11V10V9V8V7V6V5V4V3.5C21 3.22386 20.7761 3 20.5 3H20H19H18H17H16H15H14H13H12H11H10H9H8H7H6H5H4ZM5 7V8V9V10V11V12V13V14V15V16V17V18V18.5C5 18.7761 5.22386 19 5.5 19H6H7H8H9H10H10.5C10.7761 19 11 18.7761 11 18.5V18V17V16V15V14V13V12V11V10V9V8V7V6V5.5C11 5.22386 10.7761 5 10.5 5H10H9H8H7H6H5.5C5.22386 5 5 5.22386 5 5.5V6V7ZM14 19H13.5C13.2239 19 13 18.7761 13 18.5V18V17V16V15V14V13V12V11V10V9V8V7V6V5.5C13 5.22386 13.2239 5 13.5 5H14H15H16H17H18H18.5C18.7761 5 19 5.22386 19 5.5V6V7V8V9V10V11V12V13V14V15V16V17V18V18.5C19 18.7761 18.7761 19 18.5 19H18H17H16H15H14Z" fill="black"/>
</svg>
