<svg width="24" height="24" viewBox="0 0 24 24" fill="none" xmlns="http://www.w3.org/2000/svg">
<path fill-rule="evenodd" clip-rule="evenodd" d="M14 3H15H15.5C15.7761 3 16 3.22386 16 3.5V4V5V5.5C16 5.77614 15.7761 6 15.5 6H15H14.5C14.2239 6 14 5.77614 14 5.5C14 5.22386 13.7761 5 13.5 5H13H12H11H10H9H8H7H6H5.5C5.22386 5 5 5.22386 5 5.5V6V7V8V9V10V11V12V13V13.5C5 13.7761 5.22386 14 5.5 14C5.77614 14 6 14.2239 6 14.5V15V15.5C6 15.7761 5.77614 16 5.5 16H5H4H3.5C3.22386 16 3 15.7761 3 15.5V15V14V13V12V11V10V9V8V7V6V5V4V3.5C3 3.22386 3.22386 3 3.5 3H4H5H6H7H8H9H10H11H12H13H14ZM10 8H11H12H13H14H15H16H17H18H19H20H20.5C20.7761 8 21 8.22386 21 8.5V9V10V11V12V13V14V15V16V17V18V19V20V20.5C21 20.7761 20.7761 21 20.5 21H20H19H18H17H16H15H14H13H12H11H10H9H8.5C8.22386 21 8 20.7761 8 20.5V20V19V18V17V16V15V14V13V12V11V10V9V8.5C8 8.22386 8.22386 8 8.5 8H9H10ZM10.5 19C10.2239 19 10 18.7761 10 18.5V18V17V16V15V14V13V12V11V10.5C10 10.2239 10.2239 10 10.5 10H11H12H13H14H15H16H17H18H18.5C18.7761 10 19 10.2239 19 10.5V11V12V13V14V15V16V17V18V18.5C19 18.7761 18.7761 19 18.5 19H18H17H16H15H14H13H12H11H10.5Z" fill="black"/>
</svg>
