<svg width="24" height="24" viewBox="0 0 24 24" fill="none" xmlns="http://www.w3.org/2000/svg">
<path fill-rule="evenodd" clip-rule="evenodd" d="M5 3.5C5 3.22386 4.77614 3 4.5 3H4H3.5C3.22386 3 3 3.22386 3 3.5V4V5V6V7V8V9V10V11V12V12.5C3 12.7761 3.22386 13 3.5 13C3.77614 13 4 13.2239 4 13.5C4 13.7761 4.22386 14 4.5 14C4.77614 14 5 14.2239 5 14.5C5 14.7761 5.22386 15 5.5 15C5.77614 15 6 15.2239 6 15.5C6 15.7761 6.22386 16 6.5 16H7H8H9H10H11H12H13H14H15H16H16.5C16.7761 16 17 16.2239 17 16.5C17 16.7761 16.7761 17 16.5 17C16.2239 17 16 17.2239 16 17.5C16 17.7761 15.7761 18 15.5 18C15.2239 18 15 18.2239 15 18.5V19V19.5C15 19.7761 15.2239 20 15.5 20H16H16.5C16.7761 20 17 19.7761 17 19.5C17 19.2239 17.2239 19 17.5 19C17.7761 19 18 18.7761 18 18.5C18 18.2239 18.2239 18 18.5 18C18.7761 18 19 17.7761 19 17.5C19 17.2239 19.2239 17 19.5 17C19.7761 17 20 16.7761 20 16.5C20 16.2239 20.2239 16 20.5 16C20.7761 16 21 15.7761 21 15.5V15V14.5C21 14.2239 20.7761 14 20.5 14C20.2239 14 20 13.7761 20 13.5C20 13.2239 19.7761 13 19.5 13C19.2239 13 19 12.7761 19 12.5C19 12.2239 18.7761 12 18.5 12C18.2239 12 18 11.7761 18 11.5C18 11.2239 17.7761 11 17.5 11C17.2239 11 17 10.7761 17 10.5C17 10.2239 16.7761 10 16.5 10H16H15.5C15.2239 10 15 10.2239 15 10.5V11V11.5C15 11.7761 15.2239 12 15.5 12C15.7761 12 16 12.2239 16 12.5C16 12.7761 16.2239 13 16.5 13C16.7761 13 17 13.2239 17 13.5C17 13.7761 16.7761 14 16.5 14H16H15H14H13H12H11H10H9H8H7.5C7.22386 14 7 13.7761 7 13.5C7 13.2239 6.77614 13 6.5 13C6.22386 13 6 12.7761 6 12.5C6 12.2239 5.77614 12 5.5 12C5.22386 12 5 11.7761 5 11.5V11V10V9V8V7V6V5V4V3.5Z" fill="black"/>
</svg>
