<svg width="24" height="24" viewBox="0 0 24 24" fill="none" xmlns="http://www.w3.org/2000/svg">
<path fill-rule="evenodd" clip-rule="evenodd" d="M14.5 3C14.2239 3 14 3.22386 14 3.5C14 3.77614 13.7761 4 13.5 4C13.2239 4 13 4.22386 13 4.5C13 4.77614 12.7761 5 12.5 5C12.2239 5 12 5.22386 12 5.5C12 5.77614 11.7761 6 11.5 6C11.2239 6 11 6.22386 11 6.5C11 6.77614 10.7761 7 10.5 7C10.2239 7 10 7.22386 10 7.5V8V8.5C10 8.77614 10.2239 9 10.5 9H11H11.5C11.7761 9 12 8.77614 12 8.5C12 8.22386 12.2239 8 12.5 8C12.7761 8 13 7.77614 13 7.5C13 7.22386 13.2239 7 13.5 7C13.7761 7 14 7.22386 14 7.5V8V9V10V11V12V13V14V15V16V16.5C14 16.7761 13.7761 17 13.5 17C13.2239 17 13 17.2239 13 17.5C13 17.7761 12.7761 18 12.5 18C12.2239 18 12 18.2239 12 18.5C12 18.7761 11.7761 19 11.5 19H11H10H9H8H7H6H5H4H3.5C3.22386 19 3 19.2239 3 19.5V20V20.5C3 20.7761 3.22386 21 3.5 21H4H5H6H7H8H9H10H11H12H12.5C12.7761 21 13 20.7761 13 20.5C13 20.2239 13.2239 20 13.5 20C13.7761 20 14 19.7761 14 19.5C14 19.2239 14.2239 19 14.5 19C14.7761 19 15 18.7761 15 18.5C15 18.2239 15.2239 18 15.5 18C15.7761 18 16 17.7761 16 17.5V17V16V15V14V13V12V11V10V9V8V7.5C16 7.22386 16.2239 7 16.5 7C16.7761 7 17 7.22386 17 7.5C17 7.77614 17.2239 8 17.5 8C17.7761 8 18 8.22386 18 8.5C18 8.77614 18.2239 9 18.5 9H19H19.5C19.7761 9 20 8.77614 20 8.5V8V7.5C20 7.22386 19.7761 7 19.5 7C19.2239 7 19 6.77614 19 6.5C19 6.22386 18.7761 6 18.5 6C18.2239 6 18 5.77614 18 5.5C18 5.22386 17.7761 5 17.5 5C17.2239 5 17 4.77614 17 4.5C17 4.22386 16.7761 4 16.5 4C16.2239 4 16 3.77614 16 3.5C16 3.22386 15.7761 3 15.5 3H15H14.5Z" fill="black"/>
</svg>
