<svg width="24" height="24" viewBox="0 0 24 24" fill="none" xmlns="http://www.w3.org/2000/svg">
<path fill-rule="evenodd" clip-rule="evenodd" d="M19 3.5C19 3.22386 19.2239 3 19.5 3H20H20.5C20.7761 3 21 3.22386 21 3.5V4V5V6V7V8V9V10V11V12V12.5C21 12.7761 20.7761 13 20.5 13C20.2239 13 20 13.2239 20 13.5C20 13.7761 19.7761 14 19.5 14C19.2239 14 19 14.2239 19 14.5C19 14.7761 18.7761 15 18.5 15C18.2239 15 18 15.2239 18 15.5C18 15.7761 17.7761 16 17.5 16H17H16H15H14H13H12H11H10H9H8H7.5C7.22386 16 7 16.2239 7 16.5C7 16.7761 7.22386 17 7.5 17C7.77614 17 8 17.2239 8 17.5C8 17.7761 8.22386 18 8.5 18C8.77614 18 9 18.2239 9 18.5V19V19.5C9 19.7761 8.77614 20 8.5 20H8H7.5C7.22386 20 7 19.7761 7 19.5C7 19.2239 6.77614 19 6.5 19C6.22386 19 6 18.7761 6 18.5C6 18.2239 5.77614 18 5.5 18C5.22386 18 5 17.7761 5 17.5C5 17.2239 4.77614 17 4.5 17C4.22386 17 4 16.7761 4 16.5C4 16.2239 3.77614 16 3.5 16C3.22386 16 3 15.7761 3 15.5V15V14.5C3 14.2239 3.22386 14 3.5 14C3.77614 14 4 13.7761 4 13.5C4 13.2239 4.22386 13 4.5 13C4.77614 13 5 12.7761 5 12.5C5 12.2239 5.22386 12 5.5 12C5.77614 12 6 11.7761 6 11.5C6 11.2239 6.22386 11 6.5 11C6.77614 11 7 10.7761 7 10.5C7 10.2239 7.22386 10 7.5 10H8H8.5C8.77614 10 9 10.2239 9 10.5V11V11.5C9 11.7761 8.77614 12 8.5 12C8.22386 12 8 12.2239 8 12.5C8 12.7761 7.77614 13 7.5 13C7.22386 13 7 13.2239 7 13.5C7 13.7761 7.22386 14 7.5 14H8H9H10H11H12H13H14H15H16H16.5C16.7761 14 17 13.7761 17 13.5C17 13.2239 17.2239 13 17.5 13C17.7761 13 18 12.7761 18 12.5C18 12.2239 18.2239 12 18.5 12C18.7761 12 19 11.7761 19 11.5V11V10V9V8V7V6V5V4V3.5Z" fill="black"/>
</svg>
