<svg width="24" height="24" viewBox="0 0 24 24" fill="none" xmlns="http://www.w3.org/2000/svg">
<path fill-rule="evenodd" clip-rule="evenodd" d="M12 3H11.5C11.2239 3 11 3.22386 11 3.5V4V4.5C11 4.77614 10.7761 5 10.5 5H10H9H8H7H6.5C6.22386 5 6 5.22386 6 5.5V6V7V8V9V10V11V12V12.5C6 12.7761 6.22386 13 6.5 13H7H8H9H10H10.5C10.7761 13 11 13.2239 11 13.5V14V15V16V16.5C11 16.7761 10.7761 17 10.5 17H10H9H8H7H6.5C6.22386 17 6 17.2239 6 17.5V18V18.5C6 18.7761 6.22386 19 6.5 19H7H8H9H10H10.5C10.7761 19 11 19.2239 11 19.5V20V20.5C11 20.7761 11.2239 21 11.5 21H12H12.5C12.7761 21 13 20.7761 13 20.5V20V19.5C13 19.2239 13.2239 19 13.5 19H14H15H16H17H17.5C17.7761 19 18 18.7761 18 18.5V18V17V16V15V14V13V12V11.5C18 11.2239 17.7761 11 17.5 11H17H16H15H14H13.5C13.2239 11 13 10.7761 13 10.5V10V9V8V7.5C13 7.22386 13.2239 7 13.5 7H14H15H16H17H17.5C17.7761 7 18 6.77614 18 6.5V6V5.5C18 5.22386 17.7761 5 17.5 5H17H16H15H14H13.5C13.2239 5 13 4.77614 13 4.5V4V3.5C13 3.22386 12.7761 3 12.5 3H12ZM11 8V9V10V10.5C11 10.7761 10.7761 11 10.5 11H10H9H8.5C8.22386 11 8 10.7761 8 10.5V10V9V8V7.5C8 7.22386 8.22386 7 8.5 7H9H10H10.5C10.7761 7 11 7.22386 11 7.5V8ZM13 14V13.5C13 13.2239 13.2239 13 13.5 13H14H15H15.5C15.7761 13 16 13.2239 16 13.5V14V15V16V16.5C16 16.7761 15.7761 17 15.5 17H15H14H13.5C13.2239 17 13 16.7761 13 16.5V16V15V14Z" fill="black"/>
</svg>
