<svg width="24" height="24" viewBox="0 0 24 24" fill="none" xmlns="http://www.w3.org/2000/svg">
<path fill-rule="evenodd" clip-rule="evenodd" d="M13 4H13.5C13.7761 4 14 4.22386 14 4.5C14 4.77614 14.2239 5 14.5 5H15H16H16.5C16.7761 5 17 5.22386 17 5.5C17 5.77614 17.2239 6 17.5 6C17.7761 6 18 6.22386 18 6.5C18 6.77614 18.2239 7 18.5 7C18.7761 7 19 7.22386 19 7.5C19 7.77614 19.2239 8 19.5 8C19.7761 8 20 8.22386 20 8.5C20 8.77614 20.2239 9 20.5 9C20.7761 9 21 9.22386 21 9.5C21 9.77614 21.2239 10 21.5 10C21.7761 10 22 10.2239 22 10.5V11V12V13V13.5C22 13.7761 21.7761 14 21.5 14C21.2239 14 21 14.2239 21 14.5C21 14.7761 20.7761 15 20.5 15C20.2239 15 20 15.2239 20 15.5C20 15.7761 19.7761 16 19.5 16C19.2239 16 19 16.2239 19 16.5C19 16.7761 18.7761 17 18.5 17C18.2239 17 18 17.2239 18 17.5C18 17.7761 17.7761 18 17.5 18C17.2239 18 17 18.2239 17 18.5C17 18.7761 16.7761 19 16.5 19H16H15H14.5C14.2239 19 14 19.2239 14 19.5C14 19.7761 13.7761 20 13.5 20H13H12H11H10.5C10.2239 20 10 19.7761 10 19.5C10 19.2239 9.77614 19 9.5 19H9H8H7.5C7.22386 19 7 18.7761 7 18.5C7 18.2239 6.77614 18 6.5 18C6.22386 18 6 17.7761 6 17.5C6 17.2239 5.77614 17 5.5 17C5.22386 17 5 16.7761 5 16.5C5 16.2239 4.77614 16 4.5 16C4.22386 16 4 15.7761 4 15.5C4 15.2239 3.77614 15 3.5 15C3.22386 15 3 14.7761 3 14.5C3 14.2239 2.77614 14 2.5 14C2.22386 14 2 13.7761 2 13.5V13V12V11V10.5C2 10.2239 2.22386 10 2.5 10C2.77614 10 3 9.77614 3 9.5C3 9.22386 3.22386 9 3.5 9C3.77614 9 4 8.77614 4 8.5C4 8.22386 4.22386 8 4.5 8C4.77614 8 5 7.77614 5 7.5C5 7.22386 5.22386 7 5.5 7C5.77614 7 6 6.77614 6 6.5C6 6.22386 6.22386 6 6.5 6C6.77614 6 7 5.77614 7 5.5C7 5.22386 7.22386 5 7.5 5H8H9H9.5C9.77614 5 10 4.77614 10 4.5C10 4.22386 10.2239 4 10.5 4H11H12H13ZM13.5 18C13.7761 18 14 17.7761 14 17.5C14 17.2239 14.2239 17 14.5 17H15H15.5C15.7761 17 16 16.7761 16 16.5C16 16.2239 16.2239 16 16.5 16C16.7761 16 17 15.7761 17 15.5C17 15.2239 17.2239 15 17.5 15C17.7761 15 18 14.7761 18 14.5C18 14.2239 18.2239 14 18.5 14C18.7761 14 19 13.7761 19 13.5C19 13.2239 19.2239 13 19.5 13C19.7761 13 20 12.7761 20 12.5V12V11.5C20 11.2239 19.7761 11 19.5 11C19.2239 11 19 10.7761 19 10.5C19 10.2239 18.7761 10 18.5 10C18.2239 10 18 9.77614 18 9.5C18 9.22386 17.7761 9 17.5 9C17.2239 9 17 8.77614 17 8.5C17 8.22386 16.7761 8 16.5 8C16.2239 8 16 7.77614 16 7.5C16 7.22386 15.7761 7 15.5 7H15H14.5C14.2239 7 14 6.77614 14 6.5C14 6.22386 13.7761 6 13.5 6H13H12H11H10.5C10.2239 6 10 6.22386 10 6.5C10 6.77614 9.77614 7 9.5 7H9H8.5C8.22386 7 8 7.22386 8 7.5C8 7.77614 7.77614 8 7.5 8C7.22386 8 7 8.22386 7 8.5C7 8.77614 6.77614 9 6.5 9C6.22386 9 6 9.22386 6 9.5C6 9.77614 5.77614 10 5.5 10C5.22386 10 5 10.2239 5 10.5C5 10.7761 4.77614 11 4.5 11C4.22386 11 4 11.2239 4 11.5V12V12.5C4 12.7761 4.22386 13 4.5 13C4.77614 13 5 13.2239 5 13.5C5 13.7761 5.22386 14 5.5 14C5.77614 14 6 14.2239 6 14.5C6 14.7761 6.22386 15 6.5 15C6.77614 15 7 15.2239 7 15.5C7 15.7761 7.22386 16 7.5 16C7.77614 16 8 16.2239 8 16.5C8 16.7761 8.22386 17 8.5 17H9H9.5C9.77614 17 10 17.2239 10 17.5C10 17.7761 10.2239 18 10.5 18H11H12H13H13.5ZM13 9H13.5C13.7761 9 14 9.22386 14 9.5C14 9.77614 14.2239 10 14.5 10C14.7761 10 15 10.2239 15 10.5V11V12V13V13.5C15 13.7761 14.7761 14 14.5 14C14.2239 14 14 14.2239 14 14.5C14 14.7761 13.7761 15 13.5 15H13H12H11H10.5C10.2239 15 10 14.7761 10 14.5C10 14.2239 9.77614 14 9.5 14C9.22386 14 9 13.7761 9 13.5V13V12V11V10.5C9 10.2239 9.22386 10 9.5 10C9.77614 10 10 9.77614 10 9.5C10 9.22386 10.2239 9 10.5 9H11H12H13ZM12 11H11.5C11.2239 11 11 11.2239 11 11.5V12V12.5C11 12.7761 11.2239 13 11.5 13H12H12.5C12.7761 13 13 12.7761 13 12.5V12V11.5C13 11.2239 12.7761 11 12.5 11H12Z" fill="black"/>
</svg>
