<svg width="24" height="24" viewBox="0 0 24 24" fill="none" xmlns="http://www.w3.org/2000/svg">
<path fill-rule="evenodd" clip-rule="evenodd" d="M4 3H3.5C3.22386 3 3 3.22386 3 3.5V4V5V6V7V8V9V10V11V12V13V14V15V16V17V18V19V20V20.5C3 20.7761 3.22386 21 3.5 21H4H5H6H7H8H9H10H11H12H13H14H15H16H17H18H19H20H20.5C20.7761 21 21 20.7761 21 20.5V20V19V18V17V16V15V14V13V12V11V10V9V8V7V6V5V4V3.5C21 3.22386 20.7761 3 20.5 3H20H19H18H17H16H15H14H13H12H11H10H9H8H7H6H5H4ZM6 19H5.5C5.22386 19 5 18.7761 5 18.5V18V17.5C5 17.2239 5.22386 17 5.5 17H6H6.5C6.77614 17 7 17.2239 7 17.5V18V18.5C7 18.7761 6.77614 19 6.5 19H6ZM7 14V14.5C7 14.7761 6.77614 15 6.5 15H6H5.5C5.22386 15 5 14.7761 5 14.5V14V13.5C5 13.2239 5.22386 13 5.5 13H6H6.5C6.77614 13 7 13.2239 7 13.5V14ZM6 11H5.5C5.22386 11 5 10.7761 5 10.5V10V9.5C5 9.22386 5.22386 9 5.5 9H6H6.5C6.77614 9 7 9.22386 7 9.5V10V10.5C7 10.7761 6.77614 11 6.5 11H6ZM7 6V6.5C7 6.77614 6.77614 7 6.5 7H6H5.5C5.22386 7 5 6.77614 5 6.5V6V5.5C5 5.22386 5.22386 5 5.5 5H6H6.5C6.77614 5 7 5.22386 7 5.5V6ZM10 19H9.5C9.22386 19 9 18.7761 9 18.5V18V17V16V15V14V13.5C9 13.2239 9.22386 13 9.5 13H10H11H12H13H14H14.5C14.7761 13 15 13.2239 15 13.5V14V15V16V17V18V18.5C15 18.7761 14.7761 19 14.5 19H14H13H12H11H10ZM15 10V10.5C15 10.7761 14.7761 11 14.5 11H14H13H12H11H10H9.5C9.22386 11 9 10.7761 9 10.5V10V9V8V7V6V5.5C9 5.22386 9.22386 5 9.5 5H10H11H12H13H14H14.5C14.7761 5 15 5.22386 15 5.5V6V7V8V9V10ZM18 19H17.5C17.2239 19 17 18.7761 17 18.5V18V17.5C17 17.2239 17.2239 17 17.5 17H18H18.5C18.7761 17 19 17.2239 19 17.5V18V18.5C19 18.7761 18.7761 19 18.5 19H18ZM19 14V14.5C19 14.7761 18.7761 15 18.5 15H18H17.5C17.2239 15 17 14.7761 17 14.5V14V13.5C17 13.2239 17.2239 13 17.5 13H18H18.5C18.7761 13 19 13.2239 19 13.5V14ZM19 10V10.5C19 10.7761 18.7761 11 18.5 11H18H17.5C17.2239 11 17 10.7761 17 10.5V10V9.5C17 9.22386 17.2239 9 17.5 9H18H18.5C18.7761 9 19 9.22386 19 9.5V10ZM19 6V6.5C19 6.77614 18.7761 7 18.5 7H18H17.5C17.2239 7 17 6.77614 17 6.5V6V5.5C17 5.22386 17.2239 5 17.5 5H18H18.5C18.7761 5 19 5.22386 19 5.5V6Z" fill="black"/>
</svg>
