<svg width="24" height="24" viewBox="0 0 24 24" fill="none" xmlns="http://www.w3.org/2000/svg">
<path fill-rule="evenodd" clip-rule="evenodd" d="M3 3.5C3 3.22386 3.22386 3 3.5 3H4H5H6H7H8H9H10H11H12H13H14H15H16H17H18H19H20H20.5C20.7761 3 21 3.22386 21 3.5V4V5V5.5C21 5.77614 20.7761 6 20.5 6C20.2239 6 20 6.22386 20 6.5C20 6.77614 19.7761 7 19.5 7C19.2239 7 19 7.22386 19 7.5C19 7.77614 18.7761 8 18.5 8C18.2239 8 18 8.22386 18 8.5C18 8.77614 17.7761 9 17.5 9C17.2239 9 17 9.22386 17 9.5C17 9.77614 16.7761 10 16.5 10C16.2239 10 16 10.2239 16 10.5V11V11.5C16 11.7761 15.7761 12 15.5 12C15.2239 12 15 12.2239 15 12.5V13V14V15V16V17V18V19V20V20.5C15 20.7761 14.7761 21 14.5 21H14H13.5C13.2239 21 13 20.7761 13 20.5C13 20.2239 12.7761 20 12.5 20C12.2239 20 12 19.7761 12 19.5C12 19.2239 11.7761 19 11.5 19C11.2239 19 11 18.7761 11 18.5C11 18.2239 10.7761 18 10.5 18C10.2239 18 10 17.7761 10 17.5C10 17.2239 9.77614 17 9.5 17C9.22386 17 9 16.7761 9 16.5V16V15V14V13V12.5C9 12.2239 8.77614 12 8.5 12C8.22386 12 8 11.7761 8 11.5V11V10.5C8 10.2239 7.77614 10 7.5 10C7.22386 10 7 9.77614 7 9.5C7 9.22386 6.77614 9 6.5 9C6.22386 9 6 8.77614 6 8.5C6 8.22386 5.77614 8 5.5 8C5.22386 8 5 7.77614 5 7.5C5 7.22386 4.77614 7 4.5 7C4.22386 7 4 6.77614 4 6.5V6V5.5C4 5.22386 3.77614 5 3.5 5C3.22386 5 3 4.77614 3 4.5V4V3.5ZM15.5 8C15.2239 8 15 8.22386 15 8.5C15 8.77614 14.7761 9 14.5 9C14.2239 9 14 9.22386 14 9.5V10V10.5C14 10.7761 13.7761 11 13.5 11C13.2239 11 13 11.2239 13 11.5V12V13V14V15V16V16.5C13 16.7761 12.7761 17 12.5 17C12.2239 17 12 16.7761 12 16.5C12 16.2239 11.7761 16 11.5 16C11.2239 16 11 15.7761 11 15.5V15V14V13V12V11.5C11 11.2239 10.7761 11 10.5 11C10.2239 11 10 10.7761 10 10.5V10V9.5C10 9.22386 9.77614 9 9.5 9C9.22386 9 9 8.77614 9 8.5C9 8.22386 8.77614 8 8.5 8C8.22386 8 8 7.77614 8 7.5C8 7.22386 7.77614 7 7.5 7C7.22386 7 7 6.77614 7 6.5C7 6.22386 6.77614 6 6.5 6C6.22386 6 6 5.77614 6 5.5C6 5.22386 6.22386 5 6.5 5H7H8H9H10H11H12H13H14H15H16H17H17.5C17.7761 5 18 5.22386 18 5.5C18 5.77614 17.7761 6 17.5 6C17.2239 6 17 6.22386 17 6.5C17 6.77614 16.7761 7 16.5 7C16.2239 7 16 7.22386 16 7.5C16 7.77614 15.7761 8 15.5 8Z" fill="black"/>
</svg>
