<svg width="24" height="24" viewBox="0 0 24 24" fill="none" xmlns="http://www.w3.org/2000/svg">
<path fill-rule="evenodd" clip-rule="evenodd" d="M11 2H10H9H8.5C8.22386 2 8 2.22386 8 2.5C8 2.77614 7.77614 3 7.5 3C7.22386 3 7 3.22386 7 3.5C7 3.77614 6.77614 4 6.5 4C6.22386 4 6 4.22386 6 4.5C6 4.77614 5.77614 5 5.5 5C5.22386 5 5 5.22386 5 5.5C5 5.77614 4.77614 6 4.5 6C4.22386 6 4 6.22386 4 6.5C4 6.77614 3.77614 7 3.5 7C3.22386 7 3 7.22386 3 7.5C3 7.77614 2.77614 8 2.5 8C2.22386 8 2 8.22386 2 8.5V9V10V11V12V13V14V15V15.5C2 15.7761 2.22386 16 2.5 16C2.77614 16 3 16.2239 3 16.5C3 16.7761 3.22386 17 3.5 17C3.77614 17 4 17.2239 4 17.5C4 17.7761 4.22386 18 4.5 18C4.77614 18 5 18.2239 5 18.5C5 18.7761 5.22386 19 5.5 19C5.77614 19 6 19.2239 6 19.5C6 19.7761 6.22386 20 6.5 20C6.77614 20 7 20.2239 7 20.5C7 20.7761 7.22386 21 7.5 21C7.77614 21 8 21.2239 8 21.5C8 21.7761 8.22386 22 8.5 22H9H10H11H12H13H14H15H15.5C15.7761 22 16 21.7761 16 21.5C16 21.2239 16.2239 21 16.5 21C16.7761 21 17 20.7761 17 20.5C17 20.2239 17.2239 20 17.5 20C17.7761 20 18 19.7761 18 19.5C18 19.2239 18.2239 19 18.5 19C18.7761 19 19 18.7761 19 18.5C19 18.2239 19.2239 18 19.5 18C19.7761 18 20 17.7761 20 17.5C20 17.2239 20.2239 17 20.5 17C20.7761 17 21 16.7761 21 16.5C21 16.2239 21.2239 16 21.5 16C21.7761 16 22 15.7761 22 15.5V15V14V13V12V11V10V9V8.5C22 8.22386 21.7761 8 21.5 8C21.2239 8 21 7.77614 21 7.5C21 7.22386 20.7761 7 20.5 7C20.2239 7 20 6.77614 20 6.5C20 6.22386 19.7761 6 19.5 6C19.2239 6 19 5.77614 19 5.5C19 5.22386 18.7761 5 18.5 5C18.2239 5 18 4.77614 18 4.5C18 4.22386 17.7761 4 17.5 4C17.2239 4 17 3.77614 17 3.5C17 3.22386 16.7761 3 16.5 3C16.2239 3 16 2.77614 16 2.5C16 2.22386 15.7761 2 15.5 2H15H14H13H12H11ZM11 4H10H9.5C9.22386 4 9 4.22386 9 4.5C9 4.77614 8.77614 5 8.5 5C8.22386 5 8 5.22386 8 5.5C8 5.77614 7.77614 6 7.5 6C7.22386 6 7 6.22386 7 6.5C7 6.77614 6.77614 7 6.5 7C6.22386 7 6 7.22386 6 7.5C6 7.77614 5.77614 8 5.5 8C5.22386 8 5 8.22386 5 8.5C5 8.77614 4.77614 9 4.5 9C4.22386 9 4 9.22386 4 9.5V10V11V12V13V14V14.5C4 14.7761 4.22386 15 4.5 15C4.77614 15 5 15.2239 5 15.5C5 15.7761 5.22386 16 5.5 16C5.77614 16 6 16.2239 6 16.5C6 16.7761 6.22386 17 6.5 17C6.77614 17 7 17.2239 7 17.5C7 17.7761 7.22386 18 7.5 18C7.77614 18 8 18.2239 8 18.5C8 18.7761 8.22386 19 8.5 19C8.77614 19 9 19.2239 9 19.5C9 19.7761 9.22386 20 9.5 20H10H11H12H13H14H14.5C14.7761 20 15 19.7761 15 19.5C15 19.2239 15.2239 19 15.5 19C15.7761 19 16 18.7761 16 18.5C16 18.2239 16.2239 18 16.5 18C16.7761 18 17 17.7761 17 17.5C17 17.2239 17.2239 17 17.5 17C17.7761 17 18 16.7761 18 16.5C18 16.2239 18.2239 16 18.5 16C18.7761 16 19 15.7761 19 15.5C19 15.2239 19.2239 15 19.5 15C19.7761 15 20 14.7761 20 14.5V14V13V12V11V10V9.5C20 9.22386 19.7761 9 19.5 9C19.2239 9 19 8.77614 19 8.5C19 8.22386 18.7761 8 18.5 8C18.2239 8 18 7.77614 18 7.5C18 7.22386 17.7761 7 17.5 7C17.2239 7 17 6.77614 17 6.5C17 6.22386 16.7761 6 16.5 6C16.2239 6 16 5.77614 16 5.5C16 5.22386 15.7761 5 15.5 5C15.2239 5 15 4.77614 15 4.5C15 4.22386 14.7761 4 14.5 4H14H13H12H11ZM9 15H8.5C8.22386 15 8 15.2239 8 15.5V16V16.5C8 16.7761 8.22386 17 8.5 17H9H9.5C9.77614 17 10 16.7761 10 16.5C10 16.2239 10.2239 16 10.5 16H11H12H13H13.5C13.7761 16 14 16.2239 14 16.5C14 16.7761 14.2239 17 14.5 17H15H15.5C15.7761 17 16 16.7761 16 16.5V16V15.5C16 15.2239 15.7761 15 15.5 15H15H14.5C14.2239 15 14 14.7761 14 14.5C14 14.2239 13.7761 14 13.5 14H13H12H11H10.5C10.2239 14 10 14.2239 10 14.5C10 14.7761 9.77614 15 9.5 15H9ZM10 11V11.5C10 11.7761 9.77614 12 9.5 12H9H8.5C8.22386 12 8 11.7761 8 11.5V11V10.5C8 10.2239 8.22386 10 8.5 10H9H9.5C9.77614 10 10 10.2239 10 10.5V11ZM15.5 12C15.7761 12 16 11.7761 16 11.5V11V10.5C16 10.2239 15.7761 10 15.5 10H15H14.5C14.2239 10 14 10.2239 14 10.5V11V11.5C14 11.7761 14.2239 12 14.5 12H15H15.5Z" fill="black"/>
</svg>
