<svg width="24" height="24" viewBox="0 0 24 24" fill="none" xmlns="http://www.w3.org/2000/svg">
<path fill-rule="evenodd" clip-rule="evenodd" d="M4 3H3.5C3.22386 3 3 3.22386 3 3.5V4V5V6V7V8V9V10V10.5C3 10.7761 3.22386 11 3.5 11H4H5H6H7H8H9H10H10.5C10.7761 11 11 10.7761 11 10.5V10V9V8V7V6V5V4V3.5C11 3.22386 10.7761 3 10.5 3H10H9H8H7H6H5H4ZM5.5 5C5.22386 5 5 5.22386 5 5.5V6V7V8V8.5C5 8.77614 5.22386 9 5.5 9H6H7H8H8.5C8.77614 9 9 8.77614 9 8.5V8V7V6V5.5C9 5.22386 8.77614 5 8.5 5H8H7H6H5.5ZM13 3.5C13 3.22386 13.2239 3 13.5 3H14H15H16H17H18H19H20H20.5C20.7761 3 21 3.22386 21 3.5V4V5V6V7V8V9V10V10.5C21 10.7761 20.7761 11 20.5 11H20H19H18H17H16H15H14H13.5C13.2239 11 13 10.7761 13 10.5V10V9V8V7V6V5V4V3.5ZM15.5 5C15.2239 5 15 5.22386 15 5.5V6V7V8V8.5C15 8.77614 15.2239 9 15.5 9H16H17H18H18.5C18.7761 9 19 8.77614 19 8.5V8V7V6V5.5C19 5.22386 18.7761 5 18.5 5H18H17H16H15.5ZM13 13.5C13 13.2239 13.2239 13 13.5 13H14H15H16H17H18H19H20H20.5C20.7761 13 21 13.2239 21 13.5V14V15V16V17V18V19V20V20.5C21 20.7761 20.7761 21 20.5 21H20H19H18H17H16H15H14H13.5C13.2239 21 13 20.7761 13 20.5V20V19V18V17V16V15V14V13.5ZM18 15H17H16H15.5C15.2239 15 15 15.2239 15 15.5V16V17V18V18.5C15 18.7761 15.2239 19 15.5 19H16H17H18H18.5C18.7761 19 19 18.7761 19 18.5V18V17V16V15.5C19 15.2239 18.7761 15 18.5 15H18ZM9 13H10H10.5C10.7761 13 11 13.2239 11 13.5V14V15V16V17V18V19V20V20.5C11 20.7761 10.7761 21 10.5 21H10H9H8H7H6H5H4H3.5C3.22386 21 3 20.7761 3 20.5V20V19V18V17V16V15V14V13.5C3 13.2239 3.22386 13 3.5 13H4H5H6H7H8H9ZM9 17V16V15.5C9 15.2239 8.77614 15 8.5 15H8H7H6H5.5C5.22386 15 5 15.2239 5 15.5V16V17V18V18.5C5 18.7761 5.22386 19 5.5 19H6H7H8H8.5C8.77614 19 9 18.7761 9 18.5V18V17Z" fill="black"/>
</svg>
