<svg width="24" height="24" viewBox="0 0 24 24" fill="none" xmlns="http://www.w3.org/2000/svg">
<path fill-rule="evenodd" clip-rule="evenodd" d="M8 3.5C8 3.22386 8.22386 3 8.5 3H9H10H11H12H13H14H15H15.5C15.7761 3 16 3.22386 16 3.5C16 3.77614 16.2239 4 16.5 4C16.7761 4 17 4.22386 17 4.5C17 4.77614 17.2239 5 17.5 5C17.7761 5 18 5.22386 18 5.5C18 5.77614 18.2239 6 18.5 6C18.7761 6 19 6.22386 19 6.5C19 6.77614 19.2239 7 19.5 7C19.7761 7 20 7.22386 20 7.5C20 7.77614 20.2239 8 20.5 8C20.7761 8 21 8.22386 21 8.5V9V10V11V12V13V14V15V16V17V18V19V20V20.5C21 20.7761 20.7761 21 20.5 21H20H19H18H17H16H15.5C15.2239 21 15 20.7761 15 20.5V20V19V18V17V16V15V14.5C15 14.2239 15.2239 14 15.5 14H16H17H18H18.5C18.7761 14 19 13.7761 19 13.5V13V12V11V10V9.5C19 9.22386 18.7761 9 18.5 9C18.2239 9 18 8.77614 18 8.5C18 8.22386 17.7761 8 17.5 8C17.2239 8 17 7.77614 17 7.5C17 7.22386 16.7761 7 16.5 7C16.2239 7 16 6.77614 16 6.5C16 6.22386 15.7761 6 15.5 6C15.2239 6 15 5.77614 15 5.5C15 5.22386 14.7761 5 14.5 5H14H13H12H11H10H9.5C9.22386 5 9 5.22386 9 5.5C9 5.77614 8.77614 6 8.5 6C8.22386 6 8 6.22386 8 6.5C8 6.77614 7.77614 7 7.5 7C7.22386 7 7 7.22386 7 7.5C7 7.77614 6.77614 8 6.5 8C6.22386 8 6 8.22386 6 8.5C6 8.77614 5.77614 9 5.5 9C5.22386 9 5 9.22386 5 9.5V10V11V12V13V13.5C5 13.7761 5.22386 14 5.5 14H6H7H8H8.5C8.77614 14 9 14.2239 9 14.5V15V16V17V18V19V20V20.5C9 20.7761 8.77614 21 8.5 21H8H7H6H5H4H3.5C3.22386 21 3 20.7761 3 20.5V20V19V18V17V16V15V14V13V12V11V10V9V8.5C3 8.22386 3.22386 8 3.5 8C3.77614 8 4 7.77614 4 7.5C4 7.22386 4.22386 7 4.5 7C4.77614 7 5 6.77614 5 6.5C5 6.22386 5.22386 6 5.5 6C5.77614 6 6 5.77614 6 5.5C6 5.22386 6.22386 5 6.5 5C6.77614 5 7 4.77614 7 4.5C7 4.22386 7.22386 4 7.5 4C7.77614 4 8 3.77614 8 3.5ZM18 19H17.5C17.2239 19 17 18.7761 17 18.5V18V17V16.5C17 16.2239 17.2239 16 17.5 16H18H18.5C18.7761 16 19 16.2239 19 16.5V17V18V18.5C19 18.7761 18.7761 19 18.5 19H18ZM5.5 16C5.22386 16 5 16.2239 5 16.5V17V18V18.5C5 18.7761 5.22386 19 5.5 19H6H6.5C6.77614 19 7 18.7761 7 18.5V18V17V16.5C7 16.2239 6.77614 16 6.5 16H6H5.5Z" fill="black"/>
</svg>
