<svg width="24" height="24" viewBox="0 0 24 24" fill="none" xmlns="http://www.w3.org/2000/svg">
<path fill-rule="evenodd" clip-rule="evenodd" d="M13 3H13.5C13.7761 3 14 3.22386 14 3.5C14 3.77614 14.2239 4 14.5 4C14.7761 4 15 4.22386 15 4.5C15 4.77614 15.2239 5 15.5 5C15.7761 5 16 5.22386 16 5.5C16 5.77614 16.2239 6 16.5 6C16.7761 6 17 6.22386 17 6.5C17 6.77614 17.2239 7 17.5 7C17.7761 7 18 7.22386 18 7.5C18 7.77614 18.2239 8 18.5 8C18.7761 8 19 8.22386 19 8.5C19 8.77614 19.2239 9 19.5 9C19.7761 9 20 9.22386 20 9.5C20 9.77614 20.2239 10 20.5 10C20.7761 10 21 10.2239 21 10.5V11V12V13V14V15V16V17V18V19V20V20.5C21 20.7761 20.7761 21 20.5 21H20H19H18H17H16H15H14H13H12H11H10H9H8H7H6H5H4H3.5C3.22386 21 3 20.7761 3 20.5V20V19V18V17V16V15V14V13V12V11V10.5C3 10.2239 3.22386 10 3.5 10C3.77614 10 4 9.77614 4 9.5C4 9.22386 4.22386 9 4.5 9C4.77614 9 5 8.77614 5 8.5C5 8.22386 5.22386 8 5.5 8C5.77614 8 6 7.77614 6 7.5C6 7.22386 6.22386 7 6.5 7C6.77614 7 7 6.77614 7 6.5C7 6.22386 7.22386 6 7.5 6C7.77614 6 8 5.77614 8 5.5C8 5.22386 8.22386 5 8.5 5C8.77614 5 9 4.77614 9 4.5C9 4.22386 9.22386 4 9.5 4C9.77614 4 10 3.77614 10 3.5C10 3.22386 10.2239 3 10.5 3H11H12H13ZM19 18V18.5C19 18.7761 18.7761 19 18.5 19H18H17H16.5C16.2239 19 16 18.7761 16 18.5V18V17V16V15V14V13V12.5C16 12.2239 15.7761 12 15.5 12H15H14H13H12H11H10H9H8.5C8.22386 12 8 12.2239 8 12.5V13V14V15V16V17V18V18.5C8 18.7761 7.77614 19 7.5 19H7H6H5.5C5.22386 19 5 18.7761 5 18.5V18V17V16V15V14V13V12V11.5C5 11.2239 5.22386 11 5.5 11C5.77614 11 6 10.7761 6 10.5C6 10.2239 6.22386 10 6.5 10C6.77614 10 7 9.77614 7 9.5C7 9.22386 7.22386 9 7.5 9C7.77614 9 8 8.77614 8 8.5C8 8.22386 8.22386 8 8.5 8C8.77614 8 9 7.77614 9 7.5C9 7.22386 9.22386 7 9.5 7C9.77614 7 10 6.77614 10 6.5C10 6.22386 10.2239 6 10.5 6C10.7761 6 11 5.77614 11 5.5C11 5.22386 11.2239 5 11.5 5H12H12.5C12.7761 5 13 5.22386 13 5.5C13 5.77614 13.2239 6 13.5 6C13.7761 6 14 6.22386 14 6.5C14 6.77614 14.2239 7 14.5 7C14.7761 7 15 7.22386 15 7.5C15 7.77614 15.2239 8 15.5 8C15.7761 8 16 8.22386 16 8.5C16 8.77614 16.2239 9 16.5 9C16.7761 9 17 9.22386 17 9.5C17 9.77614 17.2239 10 17.5 10C17.7761 10 18 10.2239 18 10.5C18 10.7761 18.2239 11 18.5 11C18.7761 11 19 11.2239 19 11.5V12V13V14V15V16V17V18ZM13 14H13.5C13.7761 14 14 14.2239 14 14.5V15V16V17V18V18.5C14 18.7761 13.7761 19 13.5 19H13H12H11H10.5C10.2239 19 10 18.7761 10 18.5V18V17V16V15V14.5C10 14.2239 10.2239 14 10.5 14H11H12H13Z" fill="black"/>
</svg>
