<svg width="24" height="24" viewBox="0 0 24 24" fill="none" xmlns="http://www.w3.org/2000/svg">
<path fill-rule="evenodd" clip-rule="evenodd" d="M18 4.5C18 4.22386 18.2239 4 18.5 4C18.7761 4 19 4.22386 19 4.5C19 4.77614 19.2239 5 19.5 5C19.7761 5 20 5.22386 20 5.5C20 5.77614 20.2239 6 20.5 6C20.7761 6 21 6.22386 21 6.5C21 6.77614 21.2239 7 21.5 7C21.7761 7 22 7.22386 22 7.5V8V8.5C22 8.77614 21.7761 9 21.5 9C21.2239 9 21 9.22386 21 9.5C21 9.77614 20.7761 10 20.5 10C20.2239 10 20 10.2239 20 10.5C20 10.7761 19.7761 11 19.5 11C19.2239 11 19 11.2239 19 11.5C19 11.7761 18.7761 12 18.5 12H18H17.5C17.2239 12 17 11.7761 17 11.5C17 11.2239 16.7761 11 16.5 11C16.2239 11 16 10.7761 16 10.5C16 10.2239 15.7761 10 15.5 10C15.2239 10 15 10.2239 15 10.5C15 10.7761 14.7761 11 14.5 11C14.2239 11 14 11.2239 14 11.5C14 11.7761 13.7761 12 13.5 12C13.2239 12 13 12.2239 13 12.5C13 12.7761 12.7761 13 12.5 13C12.2239 13 12 13.2239 12 13.5C12 13.7761 12.2239 14 12.5 14C12.7761 14 13 14.2239 13 14.5V15V16V17V17.5C13 17.7761 12.7761 18 12.5 18C12.2239 18 12 18.2239 12 18.5C12 18.7761 11.7761 19 11.5 19C11.2239 19 11 19.2239 11 19.5C11 19.7761 10.7761 20 10.5 20C10.2239 20 10 20.2239 10 20.5C10 20.7761 9.77614 21 9.5 21H9H8H7H6.5C6.22386 21 6 20.7761 6 20.5C6 20.2239 5.77614 20 5.5 20C5.22386 20 5 19.7761 5 19.5C5 19.2239 4.77614 19 4.5 19C4.22386 19 4 18.7761 4 18.5C4 18.2239 3.77614 18 3.5 18C3.22386 18 3 17.7761 3 17.5V17V16V15V14.5C3 14.2239 3.22386 14 3.5 14C3.77614 14 4 13.7761 4 13.5C4 13.2239 4.22386 13 4.5 13C4.77614 13 5 12.7761 5 12.5C5 12.2239 5.22386 12 5.5 12C5.77614 12 6 11.7761 6 11.5C6 11.2239 6.22386 11 6.5 11H7H8H9H9.5C9.77614 11 10 11.2239 10 11.5C10 11.7761 10.2239 12 10.5 12C10.7761 12 11 11.7761 11 11.5C11 11.2239 11.2239 11 11.5 11C11.7761 11 12 10.7761 12 10.5C12 10.2239 12.2239 10 12.5 10C12.7761 10 13 9.77614 13 9.5C13 9.22386 13.2239 9 13.5 9C13.7761 9 14 8.77614 14 8.5C14 8.22386 14.2239 8 14.5 8C14.7761 8 15 7.77614 15 7.5C15 7.22386 15.2239 7 15.5 7C15.7761 7 16 6.77614 16 6.5C16 6.22386 16.2239 6 16.5 6C16.7761 6 17 5.77614 17 5.5C17 5.22386 17.2239 5 17.5 5C17.7761 5 18 4.77614 18 4.5ZM7 18.5C7 18.7761 7.22386 19 7.5 19H8H8.5C8.77614 19 9 18.7761 9 18.5C9 18.2239 9.22386 18 9.5 18C9.77614 18 10 17.7761 10 17.5C10 17.2239 10.2239 17 10.5 17C10.7761 17 11 16.7761 11 16.5V16V15.5C11 15.2239 10.7761 15 10.5 15C10.2239 15 10 14.7761 10 14.5C10 14.2239 9.77614 14 9.5 14C9.22386 14 9 13.7761 9 13.5C9 13.2239 8.77614 13 8.5 13H8H7.5C7.22386 13 7 13.2239 7 13.5C7 13.7761 6.77614 14 6.5 14C6.22386 14 6 14.2239 6 14.5C6 14.7761 5.77614 15 5.5 15C5.22386 15 5 15.2239 5 15.5V16V16.5C5 16.7761 5.22386 17 5.5 17C5.77614 17 6 17.2239 6 17.5C6 17.7761 6.22386 18 6.5 18C6.77614 18 7 18.2239 7 18.5ZM19 9.5C19 9.77614 18.7761 10 18.5 10C18.2239 10 18 9.77614 18 9.5C18 9.22386 17.7761 9 17.5 9C17.2239 9 17 8.77614 17 8.5C17 8.22386 17.2239 8 17.5 8C17.7761 8 18 7.77614 18 7.5C18 7.22386 18.2239 7 18.5 7C18.7761 7 19 7.22386 19 7.5C19 7.77614 19.2239 8 19.5 8C19.7761 8 20 8.22386 20 8.5C20 8.77614 19.7761 9 19.5 9C19.2239 9 19 9.22386 19 9.5Z" fill="black"/>
</svg>
