<svg width="24" height="24" viewBox="0 0 24 24" fill="none" xmlns="http://www.w3.org/2000/svg">
<path fill-rule="evenodd" clip-rule="evenodd" d="M13 5.5C13 5.22386 12.7761 5 12.5 5H12H11.5C11.2239 5 11 5.22386 11 5.5C11 5.77614 10.7761 6 10.5 6H10H9.5C9.22386 6 9 6.22386 9 6.5C9 6.77614 8.77614 7 8.5 7H8H7.5C7.22386 7 7 7.22386 7 7.5V8V8.5C7 8.77614 7.22386 9 7.5 9H8H8.5C8.77614 9 9 9.22386 9 9.5C9 9.77614 9.22386 10 9.5 10H10H10.5C10.7761 10 11 10.2239 11 10.5C11 10.7761 11.2239 11 11.5 11H12H12.5C12.7761 11 13 10.7761 13 10.5C13 10.2239 13.2239 10 13.5 10H14H14.5C14.7761 10 15 9.77614 15 9.5C15 9.22386 15.2239 9 15.5 9H16H16.5C16.7761 9 17 8.77614 17 8.5V8V7.5C17 7.22386 16.7761 7 16.5 7H16H15.5C15.2239 7 15 6.77614 15 6.5C15 6.22386 14.7761 6 14.5 6H14H13.5C13.2239 6 13 5.77614 13 5.5ZM21 7.5C21 7.22386 20.7761 7 20.5 7C20.2239 7 20 6.77614 20 6.5C20 6.22386 19.7761 6 19.5 6H19H18.5C18.2239 6 18 5.77614 18 5.5C18 5.22386 17.7761 5 17.5 5H17H16.5C16.2239 5 16 4.77614 16 4.5C16 4.22386 15.7761 4 15.5 4H15H14.5C14.2239 4 14 3.77614 14 3.5C14 3.22386 13.7761 3 13.5 3H13H12H11H10.5C10.2239 3 10 3.22386 10 3.5C10 3.77614 9.77614 4 9.5 4H9H8.5C8.22386 4 8 4.22386 8 4.5C8 4.77614 7.77614 5 7.5 5H7H6.5C6.22386 5 6 5.22386 6 5.5C6 5.77614 5.77614 6 5.5 6H5H4.5C4.22386 6 4 6.22386 4 6.5C4 6.77614 3.77614 7 3.5 7C3.22386 7 3 7.22386 3 7.5V8V8.5C3 8.77614 3.22386 9 3.5 9C3.77614 9 4 9.22386 4 9.5C4 9.77614 4.22386 10 4.5 10H5H5.5C5.77614 10 6 10.2239 6 10.5C6 10.7761 6.22386 11 6.5 11H7H7.5C7.77614 11 8 11.2239 8 11.5C8 11.7761 8.22386 12 8.5 12H9H9.5C9.77614 12 10 12.2239 10 12.5C10 12.7761 10.2239 13 10.5 13H11H12H13H13.5C13.7761 13 14 12.7761 14 12.5C14 12.2239 14.2239 12 14.5 12H15H15.5C15.7761 12 16 11.7761 16 11.5C16 11.2239 16.2239 11 16.5 11H17H17.5C17.7761 11 18 10.7761 18 10.5C18 10.2239 18.2239 10 18.5 10H19H19.5C19.7761 10 20 9.77614 20 9.5C20 9.22386 20.2239 9 20.5 9C20.7761 9 21 8.77614 21 8.5V8V7.5ZM13 14.5C13 14.7761 12.7761 15 12.5 15H12H11.5C11.2239 15 11 14.7761 11 14.5C11 14.2239 10.7761 14 10.5 14H10H9.5C9.22386 14 9 13.7761 9 13.5C9 13.2239 8.77614 13 8.5 13H8H7.5C7.22386 13 7 12.7761 7 12.5C7 12.2239 6.77614 12 6.5 12H6H5.5C5.22386 12 5 11.7761 5 11.5C5 11.2239 4.77614 11 4.5 11H4H3.5C3.22386 11 3 11.2239 3 11.5V12V12.5C3 12.7761 3.22386 13 3.5 13C3.77614 13 4 13.2239 4 13.5C4 13.7761 4.22386 14 4.5 14H5H5.5C5.77614 14 6 14.2239 6 14.5C6 14.7761 6.22386 15 6.5 15H7H7.5C7.77614 15 8 15.2239 8 15.5C8 15.7761 8.22386 16 8.5 16H9H9.5C9.77614 16 10 16.2239 10 16.5C10 16.7761 10.2239 17 10.5 17H11H12H13H13.5C13.7761 17 14 16.7761 14 16.5C14 16.2239 14.2239 16 14.5 16H15H15.5C15.7761 16 16 15.7761 16 15.5C16 15.2239 16.2239 15 16.5 15H17H17.5C17.7761 15 18 14.7761 18 14.5C18 14.2239 18.2239 14 18.5 14H19H19.5C19.7761 14 20 13.7761 20 13.5C20 13.2239 20.2239 13 20.5 13C20.7761 13 21 12.7761 21 12.5V12V11.5C21 11.2239 20.7761 11 20.5 11H20H19.5C19.2239 11 19 11.2239 19 11.5C19 11.7761 18.7761 12 18.5 12H18H17.5C17.2239 12 17 12.2239 17 12.5C17 12.7761 16.7761 13 16.5 13H16H15.5C15.2239 13 15 13.2239 15 13.5C15 13.7761 14.7761 14 14.5 14H14H13.5C13.2239 14 13 14.2239 13 14.5ZM13 18.5C13 18.7761 12.7761 19 12.5 19H12H11.5C11.2239 19 11 18.7761 11 18.5C11 18.2239 10.7761 18 10.5 18H10H9.5C9.22386 18 9 17.7761 9 17.5C9 17.2239 8.77614 17 8.5 17H8H7.5C7.22386 17 7 16.7761 7 16.5C7 16.2239 6.77614 16 6.5 16H6H5.5C5.22386 16 5 15.7761 5 15.5C5 15.2239 4.77614 15 4.5 15H4H3.5C3.22386 15 3 15.2239 3 15.5V16V16.5C3 16.7761 3.22386 17 3.5 17C3.77614 17 4 17.2239 4 17.5C4 17.7761 4.22386 18 4.5 18H5H5.5C5.77614 18 6 18.2239 6 18.5C6 18.7761 6.22386 19 6.5 19H7H7.5C7.77614 19 8 19.2239 8 19.5C8 19.7761 8.22386 20 8.5 20H9H9.5C9.77614 20 10 20.2239 10 20.5C10 20.7761 10.2239 21 10.5 21H11H12H13H13.5C13.7761 21 14 20.7761 14 20.5C14 20.2239 14.2239 20 14.5 20H15H15.5C15.7761 20 16 19.7761 16 19.5C16 19.2239 16.2239 19 16.5 19H17H17.5C17.7761 19 18 18.7761 18 18.5C18 18.2239 18.2239 18 18.5 18H19H19.5C19.7761 18 20 17.7761 20 17.5C20 17.2239 20.2239 17 20.5 17C20.7761 17 21 16.7761 21 16.5V16V15.5C21 15.2239 20.7761 15 20.5 15H20H19.5C19.2239 15 19 15.2239 19 15.5C19 15.7761 18.7761 16 18.5 16H18H17.5C17.2239 16 17 16.2239 17 16.5C17 16.7761 16.7761 17 16.5 17H16H15.5C15.2239 17 15 17.2239 15 17.5C15 17.7761 14.7761 18 14.5 18H14H13.5C13.2239 18 13 18.2239 13 18.5Z" fill="black"/>
</svg>
