<svg width="24" height="24" viewBox="0 0 24 24" fill="none" xmlns="http://www.w3.org/2000/svg">
<path fill-rule="evenodd" clip-rule="evenodd" d="M18 3.5C18 3.22386 17.7761 3 17.5 3H17H16H15H14.5C14.2239 3 14 3.22386 14 3.5C14 3.77614 13.7761 4 13.5 4C13.2239 4 13 4.22386 13 4.5V5V5.5C13 5.77614 13.2239 6 13.5 6H14H14.5C14.7761 6 15 5.77614 15 5.5C15 5.22386 15.2239 5 15.5 5H16H16.5C16.7761 5 17 5.22386 17 5.5C17 5.77614 17.2239 6 17.5 6C17.7761 6 18 6.22386 18 6.5C18 6.77614 18.2239 7 18.5 7C18.7761 7 19 7.22386 19 7.5V8V9V9.5C19 9.77614 18.7761 10 18.5 10C18.2239 10 18 10.2239 18 10.5C18 10.7761 17.7761 11 17.5 11C17.2239 11 17 11.2239 17 11.5C17 11.7761 16.7761 12 16.5 12C16.2239 12 16 12.2239 16 12.5C16 12.7761 15.7761 13 15.5 13C15.2239 13 15 13.2239 15 13.5C15 13.7761 14.7761 14 14.5 14C14.2239 14 14 14.2239 14 14.5C14 14.7761 13.7761 15 13.5 15C13.2239 15 13 14.7761 13 14.5C13 14.2239 12.7761 14 12.5 14C12.2239 14 12 13.7761 12 13.5C12 13.2239 11.7761 13 11.5 13H11H10.5C10.2239 13 10 13.2239 10 13.5V14V14.5C10 14.7761 10.2239 15 10.5 15C10.7761 15 11 15.2239 11 15.5C11 15.7761 11.2239 16 11.5 16C11.7761 16 12 16.2239 12 16.5C12 16.7761 12.2239 17 12.5 17H13H14H14.5C14.7761 17 15 16.7761 15 16.5C15 16.2239 15.2239 16 15.5 16C15.7761 16 16 15.7761 16 15.5C16 15.2239 16.2239 15 16.5 15C16.7761 15 17 14.7761 17 14.5C17 14.2239 17.2239 14 17.5 14C17.7761 14 18 13.7761 18 13.5C18 13.2239 18.2239 13 18.5 13C18.7761 13 19 12.7761 19 12.5C19 12.2239 19.2239 12 19.5 12C19.7761 12 20 11.7761 20 11.5C20 11.2239 20.2239 11 20.5 11C20.7761 11 21 10.7761 21 10.5V10V9V8V7V6.5C21 6.22386 20.7761 6 20.5 6C20.2239 6 20 5.77614 20 5.5C20 5.22386 19.7761 5 19.5 5C19.2239 5 19 4.77614 19 4.5C19 4.22386 18.7761 4 18.5 4C18.2239 4 18 3.77614 18 3.5ZM10.5 20C10.2239 20 10 20.2239 10 20.5C10 20.7761 9.77614 21 9.5 21H9H8H7H6.5C6.22386 21 6 20.7761 6 20.5C6 20.2239 5.77614 20 5.5 20C5.22386 20 5 19.7761 5 19.5C5 19.2239 4.77614 19 4.5 19C4.22386 19 4 18.7761 4 18.5C4 18.2239 3.77614 18 3.5 18C3.22386 18 3 17.7761 3 17.5V17V16V15V14V13.5C3 13.2239 3.22386 13 3.5 13C3.77614 13 4 12.7761 4 12.5C4 12.2239 4.22386 12 4.5 12C4.77614 12 5 11.7761 5 11.5C5 11.2239 5.22386 11 5.5 11C5.77614 11 6 10.7761 6 10.5C6 10.2239 6.22386 10 6.5 10C6.77614 10 7 9.77614 7 9.5C7 9.22386 7.22386 9 7.5 9C7.77614 9 8 8.77614 8 8.5C8 8.22386 8.22386 8 8.5 8C8.77614 8 9 7.77614 9 7.5C9 7.22386 9.22386 7 9.5 7H10H11H11.5C11.7761 7 12 7.22386 12 7.5C12 7.77614 12.2239 8 12.5 8C12.7761 8 13 8.22386 13 8.5C13 8.77614 13.2239 9 13.5 9C13.7761 9 14 9.22386 14 9.5V10V10.5C14 10.7761 13.7761 11 13.5 11H13H12.5C12.2239 11 12 10.7761 12 10.5C12 10.2239 11.7761 10 11.5 10C11.2239 10 11 9.77614 11 9.5C11 9.22386 10.7761 9 10.5 9C10.2239 9 10 9.22386 10 9.5C10 9.77614 9.77614 10 9.5 10C9.22386 10 9 10.2239 9 10.5C9 10.7761 8.77614 11 8.5 11C8.22386 11 8 11.2239 8 11.5C8 11.7761 7.77614 12 7.5 12C7.22386 12 7 12.2239 7 12.5C7 12.7761 6.77614 13 6.5 13C6.22386 13 6 13.2239 6 13.5C6 13.7761 5.77614 14 5.5 14C5.22386 14 5 14.2239 5 14.5V15V16V16.5C5 16.7761 5.22386 17 5.5 17C5.77614 17 6 17.2239 6 17.5C6 17.7761 6.22386 18 6.5 18C6.77614 18 7 18.2239 7 18.5C7 18.7761 7.22386 19 7.5 19H8H8.5C8.77614 19 9 18.7761 9 18.5C9 18.2239 9.22386 18 9.5 18H10H10.5C10.7761 18 11 18.2239 11 18.5V19V19.5C11 19.7761 10.7761 20 10.5 20Z" fill="black"/>
</svg>
