<svg width="24" height="24" viewBox="0 0 24 24" fill="none" xmlns="http://www.w3.org/2000/svg">
<path fill-rule="evenodd" clip-rule="evenodd" d="M4 5H3.5C3.22386 5 3 5.22386 3 5.5V6V6.5C3 6.77614 3.22386 7 3.5 7H4H4.5C4.77614 7 5 6.77614 5 6.5V6V5.5C5 5.22386 4.77614 5 4.5 5H4ZM8 5H7.5C7.22386 5 7 5.22386 7 5.5V6V6.5C7 6.77614 7.22386 7 7.5 7H8H9H10H11H12H13H14H15H16H17H18H19H20H20.5C20.7761 7 21 6.77614 21 6.5V6V5.5C21 5.22386 20.7761 5 20.5 5H20H19H18H17H16H15H14H13H12H11H10H9H8ZM19 11H20H20.5C20.7761 11 21 11.2239 21 11.5V12V12.5C21 12.7761 20.7761 13 20.5 13H20H19H18H17H16H15H14H13H12H11H10H9H8H7.5C7.22386 13 7 12.7761 7 12.5V12V11.5C7 11.2239 7.22386 11 7.5 11H8H9H10H11H12H13H14H15H16H17H18H19ZM20 17H19H18H17H16H15H14H13H12H11H10H9H8H7.5C7.22386 17 7 17.2239 7 17.5V18V18.5C7 18.7761 7.22386 19 7.5 19H8H9H10H11H12H13H14H15H16H17H18H19H20H20.5C20.7761 19 21 18.7761 21 18.5V18V17.5C21 17.2239 20.7761 17 20.5 17H20ZM3 17.5C3 17.2239 3.22386 17 3.5 17H4H4.5C4.77614 17 5 17.2239 5 17.5V18V18.5C5 18.7761 4.77614 19 4.5 19H4H3.5C3.22386 19 3 18.7761 3 18.5V18V17.5ZM4 11H3.5C3.22386 11 3 11.2239 3 11.5V12V12.5C3 12.7761 3.22386 13 3.5 13H4H4.5C4.77614 13 5 12.7761 5 12.5V12V11.5C5 11.2239 4.77614 11 4.5 11H4Z" fill="black"/>
</svg>
