<svg width="24" height="24" viewBox="0 0 24 24" fill="none" xmlns="http://www.w3.org/2000/svg">
<path fill-rule="evenodd" clip-rule="evenodd" d="M12 2H12.5C12.7761 2 13 2.22386 13 2.5V3V4V5V6V6.5C13 6.77614 12.7761 7 12.5 7H12H11.5C11.2239 7 11 6.77614 11 6.5V6V5V4V3V2.5C11 2.22386 11.2239 2 11.5 2H12ZM18 4.5C18 4.22386 18.2239 4 18.5 4H19H19.5C19.7761 4 20 4.22386 20 4.5V5V5.5C20 5.77614 19.7761 6 19.5 6C19.2239 6 19 6.22386 19 6.5C19 6.77614 18.7761 7 18.5 7C18.2239 7 18 7.22386 18 7.5C18 7.77614 17.7761 8 17.5 8C17.2239 8 17 8.22386 17 8.5C17 8.77614 16.7761 9 16.5 9H16H15.5C15.2239 9 15 8.77614 15 8.5V8V7.5C15 7.22386 15.2239 7 15.5 7C15.7761 7 16 6.77614 16 6.5C16 6.22386 16.2239 6 16.5 6C16.7761 6 17 5.77614 17 5.5C17 5.22386 17.2239 5 17.5 5C17.7761 5 18 4.77614 18 4.5ZM3 11H2.5C2.22386 11 2 11.2239 2 11.5V12V12.5C2 12.7761 2.22386 13 2.5 13H3H4H5H6H6.5C6.77614 13 7 12.7761 7 12.5V12V11.5C7 11.2239 6.77614 11 6.5 11H6H5H4H3ZM18 11H17.5C17.2239 11 17 11.2239 17 11.5V12V12.5C17 12.7761 17.2239 13 17.5 13H18H19H20H21H21.5C21.7761 13 22 12.7761 22 12.5V12V11.5C22 11.2239 21.7761 11 21.5 11H21H20H19H18ZM7.5 18C7.22386 18 7 18.2239 7 18.5C7 18.7761 6.77614 19 6.5 19C6.22386 19 6 19.2239 6 19.5C6 19.7761 5.77614 20 5.5 20H5H4.5C4.22386 20 4 19.7761 4 19.5V19V18.5C4 18.2239 4.22386 18 4.5 18C4.77614 18 5 17.7761 5 17.5C5 17.2239 5.22386 17 5.5 17C5.77614 17 6 16.7761 6 16.5C6 16.2239 6.22386 16 6.5 16C6.77614 16 7 15.7761 7 15.5C7 15.2239 7.22386 15 7.5 15H8H8.5C8.77614 15 9 15.2239 9 15.5V16V16.5C9 16.7761 8.77614 17 8.5 17C8.22386 17 8 17.2239 8 17.5C8 17.7761 7.77614 18 7.5 18ZM12.5 22C12.7761 22 13 21.7761 13 21.5V21V20V19V18V17.5C13 17.2239 12.7761 17 12.5 17H12H11.5C11.2239 17 11 17.2239 11 17.5V18V19V20V21V21.5C11 21.7761 11.2239 22 11.5 22H12H12.5ZM8 6.5C8 6.77614 8.22386 7 8.5 7C8.77614 7 9 7.22386 9 7.5V8V8.5C9 8.77614 8.77614 9 8.5 9H8H7.5C7.22386 9 7 8.77614 7 8.5C7 8.22386 6.77614 8 6.5 8C6.22386 8 6 7.77614 6 7.5C6 7.22386 5.77614 7 5.5 7C5.22386 7 5 6.77614 5 6.5C5 6.22386 4.77614 6 4.5 6C4.22386 6 4 5.77614 4 5.5V5V4.5C4 4.22386 4.22386 4 4.5 4H5H5.5C5.77614 4 6 4.22386 6 4.5C6 4.77614 6.22386 5 6.5 5C6.77614 5 7 5.22386 7 5.5C7 5.77614 7.22386 6 7.5 6C7.77614 6 8 6.22386 8 6.5ZM20 18.5C20 18.2239 19.7761 18 19.5 18C19.2239 18 19 17.7761 19 17.5C19 17.2239 18.7761 17 18.5 17C18.2239 17 18 16.7761 18 16.5C18 16.2239 17.7761 16 17.5 16C17.2239 16 17 15.7761 17 15.5C17 15.2239 16.7761 15 16.5 15H16H15.5C15.2239 15 15 15.2239 15 15.5V16V16.5C15 16.7761 15.2239 17 15.5 17C15.7761 17 16 17.2239 16 17.5C16 17.7761 16.2239 18 16.5 18C16.7761 18 17 18.2239 17 18.5C17 18.7761 17.2239 19 17.5 19C17.7761 19 18 19.2239 18 19.5C18 19.7761 18.2239 20 18.5 20H19H19.5C19.7761 20 20 19.7761 20 19.5V19V18.5Z" fill="black"/>
</svg>
