<svg width="24" height="24" viewBox="0 0 24 24" fill="none" xmlns="http://www.w3.org/2000/svg">
<path fill-rule="evenodd" clip-rule="evenodd" d="M15 3H15.5C15.7761 3 16 3.22386 16 3.5C16 3.77614 16.2239 4 16.5 4H17H17.5C17.7761 4 18 4.22386 18 4.5V5V5.5C18 5.77614 18.2239 6 18.5 6C18.7761 6 19 6.22386 19 6.5V7V8V9V10V11V11.5C19 11.7761 18.7761 12 18.5 12C18.2239 12 18 12.2239 18 12.5V13V13.5C18 13.7761 17.7761 14 17.5 14C17.2239 14 17 14.2239 17 14.5V15V15.5C17 15.7761 16.7761 16 16.5 16C16.2239 16 16 16.2239 16 16.5V17V17.5C16 17.7761 15.7761 18 15.5 18C15.2239 18 15 18.2239 15 18.5V19V19.5C15 19.7761 14.7761 20 14.5 20C14.2239 20 14 20.2239 14 20.5C14 20.7761 13.7761 21 13.5 21C13.2239 21 13 21.2239 13 21.5C13 21.7761 12.7761 22 12.5 22H12H11.5C11.2239 22 11 21.7761 11 21.5C11 21.2239 10.7761 21 10.5 21C10.2239 21 10 20.7761 10 20.5C10 20.2239 9.77614 20 9.5 20C9.22386 20 9 19.7761 9 19.5V19V18.5C9 18.2239 8.77614 18 8.5 18C8.22386 18 8 17.7761 8 17.5V17V16.5C8 16.2239 7.77614 16 7.5 16C7.22386 16 7 15.7761 7 15.5V15V14.5C7 14.2239 6.77614 14 6.5 14C6.22386 14 6 13.7761 6 13.5V13V12.5C6 12.2239 5.77614 12 5.5 12C5.22386 12 5 11.7761 5 11.5V11V10V9V8V7V6.5C5 6.22386 5.22386 6 5.5 6C5.77614 6 6 5.77614 6 5.5V5V4.5C6 4.22386 6.22386 4 6.5 4H7H7.5C7.77614 4 8 3.77614 8 3.5C8 3.22386 8.22386 3 8.5 3H9H9.5C9.77614 3 10 2.77614 10 2.5C10 2.22386 10.2239 2 10.5 2H11H12H13H13.5C13.7761 2 14 2.22386 14 2.5C14 2.77614 14.2239 3 14.5 3H15ZM16 6.5C16 6.22386 15.7761 6 15.5 6H15H14.5C14.2239 6 14 5.77614 14 5.5C14 5.22386 13.7761 5 13.5 5H13H12H11H10.5C10.2239 5 10 5.22386 10 5.5C10 5.77614 9.77614 6 9.5 6H9H8.5C8.22386 6 8 6.22386 8 6.5V7V7.5C8 7.77614 7.77614 8 7.5 8C7.22386 8 7 8.22386 7 8.5V9V10V10.5C7 10.7761 7.22386 11 7.5 11C7.77614 11 8 11.2239 8 11.5V12V12.5C8 12.7761 8.22386 13 8.5 13C8.77614 13 9 13.2239 9 13.5V14V14.5C9 14.7761 9.22386 15 9.5 15C9.77614 15 10 15.2239 10 15.5V16V16.5C10 16.7761 10.2239 17 10.5 17C10.7761 17 11 17.2239 11 17.5V18V18.5C11 18.7761 11.2239 19 11.5 19H12H12.5C12.7761 19 13 18.7761 13 18.5V18V17.5C13 17.2239 13.2239 17 13.5 17C13.7761 17 14 16.7761 14 16.5V16V15.5C14 15.2239 14.2239 15 14.5 15C14.7761 15 15 14.7761 15 14.5V14V13.5C15 13.2239 15.2239 13 15.5 13C15.7761 13 16 12.7761 16 12.5V12V11.5C16 11.2239 16.2239 11 16.5 11C16.7761 11 17 10.7761 17 10.5V10V9V8.5C17 8.22386 16.7761 8 16.5 8C16.2239 8 16 7.77614 16 7.5V7V6.5ZM12 7H11H10.5C10.2239 7 10 7.22386 10 7.5C10 7.77614 9.77614 8 9.5 8C9.22386 8 9 8.22386 9 8.5V9V10V11V11.5C9 11.7761 9.22386 12 9.5 12C9.77614 12 10 12.2239 10 12.5C10 12.7761 10.2239 13 10.5 13H11H12H13H13.5C13.7761 13 14 12.7761 14 12.5C14 12.2239 14.2239 12 14.5 12C14.7761 12 15 11.7761 15 11.5V11V10V9V8.5C15 8.22386 14.7761 8 14.5 8C14.2239 8 14 7.77614 14 7.5C14 7.22386 13.7761 7 13.5 7H13H12ZM11.5 11C11.2239 11 11 10.7761 11 10.5V10V9.5C11 9.22386 11.2239 9 11.5 9H12H12.5C12.7761 9 13 9.22386 13 9.5V10V10.5C13 10.7761 12.7761 11 12.5 11H12H11.5Z" fill="black"/>
</svg>
