<svg width="24" height="24" viewBox="0 0 24 24" fill="none" xmlns="http://www.w3.org/2000/svg">
<path fill-rule="evenodd" clip-rule="evenodd" d="M4 3H3.5C3.22386 3 3 3.22386 3 3.5V4V5V6V7V8V9V10V11V12V13V14V15V16V17V18V19V20V20.5C3 20.7761 3.22386 21 3.5 21H4H4.5C4.77614 21 5 20.7761 5 20.5C5 20.2239 5.22386 20 5.5 20C5.77614 20 6 19.7761 6 19.5C6 19.2239 6.22386 19 6.5 19C6.77614 19 7 18.7761 7 18.5C7 18.2239 7.22386 18 7.5 18C7.77614 18 8 17.7761 8 17.5C8 17.2239 8.22386 17 8.5 17C8.77614 17 9 16.7761 9 16.5C9 16.2239 9.22386 16 9.5 16H10H11H12H13H14H15H16H17H18H19H20H20.5C20.7761 16 21 15.7761 21 15.5V15V14V13V12V11V10V9V8V7V6V5V4V3.5C21 3.22386 20.7761 3 20.5 3H20H19H18H17H16H15H14H13H12H11H10H9H8H7H6H5H4ZM18 5H18.5C18.7761 5 19 5.22386 19 5.5V6V7V8V9V10V11V12V13V13.5C19 13.7761 18.7761 14 18.5 14H18H17H16H15H14H13H12H11H10H9H8.5C8.22386 14 8 14.2239 8 14.5C8 14.7761 7.77614 15 7.5 15C7.22386 15 7 15.2239 7 15.5C7 15.7761 6.77614 16 6.5 16C6.22386 16 6 16.2239 6 16.5C6 16.7761 5.77614 17 5.5 17C5.22386 17 5 16.7761 5 16.5V16V15V14V13V12V11V10V9V8V7V6V5.5C5 5.22386 5.22386 5 5.5 5H6H7H8H9H10H11H12H13H14H15H16H17H18Z" fill="black"/>
</svg>
