<svg width="24" height="24" viewBox="0 0 24 24" fill="none" xmlns="http://www.w3.org/2000/svg">
<path fill-rule="evenodd" clip-rule="evenodd" d="M3 3.5C3 3.22386 3.22386 3 3.5 3H4H5H6H7H8H9H10H11H12H13H14H15H16H17H18H19H20H20.5C20.7761 3 21 3.22386 21 3.5V4V5V6V7V8V9V10V11V12V13V14V15V16V17V18V19V20V20.5C21 20.7761 20.7761 21 20.5 21H20H19H18H17H16H15H14H13H12H11H10H9H8H7H6H5H4H3.5C3.22386 21 3 20.7761 3 20.5V20V19V18V17V16V15V14V13V12V11V10V9V8V7V6V5V4V3.5ZM6 19H7H8H9H10H11H12H13H14H15H16H17H18H18.5C18.7761 19 19 18.7761 19 18.5V18V17V16V15V14V13V12V11V10V9V8V7V6V5.5C19 5.22386 18.7761 5 18.5 5H18H17H16H15H14H13H12H11H10H9H8H7H6H5.5C5.22386 5 5 5.22386 5 5.5V6V7V8V9V10V11V12V13V14V15V16V17V18V18.5C5 18.7761 5.22386 19 5.5 19H6ZM9 11H10H11H12H13H14H15H15.5C15.7761 11 16 11.2239 16 11.5V12V12.5C16 12.7761 15.7761 13 15.5 13H15H14H13H12H11H10H9H8.5C8.22386 13 8 12.7761 8 12.5V12V11.5C8 11.2239 8.22386 11 8.5 11H9Z" fill="black"/>
</svg>
