<svg width="24" height="24" viewBox="0 0 24 24" fill="none" xmlns="http://www.w3.org/2000/svg">
<path fill-rule="evenodd" clip-rule="evenodd" d="M12 4H11.5C11.2239 4 11 4.22386 11 4.5C11 4.77614 10.7761 5 10.5 5C10.2239 5 10 5.22386 10 5.5V6V6.5C10 6.77614 10.2239 7 10.5 7C10.7761 7 11 7.22386 11 7.5C11 7.77614 11.2239 8 11.5 8H12H12.5C12.7761 8 13 7.77614 13 7.5C13 7.22386 13.2239 7 13.5 7C13.7761 7 14 6.77614 14 6.5V6V5.5C14 5.22386 13.7761 5 13.5 5C13.2239 5 13 4.77614 13 4.5C13 4.22386 12.7761 4 12.5 4H12ZM11.5 10C11.2239 10 11 10.2239 11 10.5C11 10.7761 10.7761 11 10.5 11C10.2239 11 10 11.2239 10 11.5V12V12.5C10 12.7761 10.2239 13 10.5 13C10.7761 13 11 13.2239 11 13.5C11 13.7761 11.2239 14 11.5 14H12H12.5C12.7761 14 13 13.7761 13 13.5C13 13.2239 13.2239 13 13.5 13C13.7761 13 14 12.7761 14 12.5V12V11.5C14 11.2239 13.7761 11 13.5 11C13.2239 11 13 10.7761 13 10.5C13 10.2239 12.7761 10 12.5 10H12H11.5ZM10.5 17C10.7761 17 11 16.7761 11 16.5C11 16.2239 11.2239 16 11.5 16H12H12.5C12.7761 16 13 16.2239 13 16.5C13 16.7761 13.2239 17 13.5 17C13.7761 17 14 17.2239 14 17.5V18V18.5C14 18.7761 13.7761 19 13.5 19C13.2239 19 13 19.2239 13 19.5C13 19.7761 12.7761 20 12.5 20H12H11.5C11.2239 20 11 19.7761 11 19.5C11 19.2239 10.7761 19 10.5 19C10.2239 19 10 18.7761 10 18.5V18V17.5C10 17.2239 10.2239 17 10.5 17Z" fill="black"/>
</svg>
