<svg width="24" height="24" viewBox="0 0 24 24" fill="none" xmlns="http://www.w3.org/2000/svg">
<path fill-rule="evenodd" clip-rule="evenodd" d="M13.5 4C13.2239 4 13 3.77614 13 3.5C13 3.22386 12.7761 3 12.5 3H12H11.5C11.2239 3 11 3.22386 11 3.5C11 3.77614 10.7761 4 10.5 4C10.2239 4 10 4.22386 10 4.5C10 4.77614 9.77614 5 9.5 5C9.22386 5 9 5.22386 9 5.5V6V6.5C9 6.77614 9.22386 7 9.5 7H10H10.5C10.7761 7 11 7.22386 11 7.5V8V9V10V10.5C11 10.7761 10.7761 11 10.5 11H10H9H8H7.5C7.22386 11 7 10.7761 7 10.5V10V9.5C7 9.22386 6.77614 9 6.5 9H6H5.5C5.22386 9 5 9.22386 5 9.5C5 9.77614 4.77614 10 4.5 10C4.22386 10 4 10.2239 4 10.5C4 10.7761 3.77614 11 3.5 11C3.22386 11 3 11.2239 3 11.5V12V12.5C3 12.7761 3.22386 13 3.5 13C3.77614 13 4 13.2239 4 13.5C4 13.7761 4.22386 14 4.5 14C4.77614 14 5 14.2239 5 14.5C5 14.7761 5.22386 15 5.5 15H6H6.5C6.77614 15 7 14.7761 7 14.5V14V13.5C7 13.2239 7.22386 13 7.5 13H8H9H10H10.5C10.7761 13 11 13.2239 11 13.5V14V15V16V16.5C11 16.7761 10.7761 17 10.5 17H10H9.5C9.22386 17 9 17.2239 9 17.5V18V18.5C9 18.7761 9.22386 19 9.5 19C9.77614 19 10 19.2239 10 19.5C10 19.7761 10.2239 20 10.5 20C10.7761 20 11 20.2239 11 20.5C11 20.7761 11.2239 21 11.5 21H12H12.5C12.7761 21 13 20.7761 13 20.5C13 20.2239 13.2239 20 13.5 20C13.7761 20 14 19.7761 14 19.5C14 19.2239 14.2239 19 14.5 19C14.7761 19 15 18.7761 15 18.5V18V17.5C15 17.2239 14.7761 17 14.5 17H14H13.5C13.2239 17 13 16.7761 13 16.5V16V15V14V13.5C13 13.2239 13.2239 13 13.5 13H14H15H16H16.5C16.7761 13 17 13.2239 17 13.5V14V14.5C17 14.7761 17.2239 15 17.5 15H18H18.5C18.7761 15 19 14.7761 19 14.5C19 14.2239 19.2239 14 19.5 14C19.7761 14 20 13.7761 20 13.5C20 13.2239 20.2239 13 20.5 13C20.7761 13 21 12.7761 21 12.5V12V11.5C21 11.2239 20.7761 11 20.5 11C20.2239 11 20 10.7761 20 10.5C20 10.2239 19.7761 10 19.5 10C19.2239 10 19 9.77614 19 9.5C19 9.22386 18.7761 9 18.5 9H18H17.5C17.2239 9 17 9.22386 17 9.5V10V10.5C17 10.7761 16.7761 11 16.5 11H16H15H14H13.5C13.2239 11 13 10.7761 13 10.5V10V9V8V7.5C13 7.22386 13.2239 7 13.5 7H14H14.5C14.7761 7 15 6.77614 15 6.5V6V5.5C15 5.22386 14.7761 5 14.5 5C14.2239 5 14 4.77614 14 4.5C14 4.22386 13.7761 4 13.5 4Z" fill="black"/>
</svg>
