<svg width="24" height="24" viewBox="0 0 24 24" fill="none" xmlns="http://www.w3.org/2000/svg">
<path fill-rule="evenodd" clip-rule="evenodd" d="M6 2H5.5C5.22386 2 5 2.22386 5 2.5V3V4V5V6V7V8V9V10V11V12V13V14V15V16V17V18V19V20V21V21.5C5 21.7761 5.22386 22 5.5 22H6H7H8H9H10H11H12H13H14H15H16H17H18H18.5C18.7761 22 19 21.7761 19 21.5V21V20V19V18V17V16V15V14V13V12V11V10V9V8V7V6.5C19 6.22386 18.7761 6 18.5 6H18H17.5C17.2239 6 17 6.22386 17 6.5V7V8V9V10V11V12V13V14V15V16V17V18V19V19.5C17 19.7761 16.7761 20 16.5 20H16H15H14H13H12H11H10H9H8H7.5C7.22386 20 7 19.7761 7 19.5V19V18V17V16V15V14V13V12V11V10V9V8V7V6V5V4.5C7 4.22386 7.22386 4 7.5 4H8H9H10H11H12H12.5C12.7761 4 13 4.22386 13 4.5V5V6V7V8V9V10V11V12V13V14V15V15.5C13 15.7761 12.7761 16 12.5 16H12H11.5C11.2239 16 11 15.7761 11 15.5V15V14V13V12V11V10V9V8V7V6.5C11 6.22386 10.7761 6 10.5 6H10H9.5C9.22386 6 9 6.22386 9 6.5V7V8V9V10V11V12V13V14V15V16V17V17.5C9 17.7761 9.22386 18 9.5 18H10H11H12H13H14H14.5C14.7761 18 15 17.7761 15 17.5V17V16V15V14V13V12V11V10V9V8V7V6V5V4V3V2.5C15 2.22386 14.7761 2 14.5 2H14H13H12H11H10H9H8H7H6Z" fill="black"/>
</svg>
