<svg width="24" height="24" viewBox="0 0 24 24" fill="none" xmlns="http://www.w3.org/2000/svg">
<path fill-rule="evenodd" clip-rule="evenodd" d="M12 5H11.5C11.2239 5 11 5.22386 11 5.5V6V7V8V9V10V10.5C11 10.7761 10.7761 11 10.5 11H10H9H8H7H6H5.5C5.22386 11 5 11.2239 5 11.5V12V12.5C5 12.7761 5.22386 13 5.5 13H6H7H8H9H10H10.5C10.7761 13 11 13.2239 11 13.5V14V15V16V17V18V18.5C11 18.7761 11.2239 19 11.5 19H12H12.5C12.7761 19 13 18.7761 13 18.5V18V17V16V15V14V13.5C13 13.2239 13.2239 13 13.5 13H14H15H16H17H18H18.5C18.7761 13 19 12.7761 19 12.5V12V11.5C19 11.2239 18.7761 11 18.5 11H18H17H16H15H14H13.5C13.2239 11 13 10.7761 13 10.5V10V9V8V7V6V5.5C13 5.22386 12.7761 5 12.5 5H12Z" fill="black"/>
</svg>
