<svg width="24" height="24" viewBox="0 0 24 24" fill="none" xmlns="http://www.w3.org/2000/svg">
<path fill-rule="evenodd" clip-rule="evenodd" d="M7 3H6.5C6.22386 3 6 3.22386 6 3.5V4V5V6V7V8V8.5C6 8.77614 5.77614 9 5.5 9H5H4H3.5C3.22386 9 3 9.22386 3 9.5V10V11V12V13V14V15V16V17V18V18.5C3 18.7761 3.22386 19 3.5 19H4H5H5.5C5.77614 19 6 19.2239 6 19.5V20V20.5C6 20.7761 6.22386 21 6.5 21H7H8H9H10H11H12H13H14H15H16H17H17.5C17.7761 21 18 20.7761 18 20.5V20V19.5C18 19.2239 18.2239 19 18.5 19H19H20H20.5C20.7761 19 21 18.7761 21 18.5V18V17V16V15V14V13V12V11V10V9.5C21 9.22386 20.7761 9 20.5 9H20H19H18.5C18.2239 9 18 8.77614 18 8.5V8V7V6V5V4V3.5C18 3.22386 17.7761 3 17.5 3H17H16H15H14H13H12H11H10H9H8H7ZM8 8V7V6V5.5C8 5.22386 8.22386 5 8.5 5H9H10H11H12H13H14H15H15.5C15.7761 5 16 5.22386 16 5.5V6V7V8V8.5C16 8.77614 15.7761 9 15.5 9H15H14H13H12H11H10H9H8.5C8.22386 9 8 8.77614 8 8.5V8ZM5.5 11C5.22386 11 5 11.2239 5 11.5V12V13V14V15V16V16.5C5 16.7761 5.22386 17 5.5 17C5.77614 17 6 16.7761 6 16.5V16V15V14V13.5C6 13.2239 6.22386 13 6.5 13H7H8H9H10H11H12H13H14H15H16H17H17.5C17.7761 13 18 13.2239 18 13.5V14V15V16V16.5C18 16.7761 18.2239 17 18.5 17C18.7761 17 19 16.7761 19 16.5V16V15V14V13V12V11.5C19 11.2239 18.7761 11 18.5 11H18H17H16H15H14H13H12H11H10H9H8H7H6H5.5ZM15.5 15C15.7761 15 16 15.2239 16 15.5V16V17V18V18.5C16 18.7761 15.7761 19 15.5 19H15H14H13H12H11H10H9H8.5C8.22386 19 8 18.7761 8 18.5V18V17V16V15.5C8 15.2239 8.22386 15 8.5 15H9H10H11H12H13H14H15H15.5Z" fill="black"/>
</svg>
