<svg width="24" height="24" viewBox="0 0 24 24" fill="none" xmlns="http://www.w3.org/2000/svg">
<path fill-rule="evenodd" clip-rule="evenodd" d="M15 3.5C15 3.22386 14.7761 3 14.5 3H14H13H12H11H10H9H8H7.5C7.22386 3 7 3.22386 7 3.5C7 3.77614 6.77614 4 6.5 4C6.22386 4 6 4.22386 6 4.5C6 4.77614 5.77614 5 5.5 5C5.22386 5 5 5.22386 5 5.5C5 5.77614 4.77614 6 4.5 6C4.22386 6 4 6.22386 4 6.5C4 6.77614 3.77614 7 3.5 7C3.22386 7 3 7.22386 3 7.5V8V9V9.5C3 9.77614 3.22386 10 3.5 10H4H4.5C4.77614 10 5 9.77614 5 9.5V9V8.5C5 8.22386 5.22386 8 5.5 8C5.77614 8 6 7.77614 6 7.5C6 7.22386 6.22386 7 6.5 7C6.77614 7 7 6.77614 7 6.5C7 6.22386 7.22386 6 7.5 6C7.77614 6 8 5.77614 8 5.5C8 5.22386 8.22386 5 8.5 5H9H10H11H12H13H13.5C13.7761 5 14 5.22386 14 5.5C14 5.77614 14.2239 6 14.5 6C14.7761 6 15 6.22386 15 6.5C15 6.77614 15.2239 7 15.5 7C15.7761 7 16 7.22386 16 7.5C16 7.77614 16.2239 8 16.5 8C16.7761 8 17 8.22386 17 8.5C17 8.77614 16.7761 9 16.5 9H16H15H14.5C14.2239 9 14 9.22386 14 9.5V10V10.5C14 10.7761 14.2239 11 14.5 11H15H16H17H18H19H20H20.5C20.7761 11 21 10.7761 21 10.5V10V9V8V7V6V5V4.5C21 4.22386 20.7761 4 20.5 4H20H19.5C19.2239 4 19 4.22386 19 4.5V5V6V6.5C19 6.77614 18.7761 7 18.5 7C18.2239 7 18 6.77614 18 6.5C18 6.22386 17.7761 6 17.5 6C17.2239 6 17 5.77614 17 5.5C17 5.22386 16.7761 5 16.5 5C16.2239 5 16 4.77614 16 4.5C16 4.22386 15.7761 4 15.5 4C15.2239 4 15 3.77614 15 3.5ZM4 13H3.5C3.22386 13 3 13.2239 3 13.5V14V15V16V17V18V19V19.5C3 19.7761 3.22386 20 3.5 20H4H4.5C4.77614 20 5 19.7761 5 19.5V19V18V17.5C5 17.2239 5.22386 17 5.5 17C5.77614 17 6 17.2239 6 17.5C6 17.7761 6.22386 18 6.5 18C6.77614 18 7 18.2239 7 18.5C7 18.7761 7.22386 19 7.5 19C7.77614 19 8 19.2239 8 19.5C8 19.7761 8.22386 20 8.5 20C8.77614 20 9 20.2239 9 20.5C9 20.7761 9.22386 21 9.5 21H10H11H12H13H14H15H16H16.5C16.7761 21 17 20.7761 17 20.5C17 20.2239 17.2239 20 17.5 20C17.7761 20 18 19.7761 18 19.5C18 19.2239 18.2239 19 18.5 19C18.7761 19 19 18.7761 19 18.5C19 18.2239 19.2239 18 19.5 18C19.7761 18 20 17.7761 20 17.5C20 17.2239 20.2239 17 20.5 17C20.7761 17 21 16.7761 21 16.5V16V15V14.5C21 14.2239 20.7761 14 20.5 14H20H19.5C19.2239 14 19 14.2239 19 14.5V15V15.5C19 15.7761 18.7761 16 18.5 16C18.2239 16 18 16.2239 18 16.5C18 16.7761 17.7761 17 17.5 17C17.2239 17 17 17.2239 17 17.5C17 17.7761 16.7761 18 16.5 18C16.2239 18 16 18.2239 16 18.5C16 18.7761 15.7761 19 15.5 19H15H14H13H12H11H10.5C10.2239 19 10 18.7761 10 18.5C10 18.2239 9.77614 18 9.5 18C9.22386 18 9 17.7761 9 17.5C9 17.2239 8.77614 17 8.5 17C8.22386 17 8 16.7761 8 16.5C8 16.2239 7.77614 16 7.5 16C7.22386 16 7 15.7761 7 15.5C7 15.2239 7.22386 15 7.5 15H8H9H9.5C9.77614 15 10 14.7761 10 14.5V14V13.5C10 13.2239 9.77614 13 9.5 13H9H8H7H6H5H4Z" fill="black"/>
</svg>
