<svg width="24" height="24" viewBox="0 0 24 24" fill="none" xmlns="http://www.w3.org/2000/svg">
<path fill-rule="evenodd" clip-rule="evenodd" d="M4 3H3.5C3.22386 3 3 3.22386 3 3.5V4V5V6V7V8V9V9.5C3 9.77614 3.22386 10 3.5 10H4H4.5C4.77614 10 5 9.77614 5 9.5V9V8V7V6V5.5C5 5.22386 5.22386 5 5.5 5H6H7H8H9H9.5C9.77614 5 10 4.77614 10 4.5V4V3.5C10 3.22386 9.77614 3 9.5 3H9H8H7H6H5H4ZM3 14.5C3 14.2239 3.22386 14 3.5 14H4H4.5C4.77614 14 5 14.2239 5 14.5V15V16V17V18V18.5C5 18.7761 5.22386 19 5.5 19H6H7H8H9H9.5C9.77614 19 10 19.2239 10 19.5V20V20.5C10 20.7761 9.77614 21 9.5 21H9H8H7H6H5H4H3.5C3.22386 21 3 20.7761 3 20.5V20V19V18V17V16V15V14.5ZM15 19H14.5C14.2239 19 14 19.2239 14 19.5V20V20.5C14 20.7761 14.2239 21 14.5 21H15H16H17H18H19H20H20.5C20.7761 21 21 20.7761 21 20.5V20V19V18V17V16V15V14.5C21 14.2239 20.7761 14 20.5 14H20H19.5C19.2239 14 19 14.2239 19 14.5V15V16V17V18V18.5C19 18.7761 18.7761 19 18.5 19H18H17H16H15ZM19 8V9V9.5C19 9.77614 19.2239 10 19.5 10H20H20.5C20.7761 10 21 9.77614 21 9.5V9V8V7V6V5V4V3.5C21 3.22386 20.7761 3 20.5 3H20H19H18H17H16H15H14.5C14.2239 3 14 3.22386 14 3.5V4V4.5C14 4.77614 14.2239 5 14.5 5H15H16H17H18H18.5C18.7761 5 19 5.22386 19 5.5V6V7V8Z" fill="black"/>
</svg>
