<svg width="24" height="24" viewBox="0 0 24 24" fill="none" xmlns="http://www.w3.org/2000/svg">
<path fill-rule="evenodd" clip-rule="evenodd" d="M21 3.5C21 3.22386 20.7761 3 20.5 3H20H19H18.5C18.2239 3 18 3.22386 18 3.5C18 3.77614 17.7761 4 17.5 4H17H16H15H14.5C14.2239 4 14 4.22386 14 4.5C14 4.77614 13.7761 5 13.5 5H13H12H11.5C11.2239 5 11 5.22386 11 5.5C11 5.77614 10.7761 6 10.5 6H10H9.5C9.22386 6 9 6.22386 9 6.5C9 6.77614 8.77614 7 8.5 7H8H7.5C7.22386 7 7 7.22386 7 7.5C7 7.77614 6.77614 8 6.5 8H6H5.5C5.22386 8 5 8.22386 5 8.5C5 8.77614 4.77614 9 4.5 9H4H3.5C3.22386 9 3 9.22386 3 9.5V10V10.5C3 10.7761 3.22386 11 3.5 11H4H5H6H6.5C6.77614 11 7 11.2239 7 11.5C7 11.7761 7.22386 12 7.5 12H8H8.5C8.77614 12 9 12.2239 9 12.5C9 12.7761 9.22386 13 9.5 13H10H10.5C10.7761 13 11 13.2239 11 13.5V14V14.5C11 14.7761 11.2239 15 11.5 15C11.7761 15 12 15.2239 12 15.5V16V16.5C12 16.7761 12.2239 17 12.5 17C12.7761 17 13 17.2239 13 17.5V18V19V20V20.5C13 20.7761 13.2239 21 13.5 21H14H14.5C14.7761 21 15 20.7761 15 20.5V20V19.5C15 19.2239 15.2239 19 15.5 19C15.7761 19 16 18.7761 16 18.5V18V17.5C16 17.2239 16.2239 17 16.5 17C16.7761 17 17 16.7761 17 16.5V16V15.5C17 15.2239 17.2239 15 17.5 15C17.7761 15 18 14.7761 18 14.5V14V13.5C18 13.2239 18.2239 13 18.5 13C18.7761 13 19 12.7761 19 12.5V12V11V10.5C19 10.2239 19.2239 10 19.5 10C19.7761 10 20 9.77614 20 9.5V9V8V7V6.5C20 6.22386 20.2239 6 20.5 6C20.7761 6 21 5.77614 21 5.5V5V4V3.5ZM15 16V15.5C15 15.2239 15.2239 15 15.5 15C15.7761 15 16 14.7761 16 14.5V14V13.5C16 13.2239 16.2239 13 16.5 13C16.7761 13 17 12.7761 17 12.5V12V11V10.5C17 10.2239 17.2239 10 17.5 10C17.7761 10 18 9.77614 18 9.5V9V8.5C18 8.22386 17.7761 8 17.5 8C17.2239 8 17 8.22386 17 8.5C17 8.77614 16.7761 9 16.5 9C16.2239 9 16 9.22386 16 9.5C16 9.77614 15.7761 10 15.5 10C15.2239 10 15 10.2239 15 10.5C15 10.7761 14.7761 11 14.5 11C14.2239 11 14 11.2239 14 11.5C14 11.7761 13.7761 12 13.5 12C13.2239 12 13 12.2239 13 12.5V13V14V14.5C13 14.7761 13.2239 15 13.5 15C13.7761 15 14 15.2239 14 15.5V16V16.5C14 16.7761 14.2239 17 14.5 17C14.7761 17 15 16.7761 15 16.5V16ZM8 9H7.5C7.22386 9 7 9.22386 7 9.5C7 9.77614 7.22386 10 7.5 10H8H8.5C8.77614 10 9 10.2239 9 10.5C9 10.7761 9.22386 11 9.5 11H10H11H11.5C11.7761 11 12 10.7761 12 10.5C12 10.2239 12.2239 10 12.5 10C12.7761 10 13 9.77614 13 9.5C13 9.22386 13.2239 9 13.5 9C13.7761 9 14 8.77614 14 8.5C14 8.22386 14.2239 8 14.5 8C14.7761 8 15 7.77614 15 7.5C15 7.22386 15.2239 7 15.5 7C15.7761 7 16 6.77614 16 6.5C16 6.22386 15.7761 6 15.5 6H15H14.5C14.2239 6 14 6.22386 14 6.5C14 6.77614 13.7761 7 13.5 7H13H12H11.5C11.2239 7 11 7.22386 11 7.5C11 7.77614 10.7761 8 10.5 8H10H9.5C9.22386 8 9 8.22386 9 8.5C9 8.77614 8.77614 9 8.5 9H8Z" fill="black"/>
</svg>
