<svg width="24" height="24" viewBox="0 0 24 24" fill="none" xmlns="http://www.w3.org/2000/svg">
<path fill-rule="evenodd" clip-rule="evenodd" d="M4 3H3.5C3.22386 3 3 3.22386 3 3.5V4V5V6V7V8V9V10V11V12V13V14V15V16V17V18V19V20V20.5C3 20.7761 3.22386 21 3.5 21H4H5H6H7H8H9H10H11H12H13H14H15H16H17H18H19H20H20.5C20.7761 21 21 20.7761 21 20.5V20V19V18V17V16V15V14V13V12V11V10V9V8V7V6V5V4V3.5C21 3.22386 20.7761 3 20.5 3H20H19H18H17H16H15H14H13H12H11H10H9H8H7H6H5H4ZM18 5H18.5C18.7761 5 19 5.22386 19 5.5V6V7V8V9V10V10.5C19 10.7761 18.7761 11 18.5 11H18H17H16H15H14H13H12H11H10H9H8H7H6H5.5C5.22386 11 5 10.7761 5 10.5V10V9V8V7V6V5.5C5 5.22386 5.22386 5 5.5 5H6H7H8H9H10H11H12H13H14H15H16H17H18ZM17 13H18H18.5C18.7761 13 19 13.2239 19 13.5V14V15V16V17V18V18.5C19 18.7761 18.7761 19 18.5 19H18H17H16H15H14H13H12H11H10H9H8H7H6H5.5C5.22386 19 5 18.7761 5 18.5V18V17V16V15V14V13.5C5 13.2239 5.22386 13 5.5 13H6H7H8H9H10H11H12H13H14H15H16H17ZM9 15.5C9 15.2239 8.77614 15 8.5 15H8H7H6.5C6.22386 15 6 15.2239 6 15.5V16V17V17.5C6 17.7761 6.22386 18 6.5 18H7H8H8.5C8.77614 18 9 17.7761 9 17.5V17V16V15.5ZM7 6H8H8.5C8.77614 6 9 6.22386 9 6.5V7V8V8.5C9 8.77614 8.77614 9 8.5 9H8H7H6.5C6.22386 9 6 8.77614 6 8.5V8V7V6.5C6 6.22386 6.22386 6 6.5 6H7Z" fill="black"/>
</svg>
