<svg width="24" height="24" viewBox="0 0 24 24" fill="none" xmlns="http://www.w3.org/2000/svg">
<path fill-rule="evenodd" clip-rule="evenodd" d="M12 2H11H10.5C10.2239 2 10 2.22386 10 2.5C10 2.77614 9.77614 3 9.5 3H9H8H7.5C7.22386 3 7 3.22386 7 3.5C7 3.77614 6.77614 4 6.5 4H6H5.5C5.22386 4 5 4.22386 5 4.5C5 4.77614 4.77614 5 4.5 5C4.22386 5 4 5.22386 4 5.5V6V7V8V9V10V11V12V13V14V14.5C4 14.7761 4.22386 15 4.5 15C4.77614 15 5 15.2239 5 15.5V16V16.5C5 16.7761 5.22386 17 5.5 17C5.77614 17 6 17.2239 6 17.5C6 17.7761 6.22386 18 6.5 18C6.77614 18 7 18.2239 7 18.5C7 18.7761 7.22386 19 7.5 19C7.77614 19 8 19.2239 8 19.5C8 19.7761 8.22386 20 8.5 20C8.77614 20 9 20.2239 9 20.5C9 20.7761 9.22386 21 9.5 21H10H10.5C10.7761 21 11 21.2239 11 21.5C11 21.7761 11.2239 22 11.5 22H12H12.5C12.7761 22 13 21.7761 13 21.5C13 21.2239 13.2239 21 13.5 21H14H14.5C14.7761 21 15 20.7761 15 20.5C15 20.2239 15.2239 20 15.5 20C15.7761 20 16 19.7761 16 19.5C16 19.2239 16.2239 19 16.5 19C16.7761 19 17 18.7761 17 18.5C17 18.2239 17.2239 18 17.5 18C17.7761 18 18 17.7761 18 17.5C18 17.2239 18.2239 17 18.5 17C18.7761 17 19 16.7761 19 16.5V16V15.5C19 15.2239 19.2239 15 19.5 15C19.7761 15 20 14.7761 20 14.5V14V13V12V11V10V9V8V7V6V5.5C20 5.22386 19.7761 5 19.5 5C19.2239 5 19 4.77614 19 4.5C19 4.22386 18.7761 4 18.5 4H18H17.5C17.2239 4 17 3.77614 17 3.5C17 3.22386 16.7761 3 16.5 3H16H15H14.5C14.2239 3 14 2.77614 14 2.5C14 2.22386 13.7761 2 13.5 2H13H12ZM18 14V14.5C18 14.7761 17.7761 15 17.5 15C17.2239 15 17 15.2239 17 15.5C17 15.7761 16.7761 16 16.5 16C16.2239 16 16 16.2239 16 16.5C16 16.7761 15.7761 17 15.5 17C15.2239 17 15 17.2239 15 17.5C15 17.7761 14.7761 18 14.5 18H14H13.5C13.2239 18 13 18.2239 13 18.5C13 18.7761 12.7761 19 12.5 19H12H11.5C11.2239 19 11 18.7761 11 18.5C11 18.2239 10.7761 18 10.5 18H10H9.5C9.22386 18 9 17.7761 9 17.5C9 17.2239 8.77614 17 8.5 17C8.22386 17 8 16.7761 8 16.5C8 16.2239 7.77614 16 7.5 16C7.22386 16 7 15.7761 7 15.5C7 15.2239 6.77614 15 6.5 15C6.22386 15 6 14.7761 6 14.5V14V13V12V11V10V9V8V7.5C6 7.22386 6.22386 7 6.5 7C6.77614 7 7 6.77614 7 6.5C7 6.22386 7.22386 6 7.5 6H8H8.5C8.77614 6 9 5.77614 9 5.5C9 5.22386 9.22386 5 9.5 5H10H11H12H13H14H14.5C14.7761 5 15 5.22386 15 5.5C15 5.77614 15.2239 6 15.5 6H16H16.5C16.7761 6 17 6.22386 17 6.5C17 6.77614 17.2239 7 17.5 7C17.7761 7 18 7.22386 18 7.5V8V9V10V11V12V13V14Z" fill="black"/>
</svg>
