<svg width="24" height="24" viewBox="0 0 24 24" fill="none" xmlns="http://www.w3.org/2000/svg">
<path fill-rule="evenodd" clip-rule="evenodd" d="M12 2H11H10.5C10.2239 2 10 2.22386 10 2.5C10 2.77614 9.77614 3 9.5 3H9H8H7.5C7.22386 3 7 3.22386 7 3.5C7 3.77614 7.22386 4 7.5 4C7.77614 4 8 4.22386 8 4.5C8 4.77614 8.22386 5 8.5 5H9H10H11H12H13H14H14.5C14.7761 5 15 5.22386 15 5.5C15 5.77614 15.2239 6 15.5 6H16H16.5C16.7761 6 17 6.22386 17 6.5C17 6.77614 17.2239 7 17.5 7C17.7761 7 18 7.22386 18 7.5V8V9V10V11V12V13V14V14.5C18 14.7761 18.2239 15 18.5 15H19H19.5C19.7761 15 20 14.7761 20 14.5V14V13V12V11V10V9V8V7V6V5.5C20 5.22386 19.7761 5 19.5 5C19.2239 5 19 4.77614 19 4.5C19 4.22386 18.7761 4 18.5 4H18H17.5C17.2239 4 17 3.77614 17 3.5C17 3.22386 16.7761 3 16.5 3H16H15H14.5C14.2239 3 14 2.77614 14 2.5C14 2.22386 13.7761 2 13.5 2H13H12ZM4 10V9V8.5C4 8.22386 4.22386 8 4.5 8C4.77614 8 5 8.22386 5 8.5C5 8.77614 5.22386 9 5.5 9C5.77614 9 6 9.22386 6 9.5V10V11V12V13V14V14.5C6 14.7761 6.22386 15 6.5 15C6.77614 15 7 15.2239 7 15.5C7 15.7761 7.22386 16 7.5 16C7.77614 16 8 16.2239 8 16.5C8 16.7761 8.22386 17 8.5 17C8.77614 17 9 17.2239 9 17.5C9 17.7761 9.22386 18 9.5 18H10H10.5C10.7761 18 11 18.2239 11 18.5C11 18.7761 11.2239 19 11.5 19H12H12.5C12.7761 19 13 18.7761 13 18.5C13 18.2239 13.2239 18 13.5 18H14H14.5C14.7761 18 15 18.2239 15 18.5C15 18.7761 15.2239 19 15.5 19C15.7761 19 16 19.2239 16 19.5C16 19.7761 15.7761 20 15.5 20C15.2239 20 15 20.2239 15 20.5C15 20.7761 14.7761 21 14.5 21H14H13.5C13.2239 21 13 21.2239 13 21.5C13 21.7761 12.7761 22 12.5 22H12H11.5C11.2239 22 11 21.7761 11 21.5C11 21.2239 10.7761 21 10.5 21H10H9.5C9.22386 21 9 20.7761 9 20.5C9 20.2239 8.77614 20 8.5 20C8.22386 20 8 19.7761 8 19.5C8 19.2239 7.77614 19 7.5 19C7.22386 19 7 18.7761 7 18.5C7 18.2239 6.77614 18 6.5 18C6.22386 18 6 17.7761 6 17.5C6 17.2239 5.77614 17 5.5 17C5.22386 17 5 16.7761 5 16.5V16V15.5C5 15.2239 4.77614 15 4.5 15C4.22386 15 4 14.7761 4 14.5V14V13V12V11V10ZM5 3.5C5 3.77614 5.22386 4 5.5 4C5.77614 4 6 4.22386 6 4.5C6 4.77614 6.22386 5 6.5 5C6.77614 5 7 5.22386 7 5.5C7 5.77614 7.22386 6 7.5 6C7.77614 6 8 6.22386 8 6.5C8 6.77614 8.22386 7 8.5 7C8.77614 7 9 7.22386 9 7.5C9 7.77614 9.22386 8 9.5 8C9.77614 8 10 8.22386 10 8.5C10 8.77614 10.2239 9 10.5 9C10.7761 9 11 9.22386 11 9.5C11 9.77614 11.2239 10 11.5 10C11.7761 10 12 10.2239 12 10.5C12 10.7761 12.2239 11 12.5 11C12.7761 11 13 11.2239 13 11.5C13 11.7761 13.2239 12 13.5 12C13.7761 12 14 12.2239 14 12.5C14 12.7761 14.2239 13 14.5 13C14.7761 13 15 13.2239 15 13.5C15 13.7761 15.2239 14 15.5 14C15.7761 14 16 14.2239 16 14.5C16 14.7761 16.2239 15 16.5 15C16.7761 15 17 15.2239 17 15.5C17 15.7761 17.2239 16 17.5 16C17.7761 16 18 16.2239 18 16.5C18 16.7761 18.2239 17 18.5 17C18.7761 17 19 17.2239 19 17.5C19 17.7761 19.2239 18 19.5 18C19.7761 18 20 18.2239 20 18.5C20 18.7761 20.2239 19 20.5 19C20.7761 19 21 19.2239 21 19.5V20V20.5C21 20.7761 20.7761 21 20.5 21H20H19.5C19.2239 21 19 20.7761 19 20.5C19 20.2239 18.7761 20 18.5 20C18.2239 20 18 19.7761 18 19.5C18 19.2239 17.7761 19 17.5 19C17.2239 19 17 18.7761 17 18.5C17 18.2239 16.7761 18 16.5 18C16.2239 18 16 17.7761 16 17.5C16 17.2239 15.7761 17 15.5 17C15.2239 17 15 16.7761 15 16.5C15 16.2239 14.7761 16 14.5 16C14.2239 16 14 15.7761 14 15.5C14 15.2239 13.7761 15 13.5 15C13.2239 15 13 14.7761 13 14.5C13 14.2239 12.7761 14 12.5 14C12.2239 14 12 13.7761 12 13.5C12 13.2239 11.7761 13 11.5 13C11.2239 13 11 12.7761 11 12.5C11 12.2239 10.7761 12 10.5 12C10.2239 12 10 11.7761 10 11.5C10 11.2239 9.77614 11 9.5 11C9.22386 11 9 10.7761 9 10.5C9 10.2239 8.77614 10 8.5 10C8.22386 10 8 9.77614 8 9.5C8 9.22386 7.77614 9 7.5 9C7.22386 9 7 8.77614 7 8.5C7 8.22386 6.77614 8 6.5 8C6.22386 8 6 7.77614 6 7.5C6 7.22386 5.77614 7 5.5 7C5.22386 7 5 6.77614 5 6.5C5 6.22386 4.77614 6 4.5 6C4.22386 6 4 5.77614 4 5.5C4 5.22386 3.77614 5 3.5 5C3.22386 5 3 4.77614 3 4.5V4V3.5C3 3.22386 3.22386 3 3.5 3H4H4.5C4.77614 3 5 3.22386 5 3.5Z" fill="black"/>
</svg>
