<svg width="24" height="24" viewBox="0 0 24 24" fill="none" xmlns="http://www.w3.org/2000/svg">
<path fill-rule="evenodd" clip-rule="evenodd" d="M4 4H3.5C3.22386 4 3 4.22386 3 4.5V5V5.5C3 5.77614 3.22386 6 3.5 6H4H5H5.5C5.77614 6 6 6.22386 6 6.5V7V7.5C6 7.77614 6.22386 8 6.5 8C6.77614 8 7 8.22386 7 8.5V9V10V10.5C7 10.7761 7.22386 11 7.5 11C7.77614 11 8 11.2239 8 11.5V12V13V13.5C8 13.7761 8.22386 14 8.5 14C8.77614 14 9 14.2239 9 14.5C9 14.7761 9.22386 15 9.5 15H10H11H12H13H14H15H16H17H17.5C17.7761 15 18 14.7761 18 14.5C18 14.2239 18.2239 14 18.5 14C18.7761 14 19 13.7761 19 13.5V13V12.5C19 12.2239 19.2239 12 19.5 12C19.7761 12 20 11.7761 20 11.5V11V10V9.5C20 9.22386 20.2239 9 20.5 9C20.7761 9 21 8.77614 21 8.5V8V7.5C21 7.22386 20.7761 7 20.5 7H20H19H18H17H16H15H14H13H12H11H10H9H8.5C8.22386 7 8 6.77614 8 6.5V6V5.5C8 5.22386 7.77614 5 7.5 5C7.22386 5 7 4.77614 7 4.5C7 4.22386 6.77614 4 6.5 4H6H5H4ZM12 9H11H10H9.5C9.22386 9 9 9.22386 9 9.5C9 9.77614 9.22386 10 9.5 10C9.77614 10 10 10.2239 10 10.5V11V12V12.5C10 12.7761 10.2239 13 10.5 13H11H12H13H14H15H16H16.5C16.7761 13 17 12.7761 17 12.5V12V11.5C17 11.2239 17.2239 11 17.5 11C17.7761 11 18 10.7761 18 10.5V10V9.5C18 9.22386 17.7761 9 17.5 9H17H16H15H14H13H12ZM8.5 17C8.77614 17 9 16.7761 9 16.5C9 16.2239 9.22386 16 9.5 16H10H10.5C10.7761 16 11 16.2239 11 16.5C11 16.7761 11.2239 17 11.5 17C11.7761 17 12 17.2239 12 17.5V18V18.5C12 18.7761 11.7761 19 11.5 19C11.2239 19 11 19.2239 11 19.5C11 19.7761 10.7761 20 10.5 20H10H9.5C9.22386 20 9 19.7761 9 19.5C9 19.2239 8.77614 19 8.5 19C8.22386 19 8 18.7761 8 18.5V18V17.5C8 17.2239 8.22386 17 8.5 17ZM15.5 17C15.2239 17 15 17.2239 15 17.5V18V18.5C15 18.7761 15.2239 19 15.5 19C15.7761 19 16 19.2239 16 19.5C16 19.7761 16.2239 20 16.5 20H17H17.5C17.7761 20 18 19.7761 18 19.5C18 19.2239 18.2239 19 18.5 19C18.7761 19 19 18.7761 19 18.5V18V17.5C19 17.2239 18.7761 17 18.5 17C18.2239 17 18 16.7761 18 16.5C18 16.2239 17.7761 16 17.5 16H17H16.5C16.2239 16 16 16.2239 16 16.5C16 16.7761 15.7761 17 15.5 17Z" fill="black"/>
</svg>
