<svg width="24" height="24" viewBox="0 0 24 24" fill="none" xmlns="http://www.w3.org/2000/svg">
<path fill-rule="evenodd" clip-rule="evenodd" d="M18 5.5C18 5.22386 18.2239 5 18.5 5H19H19.5C19.7761 5 20 5.22386 20 5.5V6V7V8V9V10V11V12V13V14V15V16V17V18V18.5C20 18.7761 19.7761 19 19.5 19H19H18.5C18.2239 19 18 18.7761 18 18.5V18V17V16V15V14V13V12V11V10V9V8V7V6V5.5ZM5 19H5.5C5.77614 19 6 18.7761 6 18.5C6 18.2239 6.22386 18 6.5 18C6.77614 18 7 17.7761 7 17.5C7 17.2239 7.22386 17 7.5 17H8H8.5C8.77614 17 9 16.7761 9 16.5C9 16.2239 9.22386 16 9.5 16H10H10.5C10.7761 16 11 15.7761 11 15.5C11 15.2239 11.2239 15 11.5 15H12H12.5C12.7761 15 13 14.7761 13 14.5C13 14.2239 13.2239 14 13.5 14H14H14.5C14.7761 14 15 13.7761 15 13.5C15 13.2239 15.2239 13 15.5 13C15.7761 13 16 12.7761 16 12.5V12V11.5C16 11.2239 15.7761 11 15.5 11C15.2239 11 15 10.7761 15 10.5C15 10.2239 14.7761 10 14.5 10H14H13.5C13.2239 10 13 9.77614 13 9.5C13 9.22386 12.7761 9 12.5 9H12H11.5C11.2239 9 11 8.77614 11 8.5C11 8.22386 10.7761 8 10.5 8H10H9.5C9.22386 8 9 7.77614 9 7.5C9 7.22386 8.77614 7 8.5 7H8H7.5C7.22386 7 7 6.77614 7 6.5C7 6.22386 6.77614 6 6.5 6C6.22386 6 6 5.77614 6 5.5C6 5.22386 5.77614 5 5.5 5H5H4.5C4.22386 5 4 5.22386 4 5.5V6V7V8V9V10V11V12V13V14V15V16V17V18V18.5C4 18.7761 4.22386 19 4.5 19H5ZM13 12V12.5C13 12.7761 12.7761 13 12.5 13H12H11.5C11.2239 13 11 13.2239 11 13.5C11 13.7761 10.7761 14 10.5 14H10H9.5C9.22386 14 9 14.2239 9 14.5C9 14.7761 8.77614 15 8.5 15H8H7.5C7.22386 15 7 15.2239 7 15.5C7 15.7761 6.77614 16 6.5 16C6.22386 16 6 15.7761 6 15.5V15V14V13V12V11V10V9V8.5C6 8.22386 6.22386 8 6.5 8C6.77614 8 7 8.22386 7 8.5C7 8.77614 7.22386 9 7.5 9H8H8.5C8.77614 9 9 9.22386 9 9.5C9 9.77614 9.22386 10 9.5 10H10H10.5C10.7761 10 11 10.2239 11 10.5C11 10.7761 11.2239 11 11.5 11H12H12.5C12.7761 11 13 11.2239 13 11.5V12Z" fill="black"/>
</svg>
