<svg width="24" height="24" viewBox="0 0 24 24" fill="none" xmlns="http://www.w3.org/2000/svg">
<path fill-rule="evenodd" clip-rule="evenodd" d="M14.5 4C14.7761 4 15 4.22386 15 4.5C15 4.77614 15.2239 5 15.5 5C15.7761 5 16 5.22386 16 5.5C16 5.77614 16.2239 6 16.5 6C16.7761 6 17 6.22386 17 6.5C17 6.77614 17.2239 7 17.5 7C17.7761 7 18 7.22386 18 7.5C18 7.77614 18.2239 8 18.5 8C18.7761 8 19 8.22386 19 8.5C19 8.77614 19.2239 9 19.5 9C19.7761 9 20 9.22386 20 9.5V10V11V12V13V14V14.5C20 14.7761 19.7761 15 19.5 15C19.2239 15 19 15.2239 19 15.5C19 15.7761 18.7761 16 18.5 16C18.2239 16 18 16.2239 18 16.5C18 16.7761 17.7761 17 17.5 17C17.2239 17 17 17.2239 17 17.5C17 17.7761 16.7761 18 16.5 18C16.2239 18 16 18.2239 16 18.5C16 18.7761 15.7761 19 15.5 19C15.2239 19 15 19.2239 15 19.5C15 19.7761 14.7761 20 14.5 20H14H13H12H11H10H9.5C9.22386 20 9 19.7761 9 19.5C9 19.2239 8.77614 19 8.5 19C8.22386 19 8 18.7761 8 18.5C8 18.2239 7.77614 18 7.5 18C7.22386 18 7 17.7761 7 17.5C7 17.2239 6.77614 17 6.5 17C6.22386 17 6 16.7761 6 16.5C6 16.2239 5.77614 16 5.5 16C5.22386 16 5 15.7761 5 15.5C5 15.2239 4.77614 15 4.5 15C4.22386 15 4 14.7761 4 14.5V14V13V12V11V10V9.5C4 9.22386 4.22386 9 4.5 9C4.77614 9 5 8.77614 5 8.5C5 8.22386 5.22386 8 5.5 8C5.77614 8 6 7.77614 6 7.5C6 7.22386 6.22386 7 6.5 7C6.77614 7 7 6.77614 7 6.5C7 6.22386 7.22386 6 7.5 6C7.77614 6 8 5.77614 8 5.5C8 5.22386 8.22386 5 8.5 5C8.77614 5 9 4.77614 9 4.5C9 4.22386 9.22386 4 9.5 4H10H11H12H13H14H14.5ZM16 21.5C16 21.7761 15.7761 22 15.5 22H15H14H13H12H11H10H9H8.5C8.22386 22 8 21.7761 8 21.5C8 21.2239 7.77614 21 7.5 21C7.22386 21 7 20.7761 7 20.5C7 20.2239 6.77614 20 6.5 20C6.22386 20 6 19.7761 6 19.5C6 19.2239 5.77614 19 5.5 19C5.22386 19 5 18.7761 5 18.5C5 18.2239 4.77614 18 4.5 18C4.22386 18 4 17.7761 4 17.5C4 17.2239 3.77614 17 3.5 17C3.22386 17 3 16.7761 3 16.5C3 16.2239 2.77614 16 2.5 16C2.22386 16 2 15.7761 2 15.5V15V14V13V12V11V10V9V8.5C2 8.22386 2.22386 8 2.5 8C2.77614 8 3 7.77614 3 7.5C3 7.22386 3.22386 7 3.5 7C3.77614 7 4 6.77614 4 6.5C4 6.22386 4.22386 6 4.5 6C4.77614 6 5 5.77614 5 5.5C5 5.22386 5.22386 5 5.5 5C5.77614 5 6 4.77614 6 4.5C6 4.22386 6.22386 4 6.5 4C6.77614 4 7 3.77614 7 3.5C7 3.22386 7.22386 3 7.5 3C7.77614 3 8 2.77614 8 2.5C8 2.22386 8.22386 2 8.5 2H9H10H11H12H13H14H15H15.5C15.7761 2 16 2.22386 16 2.5C16 2.77614 16.2239 3 16.5 3C16.7761 3 17 3.22386 17 3.5C17 3.77614 17.2239 4 17.5 4C17.7761 4 18 4.22386 18 4.5C18 4.77614 18.2239 5 18.5 5C18.7761 5 19 5.22386 19 5.5C19 5.77614 19.2239 6 19.5 6C19.7761 6 20 6.22386 20 6.5C20 6.77614 20.2239 7 20.5 7C20.7761 7 21 7.22386 21 7.5C21 7.77614 21.2239 8 21.5 8C21.7761 8 22 8.22386 22 8.5V9V10V11V12V13V14V15V15.5C22 15.7761 21.7761 16 21.5 16C21.2239 16 21 16.2239 21 16.5C21 16.7761 20.7761 17 20.5 17C20.2239 17 20 17.2239 20 17.5C20 17.7761 19.7761 18 19.5 18C19.2239 18 19 18.2239 19 18.5C19 18.7761 18.7761 19 18.5 19C18.2239 19 18 19.2239 18 19.5C18 19.7761 17.7761 20 17.5 20C17.2239 20 17 20.2239 17 20.5C17 20.7761 16.7761 21 16.5 21C16.2239 21 16 21.2239 16 21.5ZM8 8.5C8 8.22386 8.22386 8 8.5 8H9H10H11H12H13H14H15H15.5C15.7761 8 16 8.22386 16 8.5V9V10V11V12V13V14V15V15.5C16 15.7761 15.7761 16 15.5 16H15H14H13H12H11H10H9H8.5C8.22386 16 8 15.7761 8 15.5V15V14V13V12V11V10V9V8.5ZM11 10H10.5C10.2239 10 10 10.2239 10 10.5V11V12V13V13.5C10 13.7761 10.2239 14 10.5 14H11H12H13H13.5C13.7761 14 14 13.7761 14 13.5V13V12V11V10.5C14 10.2239 13.7761 10 13.5 10H13H12H11Z" fill="black"/>
</svg>
