<svg width="24" height="24" viewBox="0 0 24 24" fill="none" xmlns="http://www.w3.org/2000/svg">
<path fill-rule="evenodd" clip-rule="evenodd" d="M4 3H3.5C3.22386 3 3 3.22386 3 3.5V4V5V6V7V8V9V10V11V12V13V14V15V16V17V18V19V20V20.5C3 20.7761 3.22386 21 3.5 21H4H5H6H7H8H9H10H11H12H13H14H15H16H17H18H19H20H20.5C20.7761 21 21 20.7761 21 20.5V20V19V18V17V16V15V14V13V12V11V10V9V8V7V6V5V4V3.5C21 3.22386 20.7761 3 20.5 3H20H19H18H17H16H15H14H13H12H11H10H9H8H7H6H5H4ZM19 6V5.5C19 5.22386 18.7761 5 18.5 5H18H17H16H15H14H13H12H11.5C11.2239 5 11 5.22386 11 5.5V6V7V8V8.5C11 8.77614 11.2239 9 11.5 9H12H13H14H15H16H17H18H18.5C18.7761 9 19 8.77614 19 8.5V8V7V6ZM9 8V8.5C9 8.77614 8.77614 9 8.5 9H8H7H6H5.5C5.22386 9 5 8.77614 5 8.5V8V7V6V5.5C5 5.22386 5.22386 5 5.5 5H6H7H8H8.5C8.77614 5 9 5.22386 9 5.5V6V7V8ZM5 13V14V15V16V17V18V18.5C5 18.7761 5.22386 19 5.5 19H6H7H8H8.5C8.77614 19 9 18.7761 9 18.5V18V17V16V15V14V13V12V11.5C9 11.2239 8.77614 11 8.5 11H8H7H6H5.5C5.22386 11 5 11.2239 5 11.5V12V13ZM11 17V18V18.5C11 18.7761 11.2239 19 11.5 19H12H13H14H15H16H17H18H18.5C18.7761 19 19 18.7761 19 18.5V18V17V16V15V14V13V12V11.5C19 11.2239 18.7761 11 18.5 11H18H17H16H15H14H13H12H11.5C11.2239 11 11 11.2239 11 11.5V12V13V14V15V16V17Z" fill="black"/>
</svg>
