<svg width="24" height="24" viewBox="0 0 24 24" fill="none" xmlns="http://www.w3.org/2000/svg">
<path fill-rule="evenodd" clip-rule="evenodd" d="M10 2.5C10 2.22386 10.2239 2 10.5 2H11H12H13H13.5C13.7761 2 14 2.22386 14 2.5C14 2.77614 14.2239 3 14.5 3C14.7761 3 15 3.22386 15 3.5V4V5V6V7V8V9V10V11V12V12.5C15 12.7761 15.2239 13 15.5 13C15.7761 13 16 13.2239 16 13.5C16 13.7761 16.2239 14 16.5 14C16.7761 14 17 14.2239 17 14.5V15V16V17V18V19V19.5C17 19.7761 16.7761 20 16.5 20C16.2239 20 16 20.2239 16 20.5C16 20.7761 15.7761 21 15.5 21C15.2239 21 15 21.2239 15 21.5C15 21.7761 14.7761 22 14.5 22H14H13H12H11H10H9.5C9.22386 22 9 21.7761 9 21.5C9 21.2239 8.77614 21 8.5 21C8.22386 21 8 20.7761 8 20.5C8 20.2239 7.77614 20 7.5 20C7.22386 20 7 19.7761 7 19.5V19V18V17V16V15V14.5C7 14.2239 7.22386 14 7.5 14C7.77614 14 8 13.7761 8 13.5C8 13.2239 8.22386 13 8.5 13C8.77614 13 9 12.7761 9 12.5V12V11V10V9V8V7V6V5V4V3.5C9 3.22386 9.22386 3 9.5 3C9.77614 3 10 2.77614 10 2.5ZM10 19.5C10 19.7761 10.2239 20 10.5 20H11H12H13H13.5C13.7761 20 14 19.7761 14 19.5C14 19.2239 14.2239 19 14.5 19C14.7761 19 15 18.7761 15 18.5V18V17V16V15.5C15 15.2239 14.7761 15 14.5 15C14.2239 15 14 14.7761 14 14.5C14 14.2239 13.7761 14 13.5 14C13.2239 14 13 13.7761 13 13.5V13V12V11V10V9V8V7V6V5V4.5C13 4.22386 12.7761 4 12.5 4H12H11.5C11.2239 4 11 4.22386 11 4.5V5V6V7V8V9V10V11V12V13V13.5C11 13.7761 10.7761 14 10.5 14C10.2239 14 10 14.2239 10 14.5C10 14.7761 9.77614 15 9.5 15C9.22386 15 9 15.2239 9 15.5V16V17V18V18.5C9 18.7761 9.22386 19 9.5 19C9.77614 19 10 19.2239 10 19.5Z" fill="black"/>
</svg>
