<svg width="24" height="24" viewBox="0 0 24 24" fill="none" xmlns="http://www.w3.org/2000/svg">
<path fill-rule="evenodd" clip-rule="evenodd" d="M10 3.5C10 3.77614 9.77614 4 9.5 4C9.22386 4 9 4.22386 9 4.5V5V6V6.5C9 6.77614 8.77614 7 8.5 7C8.22386 7 8 7.22386 8 7.5V8V8.5C8 8.77614 7.77614 9 7.5 9C7.22386 9 7 9.22386 7 9.5V10V10.5C7 10.7761 6.77614 11 6.5 11H6H5H4H3.5C3.22386 11 3 11.2239 3 11.5V12V13V14V15V16V17V18V19V20V20.5C3 20.7761 3.22386 21 3.5 21H4H5H6H7H8H9H10H11H12H13H14H15H16H17H18H19H19.5C19.7761 21 20 20.7761 20 20.5C20 20.2239 20.2239 20 20.5 20C20.7761 20 21 19.7761 21 19.5C21 19.2239 21.2239 19 21.5 19C21.7761 19 22 18.7761 22 18.5V18V17V16V15V14V13V12V11.5C22 11.2239 21.7761 11 21.5 11C21.2239 11 21 10.7761 21 10.5C21 10.2239 20.7761 10 20.5 10C20.2239 10 20 9.77614 20 9.5C20 9.22386 19.7761 9 19.5 9H19H18H17H16.5C16.2239 9 16 8.77614 16 8.5V8V7V6V5V4.5C16 4.22386 15.7761 4 15.5 4H15H14.5C14.2239 4 14 3.77614 14 3.5C14 3.22386 13.7761 3 13.5 3H13H12H11H10.5C10.2239 3 10 3.22386 10 3.5ZM20 17V16V15V14V13V12.5C20 12.2239 19.7761 12 19.5 12C19.2239 12 19 11.7761 19 11.5C19 11.2239 18.7761 11 18.5 11H18H17H16H15H14.5C14.2239 11 14 10.7761 14 10.5V10V9V8V7V6.5C14 6.22386 13.7761 6 13.5 6C13.2239 6 13 5.77614 13 5.5C13 5.22386 12.7761 5 12.5 5H12H11.5C11.2239 5 11 5.22386 11 5.5V6V7V7.5C11 7.77614 10.7761 8 10.5 8C10.2239 8 10 8.22386 10 8.5V9V9.5C10 9.77614 9.77614 10 9.5 10C9.22386 10 9 10.2239 9 10.5V11V12V13V14V15V16V17V18V18.5C9 18.7761 9.22386 19 9.5 19H10H11H12H13H14H15H16H17H18H18.5C18.7761 19 19 18.7761 19 18.5C19 18.2239 19.2239 18 19.5 18C19.7761 18 20 17.7761 20 17.5V17ZM6 13H6.5C6.77614 13 7 13.2239 7 13.5V14V15V16V17V18V18.5C7 18.7761 6.77614 19 6.5 19H6H5.5C5.22386 19 5 18.7761 5 18.5V18V17V16V15V14V13.5C5 13.2239 5.22386 13 5.5 13H6Z" fill="black"/>
</svg>
