<svg width="24" height="24" viewBox="0 0 24 24" fill="none" xmlns="http://www.w3.org/2000/svg">
<path fill-rule="evenodd" clip-rule="evenodd" d="M6 6H5.5C5.22386 6 5 6.22386 5 6.5C5 6.77614 4.77614 7 4.5 7C4.22386 7 4 7.22386 4 7.5C4 7.77614 3.77614 8 3.5 8C3.22386 8 3 8.22386 3 8.5C3 8.77614 2.77614 9 2.5 9C2.22386 9 2 9.22386 2 9.5V10V11V12V13V14V14.5C2 14.7761 2.22386 15 2.5 15C2.77614 15 3 15.2239 3 15.5C3 15.7761 3.22386 16 3.5 16C3.77614 16 4 16.2239 4 16.5C4 16.7761 4.22386 17 4.5 17C4.77614 17 5 17.2239 5 17.5C5 17.7761 5.22386 18 5.5 18H6H7H8H9H10H11H12H13H14H15H16H17H18H18.5C18.7761 18 19 17.7761 19 17.5C19 17.2239 19.2239 17 19.5 17C19.7761 17 20 16.7761 20 16.5C20 16.2239 20.2239 16 20.5 16C20.7761 16 21 15.7761 21 15.5C21 15.2239 21.2239 15 21.5 15C21.7761 15 22 14.7761 22 14.5V14V13V12V11V10V9.5C22 9.22386 21.7761 9 21.5 9C21.2239 9 21 8.77614 21 8.5C21 8.22386 20.7761 8 20.5 8C20.2239 8 20 7.77614 20 7.5C20 7.22386 19.7761 7 19.5 7C19.2239 7 19 6.77614 19 6.5C19 6.22386 18.7761 6 18.5 6H18H17H16H15H14H13H12H11H10H9H8H7H6ZM19 9.5C19 9.77614 19.2239 10 19.5 10C19.7761 10 20 10.2239 20 10.5V11V12V13V13.5C20 13.7761 19.7761 14 19.5 14C19.2239 14 19 14.2239 19 14.5C19 14.7761 18.7761 15 18.5 15C18.2239 15 18 15.2239 18 15.5C18 15.7761 17.7761 16 17.5 16H17H16H15H14H13H12H11H10H9H8H7H6.5C6.22386 16 6 15.7761 6 15.5C6 15.2239 5.77614 15 5.5 15C5.22386 15 5 14.7761 5 14.5C5 14.2239 4.77614 14 4.5 14C4.22386 14 4 13.7761 4 13.5V13V12V11V10.5C4 10.2239 4.22386 10 4.5 10C4.77614 10 5 9.77614 5 9.5C5 9.22386 5.22386 9 5.5 9C5.77614 9 6 8.77614 6 8.5C6 8.22386 6.22386 8 6.5 8H7H8H9H10H11H12H13H14H15H16H17H17.5C17.7761 8 18 8.22386 18 8.5C18 8.77614 18.2239 9 18.5 9C18.7761 9 19 9.22386 19 9.5ZM10 10.5C10 10.2239 9.77614 10 9.5 10C9.22386 10 9 9.77614 9 9.5C9 9.22386 8.77614 9 8.5 9H8H7.5C7.22386 9 7 9.22386 7 9.5C7 9.77614 6.77614 10 6.5 10C6.22386 10 6 10.2239 6 10.5C6 10.7761 5.77614 11 5.5 11C5.22386 11 5 11.2239 5 11.5V12V12.5C5 12.7761 5.22386 13 5.5 13C5.77614 13 6 13.2239 6 13.5C6 13.7761 6.22386 14 6.5 14C6.77614 14 7 14.2239 7 14.5C7 14.7761 7.22386 15 7.5 15H8H8.5C8.77614 15 9 14.7761 9 14.5C9 14.2239 9.22386 14 9.5 14C9.77614 14 10 13.7761 10 13.5C10 13.2239 10.2239 13 10.5 13C10.7761 13 11 12.7761 11 12.5V12V11.5C11 11.2239 10.7761 11 10.5 11C10.2239 11 10 10.7761 10 10.5ZM9 12V12.5C9 12.7761 8.77614 13 8.5 13H8H7.5C7.22386 13 7 12.7761 7 12.5V12V11.5C7 11.2239 7.22386 11 7.5 11H8H8.5C8.77614 11 9 11.2239 9 11.5V12Z" fill="black"/>
</svg>
