<svg width="24" height="24" viewBox="0 0 24 24" fill="none" xmlns="http://www.w3.org/2000/svg">
<path fill-rule="evenodd" clip-rule="evenodd" d="M8 2H7.5C7.22386 2 7 2.22386 7 2.5V3V4V5V5.5C7 5.77614 6.77614 6 6.5 6H6H5H4H3.5C3.22386 6 3 6.22386 3 6.5V7V7.5C3 7.77614 3.22386 8 3.5 8H4H4.5C4.77614 8 5 8.22386 5 8.5V9V10V11V12V13V14V15V16V17V18V19V20V21V21.5C5 21.7761 5.22386 22 5.5 22H6H7H8H9H10H11H12H13H14H15H16H17H18H18.5C18.7761 22 19 21.7761 19 21.5V21V20V19V18V17V16V15V14V13V12V11V10V9V8.5C19 8.22386 19.2239 8 19.5 8H20H20.5C20.7761 8 21 7.77614 21 7.5V7V6.5C21 6.22386 20.7761 6 20.5 6H20H19H18H17.5C17.2239 6 17 5.77614 17 5.5V5V4V3V2.5C17 2.22386 16.7761 2 16.5 2H16H15H14H13H12H11H10H9H8ZM14.5 4C14.7761 4 15 4.22386 15 4.5V5V5.5C15 5.77614 14.7761 6 14.5 6H14H13H12H11H10H9.5C9.22386 6 9 5.77614 9 5.5V5V4.5C9 4.22386 9.22386 4 9.5 4H10H11H12H13H14H14.5ZM10 8H9H8H7.5C7.22386 8 7 8.22386 7 8.5V9V10V11V12V13V14V15V16V17V18V19V19.5C7 19.7761 7.22386 20 7.5 20H8H9H10H11H12H13H14H15H16H16.5C16.7761 20 17 19.7761 17 19.5V19V18V17V16V15V14V13V12V11V10V9V8.5C17 8.22386 16.7761 8 16.5 8H16H15H14H13H12H11H10Z" fill="black"/>
</svg>
