<svg width="24" height="24" viewBox="0 0 24 24" fill="none" xmlns="http://www.w3.org/2000/svg">
<path fill-rule="evenodd" clip-rule="evenodd" d="M14 4H13.5C13.2239 4 13 4.22386 13 4.5C13 4.77614 12.7761 5 12.5 5C12.2239 5 12 5.22386 12 5.5C12 5.77614 11.7761 6 11.5 6C11.2239 6 11 6.22386 11 6.5V7V8V8.5C11 8.77614 10.7761 9 10.5 9H10H9.5C9.22386 9 9 8.77614 9 8.5C9 8.22386 8.77614 8 8.5 8H8H7.5C7.22386 8 7 7.77614 7 7.5C7 7.22386 6.77614 7 6.5 7C6.22386 7 6 6.77614 6 6.5C6 6.22386 5.77614 6 5.5 6H5H4H3.5C3.22386 6 3 6.22386 3 6.5V7V8V9V10V11V12V12.5C3 12.7761 3.22386 13 3.5 13C3.77614 13 4 13.2239 4 13.5C4 13.7761 4.22386 14 4.5 14C4.77614 14 5 14.2239 5 14.5C5 14.7761 5.22386 15 5.5 15C5.77614 15 6 15.2239 6 15.5C6 15.7761 6.22386 16 6.5 16C6.77614 16 7 16.2239 7 16.5C7 16.7761 6.77614 17 6.5 17C6.22386 17 6 17.2239 6 17.5C6 17.7761 5.77614 18 5.5 18C5.22386 18 5 18.2239 5 18.5V19V19.5C5 19.7761 5.22386 20 5.5 20H6H7H8H9H10H11H12H13H14H15H15.5C15.7761 20 16 19.7761 16 19.5C16 19.2239 16.2239 19 16.5 19C16.7761 19 17 18.7761 17 18.5C17 18.2239 17.2239 18 17.5 18C17.7761 18 18 17.7761 18 17.5C18 17.2239 18.2239 17 18.5 17C18.7761 17 19 16.7761 19 16.5V16V15V14V13V12.5C19 12.2239 19.2239 12 19.5 12C19.7761 12 20 11.7761 20 11.5C20 11.2239 20.2239 11 20.5 11C20.7761 11 21 10.7761 21 10.5V10V9V8.5C21 8.22386 20.7761 8 20.5 8H20H19.5C19.2239 8 19 7.77614 19 7.5V7V6.5C19 6.22386 18.7761 6 18.5 6C18.2239 6 18 5.77614 18 5.5C18 5.22386 17.7761 5 17.5 5C17.2239 5 17 4.77614 17 4.5C17 4.22386 16.7761 4 16.5 4H16H15H14ZM5 11V11.5C5 11.7761 5.22386 12 5.5 12C5.77614 12 6 12.2239 6 12.5C6 12.7761 6.22386 13 6.5 13C6.77614 13 7 13.2239 7 13.5C7 13.7761 7.22386 14 7.5 14C7.77614 14 8 14.2239 8 14.5C8 14.7761 8.22386 15 8.5 15C8.77614 15 9 15.2239 9 15.5V16V16.5C9 16.7761 8.77614 17 8.5 17C8.22386 17 8 17.2239 8 17.5C8 17.7761 8.22386 18 8.5 18H9H10H11H12H13H14H14.5C14.7761 18 15 17.7761 15 17.5C15 17.2239 15.2239 17 15.5 17C15.7761 17 16 16.7761 16 16.5C16 16.2239 16.2239 16 16.5 16C16.7761 16 17 15.7761 17 15.5V15V14V13V12V11.5C17 11.2239 17.2239 11 17.5 11C17.7761 11 18 10.7761 18 10.5C18 10.2239 18.2239 10 18.5 10C18.7761 10 19 9.77614 19 9.5C19 9.22386 18.7761 9 18.5 9H18H17.5C17.2239 9 17 8.77614 17 8.5V8V7.5C17 7.22386 16.7761 7 16.5 7C16.2239 7 16 6.77614 16 6.5C16 6.22386 15.7761 6 15.5 6H15H14.5C14.2239 6 14 6.22386 14 6.5C14 6.77614 13.7761 7 13.5 7C13.2239 7 13 7.22386 13 7.5V8V9V10V10.5C13 10.7761 12.7761 11 12.5 11H12H11H10H9H8.5C8.22386 11 8 10.7761 8 10.5C8 10.2239 7.77614 10 7.5 10H7H6.5C6.22386 10 6 9.77614 6 9.5C6 9.22386 5.77614 9 5.5 9C5.22386 9 5 9.22386 5 9.5V10V11Z" fill="black"/>
</svg>
