<svg width="24" height="24" viewBox="0 0 24 24" fill="none" xmlns="http://www.w3.org/2000/svg">
<path fill-rule="evenodd" clip-rule="evenodd" d="M9 2.5C9 2.22386 9.22386 2 9.5 2H10H11H12H13H14H14.5C14.7761 2 15 2.22386 15 2.5C15 2.77614 15.2239 3 15.5 3C15.7761 3 16 3.22386 16 3.5C16 3.77614 16.2239 4 16.5 4C16.7761 4 17 4.22386 17 4.5V5V6V6.5C17 6.77614 16.7761 7 16.5 7H16H15.5C15.2239 7 15 6.77614 15 6.5V6V5.5C15 5.22386 14.7761 5 14.5 5C14.2239 5 14 4.77614 14 4.5C14 4.22386 13.7761 4 13.5 4H13H12H11H10.5C10.2239 4 10 4.22386 10 4.5C10 4.77614 9.77614 5 9.5 5C9.22386 5 9 5.22386 9 5.5V6V7V8V9V9.5C9 9.77614 9.22386 10 9.5 10H10H11H12H13H14H15H16H17H18H19H19.5C19.7761 10 20 10.2239 20 10.5V11V12V13V14V15V16V17V18V19V20V21V21.5C20 21.7761 19.7761 22 19.5 22H19H18H17H16H15H14H13H12H11H10H9H8H7H6H5H4.5C4.22386 22 4 21.7761 4 21.5V21V20V19V18V17V16V15V14V13V12V11V10.5C4 10.2239 4.22386 10 4.5 10H5H6H6.5C6.77614 10 7 9.77614 7 9.5V9V8V7V6V5V4.5C7 4.22386 7.22386 4 7.5 4C7.77614 4 8 3.77614 8 3.5C8 3.22386 8.22386 3 8.5 3C8.77614 3 9 2.77614 9 2.5ZM18 13V12.5C18 12.2239 17.7761 12 17.5 12H17H16H15H14H13H12H11H10H9H8H7H6.5C6.22386 12 6 12.2239 6 12.5V13V14V15V16V17V18V19V19.5C6 19.7761 6.22386 20 6.5 20H7H8H9H10H11H12H13H14H15H16H17H17.5C17.7761 20 18 19.7761 18 19.5V19V18V17V16V15V14V13Z" fill="black"/>
</svg>
