<svg width="24" height="24" viewBox="0 0 24 24" fill="none" xmlns="http://www.w3.org/2000/svg">
<path fill-rule="evenodd" clip-rule="evenodd" d="M10 5H10.5C10.7761 5 11 5.22386 11 5.5C11 5.77614 11.2239 6 11.5 6C11.7761 6 12 6.22386 12 6.5V7V8V9V9.5C12 9.77614 11.7761 10 11.5 10C11.2239 10 11 10.2239 11 10.5C11 10.7761 10.7761 11 10.5 11H10H9H8H7.5C7.22386 11 7 10.7761 7 10.5C7 10.2239 6.77614 10 6.5 10C6.22386 10 6 9.77614 6 9.5V9V8V7V6.5C6 6.22386 6.22386 6 6.5 6C6.77614 6 7 5.77614 7 5.5C7 5.22386 7.22386 5 7.5 5H8H9H10ZM6 12.5C6 12.2239 5.77614 12 5.5 12C5.22386 12 5 11.7761 5 11.5C5 11.2239 4.77614 11 4.5 11C4.22386 11 4 10.7761 4 10.5V10V9V8V7V6V5.5C4 5.22386 4.22386 5 4.5 5C4.77614 5 5 4.77614 5 4.5C5 4.22386 5.22386 4 5.5 4C5.77614 4 6 3.77614 6 3.5C6 3.22386 6.22386 3 6.5 3H7H8H9H10H11H11.5C11.7761 3 12 3.22386 12 3.5C12 3.77614 12.2239 4 12.5 4C12.7761 4 13 4.22386 13 4.5C13 4.77614 13.2239 5 13.5 5C13.7761 5 14 5.22386 14 5.5V6V7V8V9V10V10.5C14 10.7761 13.7761 11 13.5 11C13.2239 11 13 11.2239 13 11.5C13 11.7761 12.7761 12 12.5 12C12.2239 12 12 12.2239 12 12.5C12 12.7761 11.7761 13 11.5 13H11H10H9H8H7H6.5C6.22386 13 6 12.7761 6 12.5ZM17 5.5C17 5.22386 16.7761 5 16.5 5H16H15.5C15.2239 5 15 4.77614 15 4.5V4V3.5C15 3.22386 15.2239 3 15.5 3H16H17H17.5C17.7761 3 18 3.22386 18 3.5C18 3.77614 18.2239 4 18.5 4C18.7761 4 19 4.22386 19 4.5C19 4.77614 19.2239 5 19.5 5C19.7761 5 20 5.22386 20 5.5V6V7V8V9V10V10.5C20 10.7761 19.7761 11 19.5 11C19.2239 11 19 11.2239 19 11.5C19 11.7761 18.7761 12 18.5 12C18.2239 12 18 12.2239 18 12.5C18 12.7761 17.7761 13 17.5 13H17H16H15.5C15.2239 13 15 12.7761 15 12.5V12V11.5C15 11.2239 15.2239 11 15.5 11H16H16.5C16.7761 11 17 10.7761 17 10.5C17 10.2239 17.2239 10 17.5 10C17.7761 10 18 9.77614 18 9.5V9V8V7V6.5C18 6.22386 17.7761 6 17.5 6C17.2239 6 17 5.77614 17 5.5ZM3 21H2.5C2.22386 21 2 20.7761 2 20.5V20V19V18V17V16V15V14.5C2 14.2239 2.22386 14 2.5 14H3H4H5H6H7H8H9H10H11H12H13H14H15H15.5C15.7761 14 16 14.2239 16 14.5V15V16V17V18V19V20V20.5C16 20.7761 15.7761 21 15.5 21H15H14.5C14.2239 21 14 20.7761 14 20.5V20V19V18V17V16.5C14 16.2239 13.7761 16 13.5 16H13H12H11H10H9H8H7H6H5H4.5C4.22386 16 4 16.2239 4 16.5V17V18V19V20V20.5C4 20.7761 3.77614 21 3.5 21H3ZM19 16H19.5C19.7761 16 20 16.2239 20 16.5V17V18V19V20V20.5C20 20.7761 20.2239 21 20.5 21H21H21.5C21.7761 21 22 20.7761 22 20.5V20V19V18V17V16V15V14.5C22 14.2239 21.7761 14 21.5 14H21H20H19H18H17.5C17.2239 14 17 14.2239 17 14.5V15V15.5C17 15.7761 17.2239 16 17.5 16H18H19Z" fill="black"/>
</svg>
