<svg width="24" height="24" viewBox="0 0 24 24" fill="none" xmlns="http://www.w3.org/2000/svg">
<path fill-rule="evenodd" clip-rule="evenodd" d="M4 4H3.5C3.22386 4 3 4.22386 3 4.5V5V5.5C3 5.77614 3.22386 6 3.5 6C3.77614 6 4 6.22386 4 6.5C4 6.77614 4.22386 7 4.5 7C4.77614 7 5 7.22386 5 7.5C5 7.77614 5.22386 8 5.5 8C5.77614 8 6 8.22386 6 8.5C6 8.77614 6.22386 9 6.5 9C6.77614 9 7 9.22386 7 9.5C7 9.77614 7.22386 10 7.5 10C7.77614 10 8 10.2239 8 10.5C8 10.7761 8.22386 11 8.5 11C8.77614 11 9 11.2239 9 11.5C9 11.7761 9.22386 12 9.5 12C9.77614 12 10 12.2239 10 12.5C10 12.7761 10.2239 13 10.5 13C10.7761 13 11 13.2239 11 13.5C11 13.7761 11.2239 14 11.5 14C11.7761 14 12 14.2239 12 14.5C12 14.7761 12.2239 15 12.5 15C12.7761 15 13 15.2239 13 15.5C13 15.7761 13.2239 16 13.5 16C13.7761 16 14 16.2239 14 16.5C14 16.7761 14.2239 17 14.5 17C14.7761 17 15 17.2239 15 17.5C15 17.7761 15.2239 18 15.5 18C15.7761 18 16 18.2239 16 18.5C16 18.7761 16.2239 19 16.5 19C16.7761 19 17 19.2239 17 19.5C17 19.7761 17.2239 20 17.5 20C17.7761 20 18 20.2239 18 20.5C18 20.7761 18.2239 21 18.5 21H19H19.5C19.7761 21 20 20.7761 20 20.5V20V19.5C20 19.2239 19.7761 19 19.5 19C19.2239 19 19 18.7761 19 18.5C19 18.2239 18.7761 18 18.5 18C18.2239 18 18 17.7761 18 17.5C18 17.2239 17.7761 17 17.5 17C17.2239 17 17 16.7761 17 16.5C17 16.2239 16.7761 16 16.5 16C16.2239 16 16 15.7761 16 15.5C16 15.2239 15.7761 15 15.5 15C15.2239 15 15 14.7761 15 14.5C15 14.2239 14.7761 14 14.5 14C14.2239 14 14 13.7761 14 13.5C14 13.2239 13.7761 13 13.5 13C13.2239 13 13 12.7761 13 12.5C13 12.2239 12.7761 12 12.5 12C12.2239 12 12 11.7761 12 11.5C12 11.2239 11.7761 11 11.5 11C11.2239 11 11 10.7761 11 10.5C11 10.2239 10.7761 10 10.5 10C10.2239 10 10 9.77614 10 9.5C10 9.22386 9.77614 9 9.5 9C9.22386 9 9 8.77614 9 8.5C9 8.22386 8.77614 8 8.5 8C8.22386 8 8 7.77614 8 7.5C8 7.22386 7.77614 7 7.5 7C7.22386 7 7 6.77614 7 6.5C7 6.22386 6.77614 6 6.5 6C6.22386 6 6 5.77614 6 5.5C6 5.22386 5.77614 5 5.5 5C5.22386 5 5 4.77614 5 4.5C5 4.22386 4.77614 4 4.5 4H4ZM17 5.5C17 5.22386 16.7761 5 16.5 5H16H15H14H13H12H11H10H9H8.5C8.22386 5 8 5.22386 8 5.5C8 5.77614 8.22386 6 8.5 6C8.77614 6 9 6.22386 9 6.5C9 6.77614 9.22386 7 9.5 7H10H11H12H13H14H14.5C14.7761 7 15 7.22386 15 7.5V8V9V10V11V12V12.5C15 12.7761 15.2239 13 15.5 13C15.7761 13 16 13.2239 16 13.5C16 13.7761 16.2239 14 16.5 14C16.7761 14 17 14.2239 17 14.5C17 14.7761 17.2239 15 17.5 15C17.7761 15 18 15.2239 18 15.5C18 15.7761 18.2239 16 18.5 16C18.7761 16 19 16.2239 19 16.5C19 16.7761 19.2239 17 19.5 17C19.7761 17 20 17.2239 20 17.5C20 17.7761 20.2239 18 20.5 18H21H21.5C21.7761 18 22 17.7761 22 17.5V17V16V15V14V13V12V11V10V9V8V7V6.5C22 6.22386 21.7761 6 21.5 6H21H20H19.5C19.2239 6 19 6.22386 19 6.5C19 6.77614 18.7761 7 18.5 7C18.2239 7 18 7.22386 18 7.5C18 7.77614 17.7761 8 17.5 8C17.2239 8 17 7.77614 17 7.5V7V6V5.5ZM18 13.5C18 13.7761 18.2239 14 18.5 14C18.7761 14 19 14.2239 19 14.5C19 14.7761 19.2239 15 19.5 15C19.7761 15 20 14.7761 20 14.5V14V13V12V11V10V9.5C20 9.22386 19.7761 9 19.5 9C19.2239 9 19 9.22386 19 9.5C19 9.77614 18.7761 10 18.5 10C18.2239 10 18 10.2239 18 10.5C18 10.7761 17.7761 11 17.5 11C17.2239 11 17 11.2239 17 11.5V12V12.5C17 12.7761 17.2239 13 17.5 13C17.7761 13 18 13.2239 18 13.5ZM12 17H12.5C12.7761 17 13 17.2239 13 17.5C13 17.7761 13.2239 18 13.5 18C13.7761 18 14 18.2239 14 18.5C14 18.7761 13.7761 19 13.5 19H13H12H11H10H9H8H7H6H5H4H3H2.5C2.22386 19 2 18.7761 2 18.5V18V17V16V15V14V13V12V11V10V9V8V7.5C2 7.22386 2.22386 7 2.5 7C2.77614 7 3 7.22386 3 7.5C3 7.77614 3.22386 8 3.5 8C3.77614 8 4 8.22386 4 8.5V9V10V11V12V13V14V15V16V16.5C4 16.7761 4.22386 17 4.5 17H5H6H7H8H9H10H11H12Z" fill="black"/>
</svg>
