<svg width="24" height="24" viewBox="0 0 24 24" fill="none" xmlns="http://www.w3.org/2000/svg">
<path fill-rule="evenodd" clip-rule="evenodd" d="M7 10H7.5C7.77614 10 8 10.2239 8 10.5C8 10.7761 8.22386 11 8.5 11C8.77614 11 9 11.2239 9 11.5V12V12.5C9 12.7761 8.77614 13 8.5 13C8.22386 13 8 13.2239 8 13.5C8 13.7761 7.77614 14 7.5 14H7H6.5C6.22386 14 6 13.7761 6 13.5C6 13.2239 5.77614 13 5.5 13C5.22386 13 5 12.7761 5 12.5V12V11.5C5 11.2239 5.22386 11 5.5 11C5.77614 11 6 10.7761 6 10.5C6 10.2239 6.22386 10 6.5 10H7ZM4 14.5C4 14.7761 4.22386 15 4.5 15C4.77614 15 5 15.2239 5 15.5C5 15.7761 5.22386 16 5.5 16H6H7H8H9H10H11H12H13H14H15H16H17H18H18.5C18.7761 16 19 15.7761 19 15.5C19 15.2239 19.2239 15 19.5 15C19.7761 15 20 14.7761 20 14.5C20 14.2239 20.2239 14 20.5 14C20.7761 14 21 13.7761 21 13.5V13V12V11V10.5C21 10.2239 20.7761 10 20.5 10C20.2239 10 20 9.77614 20 9.5C20 9.22386 19.7761 9 19.5 9C19.2239 9 19 8.77614 19 8.5C19 8.22386 18.7761 8 18.5 8H18H17H16H15.5C15.2239 8 15 8.22386 15 8.5C15 8.77614 14.7761 9 14.5 9C14.2239 9 14 9.22386 14 9.5C14 9.77614 13.7761 10 13.5 10C13.2239 10 13 10.2239 13 10.5V11V12V13V13.5C13 13.7761 12.7761 14 12.5 14H12H11.5C11.2239 14 11 13.7761 11 13.5V13V12V11V10.5C11 10.2239 10.7761 10 10.5 10C10.2239 10 10 9.77614 10 9.5C10 9.22386 9.77614 9 9.5 9C9.22386 9 9 8.77614 9 8.5C9 8.22386 8.77614 8 8.5 8H8H7H6H5.5C5.22386 8 5 8.22386 5 8.5C5 8.77614 4.77614 9 4.5 9C4.22386 9 4 9.22386 4 9.5C4 9.77614 3.77614 10 3.5 10C3.22386 10 3 10.2239 3 10.5V11V12V13V13.5C3 13.7761 3.22386 14 3.5 14C3.77614 14 4 14.2239 4 14.5ZM18 10.5C18 10.2239 17.7761 10 17.5 10H17H16.5C16.2239 10 16 10.2239 16 10.5C16 10.7761 15.7761 11 15.5 11C15.2239 11 15 11.2239 15 11.5V12V12.5C15 12.7761 15.2239 13 15.5 13C15.7761 13 16 13.2239 16 13.5C16 13.7761 16.2239 14 16.5 14H17H17.5C17.7761 14 18 13.7761 18 13.5C18 13.2239 18.2239 13 18.5 13C18.7761 13 19 12.7761 19 12.5V12V11.5C19 11.2239 18.7761 11 18.5 11C18.2239 11 18 10.7761 18 10.5Z" fill="black"/>
</svg>
