<svg width="24" height="24" viewBox="0 0 24 24" fill="none" xmlns="http://www.w3.org/2000/svg">
<path fill-rule="evenodd" clip-rule="evenodd" d="M14 4H14.5C14.7761 4 15 4.22386 15 4.5V5V6V7V8V9V10V11V12V13V14V15V16V17V18V19V19.5C15 19.7761 14.7761 20 14.5 20H14H13H12H11.5C11.2239 20 11 19.7761 11 19.5C11 19.2239 10.7761 19 10.5 19C10.2239 19 10 18.7761 10 18.5C10 18.2239 9.77614 18 9.5 18C9.22386 18 9 17.7761 9 17.5C9 17.2239 8.77614 17 8.5 17C8.22386 17 8 16.7761 8 16.5C8 16.2239 7.77614 16 7.5 16H7H6H5H4H3.5C3.22386 16 3 15.7761 3 15.5C3 15.2239 2.77614 15 2.5 15C2.22386 15 2 14.7761 2 14.5V14V13V12V11V10V9.5C2 9.22386 2.22386 9 2.5 9C2.77614 9 3 8.77614 3 8.5C3 8.22386 3.22386 8 3.5 8H4H5H6H7H7.5C7.77614 8 8 7.77614 8 7.5C8 7.22386 8.22386 7 8.5 7C8.77614 7 9 6.77614 9 6.5C9 6.22386 9.22386 6 9.5 6C9.77614 6 10 5.77614 10 5.5C10 5.22386 10.2239 5 10.5 5C10.7761 5 11 4.77614 11 4.5C11 4.22386 11.2239 4 11.5 4H12H13H14ZM12 17.5C12 17.2239 11.7761 17 11.5 17C11.2239 17 11 16.7761 11 16.5C11 16.2239 10.7761 16 10.5 16C10.2239 16 10 15.7761 10 15.5C10 15.2239 9.77614 15 9.5 15C9.22386 15 9 14.7761 9 14.5C9 14.2239 8.77614 14 8.5 14H8H7H6H5.5C5.22386 14 5 13.7761 5 13.5C5 13.2239 4.77614 13 4.5 13C4.22386 13 4 12.7761 4 12.5V12V11.5C4 11.2239 4.22386 11 4.5 11C4.77614 11 5 10.7761 5 10.5C5 10.2239 5.22386 10 5.5 10H6H7H8H8.5C8.77614 10 9 9.77614 9 9.5C9 9.22386 9.22386 9 9.5 9C9.77614 9 10 8.77614 10 8.5C10 8.22386 10.2239 8 10.5 8C10.7761 8 11 7.77614 11 7.5C11 7.22386 11.2239 7 11.5 7C11.7761 7 12 6.77614 12 6.5C12 6.22386 12.2239 6 12.5 6C12.7761 6 13 6.22386 13 6.5V7V8V9V10V11V12V13V14V15V16V17V17.5C13 17.7761 12.7761 18 12.5 18C12.2239 18 12 17.7761 12 17.5ZM17 8H17.5C17.7761 8 18 8.22386 18 8.5V9V9.5C18 9.77614 18.2239 10 18.5 10C18.7761 10 19 10.2239 19 10.5V11V12V13V13.5C19 13.7761 18.7761 14 18.5 14C18.2239 14 18 14.2239 18 14.5V15V15.5C18 15.7761 17.7761 16 17.5 16H17H16.5C16.2239 16 16 15.7761 16 15.5V15V14.5C16 14.2239 16.2239 14 16.5 14C16.7761 14 17 13.7761 17 13.5V13V12V11V10.5C17 10.2239 16.7761 10 16.5 10C16.2239 10 16 9.77614 16 9.5V9V8.5C16 8.22386 16.2239 8 16.5 8H17Z" fill="black"/>
</svg>
