<svg width="24" height="24" viewBox="0 0 24 24" fill="none" xmlns="http://www.w3.org/2000/svg">
<path fill-rule="evenodd" clip-rule="evenodd" d="M5 4H5.5C5.77614 4 6 4.22386 6 4.5C6 4.77614 6.22386 5 6.5 5C6.77614 5 7 5.22386 7 5.5C7 5.77614 7.22386 6 7.5 6C7.77614 6 8 6.22386 8 6.5C8 6.77614 8.22386 7 8.5 7C8.77614 7 9 7.22386 9 7.5C9 7.77614 9.22386 8 9.5 8C9.77614 8 10 8.22386 10 8.5C10 8.77614 10.2239 9 10.5 9C10.7761 9 11 9.22386 11 9.5C11 9.77614 11.2239 10 11.5 10C11.7761 10 12 10.2239 12 10.5C12 10.7761 12.2239 11 12.5 11C12.7761 11 13 11.2239 13 11.5C13 11.7761 13.2239 12 13.5 12C13.7761 12 14 12.2239 14 12.5C14 12.7761 14.2239 13 14.5 13C14.7761 13 15 13.2239 15 13.5C15 13.7761 15.2239 14 15.5 14C15.7761 14 16 14.2239 16 14.5C16 14.7761 16.2239 15 16.5 15C16.7761 15 17 15.2239 17 15.5C17 15.7761 17.2239 16 17.5 16C17.7761 16 18 16.2239 18 16.5C18 16.7761 18.2239 17 18.5 17C18.7761 17 19 17.2239 19 17.5C19 17.7761 19.2239 18 19.5 18C19.7761 18 20 18.2239 20 18.5V19V19.5C20 19.7761 19.7761 20 19.5 20H19H18.5C18.2239 20 18 19.7761 18 19.5C18 19.2239 17.7761 19 17.5 19C17.2239 19 17 18.7761 17 18.5C17 18.2239 16.7761 18 16.5 18C16.2239 18 16 17.7761 16 17.5C16 17.2239 15.7761 17 15.5 17C15.2239 17 15 16.7761 15 16.5C15 16.2239 14.7761 16 14.5 16C14.2239 16 14 15.7761 14 15.5C14 15.2239 13.7761 15 13.5 15C13.2239 15 13 14.7761 13 14.5C13 14.2239 12.7761 14 12.5 14C12.2239 14 12 13.7761 12 13.5C12 13.2239 11.7761 13 11.5 13C11.2239 13 11 12.7761 11 12.5C11 12.2239 10.7761 12 10.5 12C10.2239 12 10 11.7761 10 11.5C10 11.2239 9.77614 11 9.5 11C9.22386 11 9 10.7761 9 10.5C9 10.2239 8.77614 10 8.5 10C8.22386 10 8 9.77614 8 9.5C8 9.22386 7.77614 9 7.5 9C7.22386 9 7 8.77614 7 8.5C7 8.22386 6.77614 8 6.5 8C6.22386 8 6 7.77614 6 7.5C6 7.22386 5.77614 7 5.5 7C5.22386 7 5 6.77614 5 6.5C5 6.22386 4.77614 6 4.5 6C4.22386 6 4 5.77614 4 5.5V5V4.5C4 4.22386 4.22386 4 4.5 4H5ZM14 5H13H12H11H10H9.5C9.22386 5 9 5.22386 9 5.5C9 5.77614 9.22386 6 9.5 6C9.77614 6 10 6.22386 10 6.5C10 6.77614 10.2239 7 10.5 7H11H12H13H13.5C13.7761 7 14 7.22386 14 7.5C14 7.77614 14.2239 8 14.5 8H15H15.5C15.7761 8 16 8.22386 16 8.5C16 8.77614 16.2239 9 16.5 9H17H17.5C17.7761 9 18 9.22386 18 9.5C18 9.77614 18.2239 10 18.5 10H19H19.5C19.7761 10 20 10.2239 20 10.5C20 10.7761 20.2239 11 20.5 11H21H21.5C21.7761 11 22 10.7761 22 10.5V10V9.5C22 9.22386 21.7761 9 21.5 9C21.2239 9 21 8.77614 21 8.5C21 8.22386 20.7761 8 20.5 8H20H19.5C19.2239 8 19 7.77614 19 7.5C19 7.22386 18.7761 7 18.5 7H18H17.5C17.2239 7 17 6.77614 17 6.5C17 6.22386 16.7761 6 16.5 6H16H15.5C15.2239 6 15 5.77614 15 5.5C15 5.22386 14.7761 5 14.5 5H14ZM2 9.5C2 9.22386 2.22386 9 2.5 9C2.77614 9 3 8.77614 3 8.5C3 8.22386 3.22386 8 3.5 8H4H4.5C4.77614 8 5 8.22386 5 8.5C5 8.77614 5.22386 9 5.5 9C5.77614 9 6 9.22386 6 9.5C6 9.77614 5.77614 10 5.5 10H5H4.5C4.22386 10 4 10.2239 4 10.5C4 10.7761 3.77614 11 3.5 11H3H2.5C2.22386 11 2 10.7761 2 10.5V10V9.5ZM9 12.5C9 12.2239 8.77614 12 8.5 12C8.22386 12 8 11.7761 8 11.5C8 11.2239 7.77614 11 7.5 11H7H6.5C6.22386 11 6 11.2239 6 11.5C6 11.7761 5.77614 12 5.5 12C5.22386 12 5 12.2239 5 12.5V13V13.5C5 13.7761 5.22386 14 5.5 14H6H6.5C6.77614 14 7 13.7761 7 13.5C7 13.2239 7.22386 13 7.5 13H8H8.5C8.77614 13 9 12.7761 9 12.5ZM8.5 15C8.77614 15 9 14.7761 9 14.5C9 14.2239 9.22386 14 9.5 14H10H10.5C10.7761 14 11 14.2239 11 14.5V15V15.5C11 15.7761 10.7761 16 10.5 16C10.2239 16 10 16.2239 10 16.5C10 16.7761 9.77614 17 9.5 17H9H8.5C8.22386 17 8 16.7761 8 16.5V16V15.5C8 15.2239 8.22386 15 8.5 15ZM13 18.5C13 18.2239 12.7761 18 12.5 18H12H11.5C11.2239 18 11 18.2239 11 18.5V19V19.5C11 19.7761 11.2239 20 11.5 20H12H12.5C12.7761 20 13 19.7761 13 19.5V19V18.5ZM14 10H15H15.5C15.7761 10 16 10.2239 16 10.5C16 10.7761 16.2239 11 16.5 11H17H17.5C17.7761 11 18 11.2239 18 11.5C18 11.7761 18.2239 12 18.5 12C18.7761 12 19 12.2239 19 12.5V13V13.5C19 13.7761 18.7761 14 18.5 14H18H17.5C17.2239 14 17 13.7761 17 13.5C17 13.2239 16.7761 13 16.5 13C16.2239 13 16 12.7761 16 12.5C16 12.2239 15.7761 12 15.5 12C15.2239 12 15 11.7761 15 11.5C15 11.2239 14.7761 11 14.5 11C14.2239 11 14 10.7761 14 10.5V10ZM14 10H13.5C13.2239 10 13 9.77614 13 9.5C13 9.22386 13.2239 9 13.5 9C13.7761 9 14 9.22386 14 9.5V10Z" fill="black"/>
</svg>
