<svg width="24" height="24" viewBox="0 0 24 24" fill="none" xmlns="http://www.w3.org/2000/svg">
<path fill-rule="evenodd" clip-rule="evenodd" d="M7 6H6.5C6.22386 6 6 6.22386 6 6.5V7V7.5C6 7.77614 6.22386 8 6.5 8C6.77614 8 7 8.22386 7 8.5C7 8.77614 7.22386 9 7.5 9C7.77614 9 8 9.22386 8 9.5C8 9.77614 8.22386 10 8.5 10C8.77614 10 9 10.2239 9 10.5C9 10.7761 9.22386 11 9.5 11C9.77614 11 10 11.2239 10 11.5V12V12.5C10 12.7761 9.77614 13 9.5 13C9.22386 13 9 13.2239 9 13.5C9 13.7761 8.77614 14 8.5 14C8.22386 14 8 14.2239 8 14.5C8 14.7761 7.77614 15 7.5 15C7.22386 15 7 15.2239 7 15.5C7 15.7761 6.77614 16 6.5 16C6.22386 16 6 16.2239 6 16.5V17V17.5C6 17.7761 6.22386 18 6.5 18H7H7.5C7.77614 18 8 17.7761 8 17.5C8 17.2239 8.22386 17 8.5 17C8.77614 17 9 16.7761 9 16.5C9 16.2239 9.22386 16 9.5 16C9.77614 16 10 15.7761 10 15.5C10 15.2239 10.2239 15 10.5 15C10.7761 15 11 14.7761 11 14.5C11 14.2239 11.2239 14 11.5 14H12H12.5C12.7761 14 13 14.2239 13 14.5C13 14.7761 13.2239 15 13.5 15C13.7761 15 14 15.2239 14 15.5C14 15.7761 14.2239 16 14.5 16C14.7761 16 15 16.2239 15 16.5C15 16.7761 15.2239 17 15.5 17C15.7761 17 16 17.2239 16 17.5C16 17.7761 16.2239 18 16.5 18H17H17.5C17.7761 18 18 17.7761 18 17.5V17V16.5C18 16.2239 17.7761 16 17.5 16C17.2239 16 17 15.7761 17 15.5C17 15.2239 16.7761 15 16.5 15C16.2239 15 16 14.7761 16 14.5C16 14.2239 15.7761 14 15.5 14C15.2239 14 15 13.7761 15 13.5C15 13.2239 14.7761 13 14.5 13C14.2239 13 14 12.7761 14 12.5V12V11.5C14 11.2239 14.2239 11 14.5 11C14.7761 11 15 10.7761 15 10.5C15 10.2239 15.2239 10 15.5 10C15.7761 10 16 9.77614 16 9.5C16 9.22386 16.2239 9 16.5 9C16.7761 9 17 8.77614 17 8.5C17 8.22386 17.2239 8 17.5 8C17.7761 8 18 7.77614 18 7.5V7V6.5C18 6.22386 17.7761 6 17.5 6H17H16.5C16.2239 6 16 6.22386 16 6.5C16 6.77614 15.7761 7 15.5 7C15.2239 7 15 7.22386 15 7.5C15 7.77614 14.7761 8 14.5 8C14.2239 8 14 8.22386 14 8.5C14 8.77614 13.7761 9 13.5 9C13.2239 9 13 9.22386 13 9.5C13 9.77614 12.7761 10 12.5 10H12H11.5C11.2239 10 11 9.77614 11 9.5C11 9.22386 10.7761 9 10.5 9C10.2239 9 10 8.77614 10 8.5C10 8.22386 9.77614 8 9.5 8C9.22386 8 9 7.77614 9 7.5C9 7.22386 8.77614 7 8.5 7C8.22386 7 8 6.77614 8 6.5C8 6.22386 7.77614 6 7.5 6H7Z" fill="black"/>
</svg>
