<svg width="24" height="24" viewBox="0 0 24 24" fill="none" xmlns="http://www.w3.org/2000/svg">
<path fill-rule="evenodd" clip-rule="evenodd" d="M4 3H3.5C3.22386 3 3 3.22386 3 3.5V4V5V6V7V8V9V10V11V12V13V14V15V16V17V18V19V20V20.5C3 20.7761 3.22386 21 3.5 21H4H5H6H7H8H9H10H11H12H13H14H15H16H17H18H19H20H20.5C20.7761 21 21 20.7761 21 20.5V20V19V18V17V16V15V14V13V12V11V10V9V8V7V6V5V4V3.5C21 3.22386 20.7761 3 20.5 3H20H19H18H17H16H15H14H13H12H11H10H9H8H7H6H5H4ZM18 5H18.5C18.7761 5 19 5.22386 19 5.5V6V7V8V9V10V11V12V13V14V15V16V17V18V18.5C19 18.7761 18.7761 19 18.5 19H18H17H16H15H14H13H12H11H10H9H8H7H6H5.5C5.22386 19 5 18.7761 5 18.5V18V17V16V15V14V13V12V11V10V9V8V7V6V5.5C5 5.22386 5.22386 5 5.5 5H6H7H8H9H10H11H12H13H14H15H16H17H18ZM16 15V14.5C16 14.2239 15.7761 14 15.5 14C15.2239 14 15 13.7761 15 13.5C15 13.2239 14.7761 13 14.5 13C14.2239 13 14 12.7761 14 12.5V12V11.5C14 11.2239 14.2239 11 14.5 11C14.7761 11 15 10.7761 15 10.5C15 10.2239 15.2239 10 15.5 10C15.7761 10 16 9.77614 16 9.5V9V8.5C16 8.22386 15.7761 8 15.5 8H15H14.5C14.2239 8 14 8.22386 14 8.5C14 8.77614 13.7761 9 13.5 9C13.2239 9 13 9.22386 13 9.5C13 9.77614 12.7761 10 12.5 10H12H11.5C11.2239 10 11 9.77614 11 9.5C11 9.22386 10.7761 9 10.5 9C10.2239 9 10 8.77614 10 8.5C10 8.22386 9.77614 8 9.5 8H9H8.5C8.22386 8 8 8.22386 8 8.5V9V9.5C8 9.77614 8.22386 10 8.5 10C8.77614 10 9 10.2239 9 10.5C9 10.7761 9.22386 11 9.5 11C9.77614 11 10 11.2239 10 11.5V12V12.5C10 12.7761 9.77614 13 9.5 13C9.22386 13 9 13.2239 9 13.5C9 13.7761 8.77614 14 8.5 14C8.22386 14 8 14.2239 8 14.5V15V15.5C8 15.7761 8.22386 16 8.5 16H9H9.5C9.77614 16 10 15.7761 10 15.5C10 15.2239 10.2239 15 10.5 15C10.7761 15 11 14.7761 11 14.5C11 14.2239 11.2239 14 11.5 14H12H12.5C12.7761 14 13 14.2239 13 14.5C13 14.7761 13.2239 15 13.5 15C13.7761 15 14 15.2239 14 15.5C14 15.7761 14.2239 16 14.5 16H15H15.5C15.7761 16 16 15.7761 16 15.5V15Z" fill="black"/>
</svg>
