<svg width="24" height="24" viewBox="0 0 24 24" fill="none" xmlns="http://www.w3.org/2000/svg">
<path fill-rule="evenodd" clip-rule="evenodd" d="M8 3H9H10H11H12H12.5C12.7761 3 13 3.22386 13 3.5C13 3.77614 13.2239 4 13.5 4C13.7761 4 14 4.22386 14 4.5C14 4.77614 14.2239 5 14.5 5C14.7761 5 15 5.22386 15 5.5C15 5.77614 15.2239 6 15.5 6C15.7761 6 16 6.22386 16 6.5C16 6.77614 16.2239 7 16.5 7C16.7761 7 17 7.22386 17 7.5V8V9V10V11V12V12.5C17 12.7761 16.7761 13 16.5 13C16.2239 13 16 13.2239 16 13.5V14V14.5C16 14.7761 16.2239 15 16.5 15C16.7761 15 17 15.2239 17 15.5C17 15.7761 17.2239 16 17.5 16C17.7761 16 18 16.2239 18 16.5C18 16.7761 18.2239 17 18.5 17C18.7761 17 19 17.2239 19 17.5C19 17.7761 19.2239 18 19.5 18C19.7761 18 20 18.2239 20 18.5C20 18.7761 20.2239 19 20.5 19C20.7761 19 21 19.2239 21 19.5V20V20.5C21 20.7761 20.7761 21 20.5 21H20H19.5C19.2239 21 19 20.7761 19 20.5C19 20.2239 18.7761 20 18.5 20C18.2239 20 18 19.7761 18 19.5C18 19.2239 17.7761 19 17.5 19C17.2239 19 17 18.7761 17 18.5C17 18.2239 16.7761 18 16.5 18C16.2239 18 16 17.7761 16 17.5C16 17.2239 15.7761 17 15.5 17C15.2239 17 15 16.7761 15 16.5C15 16.2239 14.7761 16 14.5 16H14H13.5C13.2239 16 13 16.2239 13 16.5C13 16.7761 12.7761 17 12.5 17H12H11H10H9H8H7.5C7.22386 17 7 16.7761 7 16.5C7 16.2239 6.77614 16 6.5 16C6.22386 16 6 15.7761 6 15.5C6 15.2239 5.77614 15 5.5 15C5.22386 15 5 14.7761 5 14.5C5 14.2239 4.77614 14 4.5 14C4.22386 14 4 13.7761 4 13.5C4 13.2239 3.77614 13 3.5 13C3.22386 13 3 12.7761 3 12.5V12V11V10V9V8V7.5C3 7.22386 3.22386 7 3.5 7C3.77614 7 4 6.77614 4 6.5C4 6.22386 4.22386 6 4.5 6C4.77614 6 5 5.77614 5 5.5C5 5.22386 5.22386 5 5.5 5C5.77614 5 6 4.77614 6 4.5C6 4.22386 6.22386 4 6.5 4C6.77614 4 7 3.77614 7 3.5C7 3.22386 7.22386 3 7.5 3H8ZM14.5 12C14.7761 12 15 11.7761 15 11.5V11V10V9V8.5C15 8.22386 14.7761 8 14.5 8C14.2239 8 14 7.77614 14 7.5C14 7.22386 13.7761 7 13.5 7C13.2239 7 13 6.77614 13 6.5C13 6.22386 12.7761 6 12.5 6C12.2239 6 12 5.77614 12 5.5C12 5.22386 11.7761 5 11.5 5H11H10H9H8.5C8.22386 5 8 5.22386 8 5.5C8 5.77614 7.77614 6 7.5 6C7.22386 6 7 6.22386 7 6.5C7 6.77614 6.77614 7 6.5 7C6.22386 7 6 7.22386 6 7.5C6 7.77614 5.77614 8 5.5 8C5.22386 8 5 8.22386 5 8.5V9V10V11V11.5C5 11.7761 5.22386 12 5.5 12C5.77614 12 6 12.2239 6 12.5C6 12.7761 6.22386 13 6.5 13C6.77614 13 7 13.2239 7 13.5C7 13.7761 7.22386 14 7.5 14C7.77614 14 8 14.2239 8 14.5C8 14.7761 8.22386 15 8.5 15H9H10H11H11.5C11.7761 15 12 14.7761 12 14.5C12 14.2239 12.2239 14 12.5 14C12.7761 14 13 13.7761 13 13.5C13 13.2239 13.2239 13 13.5 13C13.7761 13 14 12.7761 14 12.5C14 12.2239 14.2239 12 14.5 12ZM9 9H10H11H12H12.5C12.7761 9 13 9.22386 13 9.5V10V10.5C13 10.7761 12.7761 11 12.5 11H12H11H10H9H8H7.5C7.22386 11 7 10.7761 7 10.5V10V9.5C7 9.22386 7.22386 9 7.5 9H8H9Z" fill="black"/>
</svg>
