<svg width="24" height="24" viewBox="0 0 24 24" fill="none" xmlns="http://www.w3.org/2000/svg">
<path fill-rule="evenodd" clip-rule="evenodd" d="M11 2.5C11 2.22386 11.2239 2 11.5 2C11.7761 2 12 2.22386 12 2.5C12 2.77614 11.7761 3 11.5 3C11.2239 3 11 2.77614 11 2.5ZM12 3.5C12 3.22386 11.7761 3 11.5 3C11.2239 3 11 3.22386 11 3.5C11 3.22386 10.7761 3 10.5 3C10.2239 3 10 3.22386 10 3.5C10 3.77614 10.2239 4 10.5 4C10.2239 4 10 4.22386 10 4.5C10 4.77614 10.2239 5 10.5 5C10.2239 5 10 5.22386 10 5.5C10 5.22386 9.77614 5 9.5 5C9.22386 5 9 5.22386 9 5.5C9 5.77614 9.22386 6 9.5 6C9.22386 6 9 6.22386 9 6.5C9 6.77614 9.22386 7 9.5 7C9.22386 7 9 7.22386 9 7.5C9 7.22386 8.77614 7 8.5 7C8.22386 7 8 7.22386 8 7.5C8 7.77614 8.22386 8 8.5 8C8.22386 8 8 8.22386 8 8.5C8 8.77614 8.22386 9 8.5 9C8.22386 9 8 9.22386 8 9.5C8 9.22386 7.77614 9 7.5 9C7.22386 9 7 9.22386 7 9.5C7 9.77614 7.22386 10 7.5 10C7.22386 10 7 10.2239 7 10.5C7 10.7761 7.22386 11 7.5 11C7.22386 11 7 11.2239 7 11.5C7 11.2239 6.77614 11 6.5 11C6.22386 11 6 11.2239 6 11.5C6 11.7761 6.22386 12 6.5 12C6.22386 12 6 12.2239 6 12.5C6 12.7761 6.22386 13 6.5 13C6.22386 13 6 13.2239 6 13.5C6 13.2239 5.77614 13 5.5 13C5.22386 13 5 13.2239 5 13.5C5 13.7761 5.22386 14 5.5 14C5.22386 14 5 14.2239 5 14.5C5 14.7761 5.22386 15 5.5 15C5.22386 15 5 15.2239 5 15.5C5 15.2239 4.77614 15 4.5 15C4.22386 15 4 15.2239 4 15.5C4 15.7761 4.22386 16 4.5 16C4.22386 16 4 16.2239 4 16.5C4 16.7761 4.22386 17 4.5 17C4.22386 17 4 17.2239 4 17.5C4 17.2239 3.77614 17 3.5 17C3.22386 17 3 17.2239 3 17.5C3 17.7761 3.22386 18 3.5 18C3.22386 18 3 18.2239 3 18.5C3 18.7761 3.22386 19 3.5 19C3.22386 19 3 19.2239 3 19.5C3 19.2239 2.77614 19 2.5 19C2.22386 19 2 19.2239 2 19.5C2 19.7761 2.22386 20 2.5 20C2.22386 20 2 20.2239 2 20.5C2 20.7761 2.22386 21 2.5 21C2.77614 21 3 20.7761 3 20.5C3 20.7761 3.22386 21 3.5 21C3.77614 21 4 20.7761 4 20.5C4 20.7761 4.22386 21 4.5 21C4.77614 21 5 20.7761 5 20.5C5 20.7761 5.22386 21 5.5 21C5.77614 21 6 20.7761 6 20.5C6 20.7761 6.22386 21 6.5 21C6.77614 21 7 20.7761 7 20.5C7 20.7761 7.22386 21 7.5 21C7.77614 21 8 20.7761 8 20.5C8 20.7761 8.22386 21 8.5 21C8.77614 21 9 20.7761 9 20.5C9 20.7761 9.22386 21 9.5 21C9.77614 21 10 20.7761 10 20.5C10 20.7761 10.2239 21 10.5 21C10.7761 21 11 20.7761 11 20.5C11 20.7761 11.2239 21 11.5 21C11.7761 21 12 20.7761 12 20.5C12 20.7761 12.2239 21 12.5 21C12.7761 21 13 20.7761 13 20.5C13 20.7761 13.2239 21 13.5 21C13.7761 21 14 20.7761 14 20.5C14 20.7761 14.2239 21 14.5 21C14.7761 21 15 20.7761 15 20.5C15 20.7761 15.2239 21 15.5 21C15.7761 21 16 20.7761 16 20.5C16 20.7761 16.2239 21 16.5 21C16.7761 21 17 20.7761 17 20.5C17 20.7761 17.2239 21 17.5 21C17.7761 21 18 20.7761 18 20.5C18 20.7761 18.2239 21 18.5 21C18.7761 21 19 20.7761 19 20.5C19 20.7761 19.2239 21 19.5 21C19.7761 21 20 20.7761 20 20.5C20 20.7761 20.2239 21 20.5 21C20.7761 21 21 20.7761 21 20.5C21 20.7761 21.2239 21 21.5 21C21.7761 21 22 20.7761 22 20.5C22 20.2239 21.7761 20 21.5 20C21.7761 20 22 19.7761 22 19.5C22 19.2239 21.7761 19 21.5 19C21.2239 19 21 19.2239 21 19.5C21 19.2239 20.7761 19 20.5 19C20.7761 19 21 18.7761 21 18.5C21 18.2239 20.7761 18 20.5 18C20.7761 18 21 17.7761 21 17.5C21 17.2239 20.7761 17 20.5 17C20.2239 17 20 17.2239 20 17.5C20 17.2239 19.7761 17 19.5 17C19.7761 17 20 16.7761 20 16.5C20 16.2239 19.7761 16 19.5 16C19.7761 16 20 15.7761 20 15.5C20 15.2239 19.7761 15 19.5 15C19.2239 15 19 15.2239 19 15.5C19 15.2239 18.7761 15 18.5 15C18.7761 15 19 14.7761 19 14.5C19 14.2239 18.7761 14 18.5 14C18.7761 14 19 13.7761 19 13.5C19 13.2239 18.7761 13 18.5 13C18.2239 13 18 13.2239 18 13.5C18 13.2239 17.7761 13 17.5 13C17.7761 13 18 12.7761 18 12.5C18 12.2239 17.7761 12 17.5 12C17.7761 12 18 11.7761 18 11.5C18 11.2239 17.7761 11 17.5 11C17.2239 11 17 11.2239 17 11.5C17 11.2239 16.7761 11 16.5 11C16.7761 11 17 10.7761 17 10.5C17 10.2239 16.7761 10 16.5 10C16.7761 10 17 9.77614 17 9.5C17 9.22386 16.7761 9 16.5 9C16.2239 9 16 9.22386 16 9.5C16 9.22386 15.7761 9 15.5 9C15.7761 9 16 8.77614 16 8.5C16 8.22386 15.7761 8 15.5 8C15.7761 8 16 7.77614 16 7.5C16 7.22386 15.7761 7 15.5 7C15.2239 7 15 7.22386 15 7.5C15 7.22386 14.7761 7 14.5 7C14.7761 7 15 6.77614 15 6.5C15 6.22386 14.7761 6 14.5 6C14.7761 6 15 5.77614 15 5.5C15 5.22386 14.7761 5 14.5 5C14.2239 5 14 5.22386 14 5.5C14 5.22386 13.7761 5 13.5 5C13.7761 5 14 4.77614 14 4.5C14 4.22386 13.7761 4 13.5 4C13.7761 4 14 3.77614 14 3.5C14 3.22386 13.7761 3 13.5 3C13.2239 3 13 3.22386 13 3.5C13 3.22386 12.7761 3 12.5 3C12.7761 3 13 2.77614 13 2.5C13 2.22386 12.7761 2 12.5 2C12.2239 2 12 2.22386 12 2.5C12 2.77614 12.2239 3 12.5 3C12.2239 3 12 3.22386 12 3.5ZM12.5 4C12.7761 4 13 3.77614 13 3.5C13 3.77614 13.2239 4 13.5 4C13.2239 4 13 4.22386 13 4.5C13 4.22386 12.7761 4 12.5 4ZM12 4.5C12 4.22386 12.2239 4 12.5 4C12.2239 4 12 3.77614 12 3.5C12 3.77614 11.7761 4 11.5 4C11.2239 4 11 3.77614 11 3.5C11 3.77614 10.7761 4 10.5 4C10.7761 4 11 4.22386 11 4.5C11 4.77614 10.7761 5 10.5 5C10.7761 5 11 5.22386 11 5.5C11 5.77614 10.7761 6 10.5 6C10.2239 6 10 5.77614 10 5.5C10 5.77614 9.77614 6 9.5 6C9.77614 6 10 6.22386 10 6.5C10 6.77614 9.77614 7 9.5 7C9.77614 7 10 7.22386 10 7.5C10 7.77614 9.77614 8 9.5 8C9.22386 8 9 7.77614 9 7.5C9 7.77614 8.77614 8 8.5 8C8.77614 8 9 8.22386 9 8.5C9 8.77614 8.77614 9 8.5 9C8.77614 9 9 9.22386 9 9.5C9 9.77614 8.77614 10 8.5 10C8.22386 10 8 9.77614 8 9.5C8 9.77614 7.77614 10 7.5 10C7.77614 10 8 10.2239 8 10.5C8 10.7761 7.77614 11 7.5 11C7.77614 11 8 11.2239 8 11.5C8 11.7761 7.77614 12 7.5 12C7.22386 12 7 11.7761 7 11.5C7 11.7761 6.77614 12 6.5 12C6.77614 12 7 12.2239 7 12.5C7 12.7761 6.77614 13 6.5 13C6.77614 13 7 13.2239 7 13.5C7 13.7761 6.77614 14 6.5 14C6.22386 14 6 13.7761 6 13.5C6 13.7761 5.77614 14 5.5 14C5.77614 14 6 14.2239 6 14.5C6 14.7761 5.77614 15 5.5 15C5.77614 15 6 15.2239 6 15.5C6 15.7761 5.77614 16 5.5 16C5.22386 16 5 15.7761 5 15.5C5 15.7761 4.77614 16 4.5 16C4.77614 16 5 16.2239 5 16.5C5 16.7761 4.77614 17 4.5 17C4.77614 17 5 17.2239 5 17.5C5 17.7761 4.77614 18 4.5 18C4.22386 18 4 17.7761 4 17.5C4 17.7761 3.77614 18 3.5 18C3.77614 18 4 18.2239 4 18.5C4 18.7761 3.77614 19 3.5 19C3.77614 19 4 19.2239 4 19.5C4 19.7761 3.77614 20 3.5 20C3.22386 20 3 19.7761 3 19.5C3 19.7761 2.77614 20 2.5 20C2.77614 20 3 20.2239 3 20.5C3 20.2239 3.22386 20 3.5 20C3.77614 20 4 20.2239 4 20.5C4 20.2239 4.22386 20 4.5 20C4.77614 20 5 20.2239 5 20.5C5 20.2239 5.22386 20 5.5 20C5.77614 20 6 20.2239 6 20.5C6 20.2239 6.22386 20 6.5 20C6.77614 20 7 20.2239 7 20.5C7 20.2239 7.22386 20 7.5 20C7.77614 20 8 20.2239 8 20.5C8 20.2239 8.22386 20 8.5 20C8.77614 20 9 20.2239 9 20.5C9 20.2239 9.22386 20 9.5 20C9.77614 20 10 20.2239 10 20.5C10 20.2239 10.2239 20 10.5 20C10.7761 20 11 20.2239 11 20.5C11 20.2239 11.2239 20 11.5 20C11.7761 20 12 20.2239 12 20.5C12 20.2239 12.2239 20 12.5 20C12.7761 20 13 20.2239 13 20.5C13 20.2239 13.2239 20 13.5 20C13.7761 20 14 20.2239 14 20.5C14 20.2239 14.2239 20 14.5 20C14.7761 20 15 20.2239 15 20.5C15 20.2239 15.2239 20 15.5 20C15.7761 20 16 20.2239 16 20.5C16 20.2239 16.2239 20 16.5 20C16.7761 20 17 20.2239 17 20.5C17 20.2239 17.2239 20 17.5 20C17.7761 20 18 20.2239 18 20.5C18 20.2239 18.2239 20 18.5 20C18.7761 20 19 20.2239 19 20.5C19 20.2239 19.2239 20 19.5 20C19.7761 20 20 20.2239 20 20.5C20 20.2239 20.2239 20 20.5 20C20.7761 20 21 20.2239 21 20.5C21 20.2239 21.2239 20 21.5 20C21.2239 20 21 19.7761 21 19.5C21 19.7761 20.7761 20 20.5 20C20.2239 20 20 19.7761 20 19.5C20 19.2239 20.2239 19 20.5 19C20.2239 19 20 18.7761 20 18.5C20 18.2239 20.2239 18 20.5 18C20.2239 18 20 17.7761 20 17.5C20 17.7761 19.7761 18 19.5 18C19.2239 18 19 17.7761 19 17.5C19 17.2239 19.2239 17 19.5 17C19.2239 17 19 16.7761 19 16.5C19 16.2239 19.2239 16 19.5 16C19.2239 16 19 15.7761 19 15.5C19 15.7761 18.7761 16 18.5 16C18.2239 16 18 15.7761 18 15.5C18 15.2239 18.2239 15 18.5 15C18.2239 15 18 14.7761 18 14.5C18 14.2239 18.2239 14 18.5 14C18.2239 14 18 13.7761 18 13.5C18 13.7761 17.7761 14 17.5 14C17.2239 14 17 13.7761 17 13.5C17 13.2239 17.2239 13 17.5 13C17.2239 13 17 12.7761 17 12.5C17 12.2239 17.2239 12 17.5 12C17.2239 12 17 11.7761 17 11.5C17 11.7761 16.7761 12 16.5 12C16.2239 12 16 11.7761 16 11.5C16 11.2239 16.2239 11 16.5 11C16.2239 11 16 10.7761 16 10.5C16 10.2239 16.2239 10 16.5 10C16.2239 10 16 9.77614 16 9.5C16 9.77614 15.7761 10 15.5 10C15.2239 10 15 9.77614 15 9.5C15 9.22386 15.2239 9 15.5 9C15.2239 9 15 8.77614 15 8.5C15 8.22386 15.2239 8 15.5 8C15.2239 8 15 7.77614 15 7.5C15 7.77614 14.7761 8 14.5 8C14.2239 8 14 7.77614 14 7.5C14 7.22386 14.2239 7 14.5 7C14.2239 7 14 6.77614 14 6.5C14 6.22386 14.2239 6 14.5 6C14.2239 6 14 5.77614 14 5.5C14 5.77614 13.7761 6 13.5 6C13.2239 6 13 5.77614 13 5.5C13 5.22386 13.2239 5 13.5 5C13.2239 5 13 4.77614 13 4.5C13 4.77614 12.7761 5 12.5 5C12.2239 5 12 4.77614 12 4.5ZM11.5 5C11.2239 5 11 5.22386 11 5.5C11 5.77614 11.2239 6 11.5 6C11.7761 6 12 5.77614 12 5.5C12 5.77614 12.2239 6 12.5 6C12.7761 6 13 5.77614 13 5.5C13 5.22386 12.7761 5 12.5 5C12.2239 5 12 5.22386 12 5.5C12 5.22386 11.7761 5 11.5 5ZM11.5 5C11.2239 5 11 4.77614 11 4.5C11 4.22386 11.2239 4 11.5 4C11.7761 4 12 4.22386 12 4.5C12 4.77614 11.7761 5 11.5 5ZM13.5 7C13.2239 7 13 7.22386 13 7.5C13 7.77614 13.2239 8 13.5 8C13.7761 8 14 7.77614 14 7.5C14 7.22386 13.7761 7 13.5 7ZM13.5 7C13.2239 7 13 6.77614 13 6.5C13 6.22386 13.2239 6 13.5 6C13.7761 6 14 6.22386 14 6.5C14 6.77614 13.7761 7 13.5 7ZM14.5 9C14.2239 9 14 9.22386 14 9.5C14 9.77614 14.2239 10 14.5 10C14.7761 10 15 9.77614 15 9.5C15 9.22386 14.7761 9 14.5 9ZM14.5 9C14.2239 9 14 8.77614 14 8.5C14 8.22386 14.2239 8 14.5 8C14.7761 8 15 8.22386 15 8.5C15 8.77614 14.7761 9 14.5 9ZM15.5 11C15.2239 11 15 11.2239 15 11.5C15 11.7761 15.2239 12 15.5 12C15.7761 12 16 11.7761 16 11.5C16 11.2239 15.7761 11 15.5 11ZM15.5 11C15.2239 11 15 10.7761 15 10.5C15 10.2239 15.2239 10 15.5 10C15.7761 10 16 10.2239 16 10.5C16 10.7761 15.7761 11 15.5 11ZM16.5 13C16.2239 13 16 13.2239 16 13.5C16 13.7761 16.2239 14 16.5 14C16.7761 14 17 13.7761 17 13.5C17 13.2239 16.7761 13 16.5 13ZM16.5 13C16.2239 13 16 12.7761 16 12.5C16 12.2239 16.2239 12 16.5 12C16.7761 12 17 12.2239 17 12.5C17 12.7761 16.7761 13 16.5 13ZM17.5 15C17.2239 15 17 15.2239 17 15.5C17 15.7761 17.2239 16 17.5 16C17.7761 16 18 15.7761 18 15.5C18 15.2239 17.7761 15 17.5 15ZM17.5 15C17.2239 15 17 14.7761 17 14.5C17 14.2239 17.2239 14 17.5 14C17.7761 14 18 14.2239 18 14.5C18 14.7761 17.7761 15 17.5 15ZM18.5 17C18.2239 17 18 17.2239 18 17.5C18 17.7761 18.2239 18 18.5 18C18.7761 18 19 17.7761 19 17.5C19 17.2239 18.7761 17 18.5 17ZM18.5 17C18.2239 17 18 16.7761 18 16.5C18 16.2239 18.2239 16 18.5 16C18.7761 16 19 16.2239 19 16.5C19 16.7761 18.7761 17 18.5 17ZM19.5 19C19.7761 19 20 19.2239 20 19.5C20 19.7761 19.7761 20 19.5 20C19.2239 20 19 19.7761 19 19.5C19 19.2239 19.2239 19 19.5 19ZM18 19.5C18 19.7761 17.7761 20 17.5 20C17.2239 20 17 19.7761 17 19.5C17 19.2239 17.2239 19 17.5 19C17.7761 19 18 19.2239 18 19.5ZM16 19.5C16 19.7761 15.7761 20 15.5 20C15.2239 20 15 19.7761 15 19.5C15 19.2239 15.2239 19 15.5 19C15.7761 19 16 19.2239 16 19.5ZM14 19.5C14 19.7761 13.7761 20 13.5 20C13.2239 20 13 19.7761 13 19.5C13 19.2239 13.2239 19 13.5 19C13.7761 19 14 19.2239 14 19.5ZM12 19.5C12 19.7761 11.7761 20 11.5 20C11.2239 20 11 19.7761 11 19.5C11 19.2239 11.2239 19 11.5 19C11.7761 19 12 19.2239 12 19.5ZM10 19.5C10 19.7761 9.77614 20 9.5 20C9.22386 20 9 19.7761 9 19.5C9 19.2239 9.22386 19 9.5 19C9.77614 19 10 19.2239 10 19.5ZM8 19.5C8 19.7761 7.77614 20 7.5 20C7.22386 20 7 19.7761 7 19.5C7 19.2239 7.22386 19 7.5 19C7.77614 19 8 19.2239 8 19.5ZM6 19.5C6 19.7761 6.22386 20 6.5 20C6.77614 20 7 19.7761 7 19.5C7 19.2239 6.77614 19 6.5 19C6.22386 19 6 19.2239 6 19.5ZM5 19.5C5 19.2239 5.22386 19 5.5 19C5.77614 19 6 19.2239 6 19.5C6 19.7761 5.77614 20 5.5 20C5.22386 20 5 19.7761 5 19.5ZM4.5 19C4.22386 19 4 19.2239 4 19.5C4 19.7761 4.22386 20 4.5 20C4.77614 20 5 19.7761 5 19.5C5 19.2239 4.77614 19 4.5 19ZM8 19.5C8 19.7761 8.22386 20 8.5 20C8.77614 20 9 19.7761 9 19.5C9 19.2239 8.77614 19 8.5 19C8.22386 19 8 19.2239 8 19.5ZM10 19.5C10 19.7761 10.2239 20 10.5 20C10.7761 20 11 19.7761 11 19.5C11 19.2239 10.7761 19 10.5 19C10.2239 19 10 19.2239 10 19.5ZM12 19.5C12 19.7761 12.2239 20 12.5 20C12.7761 20 13 19.7761 13 19.5C13 19.2239 12.7761 19 12.5 19C12.2239 19 12 19.2239 12 19.5ZM14 19.5C14 19.7761 14.2239 20 14.5 20C14.7761 20 15 19.7761 15 19.5C15 19.2239 14.7761 19 14.5 19C14.2239 19 14 19.2239 14 19.5ZM16 19.5C16 19.7761 16.2239 20 16.5 20C16.7761 20 17 19.7761 17 19.5C17 19.2239 16.7761 19 16.5 19C16.2239 19 16 19.2239 16 19.5ZM18 19.5C18 19.7761 18.2239 20 18.5 20C18.7761 20 19 19.7761 19 19.5C19 19.2239 18.7761 19 18.5 19C18.2239 19 18 19.2239 18 19.5ZM19.5 19C19.7761 19 20 18.7761 20 18.5C20 18.2239 19.7761 18 19.5 18C19.2239 18 19 18.2239 19 18.5C19 18.7761 19.2239 19 19.5 19ZM4.5 19C4.22386 19 4 18.7761 4 18.5C4 18.2239 4.22386 18 4.5 18C4.77614 18 5 18.2239 5 18.5C5 18.7761 4.77614 19 4.5 19ZM5.5 17C5.77614 17 6 17.2239 6 17.5C6 17.7761 5.77614 18 5.5 18C5.22386 18 5 17.7761 5 17.5C5 17.2239 5.22386 17 5.5 17ZM5.5 17C5.22386 17 5 16.7761 5 16.5C5 16.2239 5.22386 16 5.5 16C5.77614 16 6 16.2239 6 16.5C6 16.7761 5.77614 17 5.5 17ZM6.5 15C6.22386 15 6 14.7761 6 14.5C6 14.2239 6.22386 14 6.5 14C6.77614 14 7 14.2239 7 14.5C7 14.7761 6.77614 15 6.5 15ZM6.5 15C6.22386 15 6 15.2239 6 15.5C6 15.7761 6.22386 16 6.5 16C6.77614 16 7 15.7761 7 15.5C7 15.2239 6.77614 15 6.5 15ZM7.5 13C7.77614 13 8 13.2239 8 13.5C8 13.7761 7.77614 14 7.5 14C7.22386 14 7 13.7761 7 13.5C7 13.2239 7.22386 13 7.5 13ZM7.5 13C7.22386 13 7 12.7761 7 12.5C7 12.2239 7.22386 12 7.5 12C7.77614 12 8 12.2239 8 12.5C8 12.7761 7.77614 13 7.5 13ZM8.5 11C8.22386 11 8 10.7761 8 10.5C8 10.2239 8.22386 10 8.5 10C8.77614 10 9 10.2239 9 10.5C9 10.7761 8.77614 11 8.5 11ZM8.5 11C8.22386 11 8 11.2239 8 11.5C8 11.7761 8.22386 12 8.5 12C8.77614 12 9 11.7761 9 11.5C9 11.2239 8.77614 11 8.5 11ZM9.5 9C9.22386 9 9 8.77614 9 8.5C9 8.22386 9.22386 8 9.5 8C9.77614 8 10 8.22386 10 8.5C10 8.77614 9.77614 9 9.5 9ZM9.5 9C9.22386 9 9 9.22386 9 9.5C9 9.77614 9.22386 10 9.5 10C9.77614 10 10 9.77614 10 9.5C10 9.22386 9.77614 9 9.5 9ZM10.5 7C10.7761 7 11 7.22386 11 7.5C11 7.77614 10.7761 8 10.5 8C10.2239 8 10 7.77614 10 7.5C10 7.22386 10.2239 7 10.5 7ZM10.5 7C10.7761 7 11 6.77614 11 6.5C11 6.22386 10.7761 6 10.5 6C10.2239 6 10 6.22386 10 6.5C10 6.77614 10.2239 7 10.5 7ZM11 16.5C11 16.2239 11.2239 16 11.5 16C11.7761 16 12 16.2239 12 16.5C12 16.7761 11.7761 17 11.5 17C11.2239 17 11 16.7761 11 16.5ZM12 17.5C12 17.7761 11.7761 18 11.5 18C11.2239 18 11 17.7761 11 17.5C11 17.2239 11.2239 17 11.5 17C11.7761 17 12 17.2239 12 17.5ZM12.5 17C12.7761 17 13 17.2239 13 17.5C13 17.7761 12.7761 18 12.5 18C12.2239 18 12 17.7761 12 17.5C12 17.2239 12.2239 17 12.5 17ZM12.5 17C12.7761 17 13 16.7761 13 16.5C13 16.2239 12.7761 16 12.5 16C12.2239 16 12 16.2239 12 16.5C12 16.7761 12.2239 17 12.5 17ZM11.5 12C11.2239 12 11 12.2239 11 12.5C11 12.7761 11.2239 13 11.5 13C11.2239 13 11 13.2239 11 13.5C11 13.7761 11.2239 14 11.5 14C11.7761 14 12 13.7761 12 13.5C12 13.7761 12.2239 14 12.5 14C12.7761 14 13 13.7761 13 13.5C13 13.2239 12.7761 13 12.5 13C12.7761 13 13 12.7761 13 12.5C13 12.2239 12.7761 12 12.5 12C12.7761 12 13 11.7761 13 11.5C13 11.2239 12.7761 11 12.5 11C12.7761 11 13 10.7761 13 10.5C13 10.2239 12.7761 10 12.5 10C12.2239 10 12 10.2239 12 10.5C12 10.2239 11.7761 10 11.5 10C11.2239 10 11 10.2239 11 10.5C11 10.7761 11.2239 11 11.5 11C11.2239 11 11 11.2239 11 11.5C11 11.7761 11.2239 12 11.5 12ZM12 11.5C12 11.2239 11.7761 11 11.5 11C11.7761 11 12 10.7761 12 10.5C12 10.7761 12.2239 11 12.5 11C12.2239 11 12 11.2239 12 11.5ZM12 11.5C12 11.7761 11.7761 12 11.5 12C11.7761 12 12 12.2239 12 12.5C12 12.7761 11.7761 13 11.5 13C11.7761 13 12 13.2239 12 13.5C12 13.2239 12.2239 13 12.5 13C12.2239 13 12 12.7761 12 12.5C12 12.2239 12.2239 12 12.5 12C12.2239 12 12 11.7761 12 11.5Z" fill="black"/>
</svg>
