<svg width="24" height="24" viewBox="0 0 24 24" fill="none" xmlns="http://www.w3.org/2000/svg">
<path fill-rule="evenodd" clip-rule="evenodd" d="M3.5 5C3.22386 5 3 5.22386 3 5.5C3 5.77614 3.22386 6 3.5 6C3.22386 6 3 6.22386 3 6.5C3 6.77614 3.22386 7 3.5 7C3.77614 7 4 6.77614 4 6.5C4 6.77614 4.22386 7 4.5 7C4.77614 7 5 6.77614 5 6.5C5 6.77614 5.22386 7 5.5 7C5.77614 7 6 6.77614 6 6.5C6 6.77614 6.22386 7 6.5 7C6.77614 7 7 6.77614 7 6.5C7 6.77614 7.22386 7 7.5 7C7.77614 7 8 6.77614 8 6.5C8 6.77614 8.22386 7 8.5 7C8.77614 7 9 6.77614 9 6.5C9 6.77614 9.22386 7 9.5 7C9.77614 7 10 6.77614 10 6.5C10 6.77614 10.2239 7 10.5 7C10.7761 7 11 6.77614 11 6.5C11 6.77614 11.2239 7 11.5 7C11.7761 7 12 6.77614 12 6.5C12 6.77614 12.2239 7 12.5 7C12.7761 7 13 6.77614 13 6.5C13 6.77614 13.2239 7 13.5 7C13.7761 7 14 6.77614 14 6.5C14 6.77614 14.2239 7 14.5 7C14.7761 7 15 6.77614 15 6.5C15 6.77614 15.2239 7 15.5 7C15.7761 7 16 6.77614 16 6.5C16 6.77614 16.2239 7 16.5 7C16.7761 7 17 6.77614 17 6.5C17 6.77614 17.2239 7 17.5 7C17.7761 7 18 6.77614 18 6.5C18 6.77614 18.2239 7 18.5 7C18.7761 7 19 6.77614 19 6.5C19 6.77614 19.2239 7 19.5 7C19.7761 7 20 6.77614 20 6.5C20 6.77614 20.2239 7 20.5 7C20.7761 7 21 6.77614 21 6.5C21 6.22386 20.7761 6 20.5 6C20.7761 6 21 5.77614 21 5.5C21 5.22386 20.7761 5 20.5 5C20.2239 5 20 5.22386 20 5.5C20 5.22386 19.7761 5 19.5 5C19.2239 5 19 5.22386 19 5.5C19 5.22386 18.7761 5 18.5 5C18.2239 5 18 5.22386 18 5.5C18 5.22386 17.7761 5 17.5 5C17.2239 5 17 5.22386 17 5.5C17 5.22386 16.7761 5 16.5 5C16.2239 5 16 5.22386 16 5.5C16 5.22386 15.7761 5 15.5 5C15.2239 5 15 5.22386 15 5.5C15 5.22386 14.7761 5 14.5 5C14.2239 5 14 5.22386 14 5.5C14 5.22386 13.7761 5 13.5 5C13.2239 5 13 5.22386 13 5.5C13 5.22386 12.7761 5 12.5 5C12.2239 5 12 5.22386 12 5.5C12 5.22386 11.7761 5 11.5 5C11.2239 5 11 5.22386 11 5.5C11 5.22386 10.7761 5 10.5 5C10.2239 5 10 5.22386 10 5.5C10 5.22386 9.77614 5 9.5 5C9.22386 5 9 5.22386 9 5.5C9 5.22386 8.77614 5 8.5 5C8.22386 5 8 5.22386 8 5.5C8 5.22386 7.77614 5 7.5 5C7.22386 5 7 5.22386 7 5.5C7 5.22386 6.77614 5 6.5 5C6.22386 5 6 5.22386 6 5.5C6 5.22386 5.77614 5 5.5 5C5.22386 5 5 5.22386 5 5.5C5 5.22386 4.77614 5 4.5 5C4.22386 5 4 5.22386 4 5.5C4 5.22386 3.77614 5 3.5 5ZM4.5 6C4.77614 6 5 6.22386 5 6.5C5 6.22386 5.22386 6 5.5 6C5.77614 6 6 6.22386 6 6.5C6 6.22386 6.22386 6 6.5 6C6.77614 6 7 6.22386 7 6.5C7 6.22386 7.22386 6 7.5 6C7.77614 6 8 6.22386 8 6.5C8 6.22386 8.22386 6 8.5 6C8.77614 6 9 6.22386 9 6.5C9 6.22386 9.22386 6 9.5 6C9.77614 6 10 6.22386 10 6.5C10 6.22386 10.2239 6 10.5 6C10.7761 6 11 6.22386 11 6.5C11 6.22386 11.2239 6 11.5 6C11.7761 6 12 6.22386 12 6.5C12 6.22386 12.2239 6 12.5 6C12.7761 6 13 6.22386 13 6.5C13 6.22386 13.2239 6 13.5 6C13.7761 6 14 6.22386 14 6.5C14 6.22386 14.2239 6 14.5 6C14.7761 6 15 6.22386 15 6.5C15 6.22386 15.2239 6 15.5 6C15.7761 6 16 6.22386 16 6.5C16 6.22386 16.2239 6 16.5 6C16.7761 6 17 6.22386 17 6.5C17 6.22386 17.2239 6 17.5 6C17.7761 6 18 6.22386 18 6.5C18 6.22386 18.2239 6 18.5 6C18.7761 6 19 6.22386 19 6.5C19 6.22386 19.2239 6 19.5 6C19.7761 6 20 6.22386 20 6.5C20 6.22386 20.2239 6 20.5 6C20.2239 6 20 5.77614 20 5.5C20 5.77614 19.7761 6 19.5 6C19.2239 6 19 5.77614 19 5.5C19 5.77614 18.7761 6 18.5 6C18.2239 6 18 5.77614 18 5.5C18 5.77614 17.7761 6 17.5 6C17.2239 6 17 5.77614 17 5.5C17 5.77614 16.7761 6 16.5 6C16.2239 6 16 5.77614 16 5.5C16 5.77614 15.7761 6 15.5 6C15.2239 6 15 5.77614 15 5.5C15 5.77614 14.7761 6 14.5 6C14.2239 6 14 5.77614 14 5.5C14 5.77614 13.7761 6 13.5 6C13.2239 6 13 5.77614 13 5.5C13 5.77614 12.7761 6 12.5 6C12.2239 6 12 5.77614 12 5.5C12 5.77614 11.7761 6 11.5 6C11.2239 6 11 5.77614 11 5.5C11 5.77614 10.7761 6 10.5 6C10.2239 6 10 5.77614 10 5.5C10 5.77614 9.77614 6 9.5 6C9.22386 6 9 5.77614 9 5.5C9 5.77614 8.77614 6 8.5 6C8.22386 6 8 5.77614 8 5.5C8 5.77614 7.77614 6 7.5 6C7.22386 6 7 5.77614 7 5.5C7 5.77614 6.77614 6 6.5 6C6.22386 6 6 5.77614 6 5.5C6 5.77614 5.77614 6 5.5 6C5.22386 6 5 5.77614 5 5.5C5 5.77614 4.77614 6 4.5 6ZM4.5 6C4.22386 6 4 5.77614 4 5.5C4 5.77614 3.77614 6 3.5 6C3.77614 6 4 6.22386 4 6.5C4 6.22386 4.22386 6 4.5 6ZM3.5 13C3.22386 13 3 13.2239 3 13.5C3 13.7761 3.22386 14 3.5 14C3.22386 14 3 14.2239 3 14.5C3 14.7761 3.22386 15 3.5 15C3.77614 15 4 14.7761 4 14.5C4 14.7761 4.22386 15 4.5 15C4.77614 15 5 14.7761 5 14.5C5 14.7761 5.22386 15 5.5 15C5.77614 15 6 14.7761 6 14.5C6 14.7761 6.22386 15 6.5 15C6.77614 15 7 14.7761 7 14.5C7 14.7761 7.22386 15 7.5 15C7.77614 15 8 14.7761 8 14.5C8 14.7761 8.22386 15 8.5 15C8.77614 15 9 14.7761 9 14.5C9 14.7761 9.22386 15 9.5 15C9.77614 15 10 14.7761 10 14.5C10 14.7761 10.2239 15 10.5 15C10.7761 15 11 14.7761 11 14.5C11 14.7761 11.2239 15 11.5 15C11.7761 15 12 14.7761 12 14.5C12 14.7761 12.2239 15 12.5 15C12.7761 15 13 14.7761 13 14.5C13 14.7761 13.2239 15 13.5 15C13.7761 15 14 14.7761 14 14.5C14 14.7761 14.2239 15 14.5 15C14.7761 15 15 14.7761 15 14.5C15 14.7761 15.2239 15 15.5 15C15.7761 15 16 14.7761 16 14.5C16 14.7761 16.2239 15 16.5 15C16.7761 15 17 14.7761 17 14.5C17 14.7761 17.2239 15 17.5 15C17.7761 15 18 14.7761 18 14.5C18 14.7761 18.2239 15 18.5 15C18.7761 15 19 14.7761 19 14.5C19 14.7761 19.2239 15 19.5 15C19.7761 15 20 14.7761 20 14.5C20 14.7761 20.2239 15 20.5 15C20.7761 15 21 14.7761 21 14.5C21 14.2239 20.7761 14 20.5 14C20.7761 14 21 13.7761 21 13.5C21 13.2239 20.7761 13 20.5 13C20.2239 13 20 13.2239 20 13.5C20 13.2239 19.7761 13 19.5 13C19.2239 13 19 13.2239 19 13.5C19 13.2239 18.7761 13 18.5 13C18.2239 13 18 13.2239 18 13.5C18 13.2239 17.7761 13 17.5 13C17.2239 13 17 13.2239 17 13.5C17 13.2239 16.7761 13 16.5 13C16.2239 13 16 13.2239 16 13.5C16 13.2239 15.7761 13 15.5 13C15.2239 13 15 13.2239 15 13.5C15 13.2239 14.7761 13 14.5 13C14.2239 13 14 13.2239 14 13.5C14 13.2239 13.7761 13 13.5 13C13.2239 13 13 13.2239 13 13.5C13 13.2239 12.7761 13 12.5 13C12.2239 13 12 13.2239 12 13.5C12 13.2239 11.7761 13 11.5 13C11.2239 13 11 13.2239 11 13.5C11 13.2239 10.7761 13 10.5 13C10.2239 13 10 13.2239 10 13.5C10 13.2239 9.77614 13 9.5 13C9.22386 13 9 13.2239 9 13.5C9 13.2239 8.77614 13 8.5 13C8.22386 13 8 13.2239 8 13.5C8 13.2239 7.77614 13 7.5 13C7.22386 13 7 13.2239 7 13.5C7 13.2239 6.77614 13 6.5 13C6.22386 13 6 13.2239 6 13.5C6 13.2239 5.77614 13 5.5 13C5.22386 13 5 13.2239 5 13.5C5 13.2239 4.77614 13 4.5 13C4.22386 13 4 13.2239 4 13.5C4 13.2239 3.77614 13 3.5 13ZM4.5 14C4.77614 14 5 14.2239 5 14.5C5 14.2239 5.22386 14 5.5 14C5.77614 14 6 14.2239 6 14.5C6 14.2239 6.22386 14 6.5 14C6.77614 14 7 14.2239 7 14.5C7 14.2239 7.22386 14 7.5 14C7.77614 14 8 14.2239 8 14.5C8 14.2239 8.22386 14 8.5 14C8.77614 14 9 14.2239 9 14.5C9 14.2239 9.22386 14 9.5 14C9.77614 14 10 14.2239 10 14.5C10 14.2239 10.2239 14 10.5 14C10.7761 14 11 14.2239 11 14.5C11 14.2239 11.2239 14 11.5 14C11.7761 14 12 14.2239 12 14.5C12 14.2239 12.2239 14 12.5 14C12.7761 14 13 14.2239 13 14.5C13 14.2239 13.2239 14 13.5 14C13.7761 14 14 14.2239 14 14.5C14 14.2239 14.2239 14 14.5 14C14.7761 14 15 14.2239 15 14.5C15 14.2239 15.2239 14 15.5 14C15.7761 14 16 14.2239 16 14.5C16 14.2239 16.2239 14 16.5 14C16.7761 14 17 14.2239 17 14.5C17 14.2239 17.2239 14 17.5 14C17.7761 14 18 14.2239 18 14.5C18 14.2239 18.2239 14 18.5 14C18.7761 14 19 14.2239 19 14.5C19 14.2239 19.2239 14 19.5 14C19.7761 14 20 14.2239 20 14.5C20 14.2239 20.2239 14 20.5 14C20.2239 14 20 13.7761 20 13.5C20 13.7761 19.7761 14 19.5 14C19.2239 14 19 13.7761 19 13.5C19 13.7761 18.7761 14 18.5 14C18.2239 14 18 13.7761 18 13.5C18 13.7761 17.7761 14 17.5 14C17.2239 14 17 13.7761 17 13.5C17 13.7761 16.7761 14 16.5 14C16.2239 14 16 13.7761 16 13.5C16 13.7761 15.7761 14 15.5 14C15.2239 14 15 13.7761 15 13.5C15 13.7761 14.7761 14 14.5 14C14.2239 14 14 13.7761 14 13.5C14 13.7761 13.7761 14 13.5 14C13.2239 14 13 13.7761 13 13.5C13 13.7761 12.7761 14 12.5 14C12.2239 14 12 13.7761 12 13.5C12 13.7761 11.7761 14 11.5 14C11.2239 14 11 13.7761 11 13.5C11 13.7761 10.7761 14 10.5 14C10.2239 14 10 13.7761 10 13.5C10 13.7761 9.77614 14 9.5 14C9.22386 14 9 13.7761 9 13.5C9 13.7761 8.77614 14 8.5 14C8.22386 14 8 13.7761 8 13.5C8 13.7761 7.77614 14 7.5 14C7.22386 14 7 13.7761 7 13.5C7 13.7761 6.77614 14 6.5 14C6.22386 14 6 13.7761 6 13.5C6 13.7761 5.77614 14 5.5 14C5.22386 14 5 13.7761 5 13.5C5 13.7761 4.77614 14 4.5 14ZM4.5 14C4.22386 14 4 13.7761 4 13.5C4 13.7761 3.77614 14 3.5 14C3.77614 14 4 14.2239 4 14.5C4 14.2239 4.22386 14 4.5 14ZM5 9.5C5 9.22386 5.22386 9 5.5 9C5.77614 9 6 9.22386 6 9.5C6 9.77614 5.77614 10 5.5 10C5.22386 10 5 9.77614 5 9.5ZM6 10.5C6 10.2239 5.77614 10 5.5 10C5.22386 10 5 10.2239 5 10.5C5 10.7761 5.22386 11 5.5 11C5.77614 11 6 10.7761 6 10.5ZM6.5 10C6.22386 10 6 10.2239 6 10.5C6 10.7761 6.22386 11 6.5 11C6.77614 11 7 10.7761 7 10.5C7 10.7761 7.22386 11 7.5 11C7.77614 11 8 10.7761 8 10.5C8 10.7761 8.22386 11 8.5 11C8.77614 11 9 10.7761 9 10.5C9 10.7761 9.22386 11 9.5 11C9.77614 11 10 10.7761 10 10.5C10 10.7761 10.2239 11 10.5 11C10.7761 11 11 10.7761 11 10.5C11 10.7761 11.2239 11 11.5 11C11.7761 11 12 10.7761 12 10.5C12 10.7761 12.2239 11 12.5 11C12.7761 11 13 10.7761 13 10.5C13 10.7761 13.2239 11 13.5 11C13.7761 11 14 10.7761 14 10.5C14 10.7761 14.2239 11 14.5 11C14.7761 11 15 10.7761 15 10.5C15 10.7761 15.2239 11 15.5 11C15.7761 11 16 10.7761 16 10.5C16 10.7761 16.2239 11 16.5 11C16.7761 11 17 10.7761 17 10.5C17 10.7761 17.2239 11 17.5 11C17.7761 11 18 10.7761 18 10.5C18 10.7761 18.2239 11 18.5 11C18.7761 11 19 10.7761 19 10.5C19 10.2239 18.7761 10 18.5 10C18.7761 10 19 9.77614 19 9.5C19 9.22386 18.7761 9 18.5 9C18.2239 9 18 9.22386 18 9.5C18 9.22386 17.7761 9 17.5 9C17.2239 9 17 9.22386 17 9.5C17 9.22386 16.7761 9 16.5 9C16.2239 9 16 9.22386 16 9.5C16 9.22386 15.7761 9 15.5 9C15.2239 9 15 9.22386 15 9.5C15 9.22386 14.7761 9 14.5 9C14.2239 9 14 9.22386 14 9.5C14 9.22386 13.7761 9 13.5 9C13.2239 9 13 9.22386 13 9.5C13 9.22386 12.7761 9 12.5 9C12.2239 9 12 9.22386 12 9.5C12 9.22386 11.7761 9 11.5 9C11.2239 9 11 9.22386 11 9.5C11 9.22386 10.7761 9 10.5 9C10.2239 9 10 9.22386 10 9.5C10 9.22386 9.77614 9 9.5 9C9.22386 9 9 9.22386 9 9.5C9 9.22386 8.77614 9 8.5 9C8.22386 9 8 9.22386 8 9.5C8 9.22386 7.77614 9 7.5 9C7.22386 9 7 9.22386 7 9.5C7 9.22386 6.77614 9 6.5 9C6.22386 9 6 9.22386 6 9.5C6 9.77614 6.22386 10 6.5 10ZM7.5 10C7.22386 10 7 10.2239 7 10.5C7 10.2239 6.77614 10 6.5 10C6.77614 10 7 9.77614 7 9.5C7 9.77614 7.22386 10 7.5 10ZM8.5 10C8.22386 10 8 10.2239 8 10.5C8 10.2239 7.77614 10 7.5 10C7.77614 10 8 9.77614 8 9.5C8 9.77614 8.22386 10 8.5 10ZM9.5 10C9.22386 10 9 10.2239 9 10.5C9 10.2239 8.77614 10 8.5 10C8.77614 10 9 9.77614 9 9.5C9 9.77614 9.22386 10 9.5 10ZM10.5 10C10.2239 10 10 10.2239 10 10.5C10 10.2239 9.77614 10 9.5 10C9.77614 10 10 9.77614 10 9.5C10 9.77614 10.2239 10 10.5 10ZM11.5 10C11.2239 10 11 10.2239 11 10.5C11 10.2239 10.7761 10 10.5 10C10.7761 10 11 9.77614 11 9.5C11 9.77614 11.2239 10 11.5 10ZM12.5 10C12.2239 10 12 10.2239 12 10.5C12 10.2239 11.7761 10 11.5 10C11.7761 10 12 9.77614 12 9.5C12 9.77614 12.2239 10 12.5 10ZM13.5 10C13.2239 10 13 10.2239 13 10.5C13 10.2239 12.7761 10 12.5 10C12.7761 10 13 9.77614 13 9.5C13 9.77614 13.2239 10 13.5 10ZM14.5 10C14.2239 10 14 10.2239 14 10.5C14 10.2239 13.7761 10 13.5 10C13.7761 10 14 9.77614 14 9.5C14 9.77614 14.2239 10 14.5 10ZM15.5 10C15.2239 10 15 10.2239 15 10.5C15 10.2239 14.7761 10 14.5 10C14.7761 10 15 9.77614 15 9.5C15 9.77614 15.2239 10 15.5 10ZM16.5 10C16.2239 10 16 10.2239 16 10.5C16 10.2239 15.7761 10 15.5 10C15.7761 10 16 9.77614 16 9.5C16 9.77614 16.2239 10 16.5 10ZM17.5 10C17.2239 10 17 10.2239 17 10.5C17 10.2239 16.7761 10 16.5 10C16.7761 10 17 9.77614 17 9.5C17 9.77614 17.2239 10 17.5 10ZM17.5 10C17.7761 10 18 9.77614 18 9.5C18 9.77614 18.2239 10 18.5 10C18.2239 10 18 10.2239 18 10.5C18 10.2239 17.7761 10 17.5 10ZM5.5 17C5.22386 17 5 17.2239 5 17.5C5 17.7761 5.22386 18 5.5 18C5.22386 18 5 18.2239 5 18.5C5 18.7761 5.22386 19 5.5 19C5.77614 19 6 18.7761 6 18.5C6 18.7761 6.22386 19 6.5 19C6.77614 19 7 18.7761 7 18.5C7 18.7761 7.22386 19 7.5 19C7.77614 19 8 18.7761 8 18.5C8 18.7761 8.22386 19 8.5 19C8.77614 19 9 18.7761 9 18.5C9 18.7761 9.22386 19 9.5 19C9.77614 19 10 18.7761 10 18.5C10 18.7761 10.2239 19 10.5 19C10.7761 19 11 18.7761 11 18.5C11 18.7761 11.2239 19 11.5 19C11.7761 19 12 18.7761 12 18.5C12 18.7761 12.2239 19 12.5 19C12.7761 19 13 18.7761 13 18.5C13 18.7761 13.2239 19 13.5 19C13.7761 19 14 18.7761 14 18.5C14 18.7761 14.2239 19 14.5 19C14.7761 19 15 18.7761 15 18.5C15 18.7761 15.2239 19 15.5 19C15.7761 19 16 18.7761 16 18.5C16 18.7761 16.2239 19 16.5 19C16.7761 19 17 18.7761 17 18.5C17 18.7761 17.2239 19 17.5 19C17.7761 19 18 18.7761 18 18.5C18 18.7761 18.2239 19 18.5 19C18.7761 19 19 18.7761 19 18.5C19 18.2239 18.7761 18 18.5 18C18.7761 18 19 17.7761 19 17.5C19 17.2239 18.7761 17 18.5 17C18.2239 17 18 17.2239 18 17.5C18 17.2239 17.7761 17 17.5 17C17.2239 17 17 17.2239 17 17.5C17 17.2239 16.7761 17 16.5 17C16.2239 17 16 17.2239 16 17.5C16 17.2239 15.7761 17 15.5 17C15.2239 17 15 17.2239 15 17.5C15 17.2239 14.7761 17 14.5 17C14.2239 17 14 17.2239 14 17.5C14 17.2239 13.7761 17 13.5 17C13.2239 17 13 17.2239 13 17.5C13 17.2239 12.7761 17 12.5 17C12.2239 17 12 17.2239 12 17.5C12 17.2239 11.7761 17 11.5 17C11.2239 17 11 17.2239 11 17.5C11 17.2239 10.7761 17 10.5 17C10.2239 17 10 17.2239 10 17.5C10 17.2239 9.77614 17 9.5 17C9.22386 17 9 17.2239 9 17.5C9 17.2239 8.77614 17 8.5 17C8.22386 17 8 17.2239 8 17.5C8 17.2239 7.77614 17 7.5 17C7.22386 17 7 17.2239 7 17.5C7 17.2239 6.77614 17 6.5 17C6.22386 17 6 17.2239 6 17.5C6 17.2239 5.77614 17 5.5 17ZM6.5 18C6.77614 18 7 18.2239 7 18.5C7 18.2239 7.22386 18 7.5 18C7.77614 18 8 18.2239 8 18.5C8 18.2239 8.22386 18 8.5 18C8.77614 18 9 18.2239 9 18.5C9 18.2239 9.22386 18 9.5 18C9.77614 18 10 18.2239 10 18.5C10 18.2239 10.2239 18 10.5 18C10.7761 18 11 18.2239 11 18.5C11 18.2239 11.2239 18 11.5 18C11.7761 18 12 18.2239 12 18.5C12 18.2239 12.2239 18 12.5 18C12.7761 18 13 18.2239 13 18.5C13 18.2239 13.2239 18 13.5 18C13.7761 18 14 18.2239 14 18.5C14 18.2239 14.2239 18 14.5 18C14.7761 18 15 18.2239 15 18.5C15 18.2239 15.2239 18 15.5 18C15.7761 18 16 18.2239 16 18.5C16 18.2239 16.2239 18 16.5 18C16.7761 18 17 18.2239 17 18.5C17 18.2239 17.2239 18 17.5 18C17.7761 18 18 18.2239 18 18.5C18 18.2239 18.2239 18 18.5 18C18.2239 18 18 17.7761 18 17.5C18 17.7761 17.7761 18 17.5 18C17.2239 18 17 17.7761 17 17.5C17 17.7761 16.7761 18 16.5 18C16.2239 18 16 17.7761 16 17.5C16 17.7761 15.7761 18 15.5 18C15.2239 18 15 17.7761 15 17.5C15 17.7761 14.7761 18 14.5 18C14.2239 18 14 17.7761 14 17.5C14 17.7761 13.7761 18 13.5 18C13.2239 18 13 17.7761 13 17.5C13 17.7761 12.7761 18 12.5 18C12.2239 18 12 17.7761 12 17.5C12 17.7761 11.7761 18 11.5 18C11.2239 18 11 17.7761 11 17.5C11 17.7761 10.7761 18 10.5 18C10.2239 18 10 17.7761 10 17.5C10 17.7761 9.77614 18 9.5 18C9.22386 18 9 17.7761 9 17.5C9 17.7761 8.77614 18 8.5 18C8.22386 18 8 17.7761 8 17.5C8 17.7761 7.77614 18 7.5 18C7.22386 18 7 17.7761 7 17.5C7 17.7761 6.77614 18 6.5 18ZM6.5 18C6.22386 18 6 17.7761 6 17.5C6 17.7761 5.77614 18 5.5 18C5.77614 18 6 18.2239 6 18.5C6 18.2239 6.22386 18 6.5 18Z" fill="black"/>
</svg>
