<svg width="24" height="24" viewBox="0 0 24 24" fill="none" xmlns="http://www.w3.org/2000/svg">
<path fill-rule="evenodd" clip-rule="evenodd" d="M15 2.5C15 2.77614 15.2239 3 15.5 3C15.2239 3 15 3.22386 15 3.5C15 3.22386 14.7761 3 14.5 3C14.7761 3 15 2.77614 15 2.5ZM14 2.5C14 2.22386 14.2239 2 14.5 2C14.7761 2 15 2.22386 15 2.5C15 2.22386 15.2239 2 15.5 2C15.7761 2 16 2.22386 16 2.5C16 2.77614 15.7761 3 15.5 3C15.7761 3 16 3.22386 16 3.5C16 3.77614 15.7761 4 15.5 4C15.2239 4 15 3.77614 15 3.5C15 3.77614 14.7761 4 14.5 4C14.2239 4 14 3.77614 14 3.5C14 3.22386 14.2239 3 14.5 3C14.2239 3 14 2.77614 14 2.5ZM13.5 3C13.7761 3 14 2.77614 14 2.5C14 2.22386 13.7761 2 13.5 2C13.2239 2 13 2.22386 13 2.5C13 2.22386 12.7761 2 12.5 2C12.2239 2 12 2.22386 12 2.5C12 2.22386 11.7761 2 11.5 2C11.2239 2 11 2.22386 11 2.5C11 2.22386 10.7761 2 10.5 2C10.2239 2 10 2.22386 10 2.5C10 2.22386 9.77614 2 9.5 2C9.22386 2 9 2.22386 9 2.5C9 2.22386 8.77614 2 8.5 2C8.22386 2 8 2.22386 8 2.5C8 2.77614 8.22386 3 8.5 3C8.22386 3 8 3.22386 8 3.5C8 3.22386 7.77614 3 7.5 3C7.22386 3 7 3.22386 7 3.5C7 3.77614 7.22386 4 7.5 4C7.22386 4 7 4.22386 7 4.5C7 4.22386 6.77614 4 6.5 4C6.22386 4 6 4.22386 6 4.5C6 4.77614 6.22386 5 6.5 5C6.22386 5 6 5.22386 6 5.5C6 5.22386 5.77614 5 5.5 5C5.22386 5 5 5.22386 5 5.5C5 5.77614 5.22386 6 5.5 6C5.22386 6 5 6.22386 5 6.5C5 6.22386 4.77614 6 4.5 6C4.22386 6 4 6.22386 4 6.5C4 6.77614 4.22386 7 4.5 7C4.22386 7 4 7.22386 4 7.5C4 7.22386 3.77614 7 3.5 7C3.22386 7 3 7.22386 3 7.5C3 7.77614 3.22386 8 3.5 8C3.22386 8 3 8.22386 3 8.5C3 8.22386 2.77614 8 2.5 8C2.22386 8 2 8.22386 2 8.5C2 8.77614 2.22386 9 2.5 9C2.22386 9 2 9.22386 2 9.5C2 9.77614 2.22386 10 2.5 10C2.22386 10 2 10.2239 2 10.5C2 10.7761 2.22386 11 2.5 11C2.22386 11 2 11.2239 2 11.5C2 11.7761 2.22386 12 2.5 12C2.22386 12 2 12.2239 2 12.5C2 12.7761 2.22386 13 2.5 13C2.22386 13 2 13.2239 2 13.5C2 13.7761 2.22386 14 2.5 14C2.22386 14 2 14.2239 2 14.5C2 14.7761 2.22386 15 2.5 15C2.22386 15 2 15.2239 2 15.5C2 15.7761 2.22386 16 2.5 16C2.77614 16 3 15.7761 3 15.5C3 15.7761 3.22386 16 3.5 16C3.22386 16 3 16.2239 3 16.5C3 16.7761 3.22386 17 3.5 17C3.77614 17 4 16.7761 4 16.5C4 16.7761 4.22386 17 4.5 17C4.22386 17 4 17.2239 4 17.5C4 17.7761 4.22386 18 4.5 18C4.77614 18 5 17.7761 5 17.5C5 17.7761 5.22386 18 5.5 18C5.22386 18 5 18.2239 5 18.5C5 18.7761 5.22386 19 5.5 19C5.77614 19 6 18.7761 6 18.5C6 18.7761 6.22386 19 6.5 19C6.22386 19 6 19.2239 6 19.5C6 19.7761 6.22386 20 6.5 20C6.77614 20 7 19.7761 7 19.5C7 19.7761 7.22386 20 7.5 20C7.22386 20 7 20.2239 7 20.5C7 20.7761 7.22386 21 7.5 21C7.77614 21 8 20.7761 8 20.5C8 20.7761 8.22386 21 8.5 21C8.22386 21 8 21.2239 8 21.5C8 21.7761 8.22386 22 8.5 22C8.77614 22 9 21.7761 9 21.5C9 21.7761 9.22386 22 9.5 22C9.77614 22 10 21.7761 10 21.5C10 21.7761 10.2239 22 10.5 22C10.7761 22 11 21.7761 11 21.5C11 21.7761 11.2239 22 11.5 22C11.7761 22 12 21.7761 12 21.5C12 21.7761 12.2239 22 12.5 22C12.7761 22 13 21.7761 13 21.5C13 21.7761 13.2239 22 13.5 22C13.7761 22 14 21.7761 14 21.5C14 21.7761 14.2239 22 14.5 22C14.7761 22 15 21.7761 15 21.5C15 21.7761 15.2239 22 15.5 22C15.7761 22 16 21.7761 16 21.5C16 21.2239 15.7761 21 15.5 21C15.7761 21 16 20.7761 16 20.5C16 20.7761 16.2239 21 16.5 21C16.7761 21 17 20.7761 17 20.5C17 20.2239 16.7761 20 16.5 20C16.7761 20 17 19.7761 17 19.5C17 19.7761 17.2239 20 17.5 20C17.7761 20 18 19.7761 18 19.5C18 19.2239 17.7761 19 17.5 19C17.7761 19 18 18.7761 18 18.5C18 18.7761 18.2239 19 18.5 19C18.7761 19 19 18.7761 19 18.5C19 18.2239 18.7761 18 18.5 18C18.7761 18 19 17.7761 19 17.5C19 17.7761 19.2239 18 19.5 18C19.7761 18 20 17.7761 20 17.5C20 17.2239 19.7761 17 19.5 17C19.7761 17 20 16.7761 20 16.5C20 16.7761 20.2239 17 20.5 17C20.7761 17 21 16.7761 21 16.5C21 16.2239 20.7761 16 20.5 16C20.7761 16 21 15.7761 21 15.5C21 15.7761 21.2239 16 21.5 16C21.7761 16 22 15.7761 22 15.5C22 15.2239 21.7761 15 21.5 15C21.7761 15 22 14.7761 22 14.5C22 14.2239 21.7761 14 21.5 14C21.7761 14 22 13.7761 22 13.5C22 13.2239 21.7761 13 21.5 13C21.7761 13 22 12.7761 22 12.5C22 12.2239 21.7761 12 21.5 12C21.7761 12 22 11.7761 22 11.5C22 11.2239 21.7761 11 21.5 11C21.7761 11 22 10.7761 22 10.5C22 10.2239 21.7761 10 21.5 10C21.7761 10 22 9.77614 22 9.5C22 9.22386 21.7761 9 21.5 9C21.7761 9 22 8.77614 22 8.5C22 8.22386 21.7761 8 21.5 8C21.2239 8 21 8.22386 21 8.5C21 8.22386 20.7761 8 20.5 8C20.7761 8 21 7.77614 21 7.5C21 7.22386 20.7761 7 20.5 7C20.2239 7 20 7.22386 20 7.5C20 7.22386 19.7761 7 19.5 7C19.7761 7 20 6.77614 20 6.5C20 6.22386 19.7761 6 19.5 6C19.2239 6 19 6.22386 19 6.5C19 6.22386 18.7761 6 18.5 6C18.7761 6 19 5.77614 19 5.5C19 5.22386 18.7761 5 18.5 5C18.2239 5 18 5.22386 18 5.5C18 5.22386 17.7761 5 17.5 5C17.7761 5 18 4.77614 18 4.5C18 4.22386 17.7761 4 17.5 4C17.2239 4 17 4.22386 17 4.5C17 4.22386 16.7761 4 16.5 4C16.7761 4 17 3.77614 17 3.5C17 3.22386 16.7761 3 16.5 3C16.2239 3 16 3.22386 16 3.5C16 3.77614 16.2239 4 16.5 4C16.2239 4 16 4.22386 16 4.5C16 4.22386 15.7761 4 15.5 4C15.2239 4 15 4.22386 15 4.5C15 4.77614 15.2239 5 15.5 5C15.7761 5 16 4.77614 16 4.5C16 4.77614 16.2239 5 16.5 5C16.2239 5 16 5.22386 16 5.5C16 5.77614 16.2239 6 16.5 6C16.7761 6 17 5.77614 17 5.5C17 5.77614 17.2239 6 17.5 6C17.2239 6 17 6.22386 17 6.5C17 6.77614 17.2239 7 17.5 7C17.7761 7 18 6.77614 18 6.5C18 6.77614 18.2239 7 18.5 7C18.2239 7 18 7.22386 18 7.5C18 7.77614 18.2239 8 18.5 8C18.7761 8 19 7.77614 19 7.5C19 7.77614 19.2239 8 19.5 8C19.2239 8 19 8.22386 19 8.5C19 8.77614 19.2239 9 19.5 9C19.7761 9 20 8.77614 20 8.5C20 8.77614 20.2239 9 20.5 9C20.2239 9 20 9.22386 20 9.5C20 9.77614 20.2239 10 20.5 10C20.2239 10 20 10.2239 20 10.5C20 10.7761 20.2239 11 20.5 11C20.2239 11 20 11.2239 20 11.5C20 11.7761 20.2239 12 20.5 12C20.2239 12 20 12.2239 20 12.5C20 12.7761 20.2239 13 20.5 13C20.2239 13 20 13.2239 20 13.5C20 13.7761 20.2239 14 20.5 14C20.2239 14 20 14.2239 20 14.5C20 14.7761 20.2239 15 20.5 15C20.2239 15 20 15.2239 20 15.5C20 15.2239 19.7761 15 19.5 15C19.2239 15 19 15.2239 19 15.5C19 15.7761 19.2239 16 19.5 16C19.2239 16 19 16.2239 19 16.5C19 16.2239 18.7761 16 18.5 16C18.2239 16 18 16.2239 18 16.5C18 16.7761 18.2239 17 18.5 17C18.2239 17 18 17.2239 18 17.5C18 17.2239 17.7761 17 17.5 17C17.2239 17 17 17.2239 17 17.5C17 17.7761 17.2239 18 17.5 18C17.2239 18 17 18.2239 17 18.5C17 18.2239 16.7761 18 16.5 18C16.2239 18 16 18.2239 16 18.5C16 18.7761 16.2239 19 16.5 19C16.2239 19 16 19.2239 16 19.5C16 19.2239 15.7761 19 15.5 19C15.2239 19 15 19.2239 15 19.5C15 19.7761 15.2239 20 15.5 20C15.2239 20 15 20.2239 15 20.5C15 20.2239 14.7761 20 14.5 20C14.2239 20 14 20.2239 14 20.5C14 20.2239 13.7761 20 13.5 20C13.2239 20 13 20.2239 13 20.5C13 20.2239 12.7761 20 12.5 20C12.2239 20 12 20.2239 12 20.5C12 20.2239 11.7761 20 11.5 20C11.2239 20 11 20.2239 11 20.5C11 20.2239 10.7761 20 10.5 20C10.2239 20 10 20.2239 10 20.5C10 20.2239 9.77614 20 9.5 20C9.22386 20 9 20.2239 9 20.5C9 20.2239 8.77614 20 8.5 20C8.77614 20 9 19.7761 9 19.5C9 19.2239 8.77614 19 8.5 19C8.22386 19 8 19.2239 8 19.5C8 19.2239 7.77614 19 7.5 19C7.77614 19 8 18.7761 8 18.5C8 18.2239 7.77614 18 7.5 18C7.22386 18 7 18.2239 7 18.5C7 18.2239 6.77614 18 6.5 18C6.77614 18 7 17.7761 7 17.5C7 17.2239 6.77614 17 6.5 17C6.22386 17 6 17.2239 6 17.5C6 17.2239 5.77614 17 5.5 17C5.77614 17 6 16.7761 6 16.5C6 16.2239 5.77614 16 5.5 16C5.22386 16 5 16.2239 5 16.5C5 16.2239 4.77614 16 4.5 16C4.77614 16 5 15.7761 5 15.5C5 15.2239 4.77614 15 4.5 15C4.22386 15 4 15.2239 4 15.5C4 15.2239 3.77614 15 3.5 15C3.77614 15 4 14.7761 4 14.5C4 14.2239 3.77614 14 3.5 14C3.77614 14 4 13.7761 4 13.5C4 13.2239 3.77614 13 3.5 13C3.77614 13 4 12.7761 4 12.5C4 12.2239 3.77614 12 3.5 12C3.77614 12 4 11.7761 4 11.5C4 11.2239 3.77614 11 3.5 11C3.77614 11 4 10.7761 4 10.5C4 10.2239 3.77614 10 3.5 10C3.77614 10 4 9.77614 4 9.5C4 9.22386 3.77614 9 3.5 9C3.77614 9 4 8.77614 4 8.5C4 8.77614 4.22386 9 4.5 9C4.77614 9 5 8.77614 5 8.5C5 8.22386 4.77614 8 4.5 8C4.77614 8 5 7.77614 5 7.5C5 7.77614 5.22386 8 5.5 8C5.77614 8 6 7.77614 6 7.5C6 7.22386 5.77614 7 5.5 7C5.77614 7 6 6.77614 6 6.5C6 6.77614 6.22386 7 6.5 7C6.77614 7 7 6.77614 7 6.5C7 6.22386 6.77614 6 6.5 6C6.77614 6 7 5.77614 7 5.5C7 5.77614 7.22386 6 7.5 6C7.77614 6 8 5.77614 8 5.5C8 5.22386 7.77614 5 7.5 5C7.77614 5 8 4.77614 8 4.5C8 4.77614 8.22386 5 8.5 5C8.77614 5 9 4.77614 9 4.5C9 4.22386 8.77614 4 8.5 4C8.77614 4 9 3.77614 9 3.5C9 3.77614 9.22386 4 9.5 4C9.77614 4 10 3.77614 10 3.5C10 3.77614 10.2239 4 10.5 4C10.7761 4 11 3.77614 11 3.5C11 3.77614 11.2239 4 11.5 4C11.7761 4 12 3.77614 12 3.5C12 3.77614 12.2239 4 12.5 4C12.7761 4 13 3.77614 13 3.5C13 3.77614 13.2239 4 13.5 4C13.7761 4 14 3.77614 14 3.5C14 3.22386 13.7761 3 13.5 3ZM12.5 3C12.7761 3 13 2.77614 13 2.5C13 2.77614 13.2239 3 13.5 3C13.2239 3 13 3.22386 13 3.5C13 3.22386 12.7761 3 12.5 3ZM11.5 3C11.7761 3 12 2.77614 12 2.5C12 2.77614 12.2239 3 12.5 3C12.2239 3 12 3.22386 12 3.5C12 3.22386 11.7761 3 11.5 3ZM10.5 3C10.7761 3 11 2.77614 11 2.5C11 2.77614 11.2239 3 11.5 3C11.2239 3 11 3.22386 11 3.5C11 3.22386 10.7761 3 10.5 3ZM9.5 3C9.77614 3 10 2.77614 10 2.5C10 2.77614 10.2239 3 10.5 3C10.2239 3 10 3.22386 10 3.5C10 3.22386 9.77614 3 9.5 3ZM9.5 3C9.22386 3 9 3.22386 9 3.5C9 3.22386 8.77614 3 8.5 3C8.77614 3 9 2.77614 9 2.5C9 2.77614 9.22386 3 9.5 3ZM8.5 4C8.22386 4 8 4.22386 8 4.5C8 4.22386 7.77614 4 7.5 4C7.77614 4 8 3.77614 8 3.5C8 3.77614 8.22386 4 8.5 4ZM7.5 5C7.22386 5 7 5.22386 7 5.5C7 5.22386 6.77614 5 6.5 5C6.77614 5 7 4.77614 7 4.5C7 4.77614 7.22386 5 7.5 5ZM6.5 6C6.22386 6 6 6.22386 6 6.5C6 6.22386 5.77614 6 5.5 6C5.77614 6 6 5.77614 6 5.5C6 5.77614 6.22386 6 6.5 6ZM5.5 7C5.22386 7 5 7.22386 5 7.5C5 7.22386 4.77614 7 4.5 7C4.77614 7 5 6.77614 5 6.5C5 6.77614 5.22386 7 5.5 7ZM4.5 8C4.22386 8 4 8.22386 4 8.5C4 8.22386 3.77614 8 3.5 8C3.77614 8 4 7.77614 4 7.5C4 7.77614 4.22386 8 4.5 8ZM3 9.5C3 9.77614 3.22386 10 3.5 10C3.22386 10 3 10.2239 3 10.5C3 10.2239 2.77614 10 2.5 10C2.77614 10 3 9.77614 3 9.5ZM3 9.5C3 9.22386 3.22386 9 3.5 9C3.22386 9 3 8.77614 3 8.5C3 8.77614 2.77614 9 2.5 9C2.77614 9 3 9.22386 3 9.5ZM3 11.5C3 11.2239 2.77614 11 2.5 11C2.77614 11 3 10.7761 3 10.5C3 10.7761 3.22386 11 3.5 11C3.22386 11 3 11.2239 3 11.5ZM3 12.5C3 12.2239 2.77614 12 2.5 12C2.77614 12 3 11.7761 3 11.5C3 11.7761 3.22386 12 3.5 12C3.22386 12 3 12.2239 3 12.5ZM3 13.5C3 13.2239 2.77614 13 2.5 13C2.77614 13 3 12.7761 3 12.5C3 12.7761 3.22386 13 3.5 13C3.22386 13 3 13.2239 3 13.5ZM3 14.5C3 14.2239 2.77614 14 2.5 14C2.77614 14 3 13.7761 3 13.5C3 13.7761 3.22386 14 3.5 14C3.22386 14 3 14.2239 3 14.5ZM3 14.5C3 14.7761 3.22386 15 3.5 15C3.22386 15 3 15.2239 3 15.5C3 15.2239 2.77614 15 2.5 15C2.77614 15 3 14.7761 3 14.5ZM4 15.5C4 15.7761 4.22386 16 4.5 16C4.22386 16 4 16.2239 4 16.5C4 16.2239 3.77614 16 3.5 16C3.77614 16 4 15.7761 4 15.5ZM5 16.5C5 16.7761 5.22386 17 5.5 17C5.22386 17 5 17.2239 5 17.5C5 17.2239 4.77614 17 4.5 17C4.77614 17 5 16.7761 5 16.5ZM6 17.5C6 17.7761 6.22386 18 6.5 18C6.22386 18 6 18.2239 6 18.5C6 18.2239 5.77614 18 5.5 18C5.77614 18 6 17.7761 6 17.5ZM7 18.5C7 18.7761 7.22386 19 7.5 19C7.22386 19 7 19.2239 7 19.5C7 19.2239 6.77614 19 6.5 19C6.77614 19 7 18.7761 7 18.5ZM8 19.5C8 19.7761 8.22386 20 8.5 20C8.22386 20 8 20.2239 8 20.5C8 20.2239 7.77614 20 7.5 20C7.77614 20 8 19.7761 8 19.5ZM9.5 21C9.77614 21 10 20.7761 10 20.5C10 20.7761 10.2239 21 10.5 21C10.2239 21 10 21.2239 10 21.5C10 21.2239 9.77614 21 9.5 21ZM9.5 21C9.22386 21 9 20.7761 9 20.5C9 20.7761 8.77614 21 8.5 21C8.77614 21 9 21.2239 9 21.5C9 21.2239 9.22386 21 9.5 21ZM11.5 21C11.2239 21 11 21.2239 11 21.5C11 21.2239 10.7761 21 10.5 21C10.7761 21 11 20.7761 11 20.5C11 20.7761 11.2239 21 11.5 21ZM12.5 21C12.2239 21 12 21.2239 12 21.5C12 21.2239 11.7761 21 11.5 21C11.7761 21 12 20.7761 12 20.5C12 20.7761 12.2239 21 12.5 21ZM13.5 21C13.2239 21 13 21.2239 13 21.5C13 21.2239 12.7761 21 12.5 21C12.7761 21 13 20.7761 13 20.5C13 20.7761 13.2239 21 13.5 21ZM14.5 21C14.2239 21 14 21.2239 14 21.5C14 21.2239 13.7761 21 13.5 21C13.7761 21 14 20.7761 14 20.5C14 20.7761 14.2239 21 14.5 21ZM14.5 21C14.7761 21 15 20.7761 15 20.5C15 20.7761 15.2239 21 15.5 21C15.2239 21 15 21.2239 15 21.5C15 21.2239 14.7761 21 14.5 21ZM15.5 20C15.7761 20 16 19.7761 16 19.5C16 19.7761 16.2239 20 16.5 20C16.2239 20 16 20.2239 16 20.5C16 20.2239 15.7761 20 15.5 20ZM16.5 19C16.7761 19 17 18.7761 17 18.5C17 18.7761 17.2239 19 17.5 19C17.2239 19 17 19.2239 17 19.5C17 19.2239 16.7761 19 16.5 19ZM17.5 18C17.7761 18 18 17.7761 18 17.5C18 17.7761 18.2239 18 18.5 18C18.2239 18 18 18.2239 18 18.5C18 18.2239 17.7761 18 17.5 18ZM18.5 17C18.7761 17 19 16.7761 19 16.5C19 16.7761 19.2239 17 19.5 17C19.2239 17 19 17.2239 19 17.5C19 17.2239 18.7761 17 18.5 17ZM19.5 16C19.7761 16 20 15.7761 20 15.5C20 15.7761 20.2239 16 20.5 16C20.2239 16 20 16.2239 20 16.5C20 16.2239 19.7761 16 19.5 16ZM21 14.5C21 14.2239 20.7761 14 20.5 14C20.7761 14 21 13.7761 21 13.5C21 13.7761 21.2239 14 21.5 14C21.2239 14 21 14.2239 21 14.5ZM21 14.5C21 14.7761 20.7761 15 20.5 15C20.7761 15 21 15.2239 21 15.5C21 15.2239 21.2239 15 21.5 15C21.2239 15 21 14.7761 21 14.5ZM21 12.5C21 12.7761 21.2239 13 21.5 13C21.2239 13 21 13.2239 21 13.5C21 13.2239 20.7761 13 20.5 13C20.7761 13 21 12.7761 21 12.5ZM21 11.5C21 11.7761 21.2239 12 21.5 12C21.2239 12 21 12.2239 21 12.5C21 12.2239 20.7761 12 20.5 12C20.7761 12 21 11.7761 21 11.5ZM21 10.5C21 10.7761 21.2239 11 21.5 11C21.2239 11 21 11.2239 21 11.5C21 11.2239 20.7761 11 20.5 11C20.7761 11 21 10.7761 21 10.5ZM21 9.5C21 9.77614 21.2239 10 21.5 10C21.2239 10 21 10.2239 21 10.5C21 10.2239 20.7761 10 20.5 10C20.7761 10 21 9.77614 21 9.5ZM21 9.5C21 9.22386 20.7761 9 20.5 9C20.7761 9 21 8.77614 21 8.5C21 8.77614 21.2239 9 21.5 9C21.2239 9 21 9.22386 21 9.5ZM20 8.5C20 8.22386 19.7761 8 19.5 8C19.7761 8 20 7.77614 20 7.5C20 7.77614 20.2239 8 20.5 8C20.2239 8 20 8.22386 20 8.5ZM19 7.5C19 7.22386 18.7761 7 18.5 7C18.7761 7 19 6.77614 19 6.5C19 6.77614 19.2239 7 19.5 7C19.2239 7 19 7.22386 19 7.5ZM18 6.5C18 6.22386 17.7761 6 17.5 6C17.7761 6 18 5.77614 18 5.5C18 5.77614 18.2239 6 18.5 6C18.2239 6 18 6.22386 18 6.5ZM17 5.5C17 5.22386 16.7761 5 16.5 5C16.7761 5 17 4.77614 17 4.5C17 4.77614 17.2239 5 17.5 5C17.2239 5 17 5.22386 17 5.5ZM11 15.5C11 15.7761 11.2239 16 11.5 16C11.7761 16 12 15.7761 12 15.5C12 15.7761 12.2239 16 12.5 16C12.7761 16 13 15.7761 13 15.5C13 15.2239 12.7761 15 12.5 15C12.7761 15 13 14.7761 13 14.5C13 14.2239 12.7761 14 12.5 14C12.7761 14 13 13.7761 13 13.5C13 13.2239 12.7761 13 12.5 13C12.7761 13 13 12.7761 13 12.5C13 12.2239 12.7761 12 12.5 12C12.7761 12 13 11.7761 13 11.5C13 11.7761 13.2239 12 13.5 12C13.7761 12 14 11.7761 14 11.5C14 11.7761 14.2239 12 14.5 12C14.2239 12 14 12.2239 14 12.5C14 12.7761 14.2239 13 14.5 13C14.7761 13 15 12.7761 15 12.5C15 12.7761 15.2239 13 15.5 13C15.7761 13 16 12.7761 16 12.5C16 12.2239 15.7761 12 15.5 12C15.7761 12 16 11.7761 16 11.5C16 11.2239 15.7761 11 15.5 11C15.2239 11 15 11.2239 15 11.5C15 11.2239 14.7761 11 14.5 11C14.7761 11 15 10.7761 15 10.5C15 10.2239 14.7761 10 14.5 10C14.2239 10 14 10.2239 14 10.5C14 10.2239 13.7761 10 13.5 10C13.7761 10 14 9.77614 14 9.5C14 9.22386 13.7761 9 13.5 9C13.2239 9 13 9.22386 13 9.5C13 9.22386 12.7761 9 12.5 9C12.7761 9 13 8.77614 13 8.5C13 8.22386 12.7761 8 12.5 8C12.2239 8 12 8.22386 12 8.5C12 8.22386 11.7761 8 11.5 8C11.2239 8 11 8.22386 11 8.5C11 8.77614 11.2239 9 11.5 9C11.2239 9 11 9.22386 11 9.5C11 9.22386 10.7761 9 10.5 9C10.2239 9 10 9.22386 10 9.5C10 9.77614 10.2239 10 10.5 10C10.2239 10 10 10.2239 10 10.5C10 10.2239 9.77614 10 9.5 10C9.22386 10 9 10.2239 9 10.5C9 10.7761 9.22386 11 9.5 11C9.22386 11 9 11.2239 9 11.5C9 11.2239 8.77614 11 8.5 11C8.22386 11 8 11.2239 8 11.5C8 11.7761 8.22386 12 8.5 12C8.22386 12 8 12.2239 8 12.5C8 12.7761 8.22386 13 8.5 13C8.77614 13 9 12.7761 9 12.5C9 12.7761 9.22386 13 9.5 13C9.77614 13 10 12.7761 10 12.5C10 12.2239 9.77614 12 9.5 12C9.77614 12 10 11.7761 10 11.5C10 11.7761 10.2239 12 10.5 12C10.7761 12 11 11.7761 11 11.5C11 11.7761 11.2239 12 11.5 12C11.2239 12 11 12.2239 11 12.5C11 12.7761 11.2239 13 11.5 13C11.2239 13 11 13.2239 11 13.5C11 13.7761 11.2239 14 11.5 14C11.2239 14 11 14.2239 11 14.5C11 14.7761 11.2239 15 11.5 15C11.2239 15 11 15.2239 11 15.5ZM12 14.5C12 14.2239 12.2239 14 12.5 14C12.2239 14 12 13.7761 12 13.5C12 13.2239 12.2239 13 12.5 13C12.2239 13 12 12.7761 12 12.5C12 12.2239 12.2239 12 12.5 12C12.2239 12 12 11.7761 12 11.5C12 11.2239 12.2239 11 12.5 11C12.7761 11 13 11.2239 13 11.5C13 11.2239 13.2239 11 13.5 11C13.7761 11 14 11.2239 14 11.5C14 11.2239 14.2239 11 14.5 11C14.2239 11 14 10.7761 14 10.5C14 10.7761 13.7761 11 13.5 11C13.2239 11 13 10.7761 13 10.5C13 10.2239 13.2239 10 13.5 10C13.2239 10 13 9.77614 13 9.5C13 9.77614 12.7761 10 12.5 10C12.2239 10 12 9.77614 12 9.5C12 9.22386 12.2239 9 12.5 9C12.2239 9 12 8.77614 12 8.5C12 8.77614 11.7761 9 11.5 9C11.7761 9 12 9.22386 12 9.5C12 9.77614 11.7761 10 11.5 10C11.2239 10 11 9.77614 11 9.5C11 9.77614 10.7761 10 10.5 10C10.7761 10 11 10.2239 11 10.5C11 10.7761 10.7761 11 10.5 11C10.2239 11 10 10.7761 10 10.5C10 10.7761 9.77614 11 9.5 11C9.77614 11 10 11.2239 10 11.5C10 11.2239 10.2239 11 10.5 11C10.7761 11 11 11.2239 11 11.5C11 11.2239 11.2239 11 11.5 11C11.7761 11 12 11.2239 12 11.5C12 11.7761 11.7761 12 11.5 12C11.7761 12 12 12.2239 12 12.5C12 12.7761 11.7761 13 11.5 13C11.7761 13 12 13.2239 12 13.5C12 13.7761 11.7761 14 11.5 14C11.7761 14 12 14.2239 12 14.5ZM12 10.5C12 10.2239 12.2239 10 12.5 10C12.7761 10 13 10.2239 13 10.5C13 10.7761 12.7761 11 12.5 11C12.2239 11 12 10.7761 12 10.5ZM12 10.5C12 10.7761 11.7761 11 11.5 11C11.2239 11 11 10.7761 11 10.5C11 10.2239 11.2239 10 11.5 10C11.7761 10 12 10.2239 12 10.5ZM12 14.5C12 14.7761 11.7761 15 11.5 15C11.7761 15 12 15.2239 12 15.5C12 15.2239 12.2239 15 12.5 15C12.2239 15 12 14.7761 12 14.5ZM9.5 12C9.22386 12 9 11.7761 9 11.5C9 11.7761 8.77614 12 8.5 12C8.77614 12 9 12.2239 9 12.5C9 12.2239 9.22386 12 9.5 12ZM15 11.5C15 11.7761 15.2239 12 15.5 12C15.2239 12 15 12.2239 15 12.5C15 12.2239 14.7761 12 14.5 12C14.7761 12 15 11.7761 15 11.5Z" fill="black"/>
</svg>
