<svg width="24" height="24" viewBox="0 0 24 24" fill="none" xmlns="http://www.w3.org/2000/svg">
<path fill-rule="evenodd" clip-rule="evenodd" d="M11 3.5C11 3.22386 11.2239 3 11.5 3C11.7761 3 12 3.22386 12 3.5C12 3.77614 11.7761 4 11.5 4C11.2239 4 11 3.77614 11 3.5ZM10.5 4C10.7761 4 11 3.77614 11 3.5C11 3.22386 10.7761 3 10.5 3C10.2239 3 10 3.22386 10 3.5C10 3.77614 10.2239 4 10.5 4ZM11 4.5C11 4.22386 10.7761 4 10.5 4C10.2239 4 10 4.22386 10 4.5C10 4.22386 9.77614 4 9.5 4C9.22386 4 9 4.22386 9 4.5C9 4.22386 8.77614 4 8.5 4C8.22386 4 8 4.22386 8 4.5C8 4.77614 8.22386 5 8.5 5C8.22386 5 8 5.22386 8 5.5C8 5.22386 7.77614 5 7.5 5C7.22386 5 7 5.22386 7 5.5C7 5.77614 7.22386 6 7.5 6C7.22386 6 7 6.22386 7 6.5C7 6.77614 7.22386 7 7.5 7C7.22386 7 7 7.22386 7 7.5C7 7.22386 6.77614 7 6.5 7C6.22386 7 6 7.22386 6 7.5C6 7.77614 6.22386 8 6.5 8C6.22386 8 6 8.22386 6 8.5C6 8.77614 6.22386 9 6.5 9C6.22386 9 6 9.22386 6 9.5C6 9.77614 6.22386 10 6.5 10C6.22386 10 6 10.2239 6 10.5C6 10.7761 6.22386 11 6.5 11C6.22386 11 6 11.2239 6 11.5C6 11.2239 5.77614 11 5.5 11C5.22386 11 5 11.2239 5 11.5C5 11.7761 5.22386 12 5.5 12C5.22386 12 5 12.2239 5 12.5C5 12.7761 5.22386 13 5.5 13C5.22386 13 5 13.2239 5 13.5C5 13.7761 5.22386 14 5.5 14C5.22386 14 5 14.2239 5 14.5C5 14.2239 4.77614 14 4.5 14C4.22386 14 4 14.2239 4 14.5C4 14.7761 4.22386 15 4.5 15C4.22386 15 4 15.2239 4 15.5C4 15.7761 4.22386 16 4.5 16C4.22386 16 4 16.2239 4 16.5C4 16.7761 4.22386 17 4.5 17C4.77614 17 5 16.7761 5 16.5C5 16.7761 5.22386 17 5.5 17C5.77614 17 6 16.7761 6 16.5C6 16.7761 6.22386 17 6.5 17C6.77614 17 7 16.7761 7 16.5C7 16.7761 7.22386 17 7.5 17C7.77614 17 8 16.7761 8 16.5C8 16.7761 8.22386 17 8.5 17C8.77614 17 9 16.7761 9 16.5C9 16.7761 9.22386 17 9.5 17C9.77614 17 10 16.7761 10 16.5C10 16.7761 10.2239 17 10.5 17C10.7761 17 11 16.7761 11 16.5C11 16.7761 11.2239 17 11.5 17C11.7761 17 12 16.7761 12 16.5C12 16.7761 12.2239 17 12.5 17C12.7761 17 13 16.7761 13 16.5C13 16.7761 13.2239 17 13.5 17C13.7761 17 14 16.7761 14 16.5C14 16.7761 14.2239 17 14.5 17C14.7761 17 15 16.7761 15 16.5C15 16.7761 15.2239 17 15.5 17C15.7761 17 16 16.7761 16 16.5C16 16.7761 16.2239 17 16.5 17C16.7761 17 17 16.7761 17 16.5C17 16.7761 17.2239 17 17.5 17C17.7761 17 18 16.7761 18 16.5C18 16.7761 18.2239 17 18.5 17C18.7761 17 19 16.7761 19 16.5C19 16.7761 19.2239 17 19.5 17C19.7761 17 20 16.7761 20 16.5C20 16.2239 19.7761 16 19.5 16C19.7761 16 20 15.7761 20 15.5C20 15.2239 19.7761 15 19.5 15C19.7761 15 20 14.7761 20 14.5C20 14.2239 19.7761 14 19.5 14C19.2239 14 19 14.2239 19 14.5C19 14.2239 18.7761 14 18.5 14C18.7761 14 19 13.7761 19 13.5C19 13.2239 18.7761 13 18.5 13C18.7761 13 19 12.7761 19 12.5C19 12.2239 18.7761 12 18.5 12C18.7761 12 19 11.7761 19 11.5C19 11.2239 18.7761 11 18.5 11C18.2239 11 18 11.2239 18 11.5C18 11.2239 17.7761 11 17.5 11C17.7761 11 18 10.7761 18 10.5C18 10.2239 17.7761 10 17.5 10C17.7761 10 18 9.77614 18 9.5C18 9.22386 17.7761 9 17.5 9C17.7761 9 18 8.77614 18 8.5C18 8.22386 17.7761 8 17.5 8C17.7761 8 18 7.77614 18 7.5C18 7.22386 17.7761 7 17.5 7C17.2239 7 17 7.22386 17 7.5C17 7.22386 16.7761 7 16.5 7C16.7761 7 17 6.77614 17 6.5C17 6.22386 16.7761 6 16.5 6C16.7761 6 17 5.77614 17 5.5C17 5.22386 16.7761 5 16.5 5C16.2239 5 16 5.22386 16 5.5C16 5.22386 15.7761 5 15.5 5C15.7761 5 16 4.77614 16 4.5C16 4.22386 15.7761 4 15.5 4C15.2239 4 15 4.22386 15 4.5C15 4.22386 14.7761 4 14.5 4C14.2239 4 14 4.22386 14 4.5C14 4.22386 13.7761 4 13.5 4C13.7761 4 14 3.77614 14 3.5C14 3.22386 13.7761 3 13.5 3C13.2239 3 13 3.22386 13 3.5C13 3.22386 12.7761 3 12.5 3C12.2239 3 12 3.22386 12 3.5C12 3.77614 12.2239 4 12.5 4C12.2239 4 12 4.22386 12 4.5C12 4.22386 11.7761 4 11.5 4C11.2239 4 11 4.22386 11 4.5ZM10.5 5C10.2239 5 10 4.77614 10 4.5C10 4.77614 9.77614 5 9.5 5C9.22386 5 9 4.77614 9 4.5C9 4.77614 8.77614 5 8.5 5C8.77614 5 9 5.22386 9 5.5C9 5.77614 8.77614 6 8.5 6C8.22386 6 8 5.77614 8 5.5C8 5.77614 7.77614 6 7.5 6C7.77614 6 8 6.22386 8 6.5C8 6.77614 7.77614 7 7.5 7C7.77614 7 8 7.22386 8 7.5C8 7.77614 7.77614 8 7.5 8C7.22386 8 7 7.77614 7 7.5C7 7.77614 6.77614 8 6.5 8C6.77614 8 7 8.22386 7 8.5C7 8.77614 6.77614 9 6.5 9C6.77614 9 7 9.22386 7 9.5C7 9.77614 6.77614 10 6.5 10C6.77614 10 7 10.2239 7 10.5C7 10.7761 6.77614 11 6.5 11C6.77614 11 7 11.2239 7 11.5C7 11.7761 6.77614 12 6.5 12C6.22386 12 6 11.7761 6 11.5C6 11.7761 5.77614 12 5.5 12C5.77614 12 6 12.2239 6 12.5C6 12.7761 5.77614 13 5.5 13C5.77614 13 6 13.2239 6 13.5C6 13.7761 5.77614 14 5.5 14C5.77614 14 6 14.2239 6 14.5C6 14.7761 5.77614 15 5.5 15C5.22386 15 5 14.7761 5 14.5C5 14.7761 4.77614 15 4.5 15C4.77614 15 5 15.2239 5 15.5C5 15.7761 4.77614 16 4.5 16C4.77614 16 5 16.2239 5 16.5C5 16.2239 5.22386 16 5.5 16C5.77614 16 6 16.2239 6 16.5C6 16.2239 6.22386 16 6.5 16C6.77614 16 7 16.2239 7 16.5C7 16.2239 7.22386 16 7.5 16C7.77614 16 8 16.2239 8 16.5C8 16.2239 8.22386 16 8.5 16C8.77614 16 9 16.2239 9 16.5C9 16.2239 9.22386 16 9.5 16C9.77614 16 10 16.2239 10 16.5C10 16.2239 10.2239 16 10.5 16C10.7761 16 11 16.2239 11 16.5C11 16.2239 11.2239 16 11.5 16C11.7761 16 12 16.2239 12 16.5C12 16.2239 12.2239 16 12.5 16C12.7761 16 13 16.2239 13 16.5C13 16.2239 13.2239 16 13.5 16C13.7761 16 14 16.2239 14 16.5C14 16.2239 14.2239 16 14.5 16C14.7761 16 15 16.2239 15 16.5C15 16.2239 15.2239 16 15.5 16C15.7761 16 16 16.2239 16 16.5C16 16.2239 16.2239 16 16.5 16C16.7761 16 17 16.2239 17 16.5C17 16.2239 17.2239 16 17.5 16C17.7761 16 18 16.2239 18 16.5C18 16.2239 18.2239 16 18.5 16C18.7761 16 19 16.2239 19 16.5C19 16.2239 19.2239 16 19.5 16C19.2239 16 19 15.7761 19 15.5C19 15.2239 19.2239 15 19.5 15C19.2239 15 19 14.7761 19 14.5C19 14.7761 18.7761 15 18.5 15C18.2239 15 18 14.7761 18 14.5C18 14.2239 18.2239 14 18.5 14C18.2239 14 18 13.7761 18 13.5C18 13.2239 18.2239 13 18.5 13C18.2239 13 18 12.7761 18 12.5C18 12.2239 18.2239 12 18.5 12C18.2239 12 18 11.7761 18 11.5C18 11.7761 17.7761 12 17.5 12C17.2239 12 17 11.7761 17 11.5C17 11.2239 17.2239 11 17.5 11C17.2239 11 17 10.7761 17 10.5C17 10.2239 17.2239 10 17.5 10C17.2239 10 17 9.77614 17 9.5C17 9.22386 17.2239 9 17.5 9C17.2239 9 17 8.77614 17 8.5C17 8.22386 17.2239 8 17.5 8C17.2239 8 17 7.77614 17 7.5C17 7.77614 16.7761 8 16.5 8C16.2239 8 16 7.77614 16 7.5C16 7.22386 16.2239 7 16.5 7C16.2239 7 16 6.77614 16 6.5C16 6.22386 16.2239 6 16.5 6C16.2239 6 16 5.77614 16 5.5C16 5.77614 15.7761 6 15.5 6C15.2239 6 15 5.77614 15 5.5C15 5.22386 15.2239 5 15.5 5C15.2239 5 15 4.77614 15 4.5C15 4.77614 14.7761 5 14.5 5C14.2239 5 14 4.77614 14 4.5C14 4.77614 13.7761 5 13.5 5C13.2239 5 13 4.77614 13 4.5C13 4.22386 13.2239 4 13.5 4C13.2239 4 13 3.77614 13 3.5C13 3.77614 12.7761 4 12.5 4C12.7761 4 13 4.22386 13 4.5C13 4.77614 12.7761 5 12.5 5C12.2239 5 12 4.77614 12 4.5C12 4.77614 11.7761 5 11.5 5C11.2239 5 11 4.77614 11 4.5C11 4.77614 10.7761 5 10.5 5ZM10 5.5C10 5.22386 9.77614 5 9.5 5C9.22386 5 9 5.22386 9 5.5C9 5.77614 9.22386 6 9.5 6C9.77614 6 10 5.77614 10 5.5ZM10 5.5C10 5.77614 10.2239 6 10.5 6C10.7761 6 11 5.77614 11 5.5C11 5.22386 10.7761 5 10.5 5C10.2239 5 10 5.22386 10 5.5ZM14 5.5C14 5.77614 14.2239 6 14.5 6C14.7761 6 15 5.77614 15 5.5C15 5.22386 14.7761 5 14.5 5C14.2239 5 14 5.22386 14 5.5ZM14 5.5C14 5.22386 13.7761 5 13.5 5C13.2239 5 13 5.22386 13 5.5C13 5.77614 13.2239 6 13.5 6C13.7761 6 14 5.77614 14 5.5ZM15.5 7C15.7761 7 16 6.77614 16 6.5C16 6.22386 15.7761 6 15.5 6C15.2239 6 15 6.22386 15 6.5C15 6.77614 15.2239 7 15.5 7ZM15.5 7C15.2239 7 15 7.22386 15 7.5C15 7.77614 15.2239 8 15.5 8C15.7761 8 16 7.77614 16 7.5C16 7.22386 15.7761 7 15.5 7ZM16.5 9C16.7761 9 17 9.22386 17 9.5C17 9.77614 16.7761 10 16.5 10C16.2239 10 16 9.77614 16 9.5C16 9.22386 16.2239 9 16.5 9ZM16.5 11C16.7761 11 17 10.7761 17 10.5C17 10.2239 16.7761 10 16.5 10C16.2239 10 16 10.2239 16 10.5C16 10.7761 16.2239 11 16.5 11ZM16.5 9C16.7761 9 17 8.77614 17 8.5C17 8.22386 16.7761 8 16.5 8C16.2239 8 16 8.22386 16 8.5C16 8.77614 16.2239 9 16.5 9ZM16.5 11C16.2239 11 16 11.2239 16 11.5C16 11.7761 16.2239 12 16.5 12C16.7761 12 17 11.7761 17 11.5C17 11.2239 16.7761 11 16.5 11ZM17.5 13C17.7761 13 18 13.2239 18 13.5C18 13.7761 17.7761 14 17.5 14C17.2239 14 17 13.7761 17 13.5C17 13.2239 17.2239 13 17.5 13ZM17.5 15C17.7761 15 18 14.7761 18 14.5C18 14.2239 17.7761 14 17.5 14C17.2239 14 17 14.2239 17 14.5C17 14.7761 17.2239 15 17.5 15ZM18 15.5C18 15.7761 17.7761 16 17.5 16C17.2239 16 17 15.7761 17 15.5C17 15.2239 17.2239 15 17.5 15C17.7761 15 18 15.2239 18 15.5ZM16 15.5C16 15.2239 16.2239 15 16.5 15C16.7761 15 17 15.2239 17 15.5C17 15.7761 16.7761 16 16.5 16C16.2239 16 16 15.7761 16 15.5ZM15 15.5C15 15.2239 15.2239 15 15.5 15C15.7761 15 16 15.2239 16 15.5C16 15.7761 15.7761 16 15.5 16C15.2239 16 15 15.7761 15 15.5ZM14 15.5C14 15.2239 14.2239 15 14.5 15C14.7761 15 15 15.2239 15 15.5C15 15.7761 14.7761 16 14.5 16C14.2239 16 14 15.7761 14 15.5ZM13 15.5C13 15.2239 13.2239 15 13.5 15C13.7761 15 14 15.2239 14 15.5C14 15.7761 13.7761 16 13.5 16C13.2239 16 13 15.7761 13 15.5ZM12 15.5C12 15.2239 12.2239 15 12.5 15C12.7761 15 13 15.2239 13 15.5C13 15.7761 12.7761 16 12.5 16C12.2239 16 12 15.7761 12 15.5ZM11 15.5C11 15.2239 11.2239 15 11.5 15C11.7761 15 12 15.2239 12 15.5C12 15.7761 11.7761 16 11.5 16C11.2239 16 11 15.7761 11 15.5ZM10 15.5C10 15.7761 10.2239 16 10.5 16C10.7761 16 11 15.7761 11 15.5C11 15.2239 10.7761 15 10.5 15C10.2239 15 10 15.2239 10 15.5ZM9 15.5C9 15.7761 9.22386 16 9.5 16C9.77614 16 10 15.7761 10 15.5C10 15.2239 9.77614 15 9.5 15C9.22386 15 9 15.2239 9 15.5ZM8 15.5C8 15.7761 7.77614 16 7.5 16C7.22386 16 7 15.7761 7 15.5C7 15.2239 7.22386 15 7.5 15C7.77614 15 8 15.2239 8 15.5ZM6.5 15C6.77614 15 7 15.2239 7 15.5C7 15.7761 6.77614 16 6.5 16C6.22386 16 6 15.7761 6 15.5C6 15.2239 6.22386 15 6.5 15ZM6.5 14C6.77614 14 7 14.2239 7 14.5C7 14.7761 6.77614 15 6.5 15C6.22386 15 6 14.7761 6 14.5C6 14.2239 6.22386 14 6.5 14ZM6.5 13C6.22386 13 6 13.2239 6 13.5C6 13.7761 6.22386 14 6.5 14C6.77614 14 7 13.7761 7 13.5C7 13.2239 6.77614 13 6.5 13ZM8 15.5C8 15.7761 8.22386 16 8.5 16C8.77614 16 9 15.7761 9 15.5C9 15.2239 8.77614 15 8.5 15C8.22386 15 8 15.2239 8 15.5ZM17.5 13C17.7761 13 18 12.7761 18 12.5C18 12.2239 17.7761 12 17.5 12C17.2239 12 17 12.2239 17 12.5C17 12.7761 17.2239 13 17.5 13ZM18 15.5C18 15.7761 18.2239 16 18.5 16C18.7761 16 19 15.7761 19 15.5C19 15.2239 18.7761 15 18.5 15C18.2239 15 18 15.2239 18 15.5ZM6 15.5C6 15.2239 5.77614 15 5.5 15C5.22386 15 5 15.2239 5 15.5C5 15.7761 5.22386 16 5.5 16C5.77614 16 6 15.7761 6 15.5ZM6.5 13C6.22386 13 6 12.7761 6 12.5C6 12.2239 6.22386 12 6.5 12C6.77614 12 7 12.2239 7 12.5C7 12.7761 6.77614 13 6.5 13ZM7.5 11C7.22386 11 7 10.7761 7 10.5C7 10.2239 7.22386 10 7.5 10C7.77614 10 8 10.2239 8 10.5C8 10.7761 7.77614 11 7.5 11ZM7.5 9C7.22386 9 7 8.77614 7 8.5C7 8.22386 7.22386 8 7.5 8C7.77614 8 8 8.22386 8 8.5C8 8.77614 7.77614 9 7.5 9ZM7.5 9C7.77614 9 8 9.22386 8 9.5C8 9.77614 7.77614 10 7.5 10C7.22386 10 7 9.77614 7 9.5C7 9.22386 7.22386 9 7.5 9ZM7.5 11C7.77614 11 8 11.2239 8 11.5C8 11.7761 7.77614 12 7.5 12C7.22386 12 7 11.7761 7 11.5C7 11.2239 7.22386 11 7.5 11ZM8.5 7C8.77614 7 9 6.77614 9 6.5C9 6.22386 8.77614 6 8.5 6C8.22386 6 8 6.22386 8 6.5C8 6.77614 8.22386 7 8.5 7ZM8.5 7C8.22386 7 8 7.22386 8 7.5C8 7.77614 8.22386 8 8.5 8C8.77614 8 9 7.77614 9 7.5C9 7.22386 8.77614 7 8.5 7ZM14 19.5C14 19.2239 14.2239 19 14.5 19C14.7761 19 15 19.2239 15 19.5C15 19.7761 14.7761 20 14.5 20C14.2239 20 14 19.7761 14 19.5ZM13.5 20C13.2239 20 13 19.7761 13 19.5C13 19.2239 13.2239 19 13.5 19C13.7761 19 14 19.2239 14 19.5C14 19.7761 13.7761 20 13.5 20ZM14 20.5C14 20.2239 13.7761 20 13.5 20C13.2239 20 13 20.2239 13 20.5C13 20.2239 12.7761 20 12.5 20C12.2239 20 12 20.2239 12 20.5C12 20.2239 11.7761 20 11.5 20C11.2239 20 11 20.2239 11 20.5C11 20.2239 10.7761 20 10.5 20C10.7761 20 11 19.7761 11 19.5C11 19.2239 10.7761 19 10.5 19C10.2239 19 10 19.2239 10 19.5C10 19.2239 9.77614 19 9.5 19C9.22386 19 9 19.2239 9 19.5C9 19.7761 9.22386 20 9.5 20C9.22386 20 9 20.2239 9 20.5C9 20.7761 9.22386 21 9.5 21C9.77614 21 10 20.7761 10 20.5C10 20.7761 10.2239 21 10.5 21C10.7761 21 11 20.7761 11 20.5C11 20.7761 11.2239 21 11.5 21C11.2239 21 11 21.2239 11 21.5C11 21.7761 11.2239 22 11.5 22C11.7761 22 12 21.7761 12 21.5C12 21.7761 12.2239 22 12.5 22C12.7761 22 13 21.7761 13 21.5C13 21.2239 12.7761 21 12.5 21C12.7761 21 13 20.7761 13 20.5C13 20.7761 13.2239 21 13.5 21C13.7761 21 14 20.7761 14 20.5ZM12.5 21C12.2239 21 12 20.7761 12 20.5C12 20.7761 11.7761 21 11.5 21C11.7761 21 12 21.2239 12 21.5C12 21.2239 12.2239 21 12.5 21ZM10 20.5C10 20.2239 9.77614 20 9.5 20C9.77614 20 10 19.7761 10 19.5C10 19.7761 10.2239 20 10.5 20C10.2239 20 10 20.2239 10 20.5ZM14 20.5C14 20.7761 14.2239 21 14.5 21C14.7761 21 15 20.7761 15 20.5C15 20.2239 14.7761 20 14.5 20C14.2239 20 14 20.2239 14 20.5Z" fill="black"/>
</svg>
