<svg width="24" height="24" viewBox="0 0 24 24" fill="none" xmlns="http://www.w3.org/2000/svg">
<path fill-rule="evenodd" clip-rule="evenodd" d="M8.5 6C8.22386 6 8 6.22386 8 6.5C8 6.22386 7.77614 6 7.5 6C7.22386 6 7 6.22386 7 6.5C7 6.77614 7.22386 7 7.5 7C7.22386 7 7 7.22386 7 7.5C7 7.77614 7.22386 8 7.5 8C7.77614 8 8 7.77614 8 7.5C8 7.77614 8.22386 8 8.5 8C8.22386 8 8 8.22386 8 8.5C8 8.77614 8.22386 9 8.5 9C8.77614 9 9 8.77614 9 8.5C9 8.77614 9.22386 9 9.5 9C9.22386 9 9 9.22386 9 9.5C9 9.77614 9.22386 10 9.5 10C9.77614 10 10 9.77614 10 9.5C10 9.77614 10.2239 10 10.5 10C10.2239 10 10 10.2239 10 10.5C10 10.7761 10.2239 11 10.5 11C10.7761 11 11 10.7761 11 10.5C11 10.7761 11.2239 11 11.5 11C11.2239 11 11 11.2239 11 11.5C11 11.7761 11.2239 12 11.5 12C11.7761 12 12 11.7761 12 11.5C12 11.7761 12.2239 12 12.5 12C12.7761 12 13 11.7761 13 11.5C13 11.2239 12.7761 11 12.5 11C12.7761 11 13 10.7761 13 10.5C13 10.7761 13.2239 11 13.5 11C13.7761 11 14 10.7761 14 10.5C14 10.2239 13.7761 10 13.5 10C13.7761 10 14 9.77614 14 9.5C14 9.77614 14.2239 10 14.5 10C14.7761 10 15 9.77614 15 9.5C15 9.22386 14.7761 9 14.5 9C14.7761 9 15 8.77614 15 8.5C15 8.77614 15.2239 9 15.5 9C15.7761 9 16 8.77614 16 8.5C16 8.22386 15.7761 8 15.5 8C15.7761 8 16 7.77614 16 7.5C16 7.77614 16.2239 8 16.5 8C16.7761 8 17 7.77614 17 7.5C17 7.22386 16.7761 7 16.5 7C16.7761 7 17 6.77614 17 6.5C17 6.22386 16.7761 6 16.5 6C16.2239 6 16 6.22386 16 6.5C16 6.22386 15.7761 6 15.5 6C15.2239 6 15 6.22386 15 6.5C15 6.77614 15.2239 7 15.5 7C15.2239 7 15 7.22386 15 7.5C15 7.22386 14.7761 7 14.5 7C14.2239 7 14 7.22386 14 7.5C14 7.77614 14.2239 8 14.5 8C14.2239 8 14 8.22386 14 8.5C14 8.22386 13.7761 8 13.5 8C13.2239 8 13 8.22386 13 8.5C13 8.77614 13.2239 9 13.5 9C13.2239 9 13 9.22386 13 9.5C13 9.22386 12.7761 9 12.5 9C12.2239 9 12 9.22386 12 9.5C12 9.22386 11.7761 9 11.5 9C11.2239 9 11 9.22386 11 9.5C11 9.22386 10.7761 9 10.5 9C10.7761 9 11 8.77614 11 8.5C11 8.22386 10.7761 8 10.5 8C10.2239 8 10 8.22386 10 8.5C10 8.22386 9.77614 8 9.5 8C9.77614 8 10 7.77614 10 7.5C10 7.22386 9.77614 7 9.5 7C9.22386 7 9 7.22386 9 7.5C9 7.22386 8.77614 7 8.5 7C8.77614 7 9 6.77614 9 6.5C9 6.22386 8.77614 6 8.5 6ZM9 7.5C9 7.77614 9.22386 8 9.5 8C9.22386 8 9 8.22386 9 8.5C9 8.22386 8.77614 8 8.5 8C8.77614 8 9 7.77614 9 7.5ZM10 8.5C10 8.77614 9.77614 9 9.5 9C9.77614 9 10 9.22386 10 9.5C10 9.22386 10.2239 9 10.5 9C10.2239 9 10 8.77614 10 8.5ZM11.5 10C11.2239 10 11 9.77614 11 9.5C11 9.77614 10.7761 10 10.5 10C10.7761 10 11 10.2239 11 10.5C11 10.2239 11.2239 10 11.5 10ZM12 10.5C12 10.2239 11.7761 10 11.5 10C11.7761 10 12 9.77614 12 9.5C12 9.77614 12.2239 10 12.5 10C12.2239 10 12 10.2239 12 10.5ZM12 10.5C12 10.7761 11.7761 11 11.5 11C11.7761 11 12 11.2239 12 11.5C12 11.2239 12.2239 11 12.5 11C12.2239 11 12 10.7761 12 10.5ZM12.5 10C12.7761 10 13 10.2239 13 10.5C13 10.2239 13.2239 10 13.5 10C13.2239 10 13 9.77614 13 9.5C13 9.77614 12.7761 10 12.5 10ZM13.5 9C13.7761 9 14 8.77614 14 8.5C14 8.77614 14.2239 9 14.5 9C14.2239 9 14 9.22386 14 9.5C14 9.22386 13.7761 9 13.5 9ZM14.5 8C14.7761 8 15 8.22386 15 8.5C15 8.22386 15.2239 8 15.5 8C15.2239 8 15 7.77614 15 7.5C15 7.77614 14.7761 8 14.5 8ZM15.5 7C15.7761 7 16 6.77614 16 6.5C16 6.77614 16.2239 7 16.5 7C16.2239 7 16 7.22386 16 7.5C16 7.22386 15.7761 7 15.5 7ZM8.5 7C8.22386 7 8 7.22386 8 7.5C8 7.22386 7.77614 7 7.5 7C7.77614 7 8 6.77614 8 6.5C8 6.77614 8.22386 7 8.5 7ZM8.5 13C8.22386 13 8 13.2239 8 13.5C8 13.2239 7.77614 13 7.5 13C7.22386 13 7 13.2239 7 13.5C7 13.7761 7.22386 14 7.5 14C7.22386 14 7 14.2239 7 14.5C7 14.7761 7.22386 15 7.5 15C7.77614 15 8 14.7761 8 14.5C8 14.7761 8.22386 15 8.5 15C8.22386 15 8 15.2239 8 15.5C8 15.7761 8.22386 16 8.5 16C8.77614 16 9 15.7761 9 15.5C9 15.7761 9.22386 16 9.5 16C9.22386 16 9 16.2239 9 16.5C9 16.7761 9.22386 17 9.5 17C9.77614 17 10 16.7761 10 16.5C10 16.7761 10.2239 17 10.5 17C10.2239 17 10 17.2239 10 17.5C10 17.7761 10.2239 18 10.5 18C10.7761 18 11 17.7761 11 17.5C11 17.7761 11.2239 18 11.5 18C11.2239 18 11 18.2239 11 18.5C11 18.7761 11.2239 19 11.5 19C11.7761 19 12 18.7761 12 18.5C12 18.7761 12.2239 19 12.5 19C12.7761 19 13 18.7761 13 18.5C13 18.2239 12.7761 18 12.5 18C12.7761 18 13 17.7761 13 17.5C13 17.7761 13.2239 18 13.5 18C13.7761 18 14 17.7761 14 17.5C14 17.2239 13.7761 17 13.5 17C13.7761 17 14 16.7761 14 16.5C14 16.7761 14.2239 17 14.5 17C14.7761 17 15 16.7761 15 16.5C15 16.2239 14.7761 16 14.5 16C14.7761 16 15 15.7761 15 15.5C15 15.7761 15.2239 16 15.5 16C15.7761 16 16 15.7761 16 15.5C16 15.2239 15.7761 15 15.5 15C15.7761 15 16 14.7761 16 14.5C16 14.7761 16.2239 15 16.5 15C16.7761 15 17 14.7761 17 14.5C17 14.2239 16.7761 14 16.5 14C16.7761 14 17 13.7761 17 13.5C17 13.2239 16.7761 13 16.5 13C16.2239 13 16 13.2239 16 13.5C16 13.2239 15.7761 13 15.5 13C15.2239 13 15 13.2239 15 13.5C15 13.7761 15.2239 14 15.5 14C15.2239 14 15 14.2239 15 14.5C15 14.2239 14.7761 14 14.5 14C14.2239 14 14 14.2239 14 14.5C14 14.7761 14.2239 15 14.5 15C14.2239 15 14 15.2239 14 15.5C14 15.2239 13.7761 15 13.5 15C13.2239 15 13 15.2239 13 15.5C13 15.7761 13.2239 16 13.5 16C13.2239 16 13 16.2239 13 16.5C13 16.2239 12.7761 16 12.5 16C12.2239 16 12 16.2239 12 16.5C12 16.2239 11.7761 16 11.5 16C11.2239 16 11 16.2239 11 16.5C11 16.2239 10.7761 16 10.5 16C10.7761 16 11 15.7761 11 15.5C11 15.2239 10.7761 15 10.5 15C10.2239 15 10 15.2239 10 15.5C10 15.2239 9.77614 15 9.5 15C9.77614 15 10 14.7761 10 14.5C10 14.2239 9.77614 14 9.5 14C9.22386 14 9 14.2239 9 14.5C9 14.2239 8.77614 14 8.5 14C8.77614 14 9 13.7761 9 13.5C9 13.2239 8.77614 13 8.5 13ZM9 14.5C9 14.7761 9.22386 15 9.5 15C9.22386 15 9 15.2239 9 15.5C9 15.2239 8.77614 15 8.5 15C8.77614 15 9 14.7761 9 14.5ZM10 15.5C10 15.7761 9.77614 16 9.5 16C9.77614 16 10 16.2239 10 16.5C10 16.2239 10.2239 16 10.5 16C10.2239 16 10 15.7761 10 15.5ZM11.5 17C11.2239 17 11 16.7761 11 16.5C11 16.7761 10.7761 17 10.5 17C10.7761 17 11 17.2239 11 17.5C11 17.2239 11.2239 17 11.5 17ZM12 17.5C12 17.2239 11.7761 17 11.5 17C11.7761 17 12 16.7761 12 16.5C12 16.7761 12.2239 17 12.5 17C12.2239 17 12 17.2239 12 17.5ZM12 17.5C12 17.7761 12.2239 18 12.5 18C12.2239 18 12 18.2239 12 18.5C12 18.2239 11.7761 18 11.5 18C11.7761 18 12 17.7761 12 17.5ZM12.5 17C12.7761 17 13 17.2239 13 17.5C13 17.2239 13.2239 17 13.5 17C13.2239 17 13 16.7761 13 16.5C13 16.7761 12.7761 17 12.5 17ZM13.5 16C13.7761 16 14 15.7761 14 15.5C14 15.7761 14.2239 16 14.5 16C14.2239 16 14 16.2239 14 16.5C14 16.2239 13.7761 16 13.5 16ZM14.5 15C14.7761 15 15 15.2239 15 15.5C15 15.2239 15.2239 15 15.5 15C15.2239 15 15 14.7761 15 14.5C15 14.7761 14.7761 15 14.5 15ZM15.5 14C15.7761 14 16 13.7761 16 13.5C16 13.7761 16.2239 14 16.5 14C16.2239 14 16 14.2239 16 14.5C16 14.2239 15.7761 14 15.5 14ZM8.5 14C8.22386 14 8 14.2239 8 14.5C8 14.2239 7.77614 14 7.5 14C7.77614 14 8 13.7761 8 13.5C8 13.7761 8.22386 14 8.5 14Z" fill="black"/>
</svg>
