<svg width="24" height="24" viewBox="0 0 24 24" fill="none" xmlns="http://www.w3.org/2000/svg">
<path fill-rule="evenodd" clip-rule="evenodd" d="M7.5 4C7.22386 4 7 4.22386 7 4.5C7 4.77614 7.22386 5 7.5 5C7.22386 5 7 5.22386 7 5.5C7 5.22386 6.77614 5 6.5 5C6.22386 5 6 5.22386 6 5.5C6 5.22386 5.77614 5 5.5 5C5.22386 5 5 5.22386 5 5.5C5 5.77614 5.22386 6 5.5 6C5.22386 6 5 6.22386 5 6.5C5 6.22386 4.77614 6 4.5 6C4.22386 6 4 6.22386 4 6.5C4 6.77614 4.22386 7 4.5 7C4.22386 7 4 7.22386 4 7.5C4 7.22386 3.77614 7 3.5 7C3.22386 7 3 7.22386 3 7.5C3 7.77614 3.22386 8 3.5 8C3.22386 8 3 8.22386 3 8.5C3 8.77614 3.22386 9 3.5 9C3.22386 9 3 9.22386 3 9.5C3 9.22386 2.77614 9 2.5 9C2.22386 9 2 9.22386 2 9.5C2 9.77614 2.22386 10 2.5 10C2.22386 10 2 10.2239 2 10.5C2 10.7761 2.22386 11 2.5 11C2.22386 11 2 11.2239 2 11.5C2 11.7761 2.22386 12 2.5 12C2.22386 12 2 12.2239 2 12.5C2 12.7761 2.22386 13 2.5 13C2.22386 13 2 13.2239 2 13.5C2 13.7761 2.22386 14 2.5 14C2.22386 14 2 14.2239 2 14.5C2 14.7761 2.22386 15 2.5 15C2.77614 15 3 14.7761 3 14.5C3 14.7761 3.22386 15 3.5 15C3.22386 15 3 15.2239 3 15.5C3 15.7761 3.22386 16 3.5 16C3.22386 16 3 16.2239 3 16.5C3 16.7761 3.22386 17 3.5 17C3.77614 17 4 16.7761 4 16.5C4 16.7761 4.22386 17 4.5 17C4.22386 17 4 17.2239 4 17.5C4 17.7761 4.22386 18 4.5 18C4.77614 18 5 17.7761 5 17.5C5 17.7761 5.22386 18 5.5 18C5.77614 18 6 17.7761 6 17.5C6 17.2239 5.77614 17 5.5 17C5.77614 17 6 16.7761 6 16.5C6 16.2239 5.77614 16 5.5 16C5.22386 16 5 16.2239 5 16.5C5 16.2239 4.77614 16 4.5 16C4.77614 16 5 15.7761 5 15.5C5 15.2239 4.77614 15 4.5 15C4.77614 15 5 14.7761 5 14.5C5 14.2239 4.77614 14 4.5 14C4.22386 14 4 14.2239 4 14.5C4 14.2239 3.77614 14 3.5 14C3.77614 14 4 13.7761 4 13.5C4 13.2239 3.77614 13 3.5 13C3.77614 13 4 12.7761 4 12.5C4 12.2239 3.77614 12 3.5 12C3.77614 12 4 11.7761 4 11.5C4 11.2239 3.77614 11 3.5 11C3.77614 11 4 10.7761 4 10.5C4 10.2239 3.77614 10 3.5 10C3.77614 10 4 9.77614 4 9.5C4 9.77614 4.22386 10 4.5 10C4.77614 10 5 9.77614 5 9.5C5 9.22386 4.77614 9 4.5 9C4.77614 9 5 8.77614 5 8.5C5 8.22386 4.77614 8 4.5 8C4.77614 8 5 7.77614 5 7.5C5 7.77614 5.22386 8 5.5 8C5.77614 8 6 7.77614 6 7.5C6 7.22386 5.77614 7 5.5 7C5.77614 7 6 6.77614 6 6.5C6 6.77614 6.22386 7 6.5 7C6.77614 7 7 6.77614 7 6.5C7 6.77614 7.22386 7 7.5 7C7.77614 7 8 6.77614 8 6.5C8 6.22386 7.77614 6 7.5 6C7.77614 6 8 5.77614 8 5.5C8 5.77614 8.22386 6 8.5 6C8.77614 6 9 5.77614 9 5.5C9 5.77614 9.22386 6 9.5 6C9.77614 6 10 5.77614 10 5.5C10 5.77614 10.2239 6 10.5 6C10.7761 6 11 5.77614 11 5.5C11 5.77614 11.2239 6 11.5 6C11.2239 6 11 6.22386 11 6.5C11 6.77614 11.2239 7 11.5 7C11.7761 7 12 6.77614 12 6.5C12 6.77614 12.2239 7 12.5 7C12.7761 7 13 6.77614 13 6.5C13 6.77614 13.2239 7 13.5 7C13.2239 7 13 7.22386 13 7.5C13 7.77614 13.2239 8 13.5 8C13.2239 8 13 8.22386 13 8.5C13 8.77614 13.2239 9 13.5 9C13.7761 9 14 8.77614 14 8.5C14 8.77614 14.2239 9 14.5 9C14.2239 9 14 9.22386 14 9.5C14 9.77614 14.2239 10 14.5 10C14.2239 10 14 10.2239 14 10.5C14 10.7761 14.2239 11 14.5 11C14.7761 11 15 10.7761 15 10.5C15 10.7761 15.2239 11 15.5 11C15.7761 11 16 10.7761 16 10.5C16 10.7761 16.2239 11 16.5 11C16.7761 11 17 10.7761 17 10.5C17 10.7761 17.2239 11 17.5 11C17.7761 11 18 10.7761 18 10.5C18 10.7761 18.2239 11 18.5 11C18.2239 11 18 11.2239 18 11.5C18 11.7761 18.2239 12 18.5 12C18.7761 12 19 11.7761 19 11.5C19 11.7761 19.2239 12 19.5 12C19.2239 12 19 12.2239 19 12.5C19 12.7761 19.2239 13 19.5 13C19.7761 13 20 12.7761 20 12.5C20 12.7761 20.2239 13 20.5 13C20.2239 13 20 13.2239 20 13.5C20 13.7761 20.2239 14 20.5 14C20.2239 14 20 14.2239 20 14.5C20 14.7761 20.2239 15 20.5 15C20.2239 15 20 15.2239 20 15.5C20 15.7761 20.2239 16 20.5 16C20.2239 16 20 16.2239 20 16.5C20 16.2239 19.7761 16 19.5 16C19.2239 16 19 16.2239 19 16.5C19 16.7761 19.2239 17 19.5 17C19.2239 17 19 17.2239 19 17.5C19 17.2239 18.7761 17 18.5 17C18.2239 17 18 17.2239 18 17.5C18 17.7761 18.2239 18 18.5 18C18.2239 18 18 18.2239 18 18.5C18 18.7761 18.2239 19 18.5 19C18.7761 19 19 18.7761 19 18.5C19 18.7761 19.2239 19 19.5 19C19.7761 19 20 18.7761 20 18.5C20 18.2239 19.7761 18 19.5 18C19.7761 18 20 17.7761 20 17.5C20 17.7761 20.2239 18 20.5 18C20.7761 18 21 17.7761 21 17.5C21 17.2239 20.7761 17 20.5 17C20.7761 17 21 16.7761 21 16.5C21 16.7761 21.2239 17 21.5 17C21.7761 17 22 16.7761 22 16.5C22 16.2239 21.7761 16 21.5 16C21.7761 16 22 15.7761 22 15.5C22 15.2239 21.7761 15 21.5 15C21.7761 15 22 14.7761 22 14.5C22 14.2239 21.7761 14 21.5 14C21.7761 14 22 13.7761 22 13.5C22 13.2239 21.7761 13 21.5 13C21.7761 13 22 12.7761 22 12.5C22 12.2239 21.7761 12 21.5 12C21.2239 12 21 12.2239 21 12.5C21 12.2239 20.7761 12 20.5 12C20.7761 12 21 11.7761 21 11.5C21 11.2239 20.7761 11 20.5 11C20.2239 11 20 11.2239 20 11.5C20 11.2239 19.7761 11 19.5 11C19.7761 11 20 10.7761 20 10.5C20 10.2239 19.7761 10 19.5 10C19.2239 10 19 10.2239 19 10.5C19 10.2239 18.7761 10 18.5 10C18.7761 10 19 9.77614 19 9.5C19 9.22386 18.7761 9 18.5 9C18.2239 9 18 9.22386 18 9.5C18 9.22386 17.7761 9 17.5 9C17.2239 9 17 9.22386 17 9.5C17 9.22386 16.7761 9 16.5 9C16.2239 9 16 9.22386 16 9.5C16 9.22386 15.7761 9 15.5 9C15.7761 9 16 8.77614 16 8.5C16 8.22386 15.7761 8 15.5 8C15.2239 8 15 8.22386 15 8.5C15 8.22386 14.7761 8 14.5 8C14.7761 8 15 7.77614 15 7.5C15 7.22386 14.7761 7 14.5 7C14.7761 7 15 6.77614 15 6.5C15 6.22386 14.7761 6 14.5 6C14.2239 6 14 6.22386 14 6.5C14 6.22386 13.7761 6 13.5 6C13.7761 6 14 5.77614 14 5.5C14 5.22386 13.7761 5 13.5 5C13.2239 5 13 5.22386 13 5.5C13 5.22386 12.7761 5 12.5 5C12.2239 5 12 5.22386 12 5.5C12 5.22386 11.7761 5 11.5 5C11.7761 5 12 4.77614 12 4.5C12 4.22386 11.7761 4 11.5 4C11.2239 4 11 4.22386 11 4.5C11 4.22386 10.7761 4 10.5 4C10.2239 4 10 4.22386 10 4.5C10 4.22386 9.77614 4 9.5 4C9.22386 4 9 4.22386 9 4.5C9 4.22386 8.77614 4 8.5 4C8.22386 4 8 4.22386 8 4.5C8 4.22386 7.77614 4 7.5 4ZM8.5 5C8.77614 5 9 5.22386 9 5.5C9 5.22386 9.22386 5 9.5 5C9.77614 5 10 5.22386 10 5.5C10 5.22386 10.2239 5 10.5 5C10.7761 5 11 5.22386 11 5.5C11 5.22386 11.2239 5 11.5 5C11.2239 5 11 4.77614 11 4.5C11 4.77614 10.7761 5 10.5 5C10.2239 5 10 4.77614 10 4.5C10 4.77614 9.77614 5 9.5 5C9.22386 5 9 4.77614 9 4.5C9 4.77614 8.77614 5 8.5 5ZM8.5 5C8.22386 5 8 4.77614 8 4.5C8 4.77614 7.77614 5 7.5 5C7.77614 5 8 5.22386 8 5.5C8 5.22386 8.22386 5 8.5 5ZM12.5 6C12.7761 6 13 5.77614 13 5.5C13 5.77614 13.2239 6 13.5 6C13.2239 6 13 6.22386 13 6.5C13 6.22386 12.7761 6 12.5 6ZM12.5 6C12.2239 6 12 5.77614 12 5.5C12 5.77614 11.7761 6 11.5 6C11.7761 6 12 6.22386 12 6.5C12 6.22386 12.2239 6 12.5 6ZM14 7.5C14 7.22386 13.7761 7 13.5 7C13.7761 7 14 6.77614 14 6.5C14 6.77614 14.2239 7 14.5 7C14.2239 7 14 7.22386 14 7.5ZM14 7.5C14 7.77614 13.7761 8 13.5 8C13.7761 8 14 8.22386 14 8.5C14 8.22386 14.2239 8 14.5 8C14.2239 8 14 7.77614 14 7.5ZM15 9.5C15 9.77614 14.7761 10 14.5 10C14.7761 10 15 10.2239 15 10.5C15 10.2239 15.2239 10 15.5 10C15.7761 10 16 10.2239 16 10.5C16 10.2239 16.2239 10 16.5 10C16.7761 10 17 10.2239 17 10.5C17 10.2239 17.2239 10 17.5 10C17.7761 10 18 10.2239 18 10.5C18 10.2239 18.2239 10 18.5 10C18.2239 10 18 9.77614 18 9.5C18 9.77614 17.7761 10 17.5 10C17.2239 10 17 9.77614 17 9.5C17 9.77614 16.7761 10 16.5 10C16.2239 10 16 9.77614 16 9.5C16 9.77614 15.7761 10 15.5 10C15.2239 10 15 9.77614 15 9.5ZM15 9.5C15 9.22386 14.7761 9 14.5 9C14.7761 9 15 8.77614 15 8.5C15 8.77614 15.2239 9 15.5 9C15.2239 9 15 9.22386 15 9.5ZM19 10.5C19 10.7761 19.2239 11 19.5 11C19.2239 11 19 11.2239 19 11.5C19 11.2239 18.7761 11 18.5 11C18.7761 11 19 10.7761 19 10.5ZM20 11.5C20 11.7761 19.7761 12 19.5 12C19.7761 12 20 12.2239 20 12.5C20 12.2239 20.2239 12 20.5 12C20.2239 12 20 11.7761 20 11.5ZM21 13.5C21 13.2239 20.7761 13 20.5 13C20.7761 13 21 12.7761 21 12.5C21 12.7761 21.2239 13 21.5 13C21.2239 13 21 13.2239 21 13.5ZM21 14.5C21 14.2239 20.7761 14 20.5 14C20.7761 14 21 13.7761 21 13.5C21 13.7761 21.2239 14 21.5 14C21.2239 14 21 14.2239 21 14.5ZM21 15.5C21 15.2239 20.7761 15 20.5 15C20.7761 15 21 14.7761 21 14.5C21 14.7761 21.2239 15 21.5 15C21.2239 15 21 15.2239 21 15.5ZM21 15.5C21 15.7761 21.2239 16 21.5 16C21.2239 16 21 16.2239 21 16.5C21 16.2239 20.7761 16 20.5 16C20.7761 16 21 15.7761 21 15.5ZM20.5 17C20.2239 17 20 16.7761 20 16.5C20 16.7761 19.7761 17 19.5 17C19.7761 17 20 17.2239 20 17.5C20 17.2239 20.2239 17 20.5 17ZM19.5 18C19.2239 18 19 18.2239 19 18.5C19 18.2239 18.7761 18 18.5 18C18.7761 18 19 17.7761 19 17.5C19 17.7761 19.2239 18 19.5 18ZM6.5 6C6.22386 6 6 5.77614 6 5.5C6 5.77614 5.77614 6 5.5 6C5.77614 6 6 6.22386 6 6.5C6 6.22386 6.22386 6 6.5 6ZM6.5 6C6.77614 6 7 6.22386 7 6.5C7 6.22386 7.22386 6 7.5 6C7.22386 6 7 5.77614 7 5.5C7 5.77614 6.77614 6 6.5 6ZM5.5 7C5.22386 7 5 7.22386 5 7.5C5 7.22386 4.77614 7 4.5 7C4.77614 7 5 6.77614 5 6.5C5 6.77614 5.22386 7 5.5 7ZM4 8.5C4 8.77614 4.22386 9 4.5 9C4.22386 9 4 9.22386 4 9.5C4 9.22386 3.77614 9 3.5 9C3.77614 9 4 8.77614 4 8.5ZM4 8.5C4 8.22386 4.22386 8 4.5 8C4.22386 8 4 7.77614 4 7.5C4 7.77614 3.77614 8 3.5 8C3.77614 8 4 8.22386 4 8.5ZM3 10.5C3 10.2239 2.77614 10 2.5 10C2.77614 10 3 9.77614 3 9.5C3 9.77614 3.22386 10 3.5 10C3.22386 10 3 10.2239 3 10.5ZM3 11.5C3 11.2239 2.77614 11 2.5 11C2.77614 11 3 10.7761 3 10.5C3 10.7761 3.22386 11 3.5 11C3.22386 11 3 11.2239 3 11.5ZM3 12.5C3 12.2239 2.77614 12 2.5 12C2.77614 12 3 11.7761 3 11.5C3 11.7761 3.22386 12 3.5 12C3.22386 12 3 12.2239 3 12.5ZM3 13.5C3 13.2239 2.77614 13 2.5 13C2.77614 13 3 12.7761 3 12.5C3 12.7761 3.22386 13 3.5 13C3.22386 13 3 13.2239 3 13.5ZM3 13.5C3 13.7761 3.22386 14 3.5 14C3.22386 14 3 14.2239 3 14.5C3 14.2239 2.77614 14 2.5 14C2.77614 14 3 13.7761 3 13.5ZM4 15.5C4 15.2239 3.77614 15 3.5 15C3.77614 15 4 14.7761 4 14.5C4 14.7761 4.22386 15 4.5 15C4.22386 15 4 15.2239 4 15.5ZM4 15.5C4 15.7761 4.22386 16 4.5 16C4.22386 16 4 16.2239 4 16.5C4 16.2239 3.77614 16 3.5 16C3.77614 16 4 15.7761 4 15.5ZM5 16.5C5 16.7761 4.77614 17 4.5 17C4.77614 17 5 17.2239 5 17.5C5 17.2239 5.22386 17 5.5 17C5.22386 17 5 16.7761 5 16.5ZM11 17.5C11 17.2239 11.2239 17 11.5 17C11.7761 17 12 17.2239 12 17.5C12 17.7761 11.7761 18 11.5 18C11.2239 18 11 17.7761 11 17.5ZM10.5 18C10.7761 18 11 17.7761 11 17.5C11 17.2239 10.7761 17 10.5 17C10.7761 17 11 16.7761 11 16.5C11 16.7761 11.2239 17 11.5 17C11.7761 17 12 16.7761 12 16.5C12 16.7761 12.2239 17 12.5 17C12.2239 17 12 17.2239 12 17.5C12 17.7761 12.2239 18 12.5 18C12.2239 18 12 18.2239 12 18.5C12 18.2239 11.7761 18 11.5 18C11.2239 18 11 18.2239 11 18.5C11 18.2239 10.7761 18 10.5 18ZM10 17.5C10 17.2239 10.2239 17 10.5 17C10.2239 17 10 16.7761 10 16.5C10 16.2239 10.2239 16 10.5 16C10.7761 16 11 16.2239 11 16.5C11 16.2239 11.2239 16 11.5 16C11.7761 16 12 16.2239 12 16.5C12 16.2239 12.2239 16 12.5 16C12.7761 16 13 16.2239 13 16.5C13 16.7761 12.7761 17 12.5 17C12.7761 17 13 17.2239 13 17.5C13 17.7761 12.7761 18 12.5 18C12.7761 18 13 18.2239 13 18.5C13 18.7761 12.7761 19 12.5 19C12.2239 19 12 18.7761 12 18.5C12 18.7761 11.7761 19 11.5 19C11.2239 19 11 18.7761 11 18.5C11 18.7761 10.7761 19 10.5 19C10.2239 19 10 18.7761 10 18.5C10 18.2239 10.2239 18 10.5 18C10.2239 18 10 17.7761 10 17.5ZM9.5 17C9.77614 17 10 17.2239 10 17.5C10 17.7761 9.77614 18 9.5 18C9.22386 18 9 17.7761 9 17.5C9 17.2239 9.22386 17 9.5 17ZM9 16.5C9 16.7761 9.22386 17 9.5 17C9.77614 17 10 16.7761 10 16.5C10 16.2239 9.77614 16 9.5 16C9.77614 16 10 15.7761 10 15.5C10 15.2239 9.77614 15 9.5 15C9.22386 15 9 15.2239 9 15.5C9 15.2239 8.77614 15 8.5 15C8.22386 15 8 15.2239 8 15.5C8 15.7761 8.22386 16 8.5 16C8.22386 16 8 16.2239 8 16.5C8 16.7761 8.22386 17 8.5 17C8.77614 17 9 16.7761 9 16.5ZM9 16.5C9 16.2239 9.22386 16 9.5 16C9.22386 16 9 15.7761 9 15.5C9 15.7761 8.77614 16 8.5 16C8.77614 16 9 16.2239 9 16.5ZM12 19.5C12 19.7761 11.7761 20 11.5 20C11.2239 20 11 19.7761 11 19.5C11 19.2239 11.2239 19 11.5 19C11.7761 19 12 19.2239 12 19.5ZM12 19.5C12 19.7761 12.2239 20 12.5 20C12.7761 20 13 19.7761 13 19.5C13 19.2239 12.7761 19 12.5 19C12.2239 19 12 19.2239 12 19.5ZM13.5 18C13.7761 18 14 18.2239 14 18.5C14 18.7761 13.7761 19 13.5 19C13.2239 19 13 18.7761 13 18.5C13 18.2239 13.2239 18 13.5 18ZM14 17.5C14 17.7761 13.7761 18 13.5 18C13.2239 18 13 17.7761 13 17.5C13 17.2239 13.2239 17 13.5 17C13.7761 17 14 17.2239 14 17.5ZM14.5 17C14.2239 17 14 17.2239 14 17.5C14 17.7761 14.2239 18 14.5 18C14.7761 18 15 17.7761 15 17.5C15 17.2239 14.7761 17 14.5 17ZM14 16.5C14 16.7761 13.7761 17 13.5 17C13.2239 17 13 16.7761 13 16.5C13 16.2239 13.2239 16 13.5 16C13.7761 16 14 16.2239 14 16.5ZM14.5 16C14.2239 16 14 16.2239 14 16.5C14 16.7761 14.2239 17 14.5 17C14.7761 17 15 16.7761 15 16.5C15 16.7761 15.2239 17 15.5 17C15.7761 17 16 16.7761 16 16.5C16 16.2239 15.7761 16 15.5 16C15.7761 16 16 15.7761 16 15.5C16 15.2239 15.7761 15 15.5 15C15.2239 15 15 15.2239 15 15.5C15 15.2239 14.7761 15 14.5 15C14.2239 15 14 15.2239 14 15.5C14 15.7761 14.2239 16 14.5 16ZM14.5 16C14.7761 16 15 15.7761 15 15.5C15 15.7761 15.2239 16 15.5 16C15.2239 16 15 16.2239 15 16.5C15 16.2239 14.7761 16 14.5 16ZM12 15.5C12 15.7761 11.7761 16 11.5 16C11.2239 16 11 15.7761 11 15.5C11 15.2239 11.2239 15 11.5 15C11.7761 15 12 15.2239 12 15.5ZM12.5 15C12.2239 15 12 15.2239 12 15.5C12 15.7761 12.2239 16 12.5 16C12.7761 16 13 15.7761 13 15.5C13 15.2239 12.7761 15 12.5 15ZM12 14.5C12 14.7761 12.2239 15 12.5 15C12.7761 15 13 14.7761 13 14.5C13 14.2239 12.7761 14 12.5 14C12.7761 14 13 13.7761 13 13.5C13 13.2239 12.7761 13 12.5 13C12.7761 13 13 12.7761 13 12.5C13 12.2239 12.7761 12 12.5 12C12.7761 12 13 11.7761 13 11.5C13 11.2239 12.7761 11 12.5 11C12.2239 11 12 11.2239 12 11.5C12 11.2239 11.7761 11 11.5 11C11.2239 11 11 11.2239 11 11.5C11 11.7761 11.2239 12 11.5 12C11.2239 12 11 12.2239 11 12.5C11 12.7761 11.2239 13 11.5 13C11.2239 13 11 13.2239 11 13.5C11 13.7761 11.2239 14 11.5 14C11.2239 14 11 14.2239 11 14.5C11 14.7761 11.2239 15 11.5 15C11.7761 15 12 14.7761 12 14.5ZM12 13.5C12 13.7761 12.2239 14 12.5 14C12.2239 14 12 14.2239 12 14.5C12 14.2239 11.7761 14 11.5 14C11.7761 14 12 13.7761 12 13.5ZM12 12.5C12 12.7761 12.2239 13 12.5 13C12.2239 13 12 13.2239 12 13.5C12 13.2239 11.7761 13 11.5 13C11.7761 13 12 12.7761 12 12.5ZM12 12.5C12 12.2239 12.2239 12 12.5 12C12.2239 12 12 11.7761 12 11.5C12 11.7761 11.7761 12 11.5 12C11.7761 12 12 12.2239 12 12.5Z" fill="black"/>
</svg>
