<svg width="24" height="24" viewBox="0 0 24 24" fill="none" xmlns="http://www.w3.org/2000/svg">
<path fill-rule="evenodd" clip-rule="evenodd" d="M3 3.5C3 3.22386 3.22386 3 3.5 3C3.77614 3 4 3.22386 4 3.5C4 3.77614 3.77614 4 3.5 4C3.22386 4 3 3.77614 3 3.5ZM4 4.5C4 4.22386 3.77614 4 3.5 4C3.22386 4 3 4.22386 3 4.5C3 4.77614 3.22386 5 3.5 5C3.77614 5 4 4.77614 4 4.5ZM4.5 4C4.22386 4 4 4.22386 4 4.5C4 4.77614 4.22386 5 4.5 5C4.22386 5 4 5.22386 4 5.5C4 5.77614 4.22386 6 4.5 6C4.22386 6 4 6.22386 4 6.5C4 6.77614 4.22386 7 4.5 7C4.77614 7 5 6.77614 5 6.5C5 6.77614 5.22386 7 5.5 7C5.22386 7 5 7.22386 5 7.5C5 7.77614 5.22386 8 5.5 8C5.77614 8 6 7.77614 6 7.5C6 7.77614 6.22386 8 6.5 8C6.22386 8 6 8.22386 6 8.5C6 8.77614 6.22386 9 6.5 9C6.77614 9 7 8.77614 7 8.5C7 8.77614 7.22386 9 7.5 9C7.22386 9 7 9.22386 7 9.5C7 9.77614 7.22386 10 7.5 10C7.77614 10 8 9.77614 8 9.5C8 9.77614 8.22386 10 8.5 10C8.22386 10 8 10.2239 8 10.5C8 10.7761 8.22386 11 8.5 11C8.22386 11 8 11.2239 8 11.5C8 11.7761 8.22386 12 8.5 12C8.77614 12 9 11.7761 9 11.5C9 11.7761 9.22386 12 9.5 12C9.22386 12 9 12.2239 9 12.5C9 12.7761 9.22386 13 9.5 13C9.22386 13 9 13.2239 9 13.5C9 13.7761 9.22386 14 9.5 14C9.22386 14 9 14.2239 9 14.5C9 14.7761 9.22386 15 9.5 15C9.22386 15 9 15.2239 9 15.5C9 15.7761 9.22386 16 9.5 16C9.22386 16 9 16.2239 9 16.5C9 16.7761 9.22386 17 9.5 17C9.77614 17 10 16.7761 10 16.5C10 16.7761 10.2239 17 10.5 17C10.2239 17 10 17.2239 10 17.5C10 17.7761 10.2239 18 10.5 18C10.7761 18 11 17.7761 11 17.5C11 17.7761 11.2239 18 11.5 18C11.2239 18 11 18.2239 11 18.5C11 18.7761 11.2239 19 11.5 19C11.7761 19 12 18.7761 12 18.5C12 18.7761 12.2239 19 12.5 19C12.2239 19 12 19.2239 12 19.5C12 19.7761 12.2239 20 12.5 20C12.7761 20 13 19.7761 13 19.5C13 19.7761 13.2239 20 13.5 20C13.2239 20 13 20.2239 13 20.5C13 20.7761 13.2239 21 13.5 21C13.7761 21 14 20.7761 14 20.5C14 20.7761 14.2239 21 14.5 21C14.7761 21 15 20.7761 15 20.5C15 20.2239 14.7761 20 14.5 20C14.7761 20 15 19.7761 15 19.5C15 19.2239 14.7761 19 14.5 19C14.7761 19 15 18.7761 15 18.5C15 18.2239 14.7761 18 14.5 18C14.7761 18 15 17.7761 15 17.5C15 17.2239 14.7761 17 14.5 17C14.7761 17 15 16.7761 15 16.5C15 16.2239 14.7761 16 14.5 16C14.7761 16 15 15.7761 15 15.5C15 15.2239 14.7761 15 14.5 15C14.7761 15 15 14.7761 15 14.5C15 14.2239 14.7761 14 14.5 14C14.7761 14 15 13.7761 15 13.5C15 13.2239 14.7761 13 14.5 13C14.7761 13 15 12.7761 15 12.5C15 12.2239 14.7761 12 14.5 12C14.7761 12 15 11.7761 15 11.5C15 11.7761 15.2239 12 15.5 12C15.7761 12 16 11.7761 16 11.5C16 11.2239 15.7761 11 15.5 11C15.7761 11 16 10.7761 16 10.5C16 10.2239 15.7761 10 15.5 10C15.7761 10 16 9.77614 16 9.5C16 9.77614 16.2239 10 16.5 10C16.7761 10 17 9.77614 17 9.5C17 9.22386 16.7761 9 16.5 9C16.7761 9 17 8.77614 17 8.5C17 8.77614 17.2239 9 17.5 9C17.7761 9 18 8.77614 18 8.5C18 8.22386 17.7761 8 17.5 8C17.7761 8 18 7.77614 18 7.5C18 7.77614 18.2239 8 18.5 8C18.7761 8 19 7.77614 19 7.5C19 7.22386 18.7761 7 18.5 7C18.7761 7 19 6.77614 19 6.5C19 6.77614 19.2239 7 19.5 7C19.7761 7 20 6.77614 20 6.5C20 6.22386 19.7761 6 19.5 6C19.7761 6 20 5.77614 20 5.5C20 5.77614 20.2239 6 20.5 6C20.7761 6 21 5.77614 21 5.5C21 5.22386 20.7761 5 20.5 5C20.7761 5 21 4.77614 21 4.5C21 4.22386 20.7761 4 20.5 4C20.7761 4 21 3.77614 21 3.5C21 3.22386 20.7761 3 20.5 3C20.2239 3 20 3.22386 20 3.5C20 3.22386 19.7761 3 19.5 3C19.2239 3 19 3.22386 19 3.5C19 3.22386 18.7761 3 18.5 3C18.2239 3 18 3.22386 18 3.5C18 3.22386 17.7761 3 17.5 3C17.2239 3 17 3.22386 17 3.5C17 3.22386 16.7761 3 16.5 3C16.2239 3 16 3.22386 16 3.5C16 3.22386 15.7761 3 15.5 3C15.2239 3 15 3.22386 15 3.5C15 3.22386 14.7761 3 14.5 3C14.2239 3 14 3.22386 14 3.5C14 3.22386 13.7761 3 13.5 3C13.2239 3 13 3.22386 13 3.5C13 3.22386 12.7761 3 12.5 3C12.2239 3 12 3.22386 12 3.5C12 3.22386 11.7761 3 11.5 3C11.2239 3 11 3.22386 11 3.5C11 3.22386 10.7761 3 10.5 3C10.2239 3 10 3.22386 10 3.5C10 3.22386 9.77614 3 9.5 3C9.22386 3 9 3.22386 9 3.5C9 3.22386 8.77614 3 8.5 3C8.22386 3 8 3.22386 8 3.5C8 3.22386 7.77614 3 7.5 3C7.22386 3 7 3.22386 7 3.5C7 3.22386 6.77614 3 6.5 3C6.22386 3 6 3.22386 6 3.5C6 3.22386 5.77614 3 5.5 3C5.22386 3 5 3.22386 5 3.5C5 3.22386 4.77614 3 4.5 3C4.22386 3 4 3.22386 4 3.5C4 3.77614 4.22386 4 4.5 4ZM5 4.5C5 4.22386 4.77614 4 4.5 4C4.77614 4 5 3.77614 5 3.5C5 3.77614 5.22386 4 5.5 4C5.22386 4 5 4.22386 5 4.5ZM5.5 5C5.22386 5 5 4.77614 5 4.5C5 4.77614 4.77614 5 4.5 5C4.77614 5 5 5.22386 5 5.5C5 5.77614 4.77614 6 4.5 6C4.77614 6 5 6.22386 5 6.5C5 6.22386 5.22386 6 5.5 6C5.77614 6 6 6.22386 6 6.5C6 6.77614 5.77614 7 5.5 7C5.77614 7 6 7.22386 6 7.5C6 7.22386 6.22386 7 6.5 7C6.77614 7 7 7.22386 7 7.5C7 7.77614 6.77614 8 6.5 8C6.77614 8 7 8.22386 7 8.5C7 8.22386 7.22386 8 7.5 8C7.77614 8 8 8.22386 8 8.5C8 8.77614 7.77614 9 7.5 9C7.77614 9 8 9.22386 8 9.5C8 9.22386 8.22386 9 8.5 9C8.77614 9 9 9.22386 9 9.5C9 9.77614 8.77614 10 8.5 10C8.77614 10 9 10.2239 9 10.5C9 10.7761 8.77614 11 8.5 11C8.77614 11 9 11.2239 9 11.5C9 11.2239 9.22386 11 9.5 11C9.77614 11 10 11.2239 10 11.5C10 11.7761 9.77614 12 9.5 12C9.77614 12 10 12.2239 10 12.5C10 12.7761 9.77614 13 9.5 13C9.77614 13 10 13.2239 10 13.5C10 13.7761 9.77614 14 9.5 14C9.77614 14 10 14.2239 10 14.5C10 14.7761 9.77614 15 9.5 15C9.77614 15 10 15.2239 10 15.5C10 15.7761 9.77614 16 9.5 16C9.77614 16 10 16.2239 10 16.5C10 16.2239 10.2239 16 10.5 16C10.7761 16 11 16.2239 11 16.5C11 16.7761 10.7761 17 10.5 17C10.7761 17 11 17.2239 11 17.5C11 17.2239 11.2239 17 11.5 17C11.7761 17 12 17.2239 12 17.5C12 17.7761 11.7761 18 11.5 18C11.7761 18 12 18.2239 12 18.5C12 18.2239 12.2239 18 12.5 18C12.7761 18 13 18.2239 13 18.5C13 18.7761 12.7761 19 12.5 19C12.7761 19 13 19.2239 13 19.5C13 19.2239 13.2239 19 13.5 19C13.7761 19 14 19.2239 14 19.5C14 19.7761 13.7761 20 13.5 20C13.7761 20 14 20.2239 14 20.5C14 20.2239 14.2239 20 14.5 20C14.2239 20 14 19.7761 14 19.5C14 19.2239 14.2239 19 14.5 19C14.2239 19 14 18.7761 14 18.5C14 18.2239 14.2239 18 14.5 18C14.2239 18 14 17.7761 14 17.5C14 17.2239 14.2239 17 14.5 17C14.2239 17 14 16.7761 14 16.5C14 16.2239 14.2239 16 14.5 16C14.2239 16 14 15.7761 14 15.5C14 15.2239 14.2239 15 14.5 15C14.2239 15 14 14.7761 14 14.5C14 14.2239 14.2239 14 14.5 14C14.2239 14 14 13.7761 14 13.5C14 13.2239 14.2239 13 14.5 13C14.2239 13 14 12.7761 14 12.5C14 12.2239 14.2239 12 14.5 12C14.2239 12 14 11.7761 14 11.5C14 11.2239 14.2239 11 14.5 11C14.7761 11 15 11.2239 15 11.5C15 11.2239 15.2239 11 15.5 11C15.2239 11 15 10.7761 15 10.5C15 10.2239 15.2239 10 15.5 10C15.2239 10 15 9.77614 15 9.5C15 9.22386 15.2239 9 15.5 9C15.7761 9 16 9.22386 16 9.5C16 9.22386 16.2239 9 16.5 9C16.2239 9 16 8.77614 16 8.5C16 8.22386 16.2239 8 16.5 8C16.7761 8 17 8.22386 17 8.5C17 8.22386 17.2239 8 17.5 8C17.2239 8 17 7.77614 17 7.5C17 7.22386 17.2239 7 17.5 7C17.7761 7 18 7.22386 18 7.5C18 7.22386 18.2239 7 18.5 7C18.2239 7 18 6.77614 18 6.5C18 6.22386 18.2239 6 18.5 6C18.7761 6 19 6.22386 19 6.5C19 6.22386 19.2239 6 19.5 6C19.2239 6 19 5.77614 19 5.5C19 5.22386 19.2239 5 19.5 5C19.7761 5 20 5.22386 20 5.5C20 5.22386 20.2239 5 20.5 5C20.2239 5 20 4.77614 20 4.5C20 4.22386 20.2239 4 20.5 4C20.2239 4 20 3.77614 20 3.5C20 3.77614 19.7761 4 19.5 4C19.2239 4 19 3.77614 19 3.5C19 3.77614 18.7761 4 18.5 4C18.2239 4 18 3.77614 18 3.5C18 3.77614 17.7761 4 17.5 4C17.2239 4 17 3.77614 17 3.5C17 3.77614 16.7761 4 16.5 4C16.2239 4 16 3.77614 16 3.5C16 3.77614 15.7761 4 15.5 4C15.2239 4 15 3.77614 15 3.5C15 3.77614 14.7761 4 14.5 4C14.2239 4 14 3.77614 14 3.5C14 3.77614 13.7761 4 13.5 4C13.2239 4 13 3.77614 13 3.5C13 3.77614 12.7761 4 12.5 4C12.2239 4 12 3.77614 12 3.5C12 3.77614 11.7761 4 11.5 4C11.2239 4 11 3.77614 11 3.5C11 3.77614 10.7761 4 10.5 4C10.2239 4 10 3.77614 10 3.5C10 3.77614 9.77614 4 9.5 4C9.22386 4 9 3.77614 9 3.5C9 3.77614 8.77614 4 8.5 4C8.22386 4 8 3.77614 8 3.5C8 3.77614 7.77614 4 7.5 4C7.22386 4 7 3.77614 7 3.5C7 3.77614 6.77614 4 6.5 4C6.22386 4 6 3.77614 6 3.5C6 3.77614 5.77614 4 5.5 4C5.77614 4 6 4.22386 6 4.5C6 4.77614 5.77614 5 5.5 5ZM7 4.5C7 4.22386 7.22386 4 7.5 4C7.77614 4 8 4.22386 8 4.5C8 4.77614 7.77614 5 7.5 5C7.22386 5 7 4.77614 7 4.5ZM9 4.5C9 4.22386 9.22386 4 9.5 4C9.77614 4 10 4.22386 10 4.5C10 4.77614 9.77614 5 9.5 5C9.22386 5 9 4.77614 9 4.5ZM11 4.5C11 4.22386 11.2239 4 11.5 4C11.7761 4 12 4.22386 12 4.5C12 4.77614 11.7761 5 11.5 5C11.2239 5 11 4.77614 11 4.5ZM13 4.5C13 4.22386 13.2239 4 13.5 4C13.7761 4 14 4.22386 14 4.5C14 4.77614 13.7761 5 13.5 5C13.2239 5 13 4.77614 13 4.5ZM15 4.5C15 4.22386 15.2239 4 15.5 4C15.7761 4 16 4.22386 16 4.5C16 4.77614 15.7761 5 15.5 5C15.2239 5 15 4.77614 15 4.5ZM17 4.5C17 4.22386 17.2239 4 17.5 4C17.7761 4 18 4.22386 18 4.5C18 4.77614 17.7761 5 17.5 5C17.2239 5 17 4.77614 17 4.5ZM18.5 5C18.2239 5 18 4.77614 18 4.5C18 4.22386 18.2239 4 18.5 4C18.7761 4 19 4.22386 19 4.5C19 4.77614 18.7761 5 18.5 5ZM18.5 5C18.2239 5 18 5.22386 18 5.5C18 5.77614 18.2239 6 18.5 6C18.7761 6 19 5.77614 19 5.5C19 5.22386 18.7761 5 18.5 5ZM17 4.5C17 4.22386 16.7761 4 16.5 4C16.2239 4 16 4.22386 16 4.5C16 4.77614 16.2239 5 16.5 5C16.7761 5 17 4.77614 17 4.5ZM15 4.5C15 4.22386 14.7761 4 14.5 4C14.2239 4 14 4.22386 14 4.5C14 4.77614 14.2239 5 14.5 5C14.7761 5 15 4.77614 15 4.5ZM13 4.5C13 4.22386 12.7761 4 12.5 4C12.2239 4 12 4.22386 12 4.5C12 4.77614 12.2239 5 12.5 5C12.7761 5 13 4.77614 13 4.5ZM11 4.5C11 4.22386 10.7761 4 10.5 4C10.2239 4 10 4.22386 10 4.5C10 4.77614 10.2239 5 10.5 5C10.7761 5 11 4.77614 11 4.5ZM9 4.5C9 4.22386 8.77614 4 8.5 4C8.22386 4 8 4.22386 8 4.5C8 4.77614 8.22386 5 8.5 5C8.77614 5 9 4.77614 9 4.5ZM7 4.5C7 4.22386 6.77614 4 6.5 4C6.22386 4 6 4.22386 6 4.5C6 4.77614 6.22386 5 6.5 5C6.77614 5 7 4.77614 7 4.5ZM5.5 5C5.22386 5 5 5.22386 5 5.5C5 5.77614 5.22386 6 5.5 6C5.77614 6 6 5.77614 6 5.5C6 5.22386 5.77614 5 5.5 5ZM19 4.5C19 4.22386 19.2239 4 19.5 4C19.7761 4 20 4.22386 20 4.5C20 4.77614 19.7761 5 19.5 5C19.2239 5 19 4.77614 19 4.5ZM18 6.5C18 6.77614 17.7761 7 17.5 7C17.2239 7 17 6.77614 17 6.5C17 6.22386 17.2239 6 17.5 6C17.7761 6 18 6.22386 18 6.5ZM17 7.5C17 7.77614 16.7761 8 16.5 8C16.2239 8 16 7.77614 16 7.5C16 7.22386 16.2239 7 16.5 7C16.7761 7 17 7.22386 17 7.5ZM16 8.5C16 8.22386 15.7761 8 15.5 8C15.2239 8 15 8.22386 15 8.5C15 8.77614 15.2239 9 15.5 9C15.7761 9 16 8.77614 16 8.5ZM14.5 10C14.2239 10 14 9.77614 14 9.5C14 9.22386 14.2239 9 14.5 9C14.7761 9 15 9.22386 15 9.5C15 9.77614 14.7761 10 14.5 10ZM14.5 10C14.7761 10 15 10.2239 15 10.5C15 10.7761 14.7761 11 14.5 11C14.2239 11 14 10.7761 14 10.5C14 10.2239 14.2239 10 14.5 10ZM13.5 12C13.2239 12 13 11.7761 13 11.5C13 11.2239 13.2239 11 13.5 11C13.7761 11 14 11.2239 14 11.5C14 11.7761 13.7761 12 13.5 12ZM13.5 13C13.7761 13 14 13.2239 14 13.5C14 13.7761 13.7761 14 13.5 14C13.2239 14 13 13.7761 13 13.5C13 13.2239 13.2239 13 13.5 13ZM13.5 15C13.7761 15 14 15.2239 14 15.5C14 15.7761 13.7761 16 13.5 16C13.2239 16 13 15.7761 13 15.5C13 15.2239 13.2239 15 13.5 15ZM13.5 17C13.2239 17 13 16.7761 13 16.5C13 16.2239 13.2239 16 13.5 16C13.7761 16 14 16.2239 14 16.5C14 16.7761 13.7761 17 13.5 17ZM13 17.5C13 17.2239 13.2239 17 13.5 17C13.7761 17 14 17.2239 14 17.5C14 17.7761 13.7761 18 13.5 18C13.2239 18 13 17.7761 13 17.5ZM13 17.5C13 17.2239 12.7761 17 12.5 17C12.2239 17 12 17.2239 12 17.5C12 17.7761 12.2239 18 12.5 18C12.7761 18 13 17.7761 13 17.5ZM13.5 15C13.7761 15 14 14.7761 14 14.5C14 14.2239 13.7761 14 13.5 14C13.2239 14 13 14.2239 13 14.5C13 14.7761 13.2239 15 13.5 15ZM13.5 13C13.7761 13 14 12.7761 14 12.5C14 12.2239 13.7761 12 13.5 12C13.2239 12 13 12.2239 13 12.5C13 12.7761 13.2239 13 13.5 13ZM13.5 18C13.2239 18 13 18.2239 13 18.5C13 18.7761 13.2239 19 13.5 19C13.7761 19 14 18.7761 14 18.5C14 18.2239 13.7761 18 13.5 18ZM11.5 17C11.7761 17 12 16.7761 12 16.5C12 16.2239 11.7761 16 11.5 16C11.2239 16 11 16.2239 11 16.5C11 16.7761 11.2239 17 11.5 17ZM10.5 15C10.2239 15 10 14.7761 10 14.5C10 14.2239 10.2239 14 10.5 14C10.7761 14 11 14.2239 11 14.5C11 14.7761 10.7761 15 10.5 15ZM10.5 13C10.2239 13 10 12.7761 10 12.5C10 12.2239 10.2239 12 10.5 12C10.7761 12 11 12.2239 11 12.5C11 12.7761 10.7761 13 10.5 13ZM10.5 13C10.2239 13 10 13.2239 10 13.5C10 13.7761 10.2239 14 10.5 14C10.7761 14 11 13.7761 11 13.5C11 13.2239 10.7761 13 10.5 13ZM10.5 15C10.2239 15 10 15.2239 10 15.5C10 15.7761 10.2239 16 10.5 16C10.7761 16 11 15.7761 11 15.5C11 15.2239 10.7761 15 10.5 15ZM10.5 12C10.7761 12 11 11.7761 11 11.5C11 11.2239 10.7761 11 10.5 11C10.2239 11 10 11.2239 10 11.5C10 11.7761 10.2239 12 10.5 12ZM9.5 10C9.22386 10 9 10.2239 9 10.5C9 10.7761 9.22386 11 9.5 11C9.77614 11 10 10.7761 10 10.5C10 10.2239 9.77614 10 9.5 10ZM9.5 10C9.77614 10 10 9.77614 10 9.5C10 9.22386 9.77614 9 9.5 9C9.22386 9 9 9.22386 9 9.5C9 9.77614 9.22386 10 9.5 10ZM8.5 9C8.77614 9 9 8.77614 9 8.5C9 8.22386 8.77614 8 8.5 8C8.22386 8 8 8.22386 8 8.5C8 8.77614 8.22386 9 8.5 9ZM7.5 8C7.77614 8 8 7.77614 8 7.5C8 7.22386 7.77614 7 7.5 7C7.22386 7 7 7.22386 7 7.5C7 7.77614 7.22386 8 7.5 8ZM6.5 7C6.22386 7 6 6.77614 6 6.5C6 6.22386 6.22386 6 6.5 6C6.77614 6 7 6.22386 7 6.5C7 6.77614 6.77614 7 6.5 7Z" fill="black"/>
</svg>
