<svg width="24" height="24" viewBox="0 0 24 24" fill="none" xmlns="http://www.w3.org/2000/svg">
<path fill-rule="evenodd" clip-rule="evenodd" d="M3.5 5C3.22386 5 3 5.22386 3 5.5C3 5.77614 3.22386 6 3.5 6C3.22386 6 3 6.22386 3 6.5C3 6.77614 3.22386 7 3.5 7C3.77614 7 4 6.77614 4 6.5C4 6.77614 4.22386 7 4.5 7C4.77614 7 5 6.77614 5 6.5C5 6.22386 4.77614 6 4.5 6C4.77614 6 5 5.77614 5 5.5C5 5.22386 4.77614 5 4.5 5C4.22386 5 4 5.22386 4 5.5C4 5.22386 3.77614 5 3.5 5ZM4 5.5C4 5.77614 4.22386 6 4.5 6C4.22386 6 4 6.22386 4 6.5C4 6.22386 3.77614 6 3.5 6C3.77614 6 4 5.77614 4 5.5ZM7.5 5C7.22386 5 7 5.22386 7 5.5C7 5.77614 7.22386 6 7.5 6C7.22386 6 7 6.22386 7 6.5C7 6.77614 7.22386 7 7.5 7C7.77614 7 8 6.77614 8 6.5C8 6.77614 8.22386 7 8.5 7C8.77614 7 9 6.77614 9 6.5C9 6.77614 9.22386 7 9.5 7C9.77614 7 10 6.77614 10 6.5C10 6.77614 10.2239 7 10.5 7C10.7761 7 11 6.77614 11 6.5C11 6.77614 11.2239 7 11.5 7C11.7761 7 12 6.77614 12 6.5C12 6.77614 12.2239 7 12.5 7C12.7761 7 13 6.77614 13 6.5C13 6.77614 13.2239 7 13.5 7C13.7761 7 14 6.77614 14 6.5C14 6.77614 14.2239 7 14.5 7C14.7761 7 15 6.77614 15 6.5C15 6.77614 15.2239 7 15.5 7C15.7761 7 16 6.77614 16 6.5C16 6.77614 16.2239 7 16.5 7C16.7761 7 17 6.77614 17 6.5C17 6.77614 17.2239 7 17.5 7C17.7761 7 18 6.77614 18 6.5C18 6.77614 18.2239 7 18.5 7C18.7761 7 19 6.77614 19 6.5C19 6.77614 19.2239 7 19.5 7C19.7761 7 20 6.77614 20 6.5C20 6.77614 20.2239 7 20.5 7C20.7761 7 21 6.77614 21 6.5C21 6.22386 20.7761 6 20.5 6C20.7761 6 21 5.77614 21 5.5C21 5.22386 20.7761 5 20.5 5C20.2239 5 20 5.22386 20 5.5C20 5.22386 19.7761 5 19.5 5C19.2239 5 19 5.22386 19 5.5C19 5.22386 18.7761 5 18.5 5C18.2239 5 18 5.22386 18 5.5C18 5.22386 17.7761 5 17.5 5C17.2239 5 17 5.22386 17 5.5C17 5.22386 16.7761 5 16.5 5C16.2239 5 16 5.22386 16 5.5C16 5.22386 15.7761 5 15.5 5C15.2239 5 15 5.22386 15 5.5C15 5.22386 14.7761 5 14.5 5C14.2239 5 14 5.22386 14 5.5C14 5.22386 13.7761 5 13.5 5C13.2239 5 13 5.22386 13 5.5C13 5.22386 12.7761 5 12.5 5C12.2239 5 12 5.22386 12 5.5C12 5.22386 11.7761 5 11.5 5C11.2239 5 11 5.22386 11 5.5C11 5.22386 10.7761 5 10.5 5C10.2239 5 10 5.22386 10 5.5C10 5.22386 9.77614 5 9.5 5C9.22386 5 9 5.22386 9 5.5C9 5.22386 8.77614 5 8.5 5C8.22386 5 8 5.22386 8 5.5C8 5.22386 7.77614 5 7.5 5ZM8.5 6C8.77614 6 9 6.22386 9 6.5C9 6.22386 9.22386 6 9.5 6C9.77614 6 10 6.22386 10 6.5C10 6.22386 10.2239 6 10.5 6C10.7761 6 11 6.22386 11 6.5C11 6.22386 11.2239 6 11.5 6C11.7761 6 12 6.22386 12 6.5C12 6.22386 12.2239 6 12.5 6C12.7761 6 13 6.22386 13 6.5C13 6.22386 13.2239 6 13.5 6C13.7761 6 14 6.22386 14 6.5C14 6.22386 14.2239 6 14.5 6C14.7761 6 15 6.22386 15 6.5C15 6.22386 15.2239 6 15.5 6C15.7761 6 16 6.22386 16 6.5C16 6.22386 16.2239 6 16.5 6C16.7761 6 17 6.22386 17 6.5C17 6.22386 17.2239 6 17.5 6C17.7761 6 18 6.22386 18 6.5C18 6.22386 18.2239 6 18.5 6C18.7761 6 19 6.22386 19 6.5C19 6.22386 19.2239 6 19.5 6C19.7761 6 20 6.22386 20 6.5C20 6.22386 20.2239 6 20.5 6C20.2239 6 20 5.77614 20 5.5C20 5.77614 19.7761 6 19.5 6C19.2239 6 19 5.77614 19 5.5C19 5.77614 18.7761 6 18.5 6C18.2239 6 18 5.77614 18 5.5C18 5.77614 17.7761 6 17.5 6C17.2239 6 17 5.77614 17 5.5C17 5.77614 16.7761 6 16.5 6C16.2239 6 16 5.77614 16 5.5C16 5.77614 15.7761 6 15.5 6C15.2239 6 15 5.77614 15 5.5C15 5.77614 14.7761 6 14.5 6C14.2239 6 14 5.77614 14 5.5C14 5.77614 13.7761 6 13.5 6C13.2239 6 13 5.77614 13 5.5C13 5.77614 12.7761 6 12.5 6C12.2239 6 12 5.77614 12 5.5C12 5.77614 11.7761 6 11.5 6C11.2239 6 11 5.77614 11 5.5C11 5.77614 10.7761 6 10.5 6C10.2239 6 10 5.77614 10 5.5C10 5.77614 9.77614 6 9.5 6C9.22386 6 9 5.77614 9 5.5C9 5.77614 8.77614 6 8.5 6ZM8.5 6C8.22386 6 8 5.77614 8 5.5C8 5.77614 7.77614 6 7.5 6C7.77614 6 8 6.22386 8 6.5C8 6.22386 8.22386 6 8.5 6ZM19 11.5C19 11.2239 19.2239 11 19.5 11C19.7761 11 20 11.2239 20 11.5C20 11.7761 19.7761 12 19.5 12C19.2239 12 19 11.7761 19 11.5ZM18.5 12C18.7761 12 19 11.7761 19 11.5C19 11.2239 18.7761 11 18.5 11C18.2239 11 18 11.2239 18 11.5C18 11.2239 17.7761 11 17.5 11C17.2239 11 17 11.2239 17 11.5C17 11.2239 16.7761 11 16.5 11C16.2239 11 16 11.2239 16 11.5C16 11.2239 15.7761 11 15.5 11C15.2239 11 15 11.2239 15 11.5C15 11.2239 14.7761 11 14.5 11C14.2239 11 14 11.2239 14 11.5C14 11.2239 13.7761 11 13.5 11C13.2239 11 13 11.2239 13 11.5C13 11.2239 12.7761 11 12.5 11C12.2239 11 12 11.2239 12 11.5C12 11.2239 11.7761 11 11.5 11C11.2239 11 11 11.2239 11 11.5C11 11.2239 10.7761 11 10.5 11C10.2239 11 10 11.2239 10 11.5C10 11.2239 9.77614 11 9.5 11C9.22386 11 9 11.2239 9 11.5C9 11.2239 8.77614 11 8.5 11C8.22386 11 8 11.2239 8 11.5C8 11.2239 7.77614 11 7.5 11C7.22386 11 7 11.2239 7 11.5C7 11.7761 7.22386 12 7.5 12C7.22386 12 7 12.2239 7 12.5C7 12.7761 7.22386 13 7.5 13C7.77614 13 8 12.7761 8 12.5C8 12.7761 8.22386 13 8.5 13C8.77614 13 9 12.7761 9 12.5C9 12.7761 9.22386 13 9.5 13C9.77614 13 10 12.7761 10 12.5C10 12.7761 10.2239 13 10.5 13C10.7761 13 11 12.7761 11 12.5C11 12.7761 11.2239 13 11.5 13C11.7761 13 12 12.7761 12 12.5C12 12.7761 12.2239 13 12.5 13C12.7761 13 13 12.7761 13 12.5C13 12.7761 13.2239 13 13.5 13C13.7761 13 14 12.7761 14 12.5C14 12.7761 14.2239 13 14.5 13C14.7761 13 15 12.7761 15 12.5C15 12.7761 15.2239 13 15.5 13C15.7761 13 16 12.7761 16 12.5C16 12.7761 16.2239 13 16.5 13C16.7761 13 17 12.7761 17 12.5C17 12.7761 17.2239 13 17.5 13C17.7761 13 18 12.7761 18 12.5C18 12.7761 18.2239 13 18.5 13C18.7761 13 19 12.7761 19 12.5C19 12.7761 19.2239 13 19.5 13C19.7761 13 20 12.7761 20 12.5C20 12.7761 20.2239 13 20.5 13C20.7761 13 21 12.7761 21 12.5C21 12.2239 20.7761 12 20.5 12C20.7761 12 21 11.7761 21 11.5C21 11.2239 20.7761 11 20.5 11C20.2239 11 20 11.2239 20 11.5C20 11.7761 20.2239 12 20.5 12C20.2239 12 20 12.2239 20 12.5C20 12.2239 19.7761 12 19.5 12C19.2239 12 19 12.2239 19 12.5C19 12.2239 18.7761 12 18.5 12ZM18.5 12C18.2239 12 18 11.7761 18 11.5C18 11.7761 17.7761 12 17.5 12C17.2239 12 17 11.7761 17 11.5C17 11.7761 16.7761 12 16.5 12C16.2239 12 16 11.7761 16 11.5C16 11.7761 15.7761 12 15.5 12C15.2239 12 15 11.7761 15 11.5C15 11.7761 14.7761 12 14.5 12C14.2239 12 14 11.7761 14 11.5C14 11.7761 13.7761 12 13.5 12C13.2239 12 13 11.7761 13 11.5C13 11.7761 12.7761 12 12.5 12C12.2239 12 12 11.7761 12 11.5C12 11.7761 11.7761 12 11.5 12C11.2239 12 11 11.7761 11 11.5C11 11.7761 10.7761 12 10.5 12C10.2239 12 10 11.7761 10 11.5C10 11.7761 9.77614 12 9.5 12C9.22386 12 9 11.7761 9 11.5C9 11.7761 8.77614 12 8.5 12C8.22386 12 8 11.7761 8 11.5C8 11.7761 7.77614 12 7.5 12C7.77614 12 8 12.2239 8 12.5C8 12.2239 8.22386 12 8.5 12C8.77614 12 9 12.2239 9 12.5C9 12.2239 9.22386 12 9.5 12C9.77614 12 10 12.2239 10 12.5C10 12.2239 10.2239 12 10.5 12C10.7761 12 11 12.2239 11 12.5C11 12.2239 11.2239 12 11.5 12C11.7761 12 12 12.2239 12 12.5C12 12.2239 12.2239 12 12.5 12C12.7761 12 13 12.2239 13 12.5C13 12.2239 13.2239 12 13.5 12C13.7761 12 14 12.2239 14 12.5C14 12.2239 14.2239 12 14.5 12C14.7761 12 15 12.2239 15 12.5C15 12.2239 15.2239 12 15.5 12C15.7761 12 16 12.2239 16 12.5C16 12.2239 16.2239 12 16.5 12C16.7761 12 17 12.2239 17 12.5C17 12.2239 17.2239 12 17.5 12C17.7761 12 18 12.2239 18 12.5C18 12.2239 18.2239 12 18.5 12ZM19.5 17C19.2239 17 19 17.2239 19 17.5C19 17.2239 18.7761 17 18.5 17C18.2239 17 18 17.2239 18 17.5C18 17.2239 17.7761 17 17.5 17C17.2239 17 17 17.2239 17 17.5C17 17.2239 16.7761 17 16.5 17C16.2239 17 16 17.2239 16 17.5C16 17.2239 15.7761 17 15.5 17C15.2239 17 15 17.2239 15 17.5C15 17.2239 14.7761 17 14.5 17C14.2239 17 14 17.2239 14 17.5C14 17.2239 13.7761 17 13.5 17C13.2239 17 13 17.2239 13 17.5C13 17.2239 12.7761 17 12.5 17C12.2239 17 12 17.2239 12 17.5C12 17.2239 11.7761 17 11.5 17C11.2239 17 11 17.2239 11 17.5C11 17.2239 10.7761 17 10.5 17C10.2239 17 10 17.2239 10 17.5C10 17.2239 9.77614 17 9.5 17C9.22386 17 9 17.2239 9 17.5C9 17.2239 8.77614 17 8.5 17C8.22386 17 8 17.2239 8 17.5C8 17.2239 7.77614 17 7.5 17C7.22386 17 7 17.2239 7 17.5C7 17.7761 7.22386 18 7.5 18C7.22386 18 7 18.2239 7 18.5C7 18.7761 7.22386 19 7.5 19C7.77614 19 8 18.7761 8 18.5C8 18.7761 8.22386 19 8.5 19C8.77614 19 9 18.7761 9 18.5C9 18.7761 9.22386 19 9.5 19C9.77614 19 10 18.7761 10 18.5C10 18.7761 10.2239 19 10.5 19C10.7761 19 11 18.7761 11 18.5C11 18.7761 11.2239 19 11.5 19C11.7761 19 12 18.7761 12 18.5C12 18.7761 12.2239 19 12.5 19C12.7761 19 13 18.7761 13 18.5C13 18.7761 13.2239 19 13.5 19C13.7761 19 14 18.7761 14 18.5C14 18.7761 14.2239 19 14.5 19C14.7761 19 15 18.7761 15 18.5C15 18.7761 15.2239 19 15.5 19C15.7761 19 16 18.7761 16 18.5C16 18.7761 16.2239 19 16.5 19C16.7761 19 17 18.7761 17 18.5C17 18.7761 17.2239 19 17.5 19C17.7761 19 18 18.7761 18 18.5C18 18.7761 18.2239 19 18.5 19C18.7761 19 19 18.7761 19 18.5C19 18.7761 19.2239 19 19.5 19C19.7761 19 20 18.7761 20 18.5C20 18.7761 20.2239 19 20.5 19C20.7761 19 21 18.7761 21 18.5C21 18.2239 20.7761 18 20.5 18C20.7761 18 21 17.7761 21 17.5C21 17.2239 20.7761 17 20.5 17C20.2239 17 20 17.2239 20 17.5C20 17.2239 19.7761 17 19.5 17ZM19.5 18C19.2239 18 19 17.7761 19 17.5C19 17.7761 18.7761 18 18.5 18C18.2239 18 18 17.7761 18 17.5C18 17.7761 17.7761 18 17.5 18C17.2239 18 17 17.7761 17 17.5C17 17.7761 16.7761 18 16.5 18C16.2239 18 16 17.7761 16 17.5C16 17.7761 15.7761 18 15.5 18C15.2239 18 15 17.7761 15 17.5C15 17.7761 14.7761 18 14.5 18C14.2239 18 14 17.7761 14 17.5C14 17.7761 13.7761 18 13.5 18C13.2239 18 13 17.7761 13 17.5C13 17.7761 12.7761 18 12.5 18C12.2239 18 12 17.7761 12 17.5C12 17.7761 11.7761 18 11.5 18C11.2239 18 11 17.7761 11 17.5C11 17.7761 10.7761 18 10.5 18C10.2239 18 10 17.7761 10 17.5C10 17.7761 9.77614 18 9.5 18C9.22386 18 9 17.7761 9 17.5C9 17.7761 8.77614 18 8.5 18C8.22386 18 8 17.7761 8 17.5C8 17.7761 7.77614 18 7.5 18C7.77614 18 8 18.2239 8 18.5C8 18.2239 8.22386 18 8.5 18C8.77614 18 9 18.2239 9 18.5C9 18.2239 9.22386 18 9.5 18C9.77614 18 10 18.2239 10 18.5C10 18.2239 10.2239 18 10.5 18C10.7761 18 11 18.2239 11 18.5C11 18.2239 11.2239 18 11.5 18C11.7761 18 12 18.2239 12 18.5C12 18.2239 12.2239 18 12.5 18C12.7761 18 13 18.2239 13 18.5C13 18.2239 13.2239 18 13.5 18C13.7761 18 14 18.2239 14 18.5C14 18.2239 14.2239 18 14.5 18C14.7761 18 15 18.2239 15 18.5C15 18.2239 15.2239 18 15.5 18C15.7761 18 16 18.2239 16 18.5C16 18.2239 16.2239 18 16.5 18C16.7761 18 17 18.2239 17 18.5C17 18.2239 17.2239 18 17.5 18C17.7761 18 18 18.2239 18 18.5C18 18.2239 18.2239 18 18.5 18C18.7761 18 19 18.2239 19 18.5C19 18.2239 19.2239 18 19.5 18ZM19.5 18C19.7761 18 20 17.7761 20 17.5C20 17.7761 20.2239 18 20.5 18C20.2239 18 20 18.2239 20 18.5C20 18.2239 19.7761 18 19.5 18ZM3 17.5C3 17.2239 3.22386 17 3.5 17C3.77614 17 4 17.2239 4 17.5C4 17.7761 3.77614 18 3.5 18C3.22386 18 3 17.7761 3 17.5ZM4 18.5C4 18.7761 3.77614 19 3.5 19C3.22386 19 3 18.7761 3 18.5C3 18.2239 3.22386 18 3.5 18C3.77614 18 4 18.2239 4 18.5ZM4.5 18C4.77614 18 5 18.2239 5 18.5C5 18.7761 4.77614 19 4.5 19C4.22386 19 4 18.7761 4 18.5C4 18.2239 4.22386 18 4.5 18ZM4.5 18C4.77614 18 5 17.7761 5 17.5C5 17.2239 4.77614 17 4.5 17C4.22386 17 4 17.2239 4 17.5C4 17.7761 4.22386 18 4.5 18ZM3.5 11C3.22386 11 3 11.2239 3 11.5C3 11.7761 3.22386 12 3.5 12C3.22386 12 3 12.2239 3 12.5C3 12.7761 3.22386 13 3.5 13C3.77614 13 4 12.7761 4 12.5C4 12.7761 4.22386 13 4.5 13C4.77614 13 5 12.7761 5 12.5C5 12.2239 4.77614 12 4.5 12C4.77614 12 5 11.7761 5 11.5C5 11.2239 4.77614 11 4.5 11C4.22386 11 4 11.2239 4 11.5C4 11.2239 3.77614 11 3.5 11ZM4 11.5C4 11.7761 4.22386 12 4.5 12C4.22386 12 4 12.2239 4 12.5C4 12.2239 3.77614 12 3.5 12C3.77614 12 4 11.7761 4 11.5Z" fill="black"/>
</svg>
