<svg width="24" height="24" viewBox="0 0 24 24" fill="none" xmlns="http://www.w3.org/2000/svg">
<path fill-rule="evenodd" clip-rule="evenodd" d="M12.5 3C12.7761 3 13 3.22386 13 3.5C13 3.77614 12.7761 4 12.5 4C12.2239 4 12 3.77614 12 3.5C12 3.22386 12.2239 3 12.5 3ZM13 4.5C13 4.22386 12.7761 4 12.5 4C12.2239 4 12 4.22386 12 4.5C12 4.77614 12.2239 5 12.5 5C12.7761 5 13 4.77614 13 4.5ZM13.5 4C13.2239 4 13 4.22386 13 4.5C13 4.77614 13.2239 5 13.5 5C13.7761 5 14 4.77614 14 4.5C14 4.77614 14.2239 5 14.5 5C14.7761 5 15 4.77614 15 4.5C15 4.77614 15.2239 5 15.5 5C15.7761 5 16 4.77614 16 4.5C16 4.77614 16.2239 5 16.5 5C16.7761 5 17 4.77614 17 4.5C17 4.77614 17.2239 5 17.5 5C17.7761 5 18 4.77614 18 4.5C18 4.77614 18.2239 5 18.5 5C18.7761 5 19 4.77614 19 4.5C19 4.77614 19.2239 5 19.5 5C19.2239 5 19 5.22386 19 5.5C19 5.77614 19.2239 6 19.5 6C19.2239 6 19 6.22386 19 6.5C19 6.77614 19.2239 7 19.5 7C19.2239 7 19 7.22386 19 7.5C19 7.77614 19.2239 8 19.5 8C19.2239 8 19 8.22386 19 8.5C19 8.77614 19.2239 9 19.5 9C19.2239 9 19 9.22386 19 9.5C19 9.77614 19.2239 10 19.5 10C19.2239 10 19 10.2239 19 10.5C19 10.7761 19.2239 11 19.5 11C19.2239 11 19 11.2239 19 11.5C19 11.7761 19.2239 12 19.5 12C19.2239 12 19 12.2239 19 12.5C19 12.7761 19.2239 13 19.5 13C19.2239 13 19 13.2239 19 13.5C19 13.7761 19.2239 14 19.5 14C19.2239 14 19 14.2239 19 14.5C19 14.7761 19.2239 15 19.5 15C19.2239 15 19 15.2239 19 15.5C19 15.7761 19.2239 16 19.5 16C19.2239 16 19 16.2239 19 16.5C19 16.7761 19.2239 17 19.5 17C19.2239 17 19 17.2239 19 17.5C19 17.7761 19.2239 18 19.5 18C19.2239 18 19 18.2239 19 18.5C19 18.7761 19.2239 19 19.5 19C19.2239 19 19 19.2239 19 19.5C19 19.2239 18.7761 19 18.5 19C18.2239 19 18 19.2239 18 19.5C18 19.2239 17.7761 19 17.5 19C17.2239 19 17 19.2239 17 19.5C17 19.2239 16.7761 19 16.5 19C16.2239 19 16 19.2239 16 19.5C16 19.2239 15.7761 19 15.5 19C15.2239 19 15 19.2239 15 19.5C15 19.2239 14.7761 19 14.5 19C14.2239 19 14 19.2239 14 19.5C14 19.2239 13.7761 19 13.5 19C13.2239 19 13 19.2239 13 19.5C13 19.2239 12.7761 19 12.5 19C12.2239 19 12 19.2239 12 19.5C12 19.7761 12.2239 20 12.5 20C12.2239 20 12 20.2239 12 20.5C12 20.7761 12.2239 21 12.5 21C12.7761 21 13 20.7761 13 20.5C13 20.7761 13.2239 21 13.5 21C13.7761 21 14 20.7761 14 20.5C14 20.7761 14.2239 21 14.5 21C14.7761 21 15 20.7761 15 20.5C15 20.7761 15.2239 21 15.5 21C15.7761 21 16 20.7761 16 20.5C16 20.7761 16.2239 21 16.5 21C16.7761 21 17 20.7761 17 20.5C17 20.7761 17.2239 21 17.5 21C17.7761 21 18 20.7761 18 20.5C18 20.7761 18.2239 21 18.5 21C18.7761 21 19 20.7761 19 20.5C19 20.7761 19.2239 21 19.5 21C19.7761 21 20 20.7761 20 20.5C20 20.7761 20.2239 21 20.5 21C20.7761 21 21 20.7761 21 20.5C21 20.2239 20.7761 20 20.5 20C20.7761 20 21 19.7761 21 19.5C21 19.2239 20.7761 19 20.5 19C20.7761 19 21 18.7761 21 18.5C21 18.2239 20.7761 18 20.5 18C20.7761 18 21 17.7761 21 17.5C21 17.2239 20.7761 17 20.5 17C20.7761 17 21 16.7761 21 16.5C21 16.2239 20.7761 16 20.5 16C20.7761 16 21 15.7761 21 15.5C21 15.2239 20.7761 15 20.5 15C20.7761 15 21 14.7761 21 14.5C21 14.2239 20.7761 14 20.5 14C20.7761 14 21 13.7761 21 13.5C21 13.2239 20.7761 13 20.5 13C20.7761 13 21 12.7761 21 12.5C21 12.2239 20.7761 12 20.5 12C20.7761 12 21 11.7761 21 11.5C21 11.2239 20.7761 11 20.5 11C20.7761 11 21 10.7761 21 10.5C21 10.2239 20.7761 10 20.5 10C20.7761 10 21 9.77614 21 9.5C21 9.22386 20.7761 9 20.5 9C20.7761 9 21 8.77614 21 8.5C21 8.22386 20.7761 8 20.5 8C20.7761 8 21 7.77614 21 7.5C21 7.22386 20.7761 7 20.5 7C20.7761 7 21 6.77614 21 6.5C21 6.22386 20.7761 6 20.5 6C20.7761 6 21 5.77614 21 5.5C21 5.22386 20.7761 5 20.5 5C20.7761 5 21 4.77614 21 4.5C21 4.22386 20.7761 4 20.5 4C20.7761 4 21 3.77614 21 3.5C21 3.22386 20.7761 3 20.5 3C20.2239 3 20 3.22386 20 3.5C20 3.22386 19.7761 3 19.5 3C19.2239 3 19 3.22386 19 3.5C19 3.22386 18.7761 3 18.5 3C18.2239 3 18 3.22386 18 3.5C18 3.22386 17.7761 3 17.5 3C17.2239 3 17 3.22386 17 3.5C17 3.22386 16.7761 3 16.5 3C16.2239 3 16 3.22386 16 3.5C16 3.22386 15.7761 3 15.5 3C15.2239 3 15 3.22386 15 3.5C15 3.22386 14.7761 3 14.5 3C14.2239 3 14 3.22386 14 3.5C14 3.22386 13.7761 3 13.5 3C13.2239 3 13 3.22386 13 3.5C13 3.77614 13.2239 4 13.5 4ZM14.5 4C14.2239 4 14 4.22386 14 4.5C14 4.22386 13.7761 4 13.5 4C13.7761 4 14 3.77614 14 3.5C14 3.77614 14.2239 4 14.5 4ZM15.5 4C15.2239 4 15 4.22386 15 4.5C15 4.22386 14.7761 4 14.5 4C14.7761 4 15 3.77614 15 3.5C15 3.77614 15.2239 4 15.5 4ZM16.5 4C16.2239 4 16 4.22386 16 4.5C16 4.22386 15.7761 4 15.5 4C15.7761 4 16 3.77614 16 3.5C16 3.77614 16.2239 4 16.5 4ZM17.5 4C17.2239 4 17 4.22386 17 4.5C17 4.22386 16.7761 4 16.5 4C16.7761 4 17 3.77614 17 3.5C17 3.77614 17.2239 4 17.5 4ZM18.5 4C18.2239 4 18 4.22386 18 4.5C18 4.22386 17.7761 4 17.5 4C17.7761 4 18 3.77614 18 3.5C18 3.77614 18.2239 4 18.5 4ZM19.5 4C19.2239 4 19 4.22386 19 4.5C19 4.22386 18.7761 4 18.5 4C18.7761 4 19 3.77614 19 3.5C19 3.77614 19.2239 4 19.5 4ZM20 4.5C20 4.77614 19.7761 5 19.5 5C19.7761 5 20 5.22386 20 5.5C20 5.77614 19.7761 6 19.5 6C19.7761 6 20 6.22386 20 6.5C20 6.77614 19.7761 7 19.5 7C19.7761 7 20 7.22386 20 7.5C20 7.77614 19.7761 8 19.5 8C19.7761 8 20 8.22386 20 8.5C20 8.77614 19.7761 9 19.5 9C19.7761 9 20 9.22386 20 9.5C20 9.77614 19.7761 10 19.5 10C19.7761 10 20 10.2239 20 10.5C20 10.7761 19.7761 11 19.5 11C19.7761 11 20 11.2239 20 11.5C20 11.7761 19.7761 12 19.5 12C19.7761 12 20 12.2239 20 12.5C20 12.7761 19.7761 13 19.5 13C19.7761 13 20 13.2239 20 13.5C20 13.7761 19.7761 14 19.5 14C19.7761 14 20 14.2239 20 14.5C20 14.7761 19.7761 15 19.5 15C19.7761 15 20 15.2239 20 15.5C20 15.7761 19.7761 16 19.5 16C19.7761 16 20 16.2239 20 16.5C20 16.7761 19.7761 17 19.5 17C19.7761 17 20 17.2239 20 17.5C20 17.7761 19.7761 18 19.5 18C19.7761 18 20 18.2239 20 18.5C20 18.7761 19.7761 19 19.5 19C19.7761 19 20 19.2239 20 19.5C20 19.7761 19.7761 20 19.5 20C19.2239 20 19 19.7761 19 19.5C19 19.7761 18.7761 20 18.5 20C18.2239 20 18 19.7761 18 19.5C18 19.7761 17.7761 20 17.5 20C17.2239 20 17 19.7761 17 19.5C17 19.7761 16.7761 20 16.5 20C16.2239 20 16 19.7761 16 19.5C16 19.7761 15.7761 20 15.5 20C15.2239 20 15 19.7761 15 19.5C15 19.7761 14.7761 20 14.5 20C14.2239 20 14 19.7761 14 19.5C14 19.7761 13.7761 20 13.5 20C13.2239 20 13 19.7761 13 19.5C13 19.7761 12.7761 20 12.5 20C12.7761 20 13 20.2239 13 20.5C13 20.2239 13.2239 20 13.5 20C13.7761 20 14 20.2239 14 20.5C14 20.2239 14.2239 20 14.5 20C14.7761 20 15 20.2239 15 20.5C15 20.2239 15.2239 20 15.5 20C15.7761 20 16 20.2239 16 20.5C16 20.2239 16.2239 20 16.5 20C16.7761 20 17 20.2239 17 20.5C17 20.2239 17.2239 20 17.5 20C17.7761 20 18 20.2239 18 20.5C18 20.2239 18.2239 20 18.5 20C18.7761 20 19 20.2239 19 20.5C19 20.2239 19.2239 20 19.5 20C19.7761 20 20 20.2239 20 20.5C20 20.2239 20.2239 20 20.5 20C20.2239 20 20 19.7761 20 19.5C20 19.2239 20.2239 19 20.5 19C20.2239 19 20 18.7761 20 18.5C20 18.2239 20.2239 18 20.5 18C20.2239 18 20 17.7761 20 17.5C20 17.2239 20.2239 17 20.5 17C20.2239 17 20 16.7761 20 16.5C20 16.2239 20.2239 16 20.5 16C20.2239 16 20 15.7761 20 15.5C20 15.2239 20.2239 15 20.5 15C20.2239 15 20 14.7761 20 14.5C20 14.2239 20.2239 14 20.5 14C20.2239 14 20 13.7761 20 13.5C20 13.2239 20.2239 13 20.5 13C20.2239 13 20 12.7761 20 12.5C20 12.2239 20.2239 12 20.5 12C20.2239 12 20 11.7761 20 11.5C20 11.2239 20.2239 11 20.5 11C20.2239 11 20 10.7761 20 10.5C20 10.2239 20.2239 10 20.5 10C20.2239 10 20 9.77614 20 9.5C20 9.22386 20.2239 9 20.5 9C20.2239 9 20 8.77614 20 8.5C20 8.22386 20.2239 8 20.5 8C20.2239 8 20 7.77614 20 7.5C20 7.22386 20.2239 7 20.5 7C20.2239 7 20 6.77614 20 6.5C20 6.22386 20.2239 6 20.5 6C20.2239 6 20 5.77614 20 5.5C20 5.22386 20.2239 5 20.5 5C20.2239 5 20 4.77614 20 4.5ZM20 4.5C20 4.22386 19.7761 4 19.5 4C19.7761 4 20 3.77614 20 3.5C20 3.77614 20.2239 4 20.5 4C20.2239 4 20 4.22386 20 4.5ZM7 11.5C7 11.2239 6.77614 11 6.5 11C6.22386 11 6 11.2239 6 11.5C6 11.7761 6.22386 12 6.5 12C6.22386 12 6 12.2239 6 12.5C6 12.7761 6.22386 13 6.5 13C6.77614 13 7 12.7761 7 12.5C7 12.7761 7.22386 13 7.5 13C7.77614 13 8 12.7761 8 12.5C8 12.7761 8.22386 13 8.5 13C8.77614 13 9 12.7761 9 12.5C9 12.7761 9.22386 13 9.5 13C9.77614 13 10 12.7761 10 12.5C10 12.7761 10.2239 13 10.5 13C10.7761 13 11 12.7761 11 12.5C11 12.7761 11.2239 13 11.5 13C11.7761 13 12 12.7761 12 12.5C12 12.7761 12.2239 13 12.5 13C12.7761 13 13 12.7761 13 12.5C13 12.7761 13.2239 13 13.5 13C13.2239 13 13 13.2239 13 13.5C13 13.7761 13.2239 14 13.5 14C13.2239 14 13 14.2239 13 14.5C13 14.2239 12.7761 14 12.5 14C12.2239 14 12 14.2239 12 14.5C12 14.7761 12.2239 15 12.5 15C12.2239 15 12 15.2239 12 15.5C12 15.2239 11.7761 15 11.5 15C11.2239 15 11 15.2239 11 15.5C11 15.7761 11.2239 16 11.5 16C11.2239 16 11 16.2239 11 16.5C11 16.7761 11.2239 17 11.5 17C11.7761 17 12 16.7761 12 16.5C12 16.7761 12.2239 17 12.5 17C12.7761 17 13 16.7761 13 16.5C13 16.2239 12.7761 16 12.5 16C12.7761 16 13 15.7761 13 15.5C13 15.7761 13.2239 16 13.5 16C13.7761 16 14 15.7761 14 15.5C14 15.2239 13.7761 15 13.5 15C13.7761 15 14 14.7761 14 14.5C14 14.7761 14.2239 15 14.5 15C14.7761 15 15 14.7761 15 14.5C15 14.2239 14.7761 14 14.5 14C14.7761 14 15 13.7761 15 13.5C15 13.7761 15.2239 14 15.5 14C15.7761 14 16 13.7761 16 13.5C16 13.2239 15.7761 13 15.5 13C15.7761 13 16 12.7761 16 12.5C16 12.7761 16.2239 13 16.5 13C16.7761 13 17 12.7761 17 12.5C17 12.2239 16.7761 12 16.5 12C16.7761 12 17 11.7761 17 11.5C17 11.2239 16.7761 11 16.5 11C16.2239 11 16 11.2239 16 11.5C16 11.2239 15.7761 11 15.5 11C15.7761 11 16 10.7761 16 10.5C16 10.2239 15.7761 10 15.5 10C15.2239 10 15 10.2239 15 10.5C15 10.2239 14.7761 10 14.5 10C14.7761 10 15 9.77614 15 9.5C15 9.22386 14.7761 9 14.5 9C14.2239 9 14 9.22386 14 9.5C14 9.22386 13.7761 9 13.5 9C13.7761 9 14 8.77614 14 8.5C14 8.22386 13.7761 8 13.5 8C13.2239 8 13 8.22386 13 8.5C13 8.22386 12.7761 8 12.5 8C12.7761 8 13 7.77614 13 7.5C13 7.22386 12.7761 7 12.5 7C12.2239 7 12 7.22386 12 7.5C12 7.22386 11.7761 7 11.5 7C11.2239 7 11 7.22386 11 7.5C11 7.77614 11.2239 8 11.5 8C11.2239 8 11 8.22386 11 8.5C11 8.77614 11.2239 9 11.5 9C11.7761 9 12 8.77614 12 8.5C12 8.77614 12.2239 9 12.5 9C12.2239 9 12 9.22386 12 9.5C12 9.77614 12.2239 10 12.5 10C12.7761 10 13 9.77614 13 9.5C13 9.77614 13.2239 10 13.5 10C13.2239 10 13 10.2239 13 10.5C13 10.7761 13.2239 11 13.5 11C13.2239 11 13 11.2239 13 11.5C13 11.2239 12.7761 11 12.5 11C12.2239 11 12 11.2239 12 11.5C12 11.2239 11.7761 11 11.5 11C11.2239 11 11 11.2239 11 11.5C11 11.2239 10.7761 11 10.5 11C10.2239 11 10 11.2239 10 11.5C10 11.2239 9.77614 11 9.5 11C9.22386 11 9 11.2239 9 11.5C9 11.2239 8.77614 11 8.5 11C8.22386 11 8 11.2239 8 11.5C8 11.2239 7.77614 11 7.5 11C7.22386 11 7 11.2239 7 11.5ZM7.5 12C7.77614 12 8 12.2239 8 12.5C8 12.2239 8.22386 12 8.5 12C8.77614 12 9 12.2239 9 12.5C9 12.2239 9.22386 12 9.5 12C9.77614 12 10 12.2239 10 12.5C10 12.2239 10.2239 12 10.5 12C10.7761 12 11 12.2239 11 12.5C11 12.2239 11.2239 12 11.5 12C11.7761 12 12 12.2239 12 12.5C12 12.2239 12.2239 12 12.5 12C12.7761 12 13 12.2239 13 12.5C13 12.2239 13.2239 12 13.5 12C13.7761 12 14 12.2239 14 12.5C14 12.7761 13.7761 13 13.5 13C13.7761 13 14 13.2239 14 13.5C14 13.7761 13.7761 14 13.5 14C13.7761 14 14 14.2239 14 14.5C14 14.2239 14.2239 14 14.5 14C14.2239 14 14 13.7761 14 13.5C14 13.2239 14.2239 13 14.5 13C14.7761 13 15 13.2239 15 13.5C15 13.2239 15.2239 13 15.5 13C15.2239 13 15 12.7761 15 12.5C15 12.2239 15.2239 12 15.5 12C15.7761 12 16 12.2239 16 12.5C16 12.2239 16.2239 12 16.5 12C16.2239 12 16 11.7761 16 11.5C16 11.7761 15.7761 12 15.5 12C15.2239 12 15 11.7761 15 11.5C15 11.2239 15.2239 11 15.5 11C15.2239 11 15 10.7761 15 10.5C15 10.7761 14.7761 11 14.5 11C14.2239 11 14 10.7761 14 10.5C14 10.2239 14.2239 10 14.5 10C14.2239 10 14 9.77614 14 9.5C14 9.77614 13.7761 10 13.5 10C13.7761 10 14 10.2239 14 10.5C14 10.7761 13.7761 11 13.5 11C13.7761 11 14 11.2239 14 11.5C14 11.7761 13.7761 12 13.5 12C13.2239 12 13 11.7761 13 11.5C13 11.7761 12.7761 12 12.5 12C12.2239 12 12 11.7761 12 11.5C12 11.7761 11.7761 12 11.5 12C11.2239 12 11 11.7761 11 11.5C11 11.7761 10.7761 12 10.5 12C10.2239 12 10 11.7761 10 11.5C10 11.7761 9.77614 12 9.5 12C9.22386 12 9 11.7761 9 11.5C9 11.7761 8.77614 12 8.5 12C8.22386 12 8 11.7761 8 11.5C8 11.7761 7.77614 12 7.5 12ZM14.5 12C14.2239 12 14 12.2239 14 12.5C14 12.7761 14.2239 13 14.5 13C14.7761 13 15 12.7761 15 12.5C15 12.2239 14.7761 12 14.5 12ZM14.5 12C14.2239 12 14 11.7761 14 11.5C14 11.2239 14.2239 11 14.5 11C14.7761 11 15 11.2239 15 11.5C15 11.7761 14.7761 12 14.5 12ZM7.5 12C7.22386 12 7 11.7761 7 11.5C7 11.7761 6.77614 12 6.5 12C6.77614 12 7 12.2239 7 12.5C7 12.2239 7.22386 12 7.5 12ZM13 9.5C13 9.22386 12.7761 9 12.5 9C12.7761 9 13 8.77614 13 8.5C13 8.77614 13.2239 9 13.5 9C13.2239 9 13 9.22386 13 9.5ZM12 8.5C12 8.22386 11.7761 8 11.5 8C11.7761 8 12 7.77614 12 7.5C12 7.77614 12.2239 8 12.5 8C12.2239 8 12 8.22386 12 8.5ZM13.5 15C13.2239 15 13 14.7761 13 14.5C13 14.7761 12.7761 15 12.5 15C12.7761 15 13 15.2239 13 15.5C13 15.2239 13.2239 15 13.5 15ZM12.5 16C12.2239 16 12 16.2239 12 16.5C12 16.2239 11.7761 16 11.5 16C11.7761 16 12 15.7761 12 15.5C12 15.7761 12.2239 16 12.5 16Z" fill="black"/>
</svg>
