<svg width="24" height="24" viewBox="0 0 24 24" fill="none" xmlns="http://www.w3.org/2000/svg">
<path fill-rule="evenodd" clip-rule="evenodd" d="M18 4.5C18 4.22386 18.2239 4 18.5 4C18.7761 4 19 4.22386 19 4.5C19 4.77614 18.7761 5 18.5 5C18.2239 5 18 4.77614 18 4.5ZM19 5.5C19 5.22386 18.7761 5 18.5 5C18.2239 5 18 5.22386 18 5.5C18 5.22386 17.7761 5 17.5 5C17.2239 5 17 5.22386 17 5.5C17 5.77614 17.2239 6 17.5 6C17.2239 6 17 6.22386 17 6.5C17 6.22386 16.7761 6 16.5 6C16.2239 6 16 6.22386 16 6.5C16 6.77614 16.2239 7 16.5 7C16.2239 7 16 7.22386 16 7.5C16 7.22386 15.7761 7 15.5 7C15.2239 7 15 7.22386 15 7.5C15 7.77614 15.2239 8 15.5 8C15.2239 8 15 8.22386 15 8.5C15 8.22386 14.7761 8 14.5 8C14.2239 8 14 8.22386 14 8.5C14 8.22386 13.7761 8 13.5 8C13.7761 8 14 7.77614 14 7.5C14 7.22386 13.7761 7 13.5 7C13.7761 7 14 6.77614 14 6.5C14 6.22386 13.7761 6 13.5 6C13.7761 6 14 5.77614 14 5.5C14 5.22386 13.7761 5 13.5 5C13.2239 5 13 5.22386 13 5.5C13 5.22386 12.7761 5 12.5 5C12.2239 5 12 5.22386 12 5.5C12 5.77614 12.2239 6 12.5 6C12.2239 6 12 6.22386 12 6.5C12 6.77614 12.2239 7 12.5 7C12.2239 7 12 7.22386 12 7.5C12 7.77614 12.2239 8 12.5 8C12.2239 8 12 8.22386 12 8.5C12 8.77614 12.2239 9 12.5 9C12.2239 9 12 9.22386 12 9.5C12 9.77614 12.2239 10 12.5 10C12.2239 10 12 10.2239 12 10.5C12 10.7761 12.2239 11 12.5 11C12.2239 11 12 11.2239 12 11.5C12 11.7761 12.2239 12 12.5 12C12.7761 12 13 11.7761 13 11.5C13 11.7761 13.2239 12 13.5 12C13.7761 12 14 11.7761 14 11.5C14 11.7761 14.2239 12 14.5 12C14.7761 12 15 11.7761 15 11.5C15 11.7761 15.2239 12 15.5 12C15.7761 12 16 11.7761 16 11.5C16 11.7761 16.2239 12 16.5 12C16.7761 12 17 11.7761 17 11.5C17 11.7761 17.2239 12 17.5 12C17.7761 12 18 11.7761 18 11.5C18 11.7761 18.2239 12 18.5 12C18.7761 12 19 11.7761 19 11.5C19 11.2239 18.7761 11 18.5 11C18.7761 11 19 10.7761 19 10.5C19 10.2239 18.7761 10 18.5 10C18.2239 10 18 10.2239 18 10.5C18 10.2239 17.7761 10 17.5 10C17.2239 10 17 10.2239 17 10.5C17 10.2239 16.7761 10 16.5 10C16.2239 10 16 10.2239 16 10.5C16 10.2239 15.7761 10 15.5 10C15.7761 10 16 9.77614 16 9.5C16 9.22386 15.7761 9 15.5 9C15.7761 9 16 8.77614 16 8.5C16 8.77614 16.2239 9 16.5 9C16.7761 9 17 8.77614 17 8.5C17 8.22386 16.7761 8 16.5 8C16.7761 8 17 7.77614 17 7.5C17 7.77614 17.2239 8 17.5 8C17.7761 8 18 7.77614 18 7.5C18 7.22386 17.7761 7 17.5 7C17.7761 7 18 6.77614 18 6.5C18 6.77614 18.2239 7 18.5 7C18.7761 7 19 6.77614 19 6.5C19 6.22386 18.7761 6 18.5 6C18.7761 6 19 5.77614 19 5.5ZM19.5 5C19.7761 5 20 5.22386 20 5.5C20 5.77614 19.7761 6 19.5 6C19.2239 6 19 5.77614 19 5.5C19 5.22386 19.2239 5 19.5 5ZM19.5 5C19.7761 5 20 4.77614 20 4.5C20 4.22386 19.7761 4 19.5 4C19.2239 4 19 4.22386 19 4.5C19 4.77614 19.2239 5 19.5 5ZM18.5 6C18.2239 6 18 6.22386 18 6.5C18 6.22386 17.7761 6 17.5 6C17.7761 6 18 5.77614 18 5.5C18 5.77614 18.2239 6 18.5 6ZM17.5 7C17.2239 7 17 6.77614 17 6.5C17 6.77614 16.7761 7 16.5 7C16.7761 7 17 7.22386 17 7.5C17 7.22386 17.2239 7 17.5 7ZM16.5 8C16.2239 8 16 8.22386 16 8.5C16 8.22386 15.7761 8 15.5 8C15.7761 8 16 7.77614 16 7.5C16 7.77614 16.2239 8 16.5 8ZM15 9.5C15 9.77614 15.2239 10 15.5 10C15.2239 10 15 10.2239 15 10.5C15 10.2239 14.7761 10 14.5 10C14.7761 10 15 9.77614 15 9.5ZM14.5 9C14.7761 9 15 8.77614 15 8.5C15 8.77614 15.2239 9 15.5 9C15.2239 9 15 9.22386 15 9.5C15 9.22386 14.7761 9 14.5 9ZM14 9.5C14 9.22386 14.2239 9 14.5 9C14.2239 9 14 8.77614 14 8.5C14 8.77614 13.7761 9 13.5 9C13.2239 9 13 8.77614 13 8.5C13 8.22386 13.2239 8 13.5 8C13.2239 8 13 7.77614 13 7.5C13 7.22386 13.2239 7 13.5 7C13.2239 7 13 6.77614 13 6.5C13 6.22386 13.2239 6 13.5 6C13.2239 6 13 5.77614 13 5.5C13 5.77614 12.7761 6 12.5 6C12.7761 6 13 6.22386 13 6.5C13 6.77614 12.7761 7 12.5 7C12.7761 7 13 7.22386 13 7.5C13 7.77614 12.7761 8 12.5 8C12.7761 8 13 8.22386 13 8.5C13 8.77614 12.7761 9 12.5 9C12.7761 9 13 9.22386 13 9.5C13 9.77614 12.7761 10 12.5 10C12.7761 10 13 10.2239 13 10.5C13 10.7761 12.7761 11 12.5 11C12.7761 11 13 11.2239 13 11.5C13 11.2239 13.2239 11 13.5 11C13.7761 11 14 11.2239 14 11.5C14 11.2239 14.2239 11 14.5 11C14.7761 11 15 11.2239 15 11.5C15 11.2239 15.2239 11 15.5 11C15.7761 11 16 11.2239 16 11.5C16 11.2239 16.2239 11 16.5 11C16.7761 11 17 11.2239 17 11.5C17 11.2239 17.2239 11 17.5 11C17.7761 11 18 11.2239 18 11.5C18 11.2239 18.2239 11 18.5 11C18.2239 11 18 10.7761 18 10.5C18 10.7761 17.7761 11 17.5 11C17.2239 11 17 10.7761 17 10.5C17 10.7761 16.7761 11 16.5 11C16.2239 11 16 10.7761 16 10.5C16 10.7761 15.7761 11 15.5 11C15.2239 11 15 10.7761 15 10.5C15 10.7761 14.7761 11 14.5 11C14.2239 11 14 10.7761 14 10.5C14 10.2239 14.2239 10 14.5 10C14.2239 10 14 9.77614 14 9.5ZM13.5 10C13.2239 10 13 9.77614 13 9.5C13 9.22386 13.2239 9 13.5 9C13.7761 9 14 9.22386 14 9.5C14 9.77614 13.7761 10 13.5 10ZM13.5 10C13.2239 10 13 10.2239 13 10.5C13 10.7761 13.2239 11 13.5 11C13.7761 11 14 10.7761 14 10.5C14 10.2239 13.7761 10 13.5 10ZM11.5 13C11.7761 13 12 12.7761 12 12.5C12 12.2239 11.7761 12 11.5 12C11.2239 12 11 12.2239 11 12.5C11 12.2239 10.7761 12 10.5 12C10.2239 12 10 12.2239 10 12.5C10 12.2239 9.77614 12 9.5 12C9.22386 12 9 12.2239 9 12.5C9 12.2239 8.77614 12 8.5 12C8.22386 12 8 12.2239 8 12.5C8 12.2239 7.77614 12 7.5 12C7.22386 12 7 12.2239 7 12.5C7 12.2239 6.77614 12 6.5 12C6.22386 12 6 12.2239 6 12.5C6 12.2239 5.77614 12 5.5 12C5.22386 12 5 12.2239 5 12.5C5 12.7761 5.22386 13 5.5 13C5.22386 13 5 13.2239 5 13.5C5 13.7761 5.22386 14 5.5 14C5.77614 14 6 13.7761 6 13.5C6 13.7761 6.22386 14 6.5 14C6.77614 14 7 13.7761 7 13.5C7 13.7761 7.22386 14 7.5 14C7.77614 14 8 13.7761 8 13.5C8 13.7761 8.22386 14 8.5 14C8.22386 14 8 14.2239 8 14.5C8 14.7761 8.22386 15 8.5 15C8.22386 15 8 15.2239 8 15.5C8 15.2239 7.77614 15 7.5 15C7.22386 15 7 15.2239 7 15.5C7 15.7761 7.22386 16 7.5 16C7.22386 16 7 16.2239 7 16.5C7 16.2239 6.77614 16 6.5 16C6.22386 16 6 16.2239 6 16.5C6 16.7761 6.22386 17 6.5 17C6.22386 17 6 17.2239 6 17.5C6 17.2239 5.77614 17 5.5 17C5.22386 17 5 17.2239 5 17.5C5 17.7761 5.22386 18 5.5 18C5.22386 18 5 18.2239 5 18.5C5 18.2239 4.77614 18 4.5 18C4.22386 18 4 18.2239 4 18.5C4 18.7761 4.22386 19 4.5 19C4.22386 19 4 19.2239 4 19.5C4 19.7761 4.22386 20 4.5 20C4.77614 20 5 19.7761 5 19.5C5 19.7761 5.22386 20 5.5 20C5.77614 20 6 19.7761 6 19.5C6 19.2239 5.77614 19 5.5 19C5.77614 19 6 18.7761 6 18.5C6 18.7761 6.22386 19 6.5 19C6.77614 19 7 18.7761 7 18.5C7 18.2239 6.77614 18 6.5 18C6.77614 18 7 17.7761 7 17.5C7 17.7761 7.22386 18 7.5 18C7.77614 18 8 17.7761 8 17.5C8 17.2239 7.77614 17 7.5 17C7.77614 17 8 16.7761 8 16.5C8 16.7761 8.22386 17 8.5 17C8.77614 17 9 16.7761 9 16.5C9 16.2239 8.77614 16 8.5 16C8.77614 16 9 15.7761 9 15.5C9 15.7761 9.22386 16 9.5 16C9.77614 16 10 15.7761 10 15.5C10 15.7761 10.2239 16 10.5 16C10.2239 16 10 16.2239 10 16.5C10 16.7761 10.2239 17 10.5 17C10.2239 17 10 17.2239 10 17.5C10 17.7761 10.2239 18 10.5 18C10.2239 18 10 18.2239 10 18.5C10 18.7761 10.2239 19 10.5 19C10.7761 19 11 18.7761 11 18.5C11 18.7761 11.2239 19 11.5 19C11.7761 19 12 18.7761 12 18.5C12 18.2239 11.7761 18 11.5 18C11.7761 18 12 17.7761 12 17.5C12 17.2239 11.7761 17 11.5 17C11.7761 17 12 16.7761 12 16.5C12 16.2239 11.7761 16 11.5 16C11.7761 16 12 15.7761 12 15.5C12 15.2239 11.7761 15 11.5 15C11.7761 15 12 14.7761 12 14.5C12 14.2239 11.7761 14 11.5 14C11.7761 14 12 13.7761 12 13.5C12 13.2239 11.7761 13 11.5 13ZM11 13.5C11 13.2239 11.2239 13 11.5 13C11.2239 13 11 12.7761 11 12.5C11 12.7761 10.7761 13 10.5 13C10.2239 13 10 12.7761 10 12.5C10 12.7761 9.77614 13 9.5 13C9.22386 13 9 12.7761 9 12.5C9 12.7761 8.77614 13 8.5 13C8.22386 13 8 12.7761 8 12.5C8 12.7761 7.77614 13 7.5 13C7.22386 13 7 12.7761 7 12.5C7 12.7761 6.77614 13 6.5 13C6.22386 13 6 12.7761 6 12.5C6 12.7761 5.77614 13 5.5 13C5.77614 13 6 13.2239 6 13.5C6 13.2239 6.22386 13 6.5 13C6.77614 13 7 13.2239 7 13.5C7 13.2239 7.22386 13 7.5 13C7.77614 13 8 13.2239 8 13.5C8 13.2239 8.22386 13 8.5 13C8.77614 13 9 13.2239 9 13.5C9 13.7761 8.77614 14 8.5 14C8.77614 14 9 14.2239 9 14.5C9 14.7761 8.77614 15 8.5 15C8.77614 15 9 15.2239 9 15.5C9 15.2239 9.22386 15 9.5 15C9.77614 15 10 15.2239 10 15.5C10 15.2239 10.2239 15 10.5 15C10.7761 15 11 15.2239 11 15.5C11 15.7761 10.7761 16 10.5 16C10.7761 16 11 16.2239 11 16.5C11 16.7761 10.7761 17 10.5 17C10.7761 17 11 17.2239 11 17.5C11 17.7761 10.7761 18 10.5 18C10.7761 18 11 18.2239 11 18.5C11 18.2239 11.2239 18 11.5 18C11.2239 18 11 17.7761 11 17.5C11 17.2239 11.2239 17 11.5 17C11.2239 17 11 16.7761 11 16.5C11 16.2239 11.2239 16 11.5 16C11.2239 16 11 15.7761 11 15.5C11 15.2239 11.2239 15 11.5 15C11.2239 15 11 14.7761 11 14.5C11 14.2239 11.2239 14 11.5 14C11.2239 14 11 13.7761 11 13.5ZM10.5 14C10.7761 14 11 13.7761 11 13.5C11 13.2239 10.7761 13 10.5 13C10.2239 13 10 13.2239 10 13.5C10 13.2239 9.77614 13 9.5 13C9.22386 13 9 13.2239 9 13.5C9 13.7761 9.22386 14 9.5 14C9.22386 14 9 14.2239 9 14.5C9 14.7761 9.22386 15 9.5 15C9.77614 15 10 14.7761 10 14.5C10 14.7761 10.2239 15 10.5 15C10.7761 15 11 14.7761 11 14.5C11 14.2239 10.7761 14 10.5 14ZM10.5 14C10.2239 14 10 14.2239 10 14.5C10 14.2239 9.77614 14 9.5 14C9.77614 14 10 13.7761 10 13.5C10 13.7761 10.2239 14 10.5 14ZM8.5 16C8.22386 16 8 16.2239 8 16.5C8 16.2239 7.77614 16 7.5 16C7.77614 16 8 15.7761 8 15.5C8 15.7761 8.22386 16 8.5 16ZM7.5 17C7.22386 17 7 16.7761 7 16.5C7 16.7761 6.77614 17 6.5 17C6.77614 17 7 17.2239 7 17.5C7 17.2239 7.22386 17 7.5 17ZM6.5 18C6.22386 18 6 18.2239 6 18.5C6 18.2239 5.77614 18 5.5 18C5.77614 18 6 17.7761 6 17.5C6 17.7761 6.22386 18 6.5 18ZM5.5 19C5.22386 19 5 18.7761 5 18.5C5 18.7761 4.77614 19 4.5 19C4.77614 19 5 19.2239 5 19.5C5 19.2239 5.22386 19 5.5 19Z" fill="black"/>
</svg>
