<svg width="24" height="24" viewBox="0 0 24 24" fill="none" xmlns="http://www.w3.org/2000/svg">
<path fill-rule="evenodd" clip-rule="evenodd" d="M11.5 2C11.2239 2 11 2.22386 11 2.5C11 2.22386 10.7761 2 10.5 2C10.2239 2 10 2.22386 10 2.5C10 2.77614 10.2239 3 10.5 3C10.2239 3 10 3.22386 10 3.5C10 3.22386 9.77614 3 9.5 3C9.22386 3 9 3.22386 9 3.5C9 3.22386 8.77614 3 8.5 3C8.22386 3 8 3.22386 8 3.5C8 3.22386 7.77614 3 7.5 3C7.22386 3 7 3.22386 7 3.5C7 3.77614 7.22386 4 7.5 4C7.77614 4 8 3.77614 8 3.5C8 3.77614 8.22386 4 8.5 4C8.22386 4 8 4.22386 8 4.5C8 4.77614 8.22386 5 8.5 5C8.77614 5 9 4.77614 9 4.5C9 4.77614 9.22386 5 9.5 5C9.77614 5 10 4.77614 10 4.5C10 4.77614 10.2239 5 10.5 5C10.7761 5 11 4.77614 11 4.5C11 4.77614 11.2239 5 11.5 5C11.7761 5 12 4.77614 12 4.5C12 4.77614 12.2239 5 12.5 5C12.7761 5 13 4.77614 13 4.5C13 4.77614 13.2239 5 13.5 5C13.7761 5 14 4.77614 14 4.5C14 4.77614 14.2239 5 14.5 5C14.7761 5 15 4.77614 15 4.5C15 4.77614 15.2239 5 15.5 5C15.2239 5 15 5.22386 15 5.5C15 5.77614 15.2239 6 15.5 6C15.7761 6 16 5.77614 16 5.5C16 5.77614 16.2239 6 16.5 6C16.7761 6 17 5.77614 17 5.5C17 5.77614 17.2239 6 17.5 6C17.2239 6 17 6.22386 17 6.5C17 6.77614 17.2239 7 17.5 7C17.7761 7 18 6.77614 18 6.5C18 6.77614 18.2239 7 18.5 7C18.2239 7 18 7.22386 18 7.5C18 7.77614 18.2239 8 18.5 8C18.2239 8 18 8.22386 18 8.5C18 8.77614 18.2239 9 18.5 9C18.2239 9 18 9.22386 18 9.5C18 9.77614 18.2239 10 18.5 10C18.2239 10 18 10.2239 18 10.5C18 10.7761 18.2239 11 18.5 11C18.2239 11 18 11.2239 18 11.5C18 11.7761 18.2239 12 18.5 12C18.2239 12 18 12.2239 18 12.5C18 12.7761 18.2239 13 18.5 13C18.2239 13 18 13.2239 18 13.5C18 13.7761 18.2239 14 18.5 14C18.2239 14 18 14.2239 18 14.5C18 14.7761 18.2239 15 18.5 15C18.7761 15 19 14.7761 19 14.5C19 14.7761 19.2239 15 19.5 15C19.7761 15 20 14.7761 20 14.5C20 14.2239 19.7761 14 19.5 14C19.7761 14 20 13.7761 20 13.5C20 13.2239 19.7761 13 19.5 13C19.7761 13 20 12.7761 20 12.5C20 12.2239 19.7761 12 19.5 12C19.7761 12 20 11.7761 20 11.5C20 11.2239 19.7761 11 19.5 11C19.7761 11 20 10.7761 20 10.5C20 10.2239 19.7761 10 19.5 10C19.7761 10 20 9.77614 20 9.5C20 9.22386 19.7761 9 19.5 9C19.7761 9 20 8.77614 20 8.5C20 8.22386 19.7761 8 19.5 8C19.7761 8 20 7.77614 20 7.5C20 7.22386 19.7761 7 19.5 7C19.7761 7 20 6.77614 20 6.5C20 6.22386 19.7761 6 19.5 6C19.7761 6 20 5.77614 20 5.5C20 5.22386 19.7761 5 19.5 5C19.2239 5 19 5.22386 19 5.5C19 5.22386 18.7761 5 18.5 5C18.7761 5 19 4.77614 19 4.5C19 4.22386 18.7761 4 18.5 4C18.2239 4 18 4.22386 18 4.5C18 4.22386 17.7761 4 17.5 4C17.2239 4 17 4.22386 17 4.5C17 4.22386 16.7761 4 16.5 4C16.7761 4 17 3.77614 17 3.5C17 3.22386 16.7761 3 16.5 3C16.2239 3 16 3.22386 16 3.5C16 3.22386 15.7761 3 15.5 3C15.2239 3 15 3.22386 15 3.5C15 3.22386 14.7761 3 14.5 3C14.2239 3 14 3.22386 14 3.5C14 3.22386 13.7761 3 13.5 3C13.7761 3 14 2.77614 14 2.5C14 2.22386 13.7761 2 13.5 2C13.2239 2 13 2.22386 13 2.5C13 2.22386 12.7761 2 12.5 2C12.2239 2 12 2.22386 12 2.5C12 2.22386 11.7761 2 11.5 2ZM12.5 3C12.2239 3 12 2.77614 12 2.5C12 2.77614 11.7761 3 11.5 3C11.2239 3 11 2.77614 11 2.5C11 2.77614 10.7761 3 10.5 3C10.7761 3 11 3.22386 11 3.5C11 3.77614 10.7761 4 10.5 4C10.2239 4 10 3.77614 10 3.5C10 3.77614 9.77614 4 9.5 4C9.22386 4 9 3.77614 9 3.5C9 3.77614 8.77614 4 8.5 4C8.77614 4 9 4.22386 9 4.5C9 4.22386 9.22386 4 9.5 4C9.77614 4 10 4.22386 10 4.5C10 4.22386 10.2239 4 10.5 4C10.7761 4 11 4.22386 11 4.5C11 4.22386 11.2239 4 11.5 4C11.7761 4 12 4.22386 12 4.5C12 4.22386 12.2239 4 12.5 4C12.7761 4 13 4.22386 13 4.5C13 4.22386 13.2239 4 13.5 4C13.7761 4 14 4.22386 14 4.5C14 4.22386 14.2239 4 14.5 4C14.7761 4 15 4.22386 15 4.5C15 4.22386 15.2239 4 15.5 4C15.7761 4 16 4.22386 16 4.5C16 4.77614 15.7761 5 15.5 5C15.7761 5 16 5.22386 16 5.5C16 5.22386 16.2239 5 16.5 5C16.7761 5 17 5.22386 17 5.5C17 5.22386 17.2239 5 17.5 5C17.7761 5 18 5.22386 18 5.5C18 5.77614 17.7761 6 17.5 6C17.7761 6 18 6.22386 18 6.5C18 6.22386 18.2239 6 18.5 6C18.7761 6 19 6.22386 19 6.5C19 6.77614 18.7761 7 18.5 7C18.7761 7 19 7.22386 19 7.5C19 7.77614 18.7761 8 18.5 8C18.7761 8 19 8.22386 19 8.5C19 8.77614 18.7761 9 18.5 9C18.7761 9 19 9.22386 19 9.5C19 9.77614 18.7761 10 18.5 10C18.7761 10 19 10.2239 19 10.5C19 10.7761 18.7761 11 18.5 11C18.7761 11 19 11.2239 19 11.5C19 11.7761 18.7761 12 18.5 12C18.7761 12 19 12.2239 19 12.5C19 12.7761 18.7761 13 18.5 13C18.7761 13 19 13.2239 19 13.5C19 13.7761 18.7761 14 18.5 14C18.7761 14 19 14.2239 19 14.5C19 14.2239 19.2239 14 19.5 14C19.2239 14 19 13.7761 19 13.5C19 13.2239 19.2239 13 19.5 13C19.2239 13 19 12.7761 19 12.5C19 12.2239 19.2239 12 19.5 12C19.2239 12 19 11.7761 19 11.5C19 11.2239 19.2239 11 19.5 11C19.2239 11 19 10.7761 19 10.5C19 10.2239 19.2239 10 19.5 10C19.2239 10 19 9.77614 19 9.5C19 9.22386 19.2239 9 19.5 9C19.2239 9 19 8.77614 19 8.5C19 8.22386 19.2239 8 19.5 8C19.2239 8 19 7.77614 19 7.5C19 7.22386 19.2239 7 19.5 7C19.2239 7 19 6.77614 19 6.5C19 6.22386 19.2239 6 19.5 6C19.2239 6 19 5.77614 19 5.5C19 5.77614 18.7761 6 18.5 6C18.2239 6 18 5.77614 18 5.5C18 5.22386 18.2239 5 18.5 5C18.2239 5 18 4.77614 18 4.5C18 4.77614 17.7761 5 17.5 5C17.2239 5 17 4.77614 17 4.5C17 4.77614 16.7761 5 16.5 5C16.2239 5 16 4.77614 16 4.5C16 4.22386 16.2239 4 16.5 4C16.2239 4 16 3.77614 16 3.5C16 3.77614 15.7761 4 15.5 4C15.2239 4 15 3.77614 15 3.5C15 3.77614 14.7761 4 14.5 4C14.2239 4 14 3.77614 14 3.5C14 3.77614 13.7761 4 13.5 4C13.2239 4 13 3.77614 13 3.5C13 3.22386 13.2239 3 13.5 3C13.2239 3 13 2.77614 13 2.5C13 2.77614 12.7761 3 12.5 3ZM12 3.5C12 3.22386 11.7761 3 11.5 3C11.2239 3 11 3.22386 11 3.5C11 3.77614 11.2239 4 11.5 4C11.7761 4 12 3.77614 12 3.5ZM12 3.5C12 3.22386 12.2239 3 12.5 3C12.7761 3 13 3.22386 13 3.5C13 3.77614 12.7761 4 12.5 4C12.2239 4 12 3.77614 12 3.5ZM4 9.5C4 9.22386 4.22386 9 4.5 9C4.77614 9 5 9.22386 5 9.5C5 9.77614 4.77614 10 4.5 10C4.22386 10 4 9.77614 4 9.5ZM5 10.5C5 10.2239 4.77614 10 4.5 10C4.22386 10 4 10.2239 4 10.5C4 10.7761 4.22386 11 4.5 11C4.22386 11 4 11.2239 4 11.5C4 11.7761 4.22386 12 4.5 12C4.22386 12 4 12.2239 4 12.5C4 12.7761 4.22386 13 4.5 13C4.22386 13 4 13.2239 4 13.5C4 13.7761 4.22386 14 4.5 14C4.22386 14 4 14.2239 4 14.5C4 14.7761 4.22386 15 4.5 15C4.77614 15 5 14.7761 5 14.5C5 14.7761 5.22386 15 5.5 15C5.22386 15 5 15.2239 5 15.5C5 15.7761 5.22386 16 5.5 16C5.22386 16 5 16.2239 5 16.5C5 16.7761 5.22386 17 5.5 17C5.77614 17 6 16.7761 6 16.5C6 16.7761 6.22386 17 6.5 17C6.22386 17 6 17.2239 6 17.5C6 17.7761 6.22386 18 6.5 18C6.77614 18 7 17.7761 7 17.5C7 17.7761 7.22386 18 7.5 18C7.22386 18 7 18.2239 7 18.5C7 18.7761 7.22386 19 7.5 19C7.77614 19 8 18.7761 8 18.5C8 18.7761 8.22386 19 8.5 19C8.22386 19 8 19.2239 8 19.5C8 19.7761 8.22386 20 8.5 20C8.77614 20 9 19.7761 9 19.5C9 19.7761 9.22386 20 9.5 20C9.22386 20 9 20.2239 9 20.5C9 20.7761 9.22386 21 9.5 21C9.77614 21 10 20.7761 10 20.5C10 20.7761 10.2239 21 10.5 21C10.7761 21 11 20.7761 11 20.5C11 20.7761 11.2239 21 11.5 21C11.2239 21 11 21.2239 11 21.5C11 21.7761 11.2239 22 11.5 22C11.7761 22 12 21.7761 12 21.5C12 21.7761 12.2239 22 12.5 22C12.7761 22 13 21.7761 13 21.5C13 21.2239 12.7761 21 12.5 21C12.7761 21 13 20.7761 13 20.5C13 20.7761 13.2239 21 13.5 21C13.7761 21 14 20.7761 14 20.5C14 20.7761 14.2239 21 14.5 21C14.7761 21 15 20.7761 15 20.5C15 20.2239 14.7761 20 14.5 20C14.7761 20 15 19.7761 15 19.5C15 19.7761 15.2239 20 15.5 20C15.7761 20 16 19.7761 16 19.5C16 19.2239 15.7761 19 15.5 19C15.2239 19 15 19.2239 15 19.5C15 19.2239 14.7761 19 14.5 19C14.7761 19 15 18.7761 15 18.5C15 18.2239 14.7761 18 14.5 18C14.2239 18 14 18.2239 14 18.5C14 18.2239 13.7761 18 13.5 18C13.2239 18 13 18.2239 13 18.5C13 18.7761 13.2239 19 13.5 19C13.2239 19 13 19.2239 13 19.5C13 19.2239 12.7761 19 12.5 19C12.2239 19 12 19.2239 12 19.5C12 19.2239 11.7761 19 11.5 19C11.2239 19 11 19.2239 11 19.5C11 19.2239 10.7761 19 10.5 19C10.7761 19 11 18.7761 11 18.5C11 18.2239 10.7761 18 10.5 18C10.2239 18 10 18.2239 10 18.5C10 18.2239 9.77614 18 9.5 18C9.22386 18 9 18.2239 9 18.5C9 18.2239 8.77614 18 8.5 18C8.77614 18 9 17.7761 9 17.5C9 17.2239 8.77614 17 8.5 17C8.22386 17 8 17.2239 8 17.5C8 17.2239 7.77614 17 7.5 17C7.77614 17 8 16.7761 8 16.5C8 16.2239 7.77614 16 7.5 16C7.22386 16 7 16.2239 7 16.5C7 16.2239 6.77614 16 6.5 16C6.77614 16 7 15.7761 7 15.5C7 15.2239 6.77614 15 6.5 15C6.22386 15 6 15.2239 6 15.5C6 15.2239 5.77614 15 5.5 15C5.77614 15 6 14.7761 6 14.5C6 14.2239 5.77614 14 5.5 14C5.77614 14 6 13.7761 6 13.5C6 13.2239 5.77614 13 5.5 13C5.77614 13 6 12.7761 6 12.5C6 12.2239 5.77614 12 5.5 12C5.77614 12 6 11.7761 6 11.5C6 11.2239 5.77614 11 5.5 11C5.77614 11 6 10.7761 6 10.5C6 10.2239 5.77614 10 5.5 10C5.77614 10 6 9.77614 6 9.5C6 9.22386 5.77614 9 5.5 9C5.22386 9 5 9.22386 5 9.5C5 9.77614 5.22386 10 5.5 10C5.22386 10 5 10.2239 5 10.5ZM5 11.5C5 11.2239 4.77614 11 4.5 11C4.77614 11 5 10.7761 5 10.5C5 10.7761 5.22386 11 5.5 11C5.22386 11 5 11.2239 5 11.5ZM5 12.5C5 12.2239 4.77614 12 4.5 12C4.77614 12 5 11.7761 5 11.5C5 11.7761 5.22386 12 5.5 12C5.22386 12 5 12.2239 5 12.5ZM5 13.5C5 13.2239 4.77614 13 4.5 13C4.77614 13 5 12.7761 5 12.5C5 12.7761 5.22386 13 5.5 13C5.22386 13 5 13.2239 5 13.5ZM5 13.5C5 13.7761 5.22386 14 5.5 14C5.22386 14 5 14.2239 5 14.5C5 14.2239 4.77614 14 4.5 14C4.77614 14 5 13.7761 5 13.5ZM6 15.5C6 15.7761 6.22386 16 6.5 16C6.22386 16 6 16.2239 6 16.5C6 16.2239 5.77614 16 5.5 16C5.77614 16 6 15.7761 6 15.5ZM7 16.5C7 16.7761 7.22386 17 7.5 17C7.22386 17 7 17.2239 7 17.5C7 17.2239 6.77614 17 6.5 17C6.77614 17 7 16.7761 7 16.5ZM8 17.5C8 17.7761 7.77614 18 7.5 18C7.77614 18 8 18.2239 8 18.5C8 18.2239 8.22386 18 8.5 18C8.22386 18 8 17.7761 8 17.5ZM9.5 19C9.77614 19 10 18.7761 10 18.5C10 18.7761 10.2239 19 10.5 19C10.2239 19 10 19.2239 10 19.5C10 19.2239 9.77614 19 9.5 19ZM10.5 20C10.2239 20 10 20.2239 10 20.5C10 20.2239 9.77614 20 9.5 20C9.77614 20 10 19.7761 10 19.5C10 19.7761 10.2239 20 10.5 20ZM9.5 19C9.22386 19 9 19.2239 9 19.5C9 19.2239 8.77614 19 8.5 19C8.77614 19 9 18.7761 9 18.5C9 18.7761 9.22386 19 9.5 19ZM11.5 20C11.2239 20 11 20.2239 11 20.5C11 20.2239 10.7761 20 10.5 20C10.7761 20 11 19.7761 11 19.5C11 19.7761 11.2239 20 11.5 20ZM12 20.5C12 20.7761 11.7761 21 11.5 21C11.7761 21 12 21.2239 12 21.5C12 21.2239 12.2239 21 12.5 21C12.2239 21 12 20.7761 12 20.5ZM12.5 20C12.7761 20 13 20.2239 13 20.5C13 20.2239 13.2239 20 13.5 20C13.7761 20 14 20.2239 14 20.5C14 20.2239 14.2239 20 14.5 20C14.2239 20 14 19.7761 14 19.5C14 19.2239 14.2239 19 14.5 19C14.2239 19 14 18.7761 14 18.5C14 18.7761 13.7761 19 13.5 19C13.7761 19 14 19.2239 14 19.5C14 19.7761 13.7761 20 13.5 20C13.2239 20 13 19.7761 13 19.5C13 19.7761 12.7761 20 12.5 20ZM12.5 20C12.2239 20 12 20.2239 12 20.5C12 20.2239 11.7761 20 11.5 20C11.7761 20 12 19.7761 12 19.5C12 19.7761 12.2239 20 12.5 20ZM4.5 9C4.22386 9 4 8.77614 4 8.5C4 8.22386 4.22386 8 4.5 8C4.77614 8 5 8.22386 5 8.5C5 8.77614 4.77614 9 4.5 9ZM5 4.5C5 4.22386 5.22386 4 5.5 4C5.77614 4 6 4.22386 6 4.5C6 4.77614 5.77614 5 5.5 5C5.22386 5 5 4.77614 5 4.5ZM4.5 5C4.77614 5 5 4.77614 5 4.5C5 4.22386 4.77614 4 4.5 4C4.77614 4 5 3.77614 5 3.5C5 3.22386 4.77614 3 4.5 3C4.22386 3 4 3.22386 4 3.5C4 3.22386 3.77614 3 3.5 3C3.22386 3 3 3.22386 3 3.5C3 3.77614 3.22386 4 3.5 4C3.22386 4 3 4.22386 3 4.5C3 4.77614 3.22386 5 3.5 5C3.77614 5 4 4.77614 4 4.5C4 4.77614 4.22386 5 4.5 5ZM5 5.5C5 5.77614 4.77614 6 4.5 6C4.22386 6 4 5.77614 4 5.5C4 5.22386 4.22386 5 4.5 5C4.77614 5 5 5.22386 5 5.5ZM5.5 6C5.22386 6 5 5.77614 5 5.5C5 5.22386 5.22386 5 5.5 5C5.77614 5 6 5.22386 6 5.5C6 5.77614 5.77614 6 5.5 6ZM6 6.5C6 6.77614 5.77614 7 5.5 7C5.22386 7 5 6.77614 5 6.5C5 6.22386 5.22386 6 5.5 6C5.77614 6 6 6.22386 6 6.5ZM6.5 6C6.22386 6 6 6.22386 6 6.5C6 6.77614 6.22386 7 6.5 7C6.22386 7 6 7.22386 6 7.5C6 7.77614 6.22386 8 6.5 8C6.77614 8 7 7.77614 7 7.5C7 7.77614 7.22386 8 7.5 8C7.22386 8 7 8.22386 7 8.5C7 8.77614 7.22386 9 7.5 9C7.77614 9 8 8.77614 8 8.5C8 8.77614 8.22386 9 8.5 9C8.22386 9 8 9.22386 8 9.5C8 9.77614 8.22386 10 8.5 10C8.77614 10 9 9.77614 9 9.5C9 9.77614 9.22386 10 9.5 10C9.22386 10 9 10.2239 9 10.5C9 10.7761 9.22386 11 9.5 11C9.77614 11 10 10.7761 10 10.5C10 10.7761 10.2239 11 10.5 11C10.2239 11 10 11.2239 10 11.5C10 11.7761 10.2239 12 10.5 12C10.7761 12 11 11.7761 11 11.5C11 11.7761 11.2239 12 11.5 12C11.2239 12 11 12.2239 11 12.5C11 12.7761 11.2239 13 11.5 13C11.7761 13 12 12.7761 12 12.5C12 12.7761 12.2239 13 12.5 13C12.2239 13 12 13.2239 12 13.5C12 13.7761 12.2239 14 12.5 14C12.7761 14 13 13.7761 13 13.5C13 13.7761 13.2239 14 13.5 14C13.2239 14 13 14.2239 13 14.5C13 14.7761 13.2239 15 13.5 15C13.7761 15 14 14.7761 14 14.5C14 14.7761 14.2239 15 14.5 15C14.2239 15 14 15.2239 14 15.5C14 15.7761 14.2239 16 14.5 16C14.7761 16 15 15.7761 15 15.5C15 15.7761 15.2239 16 15.5 16C15.2239 16 15 16.2239 15 16.5C15 16.7761 15.2239 17 15.5 17C15.7761 17 16 16.7761 16 16.5C16 16.7761 16.2239 17 16.5 17C16.2239 17 16 17.2239 16 17.5C16 17.7761 16.2239 18 16.5 18C16.7761 18 17 17.7761 17 17.5C17 17.7761 17.2239 18 17.5 18C17.2239 18 17 18.2239 17 18.5C17 18.7761 17.2239 19 17.5 19C17.7761 19 18 18.7761 18 18.5C18 18.7761 18.2239 19 18.5 19C18.2239 19 18 19.2239 18 19.5C18 19.7761 18.2239 20 18.5 20C18.7761 20 19 19.7761 19 19.5C19 19.7761 19.2239 20 19.5 20C19.2239 20 19 20.2239 19 20.5C19 20.7761 19.2239 21 19.5 21C19.7761 21 20 20.7761 20 20.5C20 20.7761 20.2239 21 20.5 21C20.7761 21 21 20.7761 21 20.5C21 20.2239 20.7761 20 20.5 20C20.7761 20 21 19.7761 21 19.5C21 19.2239 20.7761 19 20.5 19C20.2239 19 20 19.2239 20 19.5C20 19.2239 19.7761 19 19.5 19C19.7761 19 20 18.7761 20 18.5C20 18.2239 19.7761 18 19.5 18C19.2239 18 19 18.2239 19 18.5C19 18.2239 18.7761 18 18.5 18C18.7761 18 19 17.7761 19 17.5C19 17.2239 18.7761 17 18.5 17C18.2239 17 18 17.2239 18 17.5C18 17.2239 17.7761 17 17.5 17C17.7761 17 18 16.7761 18 16.5C18 16.2239 17.7761 16 17.5 16C17.2239 16 17 16.2239 17 16.5C17 16.2239 16.7761 16 16.5 16C16.7761 16 17 15.7761 17 15.5C17 15.2239 16.7761 15 16.5 15C16.2239 15 16 15.2239 16 15.5C16 15.2239 15.7761 15 15.5 15C15.7761 15 16 14.7761 16 14.5C16 14.2239 15.7761 14 15.5 14C15.2239 14 15 14.2239 15 14.5C15 14.2239 14.7761 14 14.5 14C14.7761 14 15 13.7761 15 13.5C15 13.2239 14.7761 13 14.5 13C14.2239 13 14 13.2239 14 13.5C14 13.2239 13.7761 13 13.5 13C13.7761 13 14 12.7761 14 12.5C14 12.2239 13.7761 12 13.5 12C13.2239 12 13 12.2239 13 12.5C13 12.2239 12.7761 12 12.5 12C12.7761 12 13 11.7761 13 11.5C13 11.2239 12.7761 11 12.5 11C12.2239 11 12 11.2239 12 11.5C12 11.2239 11.7761 11 11.5 11C11.7761 11 12 10.7761 12 10.5C12 10.2239 11.7761 10 11.5 10C11.2239 10 11 10.2239 11 10.5C11 10.2239 10.7761 10 10.5 10C10.7761 10 11 9.77614 11 9.5C11 9.22386 10.7761 9 10.5 9C10.2239 9 10 9.22386 10 9.5C10 9.22386 9.77614 9 9.5 9C9.77614 9 10 8.77614 10 8.5C10 8.22386 9.77614 8 9.5 8C9.22386 8 9 8.22386 9 8.5C9 8.22386 8.77614 8 8.5 8C8.77614 8 9 7.77614 9 7.5C9 7.22386 8.77614 7 8.5 7C8.22386 7 8 7.22386 8 7.5C8 7.22386 7.77614 7 7.5 7C7.77614 7 8 6.77614 8 6.5C8 6.22386 7.77614 6 7.5 6C7.22386 6 7 6.22386 7 6.5C7 6.22386 6.77614 6 6.5 6ZM6.5 6C6.77614 6 7 5.77614 7 5.5C7 5.22386 6.77614 5 6.5 5C6.22386 5 6 5.22386 6 5.5C6 5.77614 6.22386 6 6.5 6ZM7 6.5C7 6.77614 6.77614 7 6.5 7C6.77614 7 7 7.22386 7 7.5C7 7.22386 7.22386 7 7.5 7C7.22386 7 7 6.77614 7 6.5ZM8 7.5C8 7.77614 8.22386 8 8.5 8C8.22386 8 8 8.22386 8 8.5C8 8.22386 7.77614 8 7.5 8C7.77614 8 8 7.77614 8 7.5ZM9 8.5C9 8.77614 8.77614 9 8.5 9C8.77614 9 9 9.22386 9 9.5C9 9.22386 9.22386 9 9.5 9C9.22386 9 9 8.77614 9 8.5ZM10 9.5C10 9.77614 10.2239 10 10.5 10C10.2239 10 10 10.2239 10 10.5C10 10.2239 9.77614 10 9.5 10C9.77614 10 10 9.77614 10 9.5ZM11 10.5C11 10.7761 10.7761 11 10.5 11C10.7761 11 11 11.2239 11 11.5C11 11.2239 11.2239 11 11.5 11C11.2239 11 11 10.7761 11 10.5ZM12 11.5C12 11.7761 12.2239 12 12.5 12C12.2239 12 12 12.2239 12 12.5C12 12.2239 11.7761 12 11.5 12C11.7761 12 12 11.7761 12 11.5ZM13 12.5C13 12.7761 12.7761 13 12.5 13C12.7761 13 13 13.2239 13 13.5C13 13.2239 13.2239 13 13.5 13C13.2239 13 13 12.7761 13 12.5ZM14 13.5C14 13.7761 14.2239 14 14.5 14C14.2239 14 14 14.2239 14 14.5C14 14.2239 13.7761 14 13.5 14C13.7761 14 14 13.7761 14 13.5ZM15 14.5C15 14.7761 14.7761 15 14.5 15C14.7761 15 15 15.2239 15 15.5C15 15.2239 15.2239 15 15.5 15C15.2239 15 15 14.7761 15 14.5ZM16 15.5C16 15.7761 16.2239 16 16.5 16C16.2239 16 16 16.2239 16 16.5C16 16.2239 15.7761 16 15.5 16C15.7761 16 16 15.7761 16 15.5ZM17 16.5C17 16.7761 16.7761 17 16.5 17C16.7761 17 17 17.2239 17 17.5C17 17.2239 17.2239 17 17.5 17C17.2239 17 17 16.7761 17 16.5ZM18 17.5C18 17.7761 18.2239 18 18.5 18C18.2239 18 18 18.2239 18 18.5C18 18.2239 17.7761 18 17.5 18C17.7761 18 18 17.7761 18 17.5ZM19 18.5C19 18.7761 18.7761 19 18.5 19C18.7761 19 19 19.2239 19 19.5C19 19.2239 19.2239 19 19.5 19C19.2239 19 19 18.7761 19 18.5ZM20 19.5C20 19.7761 20.2239 20 20.5 20C20.2239 20 20 20.2239 20 20.5C20 20.2239 19.7761 20 19.5 20C19.7761 20 20 19.7761 20 19.5ZM4 4.5C4 4.22386 4.22386 4 4.5 4C4.22386 4 4 3.77614 4 3.5C4 3.77614 3.77614 4 3.5 4C3.77614 4 4 4.22386 4 4.5Z" fill="black"/>
</svg>
