<svg width="24" height="24" viewBox="0 0 24 24" fill="none" xmlns="http://www.w3.org/2000/svg">
<path fill-rule="evenodd" clip-rule="evenodd" d="M4.5 3C4.22386 3 4 3.22386 4 3.5C4 3.77614 4.22386 4 4.5 4C4.22386 4 4 4.22386 4 4.5C4 4.77614 4.22386 5 4.5 5C4.22386 5 4 5.22386 4 5.5C4 5.77614 4.22386 6 4.5 6C4.22386 6 4 6.22386 4 6.5C4 6.77614 4.22386 7 4.5 7C4.22386 7 4 7.22386 4 7.5C4 7.77614 4.22386 8 4.5 8C4.22386 8 4 8.22386 4 8.5C4 8.77614 4.22386 9 4.5 9C4.22386 9 4 9.22386 4 9.5C4 9.77614 4.22386 10 4.5 10C4.22386 10 4 10.2239 4 10.5C4 10.7761 4.22386 11 4.5 11C4.77614 11 5 10.7761 5 10.5C5 10.7761 5.22386 11 5.5 11C5.77614 11 6 10.7761 6 10.5C6 10.2239 5.77614 10 5.5 10C5.77614 10 6 9.77614 6 9.5C6 9.22386 5.77614 9 5.5 9C5.77614 9 6 8.77614 6 8.5C6 8.22386 5.77614 8 5.5 8C5.77614 8 6 7.77614 6 7.5C6 7.22386 5.77614 7 5.5 7C5.77614 7 6 6.77614 6 6.5C6 6.22386 5.77614 6 5.5 6C5.77614 6 6 5.77614 6 5.5C6 5.22386 5.77614 5 5.5 5C5.77614 5 6 4.77614 6 4.5C6 4.22386 5.77614 4 5.5 4C5.77614 4 6 3.77614 6 3.5C6 3.22386 5.77614 3 5.5 3C5.22386 3 5 3.22386 5 3.5C5 3.22386 4.77614 3 4.5 3ZM5 4.5C5 4.77614 4.77614 5 4.5 5C4.77614 5 5 5.22386 5 5.5C5 5.77614 4.77614 6 4.5 6C4.77614 6 5 6.22386 5 6.5C5 6.77614 4.77614 7 4.5 7C4.77614 7 5 7.22386 5 7.5C5 7.77614 4.77614 8 4.5 8C4.77614 8 5 8.22386 5 8.5C5 8.77614 4.77614 9 4.5 9C4.77614 9 5 9.22386 5 9.5C5 9.77614 4.77614 10 4.5 10C4.77614 10 5 10.2239 5 10.5C5 10.2239 5.22386 10 5.5 10C5.22386 10 5 9.77614 5 9.5C5 9.22386 5.22386 9 5.5 9C5.22386 9 5 8.77614 5 8.5C5 8.22386 5.22386 8 5.5 8C5.22386 8 5 7.77614 5 7.5C5 7.22386 5.22386 7 5.5 7C5.22386 7 5 6.77614 5 6.5C5 6.22386 5.22386 6 5.5 6C5.22386 6 5 5.77614 5 5.5C5 5.22386 5.22386 5 5.5 5C5.22386 5 5 4.77614 5 4.5ZM5 4.5C5 4.22386 5.22386 4 5.5 4C5.22386 4 5 3.77614 5 3.5C5 3.77614 4.77614 4 4.5 4C4.77614 4 5 4.22386 5 4.5ZM2 13.5C2 13.2239 2.22386 13 2.5 13C2.77614 13 3 13.2239 3 13.5C3 13.7761 2.77614 14 2.5 14C2.22386 14 2 13.7761 2 13.5ZM3 14.5C3 14.2239 2.77614 14 2.5 14C2.22386 14 2 14.2239 2 14.5C2 14.7761 2.22386 15 2.5 15C2.77614 15 3 14.7761 3 14.5ZM3.5 14C3.22386 14 3 14.2239 3 14.5C3 14.7761 3.22386 15 3.5 15C3.77614 15 4 14.7761 4 14.5C4 14.7761 4.22386 15 4.5 15C4.22386 15 4 15.2239 4 15.5C4 15.7761 4.22386 16 4.5 16C4.22386 16 4 16.2239 4 16.5C4 16.7761 4.22386 17 4.5 17C4.22386 17 4 17.2239 4 17.5C4 17.7761 4.22386 18 4.5 18C4.22386 18 4 18.2239 4 18.5C4 18.7761 4.22386 19 4.5 19C4.22386 19 4 19.2239 4 19.5C4 19.7761 4.22386 20 4.5 20C4.22386 20 4 20.2239 4 20.5C4 20.7761 4.22386 21 4.5 21C4.77614 21 5 20.7761 5 20.5C5 20.7761 5.22386 21 5.5 21C5.77614 21 6 20.7761 6 20.5C6 20.2239 5.77614 20 5.5 20C5.77614 20 6 19.7761 6 19.5C6 19.2239 5.77614 19 5.5 19C5.77614 19 6 18.7761 6 18.5C6 18.2239 5.77614 18 5.5 18C5.77614 18 6 17.7761 6 17.5C6 17.2239 5.77614 17 5.5 17C5.77614 17 6 16.7761 6 16.5C6 16.2239 5.77614 16 5.5 16C5.77614 16 6 15.7761 6 15.5C6 15.2239 5.77614 15 5.5 15C5.77614 15 6 14.7761 6 14.5C6 14.7761 6.22386 15 6.5 15C6.77614 15 7 14.7761 7 14.5C7 14.7761 7.22386 15 7.5 15C7.77614 15 8 14.7761 8 14.5C8 14.2239 7.77614 14 7.5 14C7.77614 14 8 13.7761 8 13.5C8 13.2239 7.77614 13 7.5 13C7.22386 13 7 13.2239 7 13.5C7 13.2239 6.77614 13 6.5 13C6.22386 13 6 13.2239 6 13.5C6 13.2239 5.77614 13 5.5 13C5.22386 13 5 13.2239 5 13.5C5 13.2239 4.77614 13 4.5 13C4.22386 13 4 13.2239 4 13.5C4 13.2239 3.77614 13 3.5 13C3.22386 13 3 13.2239 3 13.5C3 13.7761 3.22386 14 3.5 14ZM4.5 14C4.22386 14 4 14.2239 4 14.5C4 14.2239 3.77614 14 3.5 14C3.77614 14 4 13.7761 4 13.5C4 13.7761 4.22386 14 4.5 14ZM5 14.5C5 14.7761 4.77614 15 4.5 15C4.77614 15 5 15.2239 5 15.5C5 15.7761 4.77614 16 4.5 16C4.77614 16 5 16.2239 5 16.5C5 16.7761 4.77614 17 4.5 17C4.77614 17 5 17.2239 5 17.5C5 17.7761 4.77614 18 4.5 18C4.77614 18 5 18.2239 5 18.5C5 18.7761 4.77614 19 4.5 19C4.77614 19 5 19.2239 5 19.5C5 19.7761 4.77614 20 4.5 20C4.77614 20 5 20.2239 5 20.5C5 20.2239 5.22386 20 5.5 20C5.22386 20 5 19.7761 5 19.5C5 19.2239 5.22386 19 5.5 19C5.22386 19 5 18.7761 5 18.5C5 18.2239 5.22386 18 5.5 18C5.22386 18 5 17.7761 5 17.5C5 17.2239 5.22386 17 5.5 17C5.22386 17 5 16.7761 5 16.5C5 16.2239 5.22386 16 5.5 16C5.22386 16 5 15.7761 5 15.5C5 15.2239 5.22386 15 5.5 15C5.22386 15 5 14.7761 5 14.5ZM5.5 14C5.77614 14 6 14.2239 6 14.5C6 14.2239 6.22386 14 6.5 14C6.77614 14 7 14.2239 7 14.5C7 14.2239 7.22386 14 7.5 14C7.22386 14 7 13.7761 7 13.5C7 13.7761 6.77614 14 6.5 14C6.22386 14 6 13.7761 6 13.5C6 13.7761 5.77614 14 5.5 14ZM5.5 14C5.22386 14 5 14.2239 5 14.5C5 14.2239 4.77614 14 4.5 14C4.77614 14 5 13.7761 5 13.5C5 13.7761 5.22386 14 5.5 14ZM11 19.5C11 19.2239 11.2239 19 11.5 19C11.7761 19 12 19.2239 12 19.5C12 19.7761 11.7761 20 11.5 20C11.2239 20 11 19.7761 11 19.5ZM12 20.5C12 20.7761 11.7761 21 11.5 21C11.2239 21 11 20.7761 11 20.5C11 20.2239 11.2239 20 11.5 20C11.7761 20 12 20.2239 12 20.5ZM12.5 20C12.7761 20 13 20.2239 13 20.5C13 20.7761 12.7761 21 12.5 21C12.2239 21 12 20.7761 12 20.5C12 20.2239 12.2239 20 12.5 20ZM12.5 19C12.2239 19 12 19.2239 12 19.5C12 19.7761 12.2239 20 12.5 20C12.7761 20 13 19.7761 13 19.5C13 19.2239 12.7761 19 12.5 19ZM12 18.5C12 18.7761 11.7761 19 11.5 19C11.2239 19 11 18.7761 11 18.5C11 18.2239 11.2239 18 11.5 18C11.7761 18 12 18.2239 12 18.5ZM12.5 18C12.7761 18 13 18.2239 13 18.5C13 18.7761 12.7761 19 12.5 19C12.2239 19 12 18.7761 12 18.5C12 18.2239 12.2239 18 12.5 18ZM12 17.5C12 17.7761 12.2239 18 12.5 18C12.7761 18 13 17.7761 13 17.5C13 17.2239 12.7761 17 12.5 17C12.7761 17 13 16.7761 13 16.5C13 16.2239 12.7761 16 12.5 16C12.7761 16 13 15.7761 13 15.5C13 15.2239 12.7761 15 12.5 15C12.7761 15 13 14.7761 13 14.5C13 14.2239 12.7761 14 12.5 14C12.7761 14 13 13.7761 13 13.5C13 13.2239 12.7761 13 12.5 13C12.7761 13 13 12.7761 13 12.5C13 12.2239 12.7761 12 12.5 12C12.7761 12 13 11.7761 13 11.5C13 11.2239 12.7761 11 12.5 11C12.2239 11 12 11.2239 12 11.5C12 11.2239 11.7761 11 11.5 11C11.2239 11 11 11.2239 11 11.5C11 11.7761 11.2239 12 11.5 12C11.2239 12 11 12.2239 11 12.5C11 12.7761 11.2239 13 11.5 13C11.2239 13 11 13.2239 11 13.5C11 13.7761 11.2239 14 11.5 14C11.2239 14 11 14.2239 11 14.5C11 14.7761 11.2239 15 11.5 15C11.2239 15 11 15.2239 11 15.5C11 15.7761 11.2239 16 11.5 16C11.2239 16 11 16.2239 11 16.5C11 16.7761 11.2239 17 11.5 17C11.2239 17 11 17.2239 11 17.5C11 17.7761 11.2239 18 11.5 18C11.7761 18 12 17.7761 12 17.5ZM12 16.5C12 16.2239 11.7761 16 11.5 16C11.7761 16 12 15.7761 12 15.5C12 15.7761 12.2239 16 12.5 16C12.2239 16 12 16.2239 12 16.5ZM12 16.5C12 16.7761 11.7761 17 11.5 17C11.7761 17 12 17.2239 12 17.5C12 17.2239 12.2239 17 12.5 17C12.2239 17 12 16.7761 12 16.5ZM12 15.5C12 15.2239 11.7761 15 11.5 15C11.7761 15 12 14.7761 12 14.5C12 14.7761 12.2239 15 12.5 15C12.2239 15 12 15.2239 12 15.5ZM12 13.5C12 13.7761 12.2239 14 12.5 14C12.2239 14 12 14.2239 12 14.5C12 14.2239 11.7761 14 11.5 14C11.7761 14 12 13.7761 12 13.5ZM12 12.5C12 12.7761 12.2239 13 12.5 13C12.2239 13 12 13.2239 12 13.5C12 13.2239 11.7761 13 11.5 13C11.7761 13 12 12.7761 12 12.5ZM12 12.5C12 12.2239 11.7761 12 11.5 12C11.7761 12 12 11.7761 12 11.5C12 11.7761 12.2239 12 12.5 12C12.2239 12 12 12.2239 12 12.5ZM18.5 19C18.2239 19 18 19.2239 18 19.5C18 19.7761 18.2239 20 18.5 20C18.2239 20 18 20.2239 18 20.5C18 20.7761 18.2239 21 18.5 21C18.7761 21 19 20.7761 19 20.5C19 20.7761 19.2239 21 19.5 21C19.7761 21 20 20.7761 20 20.5C20 20.2239 19.7761 20 19.5 20C19.7761 20 20 19.7761 20 19.5C20 19.2239 19.7761 19 19.5 19C19.7761 19 20 18.7761 20 18.5C20 18.2239 19.7761 18 19.5 18C19.7761 18 20 17.7761 20 17.5C20 17.2239 19.7761 17 19.5 17C19.7761 17 20 16.7761 20 16.5C20 16.2239 19.7761 16 19.5 16C19.7761 16 20 15.7761 20 15.5C20 15.2239 19.7761 15 19.5 15C19.7761 15 20 14.7761 20 14.5C20 14.7761 20.2239 15 20.5 15C20.7761 15 21 14.7761 21 14.5C21 14.7761 21.2239 15 21.5 15C21.7761 15 22 14.7761 22 14.5C22 14.2239 21.7761 14 21.5 14C21.7761 14 22 13.7761 22 13.5C22 13.2239 21.7761 13 21.5 13C21.2239 13 21 13.2239 21 13.5C21 13.2239 20.7761 13 20.5 13C20.2239 13 20 13.2239 20 13.5C20 13.2239 19.7761 13 19.5 13C19.2239 13 19 13.2239 19 13.5C19 13.2239 18.7761 13 18.5 13C18.2239 13 18 13.2239 18 13.5C18 13.2239 17.7761 13 17.5 13C17.2239 13 17 13.2239 17 13.5C17 13.2239 16.7761 13 16.5 13C16.2239 13 16 13.2239 16 13.5C16 13.7761 16.2239 14 16.5 14C16.2239 14 16 14.2239 16 14.5C16 14.7761 16.2239 15 16.5 15C16.7761 15 17 14.7761 17 14.5C17 14.7761 17.2239 15 17.5 15C17.7761 15 18 14.7761 18 14.5C18 14.7761 18.2239 15 18.5 15C18.2239 15 18 15.2239 18 15.5C18 15.7761 18.2239 16 18.5 16C18.2239 16 18 16.2239 18 16.5C18 16.7761 18.2239 17 18.5 17C18.2239 17 18 17.2239 18 17.5C18 17.7761 18.2239 18 18.5 18C18.2239 18 18 18.2239 18 18.5C18 18.7761 18.2239 19 18.5 19ZM19 18.5C19 18.2239 19.2239 18 19.5 18C19.2239 18 19 17.7761 19 17.5C19 17.2239 19.2239 17 19.5 17C19.2239 17 19 16.7761 19 16.5C19 16.2239 19.2239 16 19.5 16C19.2239 16 19 15.7761 19 15.5C19 15.2239 19.2239 15 19.5 15C19.2239 15 19 14.7761 19 14.5C19 14.2239 19.2239 14 19.5 14C19.7761 14 20 14.2239 20 14.5C20 14.2239 20.2239 14 20.5 14C20.7761 14 21 14.2239 21 14.5C21 14.2239 21.2239 14 21.5 14C21.2239 14 21 13.7761 21 13.5C21 13.7761 20.7761 14 20.5 14C20.2239 14 20 13.7761 20 13.5C20 13.7761 19.7761 14 19.5 14C19.2239 14 19 13.7761 19 13.5C19 13.7761 18.7761 14 18.5 14C18.2239 14 18 13.7761 18 13.5C18 13.7761 17.7761 14 17.5 14C17.2239 14 17 13.7761 17 13.5C17 13.7761 16.7761 14 16.5 14C16.7761 14 17 14.2239 17 14.5C17 14.2239 17.2239 14 17.5 14C17.7761 14 18 14.2239 18 14.5C18 14.2239 18.2239 14 18.5 14C18.7761 14 19 14.2239 19 14.5C19 14.7761 18.7761 15 18.5 15C18.7761 15 19 15.2239 19 15.5C19 15.7761 18.7761 16 18.5 16C18.7761 16 19 16.2239 19 16.5C19 16.7761 18.7761 17 18.5 17C18.7761 17 19 17.2239 19 17.5C19 17.7761 18.7761 18 18.5 18C18.7761 18 19 18.2239 19 18.5ZM19 18.5C19 18.7761 18.7761 19 18.5 19C18.7761 19 19 19.2239 19 19.5C19 19.7761 18.7761 20 18.5 20C18.7761 20 19 20.2239 19 20.5C19 20.2239 19.2239 20 19.5 20C19.2239 20 19 19.7761 19 19.5C19 19.2239 19.2239 19 19.5 19C19.2239 19 19 18.7761 19 18.5ZM18.5 9C18.2239 9 18 9.22386 18 9.5C18 9.77614 18.2239 10 18.5 10C18.2239 10 18 10.2239 18 10.5C18 10.7761 18.2239 11 18.5 11C18.7761 11 19 10.7761 19 10.5C19 10.7761 19.2239 11 19.5 11C19.7761 11 20 10.7761 20 10.5C20 10.2239 19.7761 10 19.5 10C19.7761 10 20 9.77614 20 9.5C20 9.22386 19.7761 9 19.5 9C19.7761 9 20 8.77614 20 8.5C20 8.22386 19.7761 8 19.5 8C19.7761 8 20 7.77614 20 7.5C20 7.22386 19.7761 7 19.5 7C19.7761 7 20 6.77614 20 6.5C20 6.22386 19.7761 6 19.5 6C19.7761 6 20 5.77614 20 5.5C20 5.22386 19.7761 5 19.5 5C19.7761 5 20 4.77614 20 4.5C20 4.22386 19.7761 4 19.5 4C19.7761 4 20 3.77614 20 3.5C20 3.22386 19.7761 3 19.5 3C19.2239 3 19 3.22386 19 3.5C19 3.22386 18.7761 3 18.5 3C18.2239 3 18 3.22386 18 3.5C18 3.77614 18.2239 4 18.5 4C18.2239 4 18 4.22386 18 4.5C18 4.77614 18.2239 5 18.5 5C18.2239 5 18 5.22386 18 5.5C18 5.77614 18.2239 6 18.5 6C18.2239 6 18 6.22386 18 6.5C18 6.77614 18.2239 7 18.5 7C18.2239 7 18 7.22386 18 7.5C18 7.77614 18.2239 8 18.5 8C18.2239 8 18 8.22386 18 8.5C18 8.77614 18.2239 9 18.5 9ZM19 8.5C19 8.22386 19.2239 8 19.5 8C19.2239 8 19 7.77614 19 7.5C19 7.22386 19.2239 7 19.5 7C19.2239 7 19 6.77614 19 6.5C19 6.22386 19.2239 6 19.5 6C19.2239 6 19 5.77614 19 5.5C19 5.22386 19.2239 5 19.5 5C19.2239 5 19 4.77614 19 4.5C19 4.22386 19.2239 4 19.5 4C19.2239 4 19 3.77614 19 3.5C19 3.77614 18.7761 4 18.5 4C18.7761 4 19 4.22386 19 4.5C19 4.77614 18.7761 5 18.5 5C18.7761 5 19 5.22386 19 5.5C19 5.77614 18.7761 6 18.5 6C18.7761 6 19 6.22386 19 6.5C19 6.77614 18.7761 7 18.5 7C18.7761 7 19 7.22386 19 7.5C19 7.77614 18.7761 8 18.5 8C18.7761 8 19 8.22386 19 8.5ZM19 8.5C19 8.77614 18.7761 9 18.5 9C18.7761 9 19 9.22386 19 9.5C19 9.77614 18.7761 10 18.5 10C18.7761 10 19 10.2239 19 10.5C19 10.2239 19.2239 10 19.5 10C19.2239 10 19 9.77614 19 9.5C19 9.22386 19.2239 9 19.5 9C19.2239 9 19 8.77614 19 8.5ZM11.5 3C11.2239 3 11 3.22386 11 3.5C11 3.77614 11.2239 4 11.5 4C11.2239 4 11 4.22386 11 4.5C11 4.77614 11.2239 5 11.5 5C11.2239 5 11 5.22386 11 5.5C11 5.77614 11.2239 6 11.5 6C11.2239 6 11 6.22386 11 6.5C11 6.77614 11.2239 7 11.5 7C11.2239 7 11 7.22386 11 7.5C11 7.22386 10.7761 7 10.5 7C10.2239 7 10 7.22386 10 7.5C10 7.22386 9.77614 7 9.5 7C9.22386 7 9 7.22386 9 7.5C9 7.77614 9.22386 8 9.5 8C9.22386 8 9 8.22386 9 8.5C9 8.77614 9.22386 9 9.5 9C9.77614 9 10 8.77614 10 8.5C10 8.77614 10.2239 9 10.5 9C10.7761 9 11 8.77614 11 8.5C11 8.77614 11.2239 9 11.5 9C11.7761 9 12 8.77614 12 8.5C12 8.77614 12.2239 9 12.5 9C12.7761 9 13 8.77614 13 8.5C13 8.77614 13.2239 9 13.5 9C13.7761 9 14 8.77614 14 8.5C14 8.77614 14.2239 9 14.5 9C14.7761 9 15 8.77614 15 8.5C15 8.22386 14.7761 8 14.5 8C14.7761 8 15 7.77614 15 7.5C15 7.22386 14.7761 7 14.5 7C14.2239 7 14 7.22386 14 7.5C14 7.22386 13.7761 7 13.5 7C13.2239 7 13 7.22386 13 7.5C13 7.22386 12.7761 7 12.5 7C12.7761 7 13 6.77614 13 6.5C13 6.22386 12.7761 6 12.5 6C12.7761 6 13 5.77614 13 5.5C13 5.22386 12.7761 5 12.5 5C12.7761 5 13 4.77614 13 4.5C13 4.22386 12.7761 4 12.5 4C12.7761 4 13 3.77614 13 3.5C13 3.22386 12.7761 3 12.5 3C12.2239 3 12 3.22386 12 3.5C12 3.22386 11.7761 3 11.5 3ZM12 4.5C12 4.77614 11.7761 5 11.5 5C11.7761 5 12 5.22386 12 5.5C12 5.77614 11.7761 6 11.5 6C11.7761 6 12 6.22386 12 6.5C12 6.77614 11.7761 7 11.5 7C11.7761 7 12 7.22386 12 7.5C12 7.77614 11.7761 8 11.5 8C11.2239 8 11 7.77614 11 7.5C11 7.77614 10.7761 8 10.5 8C10.2239 8 10 7.77614 10 7.5C10 7.77614 9.77614 8 9.5 8C9.77614 8 10 8.22386 10 8.5C10 8.22386 10.2239 8 10.5 8C10.7761 8 11 8.22386 11 8.5C11 8.22386 11.2239 8 11.5 8C11.7761 8 12 8.22386 12 8.5C12 8.22386 12.2239 8 12.5 8C12.7761 8 13 8.22386 13 8.5C13 8.22386 13.2239 8 13.5 8C13.7761 8 14 8.22386 14 8.5C14 8.22386 14.2239 8 14.5 8C14.2239 8 14 7.77614 14 7.5C14 7.77614 13.7761 8 13.5 8C13.2239 8 13 7.77614 13 7.5C13 7.77614 12.7761 8 12.5 8C12.2239 8 12 7.77614 12 7.5C12 7.22386 12.2239 7 12.5 7C12.2239 7 12 6.77614 12 6.5C12 6.22386 12.2239 6 12.5 6C12.2239 6 12 5.77614 12 5.5C12 5.22386 12.2239 5 12.5 5C12.2239 5 12 4.77614 12 4.5ZM12 4.5C12 4.22386 12.2239 4 12.5 4C12.2239 4 12 3.77614 12 3.5C12 3.77614 11.7761 4 11.5 4C11.7761 4 12 4.22386 12 4.5Z" fill="black"/>
</svg>
