<svg width="24" height="24" viewBox="0 0 24 24" fill="none" xmlns="http://www.w3.org/2000/svg">
<path fill-rule="evenodd" clip-rule="evenodd" d="M6.5 3C6.22386 3 6 3.22386 6 3.5C6 3.22386 5.77614 3 5.5 3C5.22386 3 5 3.22386 5 3.5C5 3.77614 5.22386 4 5.5 4C5.22386 4 5 4.22386 5 4.5C5 4.22386 4.77614 4 4.5 4C4.22386 4 4 4.22386 4 4.5C4 4.77614 4.22386 5 4.5 5C4.22386 5 4 5.22386 4 5.5C4 5.22386 3.77614 5 3.5 5C3.22386 5 3 5.22386 3 5.5C3 5.77614 3.22386 6 3.5 6C3.22386 6 3 6.22386 3 6.5C3 6.77614 3.22386 7 3.5 7C3.22386 7 3 7.22386 3 7.5C3 7.77614 3.22386 8 3.5 8C3.22386 8 3 8.22386 3 8.5C3 8.77614 3.22386 9 3.5 9C3.22386 9 3 9.22386 3 9.5C3 9.77614 3.22386 10 3.5 10C3.22386 10 3 10.2239 3 10.5C3 10.7761 3.22386 11 3.5 11C3.22386 11 3 11.2239 3 11.5C3 11.7761 3.22386 12 3.5 12C3.22386 12 3 12.2239 3 12.5C3 12.7761 3.22386 13 3.5 13C3.77614 13 4 12.7761 4 12.5C4 12.7761 4.22386 13 4.5 13C4.22386 13 4 13.2239 4 13.5C4 13.7761 4.22386 14 4.5 14C4.77614 14 5 13.7761 5 13.5C5 13.7761 5.22386 14 5.5 14C5.22386 14 5 14.2239 5 14.5C5 14.7761 5.22386 15 5.5 15C5.77614 15 6 14.7761 6 14.5C6 14.7761 6.22386 15 6.5 15C6.77614 15 7 14.7761 7 14.5C7 14.7761 7.22386 15 7.5 15C7.77614 15 8 14.7761 8 14.5C8 14.7761 8.22386 15 8.5 15C8.77614 15 9 14.7761 9 14.5C9 14.7761 9.22386 15 9.5 15C9.22386 15 9 15.2239 9 15.5C9 15.7761 9.22386 16 9.5 16C9.22386 16 9 16.2239 9 16.5C9 16.7761 9.22386 17 9.5 17C9.22386 17 9 17.2239 9 17.5C9 17.7761 9.22386 18 9.5 18C9.22386 18 9 18.2239 9 18.5C9 18.7761 9.22386 19 9.5 19C9.22386 19 9 19.2239 9 19.5C9 19.7761 9.22386 20 9.5 20C9.77614 20 10 19.7761 10 19.5C10 19.7761 10.2239 20 10.5 20C10.7761 20 11 19.7761 11 19.5C11 19.7761 11.2239 20 11.5 20C11.2239 20 11 20.2239 11 20.5C11 20.7761 11.2239 21 11.5 21C11.7761 21 12 20.7761 12 20.5C12 20.7761 12.2239 21 12.5 21C12.7761 21 13 20.7761 13 20.5C13 20.7761 13.2239 21 13.5 21C13.7761 21 14 20.7761 14 20.5C14 20.7761 14.2239 21 14.5 21C14.7761 21 15 20.7761 15 20.5C15 20.2239 14.7761 20 14.5 20C14.7761 20 15 19.7761 15 19.5C15 19.7761 15.2239 20 15.5 20C15.7761 20 16 19.7761 16 19.5C16 19.2239 15.7761 19 15.5 19C15.7761 19 16 18.7761 16 18.5C16 18.2239 15.7761 18 15.5 18C15.7761 18 16 17.7761 16 17.5C16 17.2239 15.7761 17 15.5 17C15.7761 17 16 16.7761 16 16.5C16 16.7761 16.2239 17 16.5 17C16.7761 17 17 16.7761 17 16.5C17 16.2239 16.7761 16 16.5 16C16.7761 16 17 15.7761 17 15.5C17 15.2239 16.7761 15 16.5 15C16.7761 15 17 14.7761 17 14.5C17 14.7761 17.2239 15 17.5 15C17.7761 15 18 14.7761 18 14.5C18 14.2239 17.7761 14 17.5 14C17.7761 14 18 13.7761 18 13.5C18 13.2239 17.7761 13 17.5 13C17.7761 13 18 12.7761 18 12.5C18 12.7761 18.2239 13 18.5 13C18.7761 13 19 12.7761 19 12.5C19 12.7761 19.2239 13 19.5 13C19.7761 13 20 12.7761 20 12.5C20 12.7761 20.2239 13 20.5 13C20.7761 13 21 12.7761 21 12.5C21 12.7761 21.2239 13 21.5 13C21.7761 13 22 12.7761 22 12.5C22 12.2239 21.7761 12 21.5 12C21.7761 12 22 11.7761 22 11.5C22 11.2239 21.7761 11 21.5 11C21.7761 11 22 10.7761 22 10.5C22 10.2239 21.7761 10 21.5 10C21.7761 10 22 9.77614 22 9.5C22 9.22386 21.7761 9 21.5 9C21.7761 9 22 8.77614 22 8.5C22 8.22386 21.7761 8 21.5 8C21.7761 8 22 7.77614 22 7.5C22 7.22386 21.7761 7 21.5 7C21.7761 7 22 6.77614 22 6.5C22 6.22386 21.7761 6 21.5 6C21.7761 6 22 5.77614 22 5.5C22 5.22386 21.7761 5 21.5 5C21.7761 5 22 4.77614 22 4.5C22 4.22386 21.7761 4 21.5 4C21.7761 4 22 3.77614 22 3.5C22 3.22386 21.7761 3 21.5 3C21.2239 3 21 3.22386 21 3.5C21 3.22386 20.7761 3 20.5 3C20.2239 3 20 3.22386 20 3.5C20 3.22386 19.7761 3 19.5 3C19.2239 3 19 3.22386 19 3.5C19 3.22386 18.7761 3 18.5 3C18.2239 3 18 3.22386 18 3.5C18 3.22386 17.7761 3 17.5 3C17.2239 3 17 3.22386 17 3.5C17 3.22386 16.7761 3 16.5 3C16.2239 3 16 3.22386 16 3.5C16 3.22386 15.7761 3 15.5 3C15.2239 3 15 3.22386 15 3.5C15 3.22386 14.7761 3 14.5 3C14.2239 3 14 3.22386 14 3.5C14 3.22386 13.7761 3 13.5 3C13.2239 3 13 3.22386 13 3.5C13 3.22386 12.7761 3 12.5 3C12.2239 3 12 3.22386 12 3.5C12 3.22386 11.7761 3 11.5 3C11.2239 3 11 3.22386 11 3.5C11 3.22386 10.7761 3 10.5 3C10.2239 3 10 3.22386 10 3.5C10 3.22386 9.77614 3 9.5 3C9.22386 3 9 3.22386 9 3.5C9 3.22386 8.77614 3 8.5 3C8.22386 3 8 3.22386 8 3.5C8 3.22386 7.77614 3 7.5 3C7.22386 3 7 3.22386 7 3.5C7 3.22386 6.77614 3 6.5 3ZM7.5 4C7.22386 4 7 3.77614 7 3.5C7 3.77614 6.77614 4 6.5 4C6.22386 4 6 3.77614 6 3.5C6 3.77614 5.77614 4 5.5 4C5.77614 4 6 4.22386 6 4.5C6 4.77614 5.77614 5 5.5 5C5.22386 5 5 4.77614 5 4.5C5 4.77614 4.77614 5 4.5 5C4.77614 5 5 5.22386 5 5.5C5 5.77614 4.77614 6 4.5 6C4.22386 6 4 5.77614 4 5.5C4 5.77614 3.77614 6 3.5 6C3.77614 6 4 6.22386 4 6.5C4 6.77614 3.77614 7 3.5 7C3.77614 7 4 7.22386 4 7.5C4 7.77614 3.77614 8 3.5 8C3.77614 8 4 8.22386 4 8.5C4 8.77614 3.77614 9 3.5 9C3.77614 9 4 9.22386 4 9.5C4 9.77614 3.77614 10 3.5 10C3.77614 10 4 10.2239 4 10.5C4 10.7761 3.77614 11 3.5 11C3.77614 11 4 11.2239 4 11.5C4 11.7761 3.77614 12 3.5 12C3.77614 12 4 12.2239 4 12.5C4 12.2239 4.22386 12 4.5 12C4.77614 12 5 12.2239 5 12.5C5 12.7761 4.77614 13 4.5 13C4.77614 13 5 13.2239 5 13.5C5 13.2239 5.22386 13 5.5 13C5.77614 13 6 13.2239 6 13.5C6 13.7761 5.77614 14 5.5 14C5.77614 14 6 14.2239 6 14.5C6 14.2239 6.22386 14 6.5 14C6.77614 14 7 14.2239 7 14.5C7 14.2239 7.22386 14 7.5 14C7.77614 14 8 14.2239 8 14.5C8 14.2239 8.22386 14 8.5 14C8.77614 14 9 14.2239 9 14.5C9 14.2239 9.22386 14 9.5 14C9.77614 14 10 14.2239 10 14.5C10 14.7761 9.77614 15 9.5 15C9.77614 15 10 15.2239 10 15.5C10 15.7761 9.77614 16 9.5 16C9.77614 16 10 16.2239 10 16.5C10 16.7761 9.77614 17 9.5 17C9.77614 17 10 17.2239 10 17.5C10 17.7761 9.77614 18 9.5 18C9.77614 18 10 18.2239 10 18.5C10 18.7761 9.77614 19 9.5 19C9.77614 19 10 19.2239 10 19.5C10 19.2239 10.2239 19 10.5 19C10.7761 19 11 19.2239 11 19.5C11 19.2239 11.2239 19 11.5 19C11.7761 19 12 19.2239 12 19.5C12 19.7761 11.7761 20 11.5 20C11.7761 20 12 20.2239 12 20.5C12 20.2239 12.2239 20 12.5 20C12.7761 20 13 20.2239 13 20.5C13 20.2239 13.2239 20 13.5 20C13.7761 20 14 20.2239 14 20.5C14 20.2239 14.2239 20 14.5 20C14.2239 20 14 19.7761 14 19.5C14 19.2239 14.2239 19 14.5 19C14.7761 19 15 19.2239 15 19.5C15 19.2239 15.2239 19 15.5 19C15.2239 19 15 18.7761 15 18.5C15 18.2239 15.2239 18 15.5 18C15.2239 18 15 17.7761 15 17.5C15 17.2239 15.2239 17 15.5 17C15.2239 17 15 16.7761 15 16.5C15 16.2239 15.2239 16 15.5 16C15.7761 16 16 16.2239 16 16.5C16 16.2239 16.2239 16 16.5 16C16.2239 16 16 15.7761 16 15.5C16 15.2239 16.2239 15 16.5 15C16.2239 15 16 14.7761 16 14.5C16 14.2239 16.2239 14 16.5 14C16.7761 14 17 14.2239 17 14.5C17 14.2239 17.2239 14 17.5 14C17.2239 14 17 13.7761 17 13.5C17 13.2239 17.2239 13 17.5 13C17.2239 13 17 12.7761 17 12.5C17 12.2239 17.2239 12 17.5 12C17.7761 12 18 12.2239 18 12.5C18 12.2239 18.2239 12 18.5 12C18.7761 12 19 12.2239 19 12.5C19 12.2239 19.2239 12 19.5 12C19.7761 12 20 12.2239 20 12.5C20 12.2239 20.2239 12 20.5 12C20.7761 12 21 12.2239 21 12.5C21 12.2239 21.2239 12 21.5 12C21.2239 12 21 11.7761 21 11.5C21 11.2239 21.2239 11 21.5 11C21.2239 11 21 10.7761 21 10.5C21 10.2239 21.2239 10 21.5 10C21.2239 10 21 9.77614 21 9.5C21 9.22386 21.2239 9 21.5 9C21.2239 9 21 8.77614 21 8.5C21 8.22386 21.2239 8 21.5 8C21.2239 8 21 7.77614 21 7.5C21 7.22386 21.2239 7 21.5 7C21.2239 7 21 6.77614 21 6.5C21 6.22386 21.2239 6 21.5 6C21.2239 6 21 5.77614 21 5.5C21 5.22386 21.2239 5 21.5 5C21.2239 5 21 4.77614 21 4.5C21 4.22386 21.2239 4 21.5 4C21.2239 4 21 3.77614 21 3.5C21 3.77614 20.7761 4 20.5 4C20.2239 4 20 3.77614 20 3.5C20 3.77614 19.7761 4 19.5 4C19.2239 4 19 3.77614 19 3.5C19 3.77614 18.7761 4 18.5 4C18.2239 4 18 3.77614 18 3.5C18 3.77614 17.7761 4 17.5 4C17.2239 4 17 3.77614 17 3.5C17 3.77614 16.7761 4 16.5 4C16.2239 4 16 3.77614 16 3.5C16 3.77614 15.7761 4 15.5 4C15.2239 4 15 3.77614 15 3.5C15 3.77614 14.7761 4 14.5 4C14.2239 4 14 3.77614 14 3.5C14 3.77614 13.7761 4 13.5 4C13.2239 4 13 3.77614 13 3.5C13 3.77614 12.7761 4 12.5 4C12.2239 4 12 3.77614 12 3.5C12 3.77614 11.7761 4 11.5 4C11.2239 4 11 3.77614 11 3.5C11 3.77614 10.7761 4 10.5 4C10.2239 4 10 3.77614 10 3.5C10 3.77614 9.77614 4 9.5 4C9.22386 4 9 3.77614 9 3.5C9 3.77614 8.77614 4 8.5 4C8.22386 4 8 3.77614 8 3.5C8 3.77614 7.77614 4 7.5 4ZM8 4.5C8 4.22386 7.77614 4 7.5 4C7.22386 4 7 4.22386 7 4.5C7 4.22386 6.77614 4 6.5 4C6.22386 4 6 4.22386 6 4.5C6 4.77614 6.22386 5 6.5 5C6.77614 5 7 4.77614 7 4.5C7 4.77614 7.22386 5 7.5 5C7.77614 5 8 4.77614 8 4.5ZM9 4.5C9 4.22386 9.22386 4 9.5 4C9.77614 4 10 4.22386 10 4.5C10 4.77614 9.77614 5 9.5 5C9.22386 5 9 4.77614 9 4.5ZM11 4.5C11 4.22386 11.2239 4 11.5 4C11.7761 4 12 4.22386 12 4.5C12 4.77614 11.7761 5 11.5 5C11.2239 5 11 4.77614 11 4.5ZM13 4.5C13 4.77614 12.7761 5 12.5 5C12.2239 5 12 4.77614 12 4.5C12 4.22386 12.2239 4 12.5 4C12.7761 4 13 4.22386 13 4.5ZM14 4.5C14 4.22386 13.7761 4 13.5 4C13.2239 4 13 4.22386 13 4.5C13 4.77614 13.2239 5 13.5 5C13.7761 5 14 4.77614 14 4.5ZM15 4.5C15 4.22386 14.7761 4 14.5 4C14.2239 4 14 4.22386 14 4.5C14 4.77614 14.2239 5 14.5 5C14.7761 5 15 4.77614 15 4.5ZM16 4.5C16 4.77614 15.7761 5 15.5 5C15.2239 5 15 4.77614 15 4.5C15 4.22386 15.2239 4 15.5 4C15.7761 4 16 4.22386 16 4.5ZM16.5 5C16.2239 5 16 4.77614 16 4.5C16 4.22386 16.2239 4 16.5 4C16.7761 4 17 4.22386 17 4.5C17 4.77614 16.7761 5 16.5 5ZM17 5.5C17 5.22386 16.7761 5 16.5 5C16.2239 5 16 5.22386 16 5.5C16 5.77614 16.2239 6 16.5 6C16.2239 6 16 6.22386 16 6.5C16 6.77614 16.2239 7 16.5 7C16.2239 7 16 7.22386 16 7.5C16 7.77614 16.2239 8 16.5 8C16.2239 8 16 8.22386 16 8.5C16 8.77614 16.2239 9 16.5 9C16.2239 9 16 9.22386 16 9.5C16 9.77614 16.2239 10 16.5 10C16.2239 10 16 10.2239 16 10.5C16 10.7761 16.2239 11 16.5 11C16.2239 11 16 11.2239 16 11.5C16 11.7761 16.2239 12 16.5 12C16.2239 12 16 12.2239 16 12.5C16 12.7761 16.2239 13 16.5 13C16.2239 13 16 13.2239 16 13.5C16 13.7761 16.2239 14 16.5 14C16.7761 14 17 13.7761 17 13.5C17 13.2239 16.7761 13 16.5 13C16.7761 13 17 12.7761 17 12.5C17 12.2239 16.7761 12 16.5 12C16.7761 12 17 11.7761 17 11.5C17 11.7761 17.2239 12 17.5 12C17.7761 12 18 11.7761 18 11.5C18 11.7761 18.2239 12 18.5 12C18.7761 12 19 11.7761 19 11.5C19 11.7761 19.2239 12 19.5 12C19.7761 12 20 11.7761 20 11.5C20 11.7761 20.2239 12 20.5 12C20.7761 12 21 11.7761 21 11.5C21 11.2239 20.7761 11 20.5 11C20.7761 11 21 10.7761 21 10.5C21 10.2239 20.7761 10 20.5 10C20.7761 10 21 9.77614 21 9.5C21 9.22386 20.7761 9 20.5 9C20.7761 9 21 8.77614 21 8.5C21 8.22386 20.7761 8 20.5 8C20.7761 8 21 7.77614 21 7.5C21 7.22386 20.7761 7 20.5 7C20.7761 7 21 6.77614 21 6.5C21 6.22386 20.7761 6 20.5 6C20.7761 6 21 5.77614 21 5.5C21 5.22386 20.7761 5 20.5 5C20.7761 5 21 4.77614 21 4.5C21 4.22386 20.7761 4 20.5 4C20.2239 4 20 4.22386 20 4.5C20 4.22386 19.7761 4 19.5 4C19.2239 4 19 4.22386 19 4.5C19 4.22386 18.7761 4 18.5 4C18.2239 4 18 4.22386 18 4.5C18 4.22386 17.7761 4 17.5 4C17.2239 4 17 4.22386 17 4.5C17 4.77614 17.2239 5 17.5 5C17.2239 5 17 5.22386 17 5.5ZM17.5 6C17.2239 6 17 5.77614 17 5.5C17 5.77614 16.7761 6 16.5 6C16.7761 6 17 6.22386 17 6.5C17 6.77614 16.7761 7 16.5 7C16.7761 7 17 7.22386 17 7.5C17 7.77614 16.7761 8 16.5 8C16.7761 8 17 8.22386 17 8.5C17 8.77614 16.7761 9 16.5 9C16.7761 9 17 9.22386 17 9.5C17 9.77614 16.7761 10 16.5 10C16.7761 10 17 10.2239 17 10.5C17 10.7761 16.7761 11 16.5 11C16.7761 11 17 11.2239 17 11.5C17 11.2239 17.2239 11 17.5 11C17.7761 11 18 11.2239 18 11.5C18 11.2239 18.2239 11 18.5 11C18.7761 11 19 11.2239 19 11.5C19 11.2239 19.2239 11 19.5 11C19.7761 11 20 11.2239 20 11.5C20 11.2239 20.2239 11 20.5 11C20.2239 11 20 10.7761 20 10.5C20 10.2239 20.2239 10 20.5 10C20.2239 10 20 9.77614 20 9.5C20 9.22386 20.2239 9 20.5 9C20.2239 9 20 8.77614 20 8.5C20 8.22386 20.2239 8 20.5 8C20.2239 8 20 7.77614 20 7.5C20 7.22386 20.2239 7 20.5 7C20.2239 7 20 6.77614 20 6.5C20 6.22386 20.2239 6 20.5 6C20.2239 6 20 5.77614 20 5.5C20 5.22386 20.2239 5 20.5 5C20.2239 5 20 4.77614 20 4.5C20 4.77614 19.7761 5 19.5 5C19.2239 5 19 4.77614 19 4.5C19 4.77614 18.7761 5 18.5 5C18.2239 5 18 4.77614 18 4.5C18 4.77614 17.7761 5 17.5 5C17.7761 5 18 5.22386 18 5.5C18 5.77614 17.7761 6 17.5 6ZM17.5 7C17.2239 7 17 6.77614 17 6.5C17 6.22386 17.2239 6 17.5 6C17.7761 6 18 6.22386 18 6.5C18 6.77614 17.7761 7 17.5 7ZM17.5 8C17.2239 8 17 7.77614 17 7.5C17 7.22386 17.2239 7 17.5 7C17.7761 7 18 7.22386 18 7.5C18 7.77614 17.7761 8 17.5 8ZM17.5 9C17.2239 9 17 8.77614 17 8.5C17 8.22386 17.2239 8 17.5 8C17.7761 8 18 8.22386 18 8.5C18 8.77614 17.7761 9 17.5 9ZM17.5 10C17.2239 10 17 9.77614 17 9.5C17 9.22386 17.2239 9 17.5 9C17.7761 9 18 9.22386 18 9.5C18 9.77614 17.7761 10 17.5 10ZM17.5 10C17.7761 10 18 10.2239 18 10.5C18 10.7761 17.7761 11 17.5 11C17.2239 11 17 10.7761 17 10.5C17 10.2239 17.2239 10 17.5 10ZM11 4.5C11 4.22386 10.7761 4 10.5 4C10.2239 4 10 4.22386 10 4.5C10 4.77614 10.2239 5 10.5 5C10.7761 5 11 4.77614 11 4.5ZM9 4.5C9 4.22386 8.77614 4 8.5 4C8.22386 4 8 4.22386 8 4.5C8 4.77614 8.22386 5 8.5 5C8.77614 5 9 4.77614 9 4.5ZM15.5 15C15.2239 15 15 14.7761 15 14.5C15 14.2239 15.2239 14 15.5 14C15.7761 14 16 14.2239 16 14.5C16 14.7761 15.7761 15 15.5 15ZM15.5 15C15.2239 15 15 15.2239 15 15.5C15 15.7761 15.2239 16 15.5 16C15.7761 16 16 15.7761 16 15.5C16 15.2239 15.7761 15 15.5 15ZM14.5 17C14.2239 17 14 16.7761 14 16.5C14 16.2239 14.2239 16 14.5 16C14.7761 16 15 16.2239 15 16.5C15 16.7761 14.7761 17 14.5 17ZM14.5 18C14.2239 18 14 18.2239 14 18.5C14 18.7761 14.2239 19 14.5 19C14.7761 19 15 18.7761 15 18.5C15 18.2239 14.7761 18 14.5 18ZM14.5 18C14.2239 18 14 17.7761 14 17.5C14 17.2239 14.2239 17 14.5 17C14.7761 17 15 17.2239 15 17.5C15 17.7761 14.7761 18 14.5 18ZM13 19.5C13 19.2239 12.7761 19 12.5 19C12.2239 19 12 19.2239 12 19.5C12 19.7761 12.2239 20 12.5 20C12.7761 20 13 19.7761 13 19.5ZM13 19.5C13 19.2239 13.2239 19 13.5 19C13.7761 19 14 19.2239 14 19.5C14 19.7761 13.7761 20 13.5 20C13.2239 20 13 19.7761 13 19.5ZM11 18.5C11 18.7761 10.7761 19 10.5 19C10.2239 19 10 18.7761 10 18.5C10 18.2239 10.2239 18 10.5 18C10.7761 18 11 18.2239 11 18.5ZM10.5 17C10.2239 17 10 16.7761 10 16.5C10 16.2239 10.2239 16 10.5 16C10.7761 16 11 16.2239 11 16.5C11 16.7761 10.7761 17 10.5 17ZM10.5 15C10.7761 15 11 15.2239 11 15.5C11 15.7761 10.7761 16 10.5 16C10.2239 16 10 15.7761 10 15.5C10 15.2239 10.2239 15 10.5 15ZM10.5 14C10.2239 14 10 14.2239 10 14.5C10 14.7761 10.2239 15 10.5 15C10.7761 15 11 14.7761 11 14.5C11 14.2239 10.7761 14 10.5 14ZM10 13.5C10 13.7761 9.77614 14 9.5 14C9.22386 14 9 13.7761 9 13.5C9 13.2239 9.22386 13 9.5 13C9.77614 13 10 13.2239 10 13.5ZM8 13.5C8 13.7761 8.22386 14 8.5 14C8.77614 14 9 13.7761 9 13.5C9 13.2239 8.77614 13 8.5 13C8.22386 13 8 13.2239 8 13.5ZM7 13.5C7 13.2239 6.77614 13 6.5 13C6.22386 13 6 13.2239 6 13.5C6 13.7761 6.22386 14 6.5 14C6.77614 14 7 13.7761 7 13.5ZM7 13.5C7 13.2239 7.22386 13 7.5 13C7.77614 13 8 13.2239 8 13.5C8 13.7761 7.77614 14 7.5 14C7.22386 14 7 13.7761 7 13.5ZM10 13.5C10 13.2239 10.2239 13 10.5 13C10.7761 13 11 13.2239 11 13.5C11 13.7761 10.7761 14 10.5 14C10.2239 14 10 13.7761 10 13.5ZM10.5 17C10.2239 17 10 17.2239 10 17.5C10 17.7761 10.2239 18 10.5 18C10.7761 18 11 17.7761 11 17.5C11 17.2239 10.7761 17 10.5 17ZM11 18.5C11 18.2239 11.2239 18 11.5 18C11.7761 18 12 18.2239 12 18.5C12 18.7761 11.7761 19 11.5 19C11.2239 19 11 18.7761 11 18.5ZM5.5 13C5.77614 13 6 12.7761 6 12.5C6 12.2239 5.77614 12 5.5 12C5.22386 12 5 12.2239 5 12.5C5 12.7761 5.22386 13 5.5 13ZM4.5 11C4.22386 11 4 10.7761 4 10.5C4 10.2239 4.22386 10 4.5 10C4.77614 10 5 10.2239 5 10.5C5 10.7761 4.77614 11 4.5 11ZM4.5 9C4.22386 9 4 8.77614 4 8.5C4 8.22386 4.22386 8 4.5 8C4.77614 8 5 8.22386 5 8.5C5 8.77614 4.77614 9 4.5 9ZM4.5 7C4.77614 7 5 6.77614 5 6.5C5 6.22386 4.77614 6 4.5 6C4.22386 6 4 6.22386 4 6.5C4 6.77614 4.22386 7 4.5 7ZM4.5 7C4.77614 7 5 7.22386 5 7.5C5 7.77614 4.77614 8 4.5 8C4.22386 8 4 7.77614 4 7.5C4 7.22386 4.22386 7 4.5 7ZM4.5 9C4.22386 9 4 9.22386 4 9.5C4 9.77614 4.22386 10 4.5 10C4.77614 10 5 9.77614 5 9.5C5 9.22386 4.77614 9 4.5 9ZM4.5 11C4.22386 11 4 11.2239 4 11.5C4 11.7761 4.22386 12 4.5 12C4.77614 12 5 11.7761 5 11.5C5 11.2239 4.77614 11 4.5 11ZM5 5.5C5 5.77614 5.22386 6 5.5 6C5.77614 6 6 5.77614 6 5.5C6 5.22386 5.77614 5 5.5 5C5.22386 5 5 5.22386 5 5.5Z" fill="black"/>
</svg>
