<svg width="24" height="24" viewBox="0 0 24 24" fill="none" xmlns="http://www.w3.org/2000/svg">
<path fill-rule="evenodd" clip-rule="evenodd" d="M12 3.5C12 3.77614 12.2239 4 12.5 4C12.2239 4 12 4.22386 12 4.5C12 4.22386 11.7761 4 11.5 4C11.7761 4 12 3.77614 12 3.5ZM11 3.5C11 3.22386 11.2239 3 11.5 3C11.7761 3 12 3.22386 12 3.5C12 3.22386 12.2239 3 12.5 3C12.7761 3 13 3.22386 13 3.5C13 3.77614 12.7761 4 12.5 4C12.7761 4 13 4.22386 13 4.5C13 4.77614 12.7761 5 12.5 5C12.2239 5 12 4.77614 12 4.5C12 4.77614 11.7761 5 11.5 5C11.2239 5 11 4.77614 11 4.5C11 4.22386 11.2239 4 11.5 4C11.2239 4 11 3.77614 11 3.5ZM10.5 4C10.7761 4 11 3.77614 11 3.5C11 3.22386 10.7761 3 10.5 3C10.2239 3 10 3.22386 10 3.5C10 3.22386 9.77614 3 9.5 3C9.22386 3 9 3.22386 9 3.5C9 3.77614 9.22386 4 9.5 4C9.22386 4 9 4.22386 9 4.5C9 4.22386 8.77614 4 8.5 4C8.22386 4 8 4.22386 8 4.5C8 4.77614 8.22386 5 8.5 5C8.22386 5 8 5.22386 8 5.5C8 5.22386 7.77614 5 7.5 5C7.22386 5 7 5.22386 7 5.5C7 5.77614 7.22386 6 7.5 6C7.22386 6 7 6.22386 7 6.5C7 6.77614 7.22386 7 7.5 7C7.22386 7 7 7.22386 7 7.5C7 7.77614 7.22386 8 7.5 8C7.22386 8 7 8.22386 7 8.5C7 8.77614 7.22386 9 7.5 9C7.22386 9 7 9.22386 7 9.5C7 9.77614 7.22386 10 7.5 10C7.22386 10 7 10.2239 7 10.5C7 10.7761 7.22386 11 7.5 11C7.77614 11 8 10.7761 8 10.5C8 10.7761 8.22386 11 8.5 11C8.22386 11 8 11.2239 8 11.5C8 11.7761 8.22386 12 8.5 12C8.77614 12 9 11.7761 9 11.5C9 11.7761 9.22386 12 9.5 12C9.22386 12 9 12.2239 9 12.5C9 12.7761 9.22386 13 9.5 13C9.77614 13 10 12.7761 10 12.5C10 12.7761 10.2239 13 10.5 13C10.7761 13 11 12.7761 11 12.5C11 12.7761 11.2239 13 11.5 13C11.7761 13 12 12.7761 12 12.5C12 12.7761 12.2239 13 12.5 13C12.7761 13 13 12.7761 13 12.5C13 12.7761 13.2239 13 13.5 13C13.7761 13 14 12.7761 14 12.5C14 12.7761 14.2239 13 14.5 13C14.7761 13 15 12.7761 15 12.5C15 12.2239 14.7761 12 14.5 12C14.7761 12 15 11.7761 15 11.5C15 11.7761 15.2239 12 15.5 12C15.7761 12 16 11.7761 16 11.5C16 11.2239 15.7761 11 15.5 11C15.7761 11 16 10.7761 16 10.5C16 10.7761 16.2239 11 16.5 11C16.7761 11 17 10.7761 17 10.5C17 10.2239 16.7761 10 16.5 10C16.7761 10 17 9.77614 17 9.5C17 9.22386 16.7761 9 16.5 9C16.7761 9 17 8.77614 17 8.5C17 8.22386 16.7761 8 16.5 8C16.7761 8 17 7.77614 17 7.5C17 7.22386 16.7761 7 16.5 7C16.7761 7 17 6.77614 17 6.5C17 6.22386 16.7761 6 16.5 6C16.7761 6 17 5.77614 17 5.5C17 5.22386 16.7761 5 16.5 5C16.2239 5 16 5.22386 16 5.5C16 5.22386 15.7761 5 15.5 5C15.7761 5 16 4.77614 16 4.5C16 4.22386 15.7761 4 15.5 4C15.2239 4 15 4.22386 15 4.5C15 4.22386 14.7761 4 14.5 4C14.7761 4 15 3.77614 15 3.5C15 3.22386 14.7761 3 14.5 3C14.2239 3 14 3.22386 14 3.5C14 3.22386 13.7761 3 13.5 3C13.2239 3 13 3.22386 13 3.5C13 3.77614 13.2239 4 13.5 4C13.2239 4 13 4.22386 13 4.5C13 4.77614 13.2239 5 13.5 5C13.7761 5 14 4.77614 14 4.5C14 4.77614 14.2239 5 14.5 5C14.2239 5 14 5.22386 14 5.5C14 5.77614 14.2239 6 14.5 6C14.7761 6 15 5.77614 15 5.5C15 5.77614 15.2239 6 15.5 6C15.2239 6 15 6.22386 15 6.5C15 6.77614 15.2239 7 15.5 7C15.2239 7 15 7.22386 15 7.5C15 7.77614 15.2239 8 15.5 8C15.2239 8 15 8.22386 15 8.5C15 8.77614 15.2239 9 15.5 9C15.2239 9 15 9.22386 15 9.5C15 9.77614 15.2239 10 15.5 10C15.2239 10 15 10.2239 15 10.5C15 10.2239 14.7761 10 14.5 10C14.2239 10 14 10.2239 14 10.5C14 10.7761 14.2239 11 14.5 11C14.2239 11 14 11.2239 14 11.5C14 11.2239 13.7761 11 13.5 11C13.2239 11 13 11.2239 13 11.5C13 11.2239 12.7761 11 12.5 11C12.2239 11 12 11.2239 12 11.5C12 11.2239 11.7761 11 11.5 11C11.2239 11 11 11.2239 11 11.5C11 11.2239 10.7761 11 10.5 11C10.2239 11 10 11.2239 10 11.5C10 11.2239 9.77614 11 9.5 11C9.77614 11 10 10.7761 10 10.5C10 10.2239 9.77614 10 9.5 10C9.22386 10 9 10.2239 9 10.5C9 10.2239 8.77614 10 8.5 10C8.77614 10 9 9.77614 9 9.5C9 9.22386 8.77614 9 8.5 9C8.77614 9 9 8.77614 9 8.5C9 8.22386 8.77614 8 8.5 8C8.77614 8 9 7.77614 9 7.5C9 7.22386 8.77614 7 8.5 7C8.77614 7 9 6.77614 9 6.5C9 6.22386 8.77614 6 8.5 6C8.77614 6 9 5.77614 9 5.5C9 5.77614 9.22386 6 9.5 6C9.77614 6 10 5.77614 10 5.5C10 5.22386 9.77614 5 9.5 5C9.77614 5 10 4.77614 10 4.5C10 4.77614 10.2239 5 10.5 5C10.7761 5 11 4.77614 11 4.5C11 4.22386 10.7761 4 10.5 4ZM10.5 4C10.2239 4 10 4.22386 10 4.5C10 4.22386 9.77614 4 9.5 4C9.77614 4 10 3.77614 10 3.5C10 3.77614 10.2239 4 10.5 4ZM9.5 5C9.22386 5 9 5.22386 9 5.5C9 5.22386 8.77614 5 8.5 5C8.77614 5 9 4.77614 9 4.5C9 4.77614 9.22386 5 9.5 5ZM8 6.5C8 6.77614 8.22386 7 8.5 7C8.22386 7 8 7.22386 8 7.5C8 7.22386 7.77614 7 7.5 7C7.77614 7 8 6.77614 8 6.5ZM8 6.5C8 6.22386 8.22386 6 8.5 6C8.22386 6 8 5.77614 8 5.5C8 5.77614 7.77614 6 7.5 6C7.77614 6 8 6.22386 8 6.5ZM8 8.5C8 8.22386 7.77614 8 7.5 8C7.77614 8 8 7.77614 8 7.5C8 7.77614 8.22386 8 8.5 8C8.22386 8 8 8.22386 8 8.5ZM8 9.5C8 9.22386 7.77614 9 7.5 9C7.77614 9 8 8.77614 8 8.5C8 8.77614 8.22386 9 8.5 9C8.22386 9 8 9.22386 8 9.5ZM8 9.5C8 9.77614 8.22386 10 8.5 10C8.22386 10 8 10.2239 8 10.5C8 10.2239 7.77614 10 7.5 10C7.77614 10 8 9.77614 8 9.5ZM9 10.5C9 10.7761 9.22386 11 9.5 11C9.22386 11 9 11.2239 9 11.5C9 11.2239 8.77614 11 8.5 11C8.77614 11 9 10.7761 9 10.5ZM10.5 12C10.7761 12 11 11.7761 11 11.5C11 11.7761 11.2239 12 11.5 12C11.2239 12 11 12.2239 11 12.5C11 12.2239 10.7761 12 10.5 12ZM10.5 12C10.2239 12 10 11.7761 10 11.5C10 11.7761 9.77614 12 9.5 12C9.77614 12 10 12.2239 10 12.5C10 12.2239 10.2239 12 10.5 12ZM12.5 12C12.2239 12 12 12.2239 12 12.5C12 12.2239 11.7761 12 11.5 12C11.7761 12 12 11.7761 12 11.5C12 11.7761 12.2239 12 12.5 12ZM13.5 12C13.2239 12 13 12.2239 13 12.5C13 12.2239 12.7761 12 12.5 12C12.7761 12 13 11.7761 13 11.5C13 11.7761 13.2239 12 13.5 12ZM13.5 12C13.7761 12 14 11.7761 14 11.5C14 11.7761 14.2239 12 14.5 12C14.2239 12 14 12.2239 14 12.5C14 12.2239 13.7761 12 13.5 12ZM14.5 11C14.7761 11 15 10.7761 15 10.5C15 10.7761 15.2239 11 15.5 11C15.2239 11 15 11.2239 15 11.5C15 11.2239 14.7761 11 14.5 11ZM16 9.5C16 9.22386 15.7761 9 15.5 9C15.7761 9 16 8.77614 16 8.5C16 8.77614 16.2239 9 16.5 9C16.2239 9 16 9.22386 16 9.5ZM16 9.5C16 9.77614 15.7761 10 15.5 10C15.7761 10 16 10.2239 16 10.5C16 10.2239 16.2239 10 16.5 10C16.2239 10 16 9.77614 16 9.5ZM16 7.5C16 7.77614 16.2239 8 16.5 8C16.2239 8 16 8.22386 16 8.5C16 8.22386 15.7761 8 15.5 8C15.7761 8 16 7.77614 16 7.5ZM16 6.5C16 6.77614 16.2239 7 16.5 7C16.2239 7 16 7.22386 16 7.5C16 7.22386 15.7761 7 15.5 7C15.7761 7 16 6.77614 16 6.5ZM16 6.5C16 6.22386 15.7761 6 15.5 6C15.7761 6 16 5.77614 16 5.5C16 5.77614 16.2239 6 16.5 6C16.2239 6 16 6.22386 16 6.5ZM15 5.5C15 5.22386 14.7761 5 14.5 5C14.7761 5 15 4.77614 15 4.5C15 4.77614 15.2239 5 15.5 5C15.2239 5 15 5.22386 15 5.5ZM14 4.5C14 4.22386 13.7761 4 13.5 4C13.7761 4 14 3.77614 14 3.5C14 3.77614 14.2239 4 14.5 4C14.2239 4 14 4.22386 14 4.5ZM5.5 21C5.22386 21 5 20.7761 5 20.5C5 20.2239 5.22386 20 5.5 20C5.77614 20 6 20.2239 6 20.5C6 20.7761 5.77614 21 5.5 21ZM6.5 20C6.22386 20 6 20.2239 6 20.5C6 20.7761 6.22386 21 6.5 21C6.77614 21 7 20.7761 7 20.5C7 20.2239 6.77614 20 6.5 20ZM6 19.5C6 19.7761 6.22386 20 6.5 20C6.77614 20 7 19.7761 7 19.5C7 19.2239 6.77614 19 6.5 19C6.77614 19 7 18.7761 7 18.5C7 18.2239 6.77614 18 6.5 18C6.77614 18 7 17.7761 7 17.5C7 17.2239 6.77614 17 6.5 17C6.77614 17 7 16.7761 7 16.5C7 16.2239 6.77614 16 6.5 16C6.77614 16 7 15.7761 7 15.5C7 15.7761 7.22386 16 7.5 16C7.77614 16 8 15.7761 8 15.5C8 15.7761 8.22386 16 8.5 16C8.77614 16 9 15.7761 9 15.5C9 15.7761 9.22386 16 9.5 16C9.77614 16 10 15.7761 10 15.5C10 15.7761 10.2239 16 10.5 16C10.7761 16 11 15.7761 11 15.5C11 15.7761 11.2239 16 11.5 16C11.7761 16 12 15.7761 12 15.5C12 15.7761 12.2239 16 12.5 16C12.7761 16 13 15.7761 13 15.5C13 15.7761 13.2239 16 13.5 16C13.7761 16 14 15.7761 14 15.5C14 15.7761 14.2239 16 14.5 16C14.7761 16 15 15.7761 15 15.5C15 15.7761 15.2239 16 15.5 16C15.7761 16 16 15.7761 16 15.5C16 15.7761 16.2239 16 16.5 16C16.7761 16 17 15.7761 17 15.5C17 15.7761 17.2239 16 17.5 16C17.2239 16 17 16.2239 17 16.5C17 16.7761 17.2239 17 17.5 17C17.2239 17 17 17.2239 17 17.5C17 17.7761 17.2239 18 17.5 18C17.2239 18 17 18.2239 17 18.5C17 18.7761 17.2239 19 17.5 19C17.2239 19 17 19.2239 17 19.5C17 19.7761 17.2239 20 17.5 20C17.2239 20 17 20.2239 17 20.5C17 20.7761 17.2239 21 17.5 21C17.7761 21 18 20.7761 18 20.5C18 20.7761 18.2239 21 18.5 21C18.7761 21 19 20.7761 19 20.5C19 20.2239 18.7761 20 18.5 20C18.7761 20 19 19.7761 19 19.5C19 19.2239 18.7761 19 18.5 19C18.7761 19 19 18.7761 19 18.5C19 18.2239 18.7761 18 18.5 18C18.7761 18 19 17.7761 19 17.5C19 17.2239 18.7761 17 18.5 17C18.7761 17 19 16.7761 19 16.5C19 16.2239 18.7761 16 18.5 16C18.7761 16 19 15.7761 19 15.5C19 15.2239 18.7761 15 18.5 15C18.7761 15 19 14.7761 19 14.5C19 14.2239 18.7761 14 18.5 14C18.2239 14 18 14.2239 18 14.5C18 14.2239 17.7761 14 17.5 14C17.2239 14 17 14.2239 17 14.5C17 14.2239 16.7761 14 16.5 14C16.2239 14 16 14.2239 16 14.5C16 14.2239 15.7761 14 15.5 14C15.2239 14 15 14.2239 15 14.5C15 14.2239 14.7761 14 14.5 14C14.2239 14 14 14.2239 14 14.5C14 14.2239 13.7761 14 13.5 14C13.2239 14 13 14.2239 13 14.5C13 14.2239 12.7761 14 12.5 14C12.2239 14 12 14.2239 12 14.5C12 14.2239 11.7761 14 11.5 14C11.2239 14 11 14.2239 11 14.5C11 14.2239 10.7761 14 10.5 14C10.2239 14 10 14.2239 10 14.5C10 14.2239 9.77614 14 9.5 14C9.22386 14 9 14.2239 9 14.5C9 14.2239 8.77614 14 8.5 14C8.22386 14 8 14.2239 8 14.5C8 14.2239 7.77614 14 7.5 14C7.22386 14 7 14.2239 7 14.5C7 14.2239 6.77614 14 6.5 14C6.22386 14 6 14.2239 6 14.5C6 14.2239 5.77614 14 5.5 14C5.22386 14 5 14.2239 5 14.5C5 14.7761 5.22386 15 5.5 15C5.22386 15 5 15.2239 5 15.5C5 15.7761 5.22386 16 5.5 16C5.22386 16 5 16.2239 5 16.5C5 16.7761 5.22386 17 5.5 17C5.22386 17 5 17.2239 5 17.5C5 17.7761 5.22386 18 5.5 18C5.22386 18 5 18.2239 5 18.5C5 18.7761 5.22386 19 5.5 19C5.22386 19 5 19.2239 5 19.5C5 19.7761 5.22386 20 5.5 20C5.77614 20 6 19.7761 6 19.5ZM6 18.5C6 18.7761 6.22386 19 6.5 19C6.22386 19 6 19.2239 6 19.5C6 19.2239 5.77614 19 5.5 19C5.77614 19 6 18.7761 6 18.5ZM6 17.5C6 17.7761 6.22386 18 6.5 18C6.22386 18 6 18.2239 6 18.5C6 18.2239 5.77614 18 5.5 18C5.77614 18 6 17.7761 6 17.5ZM6 16.5C6 16.7761 6.22386 17 6.5 17C6.22386 17 6 17.2239 6 17.5C6 17.2239 5.77614 17 5.5 17C5.77614 17 6 16.7761 6 16.5ZM6 15.5C6 15.7761 6.22386 16 6.5 16C6.22386 16 6 16.2239 6 16.5C6 16.2239 5.77614 16 5.5 16C5.77614 16 6 15.7761 6 15.5ZM6.5 15C6.77614 15 7 15.2239 7 15.5C7 15.2239 7.22386 15 7.5 15C7.77614 15 8 15.2239 8 15.5C8 15.2239 8.22386 15 8.5 15C8.77614 15 9 15.2239 9 15.5C9 15.2239 9.22386 15 9.5 15C9.77614 15 10 15.2239 10 15.5C10 15.2239 10.2239 15 10.5 15C10.7761 15 11 15.2239 11 15.5C11 15.2239 11.2239 15 11.5 15C11.7761 15 12 15.2239 12 15.5C12 15.2239 12.2239 15 12.5 15C12.7761 15 13 15.2239 13 15.5C13 15.2239 13.2239 15 13.5 15C13.7761 15 14 15.2239 14 15.5C14 15.2239 14.2239 15 14.5 15C14.7761 15 15 15.2239 15 15.5C15 15.2239 15.2239 15 15.5 15C15.7761 15 16 15.2239 16 15.5C16 15.2239 16.2239 15 16.5 15C16.7761 15 17 15.2239 17 15.5C17 15.2239 17.2239 15 17.5 15C17.7761 15 18 15.2239 18 15.5C18 15.7761 17.7761 16 17.5 16C17.7761 16 18 16.2239 18 16.5C18 16.7761 17.7761 17 17.5 17C17.7761 17 18 17.2239 18 17.5C18 17.7761 17.7761 18 17.5 18C17.7761 18 18 18.2239 18 18.5C18 18.7761 17.7761 19 17.5 19C17.7761 19 18 19.2239 18 19.5C18 19.7761 17.7761 20 17.5 20C17.7761 20 18 20.2239 18 20.5C18 20.2239 18.2239 20 18.5 20C18.2239 20 18 19.7761 18 19.5C18 19.2239 18.2239 19 18.5 19C18.2239 19 18 18.7761 18 18.5C18 18.2239 18.2239 18 18.5 18C18.2239 18 18 17.7761 18 17.5C18 17.2239 18.2239 17 18.5 17C18.2239 17 18 16.7761 18 16.5C18 16.2239 18.2239 16 18.5 16C18.2239 16 18 15.7761 18 15.5C18 15.2239 18.2239 15 18.5 15C18.2239 15 18 14.7761 18 14.5C18 14.7761 17.7761 15 17.5 15C17.2239 15 17 14.7761 17 14.5C17 14.7761 16.7761 15 16.5 15C16.2239 15 16 14.7761 16 14.5C16 14.7761 15.7761 15 15.5 15C15.2239 15 15 14.7761 15 14.5C15 14.7761 14.7761 15 14.5 15C14.2239 15 14 14.7761 14 14.5C14 14.7761 13.7761 15 13.5 15C13.2239 15 13 14.7761 13 14.5C13 14.7761 12.7761 15 12.5 15C12.2239 15 12 14.7761 12 14.5C12 14.7761 11.7761 15 11.5 15C11.2239 15 11 14.7761 11 14.5C11 14.7761 10.7761 15 10.5 15C10.2239 15 10 14.7761 10 14.5C10 14.7761 9.77614 15 9.5 15C9.22386 15 9 14.7761 9 14.5C9 14.7761 8.77614 15 8.5 15C8.22386 15 8 14.7761 8 14.5C8 14.7761 7.77614 15 7.5 15C7.22386 15 7 14.7761 7 14.5C7 14.7761 6.77614 15 6.5 15ZM6.5 15C6.22386 15 6 15.2239 6 15.5C6 15.2239 5.77614 15 5.5 15C5.77614 15 6 14.7761 6 14.5C6 14.7761 6.22386 15 6.5 15Z" fill="black"/>
</svg>
