<svg width="24" height="24" viewBox="0 0 24 24" fill="none" xmlns="http://www.w3.org/2000/svg">
<path fill-rule="evenodd" clip-rule="evenodd" d="M16.5 5C16.2239 5 16 5.22386 16 5.5C16 5.22386 15.7761 5 15.5 5C15.2239 5 15 5.22386 15 5.5C15 5.22386 14.7761 5 14.5 5C14.2239 5 14 5.22386 14 5.5C14 5.22386 13.7761 5 13.5 5C13.2239 5 13 5.22386 13 5.5C13 5.22386 12.7761 5 12.5 5C12.2239 5 12 5.22386 12 5.5C12 5.22386 11.7761 5 11.5 5C11.2239 5 11 5.22386 11 5.5C11 5.22386 10.7761 5 10.5 5C10.2239 5 10 5.22386 10 5.5C10 5.22386 9.77614 5 9.5 5C9.22386 5 9 5.22386 9 5.5C9 5.22386 8.77614 5 8.5 5C8.22386 5 8 5.22386 8 5.5C8 5.22386 7.77614 5 7.5 5C7.22386 5 7 5.22386 7 5.5C7 5.22386 6.77614 5 6.5 5C6.22386 5 6 5.22386 6 5.5C6 5.22386 5.77614 5 5.5 5C5.22386 5 5 5.22386 5 5.5C5 5.22386 4.77614 5 4.5 5C4.22386 5 4 5.22386 4 5.5C4 5.22386 3.77614 5 3.5 5C3.22386 5 3 5.22386 3 5.5C3 5.22386 2.77614 5 2.5 5C2.22386 5 2 5.22386 2 5.5C2 5.77614 2.22386 6 2.5 6C2.22386 6 2 6.22386 2 6.5C2 6.77614 2.22386 7 2.5 7C2.22386 7 2 7.22386 2 7.5C2 7.77614 2.22386 8 2.5 8C2.22386 8 2 8.22386 2 8.5C2 8.77614 2.22386 9 2.5 9C2.22386 9 2 9.22386 2 9.5C2 9.77614 2.22386 10 2.5 10C2.22386 10 2 10.2239 2 10.5C2 10.7761 2.22386 11 2.5 11C2.22386 11 2 11.2239 2 11.5C2 11.7761 2.22386 12 2.5 12C2.22386 12 2 12.2239 2 12.5C2 12.7761 2.22386 13 2.5 13C2.22386 13 2 13.2239 2 13.5C2 13.7761 2.22386 14 2.5 14C2.22386 14 2 14.2239 2 14.5C2 14.7761 2.22386 15 2.5 15C2.22386 15 2 15.2239 2 15.5C2 15.7761 2.22386 16 2.5 16C2.22386 16 2 16.2239 2 16.5C2 16.7761 2.22386 17 2.5 17C2.22386 17 2 17.2239 2 17.5C2 17.7761 2.22386 18 2.5 18C2.22386 18 2 18.2239 2 18.5C2 18.7761 2.22386 19 2.5 19C2.77614 19 3 18.7761 3 18.5C3 18.7761 3.22386 19 3.5 19C3.77614 19 4 18.7761 4 18.5C4 18.7761 4.22386 19 4.5 19C4.77614 19 5 18.7761 5 18.5C5 18.7761 5.22386 19 5.5 19C5.77614 19 6 18.7761 6 18.5C6 18.7761 6.22386 19 6.5 19C6.77614 19 7 18.7761 7 18.5C7 18.7761 7.22386 19 7.5 19C7.77614 19 8 18.7761 8 18.5C8 18.7761 8.22386 19 8.5 19C8.77614 19 9 18.7761 9 18.5C9 18.7761 9.22386 19 9.5 19C9.77614 19 10 18.7761 10 18.5C10 18.7761 10.2239 19 10.5 19C10.7761 19 11 18.7761 11 18.5C11 18.7761 11.2239 19 11.5 19C11.7761 19 12 18.7761 12 18.5C12 18.7761 12.2239 19 12.5 19C12.7761 19 13 18.7761 13 18.5C13 18.7761 13.2239 19 13.5 19C13.7761 19 14 18.7761 14 18.5C14 18.7761 14.2239 19 14.5 19C14.7761 19 15 18.7761 15 18.5C15 18.7761 15.2239 19 15.5 19C15.7761 19 16 18.7761 16 18.5C16 18.7761 16.2239 19 16.5 19C16.7761 19 17 18.7761 17 18.5C17 18.2239 16.7761 18 16.5 18C16.7761 18 17 17.7761 17 17.5C17 17.2239 16.7761 17 16.5 17C16.7761 17 17 16.7761 17 16.5C17 16.2239 16.7761 16 16.5 16C16.7761 16 17 15.7761 17 15.5C17 15.7761 17.2239 16 17.5 16C17.7761 16 18 15.7761 18 15.5C18 15.7761 18.2239 16 18.5 16C18.2239 16 18 16.2239 18 16.5C18 16.7761 18.2239 17 18.5 17C18.7761 17 19 16.7761 19 16.5C19 16.7761 19.2239 17 19.5 17C19.2239 17 19 17.2239 19 17.5C19 17.7761 19.2239 18 19.5 18C19.7761 18 20 17.7761 20 17.5C20 17.7761 20.2239 18 20.5 18C20.7761 18 21 17.7761 21 17.5C21 17.7761 21.2239 18 21.5 18C21.7761 18 22 17.7761 22 17.5C22 17.2239 21.7761 17 21.5 17C21.7761 17 22 16.7761 22 16.5C22 16.2239 21.7761 16 21.5 16C21.7761 16 22 15.7761 22 15.5C22 15.2239 21.7761 15 21.5 15C21.7761 15 22 14.7761 22 14.5C22 14.2239 21.7761 14 21.5 14C21.7761 14 22 13.7761 22 13.5C22 13.2239 21.7761 13 21.5 13C21.7761 13 22 12.7761 22 12.5C22 12.2239 21.7761 12 21.5 12C21.7761 12 22 11.7761 22 11.5C22 11.2239 21.7761 11 21.5 11C21.7761 11 22 10.7761 22 10.5C22 10.2239 21.7761 10 21.5 10C21.7761 10 22 9.77614 22 9.5C22 9.22386 21.7761 9 21.5 9C21.7761 9 22 8.77614 22 8.5C22 8.22386 21.7761 8 21.5 8C21.7761 8 22 7.77614 22 7.5C22 7.22386 21.7761 7 21.5 7C21.7761 7 22 6.77614 22 6.5C22 6.22386 21.7761 6 21.5 6C21.2239 6 21 6.22386 21 6.5C21 6.22386 20.7761 6 20.5 6C20.2239 6 20 6.22386 20 6.5C20 6.22386 19.7761 6 19.5 6C19.2239 6 19 6.22386 19 6.5C19 6.77614 19.2239 7 19.5 7C19.2239 7 19 7.22386 19 7.5C19 7.22386 18.7761 7 18.5 7C18.2239 7 18 7.22386 18 7.5C18 7.77614 18.2239 8 18.5 8C18.2239 8 18 8.22386 18 8.5C18 8.22386 17.7761 8 17.5 8C17.2239 8 17 8.22386 17 8.5C17 8.22386 16.7761 8 16.5 8C16.7761 8 17 7.77614 17 7.5C17 7.22386 16.7761 7 16.5 7C16.7761 7 17 6.77614 17 6.5C17 6.22386 16.7761 6 16.5 6C16.7761 6 17 5.77614 17 5.5C17 5.22386 16.7761 5 16.5 5ZM16 6.5C16 6.22386 16.2239 6 16.5 6C16.2239 6 16 5.77614 16 5.5C16 5.77614 15.7761 6 15.5 6C15.2239 6 15 5.77614 15 5.5C15 5.77614 14.7761 6 14.5 6C14.2239 6 14 5.77614 14 5.5C14 5.77614 13.7761 6 13.5 6C13.2239 6 13 5.77614 13 5.5C13 5.77614 12.7761 6 12.5 6C12.2239 6 12 5.77614 12 5.5C12 5.77614 11.7761 6 11.5 6C11.2239 6 11 5.77614 11 5.5C11 5.77614 10.7761 6 10.5 6C10.2239 6 10 5.77614 10 5.5C10 5.77614 9.77614 6 9.5 6C9.22386 6 9 5.77614 9 5.5C9 5.77614 8.77614 6 8.5 6C8.22386 6 8 5.77614 8 5.5C8 5.77614 7.77614 6 7.5 6C7.22386 6 7 5.77614 7 5.5C7 5.77614 6.77614 6 6.5 6C6.22386 6 6 5.77614 6 5.5C6 5.77614 5.77614 6 5.5 6C5.22386 6 5 5.77614 5 5.5C5 5.77614 4.77614 6 4.5 6C4.22386 6 4 5.77614 4 5.5C4 5.77614 3.77614 6 3.5 6C3.22386 6 3 5.77614 3 5.5C3 5.77614 2.77614 6 2.5 6C2.77614 6 3 6.22386 3 6.5C3 6.77614 2.77614 7 2.5 7C2.77614 7 3 7.22386 3 7.5C3 7.77614 2.77614 8 2.5 8C2.77614 8 3 8.22386 3 8.5C3 8.77614 2.77614 9 2.5 9C2.77614 9 3 9.22386 3 9.5C3 9.77614 2.77614 10 2.5 10C2.77614 10 3 10.2239 3 10.5C3 10.7761 2.77614 11 2.5 11C2.77614 11 3 11.2239 3 11.5C3 11.7761 2.77614 12 2.5 12C2.77614 12 3 12.2239 3 12.5C3 12.7761 2.77614 13 2.5 13C2.77614 13 3 13.2239 3 13.5C3 13.7761 2.77614 14 2.5 14C2.77614 14 3 14.2239 3 14.5C3 14.7761 2.77614 15 2.5 15C2.77614 15 3 15.2239 3 15.5C3 15.7761 2.77614 16 2.5 16C2.77614 16 3 16.2239 3 16.5C3 16.7761 2.77614 17 2.5 17C2.77614 17 3 17.2239 3 17.5C3 17.7761 2.77614 18 2.5 18C2.77614 18 3 18.2239 3 18.5C3 18.2239 3.22386 18 3.5 18C3.77614 18 4 18.2239 4 18.5C4 18.2239 4.22386 18 4.5 18C4.77614 18 5 18.2239 5 18.5C5 18.2239 5.22386 18 5.5 18C5.77614 18 6 18.2239 6 18.5C6 18.2239 6.22386 18 6.5 18C6.77614 18 7 18.2239 7 18.5C7 18.2239 7.22386 18 7.5 18C7.77614 18 8 18.2239 8 18.5C8 18.2239 8.22386 18 8.5 18C8.77614 18 9 18.2239 9 18.5C9 18.2239 9.22386 18 9.5 18C9.77614 18 10 18.2239 10 18.5C10 18.2239 10.2239 18 10.5 18C10.7761 18 11 18.2239 11 18.5C11 18.2239 11.2239 18 11.5 18C11.7761 18 12 18.2239 12 18.5C12 18.2239 12.2239 18 12.5 18C12.7761 18 13 18.2239 13 18.5C13 18.2239 13.2239 18 13.5 18C13.7761 18 14 18.2239 14 18.5C14 18.2239 14.2239 18 14.5 18C14.7761 18 15 18.2239 15 18.5C15 18.2239 15.2239 18 15.5 18C15.7761 18 16 18.2239 16 18.5C16 18.2239 16.2239 18 16.5 18C16.2239 18 16 17.7761 16 17.5C16 17.2239 16.2239 17 16.5 17C16.2239 17 16 16.7761 16 16.5C16 16.2239 16.2239 16 16.5 16C16.2239 16 16 15.7761 16 15.5C16 15.2239 16.2239 15 16.5 15C16.7761 15 17 15.2239 17 15.5C17 15.2239 17.2239 15 17.5 15C17.7761 15 18 15.2239 18 15.5C18 15.2239 18.2239 15 18.5 15C18.7761 15 19 15.2239 19 15.5C19 15.7761 18.7761 16 18.5 16C18.7761 16 19 16.2239 19 16.5C19 16.2239 19.2239 16 19.5 16C19.7761 16 20 16.2239 20 16.5C20 16.7761 19.7761 17 19.5 17C19.7761 17 20 17.2239 20 17.5C20 17.2239 20.2239 17 20.5 17C20.7761 17 21 17.2239 21 17.5C21 17.2239 21.2239 17 21.5 17C21.2239 17 21 16.7761 21 16.5C21 16.2239 21.2239 16 21.5 16C21.2239 16 21 15.7761 21 15.5C21 15.2239 21.2239 15 21.5 15C21.2239 15 21 14.7761 21 14.5C21 14.2239 21.2239 14 21.5 14C21.2239 14 21 13.7761 21 13.5C21 13.2239 21.2239 13 21.5 13C21.2239 13 21 12.7761 21 12.5C21 12.2239 21.2239 12 21.5 12C21.2239 12 21 11.7761 21 11.5C21 11.2239 21.2239 11 21.5 11C21.2239 11 21 10.7761 21 10.5C21 10.2239 21.2239 10 21.5 10C21.2239 10 21 9.77614 21 9.5C21 9.22386 21.2239 9 21.5 9C21.2239 9 21 8.77614 21 8.5C21 8.22386 21.2239 8 21.5 8C21.2239 8 21 7.77614 21 7.5C21 7.22386 21.2239 7 21.5 7C21.2239 7 21 6.77614 21 6.5C21 6.77614 20.7761 7 20.5 7C20.2239 7 20 6.77614 20 6.5C20 6.77614 19.7761 7 19.5 7C19.7761 7 20 7.22386 20 7.5C20 7.77614 19.7761 8 19.5 8C19.2239 8 19 7.77614 19 7.5C19 7.77614 18.7761 8 18.5 8C18.7761 8 19 8.22386 19 8.5C19 8.77614 18.7761 9 18.5 9C18.2239 9 18 8.77614 18 8.5C18 8.77614 17.7761 9 17.5 9C17.2239 9 17 8.77614 17 8.5C17 8.77614 16.7761 9 16.5 9C16.2239 9 16 8.77614 16 8.5C16 8.22386 16.2239 8 16.5 8C16.2239 8 16 7.77614 16 7.5C16 7.22386 16.2239 7 16.5 7C16.2239 7 16 6.77614 16 6.5ZM15.5 7C15.7761 7 16 6.77614 16 6.5C16 6.22386 15.7761 6 15.5 6C15.2239 6 15 6.22386 15 6.5C15 6.22386 14.7761 6 14.5 6C14.2239 6 14 6.22386 14 6.5C14 6.22386 13.7761 6 13.5 6C13.2239 6 13 6.22386 13 6.5C13 6.22386 12.7761 6 12.5 6C12.2239 6 12 6.22386 12 6.5C12 6.22386 11.7761 6 11.5 6C11.2239 6 11 6.22386 11 6.5C11 6.22386 10.7761 6 10.5 6C10.2239 6 10 6.22386 10 6.5C10 6.22386 9.77614 6 9.5 6C9.22386 6 9 6.22386 9 6.5C9 6.22386 8.77614 6 8.5 6C8.22386 6 8 6.22386 8 6.5C8 6.22386 7.77614 6 7.5 6C7.22386 6 7 6.22386 7 6.5C7 6.22386 6.77614 6 6.5 6C6.22386 6 6 6.22386 6 6.5C6 6.22386 5.77614 6 5.5 6C5.22386 6 5 6.22386 5 6.5C5 6.22386 4.77614 6 4.5 6C4.22386 6 4 6.22386 4 6.5C4 6.22386 3.77614 6 3.5 6C3.22386 6 3 6.22386 3 6.5C3 6.77614 3.22386 7 3.5 7C3.22386 7 3 7.22386 3 7.5C3 7.77614 3.22386 8 3.5 8C3.22386 8 3 8.22386 3 8.5C3 8.77614 3.22386 9 3.5 9C3.22386 9 3 9.22386 3 9.5C3 9.77614 3.22386 10 3.5 10C3.22386 10 3 10.2239 3 10.5C3 10.7761 3.22386 11 3.5 11C3.22386 11 3 11.2239 3 11.5C3 11.7761 3.22386 12 3.5 12C3.22386 12 3 12.2239 3 12.5C3 12.7761 3.22386 13 3.5 13C3.22386 13 3 13.2239 3 13.5C3 13.7761 3.22386 14 3.5 14C3.22386 14 3 14.2239 3 14.5C3 14.7761 3.22386 15 3.5 15C3.22386 15 3 15.2239 3 15.5C3 15.7761 3.22386 16 3.5 16C3.22386 16 3 16.2239 3 16.5C3 16.7761 3.22386 17 3.5 17C3.22386 17 3 17.2239 3 17.5C3 17.7761 3.22386 18 3.5 18C3.77614 18 4 17.7761 4 17.5C4 17.7761 4.22386 18 4.5 18C4.77614 18 5 17.7761 5 17.5C5 17.7761 5.22386 18 5.5 18C5.77614 18 6 17.7761 6 17.5C6 17.7761 6.22386 18 6.5 18C6.77614 18 7 17.7761 7 17.5C7 17.7761 7.22386 18 7.5 18C7.77614 18 8 17.7761 8 17.5C8 17.7761 8.22386 18 8.5 18C8.77614 18 9 17.7761 9 17.5C9 17.7761 9.22386 18 9.5 18C9.77614 18 10 17.7761 10 17.5C10 17.7761 10.2239 18 10.5 18C10.7761 18 11 17.7761 11 17.5C11 17.7761 11.2239 18 11.5 18C11.7761 18 12 17.7761 12 17.5C12 17.7761 12.2239 18 12.5 18C12.7761 18 13 17.7761 13 17.5C13 17.7761 13.2239 18 13.5 18C13.7761 18 14 17.7761 14 17.5C14 17.7761 14.2239 18 14.5 18C14.7761 18 15 17.7761 15 17.5C15 17.7761 15.2239 18 15.5 18C15.7761 18 16 17.7761 16 17.5C16 17.2239 15.7761 17 15.5 17C15.7761 17 16 16.7761 16 16.5C16 16.2239 15.7761 16 15.5 16C15.7761 16 16 15.7761 16 15.5C16 15.2239 15.7761 15 15.5 15C15.7761 15 16 14.7761 16 14.5C16 14.7761 16.2239 15 16.5 15C16.7761 15 17 14.7761 17 14.5C17 14.7761 17.2239 15 17.5 15C17.7761 15 18 14.7761 18 14.5C18 14.7761 18.2239 15 18.5 15C18.7761 15 19 14.7761 19 14.5C19 14.2239 18.7761 14 18.5 14C18.2239 14 18 14.2239 18 14.5C18 14.2239 17.7761 14 17.5 14C17.7761 14 18 13.7761 18 13.5C18 13.2239 17.7761 13 17.5 13C17.2239 13 17 13.2239 17 13.5C17 13.2239 16.7761 13 16.5 13C16.7761 13 17 12.7761 17 12.5C17 12.2239 16.7761 12 16.5 12C16.7761 12 17 11.7761 17 11.5C17 11.2239 16.7761 11 16.5 11C16.7761 11 17 10.7761 17 10.5C17 10.7761 17.2239 11 17.5 11C17.7761 11 18 10.7761 18 10.5C18 10.2239 17.7761 10 17.5 10C17.7761 10 18 9.77614 18 9.5C18 9.77614 18.2239 10 18.5 10C18.7761 10 19 9.77614 19 9.5C19 9.22386 18.7761 9 18.5 9C18.2239 9 18 9.22386 18 9.5C18 9.22386 17.7761 9 17.5 9C17.2239 9 17 9.22386 17 9.5C17 9.22386 16.7761 9 16.5 9C16.2239 9 16 9.22386 16 9.5C16 9.22386 15.7761 9 15.5 9C15.7761 9 16 8.77614 16 8.5C16 8.22386 15.7761 8 15.5 8C15.7761 8 16 7.77614 16 7.5C16 7.22386 15.7761 7 15.5 7ZM15.5 7C15.2239 7 15 7.22386 15 7.5C15 7.77614 15.2239 8 15.5 8C15.2239 8 15 8.22386 15 8.5C15 8.77614 15.2239 9 15.5 9C15.2239 9 15 9.22386 15 9.5C15 9.77614 15.2239 10 15.5 10C15.2239 10 15 10.2239 15 10.5C15 10.7761 15.2239 11 15.5 11C15.2239 11 15 11.2239 15 11.5C15 11.7761 15.2239 12 15.5 12C15.2239 12 15 12.2239 15 12.5C15 12.7761 15.2239 13 15.5 13C15.2239 13 15 13.2239 15 13.5C15 13.7761 15.2239 14 15.5 14C15.2239 14 15 14.2239 15 14.5C15 14.7761 15.2239 15 15.5 15C15.2239 15 15 15.2239 15 15.5C15 15.7761 15.2239 16 15.5 16C15.2239 16 15 16.2239 15 16.5C15 16.7761 15.2239 17 15.5 17C15.2239 17 15 17.2239 15 17.5C15 17.2239 14.7761 17 14.5 17C14.2239 17 14 17.2239 14 17.5C14 17.2239 13.7761 17 13.5 17C13.2239 17 13 17.2239 13 17.5C13 17.2239 12.7761 17 12.5 17C12.2239 17 12 17.2239 12 17.5C12 17.2239 11.7761 17 11.5 17C11.2239 17 11 17.2239 11 17.5C11 17.2239 10.7761 17 10.5 17C10.2239 17 10 17.2239 10 17.5C10 17.2239 9.77614 17 9.5 17C9.22386 17 9 17.2239 9 17.5C9 17.2239 8.77614 17 8.5 17C8.22386 17 8 17.2239 8 17.5C8 17.2239 7.77614 17 7.5 17C7.22386 17 7 17.2239 7 17.5C7 17.2239 6.77614 17 6.5 17C6.22386 17 6 17.2239 6 17.5C6 17.2239 5.77614 17 5.5 17C5.22386 17 5 17.2239 5 17.5C5 17.2239 4.77614 17 4.5 17C4.22386 17 4 17.2239 4 17.5C4 17.2239 3.77614 17 3.5 17C3.77614 17 4 16.7761 4 16.5C4 16.2239 3.77614 16 3.5 16C3.77614 16 4 15.7761 4 15.5C4 15.2239 3.77614 15 3.5 15C3.77614 15 4 14.7761 4 14.5C4 14.2239 3.77614 14 3.5 14C3.77614 14 4 13.7761 4 13.5C4 13.2239 3.77614 13 3.5 13C3.77614 13 4 12.7761 4 12.5C4 12.2239 3.77614 12 3.5 12C3.77614 12 4 11.7761 4 11.5C4 11.2239 3.77614 11 3.5 11C3.77614 11 4 10.7761 4 10.5C4 10.2239 3.77614 10 3.5 10C3.77614 10 4 9.77614 4 9.5C4 9.22386 3.77614 9 3.5 9C3.77614 9 4 8.77614 4 8.5C4 8.22386 3.77614 8 3.5 8C3.77614 8 4 7.77614 4 7.5C4 7.22386 3.77614 7 3.5 7C3.77614 7 4 6.77614 4 6.5C4 6.77614 4.22386 7 4.5 7C4.77614 7 5 6.77614 5 6.5C5 6.77614 5.22386 7 5.5 7C5.77614 7 6 6.77614 6 6.5C6 6.77614 6.22386 7 6.5 7C6.77614 7 7 6.77614 7 6.5C7 6.77614 7.22386 7 7.5 7C7.77614 7 8 6.77614 8 6.5C8 6.77614 8.22386 7 8.5 7C8.77614 7 9 6.77614 9 6.5C9 6.77614 9.22386 7 9.5 7C9.77614 7 10 6.77614 10 6.5C10 6.77614 10.2239 7 10.5 7C10.7761 7 11 6.77614 11 6.5C11 6.77614 11.2239 7 11.5 7C11.7761 7 12 6.77614 12 6.5C12 6.77614 12.2239 7 12.5 7C12.7761 7 13 6.77614 13 6.5C13 6.77614 13.2239 7 13.5 7C13.7761 7 14 6.77614 14 6.5C14 6.77614 14.2239 7 14.5 7C14.7761 7 15 6.77614 15 6.5C15 6.77614 15.2239 7 15.5 7ZM16 13.5C16 13.7761 15.7761 14 15.5 14C15.7761 14 16 14.2239 16 14.5C16 14.2239 16.2239 14 16.5 14C16.7761 14 17 14.2239 17 14.5C17 14.2239 17.2239 14 17.5 14C17.2239 14 17 13.7761 17 13.5C17 13.7761 16.7761 14 16.5 14C16.2239 14 16 13.7761 16 13.5ZM16 13.5C16 13.2239 16.2239 13 16.5 13C16.2239 13 16 12.7761 16 12.5C16 12.2239 16.2239 12 16.5 12C16.2239 12 16 11.7761 16 11.5C16 11.2239 16.2239 11 16.5 11C16.2239 11 16 10.7761 16 10.5C16 10.2239 16.2239 10 16.5 10C16.7761 10 17 10.2239 17 10.5C17 10.2239 17.2239 10 17.5 10C17.2239 10 17 9.77614 17 9.5C17 9.77614 16.7761 10 16.5 10C16.2239 10 16 9.77614 16 9.5C16 9.77614 15.7761 10 15.5 10C15.7761 10 16 10.2239 16 10.5C16 10.7761 15.7761 11 15.5 11C15.7761 11 16 11.2239 16 11.5C16 11.7761 15.7761 12 15.5 12C15.7761 12 16 12.2239 16 12.5C16 12.7761 15.7761 13 15.5 13C15.7761 13 16 13.2239 16 13.5ZM20 8.5C20 8.77614 19.7761 9 19.5 9C19.2239 9 19 8.77614 19 8.5C19 8.22386 19.2239 8 19.5 8C19.7761 8 20 8.22386 20 8.5ZM20.5 8C20.7761 8 21 8.22386 21 8.5C21 8.77614 20.7761 9 20.5 9C20.2239 9 20 8.77614 20 8.5C20 8.22386 20.2239 8 20.5 8ZM20.5 10C20.2239 10 20 9.77614 20 9.5C20 9.22386 20.2239 9 20.5 9C20.7761 9 21 9.22386 21 9.5C21 9.77614 20.7761 10 20.5 10ZM20.5 11C20.2239 11 20 10.7761 20 10.5C20 10.2239 20.2239 10 20.5 10C20.7761 10 21 10.2239 21 10.5C21 10.7761 20.7761 11 20.5 11ZM20.5 12C20.2239 12 20 11.7761 20 11.5C20 11.2239 20.2239 11 20.5 11C20.7761 11 21 11.2239 21 11.5C21 11.7761 20.7761 12 20.5 12ZM20.5 13C20.2239 13 20 12.7761 20 12.5C20 12.2239 20.2239 12 20.5 12C20.7761 12 21 12.2239 21 12.5C21 12.7761 20.7761 13 20.5 13ZM20.5 14C20.2239 14 20 13.7761 20 13.5C20 13.2239 20.2239 13 20.5 13C20.7761 13 21 13.2239 21 13.5C21 13.7761 20.7761 14 20.5 14ZM20.5 15C20.2239 15 20 14.7761 20 14.5C20 14.2239 20.2239 14 20.5 14C20.7761 14 21 14.2239 21 14.5C21 14.7761 20.7761 15 20.5 15ZM20 15.5C20 15.2239 20.2239 15 20.5 15C20.7761 15 21 15.2239 21 15.5C21 15.7761 20.7761 16 20.5 16C20.2239 16 20 15.7761 20 15.5ZM20 15.5C20 15.2239 19.7761 15 19.5 15C19.2239 15 19 15.2239 19 15.5C19 15.7761 19.2239 16 19.5 16C19.7761 16 20 15.7761 20 15.5ZM20.5 8C20.2239 8 20 7.77614 20 7.5C20 7.22386 20.2239 7 20.5 7C20.7761 7 21 7.22386 21 7.5C21 7.77614 20.7761 8 20.5 8ZM20.5 16C20.7761 16 21 16.2239 21 16.5C21 16.7761 20.7761 17 20.5 17C20.2239 17 20 16.7761 20 16.5C20 16.2239 20.2239 16 20.5 16Z" fill="black"/>
</svg>
