<svg width="24" height="24" viewBox="0 0 24 24" fill="none" xmlns="http://www.w3.org/2000/svg">
<path fill-rule="evenodd" clip-rule="evenodd" d="M14 4.5C14 4.22386 14.2239 4 14.5 4C14.7761 4 15 4.22386 15 4.5C15 4.77614 14.7761 5 14.5 5C14.2239 5 14 4.77614 14 4.5ZM13.5 5C13.7761 5 14 4.77614 14 4.5C14 4.22386 13.7761 4 13.5 4C13.2239 4 13 4.22386 13 4.5C13 4.22386 12.7761 4 12.5 4C12.2239 4 12 4.22386 12 4.5C12 4.22386 11.7761 4 11.5 4C11.2239 4 11 4.22386 11 4.5C11 4.77614 11.2239 5 11.5 5C11.2239 5 11 5.22386 11 5.5C11 5.22386 10.7761 5 10.5 5C10.2239 5 10 5.22386 10 5.5C10 5.77614 10.2239 6 10.5 6C10.2239 6 10 6.22386 10 6.5C10 6.22386 9.77614 6 9.5 6C9.22386 6 9 6.22386 9 6.5C9 6.77614 9.22386 7 9.5 7C9.22386 7 9 7.22386 9 7.5C9 7.22386 8.77614 7 8.5 7C8.22386 7 8 7.22386 8 7.5C8 7.77614 8.22386 8 8.5 8C8.22386 8 8 8.22386 8 8.5C8 8.22386 7.77614 8 7.5 8C7.22386 8 7 8.22386 7 8.5C7 8.22386 6.77614 8 6.5 8C6.22386 8 6 8.22386 6 8.5C6 8.22386 5.77614 8 5.5 8C5.22386 8 5 8.22386 5 8.5C5 8.22386 4.77614 8 4.5 8C4.22386 8 4 8.22386 4 8.5C4 8.22386 3.77614 8 3.5 8C3.22386 8 3 8.22386 3 8.5C3 8.77614 3.22386 9 3.5 9C3.22386 9 3 9.22386 3 9.5C3 9.22386 2.77614 9 2.5 9C2.22386 9 2 9.22386 2 9.5C2 9.77614 2.22386 10 2.5 10C2.22386 10 2 10.2239 2 10.5C2 10.7761 2.22386 11 2.5 11C2.22386 11 2 11.2239 2 11.5C2 11.7761 2.22386 12 2.5 12C2.22386 12 2 12.2239 2 12.5C2 12.7761 2.22386 13 2.5 13C2.22386 13 2 13.2239 2 13.5C2 13.7761 2.22386 14 2.5 14C2.22386 14 2 14.2239 2 14.5C2 14.7761 2.22386 15 2.5 15C2.77614 15 3 14.7761 3 14.5C3 14.7761 3.22386 15 3.5 15C3.22386 15 3 15.2239 3 15.5C3 15.7761 3.22386 16 3.5 16C3.77614 16 4 15.7761 4 15.5C4 15.7761 4.22386 16 4.5 16C4.77614 16 5 15.7761 5 15.5C5 15.7761 5.22386 16 5.5 16C5.77614 16 6 15.7761 6 15.5C6 15.7761 6.22386 16 6.5 16C6.77614 16 7 15.7761 7 15.5C7 15.7761 7.22386 16 7.5 16C7.77614 16 8 15.7761 8 15.5C8 15.7761 8.22386 16 8.5 16C8.22386 16 8 16.2239 8 16.5C8 16.7761 8.22386 17 8.5 17C8.77614 17 9 16.7761 9 16.5C9 16.7761 9.22386 17 9.5 17C9.22386 17 9 17.2239 9 17.5C9 17.7761 9.22386 18 9.5 18C9.77614 18 10 17.7761 10 17.5C10 17.7761 10.2239 18 10.5 18C10.2239 18 10 18.2239 10 18.5C10 18.7761 10.2239 19 10.5 19C10.7761 19 11 18.7761 11 18.5C11 18.7761 11.2239 19 11.5 19C11.2239 19 11 19.2239 11 19.5C11 19.7761 11.2239 20 11.5 20C11.7761 20 12 19.7761 12 19.5C12 19.7761 12.2239 20 12.5 20C12.7761 20 13 19.7761 13 19.5C13 19.7761 13.2239 20 13.5 20C13.7761 20 14 19.7761 14 19.5C14 19.7761 14.2239 20 14.5 20C14.7761 20 15 19.7761 15 19.5C15 19.2239 14.7761 19 14.5 19C14.7761 19 15 18.7761 15 18.5C15 18.2239 14.7761 18 14.5 18C14.7761 18 15 17.7761 15 17.5C15 17.2239 14.7761 17 14.5 17C14.7761 17 15 16.7761 15 16.5C15 16.2239 14.7761 16 14.5 16C14.7761 16 15 15.7761 15 15.5C15 15.2239 14.7761 15 14.5 15C14.7761 15 15 14.7761 15 14.5C15 14.2239 14.7761 14 14.5 14C14.7761 14 15 13.7761 15 13.5C15 13.2239 14.7761 13 14.5 13C14.7761 13 15 12.7761 15 12.5C15 12.2239 14.7761 12 14.5 12C14.7761 12 15 11.7761 15 11.5C15 11.2239 14.7761 11 14.5 11C14.7761 11 15 10.7761 15 10.5C15 10.2239 14.7761 10 14.5 10C14.7761 10 15 9.77614 15 9.5C15 9.22386 14.7761 9 14.5 9C14.7761 9 15 8.77614 15 8.5C15 8.22386 14.7761 8 14.5 8C14.7761 8 15 7.77614 15 7.5C15 7.22386 14.7761 7 14.5 7C14.7761 7 15 6.77614 15 6.5C15 6.22386 14.7761 6 14.5 6C14.7761 6 15 5.77614 15 5.5C15 5.22386 14.7761 5 14.5 5C14.2239 5 14 5.22386 14 5.5C14 5.22386 13.7761 5 13.5 5ZM13 5.5C13 5.22386 13.2239 5 13.5 5C13.2239 5 13 4.77614 13 4.5C13 4.77614 12.7761 5 12.5 5C12.2239 5 12 4.77614 12 4.5C12 4.77614 11.7761 5 11.5 5C11.7761 5 12 5.22386 12 5.5C12 5.77614 11.7761 6 11.5 6C11.2239 6 11 5.77614 11 5.5C11 5.77614 10.7761 6 10.5 6C10.7761 6 11 6.22386 11 6.5C11 6.77614 10.7761 7 10.5 7C10.2239 7 10 6.77614 10 6.5C10 6.77614 9.77614 7 9.5 7C9.77614 7 10 7.22386 10 7.5C10 7.77614 9.77614 8 9.5 8C9.22386 8 9 7.77614 9 7.5C9 7.77614 8.77614 8 8.5 8C8.77614 8 9 8.22386 9 8.5C9 8.77614 8.77614 9 8.5 9C8.22386 9 8 8.77614 8 8.5C8 8.77614 7.77614 9 7.5 9C7.22386 9 7 8.77614 7 8.5C7 8.77614 6.77614 9 6.5 9C6.22386 9 6 8.77614 6 8.5C6 8.77614 5.77614 9 5.5 9C5.22386 9 5 8.77614 5 8.5C5 8.77614 4.77614 9 4.5 9C4.22386 9 4 8.77614 4 8.5C4 8.77614 3.77614 9 3.5 9C3.77614 9 4 9.22386 4 9.5C4 9.77614 3.77614 10 3.5 10C3.22386 10 3 9.77614 3 9.5C3 9.77614 2.77614 10 2.5 10C2.77614 10 3 10.2239 3 10.5C3 10.7761 2.77614 11 2.5 11C2.77614 11 3 11.2239 3 11.5C3 11.7761 2.77614 12 2.5 12C2.77614 12 3 12.2239 3 12.5C3 12.7761 2.77614 13 2.5 13C2.77614 13 3 13.2239 3 13.5C3 13.7761 2.77614 14 2.5 14C2.77614 14 3 14.2239 3 14.5C3 14.2239 3.22386 14 3.5 14C3.77614 14 4 14.2239 4 14.5C4 14.7761 3.77614 15 3.5 15C3.77614 15 4 15.2239 4 15.5C4 15.2239 4.22386 15 4.5 15C4.77614 15 5 15.2239 5 15.5C5 15.2239 5.22386 15 5.5 15C5.77614 15 6 15.2239 6 15.5C6 15.2239 6.22386 15 6.5 15C6.77614 15 7 15.2239 7 15.5C7 15.2239 7.22386 15 7.5 15C7.77614 15 8 15.2239 8 15.5C8 15.2239 8.22386 15 8.5 15C8.77614 15 9 15.2239 9 15.5C9 15.7761 8.77614 16 8.5 16C8.77614 16 9 16.2239 9 16.5C9 16.2239 9.22386 16 9.5 16C9.77614 16 10 16.2239 10 16.5C10 16.7761 9.77614 17 9.5 17C9.77614 17 10 17.2239 10 17.5C10 17.2239 10.2239 17 10.5 17C10.7761 17 11 17.2239 11 17.5C11 17.7761 10.7761 18 10.5 18C10.7761 18 11 18.2239 11 18.5C11 18.2239 11.2239 18 11.5 18C11.7761 18 12 18.2239 12 18.5C12 18.7761 11.7761 19 11.5 19C11.7761 19 12 19.2239 12 19.5C12 19.2239 12.2239 19 12.5 19C12.7761 19 13 19.2239 13 19.5C13 19.2239 13.2239 19 13.5 19C13.7761 19 14 19.2239 14 19.5C14 19.2239 14.2239 19 14.5 19C14.2239 19 14 18.7761 14 18.5C14 18.2239 14.2239 18 14.5 18C14.2239 18 14 17.7761 14 17.5C14 17.2239 14.2239 17 14.5 17C14.2239 17 14 16.7761 14 16.5C14 16.2239 14.2239 16 14.5 16C14.2239 16 14 15.7761 14 15.5C14 15.2239 14.2239 15 14.5 15C14.2239 15 14 14.7761 14 14.5C14 14.2239 14.2239 14 14.5 14C14.2239 14 14 13.7761 14 13.5C14 13.2239 14.2239 13 14.5 13C14.2239 13 14 12.7761 14 12.5C14 12.2239 14.2239 12 14.5 12C14.2239 12 14 11.7761 14 11.5C14 11.2239 14.2239 11 14.5 11C14.2239 11 14 10.7761 14 10.5C14 10.2239 14.2239 10 14.5 10C14.2239 10 14 9.77614 14 9.5C14 9.22386 14.2239 9 14.5 9C14.2239 9 14 8.77614 14 8.5C14 8.22386 14.2239 8 14.5 8C14.2239 8 14 7.77614 14 7.5C14 7.22386 14.2239 7 14.5 7C14.2239 7 14 6.77614 14 6.5C14 6.22386 14.2239 6 14.5 6C14.2239 6 14 5.77614 14 5.5C14 5.77614 13.7761 6 13.5 6C13.2239 6 13 5.77614 13 5.5ZM13.5 7C13.7761 7 14 7.22386 14 7.5C14 7.77614 13.7761 8 13.5 8C13.2239 8 13 7.77614 13 7.5C13 7.22386 13.2239 7 13.5 7ZM13.5 9C13.7761 9 14 9.22386 14 9.5C14 9.77614 13.7761 10 13.5 10C13.2239 10 13 9.77614 13 9.5C13 9.22386 13.2239 9 13.5 9ZM13.5 11C13.7761 11 14 11.2239 14 11.5C14 11.7761 13.7761 12 13.5 12C13.2239 12 13 11.7761 13 11.5C13 11.2239 13.2239 11 13.5 11ZM13.5 13C13.7761 13 14 13.2239 14 13.5C14 13.7761 13.7761 14 13.5 14C13.2239 14 13 13.7761 13 13.5C13 13.2239 13.2239 13 13.5 13ZM13.5 15C13.7761 15 14 15.2239 14 15.5C14 15.7761 13.7761 16 13.5 16C13.2239 16 13 15.7761 13 15.5C13 15.2239 13.2239 15 13.5 15ZM13.5 17C13.7761 17 14 17.2239 14 17.5C14 17.7761 13.7761 18 13.5 18C13.2239 18 13 17.7761 13 17.5C13 17.2239 13.2239 17 13.5 17ZM13 18.5C13 18.7761 13.2239 19 13.5 19C13.7761 19 14 18.7761 14 18.5C14 18.2239 13.7761 18 13.5 18C13.2239 18 13 18.2239 13 18.5ZM13.5 17C13.7761 17 14 16.7761 14 16.5C14 16.2239 13.7761 16 13.5 16C13.2239 16 13 16.2239 13 16.5C13 16.7761 13.2239 17 13.5 17ZM13.5 15C13.7761 15 14 14.7761 14 14.5C14 14.2239 13.7761 14 13.5 14C13.2239 14 13 14.2239 13 14.5C13 14.7761 13.2239 15 13.5 15ZM13.5 13C13.7761 13 14 12.7761 14 12.5C14 12.2239 13.7761 12 13.5 12C13.2239 12 13 12.2239 13 12.5C13 12.7761 13.2239 13 13.5 13ZM13.5 11C13.7761 11 14 10.7761 14 10.5C14 10.2239 13.7761 10 13.5 10C13.2239 10 13 10.2239 13 10.5C13 10.7761 13.2239 11 13.5 11ZM13.5 9C13.7761 9 14 8.77614 14 8.5C14 8.22386 13.7761 8 13.5 8C13.2239 8 13 8.22386 13 8.5C13 8.77614 13.2239 9 13.5 9ZM13.5 7C13.7761 7 14 6.77614 14 6.5C14 6.22386 13.7761 6 13.5 6C13.2239 6 13 6.22386 13 6.5C13 6.77614 13.2239 7 13.5 7ZM13 18.5C13 18.2239 12.7761 18 12.5 18C12.2239 18 12 18.2239 12 18.5C12 18.7761 12.2239 19 12.5 19C12.7761 19 13 18.7761 13 18.5ZM11.5 18C11.7761 18 12 17.7761 12 17.5C12 17.2239 11.7761 17 11.5 17C11.2239 17 11 17.2239 11 17.5C11 17.7761 11.2239 18 11.5 18ZM10.5 17C10.7761 17 11 16.7761 11 16.5C11 16.2239 10.7761 16 10.5 16C10.2239 16 10 16.2239 10 16.5C10 16.7761 10.2239 17 10.5 17ZM9.5 16C9.77614 16 10 15.7761 10 15.5C10 15.2239 9.77614 15 9.5 15C9.22386 15 9 15.2239 9 15.5C9 15.7761 9.22386 16 9.5 16ZM8 14.5C8 14.2239 8.22386 14 8.5 14C8.77614 14 9 14.2239 9 14.5C9 14.7761 8.77614 15 8.5 15C8.22386 15 8 14.7761 8 14.5ZM7 14.5C7 14.7761 7.22386 15 7.5 15C7.77614 15 8 14.7761 8 14.5C8 14.2239 7.77614 14 7.5 14C7.22386 14 7 14.2239 7 14.5ZM6 14.5C6 14.7761 5.77614 15 5.5 15C5.22386 15 5 14.7761 5 14.5C5 14.2239 5.22386 14 5.5 14C5.77614 14 6 14.2239 6 14.5ZM4.5 14C4.77614 14 5 14.2239 5 14.5C5 14.7761 4.77614 15 4.5 15C4.22386 15 4 14.7761 4 14.5C4 14.2239 4.22386 14 4.5 14ZM4 13.5C4 13.7761 3.77614 14 3.5 14C3.22386 14 3 13.7761 3 13.5C3 13.2239 3.22386 13 3.5 13C3.77614 13 4 13.2239 4 13.5ZM3.5 12C3.77614 12 4 12.2239 4 12.5C4 12.7761 3.77614 13 3.5 13C3.22386 13 3 12.7761 3 12.5C3 12.2239 3.22386 12 3.5 12ZM3.5 11C3.22386 11 3 11.2239 3 11.5C3 11.7761 3.22386 12 3.5 12C3.77614 12 4 11.7761 4 11.5C4 11.2239 3.77614 11 3.5 11ZM4 10.5C4 10.7761 3.77614 11 3.5 11C3.22386 11 3 10.7761 3 10.5C3 10.2239 3.22386 10 3.5 10C3.77614 10 4 10.2239 4 10.5ZM4.5 10C4.22386 10 4 9.77614 4 9.5C4 9.22386 4.22386 9 4.5 9C4.77614 9 5 9.22386 5 9.5C5 9.77614 4.77614 10 4.5 10ZM6 9.5C6 9.77614 5.77614 10 5.5 10C5.22386 10 5 9.77614 5 9.5C5 9.22386 5.22386 9 5.5 9C5.77614 9 6 9.22386 6 9.5ZM7 9.5C7 9.22386 6.77614 9 6.5 9C6.22386 9 6 9.22386 6 9.5C6 9.77614 6.22386 10 6.5 10C6.77614 10 7 9.77614 7 9.5ZM8 9.5C8 9.77614 8.22386 10 8.5 10C8.77614 10 9 9.77614 9 9.5C9 9.22386 8.77614 9 8.5 9C8.22386 9 8 9.22386 8 9.5ZM8 9.5C8 9.77614 7.77614 10 7.5 10C7.22386 10 7 9.77614 7 9.5C7 9.22386 7.22386 9 7.5 9C7.77614 9 8 9.22386 8 9.5ZM4.5 10C4.77614 10 5 10.2239 5 10.5C5 10.7761 4.77614 11 4.5 11C4.22386 11 4 10.7761 4 10.5C4 10.2239 4.22386 10 4.5 10ZM4 13.5C4 13.2239 4.22386 13 4.5 13C4.77614 13 5 13.2239 5 13.5C5 13.7761 4.77614 14 4.5 14C4.22386 14 4 13.7761 4 13.5ZM6 14.5C6 14.7761 6.22386 15 6.5 15C6.77614 15 7 14.7761 7 14.5C7 14.2239 6.77614 14 6.5 14C6.22386 14 6 14.2239 6 14.5ZM9 8.5C9 8.77614 9.22386 9 9.5 9C9.77614 9 10 8.77614 10 8.5C10 8.22386 9.77614 8 9.5 8C9.22386 8 9 8.22386 9 8.5ZM10 7.5C10 7.77614 10.2239 8 10.5 8C10.7761 8 11 7.77614 11 7.5C11 7.22386 10.7761 7 10.5 7C10.2239 7 10 7.22386 10 7.5ZM11 6.5C11 6.77614 11.2239 7 11.5 7C11.7761 7 12 6.77614 12 6.5C12 6.22386 11.7761 6 11.5 6C11.2239 6 11 6.22386 11 6.5ZM13 5.5C13 5.77614 12.7761 6 12.5 6C12.2239 6 12 5.77614 12 5.5C12 5.22386 12.2239 5 12.5 5C12.7761 5 13 5.22386 13 5.5Z" fill="black"/>
</svg>
