<svg width="24" height="24" viewBox="0 0 24 24" fill="none" xmlns="http://www.w3.org/2000/svg">
<path fill-rule="evenodd" clip-rule="evenodd" d="M7 6H6.5C6.22386 6 6 6.22386 6 6.5V7V8V9V10V11V12V13V14V15V16V17V17.5C6 17.7761 6.22386 18 6.5 18H7H8H9H10H11H12H13H14H15H16H17H17.5C17.7761 18 18 17.7761 18 17.5V17V16V15V14V13V12V11V10V9V8V7V6.5C18 6.22386 17.7761 6 17.5 6H17H16H15H14.5C14.2239 6 14 6.22386 14 6.5V7V8V9V9.5C14 9.77614 13.7761 10 13.5 10H13H12H11H10.5C10.2239 10 10 9.77614 10 9.5V9V8V7V6.5C10 6.22386 9.77614 6 9.5 6H9H8H7ZM15 17H14.5C14.2239 17 14 16.7761 14 16.5V16V15V14.5C14 14.2239 13.7761 14 13.5 14H13H12H11H10.5C10.2239 14 10 13.7761 10 13.5V13V12V11.5C10 11.2239 10.2239 11 10.5 11H11H12H13H14H15H16H16.5C16.7761 11 17 11.2239 17 11.5V12V13V14V15V16V16.5C17 16.7761 16.7761 17 16.5 17H16H15Z" fill="black"/>
</svg>
