<svg width="24" height="24" viewBox="0 0 24 24" fill="none" xmlns="http://www.w3.org/2000/svg">
<path fill-rule="evenodd" clip-rule="evenodd" d="M12.5 4C12.7761 4 13 4.22386 13 4.5V5V5.5C13 5.77614 13.2239 6 13.5 6H14H14.5C14.7761 6 15 6.22386 15 6.5V7V7.5C15 7.77614 15.2239 8 15.5 8H16H16.5C16.7761 8 17 8.22386 17 8.5V9V10V11V11.5C17 11.7761 16.7761 12 16.5 12H16H15.5C15.2239 12 15 12.2239 15 12.5V13V13.5C15 13.7761 14.7761 14 14.5 14H14H13.5C13.2239 14 13 14.2239 13 14.5V15V15.5C13 15.7761 13.2239 16 13.5 16H14H15H16H17H18H18.5C18.7761 16 19 16.2239 19 16.5V17V17.5C19 17.7761 18.7761 18 18.5 18H18H17.5C17.2239 18 17 18.2239 17 18.5V19V19.5C17 19.7761 16.7761 20 16.5 20H16H15H14H13H12H11H10H9H8H7.5C7.22386 20 7 19.7761 7 19.5V19V18.5C7 18.2239 6.77614 18 6.5 18H6H5.5C5.22386 18 5 17.7761 5 17.5V17V16.5C5 16.2239 5.22386 16 5.5 16H6H7H8H9H10H10.5C10.7761 16 11 15.7761 11 15.5V15V14V13V12.5C11 12.2239 10.7761 12 10.5 12H10H9H8H7.5C7.22386 12 7 11.7761 7 11.5V11V10.5C7 10.2239 7.22386 10 7.5 10H8H8.5C8.77614 10 9 9.77614 9 9.5V9V8.5C9 8.22386 9.22386 8 9.5 8H10H10.5C10.7761 8 11 7.77614 11 7.5V7V6V5V4.5C11 4.22386 11.2239 4 11.5 4H12H12.5Z" fill="black"/>
</svg>
