<svg width="24" height="24" viewBox="0 0 24 24" fill="none" xmlns="http://www.w3.org/2000/svg">
<path fill-rule="evenodd" clip-rule="evenodd" d="M6 10V9.5C6 9.22386 6.22386 9 6.5 9H7H7.5C7.77614 9 8 9.22386 8 9.5V10V10.5C8 10.7761 7.77614 11 7.5 11H7H6.5C6.22386 11 6 10.7761 6 10.5V10ZM4 11.5C4 11.2239 4.22386 11 4.5 11H5H5.5C5.77614 11 6 11.2239 6 11.5V12V12.5C6 12.7761 6.22386 13 6.5 13H7H7.5C7.77614 13 8 13.2239 8 13.5V14V14.5C8 14.7761 7.77614 15 7.5 15H7H6H5H4.5C4.22386 15 4 14.7761 4 14.5V14V13V12V11.5ZM11 11.5C11 11.2239 10.7761 11 10.5 11H10H9.5C9.22386 11 9 11.2239 9 11.5V12V13V14V14.5C9 14.7761 9.22386 15 9.5 15H10H11H12H12.5C12.7761 15 13 14.7761 13 14.5V14V13.5C13 13.2239 12.7761 13 12.5 13H12H11.5C11.2239 13 11 12.7761 11 12.5V12V11.5ZM11 9.5C11 9.22386 11.2239 9 11.5 9H12H12.5C12.7761 9 13 9.22386 13 9.5V10V10.5C13 10.7761 12.7761 11 12.5 11H12H11.5C11.2239 11 11 10.7761 11 10.5V10V9.5ZM17.5 13H17H16.5C16.2239 13 16 12.7761 16 12.5V12V11.5C16 11.2239 15.7761 11 15.5 11H15H14.5C14.2239 11 14 11.2239 14 11.5V12V13V14V14.5C14 14.7761 14.2239 15 14.5 15H15H16H17H17.5C17.7761 15 18 14.7761 18 14.5V14V13.5C18 13.2239 17.7761 13 17.5 13ZM20 11V12V12.5C20 12.7761 19.7761 13 19.5 13H19H18.5C18.2239 13 18 12.7761 18 12.5V12V11.5C18 11.2239 17.7761 11 17.5 11H17H16.5C16.2239 11 16 10.7761 16 10.5V10V9.5C16 9.22386 16.2239 9 16.5 9H17H18H19H19.5C19.7761 9 20 9.22386 20 9.5V10V11Z" fill="black"/>
</svg>
