<svg width="24" height="24" viewBox="0 0 24 24" fill="none" xmlns="http://www.w3.org/2000/svg">
<path fill-rule="evenodd" clip-rule="evenodd" d="M5 10V9.5C5 9.22386 5.22386 9 5.5 9H6H7H8H8.5C8.77614 9 9 9.22386 9 9.5V10V10.5C9 10.7761 8.77614 11 8.5 11H8H7.5C7.22386 11 7 11.2239 7 11.5V12V12.5C7 12.7761 7.22386 13 7.5 13H8H8.5C8.77614 13 9 13.2239 9 13.5V14V14.5C9 14.7761 8.77614 15 8.5 15H8H7H6H5.5C5.22386 15 5 14.7761 5 14.5V14V13V12V11V10ZM12.5 11C12.2239 11 12 11.2239 12 11.5V12V12.5C12 12.7761 12.2239 13 12.5 13H13H13.5C13.7761 13 14 13.2239 14 13.5V14V14.5C14 14.7761 13.7761 15 13.5 15H13H12H11H10.5C10.2239 15 10 14.7761 10 14.5V14V13V12V11V10V9.5C10 9.22386 10.2239 9 10.5 9H11H12H13H13.5C13.7761 9 14 9.22386 14 9.5V10V10.5C14 10.7761 13.7761 11 13.5 11H13H12.5ZM17 9H18H18.5C18.7761 9 19 9.22386 19 9.5V10V11V12V13V14V14.5C19 14.7761 18.7761 15 18.5 15H18H17H16H15.5C15.2239 15 15 14.7761 15 14.5V14V13V12V11V10V9.5C15 9.22386 15.2239 9 15.5 9H16H17Z" fill="black"/>
</svg>
