<svg width="24" height="24" viewBox="0 0 24 24" fill="none" xmlns="http://www.w3.org/2000/svg">
<path fill-rule="evenodd" clip-rule="evenodd" d="M7 4.5C7 4.22386 7.22386 4 7.5 4H8H9H10H10.5C10.7761 4 11 4.22386 11 4.5V5V5.5C11 5.77614 10.7761 6 10.5 6H10H9H8H7.5C7.22386 6 7 5.77614 7 5.5V5V4.5Z" fill="black"/>
<path fill-rule="evenodd" clip-rule="evenodd" d="M11 6.5C11 6.22386 11.2239 6 11.5 6H12H12.5C12.7761 6 13 6.22386 13 6.5V7V7.5C13 7.77614 12.7761 8 12.5 8H12H11.5C11.2239 8 11 7.77614 11 7.5V7V6.5Z" fill="black"/>
<path fill-rule="evenodd" clip-rule="evenodd" d="M5 6.5C5 6.22386 5.22386 6 5.5 6H6H6.5C6.77614 6 7 6.22386 7 6.5V7V8V9V9.5C7 9.77614 6.77614 10 6.5 10H6H5.5C5.22386 10 5 9.77614 5 9.5V9V8V7V6.5Z" fill="black"/>
<path fill-rule="evenodd" clip-rule="evenodd" d="M7 10.5C7 10.2239 7.22386 10 7.5 10H8H9H10H11H12H12.5C12.7761 10 13 10.2239 13 10.5V11V11.5C13 11.7761 13.2239 12 13.5 12H14H15H16H16.5C16.7761 12 17 12.2239 17 12.5V13V13.5C17 13.7761 16.7761 14 16.5 14H16H15H14H13H12H11.5C11.2239 14 11 13.7761 11 13.5V13V12.5C11 12.2239 10.7761 12 10.5 12H10H9H8H7.5C7.22386 12 7 11.7761 7 11.5V11V10.5Z" fill="black"/>
<path fill-rule="evenodd" clip-rule="evenodd" d="M17 14.5C17 14.2239 17.2239 14 17.5 14H18H18.5C18.7761 14 19 14.2239 19 14.5V15V16V17V17.5C19 17.7761 18.7761 18 18.5 18H18H17.5C17.2239 18 17 17.7761 17 17.5V17V16V15V14.5Z" fill="black"/>
<path fill-rule="evenodd" clip-rule="evenodd" d="M15 18H16H16.5C16.7761 18 17 18.2239 17 18.5V19V19.5C17 19.7761 16.7761 20 16.5 20H16H15H14H13.5C13.2239 20 13 19.7761 13 19.5V19V18.5C13 18.2239 13.2239 18 13.5 18H14H15Z" fill="black"/>
<path fill-rule="evenodd" clip-rule="evenodd" d="M11 16.5C11 16.2239 11.2239 16 11.5 16H12H12.5C12.7761 16 13 16.2239 13 16.5V17V17.5C13 17.7761 12.7761 18 12.5 18H12H11.5C11.2239 18 11 17.7761 11 17.5V17V16.5Z" fill="black"/>
</svg>
