<svg width="24" height="24" viewBox="0 0 24 24" fill="none" xmlns="http://www.w3.org/2000/svg">
<path fill-rule="evenodd" clip-rule="evenodd" d="M6 5H5.5C5.22386 5 5 5.22386 5 5.5V6V7V8V8.5C5 8.77614 5.22386 9 5.5 9H6H6.5C6.77614 9 7 8.77614 7 8.5V8V7.5C7 7.22386 7.22386 7 7.5 7H8H8.5C8.77614 7 9 7.22386 9 7.5V8V9V10V10.5C9 10.7761 9.22386 11 9.5 11H10H11H12H12.5C12.7761 11 13 10.7761 13 10.5V10V9V8V7.5C13 7.22386 13.2239 7 13.5 7H14H14.5C14.7761 7 15 7.22386 15 7.5V8V9V10V10.5C15 10.7761 15.2239 11 15.5 11H16H17H18H18.5C18.7761 11 19 10.7761 19 10.5V10V9V8V7V6V5.5C19 5.22386 18.7761 5 18.5 5H18H17H16H15H14H13H12H11H10H9H8H7H6Z" fill="black"/>
<path fill-rule="evenodd" clip-rule="evenodd" d="M6 13H5.5C5.22386 13 5 13.2239 5 13.5V14V15V16V16.5C5 16.7761 5.22386 17 5.5 17H6H6.5C6.77614 17 7 16.7761 7 16.5V16V15.5C7 15.2239 7.22386 15 7.5 15H8H8.5C8.77614 15 9 15.2239 9 15.5V16V17V18V18.5C9 18.7761 9.22386 19 9.5 19H10H11H12H12.5C12.7761 19 13 18.7761 13 18.5V18V17V16V15.5C13 15.2239 13.2239 15 13.5 15H14H14.5C14.7761 15 15 15.2239 15 15.5V16V17V18V18.5C15 18.7761 15.2239 19 15.5 19H16H17H18H18.5C18.7761 19 19 18.7761 19 18.5V18V17V16V15V14V13.5C19 13.2239 18.7761 13 18.5 13H18H17H16H15H14H13H12H11H10H9H8H7H6Z" fill="black"/>
</svg>
