<svg width="24" height="24" viewBox="0 0 24 24" fill="none" xmlns="http://www.w3.org/2000/svg">
<path fill-rule="evenodd" clip-rule="evenodd" d="M5 8.5C5 8.22386 5.22386 8 5.5 8H6H7H7.5C7.77614 8 8 8.22386 8 8.5V9V10V10.5C8 10.7761 7.77614 11 7.5 11H7H6H5.5C5.22386 11 5 10.7761 5 10.5V10V9V8.5Z" fill="black"/>
<path fill-rule="evenodd" clip-rule="evenodd" d="M11 8.5C11 8.22386 11.2239 8 11.5 8H12H13H14H15H16H16.5C16.7761 8 17 8.22386 17 8.5V9V10L17 10.5C17 10.7761 17.2239 11 17.5 11H18H19H19.5C19.7761 11 20 11.2239 20 11.5V12V13V13.5C20 13.7761 19.7761 14 19.5 14H19H18H17.5C17.2239 14 17 14.2239 17 14.5V15V16V16.5C17 16.7761 16.7761 17 16.5 17H16H15H14H13H12H11H10H9H8.5C8.22386 17 8 16.7761 8 16.5V16V15V14V13V12V11.5C8 11.2239 8.22386 11 8.5 11H9H10H10.5C10.7761 11 11 10.7761 11 10.5V10V9V8.5Z" fill="black"/>
</svg>
