<svg width="24" height="24" viewBox="0 0 24 24" fill="none" xmlns="http://www.w3.org/2000/svg">
<path fill-rule="evenodd" clip-rule="evenodd" d="M12 6H11.5C11.2239 6 11 6.22386 11 6.5V7V7.5C11 7.77614 11.2239 8 11.5 8H12H12.5C12.7761 8 13 7.77614 13 7.5V7V6.5C13 6.22386 12.7761 6 12.5 6H12Z" fill="black"/>
<path fill-rule="evenodd" clip-rule="evenodd" d="M16 6H15.5C15.2239 6 15 6.22386 15 6.5V7V7.5C15 7.77614 15.2239 8 15.5 8H16H16.5C16.7761 8 17 7.77614 17 7.5V7V6.5C17 6.22386 16.7761 6 16.5 6H16Z" fill="black"/>
<path fill-rule="evenodd" clip-rule="evenodd" d="M14 8H13.5C13.2239 8 13 8.22386 13 8.5V9V9.5C13 9.77614 12.7761 10 12.5 10H12H11.5C11.2239 10 11 10.2239 11 10.5V11V11.5C11 11.7761 10.7761 12 10.5 12H10H9.5C9.22386 12 9 12.2239 9 12.5V13V14V15V15.5C9 15.7761 9.22386 16 9.5 16H10H10.5C10.7761 16 11 15.7761 11 15.5V15V14.5C11 14.2239 11.2239 14 11.5 14H12H12.5C12.7761 14 13 13.7761 13 13.5V13V12.5C13 12.2239 13.2239 12 13.5 12H14H14.5C14.7761 12 15 11.7761 15 11.5V11V10V9V8.5C15 8.22386 14.7761 8 14.5 8H14Z" fill="black"/>
<path fill-rule="evenodd" clip-rule="evenodd" d="M8 16H7.5C7.22386 16 7 16.2239 7 16.5V17V17.5C7 17.7761 7.22386 18 7.5 18H8H8.5C8.77614 18 9 17.7761 9 17.5V17V16.5C9 16.2239 8.77614 16 8.5 16H8Z" fill="black"/>
</svg>
