<svg width="24" height="24" viewBox="0 0 24 24" fill="none" xmlns="http://www.w3.org/2000/svg">
<path fill-rule="evenodd" clip-rule="evenodd" d="M9 3.5C9 3.22386 9.22386 3 9.5 3H10H11H12H13H14H15H15.5C15.7761 3 16 3.22386 16 3.5C16 3.77614 16.2239 4 16.5 4C16.7761 4 17 4.22386 17 4.5C17 4.77614 17.2239 5 17.5 5C17.7761 5 18 5.22386 18 5.5V6V7V8V9V10V11V12V13V14V15V16V16.5C18 16.7761 17.7761 17 17.5 17C17.2239 17 17 17.2239 17 17.5C17 17.7761 16.7761 18 16.5 18C16.2239 18 16 18.2239 16 18.5C16 18.7761 15.7761 19 15.5 19H15H14H13.5C13.2239 19 13 19.2239 13 19.5V20V20.5C13 20.7761 12.7761 21 12.5 21H12H11.5C11.2239 21 11 20.7761 11 20.5V20V19V18V17.5C11 17.2239 11.2239 17 11.5 17H12H13H14H14.5C14.7761 17 15 16.7761 15 16.5C15 16.2239 15.2239 16 15.5 16C15.7761 16 16 15.7761 16 15.5V15V14V13V12V11V10V9V8V7V6.5C16 6.22386 15.7761 6 15.5 6C15.2239 6 15 5.77614 15 5.5C15 5.22386 14.7761 5 14.5 5H14H13H12H11H10.5C10.2239 5 10 5.22386 10 5.5C10 5.77614 9.77614 6 9.5 6C9.22386 6 9 6.22386 9 6.5V7V8V9V9.5C9 9.77614 8.77614 10 8.5 10C8.22386 10 8 10.2239 8 10.5V11V11.5C8 11.7761 8.22386 12 8.5 12C8.77614 12 9 12.2239 9 12.5V13V14V15V16V17V18V19V20V20.5C9 20.7761 8.77614 21 8.5 21H8H7.5C7.22386 21 7 20.7761 7 20.5V20V19V18V17V16V15V14V13.5C7 13.2239 6.77614 13 6.5 13C6.22386 13 6 12.7761 6 12.5V12V11V10V9.5C6 9.22386 6.22386 9 6.5 9C6.77614 9 7 8.77614 7 8.5V8V7V6V5.5C7 5.22386 7.22386 5 7.5 5C7.77614 5 8 4.77614 8 4.5C8 4.22386 8.22386 4 8.5 4C8.77614 4 9 3.77614 9 3.5Z" fill="black"/>
</svg>
