<svg width="24" height="24" viewBox="0 0 24 24" fill="none" xmlns="http://www.w3.org/2000/svg">
<path fill-rule="evenodd" clip-rule="evenodd" d="M8 4H7.5C7.22386 4 7 4.22386 7 4.5V5V5.5C7 5.77614 6.77614 6 6.5 6H6H5.5C5.22386 6 5 6.22386 5 6.5V7V7.5C5 7.77614 5.22386 8 5.5 8H6H6.5C6.77614 8 7 8.22386 7 8.5L7 9V10V11V11.5C7 11.7761 7.22386 12 7.5 12H8H8.5C8.77614 12 9 11.7761 9 11.5V11V10V9V8V7V6V5V4.5C9 4.22386 8.77614 4 8.5 4H8Z" fill="black"/>
<path fill-rule="evenodd" clip-rule="evenodd" d="M13 12.5C13 12.2239 12.7761 12 12.5 12H12H11.5C11.2239 12 11 12.2239 11 12.5V13V13.5C11 13.7761 11.2239 14 11.5 14H12H12.5C12.7761 14 13 13.7761 13 13.5V13V12.5Z" fill="black"/>
<path fill-rule="evenodd" clip-rule="evenodd" d="M13 10.5C13 10.2239 13.2239 10 13.5 10H14H14.5C14.7761 10 15 10.2239 15 10.5L15 11V11.5C15 11.7761 14.7761 12 14.5 12H14H13.5C13.2239 12 13 11.7761 13 11.5V11V10.5Z" fill="black"/>
<path fill-rule="evenodd" clip-rule="evenodd" d="M15 8.5C15 8.22386 15.2239 8 15.5 8H16H16.5C16.7761 8 17 8.22386 17 8.5V9V9.5C17 9.77614 16.7761 10 16.5 10H16H15.5C15.2239 10 15 9.77614 15 9.5V9V8.5Z" fill="black"/>
<path fill-rule="evenodd" clip-rule="evenodd" d="M9 16.5C9 16.2239 8.77614 16 8.5 16H8H7.5C7.22386 16 7 16.2239 7 16.5V17V17.5C7 17.7761 7.22386 18 7.5 18H8H8.5C8.77614 18 9 17.7761 9 17.5V17V16.5Z" fill="black"/>
<path fill-rule="evenodd" clip-rule="evenodd" d="M10 14H9.5C9.22386 14 9 14.2239 9 14.5V15V15.5C9 15.7761 9.22386 16 9.5 16H10H10.5C10.7761 16 11 15.7761 11 15.5V15V14.5C11 14.2239 10.7761 14 10.5 14H10Z" fill="black"/>
<path fill-rule="evenodd" clip-rule="evenodd" d="M14 16H13.5C13.2239 16 13 16.2239 13 16.5V17V18V19V19.5C13 19.7761 13.2239 20 13.5 20H14H14.5C14.7761 20 15 19.7761 15 19.5V19V18V17V16.5C15 16.2239 14.7761 16 14.5 16H14H14Z" fill="black"/>
<path fill-rule="evenodd" clip-rule="evenodd" d="M16 14H15.5C15.2239 14 15 14.2239 15 14.5V15V15.5C15 15.7761 15.2239 16 15.5 16H16H16H16.5C16.7761 16 17 16.2239 17 16.5V17V18V19V19.5C17 19.7761 17.2239 20 17.5 20H18H18.5C18.7761 20 19 19.7761 19 19.5V19V18V17V16V15V14.5C19 14.2239 18.7761 14 18.5 14H18H17H16H16Z" fill="black"/>
</svg>
