<svg width="24" height="24" viewBox="0 0 24 24" fill="none" xmlns="http://www.w3.org/2000/svg">
<path fill-rule="evenodd" clip-rule="evenodd" d="M10 18H9.5C9.22386 18 9 18.2239 9 18.5V19V19.5C9 19.7761 9.22386 20 9.5 20H10H11H12H13H14H14.5C14.7761 20 15 19.7761 15 19.5V19V18.5C15 18.2239 14.7761 18 14.5 18H14H13H12H11H10Z" fill="black"/>
<path fill-rule="evenodd" clip-rule="evenodd" d="M16 12H16.5C16.7761 12 17 12.2239 17 12.5V13V14V15V16V17V17.5C17 17.7761 16.7761 18 16.5 18H16H15.5C15.2239 18 15 17.7761 15 17.5V17V16V15V14V13V12.5C15 12.2239 15.2239 12 15.5 12H16Z" fill="black"/>
<path fill-rule="evenodd" clip-rule="evenodd" d="M7 12.5C7 12.2239 7.22386 12 7.5 12H8H8.5C8.77614 12 9 12.2239 9 12.5V13V13.5C9 13.7761 9.22386 14 9.5 14H10H10.5C10.7761 14 11 14.2239 11 14.5V15V15.5C11 15.7761 10.7761 16 10.5 16H10H9.5C9.22386 16 9 16.2239 9 16.5V17V17.5C9 17.7761 8.77614 18 8.5 18H8H7.5C7.22386 18 7 17.7761 7 17.5V17V16V15V14V13V12.5Z" fill="black"/>
<path fill-rule="evenodd" clip-rule="evenodd" d="M13 4.5C13 4.22386 12.7761 4 12.5 4H12H11.5C11.2239 4 11 4.22386 11 4.5V5V5.5C11 5.77614 10.7761 6 10.5 6H10H9.5C9.22386 6 9 6.22386 9 6.5V7V7.5C9 7.77614 9.22386 8 9.5 8H10H10.5C10.7761 8 11 8.22386 11 8.5V9V9.5C11 9.77614 10.7761 10 10.5 10H10H9.5C9.22386 10 9 10.2239 9 10.5V11V11.5C9 11.7761 9.22386 12 9.5 12H10H11H12H13H14H14.5C14.7761 12 15 11.7761 15 11.5V11V10.5C15 10.2239 14.7761 10 14.5 10H14H13.5C13.2239 10 13 9.77614 13 9.5V9V8.5C13 8.22386 13.2239 8 13.5 8H14H14.5C14.7761 8 15 7.77614 15 7.5V7V6.5C15 6.22386 14.7761 6 14.5 6H14H13.5C13.2239 6 13 5.77614 13 5.5V5V4.5Z" fill="black"/>
</svg>
