<svg width="24" height="24" viewBox="0 0 24 24" fill="none" xmlns="http://www.w3.org/2000/svg">
<path fill-rule="evenodd" clip-rule="evenodd" d="M11 6H10.5C10.2239 6 10 6.22386 10 6.5V7V7.5C10 7.77614 9.77614 8 9.5 8H9H8.5C8.22386 8 8 8.22386 8 8.5V9V10V11V11.5C8 11.7761 8.22386 12 8.5 12H9H10H11H11.5C11.7761 12 12 11.7761 12 11.5V11V10.5C12 10.2239 12.2239 10 12.5 10H13H14H15H15.5C15.7761 10 16 9.77614 16 9.5V9V8.5C16 8.22386 15.7761 8 15.5 8H15H14.5C14.2239 8 14 7.77614 14 7.5V7V6.5C14 6.22386 13.7761 6 13.5 6H13H12H11Z" fill="black"/>
<path fill-rule="evenodd" clip-rule="evenodd" d="M13 12H12.5C12.2239 12 12 12.2239 12 12.5V13V13.5C12 13.7761 11.7761 14 11.5 14H11H10H9H8.5C8.22386 14 8 14.2239 8 14.5V15V15.5C8 15.7761 8.22386 16 8.5 16H9H9.5C9.77614 16 10 16.2239 10 16.5V17V17.5C10 17.7761 10.2239 18 10.5 18H11H12H13H13.5C13.7761 18 14 17.7761 14 17.5V17V16.5C14 16.2239 14.2239 16 14.5 16H15H15.5C15.7761 16 16 15.7761 16 15.5V15V14V13V12.5C16 12.2239 15.7761 12 15.5 12H15H14H13Z" fill="black"/>
</svg>
