<svg width="24" height="24" viewBox="0 0 24 24" fill="none" xmlns="http://www.w3.org/2000/svg">
<path fill-rule="evenodd" clip-rule="evenodd" d="M19 9H18.5C18.2239 9 18 9.22386 18 9.5V10V11V11.5C18 11.7761 18.2239 12 18.5 12H19H20H20.5C20.7761 12 21 11.7761 21 11.5V11V10V9.5C21 9.22386 20.7761 9 20.5 9H20H19Z" fill="black"/>
<path fill-rule="evenodd" clip-rule="evenodd" d="M16 3H15.5C15.2239 3 15 3.22386 15 3.5V4V5V5.5C15 5.77614 14.7761 6 14.5 6H14H13H12.5C12.2239 6 12 6.22386 12 6.5V7V8V8.5C12 8.77614 11.7761 9 11.5 9H11H10H9H8H7H6H5H4H3.5C3.22386 9 3 9.22386 3 9.5V10V11V11.5C3 11.7761 3.22386 12 3.5 12H4H5H5.5C5.77614 12 6 12.2239 6 12.5V13V14V14.5C6 14.7761 6.22386 15 6.5 15H7H8H8.5C8.77614 15 9 15.2239 9 15.5V16V17V17.5C9 17.7761 9.22386 18 9.5 18H10H11H12H13H14H15H16H17H17.5C17.7761 18 18 17.7761 18 17.5V17V16V15V14V13V12.5C18 12.2239 17.7761 12 17.5 12H17H16H15.5C15.2239 12 15 11.7761 15 11.5V11V10V9.5C15 9.22386 15.2239 9 15.5 9H16H17H17.5C17.7761 9 18 8.77614 18 8.5V8V7V6V5V4V3.5C18 3.22386 17.7761 3 17.5 3H17H16Z" fill="black"/>
<path fill-rule="evenodd" clip-rule="evenodd" d="M7 18H6.5C6.22386 18 6 18.2239 6 18.5V19C6 19 6 19 6 19C6 19 6 19 6 19V20V20.5C6 20.7761 6.22386 21 6.5 21H7H8H8.5C8.77614 21 9 20.7761 9 20.5V20V19V18.5C9 18.2239 8.77614 18 8.5 18H8H7H7Z" fill="black"/>
</svg>
