<svg width="24" height="24" viewBox="0 0 24 24" fill="none" xmlns="http://www.w3.org/2000/svg">
<path fill-rule="evenodd" clip-rule="evenodd" d="M11 3H12H13H14H14.5C14.7761 3 15 3.22386 15 3.5C15 3.77614 15.2239 4 15.5 4C15.7761 4 16 4.22386 16 4.5C16 4.77614 16.2239 5 16.5 5C16.7761 5 17 5.22386 17 5.5C17 5.77614 17.2239 6 17.5 6C17.7761 6 18 6.22386 18 6.5C18 6.77614 18.2239 7 18.5 7C18.7761 7 19 7.22386 19 7.5C19 7.77614 19.2239 8 19.5 8C19.7761 8 20 8.22386 20 8.5C20 8.77614 20.2239 9 20.5 9H21H21.5C21.7761 9 22 8.77614 22 8.5C22 8.22386 21.7761 8 21.5 8C21.2239 8 21 7.77614 21 7.5C21 7.22386 20.7761 7 20.5 7C20.2239 7 20 6.77614 20 6.5C20 6.22386 19.7761 6 19.5 6C19.2239 6 19 5.77614 19 5.5C19 5.22386 18.7761 5 18.5 5C18.2239 5 18 4.77614 18 4.5C18 4.22386 17.7761 4 17.5 4C17.2239 4 17 3.77614 17 3.5C17 3.22386 16.7761 3 16.5 3C16.2239 3 16 2.77614 16 2.5C16 2.22386 15.7761 2 15.5 2H15H14H13H12H11H10H9H8.5C8.22386 2 8 2.22386 8 2.5C8 2.77614 7.77614 3 7.5 3C7.22386 3 7 3.22386 7 3.5C7 3.77614 6.77614 4 6.5 4C6.22386 4 6 4.22386 6 4.5C6 4.77614 5.77614 5 5.5 5C5.22386 5 5 5.22386 5 5.5C5 5.77614 4.77614 6 4.5 6C4.22386 6 4 6.22386 4 6.5C4 6.77614 3.77614 7 3.5 7C3.22386 7 3 7.22386 3 7.5C3 7.77614 2.77614 8 2.5 8C2.22386 8 2 8.22386 2 8.5V9V10V11V12V13V14V15V15.5C2 15.7761 2.22386 16 2.5 16C2.77614 16 3 16.2239 3 16.5C3 16.7761 3.22386 17 3.5 17C3.77614 17 4 17.2239 4 17.5C4 17.7761 4.22386 18 4.5 18C4.77614 18 5 18.2239 5 18.5C5 18.7761 5.22386 19 5.5 19C5.77614 19 6 19.2239 6 19.5C6 19.7761 6.22386 20 6.5 20C6.77614 20 7 20.2239 7 20.5C7 20.7761 7.22386 21 7.5 21C7.77614 21 8 21.2239 8 21.5C8 21.7761 8.22386 22 8.5 22H9H10H11H12H13H14H15H15.5C15.7761 22 16 21.7761 16 21.5C16 21.2239 16.2239 21 16.5 21C16.7761 21 17 20.7761 17 20.5C17 20.2239 17.2239 20 17.5 20C17.7761 20 18 19.7761 18 19.5C18 19.2239 18.2239 19 18.5 19C18.7761 19 19 18.7761 19 18.5C19 18.2239 19.2239 18 19.5 18C19.7761 18 20 17.7761 20 17.5C20 17.2239 20.2239 17 20.5 17C20.7761 17 21 16.7761 21 16.5C21 16.2239 21.2239 16 21.5 16C21.7761 16 22 15.7761 22 15.5C22 15.2239 21.7761 15 21.5 15H21H20.5C20.2239 15 20 15.2239 20 15.5C20 15.7761 19.7761 16 19.5 16C19.2239 16 19 16.2239 19 16.5C19 16.7761 18.7761 17 18.5 17C18.2239 17 18 17.2239 18 17.5C18 17.7761 17.7761 18 17.5 18C17.2239 18 17 18.2239 17 18.5C17 18.7761 16.7761 19 16.5 19C16.2239 19 16 19.2239 16 19.5C16 19.7761 15.7761 20 15.5 20C15.2239 20 15 20.2239 15 20.5C15 20.7761 14.7761 21 14.5 21H14H13H12H11H10H9.5C9.22386 21 9 20.7761 9 20.5C9 20.2239 8.77614 20 8.5 20C8.22386 20 8 19.7761 8 19.5C8 19.2239 7.77614 19 7.5 19C7.22386 19 7 18.7761 7 18.5C7 18.2239 6.77614 18 6.5 18C6.22386 18 6 17.7761 6 17.5C6 17.2239 5.77614 17 5.5 17C5.22386 17 5 16.7761 5 16.5C5 16.2239 4.77614 16 4.5 16C4.22386 16 4 15.7761 4 15.5C4 15.2239 3.77614 15 3.5 15C3.22386 15 3 14.7761 3 14.5V14V13V12V11V10V9.5C3 9.22386 3.22386 9 3.5 9C3.77614 9 4 8.77614 4 8.5C4 8.22386 4.22386 8 4.5 8C4.77614 8 5 7.77614 5 7.5C5 7.22386 5.22386 7 5.5 7C5.77614 7 6 6.77614 6 6.5C6 6.22386 6.22386 6 6.5 6C6.77614 6 7 5.77614 7 5.5C7 5.22386 7.22386 5 7.5 5C7.77614 5 8 4.77614 8 4.5C8 4.22386 8.22386 4 8.5 4C8.77614 4 9 3.77614 9 3.5C9 3.22386 9.22386 3 9.5 3H10H11ZM6 12C6 11.4477 6.44772 11 7 11H8C8.55228 11 9 10.5523 9 10C9 9.44772 9.44772 9 10 9H11H12H13H14C14.5523 9 15 9.44772 15 10V10.5C15 10.7761 15.2239 11 15.5 11C15.7761 11 16 10.7761 16 10.5V10C16 9.44772 16.4477 9 17 9H17.5C17.7761 9 18 8.77614 18 8.5C18 8.22386 17.7761 8 17.5 8C17.2239 8 17 7.77614 17 7.5C17 7.22386 16.7761 7 16.5 7C16.2239 7 16 6.77614 16 6.5C16 6.22386 15.7761 6 15.5 6C15.2239 6 15 5.77614 15 5.5C15 5.22386 14.7761 5 14.5 5C14.2239 5 14 4.77614 14 4.5C14 4.22386 13.7761 4 13.5 4H13H12H11H10.5C10.2239 4 10 4.22386 10 4.5C10 4.77614 9.77614 5 9.5 5C9.22386 5 9 5.22386 9 5.5C9 5.77614 8.77614 6 8.5 6C8.22386 6 8 6.22386 8 6.5C8 6.77614 7.77614 7 7.5 7C7.22386 7 7 7.22386 7 7.5C7 7.77614 6.77614 8 6.5 8C6.22386 8 6 8.22386 6 8.5C6 8.77614 5.77614 9 5.5 9C5.22386 9 5 9.22386 5 9.5C5 9.77614 4.77614 10 4.5 10C4.22386 10 4 10.2239 4 10.5V11V12V13V13.5C4 13.7761 4.22386 14 4.5 14C4.77614 14 5 14.2239 5 14.5C5 14.7761 5.22386 15 5.5 15C5.77614 15 6 15.2239 6 15.5C6 15.7761 6.22386 16 6.5 16C6.77614 16 7 16.2239 7 16.5C7 16.7761 7.22386 17 7.5 17C7.77614 17 8 17.2239 8 17.5C8 17.7761 8.22386 18 8.5 18C8.77614 18 9 18.2239 9 18.5C9 18.7761 9.22386 19 9.5 19C9.77614 19 10 19.2239 10 19.5C10 19.7761 10.2239 20 10.5 20H11H12H13H13.5C13.7761 20 14 19.7761 14 19.5C14 19.2239 14.2239 19 14.5 19C14.7761 19 15 18.7761 15 18.5C15 18.2239 15.2239 18 15.5 18C15.7761 18 16 17.7761 16 17.5C16 17.2239 16.2239 17 16.5 17C16.7761 17 17 16.7761 17 16.5C17 16.2239 17.2239 16 17.5 16C17.7761 16 18 15.7761 18 15.5C18 15.2239 17.7761 15 17.5 15H17C16.4477 15 16 14.5523 16 14V13V12.5C16 12.2239 15.7761 12 15.5 12C15.2239 12 15 12.2239 15 12.5V13V14C15 14.5523 14.5523 15 14 15H13H12H11H10C9.44772 15 9 14.5523 9 14V13C9 12.4477 8.55228 12 8 12C7.44772 12 7 12.4477 7 13V13.5C7 13.7761 6.77614 14 6.5 14C6.22386 14 6 13.7761 6 13.5V13V12ZM20 10C19.4477 10 19 10.4477 19 11V12V13C19 13.5523 19.4477 14 20 14C20.5523 14 21 13.5523 21 13V12V11C21 10.4477 20.5523 10 20 10ZM12 11V12V13C12 13.5523 12.4477 14 13 14C13.5523 14 14 13.5523 14 13V12V11C14 10.4477 13.5523 10 13 10C12.4477 10 12 10.4477 12 11Z" fill="black"/>
</svg>
