<svg width="24" height="24" viewBox="0 0 24 24" fill="none" xmlns="http://www.w3.org/2000/svg">
<path fill-rule="evenodd" clip-rule="evenodd" d="M9 5.5C9 5.22386 9.22386 5 9.5 5H10H11H12H13H14H14.5C14.7761 5 15 5.22386 15 5.5V6V7V8V9V10V10.5C15 10.7761 14.7761 11 14.5 11H14H13H12.5C12.2239 11 12 11.2239 12 11.5V12V13V13.5C12 13.7761 12.2239 14 12.5 14H13H14H15H16H17H17.5C17.7761 14 18 14.2239 18 14.5V15V16V16.5C18 16.7761 17.7761 17 17.5 17H17H16H15.5C15.2239 17 15 17.2239 15 17.5V18V19V19.5C15 19.7761 14.7761 20 14.5 20H14H13H12.5C12.2239 20 12 19.7761 12 19.5V19V18V17.5C12 17.2239 11.7761 17 11.5 17H11H10H9.5C9.22386 17 9 16.7761 9 16.5V16V15V14.5C9 14.2239 8.77614 14 8.5 14H8H7H6.5C6.22386 14 6 13.7761 6 13.5V13V12V11V10V9V8.5C6 8.22386 6.22386 8 6.5 8H7H8H8.5C8.77614 8 9 7.77614 9 7.5V7V6V5.5Z" fill="black"/>
</svg>
