<svg width="24" height="24" viewBox="0 0 24 24" fill="none" xmlns="http://www.w3.org/2000/svg">
<path fill-rule="evenodd" clip-rule="evenodd" d="M8 11.5C8 11.2239 8.22386 11 8.5 11H9H9.5C9.77614 11 10 11.2239 10 11.5V12V13V14V14.5C10 14.7761 9.77614 15 9.5 15H9H8.5C8.22386 15 8 14.7761 8 14.5V14V13V12V11.5Z" fill="black"/>
<path fill-rule="evenodd" clip-rule="evenodd" d="M7 15H6.5C6.22386 15 6 15.2239 6 15.5V16V16.5C6 16.7761 6.22386 17 6.5 17H7H7.5C7.77614 17 8 16.7761 8 16.5V16V15.5C8 15.2239 7.77614 15 7.5 15H7Z" fill="black"/>
<path fill-rule="evenodd" clip-rule="evenodd" d="M13 9H12.5C12.2239 9 12 9.22386 12 9.5V10V10.5C12 10.7761 12.2239 11 12.5 11H13H13.5C13.7761 11 14 10.7761 14 10.5V10V9.5C14 9.22386 13.7761 9 13.5 9H13Z" fill="black"/>
<path fill-rule="evenodd" clip-rule="evenodd" d="M8 7H7H6.5C6.22386 7 6 7.22386 6 7.5V8V8.5C6 8.77614 5.77614 9 5.5 9H5H4.5C4.22386 9 4 9.22386 4 9.5V10V10.5C4 10.7761 4.22386 11 4.5 11H5H6H7H7.5C7.77614 11 8 10.7761 8 10.5V10V9.5C8 9.22386 8.22386 9 8.5 9H9H10H11H11.5C11.7761 9 12 8.77614 12 8.5V8V7.5C12 7.22386 11.7761 7 11.5 7H11H10H9H8Z" fill="black"/>
<path fill-rule="evenodd" clip-rule="evenodd" d="M15 11H14.5C14.2239 11 14 11.2239 14 11.5V12V12.5C14 12.7761 14.2239 13 14.5 13H15H15.5C15.7761 13 16 12.7761 16 12.5V12V11.5C16 11.2239 15.7761 11 15.5 11H15Z" fill="black"/>
<path fill-rule="evenodd" clip-rule="evenodd" d="M16 13.5C16 13.2239 16.2239 13 16.5 13H17H18H19H19.5C19.7761 13 20 13.2239 20 13.5V14V14.5C20 14.7761 19.7761 15 19.5 15H19H18H17H16.5C16.2239 15 16 14.7761 16 14.5V14V13.5Z" fill="black"/>
</svg>
