<svg width="24" height="24" viewBox="0 0 24 24" fill="none" xmlns="http://www.w3.org/2000/svg">
<path fill-rule="evenodd" clip-rule="evenodd" d="M7 7H6.5C6.22386 7 6 7.22386 6 7.5V8V8.5C6 8.77614 6.22386 9 6.5 9H7H7.5C7.77614 9 8 9.22386 8 9.5V10V10.5C8 10.7761 8.22386 11 8.5 11H9H10V12V12.5C10 12.7761 10.2239 13 10.5 13H11H11.5C11.7761 13 12 13.2239 12 13.5V14V14.5C12 14.7761 12.2239 15 12.5 15H13H14V16V16.5C14 16.7761 14.2239 17 14.5 17H15H16H17H17.5C17.7761 17 18 16.7761 18 16.5V16V15V14V13V12V11V10V9V8V7.5C18 7.22386 17.7761 7 17.5 7H17H16H15H14H13H12H11H10H9H8H7ZM14 15V14V13.5C14 13.2239 14.2239 13 14.5 13H15H15.5C15.7761 13 16 13.2239 16 13.5V14V14.5C16 14.7761 15.7761 15 15.5 15H15H14ZM10 11V10V9.5C10 9.22386 10.2239 9 10.5 9H11H11.5C11.7761 9 12 9.22386 12 9.5V10V10.5C12 10.7761 11.7761 11 11.5 11H11H10ZM15.5 9C15.7761 9 16 9.22386 16 9.5V10V10.5C16 10.7761 15.7761 11 15.5 11H15H14.5C14.2239 11 14 10.7761 14 10.5V10V9.5C14 9.22386 14.2239 9 14.5 9H15H15.5Z" fill="black"/>
</svg>
