<svg width="24" height="24" viewBox="0 0 24 24" fill="none" xmlns="http://www.w3.org/2000/svg">
<path fill-rule="evenodd" clip-rule="evenodd" d="M8 6H7.5C7.22386 6 7 6.22386 7 6.5V7V7.5C7 7.77614 6.77614 8 6.5 8H6H5.5C5.22386 8 5 8.22386 5 8.5V9V10V11V11.5C5 11.7761 5.22386 12 5.5 12H6H6.5C6.77614 12 7 12.2239 7 12.5V13V13.5C7 13.7761 7.22386 14 7.5 14H8H8.5C8.77614 14 9 14.2239 9 14.5V15V15.5C9 15.7761 9.22386 16 9.5 16H10H10.5C10.7761 16 11 16.2239 11 16.5V17V17.5C11 17.7761 11.2239 18 11.5 18H12H12.5C12.7761 18 13 17.7761 13 17.5V17V16.5C13 16.2239 13.2239 16 13.5 16H14H14.5C14.7761 16 15 15.7761 15 15.5V15V14.5C15 14.2239 15.2239 14 15.5 14H16H16.5C16.7761 14 17 13.7761 17 13.5V13V12.5C17 12.2239 17.2239 12 17.5 12H18H18.5C18.7761 12 19 11.7761 19 11.5V11V10V9V8.5C19 8.22386 18.7761 8 18.5 8H18H17.5C17.2239 8 17 7.77614 17 7.5V7V6.5C17 6.22386 16.7761 6 16.5 6H16H15H14H13.5C13.2239 6 13 6.22386 13 6.5V7V7.5C13 7.77614 12.7761 8 12.5 8H12H11.5C11.2239 8 11 7.77614 11 7.5V7V6.5C11 6.22386 10.7761 6 10.5 6H10H9H8Z" fill="black"/>
</svg>
