<svg width="24" height="24" viewBox="0 0 24 24" fill="none" xmlns="http://www.w3.org/2000/svg">
<path fill-rule="evenodd" clip-rule="evenodd" d="M5 4.5C5 4.22386 5.22386 4 5.5 4H6H7H7.5C7.77614 4 8 4.22386 8 4.5V5V5.5C8 5.77614 8.22386 6 8.5 6C8.77614 6 9 6.22386 9 6.5C9 6.77614 9.22386 7 9.5 7C9.77614 7 10 7.22386 10 7.5C10 7.77614 10.2239 8 10.5 8H11H12H13H13.5C13.7761 8 14 7.77614 14 7.5C14 7.22386 14.2239 7 14.5 7C14.7761 7 15 6.77614 15 6.5C15 6.22386 15.2239 6 15.5 6C15.7761 6 16 5.77614 16 5.5V5V4.5C16 4.22386 16.2239 4 16.5 4H17H18H18.5C18.7761 4 19 4.22386 19 4.5C19 4.77614 19.2239 5 19.5 5C19.7761 5 20 5.22386 20 5.5V6V7V7.5C20 7.77614 20.2239 8 20.5 8C20.7761 8 21 8.22386 21 8.5V9V10V11V11.5C21 11.7761 21.2239 12 21.5 12C21.7761 12 22 12.2239 22 12.5V13V13.5C22 13.7761 21.7761 14 21.5 14C21.2239 14 21 14.2239 21 14.5V15V16V16.5C21 16.7761 20.7761 17 20.5 17C20.2239 17 20 17.2239 20 17.5V18V18.5C20 18.7761 19.7761 19 19.5 19C19.2239 19 19 19.2239 19 19.5C19 19.7761 18.7761 20 18.5 20C18.2239 20 18 20.2239 18 20.5C18 20.7761 17.7761 21 17.5 21H17H16H15H14H13H12H11H10H9H8H7H6.5C6.22386 21 6 20.7761 6 20.5C6 20.2239 5.77614 20 5.5 20C5.22386 20 5 19.7761 5 19.5C5 19.2239 4.77614 19 4.5 19C4.22386 19 4 18.7761 4 18.5V18V17.5C4 17.2239 3.77614 17 3.5 17C3.22386 17 3 16.7761 3 16.5V16V15V14.5C3 14.2239 2.77614 14 2.5 14C2.22386 14 2 13.7761 2 13.5V13V12.5C2 12.2239 2.22386 12 2.5 12C2.77614 12 3 11.7761 3 11.5V11V10V9V8.5C3 8.22386 3.22386 8 3.5 8C3.77614 8 4 7.77614 4 7.5V7V6V5.5C4 5.22386 4.22386 5 4.5 5C4.77614 5 5 4.77614 5 4.5ZM18 14H18.5C18.7761 14 19 14.2239 19 14.5C19 14.7761 18.7761 15 18.5 15H18H17H16.5C16.2239 15 16 15.2239 16 15.5V16V16.5C16 16.7761 16.2239 17 16.5 17H17H17.5C17.7761 17 18 17.2239 18 17.5C18 17.7761 17.7761 18 17.5 18C17.2239 18 17 18.2239 17 18.5C17 18.7761 16.7761 19 16.5 19H16H15H14H13H12H11H10H9H8H7.5C7.22386 19 7 18.7761 7 18.5C7 18.2239 6.77614 18 6.5 18C6.22386 18 6 17.7761 6 17.5C6 17.2239 6.22386 17 6.5 17H7H7.5C7.77614 17 8 16.7761 8 16.5V16V15.5C8 15.2239 7.77614 15 7.5 15H7H6H5.5C5.22386 15 5 14.7761 5 14.5C5 14.2239 5.22386 14 5.5 14H6H6.5C6.77614 14 7 13.7761 7 13.5V13V12.5C7 12.2239 6.77614 12 6.5 12H6H5.5C5.22386 12 5 11.7761 5 11.5V11V10V9.5C5 9.22386 5.22386 9 5.5 9C5.77614 9 6 8.77614 6 8.5C6 8.22386 6.22386 8 6.5 8C6.77614 8 7 8.22386 7 8.5C7 8.77614 7.22386 9 7.5 9C7.77614 9 8 9.22386 8 9.5C8 9.77614 8.22386 10 8.5 10H9H10H11H12H13H14H15H15.5C15.7761 10 16 9.77614 16 9.5C16 9.22386 16.2239 9 16.5 9C16.7761 9 17 8.77614 17 8.5C17 8.22386 17.2239 8 17.5 8C17.7761 8 18 8.22386 18 8.5C18 8.77614 18.2239 9 18.5 9C18.7761 9 19 9.22386 19 9.5V10V11V11.5C19 11.7761 18.7761 12 18.5 12H18H17.5C17.2239 12 17 12.2239 17 12.5V13V13.5C17 13.7761 17.2239 14 17.5 14H18Z" fill="black"/>
</svg>
