<svg width="24" height="24" viewBox="0 0 24 24" fill="none" xmlns="http://www.w3.org/2000/svg">
<path fill-rule="evenodd" clip-rule="evenodd" d="M16 5H15.5C15.2239 5 15 5.22386 15 5.5V6V6.5C15 6.77614 15.2239 7 15.5 7H16H16.5C16.7761 7 17 6.77614 17 6.5V6V5.5C17 5.22386 16.7761 5 16.5 5H16Z" fill="black"/>
<path fill-rule="evenodd" clip-rule="evenodd" d="M8 7H7.5C7.22386 7 7 7.22386 7 7.5V8V8.5C7 8.77614 7.22386 9 7.5 9H8H8.5C8.77614 9 9 8.77614 9 8.5V8V7.5C9 7.22386 8.77614 7 8.5 7H8Z" fill="black"/>
<path fill-rule="evenodd" clip-rule="evenodd" d="M8 13H7.5C7.22386 13 7 13.2239 7 13.5V14V14.5C7 14.7761 7.22386 15 7.5 15H8H8.5C8.77614 15 9 14.7761 9 14.5V14V13.5C9 13.2239 8.77614 13 8.5 13H8Z" fill="black"/>
<path fill-rule="evenodd" clip-rule="evenodd" d="M12 5H11.5C11.2239 5 11 5.22386 11 5.5V6V7V8V8.5C11 8.77614 10.7761 9 10.5 9H10H9.5C9.22386 9 9 9.22386 9 9.5V10V11V12V12.5C9 12.7761 9.22386 13 9.5 13H10H10.5C10.7761 13 11 13.2239 11 13.5V14V14.5C11 14.7761 11.2239 15 11.5 15H12H12.5C12.7761 15 13 14.7761 13 14.5V14V13V12V11.5C13 11.2239 13.2239 11 13.5 11H14H14.5C14.7761 11 15 10.7761 15 10.5V10V9V8V7.5C15 7.22386 14.7761 7 14.5 7H14H13.5C13.2239 7 13 6.77614 13 6.5V6V5.5C13 5.22386 12.7761 5 12.5 5H12Z" fill="black"/>
<path fill-rule="evenodd" clip-rule="evenodd" d="M16 11H15.5C15.2239 11 15 11.2239 15 11.5V12V12.5C15 12.7761 15.2239 13 15.5 13H16H16.5C16.7761 13 17 12.7761 17 12.5V12V11.5C17 11.2239 16.7761 11 16.5 11H16Z" fill="black"/>
<path fill-rule="evenodd" clip-rule="evenodd" d="M14 15H13.5C13.2239 15 13 15.2239 13 15.5V16V16.5C13 16.7761 13.2239 17 13.5 17H14H14.5C14.7761 17 15 16.7761 15 16.5V16V15.5C15 15.2239 14.7761 15 14.5 15H14Z" fill="black"/>
<path fill-rule="evenodd" clip-rule="evenodd" d="M10 17H9.5C9.22386 17 9 17.2239 9 17.5V18V18.5C9 18.7761 9.22386 19 9.5 19H10H10.5C10.7761 19 11 18.7761 11 18.5V18V17.5C11 17.2239 10.7761 17 10.5 17H10Z" fill="black"/>
</svg>
