<svg width="24" height="24" viewBox="0 0 24 24" fill="none" xmlns="http://www.w3.org/2000/svg">
<path fill-rule="evenodd" clip-rule="evenodd" d="M11 5.5C11 5.22386 11.2239 5 11.5 5H12H12.5C12.7761 5 13 5.22386 13 5.5V6V7V8V8.5C13 8.77614 13.2239 9 13.5 9H14H14.5C14.7761 9 15 8.77614 15 8.5V8V7V6V5.5C15 5.22386 15.2239 5 15.5 5H16H16.5C16.7761 5 17 5.22386 17 5.5V6V7V8V9V10V11V12V13V14V15V16V17V18V18.5C17 18.7761 16.7761 19 16.5 19H16H15H14H13H12H11H10H9H8H7.5C7.22386 19 7 18.7761 7 18.5V18V17V16V15V14V13V12V11V10V9V8V7V6V5.5C7 5.22386 7.22386 5 7.5 5H8H8.5C8.77614 5 9 5.22386 9 5.5V6V7V8V8.5C9 8.77614 9.22386 9 9.5 9H10H10.5C10.7761 9 11 8.77614 11 8.5V8V7V6V5.5ZM15 12V12.5C15 12.7761 14.7761 13 14.5 13H14H13.5C13.2239 13 13 13.2239 13 13.5V14V14.5C13 14.7761 12.7761 15 12.5 15H12H11.5C11.2239 15 11 15.2239 11 15.5V16V16.5C11 16.7761 10.7761 17 10.5 17H10H9.5C9.22386 17 9 16.7761 9 16.5V16V15V14V13V12V11.5C9 11.2239 9.22386 11 9.5 11H10H11H12H13H14H14.5C14.7761 11 15 11.2239 15 11.5V12Z" fill="black"/>
</svg>
