<svg width="24" height="24" viewBox="0 0 24 24" fill="none" xmlns="http://www.w3.org/2000/svg">
<path fill-rule="evenodd" clip-rule="evenodd" d="M9 7H8.5C8.22386 7 8 7.22386 8 7.5V8V8.5C8 8.77614 8.22386 9 8.5 9H9H9.5C9.77614 9 10 8.77614 10 8.5V8V7.5C10 7.22386 9.77614 7 9.5 7H9Z" fill="black"/>
<path fill-rule="evenodd" clip-rule="evenodd" d="M16 7.5C16 7.22386 15.7761 7 15.5 7H15H14.5C14.2239 7 14 7.22386 14 7.5V8V8.5C14 8.77614 13.7761 9 13.5 9H13H12H11H10.5C10.2239 9 10 9.22386 10 9.5V10V10.5C10 10.7761 9.77614 11 9.5 11H9H8.5C8.22386 11 8 10.7761 8 10.5V10V9.5C8 9.22386 7.77614 9 7.5 9H7H6.5C6.22386 9 6 9.22386 6 9.5V10V11V12V12.5C6 12.7761 6.22386 13 6.5 13H7H7.5C7.77614 13 8 13.2239 8 13.5V14V14.5C8 14.7761 8.22386 15 8.5 15H9H9.5C9.77614 15 10 15.2239 10 15.5V16V16.5C10 16.7761 10.2239 17 10.5 17H11H12H13H13.5C13.7761 17 14 16.7761 14 16.5V16V15.5C14 15.2239 14.2239 15 14.5 15H15H15.5C15.7761 15 16 14.7761 16 14.5V14V13.5C16 13.2239 16.2239 13 16.5 13H17H17.5C17.7761 13 18 12.7761 18 12.5V12V11V10V9.5C18 9.22386 17.7761 9 17.5 9H17H16.5C16.2239 9 16 8.77614 16 8.5V8V7.5Z" fill="black"/>
</svg>
