<svg width="24" height="24" viewBox="0 0 24 24" fill="none" xmlns="http://www.w3.org/2000/svg">
<path fill-rule="evenodd" clip-rule="evenodd" d="M12 4.5C12 4.22386 11.7761 4 11.5 4H11H10H9H8.5C8.22386 4 8 4.22386 8 4.5V5V6V7V7.5C8 7.77614 8.22386 8 8.5 8H9H9.5C9.77614 8 10 7.77614 10 7.5V7V6.5C10 6.22386 10.2239 6 10.5 6H11H12V7V7.5C12 7.77614 12.2239 8 12.5 8H13H14H15H15.5C15.7761 8 16 7.77614 16 7.5V7V6V5V4.5C16 4.22386 15.7761 4 15.5 4H15H14.5C14.2239 4 14 4.22386 14 4.5V5V5.5C14 5.77614 13.7761 6 13.5 6H13H12V5V4.5ZM9 10H9.5C9.77614 10 10 10.2239 10 10.5V11V12V13V13.5C10 13.7761 9.77614 14 9.5 14H9H8H7H6.5C6.22386 14 6 13.7761 6 13.5V13V12V11V10.5C6 10.2239 6.22386 10 6.5 10H7H8H9ZM18 11V10.5C18 10.2239 17.7761 10 17.5 10H17H16.5C16.2239 10 16 10.2239 16 10.5V11V11.5C16 11.7761 15.7761 12 15.5 12H15H14.5C14.2239 12 14 11.7761 14 11.5V11V10.5C14 10.2239 13.7761 10 13.5 10H13H12.5C12.2239 10 12 10.2239 12 10.5V11V12V13V13.5C12 13.7761 12.2239 14 12.5 14H13H14H15H16H17H17.5C17.7761 14 18 13.7761 18 13.5V13V12V11ZM11 16H11.5C11.7761 16 12 16.2239 12 16.5V17V18H11H10.5C10.2239 18 10 18.2239 10 18.5V19V19.5C10 19.7761 9.77614 20 9.5 20H9H8.5C8.22386 20 8 19.7761 8 19.5V19V18V17V16.5C8 16.2239 8.22386 16 8.5 16H9H10H11ZM12 18H13H13.5C13.7761 18 14 17.7761 14 17.5V17V16.5C14 16.2239 14.2239 16 14.5 16H15H15.5C15.7761 16 16 16.2239 16 16.5V17V18V19V19.5C16 19.7761 15.7761 20 15.5 20H15H14H13H12.5C12.2239 20 12 19.7761 12 19.5V19V18Z" fill="black"/>
</svg>
