<svg width="24" height="24" viewBox="0 0 24 24" fill="none" xmlns="http://www.w3.org/2000/svg">
<path fill-rule="evenodd" clip-rule="evenodd" d="M7 9.5C7 9.22386 7.22386 9 7.5 9H8H9H10H11H12H12.5C12.7761 9 13 9.22386 13 9.5V10V10.5C13 10.7761 13.2239 11 13.5 11C13.7761 11 14 10.7761 14 10.5V10V9.5C14 9.22386 14.2239 9 14.5 9H15H16H17H18H19H19.5C19.7761 9 20 9.22386 20 9.5V10V11V12V13V14V14.5C20 14.7761 19.7761 15 19.5 15H19H18H17H16H15H14.5C14.2239 15 14 14.7761 14 14.5V14V13V12.5C14 12.2239 13.7761 12 13.5 12C13.2239 12 13 12.2239 13 12.5V13V14V14.5C13 14.7761 12.7761 15 12.5 15H12H11H10H9H8H7.5C7.22386 15 7 14.7761 7 14.5V14V13V12.5C7 12.2239 6.77614 12 6.5 12H6H5.5C5.22386 12 5 12.2239 5 12.5V13V13.5C5 13.7761 4.77614 14 4.5 14C4.22386 14 4 13.7761 4 13.5V13V12V11.5C4 11.2239 4.22386 11 4.5 11H5H6H6.5C6.77614 11 7 10.7761 7 10.5V10V9.5ZM16 11.5C16 11.2239 16.2239 11 16.5 11C16.7761 11 17 10.7761 17 10.5C17 10.2239 17.2239 10 17.5 10C17.7761 10 18 10.2239 18 10.5C18 10.7761 18.2239 11 18.5 11C18.7761 11 19 11.2239 19 11.5V12V12.5C19 12.7761 18.7761 13 18.5 13C18.2239 13 18 12.7761 18 12.5V12V11.5C18 11.2239 17.7761 11 17.5 11C17.2239 11 17 11.2239 17 11.5V12V12.5C17 12.7761 16.7761 13 16.5 13C16.2239 13 16 12.7761 16 12.5V12V11.5ZM9 11V12V12.5C9 12.7761 9.22386 13 9.5 13C9.77614 13 10 12.7761 10 12.5V12V11.5C10 11.2239 10.2239 11 10.5 11C10.7761 11 11 11.2239 11 11.5V12V12.5C11 12.7761 11.2239 13 11.5 13C11.7761 13 12 12.7761 12 12.5V12V11.5C12 11.2239 11.7761 11 11.5 11C11.2239 11 11 10.7761 11 10.5C11 10.2239 10.7761 10 10.5 10H10H9.5C9.22386 10 9 10.2239 9 10.5V11Z" fill="black"/>
</svg>
