<svg width="24" height="24" viewBox="0 0 24 24" fill="none" xmlns="http://www.w3.org/2000/svg">
<path fill-rule="evenodd" clip-rule="evenodd" d="M8 4.5C8 4.22386 7.77614 4 7.5 4H7H6.5C6.22386 4 6 4.22386 6 4.5V5V5.5C6 5.77614 5.77614 6 5.5 6H5H4H3H2.5C2.22386 6 2 6.22386 2 6.5V7V8V9V9.5C2 9.77614 2.22386 10 2.5 10H3H4V11V11.5C4 11.7761 4.22386 12 4.5 12H5H6H7H8V13V13.5C8 13.7761 8.22386 14 8.5 14H9H10H11H12V15V15.5C12 15.7761 12.2239 16 12.5 16H13H14H15H15.5C15.7761 16 16 15.7761 16 15.5V15V14.5C16 14.2239 16.2239 14 16.5 14C16.7761 14 17 14.2239 17 14.5V15V16V17V17.5C17 17.7761 17.2239 18 17.5 18H18H18.5C18.7761 18 19 17.7761 19 17.5V17V16.5C19 16.2239 19.2239 16 19.5 16C19.7761 16 20 16.2239 20 16.5V17V18V19V19.5C20 19.7761 20.2239 20 20.5 20H21H21.5C21.7761 20 22 19.7761 22 19.5V19V18V17V16V15V14.5C22 14.2239 21.7761 14 21.5 14H21H20H19.5C19.2239 14 19 13.7761 19 13.5V13V12.5C19 12.2239 18.7761 12 18.5 12H18H17H16.5C16.2239 12 16 11.7761 16 11.5V11V10.5C16 10.2239 15.7761 10 15.5 10H15H14H13H12.5C12.2239 10 12 9.77614 12 9.5V9V8.5C12 8.22386 11.7761 8 11.5 8H11H10H9H8.5C8.22386 8 8 7.77614 8 7.5V7V6V5V4.5ZM12 14V13V12.5C12 12.2239 12.2239 12 12.5 12H13H13.5C13.7761 12 14 12.2239 14 12.5V13V13.5C14 13.7761 13.7761 14 13.5 14H13H12ZM8 12V11V10.5C8 10.2239 8.22386 10 8.5 10H9H9.5C9.77614 10 10 10.2239 10 10.5V11V11.5C10 11.7761 9.77614 12 9.5 12H9H8ZM4 10V9V8.5C4 8.22386 4.22386 8 4.5 8H5H5.5C5.77614 8 6 8.22386 6 8.5V9V9.5C6 9.77614 5.77614 10 5.5 10H5H4Z" fill="black"/>
</svg>
