<svg width="24" height="24" viewBox="0 0 24 24" fill="none" xmlns="http://www.w3.org/2000/svg">
<path fill-rule="evenodd" clip-rule="evenodd" d="M15 6.5C15 6.22386 15.2239 6 15.5 6H16H16.5C16.7761 6 17 6.22386 17 6.5V7V8V9V10V11V12V13V14V15V16V17V17.5C17 17.7761 16.7761 18 16.5 18H16H15H14H13H12H11H10H9H8H7.5C7.22386 18 7 17.7761 7 17.5V17V16.5C7 16.2239 7.22386 16 7.5 16H8H9H10H11H12H12.5C12.7761 16 13 15.7761 13 15.5V15V14.5C13 14.2239 12.7761 14 12.5 14H12H11.5C11.2239 14 11 13.7761 11 13.5V13V12.5C11 12.2239 11.2239 12 11.5 12H12H12.5C12.7761 12 13 11.7761 13 11.5V11V10V9V8.5C13 8.22386 13.2239 8 13.5 8H14H14.5C14.7761 8 15 7.77614 15 7.5L15 7V6.5ZM10 8H10.5C10.7761 8 11 8.22386 11 8.5V9V9.5C11 9.77614 10.7761 10 10.5 10H10H9H8H7.5C7.22386 10 7 9.77614 7 9.5V9V8.5C7 8.22386 7.22386 8 7.5 8H8H9H10Z" fill="black"/>
</svg>
