<svg width="24" height="24" viewBox="0 0 24 24" fill="none" xmlns="http://www.w3.org/2000/svg">
<path fill-rule="evenodd" clip-rule="evenodd" d="M10 5.5C10 5.22386 10.2239 5 10.5 5H11H12H13H14H15H16H16.5C16.7761 5 17 5.22386 17 5.5C17 5.77614 17.2239 6 17.5 6C17.7761 6 18 6.22386 18 6.5V7V8V9V10V11V12V13V14V15V16V17V17.5C18 17.7761 17.7761 18 17.5 18C17.2239 18 17 18.2239 17 18.5C17 18.7761 16.7761 19 16.5 19H16H15H14H13H12H11H10H9.5C9.22386 19 9 18.7761 9 18.5C9 18.2239 8.77614 18 8.5 18H8H7.5C7.22386 18 7 17.7761 7 17.5C7 17.2239 6.77614 17 6.5 17C6.22386 17 6 16.7761 6 16.5C6 16.2239 5.77614 16 5.5 16C5.22386 16 5 15.7761 5 15.5C5 15.2239 5.22386 15 5.5 15H6H7H8H8.5C8.77614 15 9 14.7761 9 14.5V14V13V12V11V10V9V8V7V6.5C9 6.22386 9.22386 6 9.5 6C9.77614 6 10 5.77614 10 5.5ZM15 14H15.5C15.7761 14 16 13.7761 16 13.5C16 13.2239 15.7761 13 15.5 13C15.2239 13 15 12.7761 15 12.5C15 12.2239 14.7761 12 14.5 12C14.2239 12 14 11.7761 14 11.5C14 11.2239 13.7761 11 13.5 11C13.2239 11 13 11.2239 13 11.5V12V13V13.5C13 13.7761 13.2239 14 13.5 14H14H15Z" fill="black"/>
</svg>
