<svg width="24" height="24" viewBox="0 0 24 24" fill="none" xmlns="http://www.w3.org/2000/svg">
<path fill-rule="evenodd" clip-rule="evenodd" d="M4 4.5C4 4.22386 4.22386 4 4.5 4H5H6H7H8H9H10H11H12H13H14H15H16H17H18H19H19.5C19.7761 4 20 4.22386 20 4.5V5V6V7V8V9V10V11V12V13V14V15V16V17V18V18.5C20 18.7761 19.7761 19 19.5 19H19H18H17H16H15H14H13H12H11H10H9H8H7H6H5H4.5C4.22386 19 4 18.7761 4 18.5V18V17V16V15V14V13V12.5C4 12.2239 4.22386 12 4.5 12H5H5.5C5.77614 12 6 12.2239 6 12.5V13V14V14.5C6 14.7761 6.22386 15 6.5 15H7H8H9H10H11H11.5C11.7761 15 12 14.7761 12 14.5V14V13V12.5C12 12.2239 12.2239 12 12.5 12C12.7761 12 13 12.2239 13 12.5V13V14V14.5C13 14.7761 13.2239 15 13.5 15H14H15H16H17H18H18.5C18.7761 15 19 14.7761 19 14.5V14V13V12V11V10V9.5C19 9.22386 18.7761 9 18.5 9H18H17H16H15H14H13.5C13.2239 9 13 9.22386 13 9.5V10V10.5C13 10.7761 12.7761 11 12.5 11C12.2239 11 12 10.7761 12 10.5V10V9.5C12 9.22386 11.7761 9 11.5 9H11H10H9H8H7H6.5C6.22386 9 6 9.22386 6 9.5V10V10.5C6 10.7761 5.77614 11 5.5 11H5H4.5C4.22386 11 4 10.7761 4 10.5V10V9V8V7V6V5V4.5ZM10 10H9.5C9.22386 10 9 10.2239 9 10.5V11V12V13V13.5C9 13.7761 9.22386 14 9.5 14H10H10.5C10.7761 14 11 13.7761 11 13.5V13V12V11V10.5C11 10.2239 10.7761 10 10.5 10H10ZM17 10H16.5C16.2239 10 16 10.2239 16 10.5V11V12V13V13.5C16 13.7761 16.2239 14 16.5 14H17H17.5C17.7761 14 18 13.7761 18 13.5V13V12V11V10.5C18 10.2239 17.7761 10 17.5 10H17Z" fill="black"/>
</svg>
