<svg width="24" height="24" viewBox="0 0 24 24" fill="none" xmlns="http://www.w3.org/2000/svg">
<path fill-rule="evenodd" clip-rule="evenodd" d="M4 9H3.5C3.22386 9 3 9.22386 3 9.5V10V10.5C3 10.7761 3.22386 11 3.5 11H4H4.5C4.77614 11 5 10.7761 5 10.5V10V9.5C5 9.22386 4.77614 9 4.5 9H4Z" fill="black"/>
<path fill-rule="evenodd" clip-rule="evenodd" d="M8 9H7.5C7.22386 9 7 9.22386 7 9.5V10V10.5C7 10.7761 7.22386 11 7.5 11H8H8.5C8.77614 11 9 10.7761 9 10.5V10V9.5C9 9.22386 8.77614 9 8.5 9H8Z" fill="black"/>
<path fill-rule="evenodd" clip-rule="evenodd" d="M11 9.5C11 9.22386 11.2239 9 11.5 9H12H12.5C12.7761 9 13 9.22386 13 9.5V10V10.5C13 10.7761 13.2239 11 13.5 11H14H14.5C14.7761 11 15 11.2239 15 11.5V12V13V14V14.5C15 14.7761 14.7761 15 14.5 15H14H13.5C13.2239 15 13 14.7761 13 14.5V14V13.5C13 13.2239 12.7761 13 12.5 13H12H11.5C11.2239 13 11 13.2239 11 13.5V14V14.5C11 14.7761 10.7761 15 10.5 15H10H9.5C9.22386 15 9 14.7761 9 14.5V14V13V12V11.5C9 11.2239 9.22386 11 9.5 11H10H10.5C10.7761 11 11 10.7761 11 10.5V10V9.5Z" fill="black"/>
<path fill-rule="evenodd" clip-rule="evenodd" d="M16 9H15.5C15.2239 9 15 9.22386 15 9.5V10V10.5C15 10.7761 15.2239 11 15.5 11H16H16.5C16.7761 11 17 10.7761 17 10.5V10V9.5C17 9.22386 16.7761 9 16.5 9H16Z" fill="black"/>
<path fill-rule="evenodd" clip-rule="evenodd" d="M20 9H19.5C19.2239 9 19 9.22386 19 9.5V10V10.5C19 10.7761 19.2239 11 19.5 11H20H20.5C20.7761 11 21 10.7761 21 10.5V10V9.5C21 9.22386 20.7761 9 20.5 9H20Z" fill="black"/>
<path fill-rule="evenodd" clip-rule="evenodd" d="M18 11H17.5C17.2239 11 17 11.2239 17 11.5V12V13V14V14.5C17 14.7761 17.2239 15 17.5 15H18H18.5C18.7761 15 19 14.7761 19 14.5V14V13V12V11.5C19 11.2239 18.7761 11 18.5 11H18Z" fill="black"/>
<path fill-rule="evenodd" clip-rule="evenodd" d="M6 11H5.5C5.22386 11 5 11.2239 5 11.5V12V13V14V14.5C5 14.7761 5.22386 15 5.5 15H6H6.5C6.77614 15 7 14.7761 7 14.5V14V13V12V11.5C7 11.2239 6.77614 11 6.5 11H6Z" fill="black"/>
</svg>
