<svg width="24" height="24" viewBox="0 0 24 24" fill="none" xmlns="http://www.w3.org/2000/svg">
<path fill-rule="evenodd" clip-rule="evenodd" d="M10 6H9.5C9.22386 6 9 6.22386 9 6.5V7V7.5C9 7.77614 9.22386 8 9.5 8H10H10.5C10.7761 8 11 8.22386 11 8.5V9V9.5C11 9.77614 10.7761 10 10.5 10H10H9H8H7H6H5.5C5.22386 10 5 10.2239 5 10.5V11V11.5C5 11.7761 5.22386 12 5.5 12H6H6.5C6.77614 12 7 12.2239 7 12.5V13V13.5C7 13.7761 7.22386 14 7.5 14H8H8.5C8.77614 14 9 14.2239 9 14.5V15V15.5C9 15.7761 8.77614 16 8.5 16H8H7.5C7.22386 16 7 16.2239 7 16.5V17V17.5C7 17.7761 7.22386 18 7.5 18H8H9H10H11H12H13H14H15H16H16.5C16.7761 18 17 17.7761 17 17.5V17V16.5C17 16.2239 16.7761 16 16.5 16H16H15.5C15.2239 16 15 15.7761 15 15.5V15V14.5C15 14.2239 15.2239 14 15.5 14H16H16.5C16.7761 14 17 13.7761 17 13.5V13V12.5C17 12.2239 17.2239 12 17.5 12H18H18.5C18.7761 12 19 11.7761 19 11.5V11V10.5C19 10.2239 18.7761 10 18.5 10H18H17H16H15H14H13.5C13.2239 10 13 9.77614 13 9.5V9V8.5C13 8.22386 13.2239 8 13.5 8H14H14.5C14.7761 8 15 7.77614 15 7.5V7V6.5C15 6.22386 14.7761 6 14.5 6H14H13H12H11H10Z" fill="black"/>
</svg>
