<svg width="24" height="24" viewBox="0 0 24 24" fill="none" xmlns="http://www.w3.org/2000/svg">
<path fill-rule="evenodd" clip-rule="evenodd" d="M6 5H5.5C5.22386 5 5 5.22386 5 5.5V6V7H4H3.5C3.22386 7 3 7.22386 3 7.5V8V9V10V11V12V13V14V15V16V16.5C3 16.7761 3.22386 17 3.5 17H4H5V18V18.5C5 18.7761 5.22386 19 5.5 19H6H7H8H9H10H11H12H13H14H15H16H17H18H18.5C18.7761 19 19 18.7761 19 18.5V18V17H20H20.5C20.7761 17 21 16.7761 21 16.5V16V15V14V13V12V11V10V9V8V7.5C21 7.22386 20.7761 7 20.5 7H20H19V6V5.5C19 5.22386 18.7761 5 18.5 5H18H17H16H15H14H13H12H11H10H9H8H7H6ZM19 7V8V9V10V11V12V13V14V15V16V17H18H17H16H15H14H13H12H11H10H9H8H7H6H5V16V15V14V13V12V11V10V9V8V7H6H7H8H9H10H11H12H13H14H15H16H17H18H19ZM7 9.5C7 9.22386 7.22386 9 7.5 9H8H9H10H10.5C10.7761 9 11 9.22386 11 9.5V10V10.5C11 10.7761 10.7761 11 10.5 11H10H9.5C9.22386 11 9 11.2239 9 11.5V12V12.5C9 12.7761 9.22386 13 9.5 13H10H10.5C10.7761 13 11 13.2239 11 13.5V14V14.5C11 14.7761 10.7761 15 10.5 15H10H9H8H7.5C7.22386 15 7 14.7761 7 14.5V14V13V12V11V10V9.5ZM16 13H15.5C15.2239 13 15 12.7761 15 12.5V12V11.5C15 11.2239 15.2239 11 15.5 11H16H16.5C16.7761 11 17 10.7761 17 10.5V10V9.5C17 9.22386 16.7761 9 16.5 9H16H15H14H13.5C13.2239 9 13 9.22386 13 9.5V10V11V12V13V14V14.5C13 14.7761 13.2239 15 13.5 15H14H15H16H16.5C16.7761 15 17 14.7761 17 14.5V14V13.5C17 13.2239 16.7761 13 16.5 13H16Z" fill="black"/>
</svg>
