<svg width="24" height="24" viewBox="0 0 24 24" fill="none" xmlns="http://www.w3.org/2000/svg">
<path fill-rule="evenodd" clip-rule="evenodd" d="M10 7H9.5C9.22386 7 9 7.22386 9 7.5V8V9V9.5C9 9.77614 8.77614 10 8.5 10H8H7H6.5C6.22386 10 6 10.2239 6 10.5V11V12V12.5C6 12.7761 5.77614 13 5.5 13H5H4H3.5C3.22386 13 3 13.2239 3 13.5V14V15V15.5C3 15.7761 3.22386 16 3.5 16H4H5H6H7H8H9H10H11H12H13H14H15H16H17H18H19H20H20.5C20.7761 16 21 15.7761 21 15.5V15V14V13V12V11V10.5C21 10.2239 20.7761 10 20.5 10H20H19H18.5C18.2239 10 18 9.77614 18 9.5V9V8V7.5C18 7.22386 17.7761 7 17.5 7H17H16H15H14H13H12H11H10Z" fill="black"/>
</svg>
