<svg width="24" height="24" viewBox="0 0 24 24" fill="none" xmlns="http://www.w3.org/2000/svg">
<path fill-rule="evenodd" clip-rule="evenodd" d="M12 5H11H10.5C10.2239 5 10 5.22386 10 5.5V6V6.5C10 6.77614 9.77614 7 9.5 7H9H8H7H6.5C6.22386 7 6 7.22386 6 7.5V8V9V10V11V12V12.5C6 12.7761 6.22386 13 6.5 13H7H7.5C7.77614 13 8 13.2239 8 13.5V14V14.5C8 14.7761 8.22386 15 8.5 15H9H9.5C9.77614 15 10 15.2239 10 15.5V16V16.5C10 16.7761 10.2239 17 10.5 17H11H12H13H13.5C13.7761 17 14 16.7761 14 16.5V16V15.5C14 15.2239 14.2239 15 14.5 15H15H15.5C15.7761 15 16 14.7761 16 14.5V14V13.5C16 13.2239 16.2239 13 16.5 13H17H17.5C17.7761 13 18 12.7761 18 12.5V12V11V10V9V8V7.5C18 7.22386 17.7761 7 17.5 7H17H16H15H14.5C14.2239 7 14 6.77614 14 6.5V6V5.5C14 5.22386 13.7761 5 13.5 5H13H12ZM8.5 9C8.22386 9 8 9.22386 8 9.5V10V10.5C8 10.7761 8.22386 11 8.5 11H9H9.5C9.77614 11 10 10.7761 10 10.5V10V9.5C10 9.22386 9.77614 9 9.5 9H9H8.5ZM14.5 9C14.2239 9 14 9.22386 14 9.5V10V10.5C14 10.7761 14.2239 11 14.5 11H15H15.5C15.7761 11 16 10.7761 16 10.5V10V9.5C16 9.22386 15.7761 9 15.5 9H15H14.5Z" fill="black"/>
<path fill-rule="evenodd" clip-rule="evenodd" d="M16 15.5C16 15.2239 16.2239 15 16.5 15H17H17.5C17.7761 15 18 15.2239 18 15.5V16V17V18V18.5C18 18.7761 17.7761 19 17.5 19H17H16.5C16.2239 19 16 18.7761 16 18.5V18V17V16V15.5Z" fill="black"/>
<path fill-rule="evenodd" clip-rule="evenodd" d="M6 15.5C6 15.2239 6.22386 15 6.5 15H7H7.5C7.77614 15 8 15.2239 8 15.5V16V17V18V18.5C8 18.7761 7.77614 19 7.5 19H7H6.5C6.22386 19 6 18.7761 6 18.5V18V17V16V15.5Z" fill="black"/>
</svg>
