<svg width="24" height="24" viewBox="0 0 24 24" fill="none" xmlns="http://www.w3.org/2000/svg">
<path fill-rule="evenodd" clip-rule="evenodd" d="M12 5H11.5C11.2239 5 11 5.22386 11 5.5V6V6.5C11 6.77614 11.2239 7 11.5 7H12H13H14H15H16H16.5C16.7761 7 17 6.77614 17 6.5V6V5.5C17 5.22386 16.7761 5 16.5 5H16H15H14H13H12Z" fill="black"/>
<path fill-rule="evenodd" clip-rule="evenodd" d="M18 7H17.5C17.2239 7 17 7.22386 17 7.5V8V9V10V11V12V12.5C17 12.7761 17.2239 13 17.5 13H18H18.5C18.7761 13 19 12.7761 19 12.5V12V11V10V9V8V7.5C19 7.22386 18.7761 7 18.5 7H18Z" fill="black"/>
<path fill-rule="evenodd" clip-rule="evenodd" d="M10 7H9.5C9.22386 7 9 7.22386 9 7.5V8V8.5C9 8.77614 8.77614 9 8.5 9H8H7.5C7.22386 9 7 9.22386 7 9.5V10V10.5C7 10.7761 7.22386 11 7.5 11H8H8.5C8.77614 11 9 11.2239 9 11.5V12V12.5C9 12.7761 9.22386 13 9.5 13H10H10.5C10.7761 13 11 12.7761 11 12.5V12V11.5C11 11.2239 11.2239 11 11.5 11H12H12.5C12.7761 11 13 10.7761 13 10.5V10V9.5C13 9.22386 12.7761 9 12.5 9H12H11.5C11.2239 9 11 8.77614 11 8.5V8V7.5C11 7.22386 10.7761 7 10.5 7H10Z" fill="black"/>
<path fill-rule="evenodd" clip-rule="evenodd" d="M14 11H13.5C13.2239 11 13 11.2239 13 11.5V12V12.5C13 12.7761 12.7761 13 12.5 13H12H11.5C11.2239 13 11 13.2239 11 13.5V14V14.5C11 14.7761 11.2239 15 11.5 15H12H12.5C12.7761 15 13 15.2239 13 15.5V16V16.5C13 16.7761 13.2239 17 13.5 17H14H14.5C14.7761 17 15 16.7761 15 16.5V16V15.5C15 15.2239 15.2239 15 15.5 15H16H16.5C16.7761 15 17 14.7761 17 14.5V14V13.5C17 13.2239 16.7761 13 16.5 13H16H15.5C15.2239 13 15 12.7761 15 12.5V12V11.5C15 11.2239 14.7761 11 14.5 11H14Z" fill="black"/>
<path fill-rule="evenodd" clip-rule="evenodd" d="M8 17H7.5C7.22386 17 7 17.2239 7 17.5V18V18.5C7 18.7761 7.22386 19 7.5 19H8H9H10H11H12H12.5C12.7761 19 13 18.7761 13 18.5V18V17.5C13 17.2239 12.7761 17 12.5 17H12H11H10H9H8Z" fill="black"/>
<path fill-rule="evenodd" clip-rule="evenodd" d="M6 11H5.5C5.22386 11 5 11.2239 5 11.5V12V13V14V15V16V16.5C5 16.7761 5.22386 17 5.5 17H6H6.5C6.77614 17 7 16.7761 7 16.5V16V15V14V13V12V11.5C7 11.2239 6.77614 11 6.5 11H6Z" fill="black"/>
</svg>
