<svg width="24" height="24" viewBox="0 0 24 24" fill="none" xmlns="http://www.w3.org/2000/svg">
<path fill-rule="evenodd" clip-rule="evenodd" d="M17 9H16.5C16.2239 9 16 9.22386 16 9.5V10V10.5C16 10.7761 16.2239 11 16.5 11H17H17.5C17.7761 11 18 10.7761 18 10.5V10V9.5C18 9.22386 17.7761 9 17.5 9H17Z" fill="black"/>
<path fill-rule="evenodd" clip-rule="evenodd" d="M5 13H4.5C4.22386 13 4 13.2239 4 13.5V14V14.5C4 14.7761 4.22386 15 4.5 15H5H5.5C5.77614 15 6 14.7761 6 14.5V14V13.5C6 13.2239 5.77614 13 5.5 13H5Z" fill="black"/>
<path fill-rule="evenodd" clip-rule="evenodd" d="M8 9.5C8 9.22386 8.22386 9 8.5 9H9H10H11H12H13H13.5C13.7761 9 14 9.22386 14 9.5V10V10.5C14 10.7761 14.2239 11 14.5 11H15H15.5C15.7761 11 16 11.2239 16 11.5V12V12.5C16 12.7761 15.7761 13 15.5 13H15H14.5C14.2239 13 14 13.2239 14 13.5V14V14.5C14 14.7761 13.7761 15 13.5 15H13H12.5C12.2239 15 12 14.7761 12 14.5V14V13.5C12 13.2239 11.7761 13 11.5 13H11H10.5C10.2239 13 10 13.2239 10 13.5V14V14.5C10 14.7761 9.77614 15 9.5 15H9H8.5C8.22386 15 8 14.7761 8 14.5V14V13.5C8 13.2239 7.77614 13 7.5 13H7H6.5C6.22386 13 6 12.7761 6 12.5V12V11.5C6 11.2239 6.22386 11 6.5 11H7H7.5C7.77614 11 8 10.7761 8 10.5V10V9.5Z" fill="black"/>
<path fill-rule="evenodd" clip-rule="evenodd" d="M17 13H16.5C16.2239 13 16 13.2239 16 13.5V14V14.5C16 14.7761 16.2239 15 16.5 15H17H18H19H19.5C19.7761 15 20 14.7761 20 14.5V14V13.5C20 13.2239 19.7761 13 19.5 13H19H18H17Z" fill="black"/>
</svg>
