<svg width="24" height="24" viewBox="0 0 24 24" fill="none" xmlns="http://www.w3.org/2000/svg">
<path fill-rule="evenodd" clip-rule="evenodd" d="M7 5H6.5C6.22386 5 6 5.22386 6 5.5V6V7V8V9V10V11V12V13V14V14.5C6 14.7761 6.22386 15 6.5 15H7H7.5C7.77614 15 8 14.7761 8 14.5V14V13.5C8 13.2239 8.22386 13 8.5 13H9H9.5C9.77614 13 10 12.7761 10 12.5V12V11.5C10 11.2239 10.2239 11 10.5 11H11H11.5C11.7761 11 12 11.2239 12 11.5V12V13V14V15V16V17V18V18.5C12 18.7761 12.2239 19 12.5 19H13H13.5C13.7761 19 14 18.7761 14 18.5V18V17V16V15V14V13V12V11V10V9.5C14 9.22386 14.2239 9 14.5 9H15H15.5C15.7761 9 16 8.77614 16 8.5V8V7.5C16 7.22386 16.2239 7 16.5 7H17H17.5C17.7761 7 18 6.77614 18 6.5V6V5.5C18 5.22386 17.7761 5 17.5 5H17H16H15H14H13H12H11H10H9H8H7Z" fill="black"/>
</svg>
