<svg width="24" height="24" viewBox="0 0 24 24" fill="none" xmlns="http://www.w3.org/2000/svg">
<path fill-rule="evenodd" clip-rule="evenodd" d="M6 11H5.5C5.22386 11 5 11.2239 5 11.5V12V13V14V14.5C5 14.7761 5.22386 15 5.5 15H6H6.5C6.77614 15 7 14.7761 7 14.5V14V13V12V11.5C7 11.2239 6.77614 11 6.5 11H6Z" fill="black"/>
<path fill-rule="evenodd" clip-rule="evenodd" d="M16 7H15.5C15.2239 7 15 7.22386 15 7.5V8V8.5C15 8.77614 14.7761 9 14.5 9H14H13H12H11H10H9H8H7.5C7.22386 9 7 9.22386 7 9.5V10V10.5C7 10.7761 7.22386 11 7.5 11H8H8.5C8.77614 11 9 11.2239 9 11.5V12V13V14V15V16V16.5C9 16.7761 9.22386 17 9.5 17H10H10.5C10.7761 17 11 16.7761 11 16.5V16V15.5C11 15.2239 11.2239 15 11.5 15H12H13H14H14.5C14.7761 15 15 15.2239 15 15.5V16V16.5C15 16.7761 15.2239 17 15.5 17H16H16.5C16.7761 17 17 16.7761 17 16.5V16V15V14V13V12V11.5C17 11.2239 17.2239 11 17.5 11H18H18.5C18.7761 11 19 10.7761 19 10.5V10V9.5C19 9.22386 18.7761 9 18.5 9H18H17.5C17.2239 9 17 8.77614 17 8.5V8V7.5C17 7.22386 16.7761 7 16.5 7H16Z" fill="black"/>
</svg>
