<svg width="24" height="24" viewBox="0 0 24 24" fill="none" xmlns="http://www.w3.org/2000/svg">
<path fill-rule="evenodd" clip-rule="evenodd" d="M8 8.5C8 8.22386 8.22386 8 8.5 8H9H9.5C9.77614 8 10 8.22386 10 8.5V9V9.5C10 9.77614 9.77614 10 9.5 10H9H8.5C8.22386 10 8 9.77614 8 9.5V9V8.5ZM8 11.5C8 11.2239 8.22386 11 8.5 11H9H9.5C9.77614 11 10 11.2239 10 11.5V12V12.5C10 12.7761 9.77614 13 9.5 13H9H8.5C8.22386 13 8 12.7761 8 12.5V12V11.5ZM7 12V12.5C7 12.7761 6.77614 13 6.5 13H6H5H4.5C4.22386 13 4 13.2239 4 13.5V14V15V15.5C4 15.7761 4.22386 16 4.5 16C4.77614 16 5 15.7761 5 15.5V15V14.5C5 14.2239 5.22386 14 5.5 14H6H6.5C6.77614 14 7 14.2239 7 14.5V15V16V16.5C7 16.7761 7.22386 17 7.5 17H8H9H10H11H12H12.5C12.7761 17 13 16.7761 13 16.5V16V15V14.5C13 14.2239 13.2239 14 13.5 14C13.7761 14 14 14.2239 14 14.5V15V16V16.5C14 16.7761 14.2239 17 14.5 17H15H16H17H18H19H19.5C19.7761 17 20 16.7761 20 16.5V16V15V14V13V12V11V10V9V8V7.5C20 7.22386 19.7761 7 19.5 7H19H18H17H16H15H14.5C14.2239 7 14 7.22386 14 7.5V8V9V10V11V12V12.5C14 12.7761 13.7761 13 13.5 13C13.2239 13 13 12.7761 13 12.5V12V11V10V9V8V7.5C13 7.22386 12.7761 7 12.5 7H12H11H10H9H8H7.5C7.22386 7 7 7.22386 7 7.5V8V9V10V11V12ZM15 12V12.5C15 12.7761 15.2239 13 15.5 13H16H16.5C16.7761 13 17 12.7761 17 12.5V12V11.5C17 11.2239 16.7761 11 16.5 11H16H15.5C15.2239 11 15 11.2239 15 11.5V12ZM16 10H15.5C15.2239 10 15 9.77614 15 9.5V9V8.5C15 8.22386 15.2239 8 15.5 8H16H16.5C16.7761 8 17 8.22386 17 8.5V9V9.5C17 9.77614 16.7761 10 16.5 10H16ZM10 15V15.5C10 15.7761 9.77614 16 9.5 16H9H8.5C8.22386 16 8 15.7761 8 15.5V15V14.5C8 14.2239 8.22386 14 8.5 14H9H9.5C9.77614 14 10 14.2239 10 14.5V15ZM16.5 16C16.7761 16 17 15.7761 17 15.5V15V14.5C17 14.2239 16.7761 14 16.5 14H16H15.5C15.2239 14 15 14.2239 15 14.5V15V15.5C15 15.7761 15.2239 16 15.5 16H16H16.5Z" fill="black"/>
</svg>
