<svg width="24" height="24" viewBox="0 0 24 24" fill="none" xmlns="http://www.w3.org/2000/svg">
<path fill-rule="evenodd" clip-rule="evenodd" d="M9 9H8H7.5C7.22386 9 7 9.22386 7 9.5V10V10.5C7 10.7761 6.77614 11 6.5 11H6H5H4.5C4.22386 11 4 11.2239 4 11.5V12V13V13.5C4 13.7761 4.22386 14 4.5 14C4.77614 14 5 13.7761 5 13.5V13V12.5C5 12.2239 5.22386 12 5.5 12H6H6.5C6.77614 12 7 12.2239 7 12.5V13V14V14.5C7 14.7761 7.22386 15 7.5 15H8H9H10H11H12H12.5C12.7761 15 13 14.7761 13 14.5V14V13V12.5C13 12.2239 13.2239 12 13.5 12C13.7761 12 14 12.2239 14 12.5V13V14V14.5C14 14.7761 14.2239 15 14.5 15H15H16H17H18H19H19.5C19.7761 15 20 14.7761 20 14.5V14V13V12V11V10V9.5C20 9.22386 19.7761 9 19.5 9H19H18H17H16H15H14.5C14.2239 9 14 9.22386 14 9.5V10V10.5C14 10.7761 13.7761 11 13.5 11C13.2239 11 13 10.7761 13 10.5V10V9.5C13 9.22386 12.7761 9 12.5 9H12H11H10H9ZM8 11.5C8 11.2239 8.22386 11 8.5 11C8.77614 11 9 11.2239 9 11.5C9 11.7761 9.22386 12 9.5 12C9.77614 12 10 12.2239 10 12.5C10 12.7761 10.2239 13 10.5 13C10.7761 13 11 13.2239 11 13.5C11 13.7761 10.7761 14 10.5 14H10H9H8.5C8.22386 14 8 13.7761 8 13.5V13V12V11.5ZM17.5 13C17.7761 13 18 13.2239 18 13.5C18 13.7761 17.7761 14 17.5 14H17H16H15.5C15.2239 14 15 13.7761 15 13.5V13V12V11.5C15 11.2239 15.2239 11 15.5 11C15.7761 11 16 11.2239 16 11.5C16 11.7761 16.2239 12 16.5 12C16.7761 12 17 12.2239 17 12.5C17 12.7761 17.2239 13 17.5 13Z" fill="black"/>
</svg>
