<svg width="24" height="24" viewBox="0 0 24 24" fill="none" xmlns="http://www.w3.org/2000/svg">
<path fill-rule="evenodd" clip-rule="evenodd" d="M8 8H7.5C7.22386 8 7 8.22386 7 8.5V9V9.5C7 9.77614 6.77614 10 6.5 10H6H5H4.5C4.22386 10 4 10.2239 4 10.5V11V12V12.5C4 12.7761 4.22386 13 4.5 13C4.77614 13 5 12.7761 5 12.5V12V11.5C5 11.2239 5.22386 11 5.5 11H6H6.5C6.77614 11 7 11.2239 7 11.5V12V13V14V14.5C7 14.7761 7.22386 15 7.5 15H8H9H10H11H12H12.5C12.7761 15 13 14.7761 13 14.5V14V13V12V11.5C13 11.2239 13.2239 11 13.5 11C13.7761 11 14 11.2239 14 11.5V12V13V14V14.5C14 14.7761 14.2239 15 14.5 15H15H16H17H18H19H19.5C19.7761 15 20 14.7761 20 14.5V14V13V12V11V10V9V8.5C20 8.22386 19.7761 8 19.5 8H19H18H17H16H15H14.5C14.2239 8 14 8.22386 14 8.5V9V9.5C14 9.77614 13.7761 10 13.5 10C13.2239 10 13 9.77614 13 9.5V9V8.5C13 8.22386 12.7761 8 12.5 8H12H11H10H9H8ZM11.5 10C11.7761 10 12 9.77614 12 9.5C12 9.22386 11.7761 9 11.5 9H11H10H9H8.5C8.22386 9 8 9.22386 8 9.5C8 9.77614 8.22386 10 8.5 10H9H10H11H11.5ZM11 11H11.5C11.7761 11 12 11.2239 12 11.5C12 11.7761 11.7761 12 11.5 12H11H10H9H8.5C8.22386 12 8 11.7761 8 11.5C8 11.2239 8.22386 11 8.5 11H9H10H11ZM11 13H11.5C11.7761 13 12 13.2239 12 13.5C12 13.7761 11.7761 14 11.5 14H11H10H9H8.5C8.22386 14 8 13.7761 8 13.5C8 13.2239 8.22386 13 8.5 13H9H10H11ZM15 11.5C15 11.7761 15.2239 12 15.5 12H16H17H18H18.5C18.7761 12 19 11.7761 19 11.5C19 11.2239 18.7761 11 18.5 11H18H17H16H15.5C15.2239 11 15 11.2239 15 11.5ZM18.5 10C18.7761 10 19 9.77614 19 9.5C19 9.22386 18.7761 9 18.5 9H18H17H16H15.5C15.2239 9 15 9.22386 15 9.5C15 9.77614 15.2239 10 15.5 10H16H17H18H18.5ZM19 13.5C19 13.2239 18.7761 13 18.5 13H18H17H16H15.5C15.2239 13 15 13.2239 15 13.5C15 13.7761 15.2239 14 15.5 14H16H17H18H18.5C18.7761 14 19 13.7761 19 13.5Z" fill="black"/>
</svg>
