<svg width="24" height="24" viewBox="0 0 24 24" fill="none" xmlns="http://www.w3.org/2000/svg">
<rect x="11" y="6" width="1" height="1" fill="white"/>
<rect x="9" y="9.99994" width="1" height="1" fill="white"/>
<rect x="13" y="9.99994" width="1" height="1" fill="white"/>
<rect x="7" y="12.0001" width="1" height="1" fill="white"/>
<rect x="9" y="14" width="1" height="1" fill="white"/>
<rect x="11" y="14" width="1" height="1" fill="white"/>
<rect x="11" y="16" width="1" height="1" fill="white"/>
<rect x="13" y="14" width="1" height="1" fill="white"/>
<rect x="15" y="12.0001" width="1" height="1" fill="white"/>
<rect x="11" y="8.00006" width="1" height="1" fill="white"/>
<rect x="12" y="6" width="1" height="1" fill="white"/>
<rect x="10" y="9.99994" width="1" height="1" fill="white"/>
<rect x="14" y="9.99994" width="1" height="1" fill="white"/>
<rect x="8" y="12.0001" width="1" height="1" fill="white"/>
<rect x="10" y="14" width="1" height="1" fill="white"/>
<rect x="12" y="14" width="1" height="1" fill="white"/>
<rect x="12" y="16" width="1" height="1" fill="white"/>
<rect x="14" y="14" width="1" height="1" fill="white"/>
<rect x="16" y="12.0001" width="1" height="1" fill="white"/>
<rect x="12" y="8.00006" width="1" height="1" fill="white"/>
<rect x="11" y="7" width="1" height="1" fill="white"/>
<rect x="9" y="11" width="1" height="1" fill="white"/>
<rect x="13" y="11" width="1" height="1" fill="white"/>
<rect x="7" y="13" width="1" height="1" fill="white"/>
<rect x="9" y="14.9999" width="1" height="1" fill="white"/>
<rect x="11" y="14.9999" width="1" height="1" fill="white"/>
<rect x="11" y="17.0001" width="1" height="1" fill="white"/>
<rect x="13" y="14.9999" width="1" height="1" fill="white"/>
<rect x="15" y="13" width="1" height="1" fill="white"/>
<rect x="11" y="8.99994" width="1" height="1" fill="white"/>
<rect x="12" y="7" width="1" height="1" fill="white"/>
<rect x="10" y="11" width="1" height="1" fill="white"/>
<rect x="14" y="11" width="1" height="1" fill="white"/>
<rect x="8" y="13" width="1" height="1" fill="white"/>
<rect x="10" y="14.9999" width="1" height="1" fill="white"/>
<rect x="12" y="14.9999" width="1" height="1" fill="white"/>
<rect x="12" y="17.0001" width="1" height="1" fill="white"/>
<rect x="14" y="14.9999" width="1" height="1" fill="white"/>
<rect x="16" y="13" width="1" height="1" fill="white"/>
<rect x="12" y="8.99994" width="1" height="1" fill="white"/>
</svg>
