<svg width="24" height="24" viewBox="0 0 24 24" fill="none" xmlns="http://www.w3.org/2000/svg">
<path fill-rule="evenodd" clip-rule="evenodd" d="M4 5H3V6V7H4H5H6H7H8H9H10H11H12H13H14H15H16H17H18H19H20H21V6V5H20H19H18H17H16H15H14H13H12H11H10H9H8H7H6H5H4ZM4 13H3V14V15H4H5H6H7H8H9H10H11H12H13H14H15H16H17H18H19H20H21V14V13H20H19H18H17H16H15H14H13H12H11H10H9H8H7H6H5H4ZM7 9H8H9H10H11H12H13H14H15H16H17H18H19H20H21V10V11H20H19H18H17H16H15H14H13H12H11H10H9H8H7V10V9ZM8 17H7V18V19H8H9H10H11H12H13H14H15H16H17H18H19H20H21V18V17H20H19H18H17H16H15H14H13H12H11H10H9H8Z" fill="black"/>
</svg>
