<svg width="24" height="24" viewBox="0 0 24 24" fill="none" xmlns="http://www.w3.org/2000/svg">
<path fill-rule="evenodd" clip-rule="evenodd" d="M11 6H12V7V8V9H11V10H10V11H11H12H13H14H15V12V13H14V14H13V15H12V16H11V17H10V18H9V17V16V15H10V14H11V13H10H9H8H7H6V12V11H7V10H8V9H9V8H10V7H11V6ZM15 6H14V7V8H15H16H17V9V10V11V12V13V14V15V16H16H15H14V17V18H15H16H17H18H19V17V16V15V14V13V12V11V10V9V8V7V6H18H17H16H15ZM21 9H20V10V11V12V13V14V15H21H22V14V13V12V11V10V9H21ZM6 16H7V17V18H6H5H4H3H2V17V16V15V14V13V12V11V10V9V8V7V6H3H4H5H6H7V7V8H6H5H4V9V10V11V12V13V14V15V16H5H6Z" fill="black"/>
</svg>
