<svg width="24" height="24" viewBox="0 0 24 24" fill="none" xmlns="http://www.w3.org/2000/svg">
<path fill-rule="evenodd" clip-rule="evenodd" d="M11 3H12H13H14V4H15H16V5H17V6V7H18V8V9V10V11H19V12V13V14H18H17V13V12H16V11V10V9V8H15V7V6H14H13V5H12H11V6H10H9V5V4H10V3H11ZM11 15H12V16H13V17H12H11H10H9H8H7H6H5H4V16V15V14H5V13V12V11H6H7V12V13V14V15H8H9H10H11ZM15 19H14H13V20H12H11V19H10H9V20V21H10H11V22H12H13V21H14H15V20V19ZM4 3H3V4V5H4V6H5V7H6V8H7V9H8V10H9V11H10V12H11V13H12V14H13V15H14V16H15V17H16V18H17V19H18V20H19V21H20H21V20V19H20V18H19V17H18V16H17V15H16V14H15V13H14V12H13V11H12V10H11V9H10V8H9V7H8V6H7V5H6V4H5V3H4Z" fill="black"/>
</svg>
