<svg width="24" height="24" viewBox="0 0 24 24" fill="none" xmlns="http://www.w3.org/2000/svg">
<path fill-rule="evenodd" clip-rule="evenodd" d="M9 2H8V3V4H7H6H5H4V5V6V7V8V9V10V11V12V13V14V15V16V17V18V19V20V21V22H5H6H7H8H9H10H11H12H13H14H15H16H17H18H19H20V21V20V19V18V17V16V15V14V13V12V11V10V9V8V7V6V5V4H19H18H17H16V3V2H15H14H13H12H11H10H9ZM6 9V8V7V6H7H8V7V8H9H10H11H12H13H14H15H16V7V6H17H18V7V8V9V10V11V12V13V14V15V16V17V18V19V20H17H16H15H14H13H12H11H10H9H8H7H6V19V18V17V16V15V14V13V12V11V10V9ZM10 4V5V6H11H12H13H14V5V4H13H12H11H10Z" fill="black"/>
</svg>
