<svg width="24" height="24" viewBox="0 0 24 24" fill="none" xmlns="http://www.w3.org/2000/svg">
<path fill-rule="evenodd" clip-rule="evenodd" d="M12 2H13H14H15H16V3H17H18V4H19H20V5V6V7V8V9V10V11V12V13V14V15V16V17V18V19V20H19H18V21H17H16V22H15H14H13H12H11H10H9H8V21H7H6V20H5H4V19V18V17V16V15V14V13V12V11V10V9V8V7V6V5V4H5H6V3H7H8V2H9H10H11H12ZM6 15V14H7H8V15H9H10H11H12H13H14H15H16V14H17H18V15V16V17V18V19H17H16V20H15H14H13H12H11H10H9H8V19H7H6V18V17V16V15ZM16 13H15H14H13H12H11H10H9H8V12H7H6V11V10V9V8V7H7H8V8H9H10H11H12H13H14H15H16V7H17H18V8V9V10V11V12H17H16V13ZM16 5V6H15H14H13H12H11H10H9H8V5V4H9H10H11H12H13H14H15H16V5Z" fill="black"/>
</svg>
