<svg width="24" height="24" viewBox="0 0 24 24" fill="none" xmlns="http://www.w3.org/2000/svg">
<path fill-rule="evenodd" clip-rule="evenodd" d="M13 4H14V5H15H16H17V6H18V7H19V8H20V9H21V10H22V11V12V13V14H21V15H20V16H19V17H18V18H17V19H16H15H14V20H13H12H11H10V19H9H8H7V18H6V17H5V16H4V15H3V14H2V13V12V11V10H3V9H4V8H5V7H6V6H7V5H8H9H10V4H11H12H13ZM14 18V17H15H16V16H17V15H18V14H19V13H20V12V11H19V10H18V9H17V8H16V7H15H14V6H13H12H11H10V7H9H8V8H7V9H6V10H5V11H4V12V13H5V14H6V15H7V16H8V17H9H10V18H11H12H13H14ZM13 9H14V10H15V11V12V13V14H14V15H13H12H11H10V14H9V13V12V11V10H10V9H11H12H13ZM12 11H11V12V13H12H13V12V11H12Z" fill="black"/>
</svg>
