<svg width="24" height="24" viewBox="0 0 24 24" fill="none" xmlns="http://www.w3.org/2000/svg">
<path fill-rule="evenodd" clip-rule="evenodd" d="M4 5H3V6V7V8V9V10V11V12V13V14V15V16V17V18V19H4H5V18H6V17H7V16H8V15H9V14H10V13H11V12V11H10V10H9V9H8V8H7V7H6V6H5V5H4ZM7 14H6V15H5V14V13V12V11V10V9H6V10H7V11H8V12V13H7V14ZM18 9H17V8H16V7H15V6H14V5H13H12V6V7V8V9V10V11V12V13V14V15V16V17V18V19H13H14V18H15V17H16V16H17V15H18V14H19V13H20V12V11H19V10H18V9ZM16 14H15V15H14V14V13V12V11V10V9H15V10H16V11H17V12V13H16V14Z" fill="black"/>
</svg>
