<svg width="24" height="24" viewBox="0 0 24 24" fill="none" xmlns="http://www.w3.org/2000/svg">
<path fill-rule="evenodd" clip-rule="evenodd" d="M4 2H5H6H7H8H9H10H11H12H13V3H14V4H15V5H16V6H17V7H18V8H19V9H20V10V11V12V13V14V15V16V17V18V19V20V21V22H19H18H17H16H15H14H13H12H11H10H9H8H7H6H5H4V21V20V19V18V17V16V15V14V13V12V11V10V9V8V7V6V5V4V3V2ZM15 11H16H17H18V12V13V14V15V16V17V18V19V20H17H16H15H14H13H12H11H10H9H8H7H6V19V18V17V16V15V14V13V12V11V10V9V8V7V6V5V4H7H8H9H10H11V5V6V7V8V9V10V11H12H13H14H15ZM13 9V8V7V6H14V7H15V8H16V9H15H14H13ZM7 8H8H9H10V9V10H9H8H7V9V8ZM7 12H8H9H10H11H12H13H14H15H16H17V13V14H16H15H14H13H12H11H10H9H8H7V13V12ZM7 16H8H9H10H11H12H13H14H15H16H17V17V18H16H15H14H13H12H11H10H9H8H7V17V16Z" fill="black"/>
</svg>
