<svg width="24" height="24" viewBox="0 0 24 24" fill="none" xmlns="http://www.w3.org/2000/svg">
<path fill-rule="evenodd" clip-rule="evenodd" d="M2 4H3H4H5H6H7H8H9H10V5H11V6H12V7H13H14H15H16H17H18H19H20H21H22V8V9V10V11V12V13V14V15V16V17V18V19V20H21H20H19H18H17H16H15H14H13H12H11H10H9H8H7H6H5H4H3H2V19V18V17V16V15V14V13V12V11V10V9V8V7V6V5V4ZM10 8H11V9H12H13H14H15H16H17H18H19H20V10V11V12V13V14V15V16V17V18H19H18H17H16H15H14H13H12H11H10H9H8H7H6H5H4V17V16V15V14V13V12V11V10V9V8V7V6H5H6H7H8H9V7H10V8Z" fill="black"/>
</svg>
