<svg width="24" height="24" viewBox="0 0 24 24" fill="none" xmlns="http://www.w3.org/2000/svg">
<path fill-rule="evenodd" clip-rule="evenodd" d="M15 3H14V4H13H12H11H10V3H9H8H7V4H6V5H5V6V7V8H4H3V9V10V11V12V13V14H4H5V15V16V17V18V19V20V21H6H7H8H9H10H11H12H13H14H15H16H17H18H19V20V19V18V17V16V15V14H20H21V13V12V11V10V9V8H20H19V7V6V5H18V4H17V3H16H15ZM7 7V6H8V5H9H10V6H11V7V8H10H9H8H7V7ZM16 8H17V7V6H16V5H15H14V6H13V7V8H14H15H16ZM7 17V18V19H8H9H10H11V18V17V16V15V14H10H9H8H7V15V16V17ZM5 12H6H7H8H9H10H11V11V10H10H9H8H7H6H5V11V12ZM13 16V15V14H14H15H16H17V15V16V17V18V19H16H15H14H13V18V17V16ZM14 12H13V11V10H14H15H16H17H18H19V11V12H18H17H16H15H14Z" fill="black"/>
</svg>
