<svg width="24" height="24" viewBox="0 0 24 24" fill="none" xmlns="http://www.w3.org/2000/svg">
<path fill-rule="evenodd" clip-rule="evenodd" d="M13 3H14V4H15V5H16V6H17V7H18V8H19V9H20V10H21V11V12V13V14V15V16V17V18V19V20V21H20H19H18H17H16H15H14H13H12H11H10H9H8H7H6H5H4H3V20V19V18V17V16V15V14V13V12V11V10H4V9H5V8H6V7H7V6H8V5H9V4H10V3H11H12H13ZM19 18V19H18H17H16V18V17V16V15V14V13V12H15H14H13H12H11H10H9H8V13V14V15V16V17V18V19H7H6H5V18V17V16V15V14V13V12V11H6V10H7V9H8V8H9V7H10V6H11V5H12H13V6H14V7H15V8H16V9H17V10H18V11H19V12V13V14V15V16V17V18ZM13 14H14V15V16V17V18V19H13H12H11H10V18V17V16V15V14H11H12H13Z" fill="black"/>
</svg>
