<svg width="24" height="24" viewBox="0 0 24 24" fill="none" xmlns="http://www.w3.org/2000/svg">
<path fill-rule="evenodd" clip-rule="evenodd" d="M13 5H12H11V6H10H9V7H8H7V8V9H8H9V10H10H11V11H12H13V10H14H15V9H16H17V8V7H16H15V6H14H13V5ZM21 7H20V6H19H18V5H17H16V4H15H14V3H13H12H11H10V4H9H8V5H7H6V6H5H4V7H3V8V9H4V10H5H6V11H7H8V12H9H10V13H11H12H13H14V12H15H16V11H17H18V10H19H20V9H21V8V7ZM13 15H12H11V14H10H9V13H8H7V12H6H5V11H4H3V12V13H4V14H5H6V15H7H8V16H9H10V17H11H12H13H14V16H15H16V15H17H18V14H19H20V13H21V12V11H20H19V12H18H17V13H16H15V14H14H13V15ZM13 19H12H11V18H10H9V17H8H7V16H6H5V15H4H3V16V17H4V18H5H6V19H7H8V20H9H10V21H11H12H13H14V20H15H16V19H17H18V18H19H20V17H21V16V15H20H19V16H18H17V17H16H15V18H14H13V19Z" fill="black"/>
</svg>
