<svg width="24" height="24" viewBox="0 0 24 24" fill="none" xmlns="http://www.w3.org/2000/svg">
<path fill-rule="evenodd" clip-rule="evenodd" d="M18 3H17H16H15H14V4H13V5V6H14H15V5H16H17V6H18V7H19V8V9V10H18V11H17V12H16V13H15V14H14V15H13V14H12V13H11H10V14V15H11V16H12V17H13H14H15V16H16V15H17V14H18V13H19V12H20V11H21V10V9V8V7V6H20V5H19V4H18V3ZM10 20V21H9H8H7H6V20H5V19H4V18H3V17V16V15V14V13H4V12H5V11H6V10H7V9H8V8H9V7H10H11H12V8H13V9H14V10V11H13H12V10H11V9H10V10H9V11H8V12H7V13H6V14H5V15V16V17H6V18H7V19H8H9V18H10H11V19V20H10Z" fill="black"/>
</svg>
