<svg width="24" height="24" viewBox="0 0 24 24" fill="none" xmlns="http://www.w3.org/2000/svg">
<path fill-rule="evenodd" clip-rule="evenodd" d="M2 4H3H4H5H6H7H8H9H10H11H12H13H14H15H16H17H18H19H20H21H22V5V6V7V8V9V10V11V12V13V14V15V16V17V18V19V20H21H20H19H18H17H16H15H14H13H12H11H10H9H8H7H6H5H4H3H2V19V18V17V16V15V14V13V12V11V10V9V8V7V6V5V4ZM17 6H16H15H14H13H12H11H10H9H8H7V7H8V8H9V9H10V10H11V11H12H13V10H14V9H15V8H16V7H17V6ZM5 8V7H4V8V9V10V11V12V13V14V15V16V17V18H5H6H7H8H9H10H11H12H13H14H15H16H17H18H19H20V17V16V15V14V13V12V11V10V9V8V7H19V8H18V9H17V10H16V11H15V12H14V13H13V14H12H11V13H10V12H9V11H8V10H7V9H6V8H5Z" fill="black"/>
</svg>
