<svg width="24" height="24" viewBox="0 0 24 24" fill="none" xmlns="http://www.w3.org/2000/svg">
<path fill-rule="evenodd" clip-rule="evenodd" d="M15 3H16V4H17H18V5V6H19V7V8V9V10V11V12H18V13V14H17V15V16H16V17V18H15V19V20H14V21H13V22H12H11V21H10V20H9V19V18H8V17V16H7V15V14H6V13V12H5V11V10V9V8V7V6H6V5V4H7H8V3H9H10V2H11H12H13H14V3H15ZM16 6H15H14V5H13H12H11H10V6H9H8V7V8H7V9V10V11H8V12V13H9V14V15H10V16V17H11V18V19H12H13V18V17H14V16V15H15V14V13H16V12V11H17V10V9V8H16V7V6ZM12 7H11H10V8H9V9V10V11V12H10V13H11H12H13H14V12H15V11V10V9V8H14V7H13H12ZM11 11V10V9H12H13V10V11H12H11Z" fill="black"/>
</svg>
