<svg width="24" height="24" viewBox="0 0 24 24" fill="none" xmlns="http://www.w3.org/2000/svg">
<path fill-rule="evenodd" clip-rule="evenodd" d="M6 3H5V4V5V6V7V8V9V10V11V12V13V14V15V16V17V18V19V20V21H6H7H8H9H10H11V20V19V18V17V16V15V14V13V12V11V10V9V8V7V6V5V4V3H10H9H8H7H6ZM7 5V6V7V8V9V10V11V12V13V14V15V16V17V18V19H8H9V18V17V16V15V14V13V12V11V10V9V8V7V6V5H8H7ZM13 3H14H15H16H17H18H19V4V5V6V7V8V9V10V11V12V13V14V15V16V17V18V19V20V21H18H17H16H15H14H13V20V19V18V17V16V15V14V13V12V11V10V9V8V7V6V5V4V3ZM15 5V6V7V8V9V10V11V12V13V14V15V16V17V18V19H16H17V18V17V16V15V14V13V12V11V10V9V8V7V6V5H16H15Z" fill="black"/>
</svg>
