<svg width="24" height="24" viewBox="0 0 24 24" fill="none" xmlns="http://www.w3.org/2000/svg">
<path fill-rule="evenodd" clip-rule="evenodd" d="M4 3H3V4V5V6H4V7V8V9V10V11H5V12V13V14V15H6V16V17H7H8H9H10V18H11V19H12V20H13V21H14H15H16V20H17V19H18V18H19V17H20V16H21V15V14V13H20V12H19V11H18V10H17V9V8V7V6H16H15V5H14H13H12H11V4H10H9H8H7H6V3H5H4ZM19 14V15H18V16H17V17H16V18H15V19H14V18V17H15V16H16V15H17V14H18H19ZM11 16H10V15H9H8H7V14V13V12V11H6V10V9V8H7V9H8V10V11V12V13H9V14H10H11H12H13V13H14V12V11V10V9H13V8H12H11H10H9V7H8V6H9H10H11V7H12H13H14H15V8V9V10H16V11V12V13H15V14H14V15H13V16H12H11ZM12 12H11H10V11V10H11H12V11V12Z" fill="black"/>
</svg>
