<svg width="24" height="24" viewBox="0 0 24 24" fill="none" xmlns="http://www.w3.org/2000/svg">
<path fill-rule="evenodd" clip-rule="evenodd" d="M19 3H20H21V4V5H20V6H19V7H18V8H17V9H16V10H15V11H14V12H13V13H12V14H11V15H10V16H9V17H8V18H7V19H6V20H5V21H4H3V20V19H4V18H5V17H6V16H7V15H8V14H9V13H10V12H11V11H12V10H13V9H14V8H15V7H16V6H17V5H18V4H19V3ZM3 3H4H5H6H7H8H9H10V4V5H11V6V7V8V9H10V10V11H9V12H8V11V10V9H9V8V7V6V5H8H7H6H5V6V7V8V9H6V10V11H7V12V13V14H6V13H5V12V11H4V10V9H3V8V7V6V5V4V3ZM11 17H12H13V18H14H15V19H16H17H18H19V18V17V16V15H18H17H16V16H15H14H13H12V15H13V14H14H15V13H16H17H18H19V14H20H21V15V16V17V18V19V20V21H20H19H18H17H16H15V20H14H13V19H12H11V18H10V17H11Z" fill="black"/>
</svg>
