<svg width="24" height="24" viewBox="0 0 24 24" fill="none" xmlns="http://www.w3.org/2000/svg">
<path fill-rule="evenodd" clip-rule="evenodd" d="M7 6V5H6H5V6H4V7H3V8H2V9V10V11V12V13V14V15V16H3V17H4V18H5V19H6H7V18V17H6V16H5V15H4V14V13V12V11V10V9H5V8H6V7H7V6ZM19 10H18V9H17V8H16H15V9V10H16V11H17V12V13H16V14H15V15V16H16H17V15H18V14H19V13V12V11V10ZM21 16H22V15V14V13V12V11V10V9V8H21V7H20V6H19V5H18H17V6V7H18V8H19V9H20V10V11V12V13V14V15H19V16H18V17H17V18V19H18H19V18H20V17H21V16ZM6 14H5V13V12V11V10H6V9H7V8H8H9V9V10H8V11H7V12V13H8V14H9V15V16H8H7V15H6V14ZM11 11H12H13V12V13H12H11V12V11ZM10 10V11H9V12V13H10V14V15H11H12H13H14V14V13H15V12V11H14V10V9H13H12H11H10V10Z" fill="black"/>
</svg>
