<svg width="24" height="24" viewBox="0 0 24 24" fill="none" xmlns="http://www.w3.org/2000/svg">
<path fill-rule="evenodd" clip-rule="evenodd" d="M16 3V2H17H18V3H19V4H20V5H21V6V7H20V8H19V9H18V10H17H16V9V8H17V7H16H15H14H13H12H11H10H9H8H7V8H6V9H5V10V11V12H4H3V11V10V9V8H4V7H5V6H6V5H7H8H9H10H11H12H13H14H15H16H17V4H16V3ZM7 20V19H8H9H10H11H12H13H14H15H16H17H18V18H19V17H20V16H21V15V14V13V12H20H19V13V14V15H18V16H17V17H16H15H14H13H12H11H10H9H8H7V16H8V15V14H7H6V15H5V16H4V17H3V18V19H4V20H5V21H6V22H7H8V21V20H7Z" fill="black"/>
</svg>
