<svg width="24" height="24" viewBox="0 0 24 24" fill="none" xmlns="http://www.w3.org/2000/svg">
<path fill-rule="evenodd" clip-rule="evenodd" d="M10 6H11V7H12V8H13V9H14V10H15V11H16V12H17V13H18V14H19V15V16V17V18V19V20V21H20H21V20V19V18V17V16V15V14V13H20V12H19V11H18V10H17V9H16V8H15V7H14V6H13V5H12V4H11V3H10H9H8H7H6H5H4H3V4V5H4H5H6H7H8H9H10V6ZM10 14H11V15H12V16H13V17V18V19V20V21H14H15V20V19V18V17V16V15H14V14H13V13H12V12H11V11H10V10H9V9H8H7H6H5H4H3V10V11H4H5H6H7H8V12H9V13H10V14ZM6 17H5V18V19H6H7V18H6V17ZM9 18V19V20V21H8H7H6H5H4H3V20V19V18V17V16V15H4H5H6H7V16H8V17H9V18Z" fill="black"/>
</svg>
