<svg width="24" height="24" viewBox="0 0 24 24" fill="none" xmlns="http://www.w3.org/2000/svg">
<path fill-rule="evenodd" clip-rule="evenodd" d="M4 3H3V4V5V6V7V8V9V10V11V12V13V14V15V16V17V18V19V20V21H4H5H6H7H8H9H10H11H12H13H14H15H16H17H18H19H20H21V20V19V18V17V16V15V14V13V12V11V10V9V8V7H20V6H19V5H18V4H17V3H16H15H14H13H12H11H10H9H8H7H6H5H4ZM19 8H18V7H17V6H16V5H15H14H13H12H11H10H9H8H7H6H5V6V7V8V9V10V11V12V13V14V15V16V17V18V19H6H7V18V17V16V15H8H9H10H11H12H13H14H15H16H17V16V17V18V19H18H19V18V17V16V15V14V13V12V11V10V9V8ZM15 18V19H14H13H12H11H10H9V18V17H10H11H12H13H14H15V18ZM7 8H8H9H10H11H12H13H14H15H16H17V9V10V11V12V13V14H16H15H14H13H12H11H10H9H8H7V13V12V11V10V9V8ZM9 10V11V12H10H11H12H13H14H15V11V10H14H13H12H11H10H9Z" fill="black"/>
</svg>
