<svg width="24" height="24" viewBox="0 0 24 24" fill="none" xmlns="http://www.w3.org/2000/svg">
<path fill-rule="evenodd" clip-rule="evenodd" d="M4 4H3V5V6H4H5H6V7V8H7V9V10V11H8V12V13V14H9V15H10H11H12H13H14H15H16H17H18V14H19V13V12H20V11V10V9H21V8V7H20H19H18H17H16H15H14H13H12H11H10H9H8V6V5H7V4H6H5H4ZM12 9H11H10H9V10H10V11V12V13H11H12H13H14H15H16H17V12V11H18V10V9H17H16H15H14H13H12ZM9 17V16H10H11V17H12V18V19H11V20H10H9V19H8V18V17H9ZM15 17V18V19H16V20H17H18V19H19V18V17H18V16H17H16V17H15Z" fill="black"/>
</svg>
