<svg width="24" height="24" viewBox="0 0 24 24" fill="none" xmlns="http://www.w3.org/2000/svg">
<path fill-rule="evenodd" clip-rule="evenodd" d="M5 5H4V6V7V8V9V10V11V12V13V14V15V16V17V18V19H5H6V18V17V16V15V14V13V12V11V10V9V8V7V6V5H5ZM19 19H18V18H17V17H16H15V16H14H13V15H12H11V14H10H9V13H8V12V11H9V10H10H11V9H12H13V8H14H15V7H16H17V6H18V5H19H20V6V7V8V9V10V11V12V13V14V15V16V17V18V19H19ZM13 13V14H14H15V15H16H17V16H18V15V14V13V12V11V10V9V8H17V9H16H15V10H14H13V11H12H11V12V13H12H13Z" fill="black"/>
</svg>
