<svg width="24" height="24" viewBox="0 0 24 24" fill="none" xmlns="http://www.w3.org/2000/svg">
<path fill-rule="evenodd" clip-rule="evenodd" d="M13 2H12H11V3V4V5H12H13V4V3V2ZM19 4H18V5H17V6V7H18H19V6H20V5V4H19ZM3 11H2V12V13H3H4H5V12V11H4H3ZM20 11H19V12V13H20H21H22V12V11H21H20ZM6 19V20H5H4V19V18H5V17H6H7V18V19H6ZM11 22V21V20V19H12H13V20V21V22H12H11ZM4 4H5H6V5H7V6V7H6H5V6H4V5V4ZM20 19V18H19V17H18H17V18V19H18V20H19H20V19ZM9 14V13V12V11V10H10V9H11H12H13H14V10H15V11V12V13V14H14V15H13H12H11H10V14H9ZM9 16V17H10H11H12H13H14H15V16H16V15H17V14V13V12V11V10V9H16V8H15V7H14H13H12H11H10H9V8H8V9H7V10V11V12V13V14V15H8V16H9Z" fill="black"/>
</svg>
