<svg width="24" height="24" viewBox="0 0 24 24" fill="none" xmlns="http://www.w3.org/2000/svg">
<path fill-rule="evenodd" clip-rule="evenodd" d="M5 6H6H7H8H9H10H11H12H13H14H15H16H17H18H19V7H20V8H21V9H22V10V11V12V13V14V15H21V16H20V17H19V18H18H17H16H15H14H13H12H11H10H9H8H7H6H5V17H4V16H3V15H2V14V13V12V11V10V9H3V8H4V7H5V6ZM5 10V9H6V8H7H8H9H10H11H12H13H14H15H16H17H18V9H19V10H20V11V12V13V14H19V15H18V16H17H16H15H14H13H12H11H10H9H8H7H6V15H5V14H4V13V12V11V10H5ZM14 10H15V9H16H17V10H18V11H19V12V13H18V14H17V15H16H15V14H14V13H13V12V11H14V10ZM15 11V12V13H16H17V12V11H16H15Z" fill="black"/>
</svg>
