<svg width="24" height="24" viewBox="0 0 24 24" fill="none" xmlns="http://www.w3.org/2000/svg">
<path fill-rule="evenodd" clip-rule="evenodd" d="M16 3H15H14H13H12V4H11V5H10V6H9V7H8V8V9V10V11V12H7V13H6V14H5V15H4V16H3V17V18V19V20H4V21H5H6H7H8V20H9V19H10V18H11V17H12V16H13H14H15H16H17V15H18V14H19V13H20V12H21V11V10V9V8H20V7H19H18H17V6V5V4H16V3ZM16 8V7H17V8H16ZM15 9V8H16V9H15ZM15 9V10H14V9H15ZM15 5V6H14V7H13V8H12V9V10H13V11H14V12H15H16V11H17V10H18V9H19V10V11H18V12H17V13H16V14H15H14H13H12H11V15H10V16H9V17H8V18H7V19H6H5V18V17H6V16H7V15H8V14H9V13H10V12V11V10V9V8H11V7H12V6H13V5H14H15Z" fill="black"/>
</svg>
