<svg width="24" height="24" viewBox="0 0 24 24" fill="none" xmlns="http://www.w3.org/2000/svg">
<path fill-rule="evenodd" clip-rule="evenodd" d="M10 5H11V6H12V7V8V9V10H11V11H10H9H8H7V10H6V9V8V7V6H7V5H8H9H10ZM6 12H5V11H4V10V9V8V7V6V5H5V4H6V3H7H8H9H10H11H12V4H13V5H14V6V7V8V9V10V11H13V12H12V13H11H10H9H8H7H6V12ZM17 5H16H15V4V3H16H17H18V4H19V5H20V6V7V8V9V10V11H19V12H18V13H17H16H15V12V11H16H17V10H18V9V8V7V6H17V5ZM3 21H2V20V19V18V17V16V15V14H3H4H5H6H7H8H9H10H11H12H13H14H15H16V15V16V17V18V19V20V21H15H14V20V19V18V17V16H13H12H11H10H9H8H7H6H5H4V17V18V19V20V21H3ZM19 16H20V17V18V19V20V21H21H22V20V19V18V17V16V15V14H21H20H19H18H17V15V16H18H19Z" fill="black"/>
</svg>
