<svg width="24" height="24" viewBox="0 0 24 24" fill="none" xmlns="http://www.w3.org/2000/svg">
<path fill-rule="evenodd" clip-rule="evenodd" d="M13 5H14H15V6H16H17V7H18H19V8H20H21V9H22V10V11H21H20V10H19H18V9H17H16V8H15H14V7H13H12H11H10V8H9H8V9H7H6V10H5H4V11H3H2V10V9H3V8H4H5V7H6H7V6H8H9V5H10H11H12H13ZM7 11H8V10H9H10V9H11H12H13H14V10H15H16V11H17H18V12H19V13V14H18H17V13H16H15V12H14H13V11H12H11V12H10H9V13H8H7V14H6H5V13V12H6V11H7ZM8 16V17H9H10V16H11V15H12H13V16H14V17H15H16V16V15H15V14H14H13V13H12H11V14H10H9V15H8V16ZM12 18H13V19V20H12H11V19V18H12Z" fill="black"/>
</svg>
