<svg width="24" height="24" viewBox="0 0 24 24" fill="none" xmlns="http://www.w3.org/2000/svg">
<path fill-rule="evenodd" clip-rule="evenodd" d="M5 4H6V5H7V6H8V7H9V8H10V9H11V10H12V11H13V12H14V13H15V14H16V15H17V16H18V17H19V18H20V19V20H19H18V19H17V18H16V17H15V16H14V15H13V14H12V13H11V12H10V11H9V10H8V9H7V8H6V7H5V6H4V5V4H5ZM14 5H13H12H11H10H9V6H10V7H11H12H13H14V8H15H16V9H17H18V10H19H20V11H21H22V10V9H21V8H20H19V7H18H17V6H16H15V5H14ZM2 9H3V8H4H5V9H6V10H5H4V11H3H2V10V9ZM9 12H8V11H7H6V12H5V13V14H6H7V13H8H9V12ZM9 15V14H10H11V15V16H10V17H9H8V16V15H9ZM13 18H12H11V19V20H12H13V19V18ZM14 10H15H16V11H17H18V12H19V13V14H18H17V13H16V12H15V11H14V10ZM14 10H13V9H14V10Z" fill="black"/>
</svg>
